<svg id="Layer_1" data-name="Layer 1" xmlns="http://www.w3.org/2000/svg" viewBox="0 0 100 100"><defs><style>.cls-1{fill:#f9320b;}.cls-2{fill:#fff;opacity:0.3;}.cls-3{fill:#3b0f37;}</style></defs><rect class="cls-1" x="5" y="5" width="90" height="90"/><path class="cls-2" d="M87.38,26.27V22.85H77.15V12.62H73.72V22.85H64.43V12.62H61V22.85H51.71V12.62H48.28V22.85H39V12.62H35.56V22.85H26.27V12.62H22.84V22.85H12.62v3.42H22.84v9.29H12.62V39H22.84v9.3H12.62v3.42H22.84V61H12.62v3.42H22.84v9.29H12.62v3.43H22.84V87.37h3.43V77.15h9.29V87.37H39V77.15h9.29V87.37h3.43V77.15H61V87.37h3.43V77.15h9.29V87.37h3.43V77.15H87.38V73.72H77.15V64.43H87.38V61H77.15v-9.3H87.38V48.29H77.15V39H87.38V35.56H77.15V26.27ZM61,26.27v9.29H51.71V26.27ZM48.28,51.71V61H39v-9.3ZM39,48.29V39h9.29v9.3Zm12.72,3.42H61V61H51.71Zm0-3.42V39H61v9.3Zm-3.43-22v9.29H39V26.27Zm-22,0h9.29v9.29H26.27Zm0,12.72h9.29v9.3H26.27Zm0,12.72h9.29V61H26.27Zm0,22V64.43h9.29v9.29Zm12.72,0V64.43h9.29v9.29Zm12.72,0V64.43H61v9.29Zm22,0H64.43V64.43h9.29Zm0-12.71H64.43v-9.3h9.29Zm0-12.72H64.43V39h9.29Zm0-12.73H64.43V26.27h9.29Z"/><path class="cls-3" d="M62.83,52.89H28.89l17-29.39Zm-28.65-3H57.54L45.86,29.61Z"/><path class="cls-3" d="M82.69,71.24H28.3V56H82.69Zm-51.33-3H79.64V59.07H31.36Z"/></svg>