<svg id="Layer_1" data-name="Layer 1" xmlns="http://www.w3.org/2000/svg" viewBox="0 0 100 100"><defs><style>.cls-1{fill:#f9320b;}.cls-2{fill:#fafafa;}.cls-3{fill:#3b0f37;}</style></defs><circle class="cls-1" cx="52.89" cy="50" r="42.1" transform="translate(-1.36 98.52) rotate(-85.19)"/><circle class="cls-2" cx="52.89" cy="50" r="33.68" transform="translate(-18.63 36.5) rotate(-32.7)"/><circle class="cls-1" cx="52.89" cy="50" r="25.26" transform="translate(-10.97 15.08) rotate(-14.72)"/><circle class="cls-2" cx="52.89" cy="50" r="16.84" transform="matrix(0.04, -1, 1, 0.04, 0.63, 100.65)"/><circle class="cls-1" cx="52.89" cy="50" r="8.42" transform="translate(-1.11 98.79) rotate(-85.49)"/><polygon class="cls-3" points="54.19 51.24 42.5 48.16 45.49 45.09 21.32 25.23 22.65 23.93 46.96 43.67 49.3 40.46 54.19 51.24"/><path class="cls-3" d="M21.31,25.23l-.36.21a5.79,5.79,0,0,1-5.82-.08L5,19.28l6.82-1.08L11.08,11l9.33,6.38a5.79,5.79,0,0,1,2.24,6.52h0Z"/></svg>