<svg xmlns="http://www.w3.org/2000/svg" viewBox="0 0 150 100"><defs><style>.cls-1{fill:#fff;}.cls-2{fill:#9bb8cc;}.cls-3{fill:#133b53;}.cls-4{fill:#479da3;}.cls-5{fill:#7bbfba;}.cls-6{fill:#994f61;}.cls-7{fill:#f43d4f;}.cls-8{fill:#e1ecef;}.cls-9{fill:#b72e41;}.cls-10{fill:#4a938c;}.cls-11{fill:#b6ccd8;}</style></defs><g id="OBJECTS"><path class="cls-1" d="M91.54,43.13h27.69c-.14-.48-.87-2.16-4.57-1.52a2.31,2.31,0,0,0,.83-2.14,1.27,1.27,0,0,0-.32-.63,1.46,1.46,0,0,0-.56-.33c-1.46-.52-4,1.49-4,1.49,3.13-4.92-5.4-7-5.46-.76,0,0-1.25-2.24-2.62-1.62-.56.32-.21,1.28,0,1.7-4-1.94-7.64-.75-6,1.46C92.67,40.87,91.54,43.13,91.54,43.13Z"/><path class="cls-1" d="M38.72,31.35H55.47c-.08-.29-.52-1.3-2.76-.91a1.44,1.44,0,0,0,.5-1.3.77.77,0,0,0-.2-.39.81.81,0,0,0-.34-.19c-.88-.32-2.43.9-2.43.9,1.9-3-3.26-4.23-3.3-.46,0,0-.76-1.35-1.58-1-.34.19-.13.77,0,1-2.42-1.18-4.62-.46-3.6.88C39.4,30,38.72,31.35,38.72,31.35Z"/><rect class="cls-1" x="45.47" y="36.57" width="4.8" height="8.89"/><polygon class="cls-2" points="45.47 38.83 45.47 39.68 50.27 39.13 50.27 38.83 45.47 38.83"/><rect class="cls-3" x="44.91" y="37.75" width="5.92" height="1.07"/><path class="cls-4" d="M108.66,73.18h16a2.49,2.49,0,0,0-1.46-1.56,3.57,3.57,0,0,0-2.24,0c.14,0,.32-.28.41-.38a1.59,1.59,0,0,0,.46-.85,1.37,1.37,0,0,0-.29-1.06,1.92,1.92,0,0,0-1.69-.61h-.09a2,2,0,0,0-.35.09,4.16,4.16,0,0,0-1.3.9l-.2.22a5.31,5.31,0,0,0,1.28-1.52,2.84,2.84,0,0,0-3.37-3.8,4.71,4.71,0,0,0-2.24,2.19c1.89-2.84-1.25-4.56-2.37-2,.69-2.11-.34-4.31-2.42-3.07l-.08,0Z"/><path class="cls-5" d="M108.66,73.18h9.4a1.52,1.52,0,0,0-.87-.92,2,2,0,0,0-1.31,0,.91.91,0,0,0-.5-1.17,1.58,1.58,0,0,0-1.3.18,1.57,1.57,0,0,0,.75-.9,1.67,1.67,0,0,0-2-2.24,2.8,2.8,0,0,0-1.32,1.29c1.11-1.67-.74-2.68-1.4-1.18.64-1.65-.59-2.61-1.47-2.24Z"/><path class="cls-4" d="M118.4,64.19a.91.91,0,0,1-.61.19,1.07,1.07,0,0,1,.29-.62.9.9,0,0,1,.62-.2A1.09,1.09,0,0,1,118.4,64.19Z"/><path class="cls-5" d="M111.15,66.82a1,1,0,0,1-.59.44,1.25,1.25,0,0,1,.09-.78,1,1,0,0,1,.59-.44A1.25,1.25,0,0,1,111.15,66.82Z"/><path class="cls-4" d="M117.64,63.29a1.59,1.59,0,0,1-.15.95,1.43,1.43,0,0,1-.53-.77,1.58,1.58,0,0,1,.14-1A1.47,1.47,0,0,1,117.64,63.29Z"/><polygon class="cls-6" points="32.56 73.14 32.81 69.58 30.84 67.3 30.96 67.2 32.12 68.2 32.29 67.2 32.47 67.25 32.44 68.49 32.91 68.95 33.09 65.32 32.13 64.12 32.24 64.03 33.23 64.83 33.3 62.93 33.56 62.93 33.73 65.27 33.98 67.59 35.28 66.18 35.41 66.26 34.93 67 35.76 66.99 35.76 67.13 34.85 67.27 33.97 68.66 34.17 73.14 32.56 73.14"/><path class="cls-4" d="M41,60.28a2.91,2.91,0,0,0-.2-1.31,1.36,1.36,0,0,0-1-.8.73.73,0,0,0-.69.23,5.68,5.68,0,0,0,1.14-2,2.54,2.54,0,0,0-.41-2.24,2.27,2.27,0,0,0-2.06-.72,3.21,3.21,0,0,0-1.93,1.12A15.67,15.67,0,0,0,35.93,51c-.22-1.17-1.15-2.34-2.33-2.29a2.94,2.94,0,0,0-2,1.23,8.33,8.33,0,0,0-1.86,4.58,5.78,5.78,0,0,0-1-1.18,2,2,0,0,0-1.46-.45,2.29,2.29,0,0,0-1.61,1.85,5.07,5.07,0,0,0,.09,2.73,10.15,10.15,0,0,0,2.62,3.7,1.1,1.1,0,0,0-1.34.55,1.8,1.8,0,0,0,.43,1.91,4.15,4.15,0,0,0,1.38,1,11.06,11.06,0,0,0,9.23,0,4.92,4.92,0,0,0,2.4-2.26h0A4.42,4.42,0,0,0,41,60.28Z"/><path class="cls-4" d="M31.77,66.3c-.14-.15-.53-.21-.52.07-.12-.87-1.26-.54-.73.29-.88-.91-1.65.26-.52.78-1,0-.43,1.4.42.8a.32.32,0,0,0,.25.59C31.65,68.67,32.65,67.11,31.77,66.3Z"/><path class="cls-5" d="M30.05,63.73A1.68,1.68,0,0,1,30,63a.8.8,0,0,1,.4-.59.43.43,0,0,1,.41,0,3.26,3.26,0,0,1-.94-.91,1.45,1.45,0,0,1-.14-1.26,1.27,1.27,0,0,1,1-.71,1.8,1.8,0,0,1,1.21.29A8.58,8.58,0,0,1,31.24,58a1.44,1.44,0,0,1,.88-1.59,1.68,1.68,0,0,1,1.26.33,4.6,4.6,0,0,1,1.71,2.14,3.35,3.35,0,0,1,.37-.79,1,1,0,0,1,.7-.47,1.26,1.26,0,0,1,1.15.72,2.82,2.82,0,0,1,.39,1.47,5.65,5.65,0,0,1-.8,2.39.59.59,0,0,1,.8.08,1,1,0,0,1,.07,1.08,2.45,2.45,0,0,1-.57.75,6.17,6.17,0,0,1-4.91,1.47,2.8,2.8,0,0,1-1.64-.82h0A2.59,2.59,0,0,1,30.05,63.73Z"/><path class="cls-4" d="M26.81,60.75a1,1,0,0,1,.07.66,1,1,0,0,1-.53-.41,1,1,0,0,1-.07-.67A1.06,1.06,0,0,1,26.81,60.75Z"/><path class="cls-4" d="M25.82,61.38a1.38,1.38,0,0,1,.87.31,1.42,1.42,0,0,1-.82.41,1.38,1.38,0,0,1-.87-.31A1.36,1.36,0,0,1,25.82,61.38Z"/><path class="cls-4" d="M36.07,67.41a.53.53,0,0,1-.25-.26.56.56,0,0,1,.36,0,.53.53,0,0,1,.25.25A.53.53,0,0,1,36.07,67.41Z"/><path class="cls-4" d="M36.27,66.82a.74.74,0,0,1-.46.15.63.63,0,0,1,.67-.6A.74.74,0,0,1,36.27,66.82Z"/><path class="cls-5" d="M36,57a1.06,1.06,0,0,1-.62.26,1,1,0,0,1,.24-.63,1.06,1.06,0,0,1,.62-.26A1,1,0,0,1,36,57Z"/><path class="cls-5" d="M30.28,59a.71.71,0,0,1,.33.33.67.67,0,0,1-.46,0,.71.71,0,0,1-.34-.32A.75.75,0,0,1,30.28,59Z"/><path class="cls-5" d="M35.13,56.28a1.4,1.4,0,0,1-.05.92,1.17,1.17,0,0,1-.58-1.59A1.38,1.38,0,0,1,35.13,56.28Z"/><path class="cls-5" d="M31.2,68.32a1,1,0,0,1-.25,0,.41.41,0,0,1-.31-.16.31.31,0,0,1-.07-.29c.05-.15.24-.11.32-.22a.26.26,0,0,0,0-.21.6.6,0,0,1,0-.23c0-.07.09-.14.16-.12s.09.06.13.1a.1.1,0,0,0,.08,0c.14,0,.17-.21.32-.19a.43.43,0,0,1,.28.32.7.7,0,0,1-.13.68A.85.85,0,0,1,31.2,68.32Z"/><polygon class="cls-3" points="92.14 33.74 58.18 33.16 38.51 52.09 53.63 52.09 96.09 52.09 111.21 52.09 92.14 33.74"/><rect class="cls-1" x="87.46" y="52.09" width="22.07" height="19.74"/><rect class="cls-7" x="107.11" y="52.09" width="2.41" height="19.74"/><rect class="cls-7" x="87.46" y="52.09" width="2.41" height="19.74"/><rect class="cls-8" x="89.87" y="54.94" width="17.24" height="0.24"/><rect class="cls-8" x="89.87" y="57.72" width="17.24" height="0.24"/><rect class="cls-8" x="89.87" y="60.5" width="17.24" height="0.24"/><rect class="cls-8" x="89.87" y="63.29" width="17.24" height="0.24"/><rect class="cls-8" x="89.87" y="66.07" width="17.24" height="0.24"/><rect class="cls-8" x="89.87" y="68.85" width="17.24" height="0.24"/><rect class="cls-9" x="87.46" y="54.94" width="2.41" height="0.24"/><rect class="cls-9" x="87.46" y="57.72" width="2.41" height="0.24"/><rect class="cls-9" x="87.46" y="60.5" width="2.41" height="0.24"/><rect class="cls-9" x="87.46" y="63.29" width="2.41" height="0.24"/><rect class="cls-9" x="87.46" y="66.07" width="2.41" height="0.24"/><rect class="cls-9" x="87.46" y="68.85" width="2.41" height="0.24"/><rect class="cls-9" x="107.11" y="54.94" width="2.41" height="0.24"/><rect class="cls-9" x="107.11" y="57.72" width="2.41" height="0.24"/><rect class="cls-9" x="107.11" y="60.5" width="2.41" height="0.24"/><rect class="cls-9" x="107.11" y="63.29" width="2.41" height="0.24"/><rect class="cls-9" x="107.11" y="66.07" width="2.41" height="0.24"/><rect class="cls-9" x="107.11" y="68.85" width="2.41" height="0.24"/><rect class="cls-1" x="40.19" y="52.09" width="22.07" height="19.74"/><rect class="cls-8" x="40.19" y="54.94" width="21.88" height="0.24"/><rect class="cls-8" x="40.19" y="57.72" width="21.88" height="0.24"/><rect class="cls-8" x="40.19" y="60.5" width="21.88" height="0.24"/><rect class="cls-8" x="40.19" y="63.29" width="21.88" height="0.24"/><rect class="cls-8" x="40.19" y="66.07" width="21.88" height="0.24"/><rect class="cls-8" x="40.19" y="68.85" width="21.88" height="0.24"/><rect class="cls-7" x="43.96" y="56.14" width="14.53" height="15.68"/><polygon class="cls-9" points="58.49 56.83 43.96 59.19 43.96 56.14 58.49 56.14 58.49 56.83"/><polygon class="cls-2" points="62.26 71.83 61.29 71.83 61.89 52.09 62.26 52.09 62.26 71.83"/><polygon class="cls-2" points="62.26 52.41 40.19 53.62 40.19 52.09 62.26 52.09 62.26 52.41"/><polygon class="cls-2" points="89.87 52.09 89.87 53.48 107.11 52.54 107.11 52.09 89.87 52.09"/><polygon class="cls-9" points="107.11 52.09 107.11 52.54 109.53 52.41 109.53 52.09 107.11 52.09"/><polygon class="cls-9" points="87.46 52.09 87.46 53.62 89.87 53.48 89.87 52.09 87.46 52.09"/><polygon class="cls-1" points="87.46 71.83 62.26 71.83 62.26 41.13 74.86 31.3 87.46 41.13 87.46 71.83"/><polygon class="cls-2" points="74.86 31.3 62.26 41.13 62.26 43.36 74.27 34.07 87.46 44.36 87.46 41.13 74.86 31.3"/><polygon class="cls-1" points="89.46 41.4 74.86 30.44 60.26 41.51 61.69 42.93 74.86 32.65 87.97 42.88 89.46 41.4"/><rect class="cls-5" x="38.74" y="71.83" width="71.48" height="1.35"/><rect class="cls-1" x="46.39" y="59.54" width="9.7" height="12.29"/><rect class="cls-3" x="47.09" y="60.1" width="3.78" height="11.04"/><rect class="cls-3" x="51.57" y="60.1" width="3.78" height="11.04"/><polygon class="cls-9" points="56.09 59.37 46.39 59.37 46.3 59.37 46.18 59.37 46.06 71.83 46.39 71.83 46.39 59.54 56.09 59.54 56.09 59.37"/><rect class="cls-1" x="91.52" y="59.54" width="13.86" height="8.35"/><rect class="cls-3" x="92.16" y="60.1" width="2.33" height="7.13"/><rect class="cls-3" x="95.17" y="60.1" width="6.65" height="7.13"/><rect class="cls-3" x="102.49" y="60.1" width="2.33" height="7.13"/><polygon class="cls-2" points="105.38 59.43 91.52 59.43 91.31 59.43 91.14 67.89 91.52 67.89 91.52 59.54 105.38 59.54 105.38 59.43"/><polygon class="cls-2" points="91.52 67.82 105.38 67.82 105.38 68.02 91.14 68.62 91.14 67.82 91.52 67.82"/><rect class="cls-3" x="66.25" y="60.1" width="3.78" height="11.04"/><rect class="cls-3" x="70.73" y="60.1" width="3.78" height="11.04"/><rect class="cls-3" x="75.2" y="60.1" width="3.78" height="11.04"/><rect class="cls-3" x="79.68" y="60.1" width="3.78" height="11.04"/><polygon class="cls-2" points="83.9 59.43 65.34 59.43 65.05 71.83 65.63 71.83 65.63 59.54 83.9 59.54 83.9 59.43"/><rect class="cls-3" x="70.73" y="41.33" width="3.78" height="11.04"/><rect class="cls-3" x="75.2" y="41.33" width="3.78" height="11.04"/><polygon class="cls-2" points="79.6 40.66 69.85 40.66 69.56 53.06 70.14 53.06 70.14 40.77 79.6 40.77 79.6 40.66"/><rect class="cls-3" x="64.95" y="52.98" width="19.82" height="1.02"/><polygon class="cls-2" points="84.77 53.99 64.95 53.99 64.95 52.98 64.19 53.99 64.19 54.95 84.77 54.22 84.77 53.99"/><rect class="cls-5" x="65.81" y="50.2" width="0.32" height="2.78"/><rect class="cls-5" x="76.55" y="50.2" width="0.32" height="2.78"/><rect class="cls-5" x="72.97" y="50.2" width="0.32" height="2.78"/><rect class="cls-5" x="80.13" y="50.2" width="0.32" height="2.78"/><rect class="cls-5" x="69.39" y="50.2" width="0.32" height="2.78"/><rect class="cls-5" x="83.71" y="50.2" width="0.32" height="2.78"/><rect class="cls-10" x="65.81" y="50.2" width="0.32" height="0.26"/><rect class="cls-10" x="76.55" y="50.2" width="0.32" height="0.26"/><rect class="cls-10" x="72.97" y="50.2" width="0.32" height="0.26"/><rect class="cls-10" x="80.13" y="50.2" width="0.32" height="0.26"/><rect class="cls-10" x="69.39" y="50.2" width="0.32" height="0.26"/><rect class="cls-10" x="83.71" y="50.2" width="0.32" height="0.26"/><polygon class="cls-5" points="84.32 50.2 65.37 50.2 65.37 49.5 84.32 49.66 84.32 50.2"/><rect class="cls-11" x="28.65" y="70.37" width="11.02" height="0.43"/><rect class="cls-11" x="28.65" y="72.1" width="11.02" height="0.43"/><path class="cls-1" d="M29.82,73.14h-.75a.09.09,0,0,1-.09-.08v-3.2a.08.08,0,0,1,0,0l.38-.45a.09.09,0,0,1,.13,0l.37.45a.08.08,0,0,1,0,0v3.2A.09.09,0,0,1,29.82,73.14Z"/><path class="cls-1" d="M31.38,73.14h-.75a.08.08,0,0,1-.08-.08v-3.2a.06.06,0,0,1,0,0l.38-.45a.09.09,0,0,1,.13,0l.37.45a.08.08,0,0,1,0,0v3.2A.09.09,0,0,1,31.38,73.14Z"/><path class="cls-1" d="M32.94,73.14h-.75a.09.09,0,0,1-.08-.08v-3.2a0,0,0,0,1,0,0l.37-.45a.09.09,0,0,1,.13,0l.37.45a0,0,0,0,1,0,0v3.2A.09.09,0,0,1,32.94,73.14Z"/><path class="cls-1" d="M34.5,73.14h-.75a.09.09,0,0,1-.08-.08v-3.2a.08.08,0,0,1,0,0l.37-.45a.09.09,0,0,1,.13,0l.38.45a.06.06,0,0,1,0,0v3.2A.08.08,0,0,1,34.5,73.14Z"/><path class="cls-1" d="M36.06,73.14h-.75a.09.09,0,0,1-.08-.08v-3.2a.08.08,0,0,1,0,0l.37-.45a.09.09,0,0,1,.13,0l.38.45a.08.08,0,0,1,0,0v3.2A.09.09,0,0,1,36.06,73.14Z"/><path class="cls-1" d="M37.62,73.14h-.74a.09.09,0,0,1-.09-.08v-3.2a.08.08,0,0,1,0,0l.37-.45a.1.1,0,0,1,.14,0l.37.45a.08.08,0,0,1,0,0v3.2A.09.09,0,0,1,37.62,73.14Z"/><path class="cls-1" d="M39.19,73.14h-.75a.08.08,0,0,1-.08-.08v-3.2a.06.06,0,0,1,0,0l.38-.45a.09.09,0,0,1,.13,0l.37.45a.08.08,0,0,1,0,0v3.2A.09.09,0,0,1,39.19,73.14Z"/><rect class="cls-11" x="107.86" y="70.37" width="15.62" height="0.43"/><rect class="cls-11" x="107.86" y="72.1" width="15.62" height="0.43"/><path class="cls-1" d="M109,73.14h-.75a.09.09,0,0,1-.08-.08v-3.2a0,0,0,0,1,0,0l.37-.45a.09.09,0,0,1,.13,0l.38.45a.06.06,0,0,1,0,0v3.2A.08.08,0,0,1,109,73.14Z"/><path class="cls-1" d="M110.59,73.14h-.75a.09.09,0,0,1-.08-.08v-3.2a.08.08,0,0,1,0,0l.37-.45a.09.09,0,0,1,.13,0l.38.45a.06.06,0,0,1,0,0v3.2A.08.08,0,0,1,110.59,73.14Z"/><path class="cls-1" d="M112.15,73.14h-.74a.09.09,0,0,1-.09-.08v-3.2a.08.08,0,0,1,0,0l.37-.45a.1.1,0,0,1,.14,0l.37.45a.08.08,0,0,1,0,0v3.2A.09.09,0,0,1,112.15,73.14Z"/><path class="cls-1" d="M113.71,73.14H113a.09.09,0,0,1-.09-.08v-3.2a.08.08,0,0,1,0,0l.38-.45a.09.09,0,0,1,.13,0l.37.45a.08.08,0,0,1,0,0v3.2A.09.09,0,0,1,113.71,73.14Z"/><path class="cls-1" d="M115.28,73.14h-.75a.08.08,0,0,1-.08-.08v-3.2a.06.06,0,0,1,0,0l.38-.45a.09.09,0,0,1,.13,0l.37.45a.08.08,0,0,1,0,0v3.2A.09.09,0,0,1,115.28,73.14Z"/><path class="cls-1" d="M116.84,73.14h-.75a.09.09,0,0,1-.08-.08v-3.2a0,0,0,0,1,0,0l.37-.45a.09.09,0,0,1,.13,0l.37.45a0,0,0,0,1,0,0v3.2A.09.09,0,0,1,116.84,73.14Z"/><path class="cls-1" d="M118.4,73.14h-.75a.09.09,0,0,1-.08-.08v-3.2a.08.08,0,0,1,0,0l.37-.45a.09.09,0,0,1,.13,0l.38.45a.06.06,0,0,1,0,0v3.2A.08.08,0,0,1,118.4,73.14Z"/><path class="cls-1" d="M120,73.14h-.75a.09.09,0,0,1-.08-.08v-3.2a.08.08,0,0,1,0,0l.37-.45a.09.09,0,0,1,.13,0l.38.45a.08.08,0,0,1,0,0v3.2A.09.09,0,0,1,120,73.14Z"/><path class="cls-1" d="M121.52,73.14h-.74a.09.09,0,0,1-.09-.08v-3.2a.08.08,0,0,1,0,0l.37-.45a.1.1,0,0,1,.14,0l.37.45a.08.08,0,0,1,0,0v3.2A.09.09,0,0,1,121.52,73.14Z"/><path class="cls-1" d="M123.09,73.14h-.75a.09.09,0,0,1-.09-.08v-3.2a.08.08,0,0,1,0,0l.38-.45a.09.09,0,0,1,.13,0l.37.45a.08.08,0,0,1,0,0v3.2A.09.09,0,0,1,123.09,73.14Z"/><rect class="cls-3" x="27.63" y="73.02" width="97.37" height="0.32"/></g></svg>