<svg xmlns="http://www.w3.org/2000/svg" viewBox="0 0 150 100"><defs><style>.cls-1{fill:#fff;}.cls-2{fill:#f43d4f;}.cls-3{fill:#133b53;}.cls-4{fill:#b72e41;}.cls-5{fill:#9bb8cc;}.cls-6{fill:#7bbfba;}.cls-7{fill:#479da3;}.cls-8{fill:#f7b857;}.cls-9{fill:#e59933;}</style></defs><g id="OBJECTS"><path class="cls-1" d="M28.65,37.78c1.26-2.22,3.34-2.8,6.91-1.57-.72-1.63,1.43-4.84,4.89-1.44-1-5.46,7.14-6.09,6.74-.81,2.05-2.55,7.45-1.1,5.35,1.94,3.16-.78,4.44,0,6.51,1.88Z"/><path class="cls-1" d="M120.36,39h-9.47c-.35-1.23-.14-2.61,3.73-1.5C115.83,35.27,118.19,37.51,120.36,39Z"/><path class="cls-1" d="M117,31.66H96.26c.63-1.91,4.38-3.48,9-2.17,1.36-2.53,3.56-2.07,5.62.75C113.65,28.54,116.59,31,117,31.66Z"/><polygon class="cls-1" points="91.42 41.17 91.42 31.77 85.09 31.77 85.09 36.58 91.42 41.17"/><polygon class="cls-1" points="91.42 41.17 91.42 31.77 85.09 31.77 85.09 36.58 91.42 41.17"/><polygon class="cls-2" points="85.09 36.28 85.09 36.58 91.42 41.17 91.42 36.28 85.09 36.28"/><rect class="cls-3" x="85.92" y="32.56" width="0.49" height="1.15"/><rect class="cls-3" x="87.31" y="32.56" width="0.49" height="1.15"/><rect class="cls-3" x="88.7" y="32.56" width="0.49" height="1.15"/><rect class="cls-3" x="90.09" y="32.56" width="0.49" height="1.15"/><polygon class="cls-2" points="112.4 76.24 100.55 76.24 100.55 49.84 112.4 57.3 112.4 76.24"/><polygon class="cls-4" points="112.4 61.5 100.55 52.57 100.55 49.84 112.4 57.3 112.4 61.5"/><polygon class="cls-1" points="100.55 75.97 35.09 75.97 35.09 47.88 67.27 24.39 100.55 47.88 100.55 75.97"/><polygon class="cls-5" points="67.42 23.98 35.06 48.14 35.06 51.4 66.9 27.8 100.55 52.57 100.55 49.01 67.42 23.98"/><polygon class="cls-3" points="67.42 23.66 32.47 48.73 34.27 50.87 67.42 26.12 112.43 59.73 114.1 57.5 67.42 23.66"/><rect class="cls-4" x="100.55" y="54.33" width="4.56" height="0.25"/><rect class="cls-4" x="100.55" y="57.96" width="9.56" height="0.25"/><rect class="cls-4" x="100.55" y="61.59" width="11.85" height="0.25"/><rect class="cls-4" x="100.55" y="65.22" width="11.85" height="0.25"/><rect class="cls-4" x="100.55" y="68.85" width="11.85" height="0.25"/><rect class="cls-4" x="100.55" y="72.48" width="11.85" height="0.25"/><rect class="cls-3" x="100.55" y="75.1" width="16.9" height="1.07"/><polygon class="cls-5" points="57.32 50.85 57.69 50.85 57.69 38.27 57.48 38.27 57.32 50.85"/><rect class="cls-2" x="41.64" y="56.31" width="5.81" height="0.1"/><rect class="cls-2" x="87.82" y="56.31" width="5.81" height="0.1"/><polygon class="cls-5" points="40.57 56.41 40.57 58.66 41.64 58.63 41.64 56.41 40.57 56.41"/><polygon class="cls-5" points="94.7 56.41 93.63 56.41 93.63 57.12 94.7 57.09 94.7 56.41"/><polygon class="cls-5" points="47.45 56.41 47.45 58.46 64.56 57.96 64.56 56.41 47.45 56.41"/><polygon class="cls-5" points="70.37 56.41 70.37 57.79 87.82 57.29 87.82 56.41 70.37 56.41"/><rect class="cls-6" x="70.37" y="74.53" width="17.45" height="1.6"/><rect class="cls-6" x="70.37" y="74.53" width="17.45" height="1.6"/><rect class="cls-6" x="71.91" y="72.93" width="14.37" height="1.6"/><rect class="cls-7" x="71.91" y="74.26" width="14.37" height="0.27"/><rect class="cls-6" x="47.45" y="60.68" width="17.1" height="15.46"/><rect class="cls-7" x="47.45" y="61.37" width="17.1" height="0.25"/><rect class="cls-7" x="47.45" y="62.29" width="17.1" height="0.25"/><rect class="cls-7" x="47.45" y="63.2" width="17.1" height="0.25"/><rect class="cls-7" x="47.45" y="64.12" width="17.1" height="0.25"/><rect class="cls-7" x="47.45" y="65.04" width="17.1" height="0.25"/><rect class="cls-7" x="47.45" y="65.95" width="17.1" height="0.25"/><rect class="cls-7" x="47.45" y="66.87" width="17.1" height="0.25"/><rect class="cls-7" x="47.45" y="67.78" width="17.1" height="0.25"/><rect class="cls-7" x="47.45" y="68.7" width="17.1" height="0.25"/><rect class="cls-7" x="47.45" y="69.62" width="17.1" height="0.25"/><rect class="cls-7" x="47.45" y="70.53" width="17.1" height="0.25"/><rect class="cls-7" x="47.45" y="71.45" width="17.1" height="0.25"/><rect class="cls-7" x="47.45" y="72.36" width="17.1" height="0.25"/><rect class="cls-7" x="47.45" y="73.28" width="17.1" height="0.25"/><rect class="cls-7" x="47.45" y="74.2" width="17.1" height="0.25"/><rect class="cls-7" x="47.45" y="75.11" width="17.1" height="0.25"/><rect class="cls-3" x="47.45" y="60" width="17.1" height="0.68"/><path class="cls-7" d="M35.48,76.17h-9.9a1.7,1.7,0,0,1,.91-1.1,1.88,1.88,0,0,1,1.38,0c-.08,0-.19-.2-.25-.27a1.19,1.19,0,0,1-.28-.6,1.08,1.08,0,0,1,.17-.75,1.13,1.13,0,0,1,1-.44h.06a.94.94,0,0,1,.22.07,2.4,2.4,0,0,1,.8.63s.09.1.13.16a3.7,3.7,0,0,1-.8-1.08c-.56-1.32.62-3.24,2.09-2.7a3.21,3.21,0,0,1,1.4,1.56c-1.18-2,.77-3.24,1.46-1.43-.43-1.5.21-3.06,1.5-2.18l.06,0Z"/><path class="cls-6" d="M35.48,76.17H29.65a1,1,0,0,1,.53-.65,1.16,1.16,0,0,1,.82,0,.68.68,0,0,1,.31-.83.87.87,0,0,1,.8.13,1.13,1.13,0,0,1-.47-.64c-.32-.78.37-1.91,1.24-1.59a1.91,1.91,0,0,1,.82.92c-.7-1.19.45-1.91.86-.84-.4-1.17.37-1.85.92-1.59Z"/><path class="cls-7" d="M29.43,69.79a.52.52,0,0,0,.38.14.83.83,0,0,0-.18-.45.52.52,0,0,0-.38-.14A.81.81,0,0,0,29.43,69.79Z"/><path class="cls-6" d="M33.93,71.66a.65.65,0,0,0,.37.31,1,1,0,0,0-.06-.55.66.66,0,0,0-.37-.32A1,1,0,0,0,33.93,71.66Z"/><path class="cls-7" d="M29.91,69.15a1.27,1.27,0,0,0,.08.68,1,1,0,0,0,.33-.55,1.27,1.27,0,0,0-.08-.68A1,1,0,0,0,29.91,69.15Z"/><polygon class="cls-3" points="117.22 73.36 117.34 70.2 117.56 70.2 117.7 73.29 117.22 73.36"/><polygon class="cls-8" points="118.36 76.13 116.58 76.13 116.23 73.36 118.71 73.36 118.36 76.13"/><polygon class="cls-8" points="116.05 72.92 116.13 73.89 118.77 73.93 118.9 72.88 116.05 72.92"/><polygon class="cls-9" points="116.28 73.89 118.64 73.93 118.62 74.02 116.34 74.29 116.28 73.89"/><path class="cls-6" d="M117.17,65.8a.58.58,0,0,1-.27.26.55.55,0,0,1,0-.38.53.53,0,0,1,.27-.26A.54.54,0,0,1,117.17,65.8Z"/><path class="cls-6" d="M116.55,65.57a.82.82,0,0,1,.16.5.67.67,0,0,1-.63-.72A.82.82,0,0,1,116.55,65.57Z"/><path class="cls-6" d="M119.64,70.21a.53.53,0,0,1-.36-.12.58.58,0,0,1,.33-.18A.62.62,0,0,1,120,70,.53.53,0,0,1,119.64,70.21Z"/><path class="cls-6" d="M119.54,69.56a.79.79,0,0,1-.36.37.75.75,0,0,1,0-.52.74.74,0,0,1,.36-.37A.75.75,0,0,1,119.54,69.56Z"/><path class="cls-6" d="M120.58,68.34a2.86,2.86,0,0,0-1.48-1.88,3.54,3.54,0,0,0-2.31-.27,2.75,2.75,0,0,0-2.46,2,4.75,4.75,0,0,0,.15,2.64,2.48,2.48,0,0,0,1.76,1.45,4.07,4.07,0,0,0,3-.38,4.24,4.24,0,0,0,.84-.68,2.52,2.52,0,0,0,.59-1.34A3.88,3.88,0,0,0,120.58,68.34Z"/><polygon class="cls-3" points="116.55 70.44 115.88 69.68 115.16 69.64 115.16 69.58 115.75 69.53 115.16 68.82 115.29 68.67 116.81 70 116.55 70.44"/><polygon class="cls-3" points="117.8 68.65 118.54 68.15 118.66 67.67 118.7 67.69 118.69 68.04 118.86 67.92 118.9 68.01 118.02 68.96 117.8 68.65"/><rect class="cls-1" x="105.28" y="62.32" width="7.13" height="7.21"/><rect class="cls-3" x="105.89" y="62.93" width="6.51" height="5.99"/><polygon class="cls-4" points="105.28 62.32 104.71 62.32 104.71 70.12 112.4 70.12 112.4 69.53 105.28 69.53 105.28 62.32"/><rect class="cls-1" x="57.69" y="38.28" width="9.78" height="12.57"/><rect class="cls-3" x="58.32" y="38.84" width="3.89" height="11.34"/><rect class="cls-3" x="62.92" y="38.84" width="3.89" height="11.34"/><rect class="cls-1" x="67.41" y="38.28" width="9.78" height="12.57"/><rect class="cls-3" x="68.04" y="38.84" width="3.89" height="11.34"/><rect class="cls-3" x="72.64" y="38.84" width="3.89" height="11.34"/><rect class="cls-1" x="58.06" y="41.11" width="18.89" height="0.31"/><polygon class="cls-5" points="82.97 59.93 75.22 60.27 75.22 59.73 82.97 59.73 82.97 59.93"/><rect class="cls-5" x="75" y="59.42" width="0.36" height="13.52" transform="translate(150.36 132.35) rotate(180)"/><rect class="cls-5" x="82.83" y="59.42" width="0.36" height="13.52" transform="translate(166.02 132.35) rotate(180)"/><rect class="cls-3" x="76.52" y="68.96" width="5.15" height="3.03"/><path class="cls-3" d="M81.67,68.34V61.55h-.86a2.13,2.13,0,0,0-3.43,0h-.86v6.79Z"/><rect class="cls-3" x="73.92" y="59" width="10.34" height="0.74"/><rect class="cls-6" x="42.38" y="47.84" width="2.12" height="2.89"/><rect class="cls-6" x="54.37" y="47.84" width="2.12" height="2.89"/><rect class="cls-6" x="78.33" y="47.84" width="2.12" height="2.89"/><rect class="cls-6" x="66.35" y="47.84" width="2.12" height="2.89"/><rect class="cls-6" x="90.31" y="47.84" width="2.12" height="2.89"/><rect class="cls-7" x="42.38" y="47.84" width="2.12" height="0.34"/><rect class="cls-7" x="54.37" y="47.84" width="2.12" height="0.34"/><rect class="cls-7" x="78.33" y="47.84" width="2.12" height="0.34"/><rect class="cls-7" x="66.35" y="47.84" width="2.12" height="0.34"/><rect class="cls-7" x="90.31" y="47.84" width="2.12" height="0.34"/><rect class="cls-6" x="41.99" y="47.5" width="50.78" height="0.34"/><rect class="cls-3" x="95.91" y="61.21" width="2.42" height="4.24"/><polygon class="cls-5" points="95.57 60.83 95.57 65.78 98.76 65.78 98.76 65.95 95.42 65.95 95.42 60.83 95.57 60.83"/><rect class="cls-3" x="37.14" y="61.21" width="2.42" height="4.24"/><polygon class="cls-5" points="36.8 60.83 36.8 65.78 39.99 65.78 39.99 65.95 36.66 65.95 36.66 60.83 36.8 60.83"/><path class="cls-3" d="M67.22,34.75V32.3a2.56,2.56,0,0,0-1.67.77Z"/><path class="cls-3" d="M65.33,33.32a2.6,2.6,0,0,0-.52,1.57H66.9Z"/><path class="cls-3" d="M69.16,33a2.57,2.57,0,0,0-1.6-.67v2.27Z"/><path class="cls-3" d="M67.7,34.89H70a2.61,2.61,0,0,0-.62-1.68Z"/><path class="cls-5" d="M70.38,35.3h-6.1A3.54,3.54,0,0,1,65.15,33,3.34,3.34,0,0,0,64,35.53h6.37Z"/><polygon class="cls-3" points="32.48 76.13 30.73 76.13 31.06 71.58 32.15 71.58 32.48 76.13"/><rect class="cls-3" x="31.32" y="56.41" width="0.57" height="19.73"/><polygon class="cls-3" points="32.51 56.41 30.7 56.41 30.04 53.13 33.18 53.13 32.51 56.41"/><polygon class="cls-1" points="32.18 55.8 31.04 55.8 30.62 53.74 32.6 53.74 32.18 55.8"/><polygon class="cls-3" points="32.51 52.3 30.7 52.3 30.04 53.13 33.18 53.13 32.51 52.3"/><path class="cls-3" d="M32.65,56.41H30.57a.18.18,0,0,1-.17-.17h0a.18.18,0,0,1,.17-.17h2.08a.18.18,0,0,1,.17.17h0A.18.18,0,0,1,32.65,56.41Z"/><path class="cls-3" d="M32.18,71.75H31a.18.18,0,0,1-.17-.17h0a.17.17,0,0,1,.17-.17h1.14a.17.17,0,0,1,.17.17h0A.18.18,0,0,1,32.18,71.75Z"/><circle class="cls-3" cx="31.61" cy="52.29" r="0.49"/><polygon class="cls-3" points="123.17 76.13 121.42 76.13 121.75 71.58 122.84 71.58 123.17 76.13"/><rect class="cls-3" x="122" y="56.41" width="0.57" height="19.73"/><polygon class="cls-3" points="123.2 56.41 121.39 56.41 120.72 53.13 123.86 53.13 123.2 56.41"/><polygon class="cls-1" points="122.86 55.8 121.72 55.8 121.3 53.74 123.28 53.74 122.86 55.8"/><polygon class="cls-3" points="123.2 52.3 121.39 52.3 120.72 53.13 123.86 53.13 123.2 52.3"/><path class="cls-3" d="M123.33,56.41h-2.08a.18.18,0,0,1-.17-.17h0a.18.18,0,0,1,.17-.17h2.08a.17.17,0,0,1,.17.17h0A.17.17,0,0,1,123.33,56.41Z"/><path class="cls-3" d="M122.86,71.75h-1.13a.17.17,0,0,1-.17-.17h0a.16.16,0,0,1,.17-.17h1.13a.17.17,0,0,1,.17.17h0A.18.18,0,0,1,122.86,71.75Z"/><circle class="cls-3" cx="122.29" cy="52.29" r="0.49"/><rect class="cls-3" x="25" y="76" width="100" height="0.34"/><polygon class="cls-2" points="41.64 56.41 41.64 58.63 41.22 76.13 47.45 76.13 47.45 58.46 47.45 56.41 41.64 56.41"/><polygon class="cls-2" points="87.82 56.41 87.82 57.29 87.82 76.13 94.15 76.13 93.63 57.12 93.63 56.41 87.82 56.41"/><polygon class="cls-2" points="64.56 56.41 64.56 57.96 64.56 76.24 70.37 76.24 70.37 57.79 70.37 56.41 64.56 56.41"/><polygon class="cls-4" points="41.64 56.41 41.64 56.49 41.64 57.1 47.45 57.1 47.45 56.48 47.45 56.41 41.64 56.41"/><polygon class="cls-4" points="87.82 56.41 87.82 56.44 87.82 57.1 93.63 57.1 93.63 56.43 93.63 56.41 87.82 56.41"/><polygon class="cls-4" points="64.56 56.41 64.56 56.46 64.56 57.1 70.37 57.1 70.37 56.46 70.37 56.41 64.56 56.41"/><polygon class="cls-3" points="94.7 56.41 40.57 56.41 40.33 50.6 94.7 50.74 94.7 56.41"/></g></svg>