<svg xmlns="http://www.w3.org/2000/svg" viewBox="0 0 150 100"><defs><style>.cls-1{fill:#fff;}.cls-2{fill:#9bb8cc;}.cls-3{fill:#133b53;}.cls-4{fill:#7bbfba;}.cls-5{fill:#479da3;}.cls-6{fill:#f43d4f;}.cls-7{fill:#b72e41;}.cls-8{fill:#e1ecef;}.cls-9{fill:#994f61;}</style></defs><g id="OBJECTS"><path class="cls-1" d="M73.17,32.38h-25c.12-.44.78-2,4.13-1.37a2.13,2.13,0,0,1-.75-1.94,1.18,1.18,0,0,1,.29-.58,1.36,1.36,0,0,1,.51-.29c1.32-.48,3.63,1.34,3.63,1.34-2.83-4.44,4.89-6.31,4.94-.68,0,0,1.13-2,2.37-1.46.5.28.19,1.15,0,1.53,3.62-1.76,6.91-.68,5.38,1.32C72.14,30.33,73.17,32.38,73.17,32.38Z"/><path class="cls-1" d="M34.26,47.77c.69-1.21,1.81-1.52,3.76-.86-.39-.89.78-2.63,2.66-.78-.57-3,3.89-3.32,3.67-.44,1.11-1.39,4.06-.6,2.91,1.06a3.15,3.15,0,0,1,3.54,1Z"/><path class="cls-1" d="M46.11,32.38H38.22c-.29-1-.11-2.17,3.11-1.24C42.34,29.26,44.31,31.13,46.11,32.38Z"/><path class="cls-1" d="M117.34,41.65h-7.89c-.3-1-.12-2.17,3.1-1.24.78-1.45,2-1.19,3.23.43C117.84,39.23,119.24,40.83,117.34,41.65Z"/><rect class="cls-1" x="98.04" y="34.69" width="6.64" height="6.64" transform="translate(202.71 76.01) rotate(180)"/><polygon class="cls-2" points="98.04 38.91 104.67 38.21 104.67 34.69 98.04 34.69 98.04 38.91"/><polygon class="cls-3" points="90.8 30.68 105.27 30.52 105.27 37.91 100.21 37.91 90.8 30.68"/><rect class="cls-1" x="63.19" y="34.69" width="6.64" height="6.64"/><polygon class="cls-2" points="69.83 38.91 63.19 38.21 63.19 34.69 69.83 34.69 69.83 38.91"/><polygon class="cls-3" points="77.06 30.68 62.59 30.52 62.59 37.91 67.65 37.91 77.06 30.68"/><polygon class="cls-1" points="106.55 74.48 61.23 74.48 61.23 43.84 83.89 26.34 106.55 43.84 106.55 74.48"/><polygon class="cls-2" points="83.87 26.34 61.21 43.84 61.21 46.4 65.78 42.86 65.78 41.89 80.56 29.86 80.56 31.41 82.93 29.58 106.53 46.92 106.53 43.84 83.87 26.34"/><polygon class="cls-4" points="65.78 74.48 80.56 74.42 80.56 31.41 65.78 42.86 65.78 74.48"/><polygon class="cls-5" points="65.78 41.89 65.78 42.86 80.56 31.41 80.56 29.86 65.78 41.89"/><polygon class="cls-3" points="83.89 25.56 57.74 44.95 59.45 46.82 83.89 27.93 108.34 46.82 110 44.57 83.89 25.56"/><rect class="cls-1" x="68.39" y="59.63" width="9.51" height="12.23"/><rect class="cls-3" x="69.01" y="60.18" width="3.78" height="11.03"/><rect class="cls-3" x="73.47" y="60.18" width="3.78" height="11.03"/><rect class="cls-2" x="68.39" y="71.69" width="9.51" height="0.16"/><rect class="cls-1" x="67.03" y="71.85" width="12.29" height="1.35"/><rect class="cls-1" x="66.43" y="73.16" width="13.49" height="1.31"/><rect class="cls-2" x="67.03" y="73" width="12.29" height="0.16"/><rect class="cls-1" x="68.39" y="42.22" width="9.51" height="8.32"/><rect class="cls-3" x="69.01" y="42.77" width="3.78" height="7.12"/><rect class="cls-3" x="73.47" y="42.77" width="3.78" height="7.12"/><polygon class="cls-5" points="78.56 51.31 67.72 51.82 67.72 51.16 78.56 51.16 78.56 51.31"/><polygon class="cls-5" points="68 50.54 68.39 50.54 68.39 42.22 68.18 42.22 68 50.54"/><rect class="cls-3" x="67.72" y="50.54" width="10.85" height="0.62"/><rect class="cls-3" x="89.5" y="42.22" width="5.85" height="4.11"/><rect class="cls-3" x="83.24" y="42.22" width="5.74" height="4.11"/><polygon class="cls-2" points="95.35 46.95 82.59 46.95 82.59 42.22 82.39 42.22 82.2 47.35 95.35 47.12 95.35 46.95"/><polygon class="cls-2" points="84.94 54.05 84.72 74.48 85.38 74.48 85.38 71.89 85.38 54.05 84.94 54.05"/><rect class="cls-6" x="28.73" y="53.91" width="32.5" height="20.57"/><polygon class="cls-7" points="61.23 54.32 28.73 55.47 28.73 53.91 61.23 53.91 61.23 54.32"/><polygon class="cls-3" points="61.23 53.91 28.23 53.91 28.23 51.76 61.23 52.17 61.23 53.91"/><rect class="cls-1" x="34.26" y="60.18" width="21.45" height="14.3"/><rect class="cls-8" x="34.26" y="61.18" width="21.45" height="0.24"/><rect class="cls-8" x="34.26" y="62" width="21.45" height="0.24"/><rect class="cls-8" x="34.26" y="62.82" width="21.45" height="0.24"/><rect class="cls-8" x="34.26" y="63.64" width="21.45" height="0.24"/><rect class="cls-8" x="34.26" y="64.46" width="21.45" height="0.24"/><rect class="cls-8" x="34.26" y="65.27" width="21.45" height="0.24"/><rect class="cls-8" x="34.26" y="66.09" width="21.45" height="0.24"/><rect class="cls-8" x="34.26" y="66.91" width="21.45" height="0.24"/><rect class="cls-8" x="34.26" y="67.73" width="21.45" height="0.24"/><rect class="cls-8" x="34.26" y="68.55" width="21.45" height="0.24"/><rect class="cls-8" x="34.26" y="69.37" width="21.45" height="0.24"/><rect class="cls-8" x="34.26" y="70.19" width="21.45" height="0.24"/><rect class="cls-8" x="34.26" y="71.01" width="21.45" height="0.24"/><rect class="cls-8" x="34.26" y="71.83" width="21.45" height="0.24"/><rect class="cls-8" x="34.26" y="72.65" width="21.45" height="0.24"/><rect class="cls-8" x="34.26" y="73.46" width="21.45" height="0.24"/><polygon class="cls-3" points="56.03 60.58 33.65 60.58 33.65 59.35 56.03 59.59 56.03 60.58"/><polygon class="cls-7" points="61.21 74.48 60.54 74.48 60.83 53.91 61.21 53.91 61.21 74.48"/><rect class="cls-6" x="85.38" y="53.91" width="30.51" height="20.57"/><rect class="cls-7" x="85.38" y="71.89" width="30.51" height="2.59"/><polygon class="cls-7" points="115.89 56.3 85.38 57.73 85.38 55.47 115.89 55.47 115.89 56.3"/><rect class="cls-1" x="92.72" y="59.63" width="15.8" height="9.95"/><rect class="cls-3" x="93.33" y="60.18" width="2.7" height="8.78"/><rect class="cls-3" x="96.46" y="60.18" width="8.43" height="8.78"/><rect class="cls-3" x="105.31" y="60.18" width="2.7" height="8.78"/><polygon class="cls-7" points="108.52 59.5 92.72 59.5 92.49 59.5 92.3 69.58 92.72 69.58 92.72 59.63 108.52 59.63 108.52 59.5"/><polygon class="cls-7" points="92.72 69.5 108.52 69.5 108.52 69.73 92.3 70.45 92.3 69.5 92.72 69.5"/><polygon class="cls-1" points="116.81 55.47 85.2 55.47 85.2 53.99 116.81 53.92 116.81 55.47"/><polygon class="cls-2" points="116.81 54.34 85.2 54.7 85.2 53.99 116.81 53.92 116.81 54.34"/><polygon class="cls-3" points="117.74 53.5 109.79 49.46 92.32 49.46 83.86 53.67 83.86 54.14 117.74 54.01 117.74 53.5"/><rect class="cls-1" x="85.8" y="55.02" width="1.13" height="1.11"/><rect class="cls-1" x="87.91" y="55.02" width="1.13" height="1.11"/><rect class="cls-1" x="90.02" y="55.02" width="1.13" height="1.11"/><rect class="cls-1" x="92.12" y="55.02" width="1.13" height="1.11"/><rect class="cls-1" x="94.23" y="55.02" width="1.13" height="1.11"/><rect class="cls-1" x="98.44" y="55.02" width="1.13" height="1.11"/><rect class="cls-1" x="96.34" y="55.02" width="1.13" height="1.11"/><rect class="cls-1" x="100.55" y="55.02" width="1.13" height="1.11"/><rect class="cls-1" x="102.66" y="55.02" width="1.13" height="1.11"/><rect class="cls-1" x="104.76" y="55.02" width="1.13" height="1.11"/><rect class="cls-1" x="106.87" y="55.02" width="1.13" height="1.11"/><rect class="cls-1" x="108.98" y="55.02" width="1.13" height="1.11"/><rect class="cls-1" x="113.19" y="55.02" width="1.13" height="1.11"/><rect class="cls-1" x="111.08" y="55.02" width="1.13" height="1.11"/><rect class="cls-1" x="115.3" y="55.02" width="1.13" height="1.11"/><rect class="cls-2" x="85.8" y="55.47" width="1.13" height="0.22"/><rect class="cls-2" x="87.91" y="55.47" width="1.13" height="0.22"/><rect class="cls-2" x="90.02" y="55.47" width="1.13" height="0.22"/><rect class="cls-2" x="92.12" y="55.47" width="1.13" height="0.22"/><rect class="cls-2" x="94.23" y="55.47" width="1.13" height="0.22"/><rect class="cls-2" x="98.44" y="55.47" width="1.13" height="0.22"/><rect class="cls-2" x="96.34" y="55.47" width="1.13" height="0.22"/><rect class="cls-2" x="100.55" y="55.47" width="1.13" height="0.22"/><rect class="cls-2" x="102.66" y="55.47" width="1.13" height="0.22"/><rect class="cls-2" x="104.76" y="55.47" width="1.13" height="0.22"/><rect class="cls-2" x="106.87" y="55.47" width="1.13" height="0.22"/><rect class="cls-2" x="108.98" y="55.47" width="1.13" height="0.22"/><rect class="cls-2" x="113.19" y="55.47" width="1.13" height="0.22"/><rect class="cls-2" x="111.08" y="55.47" width="1.13" height="0.22"/><rect class="cls-2" x="115.3" y="55.47" width="1.13" height="0.22"/><rect class="cls-3" x="27.54" y="66.79" width="0.37" height="7.69"/><path class="cls-3" d="M28.61,64.5H26.25a1,1,0,0,1,1.05,1v1.55l-.21.09h2.42a.15.15,0,0,0,.15-.15V65.54A1,1,0,0,0,28.61,64.5Z"/><path class="cls-1" d="M26.28,64.5a1,1,0,0,0-1,1v1.53a.11.11,0,0,0,.12.11h1.82a.11.11,0,0,0,.11-.11V65.54A1,1,0,0,0,26.28,64.5Z"/><path class="cls-6" d="M28.2,64.16v-.4h-.68v1.39a.22.22,0,0,0,.44,0,.22.22,0,0,0-.22-.22h0v-.72Z"/><polygon class="cls-5" points="68.03 71.85 68.39 71.85 68.39 59.63 68.18 59.63 68.03 71.85"/><polygon class="cls-9" points="118.52 74.34 118.71 71.6 117.19 69.84 117.28 69.77 118.18 70.53 118.31 69.77 118.45 69.8 118.43 70.76 118.79 71.11 118.93 68.31 118.19 67.39 118.27 67.32 119.04 67.93 119.09 66.47 119.29 66.47 119.42 68.27 119.62 70.06 120.62 68.97 120.71 69.03 120.35 69.61 120.98 69.6 120.98 69.71 120.29 69.81 119.61 70.89 119.76 74.34 118.52 74.34"/><path class="cls-5" d="M125,64.42a2.27,2.27,0,0,0-.16-1,1,1,0,0,0-.76-.62.56.56,0,0,0-.54.18,4.23,4.23,0,0,0,.88-1.59,2,2,0,0,0-.31-1.73,1.77,1.77,0,0,0-1.59-.55A2.44,2.44,0,0,0,121,60a12.61,12.61,0,0,0,.09-2.74c-.17-.91-.89-1.81-1.8-1.77a2.3,2.3,0,0,0-1.54,1A6.4,6.4,0,0,0,116.35,60a4.57,4.57,0,0,0-.8-.9,1.44,1.44,0,0,0-1.13-.35,1.74,1.74,0,0,0-1.23,1.42,3.79,3.79,0,0,0,.07,2.11,7.61,7.61,0,0,0,2,2.85.83.83,0,0,0-1,.43,1.4,1.4,0,0,0,.33,1.47,3.52,3.52,0,0,0,1.06.77,8.55,8.55,0,0,0,7.12,0A3.79,3.79,0,0,0,124.6,66h0A3.38,3.38,0,0,0,125,64.42Z"/><path class="cls-5" d="M117.91,69.07c-.11-.12-.41-.17-.4.05-.09-.67-1-.42-.56.23-.68-.71-1.28.19-.4.59-.75,0-.33,1.08.32.62a.25.25,0,0,0,.19.46C117.82,70.9,118.59,69.69,117.91,69.07Z"/><path class="cls-4" d="M116.59,67.08a1.08,1.08,0,0,1-.08-.56.58.58,0,0,1,.3-.45.33.33,0,0,1,.32,0,2.29,2.29,0,0,1-.72-.7,1.08,1.08,0,0,1-.11-1,1,1,0,0,1,.76-.55,1.36,1.36,0,0,1,.92.22,7.38,7.38,0,0,1-.48-1.44,1.09,1.09,0,0,1,.68-1.22,1.21,1.21,0,0,1,1,.26,3.54,3.54,0,0,1,1.32,1.64,2.8,2.8,0,0,1,.28-.61.83.83,0,0,1,.55-.36,1,1,0,0,1,.88.56,2.13,2.13,0,0,1,.3,1.13,4.41,4.41,0,0,1-.61,1.84.45.45,0,0,1,.61.06.77.77,0,0,1,.06.84,1.9,1.9,0,0,1-.44.58,4.78,4.78,0,0,1-3.79,1.13,2.13,2.13,0,0,1-1.26-.64h0A1.87,1.87,0,0,1,116.59,67.08Z"/><path class="cls-5" d="M114.08,64.78a.81.81,0,0,1,.06.52.77.77,0,0,1-.41-.32.74.74,0,0,1,0-.51A.78.78,0,0,1,114.08,64.78Z"/><path class="cls-5" d="M113.33,65.27a1,1,0,0,1,.66.24,1,1,0,0,1-.63.32,1.09,1.09,0,0,1-.67-.24A1,1,0,0,1,113.33,65.27Z"/><path class="cls-5" d="M121.23,69.92a.43.43,0,0,1-.2-.2.47.47,0,0,1,.28,0,.39.39,0,0,1,.19.2A.44.44,0,0,1,121.23,69.92Z"/><path class="cls-5" d="M121.38,69.46a.59.59,0,0,1-.36.13.61.61,0,0,1,.16-.35.57.57,0,0,1,.36-.12A.51.51,0,0,1,121.38,69.46Z"/><path class="cls-4" d="M121.19,61.93a.82.82,0,0,1-.48.19.78.78,0,0,1,.18-.48.79.79,0,0,1,.48-.2A.8.8,0,0,1,121.19,61.93Z"/><path class="cls-4" d="M116.76,63.42a.53.53,0,0,1,.26.25.53.53,0,0,1-.36,0,.53.53,0,0,1-.26-.25A.53.53,0,0,1,116.76,63.42Z"/><path class="cls-4" d="M120.5,61.34a1,1,0,0,1,0,.71.92.92,0,0,1-.45-1.23A1.06,1.06,0,0,1,120.5,61.34Z"/><path class="cls-4" d="M117.47,70.62h-.2a.38.38,0,0,1-.23-.13.24.24,0,0,1-.05-.23c0-.11.18-.08.24-.16a.2.2,0,0,0,0-.17.48.48,0,0,1,0-.17.1.1,0,0,1,.12-.09s.07,0,.1.08a.11.11,0,0,0,.06,0c.11,0,.13-.16.25-.14s.18.14.21.24a.56.56,0,0,1-.09.53A.67.67,0,0,1,117.47,70.62Z"/><path class="cls-4" d="M117.38,74.46a2.24,2.24,0,0,0-2.53-1.17,1.78,1.78,0,0,0-3.37.32,2.86,2.86,0,0,0-2.71.85Z"/><path class="cls-5" d="M64.23,73.2c-.79-2.49-4-2.89-5.06-.48A3.07,3.07,0,0,0,55.9,73.8a1.79,1.79,0,0,0-2.2-.31,2.07,2.07,0,0,0-3.92-.37,2.57,2.57,0,0,0-2.94,1.36H68.31C67.06,73.42,65.73,72.77,64.23,73.2Z"/><path class="cls-4" d="M58.88,74.46a2.24,2.24,0,0,0-2.53-1.17,1.78,1.78,0,0,0-3.36.32,2.88,2.88,0,0,0-2.72.85Z"/><path class="cls-5" d="M63.21,71.08a.66.66,0,0,1-.42.12.65.65,0,0,1,.2-.38.7.7,0,0,1,.42-.13A.67.67,0,0,1,63.21,71.08Z"/><path class="cls-5" d="M62.69,70.53a1,1,0,0,1-.09.59.75.75,0,0,1-.27-1.07A.93.93,0,0,1,62.69,70.53Z"/><path class="cls-4" d="M52.09,73a.68.68,0,0,1-.27.34.65.65,0,0,1-.06-.43.63.63,0,0,1,.27-.34A.72.72,0,0,1,52.09,73Z"/><path class="cls-4" d="M51.34,72.87a.94.94,0,0,1,.27.54,1,1,0,0,1-.57-.18.94.94,0,0,1-.27-.54A.89.89,0,0,1,51.34,72.87Z"/><path class="cls-4" d="M32,74.46a1.69,1.69,0,0,0-1.91-.88,1.34,1.34,0,0,0-2.54.24,2.18,2.18,0,0,0-2.05.64Z"/><path class="cls-5" d="M29.35,74.14a1.33,1.33,0,0,1,.78-.56l-.1-.19A1.3,1.3,0,0,0,29.35,74.14Z"/><path class="cls-5" d="M27.59,73.82a1.54,1.54,0,0,1,.5.35,1.17,1.17,0,0,0-.45-.5Z"/><rect class="cls-3" x="25" y="74.31" width="97.25" height="0.32"/></g></svg>