<svg xmlns="http://www.w3.org/2000/svg" viewBox="0 0 150 100"><defs><style>.cls-1{fill:#fff;}.cls-2{fill:#7bbfba;}.cls-3{fill:#9bb8cc;}.cls-4{fill:#f43d4f;}.cls-5{fill:#b72e41;}.cls-6{fill:#133b53;}.cls-7{fill:#479da3;}.cls-8{fill:#f7b857;}.cls-9{fill:#e59933;}</style></defs><g id="OBJECTS"><path class="cls-1" d="M125,42.52H102c.11-.41.72-1.8,3.79-1.26a2,2,0,0,1-.69-1.78,1,1,0,0,1,.27-.53,1.23,1.23,0,0,1,.47-.27c1.21-.43,3.33,1.24,3.33,1.24-2.6-4.09,4.48-5.8,4.53-.63,0,0,1-1.86,2.17-1.35.47.27.18,1.06,0,1.41,3.32-1.61,6.34-.62,4.93,1.22C124.06,40.64,125,42.52,125,42.52Z"/><path class="cls-1" d="M40.57,35.42H28.2c.38-1.94,2.62-3.54,5.41-2.2.81-2.57,2.12-2.11,3.36.77C38.6,32.25,40.35,34.78,40.57,35.42Z"/><rect class="cls-1" x="50.27" y="28.93" width="57.5" height="1.3"/><rect class="cls-1" x="44.97" y="32.44" width="66.81" height="33.49"/><rect class="cls-2" x="42.43" y="65.94" width="71.89" height="4.98"/><rect class="cls-1" x="59.27" y="69.26" width="38.21" height="1.66"/><rect class="cls-1" x="62.11" y="67.6" width="32.54" height="1.66"/><rect class="cls-1" x="65.6" y="65.94" width="25.55" height="1.66"/><rect class="cls-3" x="65.6" y="67.26" width="25.55" height="0.33"/><rect class="cls-3" x="62.11" y="68.92" width="32.54" height="0.33"/><rect class="cls-4" x="83.86" y="31.34" width="27.92" height="17.03"/><rect class="cls-5" x="83.86" y="31.34" width="0.61" height="17.03"/><polygon class="cls-3" points="111.78 50.87 44.97 52 44.97 50.58 111.78 50.58 111.78 50.87"/><polygon class="cls-3" points="83.86 32.74 44.97 33.87 44.97 32.44 83.86 32.44 83.86 32.74"/><polygon class="cls-5" points="111.78 32.98 83.86 34.51 83.86 32.44 111.78 32.44 111.78 32.98"/><rect class="cls-1" x="86.73" y="45.72" width="1.06" height="2.65"/><rect class="cls-1" x="98.99" y="45.72" width="1.06" height="2.65"/><rect class="cls-1" x="111.25" y="45.72" width="1.06" height="2.65"/><rect class="cls-1" x="105.12" y="45.72" width="1.06" height="2.65"/><rect class="cls-1" x="92.86" y="45.72" width="1.06" height="2.65"/><rect class="cls-3" x="86.73" y="45.72" width="1.06" height="0.53"/><rect class="cls-3" x="98.99" y="45.72" width="1.06" height="0.53"/><rect class="cls-3" x="111.25" y="45.72" width="1.06" height="0.53"/><rect class="cls-3" x="105.12" y="45.72" width="1.06" height="0.53"/><rect class="cls-3" x="92.86" y="45.72" width="1.06" height="0.53"/><rect class="cls-1" x="83.86" y="45.24" width="29.65" height="0.48"/><rect class="cls-4" x="66.51" y="50.58" width="3.3" height="15.36"/><rect class="cls-4" x="86.94" y="50.58" width="3.3" height="15.36"/><rect class="cls-5" x="66.51" y="50.58" width="3.3" height="0.71"/><rect class="cls-5" x="86.94" y="50.58" width="3.3" height="0.71"/><rect class="cls-6" x="43.24" y="30.24" width="70.27" height="2.21"/><rect class="cls-6" x="43.24" y="48.37" width="70.27" height="2.21"/><polygon class="cls-6" points="33.62 70.9 33.9 66.84 31.66 64.24 31.8 64.13 33.12 65.26 33.31 64.13 33.52 64.19 33.49 65.6 34.02 66.12 34.23 61.98 33.13 60.62 33.25 60.51 34.39 61.42 34.47 59.26 34.76 59.26 34.96 61.92 35.25 64.57 36.73 62.96 36.87 63.05 36.33 63.9 37.27 63.89 37.27 64.05 36.24 64.2 35.23 65.79 35.46 70.9 33.62 70.9"/><path class="cls-7" d="M43.2,56.23A3.27,3.27,0,0,0,43,54.74a1.55,1.55,0,0,0-1.13-.92.85.85,0,0,0-.79.27,6.38,6.38,0,0,0,1.31-2.34,2.91,2.91,0,0,0-.47-2.56,2.61,2.61,0,0,0-2.35-.82,3.67,3.67,0,0,0-2.2,1.29,17.86,17.86,0,0,0,.12-4.06c-.24-1.33-1.3-2.67-2.66-2.61a3.32,3.32,0,0,0-2.27,1.41,9.39,9.39,0,0,0-2.12,5.22,6.56,6.56,0,0,0-1.18-1.34,2.24,2.24,0,0,0-1.67-.52,2.62,2.62,0,0,0-1.83,2.11A5.77,5.77,0,0,0,25.84,53a11.47,11.47,0,0,0,3,4.22,1.23,1.23,0,0,0-1.51.63A2,2,0,0,0,27.78,60a5,5,0,0,0,1.58,1.14,12.62,12.62,0,0,0,10.53,0,5.63,5.63,0,0,0,2.72-2.58h0A5.13,5.13,0,0,0,43.2,56.23Z"/><path class="cls-7" d="M32.72,63.1c-.15-.17-.6-.24-.6.08-.13-1-1.43-.62-.82.33-1-1-1.89.29-.6.89-1.1,0-.48,1.59.48.91a.37.37,0,0,0,.28.68C32.58,65.8,33.73,64,32.72,63.1Z"/><path class="cls-2" d="M30.76,60.16a1.78,1.78,0,0,1-.11-.82.86.86,0,0,1,.45-.67.49.49,0,0,1,.47,0,3.51,3.51,0,0,1-1.07-1,1.61,1.61,0,0,1-.16-1.44,1.44,1.44,0,0,1,1.12-.81,2,2,0,0,1,1.37.33,9.77,9.77,0,0,1-.71-2.14,1.64,1.64,0,0,1,1-1.81,1.85,1.85,0,0,1,1.43.39,5.17,5.17,0,0,1,2,2.44,3.57,3.57,0,0,1,.41-.91,1.29,1.29,0,0,1,.81-.54A1.46,1.46,0,0,1,39,54a3.17,3.17,0,0,1,.44,1.67,6.41,6.41,0,0,1-.91,2.72.68.68,0,0,1,.91.1,1.14,1.14,0,0,1,.09,1.23,2.75,2.75,0,0,1-.66.86,7,7,0,0,1-5.6,1.67,3.12,3.12,0,0,1-1.86-.94h0A2.94,2.94,0,0,1,30.76,60.16Z"/><path class="cls-7" d="M27.06,56.77a1.15,1.15,0,0,1,.08.76,1.13,1.13,0,0,1-.6-.47,1.15,1.15,0,0,1-.08-.76A1.13,1.13,0,0,1,27.06,56.77Z"/><path class="cls-7" d="M25.94,57.48a1.6,1.6,0,0,1,1,.36A1.33,1.33,0,0,1,25,58,1.59,1.59,0,0,1,25.94,57.48Z"/><path class="cls-7" d="M37.63,64.36a.59.59,0,0,1-.29-.29.5.5,0,0,1,.69.29A.6.6,0,0,1,37.63,64.36Z"/><path class="cls-7" d="M37.86,63.69a.86.86,0,0,1-.53.18.84.84,0,0,1,.23-.51.86.86,0,0,1,.53-.18A.84.84,0,0,1,37.86,63.69Z"/><path class="cls-2" d="M37.57,52.54a1.13,1.13,0,0,1-.71.29,1.11,1.11,0,0,1,.28-.71,1.16,1.16,0,0,1,.7-.3A1.16,1.16,0,0,1,37.57,52.54Z"/><path class="cls-2" d="M31,54.74a.82.82,0,0,1,.38.37.67.67,0,0,1-.91-.35A.85.85,0,0,1,31,54.74Z"/><path class="cls-2" d="M36.55,51.67a1.56,1.56,0,0,1,0,1,1.34,1.34,0,0,1-.67-1.81A1.56,1.56,0,0,1,36.55,51.67Z"/><path class="cls-2" d="M32.07,65.4a.94.94,0,0,1-.29,0,.48.48,0,0,1-.35-.18.37.37,0,0,1-.07-.34c.05-.16.27-.12.36-.24a.31.31,0,0,0,.05-.25.53.53,0,0,1,0-.25.18.18,0,0,1,.19-.14c.06,0,.1.07.14.12a.19.19,0,0,0,.1,0c.15,0,.19-.24.36-.21a.46.46,0,0,1,.31.36.79.79,0,0,1-.14.78A1,1,0,0,1,32.07,65.4Z"/><rect class="cls-6" x="28.52" y="70.77" width="89.24" height="0.3"/><polygon class="cls-6" points="72 64.49 72.06 62.85 72.17 62.85 72.25 64.46 72 64.49"/><polygon class="cls-8" points="72.59 65.94 71.67 65.94 71.48 64.49 72.77 64.49 72.59 65.94"/><polygon class="cls-8" points="71.39 64.27 71.43 64.77 72.8 64.79 72.88 64.25 71.39 64.27"/><polygon class="cls-9" points="71.51 64.77 72.74 64.79 72.73 64.84 71.54 64.98 71.51 64.77"/><path class="cls-2" d="M72,60.56a.33.33,0,0,1-.14.14.3.3,0,0,1,0-.2.33.33,0,0,1,.14-.14A.3.3,0,0,1,72,60.56Z"/><path class="cls-2" d="M71.65,60.44a.41.41,0,0,1,.08.26.37.37,0,0,1-.24-.12.38.38,0,0,1-.08-.25A.39.39,0,0,1,71.65,60.44Z"/><path class="cls-2" d="M73.26,62.86a.36.36,0,0,1-.19-.07.29.29,0,0,1,.17-.09.3.3,0,0,1,.19.06A.28.28,0,0,1,73.26,62.86Z"/><path class="cls-2" d="M73.21,62.52a.44.44,0,0,1-.19.19.4.4,0,0,1,0-.27.39.39,0,0,1,.19-.19A.4.4,0,0,1,73.21,62.52Z"/><path class="cls-2" d="M73.75,61.89a1.47,1.47,0,0,0-.77-1,1.85,1.85,0,0,0-1.2-.15,1.47,1.47,0,0,0-1.29,1.06,2.46,2.46,0,0,0,.09,1.37,1.26,1.26,0,0,0,.91.75,2.06,2.06,0,0,0,1.54-.2,2.36,2.36,0,0,0,.43-.35,1.36,1.36,0,0,0,.31-.69A2,2,0,0,0,73.75,61.89Z"/><polygon class="cls-6" points="71.65 62.97 71.3 62.58 70.93 62.56 70.93 62.52 71.23 62.5 70.93 62.13 71 62.06 71.78 62.75 71.65 62.97"/><polygon class="cls-6" points="72.3 62.04 72.69 61.79 72.75 61.54 72.77 61.54 72.77 61.73 72.85 61.66 72.88 61.71 72.42 62.2 72.3 62.04"/><polygon class="cls-6" points="84.47 64.49 84.53 62.85 84.64 62.85 84.72 64.46 84.47 64.49"/><polygon class="cls-8" points="85.06 65.94 84.13 65.94 83.95 64.49 85.24 64.49 85.06 65.94"/><polygon class="cls-8" points="83.86 64.27 83.9 64.77 85.27 64.79 85.34 64.25 83.86 64.27"/><polygon class="cls-9" points="83.98 64.77 85.2 64.79 85.2 64.84 84.01 64.98 83.98 64.77"/><path class="cls-2" d="M84.44,60.56a.33.33,0,0,1-.14.14.3.3,0,0,1,0-.2.33.33,0,0,1,.14-.14A.3.3,0,0,1,84.44,60.56Z"/><path class="cls-2" d="M84.12,60.44a.41.41,0,0,1,.08.26.37.37,0,0,1-.24-.12.38.38,0,0,1-.08-.25A.39.39,0,0,1,84.12,60.44Z"/><path class="cls-2" d="M85.73,62.86a.36.36,0,0,1-.19-.07.29.29,0,0,1,.17-.09.3.3,0,0,1,.19.06A.28.28,0,0,1,85.73,62.86Z"/><path class="cls-2" d="M85.68,62.52a.44.44,0,0,1-.19.19.4.4,0,0,1,0-.27.39.39,0,0,1,.19-.19A.4.4,0,0,1,85.68,62.52Z"/><path class="cls-2" d="M86.22,61.89a1.47,1.47,0,0,0-.77-1,1.85,1.85,0,0,0-1.2-.15A1.47,1.47,0,0,0,83,61.82a2.38,2.38,0,0,0,.09,1.37,1.26,1.26,0,0,0,.91.75,2.07,2.07,0,0,0,1.54-.2,2.36,2.36,0,0,0,.43-.35,1.36,1.36,0,0,0,.31-.69A2,2,0,0,0,86.22,61.89Z"/><polygon class="cls-6" points="84.12 62.97 83.77 62.58 83.4 62.56 83.4 62.52 83.7 62.5 83.4 62.13 83.47 62.06 84.25 62.75 84.12 62.97"/><polygon class="cls-6" points="84.77 62.04 85.16 61.79 85.22 61.54 85.24 61.54 85.23 61.73 85.32 61.66 85.34 61.71 84.89 62.2 84.77 62.04"/><rect class="cls-1" x="90.28" y="35.37" width="11.67" height="13"/><rect class="cls-6" x="96.45" y="36.08" width="4.87" height="11.63"/><rect class="cls-6" x="90.87" y="36.08" width="4.87" height="11.63"/><rect class="cls-6" x="48.32" y="56.93" width="2.45" height="6.79"/><rect class="cls-6" x="48.32" y="54.04" width="2.45" height="2.31"/><rect class="cls-6" x="51.28" y="56.93" width="8.15" height="6.79"/><rect class="cls-6" x="51.28" y="54.04" width="8.15" height="2.31"/><rect class="cls-6" x="59.93" y="56.93" width="2.45" height="6.79"/><rect class="cls-6" x="59.93" y="54.04" width="2.45" height="2.31"/><polygon class="cls-3" points="47.71 53.65 47.32 53.65 47.32 64.64 62.96 64.64 62.96 64.31 47.71 64.31 47.71 53.65"/><rect class="cls-6" x="48.32" y="38.91" width="2.45" height="6.79"/><rect class="cls-6" x="48.32" y="36.02" width="2.45" height="2.31"/><rect class="cls-6" x="51.28" y="38.91" width="8.15" height="6.79"/><rect class="cls-6" x="51.28" y="36.02" width="8.15" height="2.31"/><rect class="cls-6" x="59.93" y="38.91" width="2.45" height="6.79"/><rect class="cls-6" x="59.93" y="36.02" width="2.45" height="2.31"/><polygon class="cls-3" points="47.71 35.62 47.32 35.62 47.32 46.61 62.96 46.61 62.96 46.28 47.71 46.28 47.71 35.62"/><rect class="cls-6" x="67.41" y="38.91" width="2.45" height="6.79"/><rect class="cls-6" x="67.41" y="36.02" width="2.45" height="2.31"/><rect class="cls-6" x="70.37" y="38.91" width="8.15" height="6.79"/><rect class="cls-6" x="70.37" y="36.02" width="8.15" height="2.31"/><rect class="cls-6" x="79.02" y="38.91" width="2.45" height="6.79"/><rect class="cls-6" x="79.02" y="36.02" width="2.45" height="2.31"/><polygon class="cls-3" points="66.8 35.62 66.41 35.62 66.41 46.61 82.05 46.61 82.05 46.28 66.8 46.28 66.8 35.62"/><rect class="cls-6" x="94.31" y="56.93" width="2.45" height="6.79"/><rect class="cls-6" x="94.31" y="54.04" width="2.45" height="2.31"/><rect class="cls-6" x="97.26" y="56.93" width="8.15" height="6.79"/><rect class="cls-6" x="97.26" y="54.04" width="8.15" height="2.31"/><rect class="cls-6" x="105.91" y="56.93" width="2.45" height="6.79"/><rect class="cls-6" x="105.91" y="54.04" width="2.45" height="2.31"/><polygon class="cls-3" points="93.7 53.65 93.31 53.65 93.31 64.64 108.95 64.64 108.95 64.31 93.7 64.31 93.7 53.65"/><rect class="cls-6" x="74.97" y="53.65" width="6.78" height="12.29"/><rect class="cls-3" x="74.25" y="53.65" width="0.22" height="12.29"/><rect class="cls-3" x="82.25" y="53.65" width="0.22" height="12.29"/><rect class="cls-4" x="73.62" y="52.72" width="9.47" height="0.93"/></g></svg>