<svg id="Layer_1" data-name="Layer 1" xmlns="http://www.w3.org/2000/svg" xmlns:xlink="http://www.w3.org/1999/xlink" viewBox="0 0 100 100"><defs><style>.cls-1{fill:none;}.cls-2{clip-path:url(#clip-path);}.cls-3{fill:#f9320b;}.cls-4{clip-path:url(#clip-path-2);}</style><clipPath id="clip-path"><rect class="cls-1" x="-118.05" width="100" height="100"/></clipPath><clipPath id="clip-path-2"><rect class="cls-1" width="100" height="100"/></clipPath></defs><g class="cls-2"><path class="cls-3" d="M28.78,67.7s0,0,0,0v0h0l.43-6.1v0h-.08l-1.54-.22v0h0v0h-.07l-7-1.65L19.16,59l-.86-.62h-.05l-6.14-.84.17-3,.83.11h.05l.22-.11v0h0a.09.09,0,0,0,0-.06h0L15,27.19H14.9L13.84,27,14,24.9l4.32-.59,0,0h0l0-.05h0l.2-1.34h0v0h-.06l-35.41-4,.05-1.54.11-3.42,9.28-.9h.08v0h0v0h0l-.06-1.26h0a.07.07,0,0,0,0-.06h0a.09.09,0,0,0-.06,0l-25.94-.58h0l-40.61,4.56h-.07v0h0v0l.1,1.34h0a.08.08,0,0,0,0,.05h0l.06,0h0l2.32,0,.05.72h0a.16.16,0,0,0,0,.06h0a.06.06,0,0,0,.06,0h0l6.36-.15V20l-48.4,4.31h-.07v0a0,0,0,0,1,0,0h0v0l.06,1.43V26l1,22.94h0a.06.06,0,0,0,0,.06h0l0,0,2.9.52L-221,69.1a.1.1,0,0,0-.08.11.1.1,0,0,0,.1.08h0l111.9-19.67,14.45,2.57.25,9-2.49.63h-.07v0h0v.37l-10.31,2.62a.09.09,0,0,0-.07.12.1.1,0,0,0,.09.07h0l10.28-2.62v.17l-4.16,1.06h-.07v0h0l0,.43-4,1h-.08v.19l-5.19,1.35h-.07v0h0l0,.23-5.44,1.42h0l-66.4,21.22-16,4.39-22.63-16.28a.09.09,0,0,0-.13,0,.09.09,0,0,0,0,.13l22.66,16.31h0l.68.49h0l8.71,6.27,4.64,3.34.06,0a.12.12,0,0,0,.08,0,.11.11,0,0,0,0-.14l-4.35-3.13,1.13.13h0l1.66.08H-184l1.91-.1h0l2-.19h0l2.09-.28h0l2.12-.36h0l2.13-.44h0l1.84-.44-12.25,4.72a.1.1,0,0,0-.06.13.11.11,0,0,0,.09.06h0l14-5.37,68.43-26.34,1.88-.72,29.53,8.16L-79.13,88h0v0h0l.06,3.71a.09.09,0,0,0,.09.09h0a.09.09,0,0,0,.1-.09L-79,88.17l2.73.88.06,3.69-.11,0-1.19-.4a.14.14,0,0,0,0-.11.11.11,0,0,0-.13,0l-22.12,12.19a.1.1,0,0,0,0,.13.11.11,0,0,0,.09,0h0l22-12.11a.13.13,0,0,0,.06.07l1,.34-21.6,11.53a.09.09,0,0,0,0,.13.1.1,0,0,0,.08,0h.05L-76.31,92.9l.19.06H-76l14.18-6.59a.1.1,0,0,0,0-.13.1.1,0,0,0-.13,0l-14,6.53L-76,89l23-20.41,22.72-8.45,4.31,2h0l3.12.7h0l3.79.52h0l2.94.37,3,.78h0l2.72.38h0l3.08,0h0l4.05-.29h0l1.79-.28h0L2,63.26H2l.57-.6,0,.61-.7.77-3.42,1.07-1.78.28-4,.29-3.07,0-2.7-.39-3-.79h0l-2.94-.37h0l-3.78-.53-3.11-.7-4.32-2a.1.1,0,0,0-.13,0,.1.1,0,0,0,.05.13l4.33,2h0l3.12.71h0l3.79.52h0l2.94.37,3,.8h0l2.72.39h0l3.07,0h0l4.05-.29h0l1.78-.28h0l3.45-1.08H2l.74-.81a0,0,0,0,0,0,0v0l0-.91h0a0,0,0,0,0,0,0l-.51-1.6,3-1.53.41.76h0l1.44,2.69.35,1.67-1.15.92-2,1L2,66.64H2l-2.89.5-2.88.19-2.38-.08h0l-1.31.14-2.94.19-7.24-.15-5-1.26-3.49-1.44-6.57-3a.1.1,0,0,0-.13,0,.1.1,0,0,0,.05.13l6.57,3h0l3.49,1.44h0l5,1.27h0l7.26.15h0l3-.19h0l1.31-.14,2.38.08h0l2.88-.19h0L2,66.82H2l2.38-.34h0l2-1h0l1-.82,0,1-1.17,1-2,1.06-2.36.35h0l-2.9.52-2.87.19-2.38-.08h0l-1.31.14-2.95.19-7.22-.14-5-1.3L-26.21,66h0l-6.57-3a.08.08,0,0,0-.12,0,.11.11,0,0,0,0,.13l6.57,3h0l3.5,1.47h0l5,1.3h0l7.24.15h0l3-.2h0l1.3-.14,2.38.08h0L-1,68.64h0l2.9-.52h0l2.38-.36h0l2-1.07h0l1.21-1h0a.05.05,0,0,0,0,0l0,0h0l.06-1.24h0L7.3,62.62h0L5.88,60l.2-.1.84.32,1.36.52,3.23,1.81L14,64.13h0l1.79.88L7.4,70.55l-2.68-.42h0l-.77,0h0l-3,.11h0L-1,70.42h0l-9.44,1-6.81-.73-3.93-.6-2.88-1-12.47-4.78a.09.09,0,0,0-.12,0,.09.09,0,0,0,.06.12l12.4,4.77,0,1.28-12.32-4.86a.09.09,0,0,0-.12,0,.1.1,0,0,0,.05.13l12.45,4.91h0l2.89,1h0l3.93.62h0l6.81.74h0L-1,72.13l1.92-.22,3-.11.77,0,2.47.4L1,76.32-1.26,76h0l-2.09-.08h0l-4.59-.2-11.84-1.48L-30,70.64l-9.44-3.75a.1.1,0,0,0-.13.06.09.09,0,0,0,.06.12l9.38,3.73,0,1.11-9.3-3.78a.1.1,0,0,0-.13.05.1.1,0,0,0,.06.13l9.43,3.83h0l10.19,3.7h0L-8,77.36h0l4.59.2h0l2.08.09,2.05.28-3.54,2.44-3-.33h0l-2.12-.15L-13.79,79l-9.66-2.28-5.77-2-4.18-1.89h0l-8.41-3.76a.09.09,0,0,0-.13.05.09.09,0,0,0,0,.12L-33.48,73h0l4.19,1.89h0l5.78,1.95h0l9.68,2.29h0l5.88.91h0l2.12.15,2.91.32L-3,82.13l-2.88-.32h0L-8,81.65l-5.85-.93-9.66-2.34-5.76-2-.44-.2h0l-13.2-2.94-3.44-.77a.1.1,0,0,0-.11.08.09.09,0,0,0,.07.11l3.43.76,15.32,6.47h0L-18,82.94h0L-12,84.37h0l2.26.46h0l.92.17.63.51L-52.43,75a.09.09,0,0,0-.11.07.09.09,0,0,0,.07.12L-7.91,85.78l0,1.32-30.73-7.46L-52.43,76.3a.1.1,0,0,0-.12.07.1.1,0,0,0,.07.12l13.74,3.33,8.58,3.57h0l6.51,2.34-32-8a.08.08,0,0,0-.11.06.09.09,0,0,0,.07.12l33.9,8.52L-20,87h0l4.89,1.44h0l4.5.73-.06,1.65-4.47-.74L-20,88.64h0L-21.8,88h0l-24.72-6.36-9.14-2.35a.09.09,0,0,0-.12.06.1.1,0,0,0,.07.12l9.14,2.35,12,4.16-22.75-6a.09.09,0,0,0-.12.06.1.1,0,0,0,.07.12l25.7,6.74,3.85,1.23h0l2.3.44,2.9.87h0l5.19,1.43h0l2.18.58,1.44.45h0l1.73.14-.08,2.17-1.71-.15-1.42-.45h0L-17.47,93h0l-5.18-1.47h0l-2.89-.89h0l-2.3-.44L-31.68,89h0L-57.34,82a.11.11,0,0,0-.12.07.09.09,0,0,0,.07.11l25.65,6.93,3.84,1.27h0l2.3.44,2.89.89h0l5.18,1.47h0l2.18.61h0l1.43.46h0l1.58.14-1.18.89L-59,82.79a.09.09,0,0,0-.12.07.08.08,0,0,0,.07.11l45.52,12.52-.07,2L-59,84.65a.1.1,0,0,0-.12.07.09.09,0,0,0,.06.12l45.35,12.8-7.57,6.71a.1.1,0,0,0,0,.14.09.09,0,0,0,.07,0,.07.07,0,0,0,.06,0l7.71-6.82h0v0s0,0,0,0v0h0l.08-2.13,1.37-1h0a0,0,0,0,1,0,0h0s0,0,0,0h0l.09-2.31,1.33-1h0s0,0,0,0,0,0,0,0h0l.07-1.8,2.61-1.88h0s0,0,0,0,0,0,0,0h0l.06-1.46,4.88-3.44h0a0,0,0,0,1,0,0v0s0,0,0,0h0l.08-1.72L1,77.94H1a0,0,0,0,0,0,0H1s0,0,0,0h0l.07-1.39L7.4,72.25h0l0,0h0l.08-1.47,8.4-5.52,0,.73h0v0h0l0,0H16l0,0,3.14-2.09-.08,1.27h0v0s0,0,0,0h0l0,0h0a.07.07,0,0,0,.06,0l2.66-1.82-.05.79a.08.08,0,0,0,0,0h0l0,0h.05l0,0,2.47-1.73,1.19-.83,0,.73a.14.14,0,0,0,0,.06h0l0,0h.1l1.67-1.19-.1,1.42a.07.07,0,0,0,0,.06h0l0,0h0s0,0,.06,0L29,61.73l-.41,5.85L-16,104.35a.09.09,0,0,0,0,.13.07.07,0,0,0,.07,0l.06,0L28.78,67.7ZM16.12,65h0v0h-.05l-1.94-1-2.52-1.61h0L8.37,60.54h0l-.76-.29,2.17.29.37.11.54.17h0l2.44.79,1.05.34,3.13,1.18h0l1.75.63-3,2Zm-10-5.33H6l-.24.12L5.38,59h0s0,0,0,0H5.25l-3,1.55L2,60l0-.65.2-.1,1.43.21h0L4,59.26H4a.08.08,0,0,0,0-.05h0l0-.89,1.06-.53,1.39.2h.06l.25-.13h0a.05.05,0,0,0,0,0h0l0-.87L9.3,55.72l1.35.17h.06l.23-.11s0,0,0,0h0a.09.09,0,0,0,0-.06h0l0-.83.76-.37.3,0-.17,3.07,0,.56-.08,1.37-1.56.87h0l-.09.05-.34-.11h0L7,60H7ZM1.9,63.08l-3.43,1-1.78.28-4,.28-3.07,0-2.71-.37-3-.79h0l-2.94-.37h0l-3.79-.52-3.1-.69-4.12-1.87.21-.08,24,4h.06l4-2a.09.09,0,0,0,.05-.12.1.1,0,0,0-.13-.05l-4,2-24-4-1.3-.21h-.09v0h0v0h0v.06h0l0,0h0l.63.29-22.53,8.37-2.45-.52,1.27-.46h0l.16-.06h0l.12,0h0l.12,0,.11,0,.12-.05.12,0,.11,0,.12,0,.12,0,.11,0,.07,0v.14a.1.1,0,0,0,.09.1h0a.1.1,0,0,0,.1-.1v-.28h0l.07-15.06h0V45.91l.1-19.08v-.4l0-4.75v-.23a.14.14,0,0,0,0-.06l1,0h0a.1.1,0,0,0,.09.1h1.42v.11l0,4.67-.14,19.53v5.36h0l-.11,14.81h0v1.3a.1.1,0,0,0,.1.09h0a.1.1,0,0,0,.1-.09V66h0l.11,0h0l.11,0h0l.11,0h0l.11,0,.11,0,.11,0,.11,0h0l.11,0h0l.11,0h0l.11,0h0l.11,0h0l.11,0,.11,0,.1,0h0l.11,0h0l.11,0h0l.11,0,.11,0,.11,0,0,0v.13a.1.1,0,0,0,.1.1h0a.1.1,0,0,0,.1-.09v-.27h0l.13-14.57h0v-3l0-2.27L-47.6,26l0-4.58v-.22a.08.08,0,0,0,0-.05l1-.05a.09.09,0,0,0,.09.09h1.34v.11l0,4.5-.2,18.87,0,2.19h0v.06h0v1.4l0,1.54-.15,14.35,0,1.25a.1.1,0,0,0,.1.1h0a.09.09,0,0,0,.09-.09l0-1.2h0l1.86-.67v.12a.1.1,0,0,0,.1.1h0a.11.11,0,0,0,.1-.1v-.25h0l.17-14.14,0-1.52v-.61l0-2.25v-.73l.23-18.59.06-4.44v-.21s0,0,0,0l1,0a.09.09,0,0,0,.09.09h1.27v0h0l-.36,25h0v.67l0,1.5v1L-41,53.52v0l0,1.35v.74l0,2h0v.12h0l0,1h0V59l-.05,3.21v.29h0v0h0l0,1.22a.09.09,0,0,0,.09.09h0a.09.09,0,0,0,.09-.09l0-1.15.52-.19.87-.31.29-.11v.11a.09.09,0,0,0,.09.1h0a.1.1,0,0,0,.1-.09v-.25h0v0h0v-.69L-39,58h0l0-2.85.1-6.53V47.9l0-1.14v-.44l0-1.48v-.69h0l.37-23.29h0v-.13s0,0,0,0l.94-.05a.09.09,0,0,0,.09.09h1.2v0h0l-.37,21.22h0l0,.66h0l0,1.46,0,2.1,0,1.13h0v.35h0l-.19,11.23V60h0v.4h0V61l0,1.18a.09.09,0,0,0,.09.1h0a.1.1,0,0,0,.1-.09l0-1.12,1.17-.42.92-.33,1.95-.71.89-.32,2-.71.88-.32,1.47-.53.87.13-3.9,1.43h0v0h0a0,0,0,0,0,0,0v0h0l0,0h0l0,0,1.33.21,22.42,3.65h.06L-4.1,62.1l1-.5h0l.09,0a.1.1,0,0,0,0-.13.08.08,0,0,0-.09,0s0-.05-.07-.05l-4.08-.64c-.06,0-.11,0-.11.08a.09.09,0,0,0,.08.11l3.92.61-.86.42-3.07-.48a.08.08,0,0,0-.1.08.09.09,0,0,0,.08.11l2.8.44-2.27,1.11-22-3.59,2.54-.95,9,1.42h0a.11.11,0,0,0,.09-.08.09.09,0,0,0-.08-.11l-8.9-1.4V58l8.88,1.37h0a.08.08,0,0,0,.09-.08.09.09,0,0,0-.08-.11h0l.06-2,0-.63.25.12h0l.39.11h0l.5.09h0l.56.06h0l.59,0h.59l.53,0h0l.44-.06h0l.32-.09h0l0,0v.39l0,.69,0,1.49a.09.09,0,0,0,.09.09h0a.1.1,0,0,0,.1-.09l.05-1.37,2.23.33-.08,1.94-3.66-.56a.09.09,0,0,0-.11.08.08.08,0,0,0,.08.1l3.89.61h0a.09.09,0,0,0,.09-.08.1.1,0,0,0-.08-.11h0l.07-2,0-.66h0l.28.13h0l.42.12h0l.52.09h0l.59.07h0l.61,0h.61l.53,0h0l.43-.06h0l.31-.1h0v.37l0,.71L-6,60.47a.11.11,0,0,0,.09.1h0a.09.09,0,0,0,.1-.1l.07-1.54,2.42.36-.08,1.87a.09.09,0,0,0,.09.1h0a.1.1,0,0,0,.1-.09l.08-2,0-.7,0,0h0l.32.14h0l.45.12h0l.55.1h0L-1,59h0l.63,0H.21l.54,0h0l.44-.06h0l.3-.09h0v.37h0l0,.72h0v.24h0l-.07,1.45a.1.1,0,0,0,.09.1h0a.09.09,0,0,0,.09-.09l.07-1.39.22-.11.2.62.53,1.63ZM-30.34,60l-.15-.07.23,0ZM-76.16,88.87-78.88,88l8.9-7.73,4.27-3.72,1.28-1.11,5.17-4.5,3.17-2.75.19-.16,2.57.55Zm-94,10.09-1.46.4-2.12.51h0l-2.13.43h0l-2.12.36-2.08.28h0l-2,.19-1.92.1h-1.8l-1.65-.09-1.47-.16-8.54-6.15L-182.29,90l66.37-21.21,8.9,2.51,5,1.42Zm-28-4.6,11.28-3.11-10.8,3.45ZM-96.84,62.8l2.53,1,0,1.47-6.39-1.53ZM-7.59,12.71l-25.72-.26-.07-1.39,25.74.58Zm-26-1.64.07,1.39-40.41,4.3L-74,15.61Zm.18,1.57,24.1.24-7.47.72v0h0v-.06h-.49l-21.21-.05h-.16a.11.11,0,0,0-.1.1.11.11,0,0,0,.1.1h.06l-.06,4.13h-.43l.06-4.18h0v0s0,0,0,0h-.09l-25.44,2.67h-.06v0h0v.38l-7,.13h-.24Zm16.27,6.2v.22a.1.1,0,0,0,.09.1h0a.09.09,0,0,0,.09-.09V19l34.57,3.92L4.09,24.49l-33.44-4.14,5.45-.42h0a0,0,0,0,0,0,0h0s0,0,0,0v0h0l0-.36,6.52-.3h0l.06,0h0s0,0,0-.06h0l.06-1.77h.08Zm35.3,5.29-4.33.59L4,26.07l.19-1.4L18.35,23ZM13.24,54.39h0l1.52-26.49h0v0h0v0a0,0,0,0,1,0,0h-.08l-1.4.24h0l-.81.14h0l0,0h0v0h0v0h0l0,.34-.7,12.53h0l0,.34h0v.33h0l-.69,12.28v.33l0,.33,0,.82,0,0,1.54-27.92,2.49-.42Zm-1,0-.34,0,1.47-26.08,1.2-.21L13,54.45Zm-1.14-.14.52-.26v.11l-.52.26Zm1.43-25.8.53-.1v.15h0l-.5.09Zm-.19,12.68v.13l-.53.18v-.13Zm-.54.51.53-.17v.14h-.06l-.47.16Zm.71-12.85.42-.08-.68,12.26-.42.13Zm-.73,13.19.42-.14-.67,12-.42.2Zm-.7,12.59.64-.31v.11l-.63.31ZM10.9,27.67l1.22.06-1.54,28-1.19-.16Zm1.32-.13-.48,0,1.78-.3H14Zm1.3-.51h0l-2.71.45h-.06v0h0l-1.51,28L7,56.66,8.45,28.29H8.36L6.9,28.13h0l-3.19.52h0a0,0,0,0,0,0,0h0v0h0L2.14,59l-.08,0L3.65,26.25l.21,0h0l9.87-1.36L13.64,27ZM4.13,57.58l.81-.4v.14l-.81.39Zm1.4-27.93.82-.15v.19h0l-.76.14Zm.12,13.66v.16l-.81.27v-.16Zm-.83.63.81-.27v.18H5.54l-.73.25ZM5.52,30l.68-.13L5.53,43.15l-.68.23ZM4.8,44.31l.68-.24L4.83,57l-.68.33ZM4.12,57.93l.93-.46v.13l-.94.47ZM6.68,29.41,8,29.18,6.47,57.75l-1.23-.17Zm1.48-.34h0a0,0,0,0,1,0,0h0a0,0,0,0,0,0,0H8.05s0,0,0,0l-1.46.26h0l-1.12.2a.09.09,0,0,0-.08.06v0h0v0h0l0,.37L4.65,43.5h0l0,.36h0l0,.36h0L4,57.51l0,.35,0,.36,0,.9-.08,0L5.3,28.9l3-.5L6.77,56.81l0,.87,0,0ZM6.9,28.32l.56,0-2.26.38-.58,0Zm-3.1.53,1.31.06L3.6,59.2,2.33,59ZM1.15,58.73l-.42.06-.53,0H-.41l-.62,0-.61-.07-.54-.1-.44-.11-.3-.13-.12-.1v0l.1-.07.28-.09.43-.06H-2v.29a.09.09,0,0,0,.09.09h0a.09.09,0,0,0,.1-.1l0-.39L-.38,25.73,1.86,26l-1.51,32,0,.45a.09.09,0,0,0,.09.1h0a.1.1,0,0,0,.1-.09v-.34H.62l.44.12.31.12.14.11v0l-.09.07Zm-7.38-1.07-.43.06-.52,0h-.59l-.61,0-.57-.07-.52-.09-.41-.11-.26-.12-.1-.08v0l0,0,.08,0,.29-.09L-9.4,57h.13l0,.34a.09.09,0,0,0,.1.09h0a.11.11,0,0,0,.1-.09v-.43l.52-13.07v-.36l0-.36L-8,29.71v-.36L-8,29l.16-4.13h0v-.08l2.16.28L-7,57l0,.37a.09.09,0,0,0,.09.1h0a.09.09,0,0,0,.09-.09l0-.27.14,0,.42.11.28.12.1.09v0l-.1.07Zm-7-1-.42.06-.52,0h-.57l-.59,0h0l-.55-.06-.49-.09-.38-.11-.24-.11-.06-.07v0l.05,0,.09-.05.3-.08.42-.06h.06v.31a.11.11,0,0,0,.09.1h0a.1.1,0,0,0,.1-.1v-.41l.44-12.79v-.7l.45-13.08V29h0v-.35h0l.14-4h0l0-.73,2.09.27-.17,4.6v.72l-.47,13.18,0,.36v.35L-13.94,56l0,.37a.09.09,0,0,0,.09.1h0a.09.09,0,0,0,.09-.09v-.26l.2,0,.3.08.08,0,.23.09h0l.08.07v0l-.13.08Zm-12.9,1.11-1.26-.19-6.92-1.08,3.73-1.23,2.92.43,10.37,1.53-.06,1.9Zm-.13.72-2.82,1.05-.94-.15L-26.3,58ZM-40.32,21a.11.11,0,0,0,.08.07l-.36,24.51a.11.11,0,0,0-.07.06Zm.21,0A.09.09,0,0,0-40,21l-.35,24.35a.08.08,0,0,0-.08,0Zm.2,0s0,.06.08.06l-.36,24.17a.08.08,0,0,0-.07,0Zm.21,0a.09.09,0,0,0,.08.06L-40,45a.08.08,0,0,0-.08.05Zm.28.05-.36,23.81-.08.05.37-23.92A.09.09,0,0,0-39.42,21Zm.13-.07a.09.09,0,0,0,.07.06l-.36,23.63a.11.11,0,0,0-.07.06Zm.2,0s0,.06.08.06l-.37,23.46a.08.08,0,0,0-.07,0Zm.21,0a.11.11,0,0,0,.07.06l-.36,23.29a.09.09,0,0,0-.08.06Zm.2,0a.11.11,0,0,0,.07.06L-39,44.05a.09.09,0,0,0-.08.05Zm-1.46,32,.08,0H-40l0,0h0l0,0,.14,0,.11.09.09.21h0v0h0v-.09h0a.06.06,0,0,0,0-.06h0l-.12-.09h0L-40,53h0l-.21,0h0l-.16,0h0l-.1,0,0,0h0l-.1.1v0l0,0h0l.07-.07h0l.09-.15h.07l0,0h0l0,0h0Zm.72,2.18h0l.26.13,0,1.28-.07,0a.09.09,0,0,0-.1.09l0,.6-.37,0-.34,0-.17-.09h-.29l-.15,0h0v-.27l0-.1.17-.37.44-.82h0l0-.05,0,0h.1s0,0,0,0a0,0,0,0,0,0,0h0l.2-.55Zm-.25,5.09h-.59l-.13-.06-.15-.28h0l-.11-.17-.06-.62,0-.15h0v-.11h0l-.06-.42,0-.42.09.07h0l0,0h.24l.17-.08h0l.25.1h0l.53.08,0,.2h0v0l.15,1.81-.15,0Zm-1-14.2h0v-.09h0v-.06a.1.1,0,0,0,.09.06h0a.1.1,0,0,0,.1-.09v-.09h0v-.06a.09.09,0,0,0,.09.06h0a.09.09,0,0,0,.09-.09v-.09h0V45.4a.1.1,0,0,0,.09.06h0a.1.1,0,0,0,.1-.09v-.09h0l0,0v-.05a.08.08,0,0,0,.08.05h0a.09.09,0,0,0,.09-.09v-.09h0a0,0,0,0,0,0,0v0a.11.11,0,0,0,.09.06h0a.1.1,0,0,0,.09-.1v-.08h0v-.06a.11.11,0,0,0,.09.06h0a.1.1,0,0,0,.1-.1v-.08h0v-.06a.08.08,0,0,0,.08.06h0a.09.09,0,0,0,.1-.09v-.09h0v-.07s0,.05.08.06h0a.1.1,0,0,0,.09-.1v-.08h0v-.06a.11.11,0,0,0,.07.06v.46l-1.72,1.59ZM-39,48.18l-1.49.38-.21.06v-.16L-39,48Zm-1.06,5,.2.06.07.05,0,.25h0l0,.17a.09.09,0,0,0,0,.11.1.1,0,0,0,.09.06h.11v0l-.06.08,0,0,0,0h0a.1.1,0,0,0-.14,0,.17.17,0,0,0,0,.07v0l0,0-.05.08-.11.08-.14.06h-.1l-.16,0,0,0-.09-.16v-.07h0l0-.13a.09.09,0,0,0-.12-.06h0v-.11h0a.07.07,0,0,0,.06,0l0,0s0,0,0,0l0-.28,0-.13.08-.09.08,0,.16,0Zm.34,4.11h0l.47,0h.09v.59h-.08l-.61-.1-.14,0,.05-.07s0,0,0,0v0l0-.13h0v0h0l0-.14h0Zm.58-.24Zm-.08,4.67-.22.08v-.14l.21-.08Zm0-1.48,0,.79-.19.07V61l.09-.65Zm0,1.14-.21.07v-.14l.2-.07Zm-1.08-4.24.13.07.05.11,0,.12v.08l-.08.1,0,0h0l-.05,0-.15.07h-.15l-.19-.15-.05-.12v-.09h.11l.16-.09v0h0l.09-.11h0s0,0,0-.05Zm-.41-8.37.14,0-.06,4h0l0-3.72v0h0v0h-.12Zm.43,5.8h.17l.17-.08h0l.05,0v.1l-.06.12-.28.22h0l-.12.14h0a.14.14,0,0,0,0,.07h0v.06l-.08.11v0h0v0L-40.6,55l0-.28,0-.1h0l.18.07h0Zm-.53,1,.07-.44.11.12v.23l-.17.53h0l0,.11Zm.25.37.12-.4.21-.27h0l0,0h0Zm.54-.78h0l-.14-.06h0l.08-.09.18-.14Zm.44-1.69v0Zm.51-6.85-.11,0,.11-.11Zm-.4.3.48-.12,0,.95-1.7.43v-.11Zm-1.1,14.69,0,.22h0Zm-.2.29-.1,0,0-.16h0l0,0h0v0h0v-.35h0Zm-.14.26h0l.27-.1.1,0v.14l-.38.14Zm1.69-4,0-.21h0v.68Zm-1.09-9.42h0v0h0v0h0l-.06,3.74h0l.06-4,1.37-.35v.15ZM-39,46.28l0,0,0,0-.53.5-1.12,1,0-1.23,1.72-1.6Zm-.06-2a.16.16,0,0,0-.08-.06L-38.78,21a.09.09,0,0,0,.07-.06Zm-.21.18a.08.08,0,0,0-.07,0L-39,21a.08.08,0,0,0,.08-.06Zm-.2.19a.08.08,0,0,0-.07,0L-39.19,21s.06,0,.08-.06Zm-.2.19a.13.13,0,0,0-.07-.06L-39.39,21a.1.1,0,0,0,.07-.07Zm-.21.19A.11.11,0,0,0-40,45l.36-24a.08.08,0,0,0,.08-.06Zm-.2.18a.08.08,0,0,0-.07,0L-39.8,21a.07.07,0,0,0,.07-.06Zm-.2.19a.09.09,0,0,0-.08,0L-40,21a.08.08,0,0,0,.08-.06Zm-.21.19a.08.08,0,0,0-.07-.05L-40.22,21a.1.1,0,0,0,.08-.07Zm.13,16.61,0-.24,0-.6h0l-.16-.64h0l0-.06h0v0h-.15v0h0l-.13.46,0-1.88,0,.46h0s0,0,0,0l.12.18.16.31h0l0,0h0l.18.08h.67l.11,0-.08.6h0l0,.36h0l0,.35h0V62ZM-39.15,55l-.16-.08-.37-.26,0-.08h0V54.4l0-.15h0l.05,0h0l.1-.07s0,0,0,0h0l.09-.12v0s0,0,0,0v-.1h0a.05.05,0,0,0,0,0h0l0,0,0-.23v0h0v0h0l0,0h0v-.06h0l-.16-.37,0,0h0l-.14-.12h0l0,0h0s0,0,0-.06h0s0,0,0,0l-.15,0-.09,0h0l-.11,0h0l.06-3.67,1.17-.31Zm.55-34.27v0a.11.11,0,0,0-.08.09h0a.11.11,0,0,0-.09-.08.09.09,0,0,0-.1.09h0a.11.11,0,0,0-.1-.09.09.09,0,0,0-.09.09h0a.09.09,0,0,0-.09-.09.1.1,0,0,0-.1.1h0a.11.11,0,0,0-.09-.09.11.11,0,0,0-.1.09h0s0,0,0,0h0a.09.09,0,0,0-.09-.09.1.1,0,0,0-.09.1h0a.11.11,0,0,0-.09-.09.1.1,0,0,0-.1.1,0,0,0,0,0,0,0h0a0,0,0,0,1,0,0,.09.09,0,0,0-.09-.09.11.11,0,0,0-.1.1h0a0,0,0,0,0,0,0,.1.1,0,0,0-.1-.08.09.09,0,0,0-.09.09h0v-.12h0l1.75-.09Zm-22.09.9-.12-1.8L-39.18,19l.62,0,14.49-.55.05,1h0v.36Zm17.14,41.75-1.8.65.15-14.13,1.82-.47Zm.19-15.67-1.92.48V47l1.92.24Zm0-.64-1.85-.23,1.88-1.69Zm-1.95,2.66,0-1.34,1.92-.48,0,1.32Zm2-4.84-1.94,1.75,0-1.9,1.93-.42Zm0-.77-1.93.43.2-18.67,2-.17Zm.23-18.6-2,.17,0-4.31,2-.11Zm.06-4.56v.12l-2,.11v-.12h0l2-.1Zm-4.77,5L-50,26.1l0-4.48,2.22-.11Zm-.51,39.16.12-14.42h0l.07,0L-48.22,65h0Zm-.11,0,.13-14.43h0l.07,0-.13,14.42h0Zm-.11,0,.13-14.44h.08l-.12,14.43h0Zm0,0-.06,0,.12-14.45h0l.07,0-.12,14.45Zm-.11,0-.06,0,.12-14.47h0l.07,0-.12,14.46Zm-.11,0-.06,0,.12-14.48h0l.07,0-.12,14.47Zm-.44.16-.06,0,.11-14.51h.09l-.12,14.5Zm-.28.1L-49.39,51h0l.07,0-.11,14.53h0Zm0,0-.06,0L-49.5,51h0l.07,0-.11,14.54Zm-.66.24-.07,0,.11-14.61h0l.07,0-.1,14.61Zm2.14-15.14H-48L-48.13,65l-.06,0Zm.07-.21-.1,0h0l-.11,0h0l-.11,0-.11,0-.11,0-.11,0-.11,0-.11,0h0l-.11,0h0l-.11,0-.11,0h0l-.12,0h0l-.11,0h0l-.11,0h0l-.11,0h0l-.11,0-.11,0-.12,0-.11,0-.07,0v-1.4L-48,49Zm0-1.57-2.17.54V48.11l2.17-.52ZM-50.1,65.72l-.07,0,.11-14.6h0l.07,0-.1,14.59Zm.11,0-.06,0,.1-14.59h0l.08,0L-50,65.67Zm.05,0,.1-14.58h0l.08,0-.11,14.57h0Zm.11,0,.11-14.57h0l.07,0-.11,14.56h0Zm.11,0L-49.61,51h0l.07,0-.11,14.55h0Zm.39-.14-.06,0,.11-14.52h0l.08,0-.12,14.52Zm.22-.08-.06,0,.11-14.5h0l.07,0-.12,14.49Zm0,0,.11-14.49h0l.07,0L-49,65.31h0Zm.11,0,.11-14.49h0l.07,0-.12,14.48h0Zm1-17.92-2.17.52,0-2.11,2.17-.48Zm0-2.26-2.17.48L-50,26.29l2.21-.19Zm.21-24v.13l-2.22.12v-.12h0v0h0l2.24-.11S-47.75,21.17-47.75,21.18ZM-56,67.84h0l-.19.16-3-.65V64.15l4.79,1v2.17ZM-76.69,56.71v-.42l.53.34v.42Zm.72.47v-.42l.57.36v.43Zm.76.46v-.46l.92.16v.46Zm-5.55.75h0l.51.22-.88-.18.31-.08Zm1.38.59.44.19.28.31-1.19.31-3.68-.73,2-.51Zm-3.78,2.12v.61l-.56-.19v-.61Zm-.75-.26v.61l-.88-.37,0-.6ZM-85,60.39V61l-.89-.63v-.56Zm-1.07-.23-.39-.36.38-.1Zm-.56-.52,0,0v-.52l.5.45Zm-.26-.75v.48l-.13-.15v-.48Zm-.32-.34v.58l-.57-.14v-.57Zm-.55.64.61.15.3.36-.89.23Zm.72,3.9v-.5l.74.19v.5Zm.82-.48-.89-.24-.59-.3v-.83L-84,62Zm-1-.09V63l-.45-.24v-.47Zm-.42,1.19V63l.49.27h0l.34.09H-87v.06h0v.07Zm1.55-.43v-.5l2.37-.65v.5Zm2.45-1.37-4.06-.86,0-.93,1.06-.27.64.6h0l1.09.76h0l1.07.45h0l.46.16Zm.69-.19V61.1l1.62-.43v.61Zm8.71-.47,0,1.07L-80,61.13v-1Zm-6-.88V61l-.93.25v-.61Zm.11.94,5.89,1.21v.36l-6.6-1.38Zm5.84-2.8,0,2.54L-79.72,60l1.26-.34.2,0,1.42-.38Zm-2.68.32V59l-1.23.32v-.2Zm-1.42.28v.29l-.07,0-.33-.37v-.38Zm-1.84.8h0v.2l-1,.28h0l-1.78.48-.73-.24-1.06-.44-.91-.63,1.8-.45ZM-86,59.48l-.75-.69h0l-.17-.2,2.49.5Zm-1.64,6.1,0-1.67.65-.18,0,1.66Zm.84-.24,0-1.67.51-.14,0,1.66Zm.7-.2,0-1.66,2.5-.68h.06v0h0v-.62l.15,0,0,2.32Zm2.89-.83,0-2.32.07,0,0,2.32Zm.26-.07,0-2.32,1.61-.44v0l0,1.24v1Zm1.79-1.36,1.7.36-1.69.48Zm2.11.25-2.11-.45,0-1,6.91,1.44,0,1.09Zm4.73-5v.2l-2.49.66v-.2Zm-2.7-.73v1.24l-1.29.34-.56-.61h0l0,0h0l-.7-.29Zm-2,1.1v.45l-.34-.14h0l-1.2-.51.66-.17Zm-1.64-.37V57.8l.47.2Zm-.2-.41v.43l-.9-.59v-.42ZM-81.91,57v0Zm-.35-.43V57l-.53-.11v-.44Zm-.61.52.66.13.12.14.21.31h0l0,0h0l.83.54-.53.14-3.65-.71Zm-2.78.68,3.65.71-2,.5-3.66-.73Zm-1.89,10.45-.06-2.44.77-.22.7-.2,2.89-.82.27-.08,1.78-.5,4.54,1Zm11.27-3.39-4.54-1,1.79-.5,4.52,1ZM-74,64.2V62.44l0-1.26.87.18,5,1,2.21.45,0,3.12Zm4.92-8.34h0l-1.42.37,0-1.62,17.6-4.35v1.43h0l-.12,0-.12,0-.12,0-.11,0-.12,0-.12,0-.12,0-.12,0L-54,52h0l-.11,0h0l-.16,0-5.05,1.3L-64.6,54.7l-1.31.33-2.29.6-.26.06-.38.1h0Zm-42.07-30h0l.86,21.41-.09,0h0l-.87-21.36A.06.06,0,0,0-111.17,25.88Zm52,38.08V53.51l4.94-1.28-.05,12.7Zm5,3.25V65h0v0h-.06l0-12.72h0l.13,0-.06,15h-.05Zm.15,0-.08,0,.06-15h0l.08,0-.06,15Zm0,0,.06-15h0l.08,0-.06,15h0Zm.12,0,.06-15h0l.08,0-.06,15h0Zm.12,0,.06-15h0l.08,0-.07,15h0Zm.11,0,.07-15h0l.08,0L-53.61,67h0Zm.12,0,.06-15h0l.08,0-.07,14.93h0Zm.12,0L-53.4,52h0l.08,0-.06,14.92h0Zm.11,0L-53.28,52h0l.08,0-.07,14.91h0Zm.12,0,.07-14.91h0l.08,0-.07,14.9h0Zm.11,0,.07-14.9h0l.08,0,0,2.75L-53,66.78h0ZM-89,46.73h0l-.48-20,4,.23.41,20.35Zm33-.62,0-18.49,3.12-.28-.09,18.1Zm3.18-19-3.24.29h-.06v0h0v0l-.05,18.69h0v0h0s0,0,0,0h0l.06,0h0l3.15-.68v.19l-3.32.73,0-19.33,3.38-.3ZM-84.61,47-85,27.41l3.64.21L-81,47.51Zm3.77.56-.34-19.91,3.76.23.29,20.22Zm3.9.57-.28-20.24,3.9.23.23,20.58Zm4,.6-.23-20.59,4.06.24.15,20.93Zm4.18.58-.16-20.93,4.26-.38.09,20.39Zm4.38-1L-64.43,28l4-.36,0,19.86Zm4.15-.91,0-19.83,3.81-.34,0,19.35Zm7.36-20.68-3.48.31-4,.35-4.22.38-4.35.38v-.25l16.06-1.38Zm-32.57,0-4-.23-.05-2.26,20.31-1.63,0,5.07Zm.5,20.57L-85.31,27l16.23.94v.26l-4.14-.25-4.1-.25-4-.23-3.83-.23h0a.07.07,0,0,0-.07.06h0v0h0l.4,19.76v0h0v0h0v0h0l3.77.55,3.9.58,4,.59,4.1.61v.24Zm16.18,2.38v-.24l4.3-.94,4.15-.91,3.94-.86,3.4-.74v.2Zm15.89-23.38-16.06,1.38,0-5.08,16.12-.86Zm-36.79-2.2v.05h0l.05,2.45h0v0h0v0h.06l.47,20h0l0,0h0s0,0,0,0h0l.06,2.38,0,1.63h0l-.63-26.7Zm-9.66,25-.1,0-.76-23.95h.11l.75,23.93Zm-.16,0,0,0h0l-.06,0-.76-23.89h.11l.76,24Zm-.26,0h0l0,0h0l-.77-23.86h.11l.77,23.92Zm-.27,0v0h0l0,0h0l-.77-23.83h.11L-99.94,49Zm-.91-23.91,0,0,.77,23.83h0l-.11,0-.77-23.86Zm.27,0h0L-99.81,49h0l-.1,0-.77-23.89Zm.27,0h0l.76,23.9h0l-.11,0-.76-23.92Zm-.64,0L-100.2,49h0s0,0,0,0h0l0,0-.77-23.8Zm11.28-1,.63,26.69h-.05a.11.11,0,0,0-.07-.06l-.63-26.58.06,0Zm-.21,0a.09.09,0,0,0,.06,0l.63,26.58h0l-.12,0L-90,24.17Zm-.09,0,.64,26.63h0v0h0l0,0h0s0,0,0,0h0l-.64-26.51a.11.11,0,0,0,.06,0Zm-.2,0,0,0,.64,26.51h0l-.12,0-.64-26.56Zm-.1,0,.65,26.56h0v0h0s0,0,0,0h0l-.65-26.43a.09.09,0,0,0,.06,0Zm-.2,0a.07.07,0,0,0,.06,0l.64,26.44h0l-.12,0-.64-26.48Zm-.09,0,.64,26.48h0l0,0h0l-.06,0-.64-26.37a.08.08,0,0,0,.06,0Zm-.2,0a.05.05,0,0,0,.05,0l.65,26.37h0l-.11,0-.65-26.41Zm-.1,0,.65,26.41h0v0h0a.07.07,0,0,0-.06,0h0L-91,24.28a.06.06,0,0,0,.06,0Zm-.2,0,.06,0,.65,26.3h0l-.11,0-.65-26.34Zm-.09,0,.65,26.33h0a0,0,0,0,0,0,0h0a.1.1,0,0,0,0,0h0l-.65-26.22a.09.09,0,0,0,.06,0Zm-.2,0s0,0,0,0l.66,26.22h0l-.12,0-.66-26.26Zm-.09,0,.66,26.26h0a.08.08,0,0,0-.07-.05l-.66-26.15s0,0,.06,0Zm-.2,0,0,0L-91,50.48h0l-.12,0-.66-26.19Zm-.09,0,.66,26.19h0l0,0h0s0,0,0,0l-.66-26.08.06,0Zm-.21,0,.06,0,.66,26.08h0l-.11,0L-92,24.33Zm-.09,0,.67,26.12h0a.08.08,0,0,0-.07,0l-.66-26,.06,0Zm-.2,0,.06,0,.67,26h0l-.11,0-.67-26Zm-.09,0,.67,26.05h0v0h0l0,0h0l-.67-25.94a.07.07,0,0,0,0,0Zm-.2,0,.06,0,.67,25.94h0l-.12,0-.67-26Zm-.09,0,.68,26h0a0,0,0,0,1,0,0h0a.07.07,0,0,0,0,0h0l-.67-25.87a.09.09,0,0,0,.06,0Zm-.2,0,.06,0,.67,25.87h0l-.11,0L-92.9,24.4Zm-.09,0,.68,25.9h0a.12.12,0,0,0-.07,0L-93,24.45l.06,0Zm-.2,0a.09.09,0,0,0,.06,0l.68,25.79h0l-.12,0-.68-25.83Zm-.08,0,.68,25.83h0s0,0,0,0h0l0,0h0l-.68-25.72s0,0,.06,0Zm-.2,0,0,0,.68,25.72h0l-.11,0-.68-25.77Zm-.09,0,.68,25.77h0a0,0,0,0,0,0,0h-.06l-.69-25.66a.06.06,0,0,0,.06,0Zm-.2,0a.08.08,0,0,0,.06,0L-93,50.15h0l-.11,0-.69-25.7Zm-.09,0,.69,25.69h0l0,0h0l-.69-25.58.06,0Zm-.2,0s0,0,.06,0l.69,25.58h0l-.11,0L-94,24.5Zm-.08,0,.69,25.62h0v0h0a.09.09,0,0,0-.06,0h0l-.69-25.51a.07.07,0,0,0,.06,0Zm-.2,0,0,0,.7,25.51h0l-.11,0-.69-25.55Zm-.09,0,.7,25.55h0s0-.06-.06-.06h0l-.69-25.45.06,0Zm-.2,0,.06,0L-93.8,50h0l-.11,0-.7-25.49Zm-.08,0,.7,25.48h0v0h-.06l-.7-25.37a.09.09,0,0,0,.06,0Zm-.2,0s0,0,.06,0l.7,25.38h0l-.11,0-.7-25.41Zm-.09,0L-94.22,50h0l0,0h0a.09.09,0,0,0-.06,0l-.7-25.3.06,0Zm-.19,0a.05.05,0,0,0,.05,0l.71,25.3h0l-.11,0-.7-25.34Zm-.09,0,.71,25.34h0a.05.05,0,0,0,0,0h0l-.06,0-.7-25.24a.09.09,0,0,0,0,0Zm-.2,0,.06,0,.71,25.24h0l-.1,0-.72-25.28Zm-.08,0,.71,25.28h0v0h-.06l-.72-25.17a.06.06,0,0,0,.06,0Zm-.2,0,.06,0,.71,25.17h0l-.11,0-.72-25.2Zm-.08,0,.71,25.2h0l0,0h0l0,0h0l-.72-25.09a.09.09,0,0,0,.06,0Zm-.2,0a.09.09,0,0,0,.06,0l.71,25.09h0l-.11,0L-96,24.66Zm-.08,0,.71,25.13h0s0,0,0,0h-.06l-.72-25a.07.07,0,0,0,.06,0Zm-.2,0,.06,0,.71,25h0l-.11,0-.72-25.07Zm-.08,0,.72,25.07h0l0,0h0l-.73-25a.06.06,0,0,0,.06,0Zm-.2,0,.06,0,.72,25h0l-.11,0-.73-25Zm-.08,0,.72,25h0s0-.06-.06-.06h0l-.72-24.89a.05.05,0,0,0,0,0Zm-.2,0s0,0,.06,0L-96,49.63h0l-.11,0-.72-24.92Zm-.08,0,.73,24.92h0v0h-.06L-97,24.77l.06,0Zm-.19,0s0,0,0,0l.73,24.82h0l-.11,0-.73-24.86Zm-.09,0,.73,24.86h0a.07.07,0,0,0-.06,0l-.73-24.75.06,0Zm-.19,0,0,0,.73,24.75h0l-.1,0-.74-24.79Zm-.09,0,.74,24.79h0l0,0h0l-.74-24.69a.09.09,0,0,0,.06,0Zm-.19,0a.08.08,0,0,0,.06,0l.73,24.69h0l-.11,0-.74-24.73Zm-.08,0L-97,49.52h0l0,0h0a.05.05,0,0,0,0,0l-.74-24.62.06,0Zm-.19,0,0,0,.74,24.62h0l-.11,0L-98,24.81Zm-.09,0,.74,24.65h0v0h0l0,0h0s0,0,0,0h0l-.74-24.55a.09.09,0,0,0,.06,0Zm-.19,0s0,0,.06,0l.74,24.56h0l-.11,0-.75-24.59Zm-.08,0,.74,24.59h0s0,0,0,0h0a.09.09,0,0,0-.06,0h0l-.74-24.48.06,0Zm-.19,0a.05.05,0,0,0,0,0l.75,24.48h0l-.1,0-.75-24.52Zm-.09,0,.75,24.52h0a.1.1,0,0,0-.08,0l-.75-24.42a.09.09,0,0,0,.06,0Zm-.19,0,.06,0,.75,24.42h0l-.1,0-.75-24.46Zm-.08,0,.75,24.46h0v0h0a.1.1,0,0,0,0,0h0l-.75-24.35a.06.06,0,0,0,.06,0Zm-.19,0,.05,0,.76,24.35h0l-.1,0-.76-24.39Zm-.08,0,.75,24.39h0v0h0l-.75-24.29a.09.09,0,0,0,.06,0Zm-.19,0,0,0,.76,24.29h-.11l-.76-24.32Zm-.08,0,.75,24.31h0v0h-.06L-99.47,25l.06,0Zm-.19,0s0,0,0,0l.76,24.21h0l-.11,0L-99.61,25Zm-.08,0,.76,24.25h0l0,0h0L-99.74,25a.1.1,0,0,0,0,0Zm-.2,0a.09.09,0,0,0,.06,0L-99,49.14h0l-.1,0L-99.88,25Zm-.08,0,.77,24.18h0s0-.06-.08-.06L-100,25.15a.09.09,0,0,0,.08-.06h0v0h0V25Zm-1.27.1h0l0,0,.77,23.8h0l-.1,0-.78-23.85Zm-.07,0,.78,23.85h0a.09.09,0,0,0-.06-.06h0l-.78-23.75.06,0Zm-.18,0a.05.05,0,0,0,.05,0l.78,23.75h0l-.1,0-.79-23.79Zm-.08,0,.78,23.79h0l0,0h0l0,0-.78-23.69.06,0Zm-.19,0,.06,0,.78,23.69H-101l-.78-23.72Zm-.08,0,.79,23.72H-101v0h0l-.78-23.62a.09.09,0,0,0,0,0Zm-.19,0,.06,0,.78,23.62h0l-.1,0L-102,25.14Zm-.07,0,.78,23.66h0a.11.11,0,0,0-.07-.06h0l-.79-23.56a.06.06,0,0,0,.06,0Zm-.19,0,.06,0,.78,23.56h0l-.1,0-.79-23.6Zm-.08,0,.79,23.6h0v0h0l-.05,0-.79-23.49.06,0Zm-.18,0,0,0,.79,23.49h0l-.1,0-.79-23.53Zm-.08,0,.79,23.52h0s0-.06-.08-.06l-.79-23.43a.05.05,0,0,0,0,0Zm-.19,0a.07.07,0,0,0,.06,0l.79,23.43h0l-.1,0-.8-23.47Zm-.07,0,.79,23.46h0v0h-.06l-.8-23.36a.09.09,0,0,0,.06,0Zm-.19,0a.07.07,0,0,0,.06,0l.79,23.37-.1,0-.8-23.4Zm-.07,0,.79,23.39h0v0h-.05l-.8-23.29a.13.13,0,0,0,.06,0Zm-.19,0a.11.11,0,0,0,.06,0l.79,23.29-.1,0-.8-23.33Zm-.08,0,.8,23.33h0a.08.08,0,0,0-.07,0l-.8-23.23s0,0,.06,0Zm-.18,0s0,0,.05,0l.8,23.23-.1,0-.8-23.27Zm-.08,0,.8,23.27h0s0,0,0,0h-.06l-.8-23.17.06,0Zm-.18,0,0,0,.8,23.17-.1,0-.8-23.21Zm-.08,0,.81,23.2h0a.12.12,0,0,0-.05-.05h0l-.8-23.11.06,0Zm-.18,0,0,0,.81,23.1-.1,0-.81-23.14Zm-.08,0,.81,23.14h0s0,0-.07,0l-.81-23,.06,0Zm-.18,0a.11.11,0,0,0,.06,0l.8,23-.1,0-.81-23.08Zm-.07,0,.8,23.08h0l0,0h0l-.81-23a.06.06,0,0,0,.06,0Zm-.19,0,.06,0,.81,23-.1,0-.82-23Zm-.07,0,.81,23h0l0,0h0l-.81-22.92a.05.05,0,0,0,0,0Zm-.19,0,.06,0,.81,22.92h-.1l-.81-22.95Zm-.07,0,.81,23h0l0,0h0L-105,25.41a.09.09,0,0,0,.06,0Zm-.18,0,0,0,.82,22.85-.1,0-.82-22.89Zm-.08,0,.82,22.88h0s0,0-.07-.05l-.82-22.79a.06.06,0,0,0,.06,0Zm-.18,0,.06,0,.81,22.79-.1,0-.82-22.83Zm-.07,0,.82,22.82h0l0,0h0a.06.06,0,0,0-.06,0l-.81-22.73a.05.05,0,0,0,0,0Zm-.18,0,0,0,.82,22.73-.1,0-.82-22.76Zm-.08,0,.82,22.76h0l0,0h0l-.06,0-.82-22.67a.06.06,0,0,0,.06,0Zm-.18,0s0,0,.06,0l.82,22.67h-.1l-.83-22.69Zm-.07,0,.82,22.69h0a.07.07,0,0,0-.07,0h0L-106,25.49a.09.09,0,0,0,.06,0Zm-.18,0s0,0,0,0l.82,22.61h-.09l-.83-22.63Zm-.08,0,.83,22.63h0s0,0,0,0h0s0,0,0,0l-.83-22.54a.06.06,0,0,0,.06,0Zm-.18,0,.06,0,.82,22.53-.1,0-.82-22.57Zm-.07,0,.83,22.57h0l0,0h0l-.83-22.47.06,0Zm-.18,0s0,0,.05,0l.83,22.47-.1,0-.83-22.51Zm-.07,0,.83,22.51h0s0,0,0,0h0l0,0-.83-22.41.06,0Zm-.18,0s0,0,.05,0L-106,48l-.1,0-.83-22.45Zm-.07,0,.83,22.44h0v0h0l0,0L-107,25.58a.1.1,0,0,0,.05,0Zm-.18,0a.05.05,0,0,0,.05,0l.83,22.35h-.1l-.83-22.38Zm-.08,0,.84,22.38h0a.09.09,0,0,0-.08,0l-.83-22.29a.1.1,0,0,0,.05,0Zm-.18,0s0,0,.06,0l.83,22.29h-.09l-.84-22.32Zm-.07,0,.84,22.32h0v0h0s0,0,0,0l-.83-22.23a.1.1,0,0,0,.05,0Zm-.18,0s0,0,.06,0l.83,22.22-.09,0-.84-22.26Zm-.07,0,.84,22.26h0l0,0h0l-.83-22.17a.1.1,0,0,0,.05,0Zm-.18,0a.09.09,0,0,0,.06,0L-107,47.8l-.1,0-.84-22.2Zm-.07,0,.84,22.2h0l0,0-.84-22.1a.1.1,0,0,0,.05,0Zm-.17,0s0,0,.05,0l.84,22.1-.1,0-.84-22.14Zm-.08,0,.85,22.14h0a0,0,0,0,0,0,0h0l0,0-.84-22a.1.1,0,0,0,.05,0Zm-.17,0s0,0,.05,0l.84,22-.09,0-.85-22.08Zm-.07,0,.84,22.07h0s0,0,0,0h0l-.06,0-.84-22,.06,0Zm-.18,0a.05.05,0,0,0,.05,0l.85,22h-.1l-.84-22Zm-.07,0,.84,22h0v0h-.06l-.85-21.92a.13.13,0,0,0,.06,0Zm-.18,0,.06,0,.84,21.92h-.09l-.85-21.95Zm-.07,0,.85,22h0l0,0h0L-109,25.74a.1.1,0,0,0,0,0Zm-.18,0,.06,0,.85,21.86h-.1l-.85-21.89Zm-.06,0,.84,21.89h0v0h-.06l-.85-21.8.06,0Zm-.18,0a.05.05,0,0,0,0,0l.85,21.8h-.09l-.85-21.83Zm-.07,0,.85,21.83h0l0,0h0l0,0h0l-.85-21.74a.09.09,0,0,0,.06,0Zm-.18,0a.09.09,0,0,0,.06,0l.85,21.74h-.1l-.85-21.77Zm-.07,0,.86,21.77h0l0,0h0l-.85-21.67.06,0Zm-.17,0s0,0,0,0l.85,21.67-.09,0-.85-21.71Zm-.07,0,.85,21.71h0a.13.13,0,0,0-.07,0L-110,25.82a.1.1,0,0,0,.05,0Zm-.18,0,.06,0,.85,21.61-.09,0-.86-21.65Zm-.06,0,.85,21.65h0a.13.13,0,0,0-.07,0l-.86-21.55s.05,0,.06,0Zm-.18,0s0,0,.06,0l.85,21.56-.09,0-.86-21.59Zm-.07,0,.86,21.59h0a.18.18,0,0,0-.07,0l-.86-21.49.06,0Zm-.17,0s0,0,0,0l.86,21.5-.09,0-.86-21.53Zm-.07,0,.86,21.53h0a.16.16,0,0,0-.08,0l-.85-21.44a.05.05,0,0,0,0,0Zm-.18,0a.07.07,0,0,0,.06,0l.86,21.44-.09,0-.87-21.47Zm-.06,0,.86,21.47h0l0,0h0L-111,25.89a.06.06,0,0,0,.06,0Zm-.18,0a.07.07,0,0,0,.06,0l.86,21.38-.09,0-.87-21.41Zm22.22,23.26-.05-2.19,3.9.58,16.09,2.4,0,2.4Zm20.15,3.18,0-2.4,15.79-3.49v2.15Zm.66,9.88,0-6.4,2.1-.54,0,7.36Zm-.82-3.49v-.1l.35.06v.14l-.36-.07h0Zm-4,2.21,0-2.73,4.35.82,0,2.77Zm4.1-4.95.2-.05,0,2.56-.34-.06ZM-73.06,58v0h0L-73,61h0v0h0v0h0l4.54.9h0l0,0h0a.05.05,0,0,0,0-.05h0l0-3v-.33l0-2.72.07,0,0,6.31-4.85-1,0-3.16Zm7.38,18.24,0-10.22,0-3.32,0-7.53,1.11-.29.09,20.41Zm1.28-1.11-.08-20.3,5.06-1.31V70.83Zm5.18-4.5v-3.1l2.86.61Zm6.41-49.21v.14l-15.32.81,7.36-.59h0l8-.41S-52.81,21.43-52.81,21.45Zm14.42-7.81,21.12,0h0l-.11,3.45-21.11.64Zm21.32,3.48h-.08l.11-3.45h.09v0ZM3.57,26.05,2,25.84l-2.43-.31-5.08-.66-2.34-.3L-12.69,24-15,23.66l-14.9-1.92-3.58-.46v-.61l3.14-.24L4,24.67l-.2,1.4ZM1.83,59.85l-.17,0,0-.53.18,0Zm-.14-.75,0-.49h0v-.13h0a.16.16,0,0,0,0-.07l-.18-.13h0l-.33-.13h0L.67,58h0L.54,58,2.05,26l1.41.18L1.87,59.13ZM-2,57.81l-.22,0h0l-.43.06h0L-3,58h0l-.15.11h0v0h0v.19L-5.67,58l0-.48h0v-.13h0a.09.09,0,0,0,0-.06h0l-.15-.13h0l0,0-.3-.12h0L-6.59,57h0l-.18,0,1.32-31.85,4.89.62ZM-13.51,56h0l-.23,0,.45-12.49.43,0L-13.33,56ZM-8,24.75l-4.62-.17,0-.43Zm-3.58,4.68h0a.1.1,0,0,0-.1.09h0l-.49,13.24s0,0,0,0h0s0,0,0,0v0a0,0,0,0,1,0,0h.05l3.36.32v.17l-3.6-.35.5-13.75,3.65.18v.18Zm-.51,14h0a.08.08,0,0,0-.09.08h0l-.48,12.88-.13-.12h0l.47-13,3.6.35v.17Zm-1.18-.64.52,0h0l.06,0s0,0,0,0a.05.05,0,0,1,0,0h0l.48-13.21a0,0,0,0,1,0,0h0v0h0l0,0h0l-.53,0V29.2l.77,0L-12.52,43l-.76-.08Zm5.11-13.5-3.65-.18v-.17l3.64.18ZM-12,29.05l-.77,0v-.17l.78,0Zm-.79.51.43,0-.47,13-.43,0Zm-.31,26.53h0l.46-12.67v0h0v0h-.07l-.53-.05V43.1l.76.07-.47,13Zm.45.77,2.24.32v.09h0v.06L-12.67,57Zm2.48.1h0l-.07,0-2.38-.34v-.18h.05l2.64.38Zm.91-.17h0l-3.18-.46L-12,43.58l3.27.32ZM-8.72,43-12,42.68l.48-13,3.3.17Zm.56-14.11-3.74-.19h0l-.87,0,.14-3.88,4.63.17ZM-34.88,57.2l-.36.13.37-.51Zm19.77-32.71L-29.84,24l0-2,14.71,1.9ZM-26.3,28.16l4.48.22v.16l-4.26-.22h0a.1.1,0,0,0-.08.05h0s0,0,0,0h0l-.33,13.18h-.11l0-1.93,0-1.36Zm9.71,1h0c-.05,0-.09,0-.1.09h0l-.43,13v0a0,0,0,0,1,0,0s0,0,0,0v0H-17l1.31.13v.15l-1.53-.15L-16.82,29l1.56.08v.17Zm-.71,27.09h0v.07l-.4-.06v-.15l.42.06Zm-10.36-1.43-2.95-.43-.5-.07.13-6.15.53-.14h0l0,0h0v0h0l.07-3.3.08-3.32h0v0h0s0,0,0,0h-.08l-3.93.87,1-.94,3-.64,3.5-.75-.05,1.91-.33,13.22ZM-33.82,49l1-.26L-33,54.89l-1,.31Zm2.52,5.38-1.5.49.12-6.18,1.51-.42Zm-2.65,1.06,1.08-.35,1.67-.54.15,0-2.9.95ZM-36.22,48l1.17-.31-.16,8.53-1.19,1.61Zm1.35-.47h0v0H-35l-1.36.35h0v0h0v-.19l1.53-.39Zm-1.72,10.64,0,0h0l0,0h0l0,0h0L-35,56.3h0v.06l-1.55,2.11Zm.05.62-.06,0,.82-1.12v0Zm1-1.35,0,0,.74-1h0v0Zm.87-10.3h-.1l-1.68.43v-.14l1.79-.46Zm-1.72-3,1.86-1.74,4.12-.91-.07,3.12-6,1.47Zm9.76-2.32h.11l-.33,12.93v0h0v0h.06l4.18.6v.15L-27,54.93ZM-26,28.52l4.18.21L-22.22,42l-4.12-.41Zm8.56,14L-22,42.05l.39-13.31L-17,29ZM-22.6,55.23l-4.08-.59.33-12.83,4.12.41Zm.18.22,4.52.65v.15l-4.52-.66Zm4.53.46-4.52-.65.38-13,4.57.45Zm2.63-27-1.55-.08v-.16l1.55.07ZM-17,28.79l-4.64-.24v-.16l4.63.24ZM-33.3,39.55l-.52,0v-.72l3.56-.69,2.92.25Zm-.79,0,.37-18.89a.08.08,0,0,0,.07-.05l-.37,19A.12.12,0,0,0-34.09,39.57Zm-.18.18.37-19.06a.08.08,0,0,0,.06,0l-.37,19.14A.08.08,0,0,0-34.27,39.75Zm-.19.17.37-19.22a.1.1,0,0,0,.07,0L-34.4,40A.07.07,0,0,0-34.46,39.92Zm-.19.17.37-19.38a.1.1,0,0,0,.07,0l-.38,19.47S-34.62,40.1-34.65,40.09Zm-.19.18.37-19.55a.1.1,0,0,0,.07,0l-.38,19.63A.07.07,0,0,0-34.84,40.27Zm-.19.17.37-19.71a.1.1,0,0,0,.07,0L-35,40.49A.1.1,0,0,0-35,40.44Zm-.19.18.37-19.88a.1.1,0,0,0,.07,0l-.38,20A.07.07,0,0,0-35.22,40.62Zm-.19.17.37-20a.1.1,0,0,0,.07,0l-.38,20.13A.1.1,0,0,0-35.41,40.79Zm-.2.18.38-20.21a.1.1,0,0,0,.07,0L-35.54,41S-35.58,41-35.61,41Zm-.19.18.37-20.38a.07.07,0,0,0,.07,0l-.37,20.47A.08.08,0,0,0-35.8,41.15Zm-.19.18.37-20.55a.09.09,0,0,0,.07-.06l-.37,20.65A.1.1,0,0,0-36,41.33Zm-.13.22a.1.1,0,0,0-.06,0l.37-20.71s.05,0,.07-.05Zm-.19.18a.1.1,0,0,0-.06,0L-36,20.8s0,0,.07-.05Zm.4-21s0,.05.07.05l-.37,20.71a.12.12,0,0,0-.07,0Zm.2,0a.06.06,0,0,0,.06.05L-36,41.33a.1.1,0,0,0-.07,0Zm.19,0a.08.08,0,0,0,.07.05l-.37,20.38a.08.08,0,0,0-.07,0Zm.19,0a.08.08,0,0,0,.07.05L-35.63,41s-.06,0-.07,0Zm.19,0s0,.05.07.05l-.37,20a.1.1,0,0,0-.07,0Zm.19,0a.1.1,0,0,0,.07,0l-.37,19.88a.1.1,0,0,0-.07,0Zm.2,0a.07.07,0,0,0,.06,0l-.37,19.71a.18.18,0,0,0-.07.05Zm.19,0a.07.07,0,0,0,.06,0l-.37,19.55a.1.1,0,0,0-.07,0Zm.19,0a.07.07,0,0,0,.06,0l-.37,19.38a.12.12,0,0,0-.07,0Zm.18,0a.1.1,0,0,0,.07,0l-.37,19.22a.1.1,0,0,0-.07,0Zm.19,0a.1.1,0,0,0,.07,0l-.37,19.05a.12.12,0,0,0-.07,0Zm.19,0a.08.08,0,0,0,.07,0l-.37,18.89-.07,0Zm0,17.94v-.15l.18,0,1.63-.31,1.59-.31h0v.16Zm0-.49h.06v.18h-.06Zm.26-.12,0,0h0a.07.07,0,0,0,.06,0h0l1.28-.24h0v.17l-1.44.28Zm1.63-.3v0h0l.05,0h0l1.25-.23h0v.16l-1.4.27Zm1.23-.36-1.06.19.26-12.11,1.07-.1Zm-1.6.3-1.08.2.24-12.27,1.1-.1Zm2-12.48v0h-.07l-1.26.11h-.05s0,0,0,0h0v-.18l1.41-.13Zm-1.6.15h0l0,0h0l0,0h0l-1.29.11h0a.08.08,0,0,0-.07,0v-.2l1.45-.13Zm-1.64.16h0v0h0v-.16h.07Zm3.42-.67h0l0,0h-.08l-1.57.13-1.64.15h-.15v-.16l3.48-.29Zm0-.39-3.49.3.07-3.21,3.47.45Zm-3.51-3.9h-.05a0,0,0,0,1,0,0v0h0v0h0s0-.07-.08-.08a.09.09,0,0,0-.1.09h0a.11.11,0,0,0-.1-.08.09.09,0,0,0-.09.09h0a.11.11,0,0,0-.09-.08.11.11,0,0,0-.1.09h0a.11.11,0,0,0-.09-.08.11.11,0,0,0-.1.09h0a.1.1,0,0,0-.09-.08.11.11,0,0,0-.1.09h0a.1.1,0,0,0-.09-.08.11.11,0,0,0-.1.09h0a.11.11,0,0,0-.09-.08.11.11,0,0,0-.1.09h0a.11.11,0,0,0-.09-.08.11.11,0,0,0-.1.09h0a.11.11,0,0,0-.1-.08.09.09,0,0,0-.09.09h0a.11.11,0,0,0-.1-.08.09.09,0,0,0-.09.09h0s0-.07-.08-.08a.12.12,0,0,0-.11.09h0a.11.11,0,0,0-.09-.08.1.1,0,0,0-.1.09h0a.12.12,0,0,0-.07-.07v0h0l4.72-.24ZM-36.37,42a.1.1,0,0,0,.07-.09V41.8h0v0a.08.08,0,0,0,.08,0h0a.09.09,0,0,0,.09-.09v-.08h0v0a.1.1,0,0,0,.08,0h0a.09.09,0,0,0,.1-.09v-.08h0v0l.08,0h0a.1.1,0,0,0,.09-.1v-.08h0v0a.08.08,0,0,0,.08,0h0a.09.09,0,0,0,.09-.1v-.07l0,0v0a.08.08,0,0,0,.08,0h0a.11.11,0,0,0,.1-.09v-.08h0v0a.1.1,0,0,0,.08,0h0a.1.1,0,0,0,.1-.09v-.08h0v0a.1.1,0,0,0,.08,0h0a.1.1,0,0,0,.1-.09v-.08h0v0a.12.12,0,0,0,.08,0h0a.1.1,0,0,0,.1-.09v-.08a0,0,0,0,0,0,0v0a.09.09,0,0,0,.08.05h0a.1.1,0,0,0,.1-.1v-.07h0v0a.1.1,0,0,0,.08,0h0a.11.11,0,0,0,.1-.09V40h0v0a.08.08,0,0,0,.08.05h0a.09.09,0,0,0,.09-.09v-.08h0v0a.08.08,0,0,0,.07,0h0a.09.09,0,0,0,.09-.1v-.08h0v0a.07.07,0,0,0,.07,0l.41,0-2.87,2.66Zm0,.68,3.14-2.92,6.49-1.31,0,1.16-3.54.75-3,.65,0,0h0l-1.27,1.2-1.75,1.63Zm.61,15.41v.46l-.44.15Zm1.29-11.27v0h0v0h-.1l-1.86.48,0-.93,6-1.47-.07,3.1-.53.14-1.69.47-1.15.31a.1.1,0,0,0-.05,0h0v0h0l-.13,6.44v.3h0l0,0h0l.05,0h0l3.29-1.07v.45l-3.93,1.3Zm4,7.82,2.75.4v.46l-2.75-.4Zm2.94.43.5.07,4.56.66,4.71.69.5.07V57L-27.6,55.5ZM-17,56h0l-.07,0-.59-.08.43-13.23,1.54.15V43l-1.3-.13h0a.07.07,0,0,0-.06,0h0a.08.08,0,0,0,0,0h0l-.42,12.74v0h0v0h.06l.67.1Zm.84-.16-1.19-.17.42-12.55,1.2.12Zm.46-13.5-1.2-.11.42-12.84,1.22.07Zm.47-13.79-1.64-.08h0l-4.82-.24h0L-26.39,28h-.08v0h0l-.26,10.14-3.41-.3.31-13.43v-.33l14.74.54Zm-8.59-9.24-.05-1h0a.14.14,0,0,0,0-.06h0a.09.09,0,0,0-.06,0h0l-14.48.55,0-.81,21.1-.64,0,1.66Zm-14.82-.5-.43,0V18h.43Zm-.61-1-25.18-.37v-.25h0v-.06h0v-.16h0v-.23h0v-.35L-39.2,13.7Zm-25.17,2.18V17.58l25.18.38v.84l-21.64.83h0ZM-36.7,60.48l.76.13-.77.28Zm1.12,0-1.12-.19V60l.08,0,1.58.26Zm.91-.33-1.86-.31,0-.81h0v0l3.43.57Zm2-.71-3.51-.57.53-.19,3.5.58Zm.89-.32-3.78-.61v-.82l5.38.85Zm2-.71-5.44-.87.5-.17,5.44.86Zm.87-.32-5.72-.9v-.56l6.84,1.06Zm16.3-.89,2.23.33,0,.5-2.23-.33Zm7,1,2.42.36,0,.52-2.43-.36Zm-59-41.43v0l-6.8.7,0-.61Zm-.52.29h0v0h0v.26l-3.93.09Zm.18.4h0v-.25h.34v.25h0V20L-65,20Zm-.08,2.71.53-.05,3.53-.31.12,1.8-51.66,4.17-.86-.05-.06-1.26Zm-46.19,5.73.86,21.35-1.15.19L-112.43,26Zm.88,21.54.1,0h.07l0,0,.12,0h.07l0,0,.12,0h.08l0,0,.12,0h.08l0,0,.12,0h.08l0,0,.13,0h.07l0,0,.12,0h.07l0,0,.12,0h.08l0,0,.13,0h.07l.05,0,.12,0h.08l0,0,.13,0h.07a.05.05,0,0,0,0,0l.12,0h.08l0,0,.13,0h.08l0,0,.12,0h.08l0,0,.12,0h.08l0,0,.12,0h.08l0,0,.13,0h.08s0,0,0,0l.13,0h.08a.05.05,0,0,0,0,0l.13,0h.08a.05.05,0,0,0,0,0l.13,0h.08l0,0,.13,0h.08l0,0,.12,0h.08a.05.05,0,0,0,0,0l.12,0h.08l0,0,.13,0h.08l0,0,.13,0h.13l.13,0h.08l0,0,.13,0h.08l.05,0,.13,0h.08l0,0,.13,0h.08l0,0,.13,0h.08l0,0,.13,0h.08l0,0,.13,0h.13l.13,0h.09a.05.05,0,0,0,0,0l.13,0h.09a.05.05,0,0,0,0,0l.13,0h.09s0,0,0,0l.13,0h.09l0,0,.13,0h.13l.14,0h.13l.13,0h.09a0,0,0,0,0,0,0h0l.13,0h.13l.14,0h.08l.05,0,.13,0h.09l0,0,.14,0h.08l0,0,.13,0h.14l.13,0H-99l0,0,.14,0h.08l.05,0,.13,0h.09l0,0,.13,0h.08l0,0h0l.13,0h.14l.13,0h.14l.13,0h.09l0,0,.13,0h.14l.14,0h.13l.14,0h.09l.05,0,.13,0h.08l0,0h0l.14,0H-96l.14,0h.09l0,0,.14,0h.14l.13,0h.1l0,0,.14,0H-95l0,0h0l.14,0h.09l0,0,.14,0h.09l0,0,.14,0h.08v0h0l.14,0h.14l.14,0h.14l.14,0h.14l.14,0H-93v0a0,0,0,0,1,0,0h0l.14,0h.15l.14,0h.14l.14,0h.14l.15,0h.08l0,0h0l.14,0h.15l.14,0h.14l.15,0H-91l.15,0h.14l.14,0h.15l.14,0h.09l0,0h0l.14,0h.09l0,0h0l.15,0h.14l.15,0h.14l.15,0h0l.15,0h0v0h0v0h0l0-1.59,20,3.2h0l15.83-3.75v1.29l-17.7,4.38L-111,47.58Zm39.72,9h0l1.43-.36-.11,2.12-3.86-.71.07-1.48Zm-2.69,1.11h0v.06h.06l4,.75h0l.06,0,0,0,0,0h0L-69,56l.07,0L-69,58.48v.1l-3.89-.72-.25,0-.22,0,.09-1.8h0Zm-.27.29h0v0h.06l.23,0,0,3.16-.79-.16,0-2.6V58h0v-.08h0v-.66l0-1.43.61.11Zm-.7-2.06v1.35l-1-.16L-76,56.5l-.68-.44v-.4l.18-.26Zm-2.56-.22h0a.07.07,0,0,0,0,.05v.49h0v.64h0v0h0v0h0l.73.47.76.49h0l.87.15-2.33.61V57.27h0v0h0a.11.11,0,0,0-.09,0h0l-2.93.74-.84-.35-1.07-.68-.2-.29h0l-.14-.16a.1.1,0,0,0,0,0h0l-.29-.06,4.74-1.14,1,.18Zm-6,.68H-83v0h0v.56l-2.7.66h0l-2.1.52-.1-4.69,9.71,1.72Zm-5.17-2.9L-88,58.2v.09h0v.77l0,2.06,0,1,0,.69,0,1,0,1.86.06,2.64v.47l-5.22,1.58-.49-18Zm-5.55-1,.49,18-.81-.21L-94,67.53V67l0-.53,0-1-.05-1.66,0-.82,0-.47,0-1.24-.25-9Zm-16.72,14.9h0l0-.18,8.5,2.26L-107,70.82l-2.29-2-1.13-1.19Zm1.08,1.8,0,0,2.21,2v0ZM-106.9,71l5.37-1.53v.08l-5.37,1.54Zm5.56-1.5v-.08l2-.55v.07Zm-1.32-2.75-1.88-1.17,8,2-2.74.78Zm3.45,1.86v-.07l2.93-.83v.07Zm0,.28v-.08l3-.87h.05v0h0v0h0v-.2l1.28-.35v.33ZM-94.63,67v-.33l.41-.12v.34Zm.28-4.68-1.15-.26,1.13-.29Zm.09,3.15,0,.89-.49.13-1.89-.84h0L-98.77,65l-1-.73h0l-.2-.12Zm-6-1v-.28l.37.22v.28Zm.56.35v-.27l.79.59v.28Zm1,.72v-.31l2,.61v.33Zm2.15.7v-.32l1.73.78V67Zm1.94,1.34v-.34l.4-.11v.33Zm.24-6-1.54.39-.53-.12,2.06-.52Zm0,.94v.25l-1.39-.57Zm-6.09,1.53v.3l-.52-.17v-.3Zm-.61.3.68.22.54.33,1,.75h0l0,0,2.14.68,1.68.76-1.19.33-8.53-2.14Zm-1.7,2.53h0l3.35,1.61v.06L-102.65,67-105,65.54v0Zm-2.37-1.22,2.37,1.48h0l3.17,1.53-1.87.53L-110,67Zm-5.48,1.92h0v.27s0,0,0,0a0,0,0,0,1,0,0l1.18,1.23h0l2,1.8-8.19-2.32,5-1.31Zm8.91,5-5-1.4,5.24-1.5,2.13-.61,4.59-1.3.48-.14.07,2.52-5.67,1.71h0ZM-94,70.35l1,.26h0L-87.6,69h0v0h0v0h0v-.47L-76.24,65l2.13-.64,8.19,1.74,0,10.31-4.2,3.66L-99.43,72ZM12.23,58.42h0l1.88.59h0l2.7.64.74.32.59.4L12,59.5l.07-1.17Zm7.13,5.31h0v0h0v0h0l0,0h0l-1.93-.69h0l-2.92-1.1,1.13.21h0l3.46.71h0l1.54.35h0l1.17.19L19.28,65Zm2.73-.48h0v0h0v0h0l-1.39-.23-1.54-.35h0l-3.46-.71h0l-2.44-.44-2.31-.75,7,1.13h0l3.54.43h0l1.3.15h0l1.44.18L22,64Zm2.29-.85-1.64-.21h0L21.44,62h0l-3.54-.43-7.31-1.18,1.34-.74,6.63.94,7,1Zm1.48-.84h0v0h0v0h-.05l-7.18-1-.92-.62h0l-.76-.33h0l-2.71-.63-1.87-.59-.23-.13,0-.4,6.1.82.86.62h0s0,0,0,0l1.38.45h0l6.83,1.6-1.49,1.06Zm1.75-.15,1.29.18-1.38,1Zm-141-35.35.77-.06.89,21.58h0a.05.05,0,0,0,0,0h0a.05.05,0,0,0,0,0l40.91,6.95v1.62l-2.42-.43-.25-.05-.8-.14-2.35-.42-1.13-.2h0L-88,53.18l-5.55-1-1-.18-14.53-2.58h0l-3.36-.6Zm16.63,36,.29.11-.28.07Zm.59.23,1.84.75v.61l-2.42-1v-.21Zm74.87,8,0,1.31-2.7-.91,0-1.29Zm.19,0,3.75.58-.05,1.33-3.74-.59Zm3.94.6,6.63.71L-10.59,73l-6.63-.72Zm6.82.71,9.28-1-.06,1.32-9.27,1Zm9.48-1,1.72-.19L.79,71.73l-1.73.19ZM1,70.4l2.79-.1-.07,1.32L1,71.72Zm3-.1.58,0-.07,1.31H4Zm.77,0,2.53.4-.07,1.33-2.53-.41Zm-24.74,5.28-10-3.62,0-1.12,10,3.55Zm.23-1.15,11.66,1.46,0,1.24-11.65-1.5Zm11.85,1.48,4.41.19-.06,1.24-4.4-.19Zm4.6.19,1.89.08-.05,1.24-1.9-.07Zm2.08.09,2.12.29L.87,77.76l-2.11-.29ZM-13.77,91.74l-1.43-.45h0l-2.19-.59h0l-2.82-.78,7.14,1.88Zm-14-3.77-.51-.17.91.24ZM-12,91.88l-19.65-5.15-1.87-.6h0l-10.8-3.74,22.44,5.78,1.79.65h0l4.89,1.47h0l4.35.73Zm-3.09-3.59-4.79-1.41,7.14,1.79Zm4.54.73-11.21-2.81-8.34-3-7.45-3.1L-8.1,87.26Zm2.74-3.43-.91-.74h0l0,0-.94-.17h0L-12,84.18h0l-5.95-1.43-9.67-3-14.35-6.06,12.16,2.71.43.2h0l5.77,2h0l9.66,2.34h0l5.86.94h0l2.12.16,2.74.3Z"/><path class="cls-3" d="M31.36,67.62l-.91-.15h0l-.06,0-43.58,36.86a.09.09,0,0,0,0,.13.09.09,0,0,0,.08,0,.09.09,0,0,0,.06,0L30.46,67.67l.9.14Z"/></g><g class="cls-4"><path class="cls-3" d="M162.3,92.41l-24.37-.06h0l-4.73.18-13.21,0,0-.11s0,0,0,0a0,0,0,0,1,0,0h-.07l-11.16,0-7.37-39.09a0,0,0,0,0,0,0v0l-3.1-2.64h0l-.06,0L83.82,38.25,51,7.12h-.13v0s0,0,0,0L46.92,20.59,19.34,1.88h-.12L-31.22,60.26h0l-1.25,2.2h0L-34.08,66h0l-1.65,4.21h0l-1.38,4.08h0l-.81,3.09v0h0v1.3a.07.07,0,0,0,0,.06h0l1.58,1.58-4.31,12.2-14.78.06h0a0,0,0,0,0,0,0l0,0h0l-.28.69-6.54,0a.09.09,0,0,0-.09.1.09.09,0,0,0,.09.09h0l6.58,0,13.38,3.94h0L120,92.92H120l0,0s0,0,0,0,0,0,0,0h0l0-.14,8.69,0L-11.55,98a.09.09,0,0,0-.09.1.09.09,0,0,0,.09.08h0L133.2,92.71l4.73-.18,24.37.07h0a.09.09,0,0,0,.09-.1A.09.09,0,0,0,162.3,92.41Zm-53.75,0h0v0h0l-5.2-27.69Zm-3.18-6.14.77,0h0l0,0h0s0,0,0,0l0,0h0l-.14-.64.69.1,1.57,6.87-1.6,0h0Zm-2.3,6.21h0l-.11-.52s0,0,0,0l0,0,0,0h-.16l-1.25-6.07,3.15.39.16,0,.38,0,1.38,6.23-3.48.05v-.06Zm-15.35.08L87.65,92H102.8l.07.34h-.1l-1.93,0H100Zm2,.16-2,0h0Zm-59.4-.57h0a.06.06,0,0,0,0,0,0,0,0,0,0,0,0h0l0,0H28.83l.11-1.24h0s0,0,0,0,0,0,0,0l0,0h0l-1.34,0,.08-1,32.93.61,2.75,1.55.29.17h0l.71.4h0l.74.41.1.06h0l.08,0-35,.44.09-1.26ZM30,93.47h0a0,0,0,0,0,0,0h0L-5.56,94A.1.1,0,0,0-5.48,94l.36-1.69H12.3l7.85,0h10L30,93.47Zm-35.68.35-5.71-3.52.76-2.65,2.6-.23-.33,1.47s0,0,0,0a0,0,0,0,0,0,0s0,0,0,0l0,0,0,0h0l1.36-.07-.34,1.53v0h0s0,0,0,0a0,0,0,0,0,0,0l0,0h0l1,0-.35,1.6h0s0,0,0,0a0,0,0,0,0,0,0h0s0,0,0,0h1.08Zm0,.2h0Zm-14.22-.74.61.54H-20l-.6-.54Zm-.94-.18-16.5-15h.18l17,15Zm1,0L-36.95,78l0-1.15.11-.47,0,.89h0s0,0,0,0h0s0,0,0,0h0l.31.25L-16,94l-2.93-.15h0s0,0,0,0h0Zm101-48.45-.16-.84h0a.09.09,0,0,0,0,0l-2.7-1.83-.07-.53.77.43h0l.91.51h0l.29.17h0l0,0,.13.08h0l.13.07h0l.29.17h0l.87.49h0l.85.48h0l.23.14,0,0,.12.07.12.07.31.18h0l.81.47h0l.79.47h0l.16.09,0,0,.12.06h0l.11.06h0l.34.2h0l.75.45h0l.73.44h0l.09,0h0l0,0h0l.11.07.1.06L88,47l.56,3.11L88,49.8h0l-.74-.42h0L86.48,49h0l-.77-.43h0l-.8-.43h0l-.81-.45h0l-.84-.45h0l-.86-.46h0l-.87-.46h0l-.9-.47h0l-.91-.48,1.52-.56h0l0,0h0v0a0,0,0,0,0,0,0ZM71.59,36.3h0l-3.38-1.77h0l-3-1.53-1.28-.88.83.38,1.24.64h0l1.22.63,1.19.62h0l1.17.6h0l1.13.6h0l1.11.59h0l1.08.58h0l1,.58h0l1,.56h0l1,.55h0L77,39h0l1,.54h0l.93.53h0l.9.52h0l.89.52h0l.86.51h0l.84.49h0l.83.49h0l.8.49h0l.78.47h0l.77.47h0l.75.46h0L87,45h0l.72.44h0l2,1.31h0L91.58,48h0l1.73,1.19,1.59,1.14h0L98,52.58l-.15,0-1.57-1.14-1.7-1.24h0L93,49.11h0l-1.72-1.18h0l-1.87-1.23h0l-2-1.3h0L85.24,44h0L82.9,42.63h0l-2.52-1.48h0l-2.71-1.54h0L74.7,38h0Zm2.93,2.86L74.26,39h0l-.76-.4-1.58-1.08-.09-.77,2.57,1.38Zm-3.17-2-2.87-1.95,0-.21,2.82,1.47Zm-3.46-2.34-.65-.45.64.33Zm21.43,9h0l-2-1.37h0L86.6,42h0l-.72-.47h0l-.74-.48h0l-.76-.49h0l-.78-.5h0l-.8-.5h0l-.13-.08,1.16-.43,6.64,5.6Zm1.75,1.45,1.24.91.47.34h0l1.56,1.18L94.81,50l-1.4-1h0L91.69,47.8h0l-1.87-1.24h0l-2-1.28-.45-2.49L89.21,44h0ZM82.7,39.73h0l.8.51h0l.78.49h0l.76.49h0l.74.48h0l.72.48h0l.68.44.45,2.51-.54-.34h0l-.73-.45h0l-.74-.46h0l-.76-.46h0l-.78-.48h0l-.8-.48h0L82.44,42h0l-.84-.5h0L80.73,41h0l-.88-.52h0l-.91-.52h0l-.89-.51-.38-2.77.75.46h0l.9.54h0l.88.54h0l.85.53h0l.84.52h0l.53.33Zm-4.85-.44-.8-.45h0l-1-.55h0l-1-.55h0l-1-.57h0L73,36.6h0L71.9,36h0l-1.1-.59h0l-1.14-.6h0l-1.16-.61h0l-1.19-.62h0L66.09,33h0l-1.21-.62-.23-3.06,1.09.58h0l1.2.65h0l1.17.65h0l1.15.63h0l1.12.62h0l1.09.61h0l1.07.61h0l1,.59h0l1,.59h0l1,.58h0l1,.56h0l.91.54Zm-13.16-7-1.44-.66h0l-.15-.05-6.6-4.48.21,0,1.43.08,1.57.27,1.63.45,1.63.62,1.5.72ZM99.56,53.92l1.67,7.33-.68-.41-.48-2.15-.33-1.47-.65-2.88-.31-1.42-.29-1.26.67.5Zm-.22-1.77,1.6,1.35-1.22.28ZM95.43,90.32,94.84,87l3,.24.59,3.13Zm3,.38.12.6-3,0-.11-.65ZM67.65,91.83H65.36l-.47-8,2.37.22.33,4.73h0l0,0s0,0,0,0l0,0s0,0,0,0ZM27.32,90.67-6,90.36h0l-1,0,.33-1.47,34.1.67Zm1.43.2L28.65,92h-8.5l-7.85,0H4.37l-10.63,0,.34-1.53,33.32.31Zm-35.5-2.13h0l-1.36.07.32-1.39,13.22.38,3.06.08,12.42.36,2.66.08,9.39.27h.45l2.4.07,3.44.1h.4l1.08,0h0l3,.09,2.2.06,4,.12,1.1,0,1.35,0,2,0,2,.06h.06l.54,0h.28l3.19.09,0,.68v0l-32.84-.62s0,0,0,0,0,0,0,0,0,0,0,0l0,0h0Zm-13.86-15.4h0s0,0,0,0a0,0,0,0,0,0,0h0l0,0h0l9.94,1.07-2.6,8.73-10.39-.54,3-10.08.16,0-.2.69Zm.24-.18.16-.53,12.5-7.78-.23.79ZM-8,65.9l-2.51,8.44-9.71-1Zm-7.27,22-8.06-5,10.11.52-1.3,4.38Zm.69.13-.08.25L-15,88Zm-9.16-5.35-7.78-4.79,10.75-5.16Zm-8-4.89-3.66-.28L-25.82,72l4.85.54Zm5.86-5.89-9.81,5.56-.25-.18-.06-1,.63-2.55,1.12-3.41,1.38-3.55,1.35-3,1.09-1.88,21.05-23h0L6.29,22.73-3.23,55.4Zm-4.66-10.19-.42-.07,20.62-23,.74.24ZM6.54,22.53l1,.48,1.62.78h0a.09.09,0,0,0,0-.17l-1.63-.78-1.1-.53h0a0,0,0,0,1,0,0s0,0,0,0h0L-9.48,38.69l-.73-.24L17.12,8,78.13,46l-.36.13-3,1.1.12-.42,2.18-.8h0a.1.1,0,0,0,0,0h0v0s0,0,0,0h0l0,0a0,0,0,0,0,0,0l-.91-.55-.88-.54L18.7,10h-.11l-6.1,6.51-1.58,1.69h0v0s0,0,0,0a0,0,0,0,0,0,0s0,0,0,0h0s0,0,0,0l.63.33h0a.1.1,0,0,0,.08-.05.09.09,0,0,0,0-.12L13.17,17l5.47-5.7,2,5.14L10,26.52a.09.09,0,0,0,0,.13.11.11,0,0,0,.07,0,.07.07,0,0,0,.06,0L20.81,16.49,23.05,15l-4.89,4.61-1.59,1.5a0,0,0,0,0,0,0,.09.09,0,0,0-.08,0,.11.11,0,0,0,0,.13L27.39,27h0s.07,0,.08,0a.09.09,0,0,0,0-.11l1.61-1.24,5.82-4.47,1.6,4.09h0l.16.42L33.5,27.87,31.76,29.1l-4.5,3.19-1.85,1.3a.09.09,0,0,0,0,.13.09.09,0,0,0,.07,0l.06,0,1.8-1.27,8.2,3.92,1.61.77h0a.08.08,0,0,0,.08-.06.08.08,0,0,0,0-.12l-1.61-.77-8.11-3.88,4.33-3.06L40,33.56h0a.1.1,0,0,0,.08,0,.07.07,0,0,0,0-.09l1.63-1,5.9-3.6,1.19,3,.38,1L46,34.63l-1.76,1-4.59,2.59-1.9,1.07a.11.11,0,0,0,0,.13.1.1,0,0,0,.08.05l.05,0,1.85-1,6.07,2.9,1.57.75h0a.09.09,0,0,0,.08-.05.11.11,0,0,0,0-.13l-1.57-.75-6-2.84,4.4-2.48,6,3.13h0a.08.08,0,0,0,.08-.05.08.08,0,0,0,0-.08L52,38l5.85-3,.91,2.33.5,1.27L56.16,40.1l-1.74.82-4.57,2.15L48,44a.1.1,0,0,0,0,.12.09.09,0,0,0,.08.06h0l1.86-.88,4.52,2.17,1.52.72h0a.09.09,0,0,0,.08,0A.09.09,0,0,0,56,46l-1.52-.73-4.39-2.1,4.36-2,4.4,2.3h0a.08.08,0,0,0,.08-.05.06.06,0,0,0,0-.07l1.58-.69,5.72-2.48L67,42h0l.55,1.42-3,1.23-1.7.69-4.49,1.81-1.87.76a.09.09,0,0,0,0,.17h0l1.83-.75,3.37,1.61,1.46.7h0a.11.11,0,0,0,.09,0,.09.09,0,0,0,0-.12l-1.46-.7-3.22-1.54,4.26-1.72,3.24,1.69h0s.07,0,.08,0a.13.13,0,0,0,0-.06l1.54-.59,5.55-2.12.41,1h0l.18.46h0l.59,1.48-1.3.46h0L72.7,48h0l-.12,0,0,0h0l-.1,0-6.92,2.46-1.83.65a.09.09,0,0,0-.06.12.1.1,0,0,0,.09.06h0l1.8-.64,0,0,.56.27.48.23,0,.48,0,.34v.11h0v0h0L66.48,54l-.07,1.11-.19,3.6,0,.29v.29h0v.12h0l-.1,1.76-.28,5.12v.25h0v.13h0L65.65,69l-.14,2.54L63.24,71l.48-7.61v0a0,0,0,0,1,0,0l0,0h0L9.45,40H9.37l-.58.28h0l0,0s0,0,0,0h0L4.32,57.11-3,55.38ZM89.4,47.9h0l0,0h0l.1.06.1.06.38.24h0l1.25.81,0,0,.09.06.08.06.4.26h0l1.11.74,0,0h0l.09.06h0l.08,0,.41.28h0l1,.68,0,0,.08,0,.07.06.39.27.59,2.8-1.41-.92h0l-1.73-1.09h0L90.74,51.4h0l-2-1.17-.56-3.09Zm-1.3-1h0l-.34-.21-.15-.81,1.56,1,.15.78Zm1.52.27,1.42,1,.15.74-1.07-.69h0l-.35-.22Zm1.86,1.25,1.29.88.14.7L92,49.35h0l-.36-.23Zm1.72,1.18,1.17.83.14.66-.79-.54h0l-.38-.26Zm4.71,4.12h0l0,0h0l.06,0,.49.35h0l.41.29L99.51,57l-.25-.17L96,54.7l-.59-2.79.9.64h0l0,0,.07.05h0l.07.06h0Zm-1.42-1.76,1.2.87.13.61-1.19-.85Zm7.84,29.63.26,0,.36,1.61-.28-.05Zm0,1.48-1.23-.22-.31-1.46,1.23.27Zm.43-1.48.24.06.36,1.62-.24,0Zm-.1-.21-3.26-.72-.75-3.6.95.28h0l.08,0,.07,0,1.43.42h0l.07,0,.48.14.39.12.45,2,.3,1.35Zm-2.94,1v0s0,0,0,0h0l-.22-.3h0a0,0,0,0,0,0,0l0,0h0l-.16-.22L101.1,81l1.33.29.31,1.47-1-.18h0l-.23,0,.15-.09h0s0,0,0,0a0,0,0,0,0,0,0ZM80.87,83.9h0L75,83.39h-.21l-.33,0h-.41l-.79,0h-.15l-4.33.27-.09-1.15h0s0,0,0,0a0,0,0,0,1,0,0l3.85.32h0l4,.35h0l3.66.33h0l3.35.31h0l1.15.11h0s0,0,0,0l0,0s0,0,0,0v0h0l0,.21-3.6-.33h0ZM81,85.68l-5.69-.38-.16-1.56,5.67.48ZM64.35,91.76h0l-.09-1.59h0a.08.08,0,0,0,0-.05h0s0,0,0,0h0s0,0,0,0,0,0,0,0h0L64,85.59h0l0,0a.06.06,0,0,0-.05,0s0,0,0,0a.08.08,0,0,0,0,0v0h0l-.09-1.57h0l.45,8H64.3s0,0,0,0l0,0s0,0,0,0Zm-7.86-9v-.1l.82.13v.1ZM57,85.87h0v0Zm-.13-1.74h0L55,84l.1-1.11.39.09h0l1.13.17h0l.19,0h.09l0,1h0S56.86,84.14,56.85,84.13Zm0,5H56.5l-.12-4.75.34,0Zm-.72-4.74,0,1.29-1.37.07.11-1.28Zm-1.21-.1v0h0Zm1.3,1.57h0l-1.45.07h0Zm0,.2.07,3-1.74,0,.26-2.93Zm11.05-2.36-2.45-.24-.16,0L60,83h0l-1.4-.15h0l-1.21-.16h0l-1-.16-.74-.17-.11,0,.23-.05.88-.09h0l1.18-.05h0l1.46,0,1.66,0h0l1.79,0h0l1.85.08h0l1.82.11h0l.81.06h0l0,0a0,0,0,0,0,0,0s0,0,0,0Zm-7.31-.44L58.7,83.1V83l1.22.13Zm-1.4-.14-1-.13v-.1l1,.13Zm-2.21-.33-.57-.12v-.1l.58.12Zm-.54-.69h0l-.55.11a0,0,0,0,0,0,0h0l-.05,0h0V82.1l.54-.06.48,0Zm-.22.52-.28-.1v-.1l.28.1Zm-.44,0h0a0,0,0,0,0,0,0h0l.45.16-.13,0-.4-.09v-.11Zm2.82.68h0l1.52.16h0l4.27.39.09,1.51-6.59.34-.07-2.49Zm2.18-.05v-.09l4.42.43v.07Zm4,.64h0l.37,0,.47,8h-.41Zm.57,0h0s0,0,0,0l.48,8h0Zm.2-.22,2.37.23v.08l-2.37-.23Zm1.76-1.56h0l-2-.12h0l-2.08-.09h0l-2,0h0l-1.86,0h0l-1.64,0h0l-1.34.06h0l-.5,0,.39-4.51h.31l1-.07.67,0h.93l1.83,0h.45l.57,0,1,0h0l1,.07,1,.06h0l1.14.1h0l.82.07h0l.8.09h0l.75.08.28,0,.33,4.31ZM63.14,71.6h0a0,0,0,0,1,0,0v0s0,0,0,0h0l0-.36,2,.46-9.32,2,0-.44ZM63,71.4,4.82,58,9.48,40.25,63.54,63.41,63.06,71Zm2.59.31h0a0,0,0,0,1,0,0s0,0,0,0h0l.14-2.55,1.14.2h0l.23,0h0l.22,0,.06,0,.41,5.42-1.77-.24h0l-2-.21h0l-2-.15h0l-2-.1h0l-1.81,0h0l-1.58,0h0l-.94.08,0-.34Zm.76-10.4h0l.22.06.21,0,.06,0,.38,5L66,66.21l.27-4.93Zm-.11-.22v-.25l0,.26Zm4.71-12h0l1.2.48h0l.57.23h0l0,0h0l.18.07.17.07.21.09h0l1.14.46h0l1.11.46h0l.44.18,0,0,.16.07h0l.16.06h0l.29.12h0l1,.44h0l1,.43h0l.37.16h0l0,0h0l.15.06.15.07.24.1.53,3.89-.86-.34h0l-1-.4h0l-1.07-.4h0l-1.1-.41h0L75,54.65h0l-1.16-.43h0l-1.18-.43h0l-1.22-.45h0l-1.25-.45h0l-1.29-.45h0L67.62,52h0l-.83-.29,0-.48h0s0,0,0,0l0,0a0,0,0,0,0,0,0l-.48-.23,0-.34L70.6,49Zm-.12-.25,1.62-.59h0l0,0,.15,1.35-.44-.18h0l-1.19-.48h0Zm10.56-.73.3.15.88.45h0l.86.44.23.13,0,0,.13.06.12.07.32.16h0l.82.43h0l.8.42h0l.16.09,0,0h0l.12.06h0l.11.06.34.19h0l.76.4h0l.74.4h0l.09,0h0l0,0h0l.11.06h0l.1,0h0l.34.19.59,3.28-.56-.28h0l-.75-.38h0l-.77-.38h0l-.78-.38h0l-.81-.39h0l-.83-.4h0l-.84-.41h0l-.86-.41h0l-.89-.42h0l-.91-.42h0L80.51,51h0l-.92-.42L79.09,47l.79.4.93.46h0l.3.15,0,0,.14.07Zm0-1.22L83.45,48l.16,1-.07,0h0l-.86-.44h0l-.88-.45h0L81.54,48Zm2.56,1.36,1.89,1,.17,1-.8-.42h0l-.82-.43h0l-.27-.15Zm2.37,1.29,1.72,1,.17.95-.66-.36h0l-.76-.41h0l-.3-.16ZM90.57,53l.39.22h0l1.26.74h0l0,0h0l.09.06h0l.09.05h0l.4.23h0L94,55h0l0,0h0l.09,0h0l.08.05h0l.41.25h0l1,.62h0l0,0h0l.07,0,.08,0,.39.25.62,2.94-1.43-.82h0l-1.75-1h0l-1.9-1h0l-2-1.05-.59-3.27,1.24.71h0l0,0h0l.1.06h0Zm0-1,1.44.86.16.87-1.08-.64h0l-.36-.2Zm1.87,1.13,1.31.8.16.83-.93-.56h0L92.57,54Zm1.73,1.08,1.18.75.17.79-.8-.5h0L94.3,55Zm1.6,1,1.3.85.16.74-.91-.58h0L95.89,56ZM89,51.92h0l-.34-.19-.17-.94,1.58.92.17.91Zm-9.54-1.16,1,.44h0l.94.43h0l.91.43h0l.9.42h0l.87.41h0l.84.4h0l.83.4h0l.81.39h0l.78.39.77.38h0l.74.37.73.36,2.06,1.07h0l1.89,1h0l1.75,1,1.6.92h0L100,61.4l-.13,0-1.58-.93-1.71-1h0l-1.6-.92h0l-1.75-1h0l-1.9-1h0l-2-1.06h0L87,54.44h0l-2.4-1.16h0L82,52.06h0l-2.81-1.28h0l-3.08-1.35h0L73,48.09l.22-.08,1,.44h0l1.1.48h0l1.07.47h0l1,.46h0l1,.45h0l1,.45Zm20.67,10.79.28,1.26-.27-.16-.23-1.06Zm-.32.92-1.21-.68-.19-.87,1.22.71Zm1,3.63-1.58-.8-1.72-.86h0l-1.62-.8h0l-1.75-.83h0l-1.91-.87h0L90.19,61h0l-2.25-1h0L85.5,59h0L82.85,58h0L80,56.84h0l-3.13-1.19h0l-3.32-1.23h0l-3.63-1.3h0L66.77,52v-.15l.78.27h0l1.32.47h0l1.28.46h0l1.26.45h0l1.21.44h0l1.19.43h0l1.15.43h0l1.13.42h0l1.09.41h0l1.07.41h0l1,.39h0l1,.4h0l1,.38h0l1,.38h0l.93.38h0l.9.36h0l.89.36h0l.86.36h0l.84.34h0l.81.34h0l.8.34h0l.77.33h0l.76.32h0l.73.32h0l2.07.93h0l1.91.89h0l1.76.84h0l1.61.81h0L101,66.09Zm.33.14.3,1.33-.27-.13L101,66.27Zm-.3,1.05-1.21-.59-.22-1,1.22.61Zm-19.29-8h0l1,.36h0l.31.12h0l.14.06.14.05.3.11h0l.91.35h0l.88.34h0l.24.1h0l.13.05.12,0,.33.13h0l.84.33h0l.82.32h0l.17.07,0,0,.11,0h0l.12,0,.35.14h0l.78.31h0l.76.31h0l.09,0h.05l.11,0,.1,0,.34.14.66,3.67-.59-.22h0l-.77-.27h0l-.78-.27h0l-.81-.29h0l-.83-.28h0L86.87,65h0l-.87-.3h0l-.9-.3h0l-.92-.31h0l-1-.31h0l-1-.32h0l-1-.31L80.75,59Zm-.92-.54h0l-.24-.09-.19-1.43,2.34.92.21,1.39-.17-.06h0l-1-.36h0Zm2.42-.4,2.14.86.21,1.35-.09,0h0l-.89-.34h0l-.91-.35h0l-.26-.1Zm2.63,1.06,2,.81.22,1.3h0l-.82-.32h0l-.84-.33h0l-.28-.11Zm2.44,1,1.77.76.23,1.24-.7-.28h0l-.78-.31h0l-.3-.12Zm2.24,1,1.62.71.22,1.19L91,62.78h0l-.34-.14ZM91,63l1.29.54,0,0h0l.1,0h0l.1,0,.4.17h0l1.28.56h0l0,0h0l.1,0h0l.09,0,.4.18h0l1.13.51h0l0,0h0l.08,0,.09,0,.41.19h0l1,.46h0l.05,0h0l.08,0,.07,0,.39.18.68,3.26-1.46-.6h0l-1.76-.71h0l-1.93-.73h0l-2-.76Zm1.43-.69,1.47.68.22,1.14L93,63.66h0l-.35-.15Zm1.9.88,1.33.63.22,1.1-1-.44h0l-.37-.16Zm1.76.84,1.19.59.22,1-.82-.39h0l-.38-.17Zm2.21,2h0L98,65.88l-.21-1,1.31.66.22,1-.93-.45ZM79.89,58.5l-.24-.09h0L78.6,58h0l-1.07-.38h0l-.24-.09-.19-1.48,2.59,1Zm-3.16-1.14-.31-.11h0l-1.13-.39h0l-1.17-.4h0L74,56.39l-.17-1.54,2.76,1Zm-3.35-1.17L72.93,56h0l-1.23-.42h0l-1.26-.43h0l-.12,0-.15-1.6,3,1.09ZM70,53.37v0h0Zm0,1.65h0l-.06-.68ZM69.72,55l-.58-.2h0l-1.33-.44h0l-1.15-.38.09-1.57,2.82,1Zm11-1.78h0l1,.42h0l.3.13,0,0,.14.06.13.06.31.14h0l.89.4h0l.88.4h0l.23.1,0,0h0l.12.06.13.06.32.14h0l.83.39h0l.81.37h0L87,56h0l0,0h0l.12.06.11,0,.35.16h0l.77.36h0l.75.36h0l.09,0h0l0,0h0l.11,0,.11.05h0l.34.16.62,3.47-.58-.25h0l-.75-.33h0l-.78-.33h0l-.8-.33h0l-.81-.35h0l-.84-.34h0L85,58.54h0l-.89-.36h0l-.91-.37h0l-.93-.37h0l-1-.38h0l-.93-.37-.54-3.87Zm-.89-.59h0l-.24-.1-.18-1.26,2.3,1,.18,1.23-.15-.07h0L80.79,53h0Zm2.39-.08,2.11,1,.18,1.19-.08,0h0l-.87-.4h0l-.9-.4h0l-.26-.11Zm2.6,1.21,1.92.93.19,1.14h0l-.81-.38h0L85.28,55h0L85,54.89Zm2.4,1.16,1.75.87.2,1.09-.68-.32h0l-.77-.37h0L87.4,56ZM89.43,56,91,56.8l.2,1L90,57.22h0l-.34-.17Zm6.94,7.58h0l-1.76-.85h0l-1.91-.88h0l-2-.91L90,57.46l1.26.63h0l0,0h0l.1,0h0l.09.05.4.2h0l1.27.65,0,0,.1.05.09,0,.4.21h0L95,60h0L95,60h0l.08,0,.08,0h0l.42.22h0l1,.54h0l.05,0h0l.08,0h0l.07,0h0l.39.21.65,3.1ZM91.47,57l1.46.77.19,1L92,58.24h0l-.35-.18Zm1.9,1,1.31.73.19.95-.94-.5h0L93.56,59Zm1.74,1,1.19.67.19.92-.81-.45h0L95.3,60Zm2.18,2h0l-.39-.21-.19-.91,1.31.76.18.88L97.29,61ZM79.05,52.25l-.23-.1h0l-1-.43h0l-1.05-.45h0l-.24-.1-.16-1.31L78.88,51ZM76,50.94l-.29-.12h0l-1.11-.46h0l-1.14-.46h0l-.16-.07-.15-1.36,2.69,1.16Zm-8.19,3.54h0l1.33.45h0l.7.23h0l0,0h0l.19.06.18.06.18.06h0l1.26.43h0l1.23.42h0l.59.2h0l0,0h0l.18.06.17.06.22.07h0l1.17.41h0l1.13.4h0l.45.16h0l.16.06.16.05.29.11h0l1.08.38h0l1,.38h0l.39.14h0l0,0h0l.15,0,.15.06h0l.24.08.57,4.14-.89-.29h0l-1.06-.33h0l-1.09-.34h0L77,61.76h0l-1.15-.35h0l-1.19-.36h0l-1.21-.37h0l-1.25-.37h0l-1.28-.38h0l-1.32-.39h0l-1.36-.4h0l-1.33-.38-.27-3.65.05-1Zm-1.07,4.23-.29-.07.12-2.12Zm.07.21,1.39.4h0l1.36.4h0l1.31.38h0l1.29.38h0l1.25.38h0l1.21.36h0l1.18.36h0l1.15.36h0l1.12.34h0l1.09.34h0l1.06.34h0l1,.33h0l1,.32h0l1,.32h0l1,.32h0l.92.3h0l.9.3h0l.87.3h0l.85.29h0l.83.29h0l.81.28h0l.78.27h0l.77.28h0l.74.26h0l2.1.78h0l1.92.73h0l1.76.71h0L99,69.7h0L102,71h-.06l-1.59-.66-1.73-.72h0L97,68.94h0l-1.76-.7h0l-1.93-.73h0l-2.1-.77h0l-2.27-.8h0l-2.47-.85h0l-2.68-.89h0l-2.92-1h0l-3.2-1h0l-3.4-1h0l-3.72-1.1h0L66.5,59h0l-.11,0v-.11ZM102,72.31l-1.22-.48-.25-1.14,1.23.51ZM68.36,61.82h0l1.36.37h0l.73.2h0l.2.06h0l.19,0,.18,0h0l1.3.35h0l1.26.35h0l.6.17h0l.18,0h0l.17.05h0l.22.06h0l1.19.34h0l1.16.33h0l.46.13h0l.17,0,.16,0,.3.08h0l1.1.32h0l1.06.31h0l.39.12h0l.15,0,.15,0,.24.07.61,4.41-.92-.23h0l-1.08-.26h0l-1.12-.27h0l-1.14-.27h0l-1.18-.28h0l-1.21-.29h0L74.17,68h0l-1.28-.29h0l-1.32-.3h0l-1.35-.31h0l-1.4-.31h0l-1.36-.3-.38-5ZM67,61.27h0l-.06,0-.14-1.87,3.41,1,.16,1.81-.6-.16h0l-1.36-.37h0Zm3.42-1h0l.18,2h0Zm.2.1v.05h0l.17,1.87h0l-.18-2h0v0Zm.2.17,3.12.92.19,1.75-.47-.13h0l-1.26-.35h0l-1.3-.36h0l-.12,0Zm3.51.89h0Zm.2.2,2.82.86.21,1.69-.33-.1h0l-1.16-.33h0l-1.19-.33h0l-.17-.05Zm3.38,1,2.65.83.22,1.62L80.52,65h0l-1.06-.31h0l-1.1-.32h0l-.24-.07Zm3.19,1,2.39.77L83.72,66l-.17-.06h0l-1-.29h0l-1-.31h0l-.24-.07Zm.55,1.9.86.26h0l1,.3h0l.32.1h0l.14,0,.14,0,.31.09h0l.92.29h0l.9.28h0l.25.07,0,0h0l.13,0h0l.13,0,.33.1h0l.86.27h0l.83.27h0l.17.06h0l.12,0,.12,0,.36.11h0l.79.26h0l.76.25h0l.1,0h0l0,0h0l.11,0,.11,0,.34.11.7,3.88L92,72.5h0l-.78-.21h0l-.79-.22h0l-.82-.22h0l-.84-.22h0l-.86-.23h0L87,71.17h0l-.91-.24h0l-.94-.24h0l-1-.24h0l-1-.25h0l-1-.24Zm2.36-1,2.18.72.24,1.52-.1,0h0l-.9-.28h0l-.93-.28h0l-.26-.08Zm2.68.89,2,.67.25,1.46h0l-.83-.27h0l-.85-.27h0L86.93,67Zm2.47.84L91,67l.25,1.4-.72-.24h0l-.79-.25h0l-.3-.1Zm2.26.8,1.64.6.25,1.35L92,68.63h0l-.34-.11Zm.68,1.73,1.3.45h0l.1,0,.1,0,.4.14h0l1.29.45h0l0,0h0l.09,0h0l.09,0,.41.14h0l1.13.42h0l0,0h0l.09,0h0l.08,0,.42.15h0l1,.38h0l0,0h0l.08,0,.08,0,.38.15L100,74.9l-1.47-.47h0l-1.78-.55h0l-1.93-.57h0l-2.06-.59Zm1.41-1,1.49.56.25,1.3-1.14-.41h0l-.35-.12Zm1.92.73,1.34.52L97,70.4,96,70h0l-.36-.13Zm1.76.69,1.21.49.25,1.2-.84-.32h0l-.37-.14Zm2.24,2h0l-.38-.14L98.81,70l1.32.55.24,1.15-.94-.37ZM66.61,59.22h0v0l.15,2h0l-.15-2,0,0h0l0,0Zm-.22-.11.15,2h0l-.14-1.87v-.17Zm1,7.56h0l1.43.32h0l1.4.31h0l1.35.31h0l1.32.3h0l1.28.29h0l1.24.29h0l1.21.29h0l1.18.27h0l1.14.28h0L80,69.6h0l1.08.26h0l1.06.26h0l1,.25h0l1,.25h0l1,.25h0l.93.24h0l.91.24h0l.88.23h0l.86.23h0l.84.22h0l.82.22h0l.79.21h0l.78.21h0l.75.2h0l2.11.61h0l1.94.57h0l1.77.54h0l1.63.52h0l1.08.36L99.73,75h0l-1.62-.52h0l-1.78-.54h0l-1.94-.56h0l-2.11-.6h0L90,72.15h0l-2.5-.66h0l-2.73-.7h0l-3-.74h0l-3.26-.79h0L75,68.45h0l-3.82-.87h0l-4.15-.92h0l-.55-.1-.54-.1V66.4Zm23,15.12.1.2-2.35.44L88,82.16ZM88,82l0-.14,2.24-.43.1.2Zm2.48-.43-.11-.21L91,81h0l.25-.14,0,0h0l.11-.06h0l.11-.06,1-.54.14.19ZM88.08,78h0l-.92-.17-1-.16h0l-1-.17h0l-2-.34-.65-4.68.9.2h0l1,.22h0l.32.08h0l.14,0,.14,0,.32.07h0l.94.22h0l.92.21.25.06h0l.13,0h0l.12,0h0l.34.08h0l.87.21h0l.84.2h0l.17,0h0l.12,0h0l.12,0h0l.36.08h0l.8.2h0l.77.19.1,0h0l.12,0,.11,0L93,75l.74,4.11L93.12,79h0l-.78-.15h0l-.8-.15-.83-.15h0l-.85-.15h0L89,78.19h0Zm.5,2.39-1.06-.15h0l-1.21-.18-.29-2,2.26.38ZM82.11,77h0L81,76.83h0l-1.13-.19-1.17-.18h0l-1.21-.2h0l-1.24-.19h0l-2.59-.41h0l-2.74-.42h0l-2.84-.43-.4-5.41,1.32.26h0l1.41.28h0l.74.15h0l.2.05h0l.2,0h0l.18,0,1.33.27h0l1.29.27h0l.62.13h0l.18,0,.19,0,.23,0h0l1.22.26h0l1.18.25h0l.47.1h0l.17,0,.17,0,.31.07h0l1.12.24h0l1.09.23h0l.4.09h0l.16,0,.15,0,.24,0,.65,4.7Zm.62,2.59-1.4-.19h0L80,79.22l-.27-2.12,2.78.44ZM79.5,76.93h0v0Zm-.13,2.21-1.57-.21h0l-.82-.1-.6-.09-.24-2.2,3,.46Zm-7.56-3.4h0l.23,2.46h0l-.22-2.44Zm0,2.41-3.65-.45L68,75.31l3.62.54Zm.2-2.39h0l0,0s0,0,0,0h0l.22,2.37h0Zm.22.18,3.3.5.24,2.23-3.33-.43Zm3.51.41h0L76,78.7h0Zm.2.06h0s0,0,0,0h0v-.07h0l0,0Zm-8.19-1.29h.06a.05.05,0,0,0,0,0s0,0,0,0h0L68,77.68h0Zm0,2.53h-.05l-.19-2.53s0,0,0,0v0h.06Zm-.17-8.45h-.06l-.16-2.12,3.51.77.19,2-.63-.12h0L69,69.49h0Zm3.72-1.36h0v0h0L71.5,70h0l-.2-2.19h0l0,0Zm.19.14,3.21.73.21,2-.49-.1h0l-1.29-.27h0L71.81,70l-.12,0Zm-.19,2h0l-.2-2.19h0Zm3.8-1.28h0l0,0Zm.2.19,2.89.67.23,1.9-.34-.07h0l-1.18-.25h0l-1.22-.26h0l-.17,0Zm3.46.81,2.71.64.25,1.83-.27,0h0l-1.09-.24h0l-1.12-.24h0L79,71.54Zm3.25.78,2.44.6.26,1.77-.19,0h0l-1-.22h0l-1-.23h0l-.24-.06Zm3.47,7.61.3,2-1.22-.17h0l-1-.15h0l-.24,0-.28-2ZM85,71.17l2.23.56.27,1.71-.12,0h0l-.91-.21h0l-1-.22h0l-.26,0Zm2.73.69,2,.53L90,74h0l-.84-.2h0l-.87-.21h0L88,73.56Zm2.5.66L92,73l.28,1.58-.73-.18h0l-.8-.19h0l-.3-.08Zm2.29.63,1.66.46.28,1.53-1.33-.34h0l-.33-.09Zm2.81,6.66.13.7-1.69-.34-.12-.68Zm-2,.27-.76-.16h0s0,0,0,0h0l-.92.52-.23-1.39,1.85.34ZM90.83,79l.29,1.72-.16.1-1.6-.24h0l-.28,0-.3-1.9Zm1.89,1.51.13.2-2.24,1.25-.1-.2Zm.08-.2-.08-.13.66.13h.05l.12,0h0l.11,0h0l1.88.37h0l.1,0,.1,0,1.72.34h0l.09,0h0l.09,0h0l1.56.31h0l.09,0h.08l1.42.29h.16l.05.07Zm3-.39,1.51.3.14.71-1.52-.3Zm1.94.39,1.36.28.15.7L97.84,81Zm1.78.36,1.22.26.14.69-1.22-.24Zm.27-.37h0L98,79.89h0l-2-.39h0l-2.08-.4L93.21,75l1.32.34h0l.1,0,.1,0,.41.11,1.3.34h0l.1,0h0l.09,0,.41.11h0l1.14.31h0l0,0h0l.08,0h0l.09,0h0l.42.12h0l1,.28,0,0h0l.07,0h0l.08,0h0l.38.11.76,3.62ZM94.6,73.74l1.51.44.28,1.47-1.15-.31h0l-.35-.09Zm1.94.57,1.35.41.28,1.41-1-.28h0l-.36-.09Zm1.77.54,1.21.38.28,1.36L99,76.34h0l-.37-.1Zm2.27,2h0l-.37-.11-.28-1.34,1.32.42.28,1.31-1-.28Zm-33.4-9.88h0l.16,2.19h0l-.16-2.29,0,0,0,0Zm-.05,2.18h0l-.17-2.27h0Zm-.4-2.17.15,2.13-1-.18L66,66.8Zm.78,10.68-.4,0h0l-.79-.08h0l-.82-.07h0l-.83-.08-.15-2.45,2.81.33Zm-3.18-2.85h0l.16,2.55h-.07l-.15-2.63h.09s0,0,0,.05Zm-.3,0h0s0,0,0,0h.07l.16,2.64h-.06L64,74.74h0Zm0,2.56-.73,0h0l-1-.06h0l-1,0h-.2L61,74.66l2.86.17Zm-3.23-2.75h0l.12,2.6h-.06l-.12-2.65h.08s0,0,0,0v0Zm-.27,0h0a.08.08,0,0,0,0,0h0l.12,2.66h0l-.11-2.58h0Zm-3.73-.23,1.58,0,1.8,0h0l-1.09,0h0l-1,0h-.51l-.34,0-.4,0-.37,0h0l-.58.1h-.07v-.15Zm3.66,2.83h-.14l-1.84,0H58l-.08-2.45h2.38Zm-2.74-2.59h0l.08,2.56h0l-.09-2.63h.05v0h0Zm-.27,2.58-.57,0h0l-.92.06-.05-2.32,1.47-.18Zm10.9.79,1.37.17h0l2.46.31h0l1.76.23h0l2.19.28h0L77,79l.81.1h0l1.69.23h0l.18,0,.17,0h0l1.46.2h0l1.52.21h0l.16,0,.16,0,.24,0,.51,3.69-3.26-.3h0l-2.42-.22h0l-3.91-.35h0L73,82.58h0l-4.33-.37Zm16.39,6.67L84.9,86l-3.55-.25-.18-1.45Zm-.58-1-.51-3.68.92.13h0l1.34.19h.05l.14,0h0l.15,0,1.28.18h0l1.18.17h0l.13,0,.13,0h0l.34,0h0l1.37.2-.53.3-2.4.45-1.11.15a.09.09,0,0,0-.08.1.08.08,0,0,0,.09.08h0l1-.13,0,.14-1.06.17a.09.09,0,0,0-.08.1.09.09,0,0,0,.09.08h0l1.08-.18.08.26-1.13.15a.08.08,0,0,0-.08.1.09.09,0,0,0,.09.08h0L88,82.62l6.55,1,.19,1.08-.64-.07h0l-1.6-.17-.84-.09h0L89,84.07h0l-2.9-.28h0Zm4.46-1.07,2-.37,8.37,1.35-1.74.29ZM90.85,82,93,80.81l8.39,1.59-.11.06-.06,0-1.73.91ZM93,80.63,93,80.5l8.4,1.63h0l.06.09Zm8.61-4.72,1.22.39.28,1.26-1.23-.36Zm1.5.33.26,0,.34,1.52-.29-.09Zm.8,1.55-.35-1.54.24.08.35,1.53ZM103.51,76,100.24,75l-.72-3.41,1,.36h0l0,0h0l.07,0,.08,0,1.42.56h0l.07,0,.48.19.4.15.46,2,.26,1.14ZM102,71.15l.24,0,.32,1.43-.28-.11Zm.77,1.48-.33-1.46.24.1.32,1.45Zm-.42-1.7-3.27-1.38-.68-3.24.92.44.05,0h0l.07,0h0l.08,0,1.42.68,0,0h0l.07,0h0l.48.23L102,68l.46,2.09.22,1Zm-.69-3.25-.3-1.38.23.12.3,1.37Zm-.39-1.63L98,64.38l-.65-3.08.92.52h0l0,0h0l.07,0h0l.07,0h0l1.43.81h0l0,0h0l.06,0h0l.49.28.41.23.47,2.12.18.77Zm-.66-3.12-.29-1.3.22.13.29,1.29Zm-.38-1.56L97,59.44l-.61-2.93.9.58,0,0h0l.07,0h0l.08.05h0l1.42.91h0l0,0h0l.06,0h0l.49.31.41.26.48,2.16.14.6Zm-2.82-5,1.2.78.16.73-1.2-.78Zm1.48.76.22-.05.26,1.18-.27-.17Zm.7,1.27-.27-1.22.22.14.27,1.22Zm-4.3-6.74h0l-.39-.27-.14-.66,1.29.94.13.62Zm-6.71-1.26,2,1.19h0l1.88,1.14h0l1.74,1.09h0l1.59,1h0L99,56.9l-.15,0-1.57-1-1.71-1.13h0l-1.59-1h0l-1.73-1.08h0l-1.88-1.13h0l-2-1.18h0L86.1,49.12h0l-2.38-1.3h0l-2.56-1.35h0l-1.89-1,.21-.08.14.07.92.48h0l.9.47h0l.88.47h0l.85.45h0l.84.45h0l.81.45h0l.8.43h0l.77.43h0l.76.42h0l.74.42h0l.72.41Zm-7.73-3.72L81,47.73l-.15-.07h0L80,47.19h0l-1-.47h0l-.23-.12-.12-.88.24-.09Zm-2,.21.5,3.66-.84-.38h0l-1-.45h0l-1-.46h0l-1.08-.47h0l-1.1-.48h0l-.84-.36,1.17-.42h0l0,0h0l3.11-1.13.16.07h0l.37.18h0l0,0h0l.15.07.14.07ZM64.77,44.71l3-1.19h0a.08.08,0,0,0,0,0h0l.85-2.1v0s0,0,0,0h0a.12.12,0,0,0,0,0H68.5l-1.35.57L66.43,40h0l0,0,0,0s0,0,0,0,0,0,0,0h0l-5.76,2.51L56.4,40.19l3.05-1.43h0l0,0,1.16-2.17h0a.08.08,0,0,0,0,0v0h0l0,0s0,0,0,0h-.09l-1.6.77L58,34.87h0l0,0,0,0h-.08l-5.89,3-5.74-3.1L49.38,33s0,0,0,0h0L51,30.72v0a0,0,0,0,0,0,0v0h0s0,0,0,0a0,0,0,0,1,0,0h-.1L49,31.69l-1.19-3h0s0,0,0,0l0,0h-.08L41.7,32.25l-8-4.32,3.12-2.21h0L39.1,23.5a0,0,0,0,1,0,0v0a0,0,0,0,0,0,0v0H39s0,0,0,0h0L36.65,25l-1.6-4.09h0s0,0,0,0,0,0,0,0h0a0,0,0,0,0,0,0h0L29,25.4,18.38,19.64,24,14.34l0,0v0a0,0,0,0,0,0,0v0h0l0,0h-.06L20.8,16.28l-2-5.23s0,0,0,0h-.13l-5.52,5.76-.39-.21,6-6.37L75,44.82l-1.18.45-.41-1,0,0,0,0h-.07l-5.6,2.13Zm2.74,1.69L66.07,47h0l-3-1.56,1.48-.6Zm.18-3.21L67.22,42l1.15-.48Zm-7.37-.67-1.49.65h0L54.66,41l1.54-.72Zm-.89-4.06L59,37.37l1.37-.65Zm-7.63-.55-1.53.78a0,0,0,0,0,0,0l-5.75-3,1.57-.88Zm-2.44-5.23L49,31.86l1.58-.9Zm-7.84-.32-1.56,1h0l-8-4.16,1.57-1.11Zm-4.8-7.16,1.44-1-1.33,1.32Zm-7.84.32-1.55,1.19h0l-10.6-5.53,1.51-1.42ZM13,16.91l-1.47,1.53h0l-.37-.19,1.45-1.55Zm62.27,28,.69.42-.67.25.06-.19v-.06h0s0,0,0,0l0,0h0s0,0,0,0L74,45.73l-.11-.29Zm.89.54.7.43L75,46.6l.24-.77Zm-1,.06-.06.19-.3,1-.12.41-.49-1.24Zm3,.7h0l.2-.07,0,.17ZM17.21,7.79l.17-1,1,.65,59.7,37.84.09.53v.06Zm48.88,43-.22-.1.21-.08ZM4.43,57.3h0v0l0,0L8.9,40.47l.38-.18L4.63,58-3.52,63l.25-.87Zm.29.89,58,13.32-6.9,1.54-.11,0a.09.09,0,0,0-.07.11.1.1,0,0,0,.09.07h0l0,.51-.05.51,0,.33-.12,1.27,0,.46-.08,1L54.94,82l-.06.75-.12,1.3h0v.07h0l0,.22-.13,1.46,0,.19-.27,3-1.85,0,.27-2.86,0-.19.13-1.43,0-.51V83.9l.13-1.35.67-7.15.09-.94,0-.24.06-.62,0-.23a.09.09,0,0,0-.08-.1.1.1,0,0,0-.1.08v.16L47.6,74.88,48,71.75a.09.09,0,0,0-.08-.11.09.09,0,0,0-.1.08L47.41,75l-.07.6,0,.19,0,.17,0,.2-.16,1.41,0,.2-.16,1.42,0,.2-.16,1.44,0,.2-.17,1.45v.1l-.1.84h0v0h0l0,.32v.07l-.12,1.06-.16,1.35,0,.18-.27,2.35-2,0,.26-2.16,0-.18.16-1.33.12-1V84l0-.31h0v0h0l.1-.81v-.11l.18-1.42h0l0-.2h0l.17-1.4,0-.2.17-1.39,0-.2.16-1.38h0l0-.2h0l0-.17h0v0h0l.07-.59.44-3.66a.09.09,0,0,0-.08-.1.1.1,0,0,0-.1.08l-.43,3.59-7.69,1.72,1.05-7.2a.09.09,0,0,0-.08-.1.09.09,0,0,0-.11.07l-1.06,7.33-.08.56-.06.44h0l-.12.83-.06.42-.2,1.33h0l0,.13h0l-.18,1.27,0,.21,0,.26,0,.31-.07.48h0l-.06.41h0l0,.31h0v0h0l0,.29h0v.07l-.14,1L36,86.78h0l0,.16-.23,1.54-2.21-.06.09-.6.07-.48.12-.78h0l.07-.46,0-.18,0-.18v-.1L34,85l0-.22,0-.16,0-.24,0-.29,0-.08,0-.22.1-.67.12-.78.09-.56.06-.4,0-.19,0-.26,0-.22,0-.14.08-.5,0-.28.08-.54.13-.86.09-.55L36.31,70a.1.1,0,0,0-.19,0L35,77.71,32,78.36l-1.71.38-.16,0-4.69-.5,1.89-10.37a.09.09,0,0,0-.18,0L25.28,78.28l-1.27,7-.52,2.87L21,88.06l.56-2.9L22.92,78l1.95-10.25a.09.09,0,0,0-.07-.11.11.11,0,0,0-.11.08L22.76,77.93,11.12,76.67l2.61-11.46s0-.09-.07-.11a.08.08,0,0,0-.1.07L10.92,76.73,9.15,84.49,8.41,87.7l-2.87-.08.77-3.25,1.88-7.91,2.69-11.32a.09.09,0,0,0-.18,0L8,76.34l-14.92-1.6,3.3-11.52ZM49,83.49v-1.2l3.91.34-.11,1.16Zm2,5.43-.92,0v-5.1h.36l.33,0,.21,0v5.08ZM48.2,86.24l1.63-.09h0Zm1.63.1v2.55L46,88.78l.25-2.26Zm-3.51-.18L46.45,85l3.38-.22V86Zm.15-1.36.1-.87,2.37-.18.89.07v.76Zm4.68-9.92,2.51-.55v.12l-.08.84Zm2.41.59-.66,7L49,82.11l0-6.76L50.67,75Zm-2.91-.67-1.75.38h0l-.08,0h0l-.52.11-.77.17,0-.4,6.15-1.38,0,.43Zm-2.29,8.5h0v-.86l0-6.79v-.17l.34-.08,0,8.08-.35,0V83.3Zm-.13-7.78v0h0l-.7.1h0Zm-.1.43h0l-.66.1v0Zm0,.2v1.2l-.81.11.14-1.21Zm0,1.39v0l-.83.1h0Zm0,.2V79l-1,.11.14-1.23Zm0,1.41v0l-1,.12v0Zm0,.21V80.6l-1.15.12.14-1.24Zm0,1.43v0l-1.18.12v0Zm0,.21v1.26l-1.33.12.14-1.26Zm.09,1.54h0v.66h0l-1.52.12.07-.65Zm0,.84h0v.17l-1.57.12,0-.17Zm4.58.68,0,.33-1.62.11v-.58Zm0,.52-.12,1.24-1.47.08V84.68ZM52.57,86h0l-1.46.07h0Zm0,.19L52.29,89l-1.17,0V86.28Zm-13,.31.05-1.08h.06l0,1.08Zm.05.35-.07,1.73h-.07l.08-1.72Zm-.1-1.61,0,0h0a0,0,0,0,1,0,0s0,0,0,0h0l0,0h0l-3,.2.11-.77.25,0,.11,0h0a.1.1,0,0,0,.08-.06s0,0,0,0l2.79-.21h0l0,.79Zm-.07,1.44h-.05a0,0,0,0,1,0,0h0v0l0,0h0l0,0a0,0,0,0,0,0,0,0,0,0,0,1,0,0l0,0Zm-3.29,0,.15-1,3-.2,0,1.08Zm3.06.19-.07,1.7-3.25-.09L36.12,87ZM36.6,84h0a0,0,0,0,1,0,0l.36-.24s0,0,0,0,0,.06,0,.07l.06,0h0l.32.13h0a.08.08,0,0,0,.08-.06.09.09,0,0,0,0-.12l-.32-.13h0l-.06,0h0a.09.09,0,0,0,0-.1h.19s0,0,.06,0l0,0h.17l0,0,.06,0a.11.11,0,0,0,.07,0,0,0,0,0,1,0,0L42,83.08h.18l.59-.06,1.6-.13-.08.63-2.15.17h-.18l-4.7.37h0L37,84h0l-.06,0a.09.09,0,0,0-.12,0,.08.08,0,0,0,0,.09l-.3,0v-.05Zm0-.23v-.06l0,0Zm.09-.44v0h0l0,0h0Zm.18-.75h0a.09.09,0,0,0,.05.12l.06,0h0l-.07,0h0l-.17-.08,0,0h0l0-.13Zm0-.43v-.06l0,0h0l0,0s0,0,0,.05S36.83,82.17,36.82,82.17Zm.46-2.63,0,.78v.19h0l0,.34a.05.05,0,0,0,0,0,.1.1,0,0,0-.09,0l0,0,0,0,.15-1.08Zm0-.25v0h0Zm5.63,2v0l1.67-.17v0Zm1.65,0-.15,1.23-1.54.13,0-1.2Zm-1.64-.22,0-1.18,1.8-.21L44.57,81Zm0-1.37h0l1.82-.21h0Zm0-.19,0-1.16,1.95-.26-.15,1.2Zm0-1.35h0l2-.26h0ZM43,78l0-1.15,2.1-.3L45,77.77Zm0-1.34h0l2.11-.31h0Zm1.76-.61-2,.43-.49.1-.17,0-2.27.5-1.74.38-.6.13-.07,0,.05-.37,7.69-1.71,0,.39Zm-1.94.61v.11l0,1.33v.19l0,1.35v.19l0,1.37v.2l0,1.38v0l-.41,0,.19-6.08ZM39.2,78.54a.08.08,0,0,0,0,0l-.34-.14-.06,0a.1.1,0,0,0-.12,0,.11.11,0,0,0,0,.12l.06,0,.13,0h-.09a.08.08,0,0,0-.07.07l-.08-.07,0,0a.09.09,0,0,0-.13,0,.07.07,0,0,0,0,.07l-.14,0a0,0,0,0,0,0,0,.09.09,0,0,0,0-.12l-.1,0a0,0,0,0,0,0,0s0,0,0,0h0a.06.06,0,0,0,0,0l.05.05a.09.09,0,0,0,.07,0,.09.09,0,0,0,.06,0,.09.09,0,0,0,0-.13l-.18-.18,0,0a.09.09,0,0,0-.13,0,.1.1,0,0,0,0,.13l0,0h0l0,0,0,0h0l-.24-.1h0l-.06,0h0a.09.09,0,0,0-.05-.11l-.2-.08a.05.05,0,0,0,0,0v-.08h.11L38,78h0a.09.09,0,0,0,.08-.06,0,0,0,0,0,0,0l0,0,.13.14.07,0,.06,0h0l.07.07.06,0,.07,0a.1.1,0,0,0,0-.13l-.18-.18h0l0,0a.09.09,0,0,0-.13,0h0v0h0a.08.08,0,0,0,0-.1h.09a.09.09,0,0,0,0,.12l.06,0h0l.34.14h0a.08.08,0,0,0,.05.1l.06,0h0l.33.14h0a.09.09,0,0,0,0-.17L39,78h0L39,78h0a.08.08,0,0,0-.05-.1l-.34-.14h0l-.05,0h-.07a.08.08,0,0,0,0-.07l.32-.08a.11.11,0,0,0,0,.12l.06,0h0l.34.14h0a.1.1,0,0,0,.08,0,0,0,0,0,0,0,0l0,0,.17.17a.09.09,0,0,0,.07,0l.06,0a.09.09,0,0,0,0-.13l-.17-.18,0,0h0a.08.08,0,0,0,0-.1h.06a.08.08,0,0,0,.08,0,.09.09,0,0,0,0-.12l-.06,0,.41-.09L42.06,77l0,1.13ZM42,78.35h0l-2.55.34Zm-3.43.45h-.05l0,0Zm-.14,0h0Zm-.26-.15-.14,0,0-.06h0l0,0Zm-.42-.2a.06.06,0,0,0-.05,0,.08.08,0,0,0,0,.05l-.06,0-.06,0h-.06v-.18a.14.14,0,0,0,0-.06.08.08,0,0,0,0-.06l.12,0h0a.09.09,0,0,0,.05.11l0,0h0s0,0,0,0A.09.09,0,0,0,37.77,78.47Zm-.18.22a.08.08,0,0,0-.08,0v-.08h0l.06,0Zm.29-.91.17,0a.08.08,0,0,0,0,0l.08.09h0a0,0,0,0,0,0,0s0,0-.06,0h0Zm1.37-.16.08.09h0a0,0,0,0,0,0,0,.08.08,0,0,0,0,0L39,77.59s0,0,0,0l.22,0h0A.09.09,0,0,0,39.25,77.62Zm-1.77,1.67a0,0,0,0,0,0,0l0,0,.14.14a.11.11,0,0,0,.07,0,.07.07,0,0,0,.06,0,.09.09,0,0,0,0-.13l-.15-.14.73-.1.26.11h0a.1.1,0,0,0,.09-.06.07.07,0,0,0,0-.1L42,78.54l0,1.15L39.59,80a.08.08,0,0,0,0-.12l-.17-.17h0l0,0h0a.08.08,0,0,0,0-.09h0a.11.11,0,0,0,.09,0,.1.1,0,0,0-.05-.12l-.33-.14h0l-.06,0a.09.09,0,0,0-.12.05.09.09,0,0,0,0,.12l.06,0h0l.07,0a.09.09,0,0,0,0,.11l.08.07h0a0,0,0,0,0,0,0,.08.08,0,0,0,0,0l-.27-.11a.14.14,0,0,0,0-.07h0l0,0a.1.1,0,0,0-.13,0,.11.11,0,0,0,0,.08s0,0,0,0a.1.1,0,0,0,0,.12l.06,0h0l.33.14h0a.1.1,0,0,0,.08,0h0l0,0h0l.17.17h0l-.27,0a.07.07,0,0,0-.06,0L39,80l-.06,0h0a.09.09,0,0,0,0-.1l-.33-.14-.06,0a.09.09,0,0,0-.12,0,.07.07,0,0,0,0,.1.1.1,0,0,0-.13,0,.09.09,0,0,0,0,.13h0v.08a.09.09,0,0,0,.07.09l0,0-.1-.1h0l0,0A.09.09,0,0,0,38,80a.11.11,0,0,0,0,.13h0l-.57.07Zm2.39,2.16h0l-.19-.08-.06,0a.1.1,0,0,0-.12.05.08.08,0,0,0,0,.09l-.37,0-.33-.14-.06,0a.1.1,0,0,0-.12,0,.11.11,0,0,0,0,.08s0,0,0,0a.11.11,0,0,0,0,.08l-.47,0a.09.09,0,0,0-.08.09l-.09-.09,0,0,1-.39h0l0,0h0l.17.17a.09.09,0,0,0,.07,0,.09.09,0,0,0,.06,0,.09.09,0,0,0,0-.13l-.15-.15.1,0,.13.13a.11.11,0,0,0,.07,0,.07.07,0,0,0,.06,0,.09.09,0,0,0,0-.13l-.17-.17h0l0,0,.34.14h0a.09.09,0,0,0,0,.11l.06,0h0l.33.14h0a.08.08,0,0,0,.08-.06.1.1,0,0,0,0-.12l-.34-.14h0l0,0a.09.09,0,0,0-.05-.11l-.33-.14-.06,0a.09.09,0,0,0-.12,0,.08.08,0,0,0,0,.1.11.11,0,0,0-.13,0,.06.06,0,0,0,0,0L38,81.37h0l-.1,0,0,0,.34-.38.32.14h0a.09.09,0,0,0,0-.17l-.29-.12,0-.29h0a.1.1,0,0,0,0,.13l0,0h0l.18.17s0,0,.06,0l.07,0a.1.1,0,0,0,0-.13l-.18-.17,0,0s0,0,0,0l.14,0,0,0h0l.33.14h0a.08.08,0,0,0,.08-.06.09.09,0,0,0,0-.12l-.08,0,.91-.11a.12.12,0,0,0,0,0,.1.1,0,0,0,0,.12l.06,0,.08,0a.09.09,0,0,0,0,.11l.07.07h0l0,0,0,0-.27-.11a.11.11,0,0,0,0-.08h0l0,0a.09.09,0,0,0-.13,0,.06.06,0,0,0,0,.08l0,0a.09.09,0,0,0,.05.12l.06,0,.33.14h0a.08.08,0,0,0,.08,0h0l0,0,.17.17a.07.07,0,0,0,.06,0,.11.11,0,0,0,.07,0,.1.1,0,0,0,0-.13l-.17-.17,0,0h0a.06.06,0,0,0,0-.08h.06a.09.09,0,0,0,0-.17l-.33-.14-.06,0h0l2-.23,0,1.17Zm2.05,0h0L40,81.62h0Zm-2.1.23h-.18s0,0-.06,0l0,0,.25,0Zm-.5,0-.41,0h0l.4,0Zm-.51-.1v0l-.05,0Zm-.1.18,0,0-.14-.06h.08l0,0Zm-.36,0h0l-.27,0h0Zm.42-1.72-.18,0s0,0,0,0l-.17-.17h0l.06,0,.33.14h0A0,0,0,0,0,38.77,80.07Zm.12.17a.09.09,0,0,0,.06-.06l.1,0-.65.08h0Zm.44,0h0L42,79.88h0Zm-1.14.13-.16,0h0a.09.09,0,0,0,.08-.1Zm-.51.25,0,0,.17.17a.09.09,0,0,0,.07,0,.09.09,0,0,0,.06,0,.09.09,0,0,0,0-.13l-.1-.09H38l.2.09h0v.11l0,0h0L38,81s0,0,0,0a.09.09,0,0,0,0-.12l-.33-.14-.06,0a.09.09,0,0,0-.07.17l.06,0,.33.14h0l0,0-.19.21a.09.09,0,0,0,0,.09l0,0a.07.07,0,0,0,0-.1L37.59,81l0,0a.09.09,0,0,0-.13,0,0,0,0,0,0,0,0l0,0h0l0-.37ZM37.53,82l-.05,0a.08.08,0,0,0,0-.07h0l.3,0a.09.09,0,0,0,.08-.09l.07.07-.25,0a.09.09,0,0,0-.08.1A0,0,0,0,0,37.53,82Zm-.11-.76a.07.07,0,0,0,.06,0l0,0,0,0,0,0a.09.09,0,0,0,.05.12l.06,0h0l-.09.09a.09.09,0,0,0,0,0l-.09,0a.12.12,0,0,0,0-.08h0v-.2A.05.05,0,0,0,37.42,81.23Zm.26,1h0a.09.09,0,0,0,0-.17l-.09,0,.2,0a.09.09,0,0,0,0,.06l0,0h0l.18.17s0,0,.06,0l.07,0v0h0a.07.07,0,0,0,.06,0l.07,0s0,0,0,0l.14.13a.09.09,0,0,0,.06,0,.09.09,0,0,0,.07,0,.09.09,0,0,0,0-.13l-.18-.17,0,0a.1.1,0,0,0-.13,0,0,0,0,0,1,0,0L38.21,82l.24,0s0,0,0,0l.29.13h0a.11.11,0,0,0,.09,0,.1.1,0,0,0,0-.1H39s0,0,.05.06l.06,0,.33.14h0a.09.09,0,0,0,0-.17l-.21-.09.13,0h0l0,0a.07.07,0,0,0,.06,0l.07,0s0,0,0,0h0l2.26-.23,0,1.19-4.1.35a.07.07,0,0,0-.05-.09l-.32-.14,0,0h-.07v0l.05,0h0a.08.08,0,0,0,.08-.06s0,0,0-.08l.25-.12a.08.08,0,0,0,0-.1.09.09,0,0,0,0-.11l-.18-.17h0l0,0a.09.09,0,0,0-.13,0,.06.06,0,0,0,0,0l0,0-.2-.08.09-.1h0l0,0,.06,0Zm-.4.91a.06.06,0,0,0,0-.06v0h0l.06,0,.1,0a.11.11,0,0,0,0,0h-.07a.08.08,0,0,0-.07,0l-.06,0A.08.08,0,0,0,37.28,83.17Zm0-.52a.08.08,0,0,0,.07-.08v-.06l.13,0-.13.07,0,0ZM37,81.36a.09.09,0,0,0,.07,0,.07.07,0,0,0,.06,0,.09.09,0,0,0,0-.13l-.1-.1,0,0,.09.08,0,.28h0a.08.08,0,0,0,0,.08l0,0v.16L37,81.68h0l0,0,0-.27,0,0v0Zm.08.57-.06.07-.14-.14v0h0Zm0,.5v.11l-.07-.06h0l0,0a.1.1,0,0,0-.09,0l0,0L37,82.3l0,0a.1.1,0,0,0,.05.1Zm-.15.89h0a.09.09,0,0,0,0-.06l-.11-.1.06-.08.12,0a0,0,0,0,0,0,0,0,0,0,0,0,0,0A.1.1,0,0,0,37,83.32Zm-.4,1h0a.06.06,0,0,0,.06,0h.06l.12.11h-.15l0,0h0l-.06,0h0l0,0s0,0,0,0v-.07Zm.44.07a.08.08,0,0,0,0-.08l-.06,0,.24,0,0,0h.06a.1.1,0,0,0,.09-.06l4.57-.36.2,0h0l.06,0h.12a.09.09,0,0,0,.07,0l1.84-.15,0,.16Zm2.79,2.37V86.6l0-1.27,0-.79h.31l.33,0,.23,0,0,.68,0,1.28v.17l-.07,1.92-.89,0Zm.79-2.39,3.59-.27-.11.85-3.14.2,0-.65a0,0,0,0,0,0,0s0,0,0,0l0,0h0l-.08,0h0Zm3.46.76-.14,1.14-3,.16,0-1.09ZM40.88,86.8l3-.16-.25,2.07-2.81-.08ZM33,86.52h0l-.05.77h0l-.07,1.1-9.2-.26.51-2.77,5.42.29,3.44.17V86l0,.35h0v.13Zm1.64-7.36,0,0v0h0v0a.07.07,0,0,0,0,.07h0A.08.08,0,0,0,34.63,79.16Zm.07-.28a.06.06,0,0,0-.05-.07l-.1,0a.08.08,0,0,0,0-.05h0s0,0,0,0a.08.08,0,0,0,0-.08h0l.13,0h0a.08.08,0,0,0,.08-.06.09.09,0,0,0-.05-.12h0l.09,0-.06.37a.12.12,0,0,0-.05.05Zm-.15,1.48v0h0s0,0,0,0l0,0v0l.07,0h0A.08.08,0,0,0,34.55,80.36Zm-.07-.31a.08.08,0,0,0,0,0v0h0l.07.06v0Zm0-.35h0s0,0,0,0h0l0,0h0Zm.08-.18h0Zm-.13-1.17-.29.07-.13,0h0l-.27,0-.13,0-1-.11,2.31-.52-.05.36Zm0,3.12v0l0,0,0,0h0l0-.16h0l0,0,0,0v0l0,0A.09.09,0,0,0,34.38,81.47Zm-.16.29a.08.08,0,0,0,.05-.07s0,0,0,0l.06.06s0,0,0,0l0,.11h0A.09.09,0,0,0,34.22,81.76Zm-.21.35a.11.11,0,0,0-.09,0h-.08V82a0,0,0,0,0,0-.05v0l.24.11v0a.09.09,0,0,0,.09.09h0l0,0h0Zm.12,1Zm-.05.21a0,0,0,0,0,0,0l0,0h0l0,.13h0A.08.08,0,0,0,34.08,83.36Zm-.15-.72a.09.09,0,0,0,0-.09l-.1-.1h0l0,0,0,0,.12.12s0,0,0,0v.07Zm.14.91v0h0S34.06,83.55,34.07,83.55Zm-.17.25a.06.06,0,0,0,0,0h0a.08.08,0,0,0,0-.07S33.89,83.79,33.9,83.8Zm0-.14h0Zm-.2,1.93h.08v.1l0,0v.18l0,.1,0,0-.11,0v0h0a.09.09,0,0,0,0-.13h0l0-.32V85.4s0,0,0,0l.06,0,.15-.14a0,0,0,0,0,0,0v0l0,.15s0,0,0,0l-.12,0a.1.1,0,0,0,0,.12A.1.1,0,0,0,33.68,85.59Zm-.28-1.47h0l0,0V84a.07.07,0,0,0,0,.06l0,0h0l.05,0s0,0,0,0v0s0,0,0,0a.14.14,0,0,0-.09,0A.08.08,0,0,0,33.4,84.12Zm0,.16h0Zm0,.91a.09.09,0,0,0-.12,0,0,0,0,0,1,0,0h0s0,0,0,0l-.08,0h0l0,0,0-.11h0A.09.09,0,0,0,33.2,85l.19.08h0v.08Zm-.12.66h0l-.05,0v-.08h0s0,0,0,0v0l.07-.06h0a.09.09,0,0,0,0,.13l0,0h0l.06.06v0Zm.08.3,0,.21-.07,0,0-.12v-.08Zm-3.38-1,.2,0,1.25.29.68.15-2.39-.12,0-.42Zm-.22-.24h0Zm.39-1.52L30,83.28a.1.1,0,0,0,0-.1h0l0-.34H30l0,0h0l.14.12h0l-.06,0A.09.09,0,0,0,30,83a.09.09,0,0,0,.05.12l.05,0h0l.13.06s0,0,0,.06,0,0,0,0a.09.09,0,0,0,0,.13l0,0h0a.07.07,0,0,0,0,.06l0,0a.07.07,0,0,0,.06,0h0l0,0a.08.08,0,0,0,0,.12v0a.08.08,0,0,0,0,.1l0,0h0l0,0s0,0,0,0h0l-.26,0-.31-.13h0l0-.26.19.09h0a.09.09,0,0,0,.08,0A.09.09,0,0,0,30.14,83.35Zm-.2-.71v0l0,0Zm.23-.9h0l.14.06a.09.09,0,0,0,0,.12l-.05,0s0,0-.05.06a.09.09,0,0,0-.08.05.09.09,0,0,0,.05.12l.06,0,.11,0h0l.06,0,.21.09a.07.07,0,0,0,0,.05l-.41,0h0l-.12-.05a.08.08,0,0,0,.08-.06.09.09,0,0,0,0-.12l-.12,0,0-.52s0,0,0,0l0,0h0A.1.1,0,0,0,30.17,81.74Zm.17-.71h0a.08.08,0,0,0-.09,0H30.2a.11.11,0,0,0,0-.08.1.1,0,0,0-.05,0l.2-.1h0l0,0,0,0A.1.1,0,0,0,30.34,81Zm0,.44h0l-.06-.06h0l0,0Zm.19.12.07,0a.08.08,0,0,0,.05-.08h0l.12,0s0,0,0,0h0s0,0,0,0a.09.09,0,0,0,0,.12l.06,0,.13.06h0a.1.1,0,0,0,.08,0h0l.09,0h.08v0l0,0-.17.07a.09.09,0,0,0-.05.12.08.08,0,0,0,.08.06h0l.14,0a.08.08,0,0,0,0,.11.1.1,0,0,0,.08,0h0l.06,0h0l-.05,0a.09.09,0,0,0,0,.13l0,0a.09.09,0,0,0,.06,0,.08.08,0,0,0,.07,0h0a.15.15,0,0,0,0-.07l0,0h0a.09.09,0,0,0-.05.12h0l-.09,0h0l-.12,0h0l-.05,0h0l-.06,0a.09.09,0,0,0-.12,0h-.06a.09.09,0,0,0,.05-.12.1.1,0,0,0-.12,0l-.06,0-.14,0a0,0,0,0,0,0,0l-.23-.1h0l.2-.11h0l0,0a.09.09,0,0,0,0-.12.11.11,0,0,0-.13,0s0,0,0,0a.1.1,0,0,0-.12,0l-.06,0h0a.09.09,0,0,0,0,.12s0,0,0,0h0a0,0,0,0,0,0,0l-.08-.09s.05,0,.06,0a.09.09,0,0,0,0-.12l-.08,0Zm0-.2h0s0,0,0,0h0Zm.06-.26.05,0,.06.08Zm.18.09h0a.09.09,0,0,0,.07,0h0l.12,0-.17.07A0,0,0,0,0,30.77,81.22Zm.2.27.12-.06.15.07-.11.06Zm.66-.1h0s0,0,0,0l-.08,0-.25-.12.29,0h0A.08.08,0,0,0,31.63,81.39Zm-.72-1.25,0,0a.07.07,0,0,0,0-.05l.28-.1h0l0,0a.09.09,0,0,0,0,.09.09.09,0,0,0,.07,0l.06,0,.13-.11h0l.07.06h0l-.05,0s0,0,0,.09h0a.07.07,0,0,0-.1,0l-.08,0-.05,0-.07,0h0l-.06,0a.08.08,0,0,0-.1,0l0,0h0Zm.08-.87h0Zm0,.27h0a0,0,0,0,0,0,0h0l.07.12H31A.11.11,0,0,0,31,79.54Zm.08.25,0,0h0Zm.23-.37.05,0s0,0,0,0a.09.09,0,0,0,.07,0h.05l.15-.1,0,0s0,0,0,0h.05s0,0,0,0h0a.08.08,0,0,0-.07.08v.09l-.11.08a0,0,0,0,0,0,0h0l-.18-.08a.09.09,0,0,0-.12,0l-.08-.11h0l.06,0h0v0A.1.1,0,0,0,31.34,79.42Zm0-.38.1,0h0v0l0,0Zm.49,3v0a0,0,0,0,0,0,0s0,0,0,0h0l0,0a.09.09,0,0,0,0,.07h0l-.07,0a.08.08,0,0,0,0,0l0,0A.09.09,0,0,0,31.82,82Zm0-1.78h0a0,0,0,0,0,0,0h0Zm.21-.7,0,0h0Zm.05.23.21.09h0l0,.08v.13l0,0a.09.09,0,0,0,0,.13l0,0h0l-.15.1a.09.09,0,0,0,0,.13.09.09,0,0,0,.08,0h0l0,.24h0V81a.08.08,0,0,0-.12,0l0,0h0l-.07,0h0L32,80.68s0,0,0,0a.07.07,0,0,0,0-.1h0v-.1s0,0,0,0l.19-.07,0,0a.09.09,0,0,0,.06-.12h0a.11.11,0,0,0,0-.12L32.06,80a.08.08,0,0,0-.08-.09h0A.11.11,0,0,0,32.06,79.79Zm0-.73v0l.06.06h0l0,0,0,0Zm.17-.14h0Zm0,.15h0l.11.19-.06-.1h0l0,0S32.25,79.07,32.23,79.07Zm.21,4.85.15-.08h0l0,0a.09.09,0,0,0,.06.06l-.06,0a.09.09,0,0,0,0,.11l-.09,0a.11.11,0,0,0,0,.09l0,0s0,0,0-.06a.08.08,0,0,0,0-.14Zm.21.32-.07,0h0A.08.08,0,0,0,32.65,84.24Zm-.18.12.08.07a.09.09,0,0,0,.06,0,.05.05,0,0,0,0,0h0s0,0,0,0a.09.09,0,0,0-.09,0l-.11,0-.14-.13,0,0a.09.09,0,0,0-.13,0,.08.08,0,0,0,0,.1h0l-.18,0-.28-.12,0,0a.09.09,0,0,0,0-.13h0a.09.09,0,0,0,.07,0v0l.16.14a.07.07,0,0,0,.06,0,.08.08,0,0,0,.07,0s0,0,0,0h0l.09-.05a.15.15,0,0,0,.05.06Zm-.09.38h0l.08,0,0,0-.26,0h0l-.24-.1h.11a.09.09,0,0,0,.08-.1l.08.07a.06.06,0,0,0,0,.06A.08.08,0,0,0,32.38,84.74Zm-1.73.14,0,0h0l-.06,0a.08.08,0,0,0-.1,0h-.2a.06.06,0,0,1,0,0l-.06-.07h.09l0,0,0,0h0l.05,0,1-.07h.21l0,0h.08a.09.09,0,0,0,.09-.09h0l.08,0s0,0,0,0a.06.06,0,0,0,0,.07l-.07,0h0Zm.66.19v.15h0l-.16,0L31,85.12v0Zm-1-2.2-.12-.1s0,0,0,0a.08.08,0,0,0,.07.05h0l.58-.06s0,0,0,.06h0a.09.09,0,0,0,0,.13l0,0,0,0,0,0a0,0,0,0,1,0,0l-.11-.1,0,0a.09.09,0,0,0-.13,0s0,0,0,0l0,0,0,0a.08.08,0,0,0-.12,0,.09.09,0,0,0,0,.13l0,0,.2.18.06,0,0,0,.07,0h0a.08.08,0,0,0,.08-.06s0,0,0,0h0v0l.17.15.06,0a.09.09,0,0,0,.07,0,.09.09,0,0,0,0-.13l-.14-.12,0,0a.08.08,0,0,0,0-.11l0,0h0a.09.09,0,0,0,0,.13l0,0h0l.09.07,0,0s0,0,0,0h0v0a.08.08,0,0,0,0,0,.09.09,0,0,0,0,.11l0,.19s0,0,0,0h0l0,0a.09.09,0,0,0-.13,0,.09.09,0,0,0,0,.11l-.19,0h0l-.24-.11h0l-.06,0a.08.08,0,0,0-.1,0h0a.09.09,0,0,0,0-.1h0a.11.11,0,0,0,.07,0v0l.16.14.06,0a.09.09,0,0,0,.07,0,.09.09,0,0,0,0-.13l-.19-.17h0l0,0a.09.09,0,0,0-.13,0,0,0,0,0,0,0,0h-.05a.11.11,0,0,0,0-.08l0,0h0l0,0s0,0,0,0a.09.09,0,0,0-.05-.12L30.28,83s0,0,0,0A.09.09,0,0,0,30.32,82.87Zm-.17-.24h.1s0,0-.05.06A.08.08,0,0,0,30.15,82.63Zm1.33,1.57h0l.1.11-.12,0-.06,0a.09.09,0,0,0,0-.12l-.22-.1h.15v0l0,0,.13.12h0Zm0-.47Zm-1,.79-.06-.07h0a.1.1,0,0,0,0,0l.19.08h0a.08.08,0,0,0,.08-.06.06.06,0,0,0,0-.06h0l.2.08-.5,0A.09.09,0,0,0,30.49,84.52Zm.39-.22-.07,0h0a.06.06,0,0,0,0,0l-.1-.12,0,0h.07l0,0,.13,0,0,0,.06,0h0l.32.14a.11.11,0,0,0,.05.12l.06,0,.11,0h0l.07,0h-.29a.09.09,0,0,0-.05-.08Zm.56-.57h0Zm0-.91h0l0,0a.11.11,0,0,0-.08,0l-.19-.08h.13l0,0,.1.09.06,0Zm-1,.61h.07s0,0,0,0a0,0,0,1,1-.08,0Zm.07.76,0,0,.1.13a.11.11,0,0,0,.07,0h0l-.14-.06h-.06l0,0h0l-.06,0a.09.09,0,0,0-.1,0l-.09-.11,0,0,0,0h.14a.12.12,0,0,0,.07,0l.08.1a.09.09,0,0,0,.07,0h0S30.49,84.18,30.5,84.19Zm1.36.92-.07,0h0v0h.09s0,0,0,0A0,0,0,0,0,31.86,85.11Zm-.37,0h.07s0,0,0,0l.06,0h0l.28.12h0a0,0,0,0,0,0,0h-.06a.09.09,0,0,0-.09,0l-.06,0h0a.08.08,0,0,0-.08,0l-.13,0h0Zm.22-1.77h.05l0,0-.1,0h0Zm0-2s0,0,0,0h0l.05,0Zm.05,1.48Zm.16-.27,0,0a.13.13,0,0,0,0,.06h0l0,0a.1.1,0,0,0-.11.05h0v-.07s0,0,0,0h0l0,0a.09.09,0,0,0,.07,0h.05Zm0-.3Zm0,1h0l0,0h0l0,0h0Zm-.2.39v0l.1,0h0a.08.08,0,0,0,.08-.06.08.08,0,0,0,0-.09l.05,0a.08.08,0,0,0,0,.1l0,0h0l.1.08v0h0l-.06,0a.11.11,0,0,0-.08,0l-.05,0h0l-.06,0a.09.09,0,0,0-.12,0v0a0,0,0,0,0,0,0l0,0A.14.14,0,0,0,31.7,83.63Zm.49-2.42,0,0h0v0Zm.07.2h0l0,0Zm0,0Zm0,.33h0a.09.09,0,0,0,0,.08l0,0-.1,0Zm0-.43,0,0,0,0A.07.07,0,0,0,32.16,81.28Zm0,.65a.06.06,0,0,0,0,0l.07.07-.07,0h0l0,0a.07.07,0,0,0,0,0L32,81.86l0,0a0,0,0,0,1,0,0ZM32,83.05h.12v.11h0l-.06,0s0,0,0,0L32,83.08s0,0,0,0Zm0,.35.08,0h.07l0,0,0,0h0l0,0a.08.08,0,0,0-.11,0S32,83.42,32,83.4Zm.19.62h0l-.07,0a.08.08,0,0,0,0-.07l.06,0Zm0-1.75h-.12s0,0,0-.06h0l.23.1,0,0-.07,0Zm.12-.17h0ZM32,80.18l-.09,0a0,0,0,0,1,0,0v0a.08.08,0,0,0-.05-.07h0a0,0,0,0,0,0,0Zm-.12,1.08h0l-.06,0h0s0,0,0-.05v0Zm0,.22h0l0,0h0l.06,0s0,0,0,0l0,0-.14.08a.07.07,0,0,0,0,.07h0v0a.21.21,0,0,0,0-.07Zm-.38-1.74h0Zm-.45.62h0l.35.15h0a.08.08,0,0,0,.08-.06.08.08,0,0,0,0-.1l.12-.1h0l0,.19h0l-.05,0s0,0,0,.08l-.1,0h0l-.06,0h0l-.3-.13Zm.6.62h0v0Zm-.14.65-.15.08a.13.13,0,0,0,0,0h0l0,0,0,0Zm-1,.48,0,0h0l-.06,0h0a.09.09,0,0,0,.07,0h0Zm-.53,2h0a.09.09,0,0,0,0,.06h0l-.12-.05Zm-.13.23h0A.08.08,0,0,0,30,84.3s0,0,0,0l.1.11a.08.08,0,0,0,.07,0h0a.09.09,0,0,0,0,.07l0,0,.05.06-.08,0h0l-.13,0h0l0,0a.1.1,0,0,0-.13,0,.1.1,0,0,0,.05.12h0l-.21,0,0-.35Zm.13.58h0l-.09-.11h0s0,0,0,0v0Zm2.06.43h0l0,0s0,0,0,0a.1.1,0,0,0-.05-.12l0,0h.19a.08.08,0,0,0,0,.11l.06,0h0a.33.33,0,0,0,0,.06v0a.08.08,0,0,0-.09,0h0Zm.14-.35.23,0s0,0,0,0l0,0,.19.16a.1.1,0,0,0-.11,0l-.12,0s0,0,0,0l0,0h0s0,0,0,0a0,0,0,0,1,0,0l0,0,0,0-.09,0h-.12Zm.49-.34,0-.06s0,0,0,0h0l0,0h0l0,0A.08.08,0,0,0,32.72,84.67Zm.1.34Zm0,0h0Zm-.29.41v0h0l.15.07h0a.08.08,0,0,0,.08,0s0,0,0,0a.08.08,0,0,0,0,0,.09.09,0,0,0,0-.12l0,0h0a.09.09,0,0,0,.07,0s0,0,0,0h0l0,0h0l0,.17s0,0,0,0l-.06,0a.09.09,0,0,0,0,.12.11.11,0,0,0,.09.06h0v.08l-.51-.12A.21.21,0,0,0,32.5,85.44Zm.39-1.92h0l0,0a.09.09,0,0,0-.13,0,.11.11,0,0,0,0,.12h-.14a.08.08,0,0,0-.07,0h0l-.14.08s0,0,0,0a.09.09,0,0,0,0-.06s0,0,0,0l-.05,0a.09.09,0,0,0,0-.06h0s0,0,0,0h0a.12.12,0,0,0,.05.09l.1,0h0a.11.11,0,0,0,.09-.06.11.11,0,0,0,0-.08.08.08,0,0,0-.05-.11l-.26-.12a.07.07,0,0,0,.06-.07v0a0,0,0,0,0,0,0l0,0s0,.07,0,.08l.06,0h0l0,0a.09.09,0,0,0,.06,0h0l.19.09h.07l.22.09h0a.1.1,0,0,0-.07,0Zm-.51-4.25s0,0,0,0h0Zm.78-.24-.1,0a.14.14,0,0,0,0-.07.08.08,0,0,0,0-.1l-.11-.09h0l.1,0,0,.05,0,0h0l0,0V79A0,0,0,0,1,33.16,79ZM33,79.3H33v.07h-.14l0,0a.14.14,0,0,0,0-.06Zm0,.42a0,0,0,0,0,0,0l0,0Zm-.09.19s0,.06.05.07L33,80h0l.23.1h0a.08.08,0,0,0-.07,0,.09.09,0,0,0,0,.13l0,0,0,0h0l0,0a.09.09,0,0,0-.07,0l-.24-.1-.06,0h0a.08.08,0,0,0,0-.09l0,0,0-.23h0Zm.41,0v0l0,0a0,0,0,0,1,0,0h0Zm0-.67v0l0,0h0Zm0,1.31,0,0h0v0l0,0h0l.12.11h0l0,0h0l0,0,0,0a.09.09,0,0,0-.11,0l-.06,0h0l0,0a.1.1,0,0,0,0-.09,0,0,0,0,0,0,0l0,0h0S33.27,80.55,33.29,80.55Zm.2-1.69h0a.13.13,0,0,0,0,0l0,0h0l-.06,0s0,0,0,0Zm0-.08s0,0,0,0v0l0,0h0l0,0h0Zm.14.4h0l-.06,0a.06.06,0,0,0-.07,0h0l-.08-.07h0Zm.09-.35v0a.11.11,0,0,0,.09,0h.05s0,0,0,0L34,79h0l0,0a0,0,0,0,0,0,0L33.8,79a.11.11,0,0,0,0-.08l-.12-.11,0,0h0s0,0,0-.05h0l0,0A.09.09,0,0,0,33.74,78.83Zm.55.76,0,0a.06.06,0,0,0-.06,0,.09.09,0,0,0,0-.11l0,0h0v0l.11,0v.17A.08.08,0,0,0,34.29,79.59Zm0,.36H34.2l0,0-.09,0v0Zm0,.64,0,0h0Zm0-.44h0v0Zm-.14.12-.05,0h0s0,0,0,0v0a0,0,0,0,0,0,0Zm0-.15v0h0Zm0,1.1v0l.07,0,0,.13L34,81.27A.15.15,0,0,0,34.06,81.22Zm0-2.43L34,78.74h0l.11.05Zm0,2.78h0s0,0,0,0,0,0,0,0l-.05,0,0,0a.06.06,0,0,0-.08,0s0,0,0,0l0,0V81.4ZM33.93,81s0,0,0,0l-.1,0H34S33.93,81,33.93,81Zm-.39,1.68a.08.08,0,0,0,0,0l-.13,0v-.06h0v-.07h.09l.08,0s0,.08,0,.1l0,0,0,0h0Zm0,.05h0v0S33.55,82.75,33.56,82.76Zm-.17.65a.1.1,0,0,0,0,0l-.09,0h0l-.31-.13h0l-.14-.07h0s0,0,0,0l.07.08a.11.11,0,0,0,.07,0,.07.07,0,0,0,.06,0h0l.05,0,0,0,0,0,0,0,.25.11Zm.09.22h0l-.09,0,0,0h0Zm-.42-.53h0l0,0L32.94,83l0,0h0ZM33,82.81Zm0-1.33h0l0,0,0,0h0l0,0Zm0-.72s0,0,0,0h0a.08.08,0,0,0,0-.08h0s0,0,0,0l0,0Zm-.06.36Zm0,0h0Zm0-.68h0Zm0,.87s0,0,0,0a.05.05,0,0,0,0,0Zm0,.06v0h0S32.94,81.36,32.94,81.37Zm0,.45a.09.09,0,0,0,.07,0h0s0,0,0,0l0,0a.06.06,0,0,0,0,0l0,0a.09.09,0,0,0-.13,0l0,0h0v0h0a.08.08,0,0,0,.07,0Zm-.08.45h0ZM33.18,81v0l0,0h0v0l0,0Zm0,.37h0l-.06,0h0S33.2,81.33,33.2,81.32Zm.13-.21s0,0,0,0h0a.13.13,0,0,0,0-.06h0Zm-.06-.32Zm.2,1.32a.05.05,0,0,0,0,0l-.08,0h-.06v0l0,0a.09.09,0,0,0,0-.13l0,0h0v0h0Zm0-.35h0Zm-.12-.88h0s0,0,0,0h0a.09.09,0,0,0,0-.05s0,0,0,0Zm0,2.24h0Zm.16-1.24h0Zm0-.48h0l-.06,0h0l0,0v0a.08.08,0,0,0,0,0,0,0,0,0,0,0,0h0l0,.2Zm.13-1.77h0l.22,0v0s-.08,0-.09.05a.09.09,0,0,0,0,.12h0v0l-.06,0h0l-.06,0a.09.09,0,0,0-.12,0,.09.09,0,0,0,0,.07.12.12,0,0,0,0,0l-.08,0v0s0-.07-.08-.08h0l0,0h0l0,0,.06,0a.09.09,0,0,0,.07,0A.1.1,0,0,0,33.69,79.63Zm.26.92h0l-.07,0h.06Zm-.44-.16h0Zm0-.18v0h0a.09.09,0,0,0,.07,0l0,0h0l0,0h0Zm.09,2.85h0l0,0h0l-.08,0h0Zm0,2h0Zm0-.56h.05l0,0a0,0,0,0,0,0,0ZM33.73,80a.08.08,0,0,0-.07,0l0,0a.08.08,0,0,0,0,0,.09.09,0,0,0,0-.07.08.08,0,0,0,.05,0l.06,0h0l.1,0v.07l-.06,0s0,0,0,0,0,0,0,0Zm-.9-.86s0,0,0,0L32.7,79h0l0,0,0,0,.08.15Zm-.12.15h0l.07.05h0l-.11,0a.12.12,0,0,0-.05-.05l-.07,0v-.06l.06,0S32.69,79.32,32.71,79.32Zm-.09,1.21.07,0a.08.08,0,0,0,0,.12l0,0a.08.08,0,0,0,0,.09l0,0,.11.11H32.8l-.18-.17h0l0,0a.12.12,0,0,0-.1,0v-.15a0,0,0,0,1,0,0l.06,0Zm.15,1.35h0Zm-.13-.73h0Zm-.14-.24.07.06h0s0,0,0,0l0,0S32.5,80.92,32.5,80.91Zm.09.42h0l0,0,.06,0,0,0h0l0,0,0,0h0l-.08-.08v0a.09.09,0,0,0-.13,0h0l0-.08Zm0,1.81,0,0s0,0,0,0a.09.09,0,0,0-.07,0h0s0,0,0,0l-.08-.06h0l0,0h0l.08,0s0,0,0,0h0a.08.08,0,0,0,0,.07,0,0,0,0,0,0,0Zm0-.33v0l0,0h0ZM32.5,81.5h0Zm0,.68h0l-.06,0h0Zm.56,1.67h.13a.11.11,0,0,0,.08-.07h0s0,0,0,0a.11.11,0,0,0,0,.13l.06,0h0s0,0,0,0a.12.12,0,0,0,0,0l-.26-.11Zm.21.75h0a.09.09,0,0,0,0,.08l0,0h0a.09.09,0,0,0,0-.07.1.1,0,0,0-.09,0,.08.08,0,0,0,0-.08h.06l.13.06Zm0,.26a.08.08,0,0,0,.06,0h0a.07.07,0,0,0,0,.08Zm.2-.22s0,0,0,0l.06,0,0,0h-.08a0,0,0,0,0,0,0Zm0,1.52.13.06,0,.21-.12,0Zm.28-1.9h0ZM34.36,81h0l0,0h0s0,0,.05,0v0l0,0Zm.06-.43h0Zm-1.53-1.9-.18,0-.18,0h-.09l-.19,0-.28,0-.16,0H31.7l-.23,0-.38.06-.28,0-.3,0-.28,0v-.09h.11l1.71-.38Zm-2.21.77,0,0h0l0,0a.05.05,0,0,0,.06,0l0,0a.1.1,0,0,0-.05-.06Zm0,.4h0Zm.05-.69h0v0Zm-.08.71h0Zm-.16-.52,0,0a.09.09,0,0,0-.09,0h0a.08.08,0,0,0,0-.11l0,0,.16,0,0,0h0l0,0,0,0h-.05S30.52,79.28,30.51,79.31Zm0,.38h0Zm-.26-.14,0,0a.09.09,0,0,0,0,.07l-.08.06a.09.09,0,0,0,0,.07h0l0-.19h.07Zm.43.47-.36.13h0l-.16-.07Zm-.38.33h0a.09.09,0,0,0,.08,0l.32-.12a.08.08,0,0,0,0,.07l0,0h0l.05.06a0,0,0,0,0,0,0,.09.09,0,0,0,.05.12h0l.06,0h0l.12,0-.05,0a.08.08,0,0,0,0,.12.08.08,0,0,0,.07,0l.06,0,.11-.1h0l.06,0h0l.26.11v.1s0,0,0,0,0,0-.06,0h-.1a.06.06,0,0,0,0-.07.1.1,0,0,0-.12-.06l-.06,0h0l-.28.1-.08,0a.07.07,0,0,1-.13,0s0,0,0,0a.08.08,0,0,0-.12,0l0,0h0l-.06-.07s0,0,0,0l.05,0a.09.09,0,0,0,.05-.12.08.08,0,0,0-.11,0l-.07,0a.1.1,0,0,0-.06.12h0l0,0s0,0,0,0l0,0-.19.09h0l0-.5Zm-.22,1.14a.09.09,0,0,0-.06,0v-.07h0A.06.06,0,0,0,30.09,81.49ZM30,79.11v.2l-.05.61v.21l-.08,1v.25l-.07.84,0,.18v.18l0,.18,0,.48h0v.07h0l-.05.66V84h0v.12h0l-.05.58v0h0v.17h0l-.05.53-5.31-.28,1.24-6.79,4.61.5Zm3,5,0,0h0s0,0,0,0l.18.07h0a.09.09,0,0,0,0,.08h0Zm.09,3.31h.21v.24l0,.77h-.22Zm0-.19,0-.59.42,0-.08.59h-.38Zm-11.76-2-.54,2.83L8.6,87.7l.71-3.1Zm-12-.81,1.73-7.57,11.64,1.26L21.4,85.05ZM8,76.52,6.15,84.25l-15.54-.8,2.45-8.53ZM6.11,84.44l-.76,3.17-13.22-.38h0l-2.66.23,1.1-3.83ZM57.32,89.1,57.23,86l6.55-.33h0l.23,4.21-3.43,0,0-.68h0a.08.08,0,0,0,0,0h0l-.05,0Zm6.76,1.16.08,1.41h-.82L60.91,90.3ZM64.46,92h3.21v.23H64.34L64,92Zm3-8,0-.26-.08-1.2H68l.33,0,.21,0h0l.09,1.19.39,5H67.78Zm1.45,0,4.17-.25.15,1.55-4.2.2ZM71,85.78l.26,3.12-2-.05-.23-3Zm.18,0,2-.1L73.55,89l-2.09,0Zm2.35-.46-.14-1.56.61,0,.15,1.56Zm.66.32L74.52,89l-.63,0-.32-3.31Zm.13-2.09h0L74.93,89h-.06Zm.24,0h.15L75.26,89h-.15Zm.33,0h0v.08h0l.18,1.75h0v.16L75.48,89h0Zm.42,2.08L81,86l.4,3.16L75.67,89Zm5.92.65.36,2.89h0Zm.16-.25,3.55.24.42,3-3.58-.11Zm3.72.14,0-.14-.22-1.57,0-.15,0-.24h.56l.23,0h.07l0,.34,0,.14L86,86.15l0,.14.44,3-.88,0Zm.83-1.5h0l.2,1.36h0Zm.24,1.69h0l.43,3h0Zm.15-1.66,4.1.39.2,1.28-4.1-.31Zm.25,1.69,4.11.3.57,3.51-3.9-.08-.1-.71s0,0,0,0l0,0h0l0,0H87Zm4.17-1.27,3.51.35.21,1.2L91,86.41Zm.56,5.4.11.7-3.9,0-.11-.74ZM91,86.73l3.52.27.59,3.31-3.54-.08Zm3.56-1.2,3,.31L97.75,87l-3-.25Zm.6,5.1.12.64-3.54,0-.11-.69Zm2.62-4.92,0-.07a0,0,0,0,0,0,0s0,0,0,0l0,0H97.6l-3.15-.34h0l-.12,0h0l-3.69-.37h0l-.14,0h0l-4.28-.41h0l-.16,0H85.9L85.85,84l.76.08h0l2.81.27h0l2.57.27h0l1.6.16h0l.76.08h0l2.15.24h0l2,.22h0l1.79.21h0l.4,0ZM99,85.14h0l-2-.22h0L95,84.69l-.19-1.08,2.43.36h0l2.3-.38h0l1.73-.91h0l.37.07.58,2.8-1.49-.19h0Zm2.89-2.37,1,.18H103l.08,0h0l1.42.26h.11l.49.09.38.07.43,1.94L106,86l-3.55-.45Zm3.72.56-.4-1.81-.31-1.35.69.18,1.15,5-.69-.1ZM104.85,80l-.45-2L104,76.24l-.26-1.14.69.24,1.1,4.81Zm-1.14-5.08-.46-2-.37-1.66-.22-1,.69.3,1,4.59ZM102.61,70l-.47-2.09-.35-1.59-.17-.77.68.36,1,4.39Zm-1-4.68-.47-2.12-.35-1.53-.13-.6.68.41.95,4.2Zm-2.7-11.2L98.64,54l-.25-1.15.21.16Zm-.44-.31-.26-.18L98,52.78l.21-.05ZM87.3,46.38,86.65,46h0l-.75-.45h0l-.3-.18-.15-.86,1.7,1.06Zm-2.18-1.3-.78-.46h0l-.8-.47h0L83.26,44l-.14-.91L85,44.21Zm-2.35-1.37-.06,0h0l-.85-.49h0L81,42.7h0l-.25-.15-.14-.93,2,1.18Zm-5.27-3-.21-.11h0l-1-.53h0l-1-.54h0l-.23-.13-.12-1,2.43,1.34Zm-2.57-1.17.28.15h0l1,.54h0l1,.53h0l.37.2h0l0,0h0l.14.08.14.07.24.13.06.5-3.31-2.25ZM78,41l-.13-1,2.2,1.25.14,1-.13-.08h0l-.91-.51h0l-.94-.52h0Zm1.44,4.19h0L79,45.4h0l-.1,0,0,0h0l-.35.13-.12,0h0l0,0-.08-.46h0s0,0,0,0l0,0h0L18.6,7.32l2.46-2.71L81,44.66Zm-61-38-1.09-.69h0s0,0,0,0h-.09L-31,60.93l-.22,0L19.11,3.31l1.79,1.2ZM-30.86,61.09l48-54.18L17,7.8-10.44,38.43l-20.63,23Zm.2.76-1,1.72-.44-.07,1-1.72Zm-1.08,1.89L-33,66.56l-.44-.06,1.27-2.83Zm-1.35,3-1.31,3.38-.46-.06,1.32-3.38Zm-1.37,3.55-1.08,3.25-.47,0,1.09-3.25Zm-1.13,3.43-.58,2.38-.5,0,.61-2.39ZM-36,77.43l-.39,0-.05-.05.38,0Zm-.18-1.16,0,.92-.51,0,0-.92Zm0,1.33.42,0,4,.3,8,4.93L-15.36,88l.63.39-.63,2.12a.09.09,0,0,0,.06.12h0a.08.08,0,0,0,.08-.06l.66-2.19.14-.5L-13,83.37l2.65-8.9,2.61-8.75.31-1,1.24-4.15a.09.09,0,0,0-.07-.11.08.08,0,0,0-.11.06l-1.23,4.11-12.68,7.89-.32,0-5-.56L-3.13,55.55l7.28,1.71-7.34,4.56.27-.92A.11.11,0,0,0-3,60.78a.09.09,0,0,0-.11.07L-3.43,62l-.33,1.13L-7.1,74.79l-2.5,8.72-1.15,4-.8,2.78-.12.42a.11.11,0,0,0,.06.12h0a.1.1,0,0,0,.09-.07l.09-.31L-5.68,94h0l-8.13.11L-15.69,94a.08.08,0,0,0,0-.05ZM65.09,92.66l-.41-.23h3v.24Zm3.23.26a.09.09,0,0,0,.1-.09.11.11,0,0,0-.1-.09H67.9l0-.4h0l0-.41h0L67.64,89h1.53l2.2.06,2.28.06h.15l.82,0h1l5.94.17h.19l3.76.11,1.06,0h.57l.1.7h0l0,.14h0l.14.93.1.65h0l.09.67h0v.05a.05.05,0,0,0,0,0L69.85,93l-3.16,0Zm19.24-1.53,4,0h.14l3.73,0h.11l3.17,0h.1l3.14,0h0a.09.09,0,0,0,.1-.09.09.09,0,0,0-.09-.09l-3.07,0-1-5.4,3.47-.14,1.25,6.09H87.63Zm19.91-3.59-.53-2.34-1.19-5.21-1.14-5-1.09-4.79-1-4.61-1-4.43L99.76,54l1.3-.31Zm-6.31-34.55,0,.25h0a0,0,0,0,1,0,0l-2.84-2.39-.06-.27Zm-2.72-1.86h0Zm-.37-.78.12.54.07.3.28,1.28-.24-.18h0L95,50.16l-.47-2.25L98,50.59ZM51,7.38l32.7,31h0l11.51,9.8-.73-.56h0l-1.59-1.2h0l-.47-.35L83.91,38.9l-33-31Zm-.1.73L83.68,38.93l-1.2.44-.5-.31h0l-.83-.52h0L80.29,38h0l-.87-.53h0l-.9-.55h0l-.92-.55h0l-.95-.56h0l-1-.57h0l-1-.58h0l-1-.59h0l-1-.59h0l-1.07-.61h0l-1.09-.61h0l-1.12-.62h0L68.2,31h0L67,30.37h0l-1.21-.65h0l-1.23-.66h0L63,28.31h0l-1.63-.61h0l-1.64-.46h0L58.16,27h0l-1.45-.07h0l-.43,0-9.06-6.15Zm-31.54-6,27.56,18.7h0l.11.07h0l9.15,6.21L63,31.71l2.12,1.44.55.37.26.18,2,1.38h0l0,0h0l.18.12h0l.18.12h0l3.07,2.08h0l0,0h0l.16.11h0l.17.11,1.62,1.1,4.86,3.3L81,43.91l.11.58-60-40.08-1.9-1.27ZM-31.07,60.37,19.15,2.26,19,3.14-31.26,60.7Zm-.25.69.24,0L-32.16,63l-.23,0Zm-1.16,2,.24,0-1.4,3.09-.24,0Zm-1.47,3.28.24,0-1.45,3.71-.24,0Zm-1.52,3.89.24,0-1.19,3.57-.26,0ZM-36.73,74l.26,0-.68,2.65-.27,0Zm-.44,2.85,0,1-.28,0,0-1Zm-3.5,15.89a.1.1,0,0,0,.05.11h.08a0,0,0,0,1,0,0h0a.1.1,0,0,0,.09-.07l4.32-12.23,13.08,13,.24.24.06,0,.07,0a.1.1,0,0,0,0-.13l-.24-.24L-36.07,80.36l-.06-.06-1.6-1.59V77.46l.12-.44v1h0l0,0a0,0,0,0,0,0,0h0l16.73,15.22.77.71h0A.06.06,0,0,0-20,94s0,0,0,0h0l5.71.27-27.11.41-12.79-1.87Zm-1.7,4.55-13.21-3.89.24-.6,13.84,2Zm.18,0,.88-2.46L119.8,92.49l0,.1,0,.15Z"/><path class="cls-3" d="M12.28,25.28,23,30.42l1.64.78h0a.09.09,0,0,0,.08-.05.1.1,0,0,0,0-.13l-1.64-.78L12.36,25.11,12.17,25a.11.11,0,0,0-.13,0,.1.1,0,0,0,.05.13Z"/><path class="cls-3" d="M30.64,80.57h0l.11.12a.09.09,0,0,0,.07,0,.09.09,0,0,0,.06,0,.09.09,0,0,0,0-.13l-.11-.11h0l0,0a.09.09,0,0,0-.13,0,.09.09,0,0,0,0,.13Z"/></g></svg>