<svg id="Layer_1" data-name="Layer 1" xmlns="http://www.w3.org/2000/svg" xmlns:xlink="http://www.w3.org/1999/xlink" viewBox="0 0 100 100"><defs><style>.cls-1{fill:none;}.cls-2{clip-path:url(#clip-path);}.cls-3{fill:#f9320b;}</style><clipPath id="clip-path"><rect class="cls-1" width="100" height="100"/></clipPath></defs><g class="cls-2"><path class="cls-3" d="M96.33,54.59h0v0h0l-16.84-7L55.88,35.24h-.06l-8.1,10.17h0l0,.56h0L51,47.42,38,50.49h0s0,0,0,0h0v.05h0v0a0,0,0,0,1,0,0h0l.68.16v1.55l-4.64,1h0s0,0,0,0v.06l-.11,7.86L3.31,67.9h0L2,69.05a0,0,0,0,0,0,0H2L1,71.18H1L.47,73.84h0l.12,2.61h0l.73,2h0a0,0,0,0,1,0,0l1.19.94h0l.93.28L3,86.91l-11,.2h0l0,.37-3.36.07-6.63-.3h0l-6.45.12L-18,62.89l19.4-4.81h0l0,0v0s0,0,0,0v0l.43-2,2.34-.62h0s0,0,0,0h0s0,0,0,0v0L8.62,34.51l.3-.88,6.32-2.85,2,.55h0a.09.09,0,0,0,.07,0h0l0,0,.59-1.7L25.74,26l2,.67h0l.07,0a0,0,0,0,0,0,0s0,0,0,0l.67-1.86,7.22-3.26L37,21h0s0,0,0,0l0,0a0,0,0,0,0,0,0h0v0a0,0,0,0,1,0,0l0-1.45a0,0,0,0,1,0,0s0,0,0,0l0,0h0L-15.55-1.14h-.66l53,20.63,0,1.19L-20.67-1.14h-.67l58,22-.9.4-2.41-.9v-.55s0,0,0,0l0,0h0L-22.15-1.14h-.67L33.07,19.92v1.22L-27.62-1.14h-.68L32.9,21.32,29.18,23l.25-.68,1.38-.65h0a.1.1,0,0,0,.05-.06.11.11,0,0,0,0-.08h0a.11.11,0,0,0-.07-.06l-3.47-1.25-9-3.24h-.1l-.24.14h0l-.16.09a.11.11,0,0,0,0,.16.11.11,0,0,0,.1.06l.06,0,.11-.06,8.83,3.26,2.57,1-.23.64-.35,1-.51,1.41-.65,1.81-1.93-.65h0l-1.44-.48h0l-1-.33L20,23.86h0L11.44,21l1-4.83s0,0,0,0,0,0,0,0l0,0,0,0L-8.74,7.82l-23-9h-.65L-8.83,8l21,8.21-1,4.83L10.57,24,9.52,29l-.36,1.72-.77,3.7L4.08,55.09l-64-6.69v.23L3.53,55.27l-1.79.47L0,56.21l-15.88-1.52.15-.56a.12.12,0,0,0-.08-.15.13.13,0,0,0-.15.09l-.18.69-.43,1.6-1.69,6.4L-24.8,87.44-25.75,91l-.19.68-1.37,5.18h0s0,0,0,0,0,0,0,0l0,0a0,0,0,0,0,0,.06h0s0,0,0,0l18.87,2h0A.11.11,0,0,0-8.22,99a.12.12,0,0,0,.08,0h0A.12.12,0,0,0-8,98.92l.16-2h0l13.92,2-9.55.82a.1.1,0,0,0-.1-.11l-56.35-5.93v.24l55.75,5.86-12.48,1.08-.44-.09h0l-5-.47-37.77-3.51v.3l38.19,3.54,4.92.46-.62,2.28v0l-3.68-.29L-59.93,100v.23l37.44,3-37.44,3.57V107l38.79-3.7,3.77.3h0a.13.13,0,0,0,.08,0s0,0,0,0a.05.05,0,0,0,0,0v0l.3.07h0L7,101.23H7s0,0,.05,0a0,0,0,0,0,0,0,.05.05,0,0,0,0,0l.13-2.21h0s0,0,0,0a0,0,0,0,0,0,0h0l0,0h0l-18.66-2.64.08-1h0s0,0,0,0,0,0,0,0h0s0,0,0,0l-3.74-.49.12-1.2h0l0,0a0,0,0,0,0,0,0h0a.05.05,0,0,0,0,0l0,0h0l-4-.45,139.11-6.27,35.42.46v-.09l-35.42-.47h0l-139.71,6.3-.44,0-.4,0,.08-.76L24.87,90h0s0,0,0,0h0l0-.67h0v0h0L-10,87.67l2,0,44.45,1.91h0l71.4-2.86h0v0a0,0,0,0,0,0,0h0l0-.32h0l-10.45-.14v-.2l57.93.67V86.5L97.3,85.82ZM26.91,20.41,20.41,18,27,20.38Zm.31.12.08,0,3.15,1.13-.91.43.17-.48s0,0,0-.06v0l-.05,0,0,0h0Zm1.85,2.82,4.19-1.93h0v0l0,0v0s0,0,0,0v-.69l2.1.78-6.74,3.05Zm-20,10,.3-.87,4.49-2.07,1.07.3Zm.41-1.18.17-.52,3.25-1.52.61.18Zm16-6.22-7.36,3.33.35-1,5.89-2.72ZM24,25.44,18.5,28l.21-.59,4.59-2.15Zm-1-.33-4.16,1.95.15-.42h0s0,0,0,0,0,0,0-.05l0,0,0,0h0l-2.35-.74,3.38-1.65ZM11.39,21.26,19.6,24l-3.38,1.66L10.82,24Zm-.61,2.93,5.41,1.7,2.51.79-.2.56-.31.9-.45,1.29-.58,1.65-1.9-.54-1.42-.4-1-.28L9.78,29Zm-1,5,2.78.79L9.72,31.31l.13-.37h0s0,0,0,0v0l0,0,0,0h0l-.35-.09Zm-.36,1.72.21.05-.17.51h0l-.29.83h0L9,32.66Zm-25.31,24L0,56.45H0L1.62,56l-.39,1.82L-16.3,56.29Zm-.42,1.6L.61,58-18,62.63ZM-17,103.33l-.16,0,.26-.94ZM6.87,101l-23.65,2.33.22-2.27L7,99Zm-32.42-9.83.43,0,2.67.26-3.22.12Zm14,5.36,2.5.35-2.54.18Zm-3.74-1.73,2.48.32-2.53.15Zm-.29.59h0s0,0,0,0,0,0,0,0l0,0h0l3.79-.22-.09.94h0v.15h0l-.07.8h0s0,0,0,0,0,0,0,0l.05,0h0l3.66-.25-.15,1.78s0,0,0,0l-18.75-2,1.31-5,4.87-.19,0,.14-.09.91-.1.91h0s0,0,0,0a0,0,0,0,0,0,0l0,0h.05l5.52-.27-.12,1.19-.07.73Zm-4.74-2.5,3.59.41-4.06.2.07-.65Zm45.17-3-45.46,1.83,0-.21h0s0,0,0,0v0a0,0,0,0,1,0,0h0l0,0h0l-3.16-.31,48.72-1.76Zm-1.09-.63L-24.58,91-25.1,91l-.39,0,.91-3.43,6.47-.12,6.64.3ZM47.81,45.46l8-10,0,.51-8,9.93Zm0,.53,8-10L79.31,48.18l-2.82.55-.17,0-.7-.19-.72-.18-.73-.19h0l-.74-.19-.75-.19-.76-.2-.77-.19-.78-.19h0l-.79-.2-.8-.19h0l-.82-.2-.83-.2-.84-.2h0l-.85-.2-.86-.2h0l-1.08-.22h0l-.37-.06-.52-.09v-.14a0,0,0,0,0,0,0h0a0,0,0,0,0,0,.05v.12h0V45.2a0,0,0,0,0,0,0h0a0,0,0,0,0-.05.05v.16h0l-.25,0v-.06s0-.05,0,0a0,0,0,0,0,0,0v0h0a0,0,0,0,0,0-.05s0,0,0,.05l-.66-.08h0l-1.08-.07h0l-1,0h0l-.87,0h0l-.72.1h0l-.55.16h0l-.35.2h0l-.15.24h0v.19l-5.38,1.27ZM90.71,86.26l0,0h0l-12.33.31,0-.3L90.65,86a0,0,0,0,0,0,0s0-.05,0-.05h0l-1.87.05a0,0,0,0,1,0,0,0,0,0,0,0-.05,0h-.08l-.3-3.8h.16l2.15,0L91,86.25Zm.45.08,0,.26h-.51l-1.46,0h0l-.48,0h0L78.37,87l0-.31Zm-21.34-3.5h0Zm-.4-.09,0-1h.4l0,1Zm.4.19.11,2.21h-.4l-.1-2.22Zm-3.73-1.35L66,79.12l2.42.07,2.55.07,2.42.08,2.36.07h.21l.14,2.31Zm3.1.2,0,1H66.61l0-1Zm-2.62-.07Zm2.67,1.13Zm-1.37.1.1,2.22-1.26,0L66.62,83Zm.1,0h1.27l.1,2.22H68.06ZM1.75,78.05l-.66-1.82L1,73.84l.46-2.42.92-1.94,1.2-1L46.9,59.32l0,.51L28.37,63.66,3.54,68.79h0l-1.13,1h0l-.85,1.78h0L1.1,73.81h0L1.2,76h0l.62,1.68h0v0h0l1.05.82h0l1,.28,33.6,9.68-2.14-.08h0l-.84-.24L2.86,78.91Zm.94.86h0l-1-.78h0Zm-.45-9.42-.89,1.86H1.26l.88-1.86Zm0-.09,1.12-1h.07l-1.13,1Zm-.91,2L.89,73.79H.79l.44-2.34ZM.88,73.88,1,76.19H.89L.78,73.88ZM1,76.29,1.64,78H1.55L.91,76.28ZM45.2,57.48v1h0v.4L45,59V55.68l.23,0v1h0Zm0-1.86L48.67,55v0l-3.43.65Zm3.52-.54v0l-3.39.64h0Zm0,.12v.7l-3.4.63v-.69Zm0,.8v0l-3.4.62v0Zm0,.12v.7l-3.4.61v-.69Zm0,.8v0l-3.4.6v0Zm0,.12v.71l-3.41.58v-.69Zm0,.8v0l-3.41.58h0Zm0,.12v.47L48,58.3h0l-2.67.58v-.34Zm.17.6h0l.33.06h0l.19,0h0l1.34.25.33.06h0l.34.07h0l1.54.28H53l.35.06h0l3.5.65.53.09,7.75,1.43L72.91,63l0,.41L48.54,59l-.48-.08,0-.52.72.13Zm-.11-3.62h0l0,3.52h0V54.94Zm.34-1.37h0v.75l-.23,0,0-3.65.23.06v2.69h0ZM49,50.66l3.74-.82v.06l-3.62.78ZM52.74,50h0l-3.57.78v0Zm0,.11v.72l-3.57.75v-.7Zm0,.81v0l-3.58.75h0Zm0,.12v.71l-3.58.74v-.7Zm0,.81v0l-3.59.73h0Zm0,.12v.72l-3.59.71v-.7Zm0,.81v0l-3.59.72v0Zm0,.12v.7l-3.6.7v-.69Zm-3.37-4.08v-.11h0l0,1.23h0v-1h0Zm-.06-.19-3.56.82-.11,0-3.39.78-.11,0L39,51v-.29l17.53-4.09V47l-3.18.74-.13,0-3.73.86Zm-3.28,1.76v.3l-.21,0V49.55l.21.05v.07h0Zm-.07-.9,3.31-.76v.05l-3.2.74Zm3.31-.61h0l-3.16.72h0Zm0,.11v.63l-3.16.71v-.62Zm0,.73h0l-3.17.71h0Zm0,.11V50l-3.17.71v-.14Zm-3.59-.06v-.11h0v-.1h0v1.2h0v-.27h0Zm-3.23.53,3.13-.72v.05l-3,.69Zm0,1v.18l-.21,0V50.36l.21,0v.87Zm3.08-1.56h0l-3,.68h0Zm0,.11v.62l-3,.67v-.61Zm0,.71h0l-3,.67h0Zm-3,.78,3-.67v.13l-3,.66Zm-.41-.75v-.21h0v1.17h0v-1Zm-3.06.5,3-.69v0l-2.88.66Zm0,.11v1l-.22,0V51.13Zm2.93-.55v.6l-2.84.64v-.59Zm-2.84.55h0l2.84-.65h0Zm0,.88,2.84-.63v.13l-2.84.63Zm0-.09h0l2.84-.64h0Zm17.3-3.18h0s0,0,0,0l.25.27h0l.28.18v.34h0l-.13.07-.91.19-2.37-.62v-.41l2.83-.63v.31h0Zm25.72,3.82-.56-.14-.63-.17-.64-.17L79.87,52h0l-.66-.17-.67-.17-.68-.18-.69-.17-.7-.17-.71-.18h0l-.71-.17h0l-.69-.17-.14-2.37.67.18.71.19.71.18.18,0L77,49h0l.69.18.68.19.67.18.65.18.65.18h0l.64.18.63.18.59.17Zm-.07-2.19,1.73.51h0l1.71.51,1.63.51h0l1.51.48L89,54.51l-1.48-.44h0l-1.63-.47h0l-1.72-.48h0l-1.76-.48Zm-8,.14-.68-.16-.75-.18h0L72.06,50l-.78-.18-.79-.18-.79-.18-.81-.18-.82-.19h0L67.24,49l-.84-.19-.86-.19-.82-.18-.11-2.51.8.18.85.2h0l.84.2.83.2.81.2h0l.8.19.79.2h0l.78.19.78.19.76.2.75.19.71.18Zm-9.63-2.19-1-.19h0L62.47,48h0l-1.12-.13h0l-1.08-.07h-1l-.87,0h0l-.72.09h0l-.49.13-.07-2.54.51-.15.71-.09.87-.05,1,0h0l1.07.08h0l.71.08h.11l.29,0h.06l.13,0,.55.09.38.06,1,.22Zm-7.48-.21.54-.14.72-.09h0l.87,0,1,0h0l1.07.07h0l1.12.12h0l1.12.17h0l1.08.21h0l.86.19.86.18.84.19.83.18h0l.82.19.81.18.79.18.79.19.77.18.77.17h0l.75.17.74.18.73.18h0l.71.17h0l.71.18.7.17.69.18.68.17.67.17.65.17h0l.65.17.64.16.63.17.62.16h0l1.8.49h0l1.71.48h0l1.63.47h0l1.55.46h0l3.12,1h-.07l-1.63-.49-1.7-.51h0l-1.54-.46h0l-1.62-.47h0l-1.71-.47h0l-1.79-.49h0l-1.87-.49h0l-2-.51-2.06-.51h0l-2.15-.52-2.27-.54h0l-2.32-.53h0L67,49l-2.54-.55h0l-.33-.06h0l-.66-.13h0l-.67-.1h0l-.34-.05h0l-.32,0h0L61.5,48h0l-.65,0h0l-.33,0h-.89l-.53,0h-.28l-.19,0h0l-.44,0h0l-.33.09h0l-.19,0h0l-.07.05-.21.11h0l-.09.13-.07,0h0v0h0l0,.54L57,49l-.24-.26,0-.22.13-.2ZM94.56,78.73l.37,0L95.05,80h-.38Zm0,1.24h-.22l-.11-1.23h.22Zm-.07-1.33-3.35-.18-.23-2.67,1.36.12,1.66.14.31,0,.43,0,.12,1.34.11,1.21Zm-.35,1.27-1.4-.06-.1-1.12,1.4.07Zm-4.63-1.54-1.66-.08-1.76-.09-1.81-.09-.21-2.85,1.49.11.3,0,1.45.12.3,0,1.36.11.31,0,1.26.1.28,0,.22,2.66Zm1.22,1.4-1.3,0-.09-1.17,1.29.07ZM88.26,82h0l.31,3.85h0l0-.51v-.09L88.33,83V82.9L88.26,82h0v0Zm-1.9,4-.7,0a0,0,0,0,0,0,0l0-.52,2.8,0,0,.47-2.07,0a0,0,0,0,0-.05,0S86.35,86,86.36,86Zm2.06-.76-2.8,0L85.45,83l2.79,0Zm-3-2.39L85.37,82l2.79,0,.07.82Zm.09,2.49v.09l0,.57v0h0a0,0,0,0,1,0,0l0-.58v-.08L85.34,83h0v-.08h0L85.27,82h0l.07.93V83Zm-3.18.19,3.08-.06,0,.53s0,0,0,0l-3.1.07v0Zm3.07-.24-3.09,0L82.17,83h3.08Zm-3.19.19v-.09L82.06,83v-.09l-.06-1h0l.07,1V83l.16,2.42v.09l0,.59s0,0,0,0h0s0,0,0,0Zm-3.45.1,3.36,0,0,.55h0l-3.37.08s0,0,0,0Zm-.12,0h0v-.1h0l-.16-2.49v-.09l-.06-1h0l.06,1v.09l.16,2.5h0v.09h0l0,.61s0,0,0,0h0s0,0,0,0Zm-.11-3.63,3.34,0,.06.88-3.34,0ZM78.62,83,82,83l.16,2.33-3.36,0Zm3.54-.17-.06-.87,3.07,0,.07.85Zm-6-1.09L76,79.42l1.92.06,2.14.07,1.38,0-1.2.62-1.43.2h0l-.67.06s0,0,0,0,0,0,0,0h0l.63,0v0l0,.08-.65.07a.07.07,0,0,0,0,.06.07.07,0,0,0,0,0h0l.65-.08,0,.19-.69,0s0,0,0,0a0,0,0,0,0,0,0h0L79,81l5.47.13,0,.71Zm2.22,1.07h-.71l-.05-.91h.7Zm-1.53,0H74.73l0-.93,2.13,0Zm-1.15-4.9h0l.08,1.43h0l-.08-1.47h0v0Zm-2.16-.24-5-.21-2.63-.1-.14-3.27,2.4.15,2.53.15,2.4.15h0l2.35.15.21,0,.18,3Zm2.11,1.65h0l-.08-1.42s0,0,0,0h0l.09,1.47h0Zm-.12,0-2-.07-.07-1.35,2,.09Zm-2.18-1.47h0l.08,1.44h0l-.08-1.49h0s0,0,0,0Zm-.07,1.44h0l-.08-1.45h0s0,0,0,0h0l.08,1.5h0v0Zm-.12,0-2-.06-.07-1.37,2,.08ZM71,77.69h0L71,79.16h0l-.07-1.52h0a0,0,0,0,0,0,0Zm-.08,1.46h0l-.07-1.48h0v0h0l.08,1.53h0s0,0,0,0Zm-.12-.05L68.57,79l-.06-1.4,2.17.08Zm-2.34-1.51h0l.07,1.49v0h0l-.07-1.55h0a0,0,0,0,0,0,0Zm-.1,1.48h0l-.07-1.5h0v0h0l.07,1.55h0Zm-5.86,7.67h0l1.16,0h.51l1.26,0v.13Zm2.93.15V87l-2.52,0-.23-.13Zm-.06-17.82h.15l.14,3.21-.86-.05L65,69Zm-.3-.14.07-.85,0,.86Zm.33-1.39h0L65.41,69h0l-.06-1.48h0a0,0,0,0,0,0,0Zm-.19-.22.1-1.32h.09l.05,1.36ZM65.28,69h0l-.06-1.46h0s0,0,0,0h.06ZM66,63.65l.58.1,0,.32-.8.12Zm-.3.58-.16.46-.43-1.13.19,0,.67-.1,0,.15Zm.33-.67.06-.17h0l0,0h0l-.74.11-.26,0-.09-.24h0l-.74.12-2.07-.35.06-.18s0,0,0,0h0l-.74.12L61,62.72l-.1-.24h0l-.75.12-2.26-.37.07-.19h0s0,0,0,0h0l0,0h0l-.75.12L56.75,62l-.1-.25h0s0,0,0,0h0l-.75.13-2.48-.42.08-.19v0h0v0a0,0,0,0,0,0,0h0l-.76.14-.47-.08L52.05,61h0v0h0l-.76.13-2.72-.45.09-.2v0s0,0,0,0h0v0a0,0,0,0,0,0,0h0l-.76.15-.57-.1-.11-.27h0l.1,0,20.16,3.44-.74.12Zm-4-.57,1.8.3-2,.31Zm-.34.66-.16.42-.45-1.16.25,0,.68-.1-.06.15Zm-4.56-1.48.67-.12-.06.17-.32.81-.14.38-.47-1.19Zm-.36,0v0h0Zm1,.16,2,.33L57.56,63Zm-5.19-.88.68-.12-.07.17-.38.92-.13.31-.49-1.21Zm-.42,0,0,0,.15,0Zm1.11.14,2.23.37L53,62.34Zm-5.52-.93.68-.13-.08.18-.46,1h0l0,.06h0l-.08.18-.51-1.24Zm-.51,0,0-.09.26.05Zm1.18.12,2.49.41-2.87.52s0,0,0,0h0Zm19.17,2.87,1.24.21-.18,0v0h0l-2,.29,0-.31Zm1.53.26,1.27.22-.74.11.06-.17h0v0h-.05l-.9.13-.06-.16Zm.47.21-.05.17,0,.11h0l-.1.29h0l-.2.63-.42-1.1Zm.37.28,0,.34-.47-.06.07-.22Zm-.75,1.12h0v0h0l.23-.72.54.07h0l.12,0h.12l.92.12,1.19.15h0l.11,0h.12l.93.13,1.13.15h.14l.11,0h.1l.18,2.95-.71-.07L73,68.14,71.43,68l-2.49-.27-.85-.08h0l-2.59-.27L65.44,66Zm.86-1.13h0l0,.38h0Zm.12,0h0l0,.41h0Zm2.8-.86h0l0-.5h0s0,0,0,0h0l-7.71-1.41-.09-2.09.82.13,1.37.21h0l.13,0h0l.12,0,.93.14,1.29.2h0l.12,0,.12,0,.91.15,1.18.18h0l.11,0,.12,0,.92.15h0l.76.12.37.06h0l.12,0,.11,0,.1,0,.17,2.9-.7-.1h0l-1.47-.21.15,0h0Zm-16-4.24h0l-.15.15a0,0,0,0,0,0,0h0l0,.52-3.4-.62,0-1.41,4,.78v.39h0Zm.36.82L57,60v-.52l.13-.14.29-.11Zm-4.5-1.36v0l-1.48.24h-.06Zm-1.82.2H51l1.88-.31v0Zm1.82-.08v.41L51.71,59Zm-2.15,0-1.07-.2L53,58.07h0v.38h0ZM53,53.67l.25-.05.12,5.66-.26-.05V58L53,54.09Zm.3-4.36,3.35.87.07,3h0l0,.22h0l.26.24h0l.28.15v.51h0l-.18.08-3.74-.86Zm0-1.49h0l0,1.35h0V47.82Zm.13,0,.21,0v1.37l-.21-.06Zm4.28,1.76h.15l.61-.08h2.26l.69,0h0l1,.11h.13l.14,0,1,.14h0l.75.14h0l.14,0h0l.13,0h0l.12,3-1-.18h0l-1.13-.14h0l-1.13-.11h0l-1.09-.06h0l-1,0h0l-.88,0h0l-.73.08h0l-.5.11-.08-3h.11Zm-.35-.88.26-.2,0,1-.26.06Zm.51-.33.85-.16,0,1.17h-.3l-.56.07Zm.93-.27h0Zm.12,0h0l0,1.25h0l0-1.28h0v0h0Zm.12.06,1.34,0,0,1.21h-.08l-1,0h-.26Zm1.41-.11h0l0,1.31h0l0-1.27h0v0Zm.18,0h0l0,1.28h0l0-1.32h.06v0Zm.11.07,1.6.14,0,1.23-1-.1h0l-.64,0Zm1.68.06h.05l0,1.31h0l-.05-1.28v0h0Zm.19.06h0v0l0,1.26h0l-.05-1.31h.06a0,0,0,0,0,0,0h0Zm.1.07,1.61.28,0,1.21-.69-.13h0l-.93-.14Zm1.71.21h0l.06,1.3h0l-.06-1.29h0Zm.18.06h0l.05,1.25h0l0-1.3h0v0ZM67,50.48h0l.12,0,.13,0,.08,0,.83.18h0l.82.17.45.1h0l.12,0h0l.12,0,.1,0,.8.17.79.18.38.08h0l.12,0,.11,0,.14,0,.77.17h0l.75.17L74,52h0l.11,0,.11,0,.1,0,.17,2.8-.69-.14-.76-.15h0l-.76-.16-.79-.16-.79-.16-.8-.16-.81-.16h0l-.83-.16h0l-.83-.16-.85-.16-.86-.17L64.91,53l-.13-3,.81.17.86.18.49.1h0Zm0-1.36h0L67,50.4h0L67,49.13Zm.16.07h0v0h0l.06,1.22h0l-.06-1.27h0Zm.1.07,2.08.47.06,1.16L69,50.81l-.82-.18h0l-.83-.17h0Zm2.19.41h0l.06,1.26h0l-.06-1.24Zm.15.06h0l.06,1.2h0l-.06-1.25h0v0Zm.1.08,2,.45.06,1.15-.32-.08-.79-.17-.8-.17-.06,0Zm2.08.39h0l.07,1.23h0l-.07-1.22Zm.14.06h0l.06,1.18h0l-.06-1.23h0Zm.09.08,1.93.46L74,51.92l-.3-.07-.76-.17h0l-.77-.17-.1,0Zm2,.4h0L74.09,52h0L74,50.75Zm.13.06h0L74.2,52h0l-.07-1.2h0Zm2.05,1.74h0l.11,0,.1,0h0l.15,0,.7.17.69.16.3.07h0l.1,0,.1,0,.16,0h0l.67.16.66.16.26.07h0l.1,0h0l.1,0h0l.17,0,.64.16.64.16.21.06h0l.09,0,.09,0,.17,0,.19,2.64-.57-.13-.63-.15-.64-.14-.66-.15h0L79.49,56l-.67-.15-.69-.15-.69-.15-.7-.15h0L76,55.24l-.73-.16-.7-.15-.16-2.8.67.15.72.17.33.08h0Zm0-1.28h0l.08,1.19h0l-.07-1.18Zm.12.06h0l.07,1.14h0l-.07-1.19h0Zm.1.08,1.73.43.07,1.09L78,52.86l-.69-.17-.7-.16-.11,0Zm1.85.38h0L78.31,53h0l-.08-1.17Zm.11,0h0L78.41,53h0l-.08-1.17h0Zm.1.08,1.65.42.07,1.07-.2,0-.66-.16L78.63,53h0l-.12,0Zm1.76.37h0l.08,1.15h0l-.08-1.15Zm.1,0h0v0h0Zm.1.08,1.56.41.08,1-.15,0-.63-.16-.65-.16-.14,0Zm1.77.39h0ZM84,54.47l.09,0,.21.06h0l1.3.35h0l.08,0,.09,0h0L86,55h0l1.22.33h0l.08,0,.08,0,.23.06h0l1.13.32h0l.07,0h0l.08,0h0l.2.06.21,2.48L87.87,58h0l-1.63-.41h0l-1.72-.42h0l-1.78-.42-.19-2.63,1.33.34h0Zm0-1.18Zm.09.1,1.41.39.08,1-1.24-.33h0l-.17-.05Zm1.7.48,1.34.38.08,1L86,54.92h0l-.19-.05Zm1.62.46,1.27.38.08,1-1.07-.3h0l-.19-.06Zm3.27,2h0l1.46.43h0l.07,0,.31.09L93,57l.21,2.38-.39-.11-3.31-.87-.21-2.47,1.22.35h0l.07,0h0Zm0-1,1.37.41.08.93-1.37-.4ZM94.2,74.76l.37,0L94.68,76l-.37,0Zm0,1.21L94,76l-.11-1.19h.22Zm-.07-1.31-3.34-.33-.22-2.62,1.35.17,1.66.21.31,0,.42.05.13,1.36.1,1.16Zm-.35,1.25-1.39-.12-.1-1.1,1.39.13Zm-4.61-1.74h0L87.53,74l-1.75-.16L84,73.7l-.2-2.8,1.47.17.3,0,1.44.17.31,0,1.35.16.31,0h0l1.25.15.28,0,.22,2.62Zm1.21,1.46-1.29-.11L89,74.37l1.29.12Zm-1.57-.13-1.37-.11-.09-1.17,1.36.12Zm-1.55-1.36Zm-.12,1.23-1.45-.12-.09-1.19,1.45.13ZM85.53,74h0Zm-.1,0h0Zm-3.79,4-5.7-.25-.18-3.06,1.91.13,2.12.15,2,.14,1.92.14H84l.21,2.86Zm4,.38.09,1.22-1.54-.06-.09-1.23ZM84,79.57h0l-.08-1.12L84,79.57Zm0-1.33v0h0Zm-.09,0h0s0,0,0,0h0Zm0,1.29-1.62-.06-.09-1.25,1.62.07Zm-1.81-1.39h0a0,0,0,0,0,0,0h0l.09,1.34h0Zm0,1.37h0L82,78.14h0Zm-1.67.92,0-.14,1.32-.69.07.14Zm1.39-.6.07.13-1.37.71-.06-.15Zm-1.45.72.06.15-1.41.2,0-.19Zm-1.41.07,0-.09v0l1.36-.19,0,.14Zm1.3-1.21-.08-1.28,1.71.07L82,79.45Zm-.18-1.33h0l.09,1.38h0L80.05,78h0Zm0,1.37h0L80,78.05h0l.09,1.42h0a0,0,0,0,1,0,0Zm-.13,0-1.8-.06L78,78l1.8.08Zm-2-1.42h0l.08,1.4h0l-.09-1.44h0s0,0,0,0Zm0,1.4h0L77.81,78v0h0l.09,1.44h0Zm-2.46-6.19h0l.08,1.38h0l-.08-1.42h0s0,0,0,0Zm-2.15-.33-1.61-.12h0l-3.37-.25L65.7,72.3l-.13-3.21L68,69.3l.2,0h0l2.3.22.23,0,2.16.21.26,0,2.07.21.21,0,.18,3Zm2,.31h0l.08,1.43h0l-.09-1.4Zm0,1.36-2-.13-.07-1.33,2,.15ZM73.1,73h0l.08,1.41h0L73.07,73h0s0,0,0,0ZM73,73h0l.08,1.45h0L73,73h0Zm0,1.38-2-.12-.07-1.35,2,.15Zm-2.2-1.53h0l.07,1.43h0l-.07-1.48h0a0,0,0,0,0,0,0Zm-.16,0h0l.08,1.47h0l-.08-1.45h0Zm0,1.42-2.17-.13-.06-1.37,2.16.15Zm-2.32-1.56h0l.07,1.46h0l-.07-1.5h0a0,0,0,0,0,0,0Zm-.17,0h0s0,0,0,0h0l.07,1.5h0Zm0,1.43-2.26-.14-.06-1.4,2.26.16Zm-2.41-1.59h0L65.62,74h0l-.07-1.53h.06l0,0ZM65.5,69l0-1.37,2.24.22.06,1.35Zm2.29-1.21h0l.07,1.46h0l-.07-1.43h0Zm.17,0h0L68,69.22h0l-.06-1.45h0v0Zm.1.06,2.14.22.07,1.33-2.15-.2Zm2.25.16h0l.08,1.43h0L70.32,68h0A0,0,0,0,0,70.31,68Zm.16,0h0l.07,1.38h0L70.44,68h0Zm.1.06,2,.21.07,1.31-2-.2Zm2.13.15h0l.07,1.41h0l-.08-1.39h0Zm.15,0h0l.08,1.36h0l-.08-1.41h0s0,0,0,0Zm.09.06,2,.22L75,69.86l-2-.19Zm2.09.15h0l.08,1.38h0L75,68.54h0Zm.14,0h0l.08,1.34h0l-.08-1.38h0s0,0,0,0Zm.47-7.51,1.06.18h0l.11,0,.11,0,.85.15h0l1,.17h0l.11,0,.1,0,.83.15.93.16h0l.1,0H81l.83.15.85.16h0l.09,0h0l.09,0h0l.16,0,.2,2.72-.58-.1-1.29-.2-.66-.1-1.35-.21h0L78,64.26l-1.43-.21-1.44-.21L75,60.93Zm-.73-.22-.1,0-.07-1.2,1.84.33.08,1.19-1-.17Zm1.78-.95h0l.08,1.27h0l-.08-1.26h0Zm.13,0h0l.07,1.23h0L76.8,59.9h0s0,0,0,0Zm.09.07,1.76.32.07,1.17-.93-.17h0L77,61.18Zm1.87.26h0l.08,1.25h0l-.09-1.24h0Zm.12.05h0l.08,1.2h0l-.08-1.25h0l0,0Zm.09.07,1.67.31.08,1.15-.87-.16-.8-.14Zm1.78.25h0l.08,1.23h0l-.08-1.22h0Zm.11,0h0L81,61.88h0l-.09-1.23h0v0Zm.1.07,1.58.31.08,1.12-.8-.14-.78-.14Zm1.79.27h0v0Zm1.84,1.63h.09l.21,0h0l1.32.26h0l.09,0h0l.08,0h0l.22,0h0l1.22.24h0l.08,0h.08l.23,0h0l1.14.23h0l.07,0h.08l.2,0L90,66.23,88.52,66l-1.64-.28h0l-1.74-.3-1.79-.29-.2-2.72,1.35.26h0Zm0-1.27Zm.09.1,1.43.29.08,1.08-1.25-.24h0l-.18,0Zm1.63.26Zm.09.09,1.35.29.09,1.06L86.66,63h0l-.18,0Zm1.63.35,1.28.28.09,1-1.08-.22h0l-.2,0Zm1.56.34,1.43.31.09,1-1.23-.26-.21,0ZM88.86,70l-1.66-.22h0l-1.74-.23-1.8-.22-.2-2.77,1.35.21h0l.09,0H85l.21,0h0l1.32.21h0l.08,0h.09l.22,0,1.23.2h0l.08,0h.08l.23,0h0l1.15.19h.1l.08,0,.2,0,.22,2.59Zm2.83.62.09,1.09-1.44-.18-.09-1.11Zm-1.63.88-1.29-.16-.09-1.13,1.29.17Zm-1.57-.2-1.36-.16L87,70l1.36.18ZM87,69.94h0Zm-.12,1.2L85.39,71l-.09-1.17,1.44.18Zm-1.62-1.42ZM82,73.54h0l-2-.17-2.86-.23L75.66,73l-.17-3,1.9.19.25,0h0l1.86.19.26,0,1.75.18.28,0,1.64.18.25,0,.2,2.81Zm1.71.28h0v0Zm-.11,0h0Zm0,1.26L82,75l-.08-1.24,1.6.14Zm-1.79-1.4h0L81.87,75h0l-.1-1.35h0s0,0,0,0Zm-.11,0h0L81.77,75h0l-.1-1.33h0Zm0,1.3-1.7-.12-.08-1.25,1.7.14Zm-1.88-1.43h0l.09,1.34h0l-.09-1.38h0s0,0,0,0Zm-.11,0h0l.09,1.38h0l-.09-1.36Zm0,1.31-1.79-.12-.08-1.28,1.78.14Zm-2-1.46h0l.08,1.36h0l-.09-1.4h0v0Zm-.13,0h0l.09,1.4h0l-.08-1.38h0Zm-.28-4.56h0l.08,1.36h0l-.08-1.34h0A0,0,0,0,0,77.24,68.77Zm.13,0h0l.08,1.31h0l-.09-1.35h0Zm.09.06,1.78.2.08,1.24-1.78-.19Zm1.89.14h0l.09,1.33h0L79.36,69h0Zm.12,0h0l.08,1.29h0L79.46,69h0s0,0,0,0Zm.1.06,1.68.2.09,1.21-1.69-.18Zm1.8.15h0l.09,1.31h0l-.09-1.29Zm.1,0h0l.09,1.26h0l-.09-1.3h0s0,0,0,0Zm.1.06,1.6.19.09,1.19-1.6-.17Zm1.71.13h0Zm.1,0h0s0,0,0,0h0Zm.19,1.28-.09-1.19,1.52.19.09,1.17Zm-.15-4.27-.16,0-.09-1.16,1.51.24.09,1.15Zm1.47-1h0Zm.09.09,1.44.24L86.51,67l-1.26-.2h0l-.17,0Zm1.64.2Zm.09.09,1.36.23.09,1.11L87,67.05l-.18,0Zm1.64.29,1.28.22.09,1.08-1.09-.18h0l-.19,0ZM90,67.54l-.09-1.08,1.44.26.09,1.06-1.24-.21Zm-6.89-5.27h0l-.16,0-.08-1.12,1.5.3.08,1.1Zm0,3h0v0Zm-.11,0h0Zm0,1.22-1.46-.21-.14,0L81.27,65l1.59.25ZM81.18,65h0l.09,1.23h0l-.09-1.27h0l0,0Zm-.11,0h0l.09,1.26h0l-.09-1.25h0Zm0,1.25-1.56-.23h-.12l-.08-1.21L81,65Zm-1.86-1.51h0l.08,1.24h0l-.09-1.29h0a0,0,0,0,0,0,0Zm-.12-.05h0l.08,1.29h0l-.08-1.28h0Zm0,1.27-1.66-.23h-.11l-.07-1.23,1.76.26Zm-1.94-1.54h0l.08,1.26h0l-.08-1.31h0s0,0,0,0Zm-.13,0h0l.08,1.31h0L77,64.3h0Zm-.11.07.08,1.23-1.75-.24h-.11L75,64.08ZM77,65.68h.24l.15,0,1.71.23h.13l.11,0,.16,0,1.61.23h0l.1,0h.09l.18,0,1.51.22h.12l.09,0,.17,0,.2,2.76L83,69.28l-2-.23-2-.25-2.15-.24h0l-1.44-.17-.17-3Zm.16,3.15.08,1.26-1.87-.19-.08-1.28Zm.28,4.55.08,1.29-1.88-.13-.08-1.3Zm6.47,1.74-.09-1.22,1.53.14.09,1.19ZM92,74.66l.09,1.11-1.45-.12-.09-1.13Zm-.08-4,1.39.19.1,1.07-1.39-.17Zm1.58.14h.21L93.86,72l-.21,0ZM94,72l-.11-1.21.36,0,.11,1.2Zm-.16-1.31-3.34-.47-.21-2.58,1.23.21h.11l.07,0,1.48.24h.1l.31,0,.43.07.12,1.38.11,1.11Zm-2.18-4L93,67l.1,1-1.39-.23Zm1.57.2.21,0,.11,1.18-.22,0Zm.41,1.18L93.5,67l.36.07L94,68.21Zm-.15-1.3-3.32-.6-.22-2.55,1.23.26h.1l.08,0,1.47.31h0l.08,0,.3.06.43.09.13,1.4.09,1.05Zm-2.17-4,1.38.31.09,1-1.38-.29Zm1.57.26.21,0,.1,1.16L93,64.24Zm.41,1.16-.11-1.17.37.08.1,1.16ZM93.11,63l-3.32-.74-.21-2.51,1.22.31h0l.08,0H91l1.47.37h0l.07,0,.31.07.43.11.13,1.42.09,1ZM57.82,54.29H58l.62-.07h2.28l.69,0h0l1,.09h.28l1,.12h0l.75.13h0l.14,0,.13,0h0L65,57.7,64,57.55h0l-1.14-.13h0l-1.14-.09h0l-1.09,0h-1l-.89,0h0l-.74.07h0l-.51.09-.08-3.07h.06l.05,0h0Zm-.35-1,.26-.18,0,1.07-.26.06ZM58,53l.87-.13,0,1.22h-.3l-.57.06Zm.94-.25Zm.12,0h0l0,1.3h0l0-1.33h0Zm.13.07,1.34,0,0,1.26h-.07l-1,0h-.26Zm1.42-.11h0l0,1.36h0l0-1.32h0v0Zm.18,0h0l.05,1.33h0l-.05-1.36h.06l0,0Zm.1.06,1.62.13,0,1.26-1-.08h0l-.65,0Zm1.71.07h0v0h.05l0,1.36h0l-.05-1.32h0Zm.19,0h0l0,1.3h0l-.05-1.36h.06s0,0,0,0Zm.09.07,1.63.24.05,1.25-.7-.11h0l-.93-.12Zm1.72.17h0l.06,1.35h0l-.06-1.32h0v0Zm.18.06h0l.06,1.29h0l0-1.34h0s0,0,0,0Zm.1.07,2.19.42L67.11,55l-.44-.08-.86-.16-.88-.15h0ZM65,54.67l.82.15.86.15.5.09h0l.12,0,.13,0,.08,0h0l.84.15.82.15.46.09h0l.12,0,.12,0,.1,0,.8.15.8.15L72,56h0l.12,0h0l.11,0,.15,0,.77.15h0l.76.15.36.07h0l.11,0h0l.11,0,.1,0,.17,2.85-.7-.12-.76-.13h0l-.77-.14-.79-.13L71,58.67l-.81-.13-.82-.14-1.67-.27h0L66.8,58l-1.7-.28Zm2.19-1h0L67.25,55h0l-.06-1.3h0Zm.16.07h0L67.38,55h0l-.06-1.31h0v0Zm.1.07,2.1.41.06,1.2-.4-.07-.82-.15L67.52,55h0Zm2.2.34h0l.07,1.29h0l-.06-1.28h0Zm.16.07h0l.07,1.24h0l-.06-1.29h0a0,0,0,0,0,0,0Zm.09.07,2,.39.06,1.19-.33-.06-.79-.16-.8-.15h-.07Zm2.09.33h0l.07,1.27h0L72,54.62h0Zm.15.06h0l.06,1.22h0l-.07-1.27h0v0Zm.09.07,1.94.4.07,1.16-.3-.06-.76-.14h0L72.38,56l-.11,0Zm2.06.34h0l.08,1.25h0l-.07-1.24Zm.13.06h0l.07,1.2h0l-.07-1.25h0s0,0,0,0Zm.09.07,1.83.38.07,1.15-.27-.05h0l-.72-.15-.74-.15-.1,0Zm.22,1.29.67.13.72.15h0l.34.07h0l.11,0h0l.1,0,.15,0h0l.7.15.7.14.29.06h0l.1,0,.1,0,.16,0,.67.15.67.14.26,0h0l.1,0h0l.1,0,.17,0h0l.65.14.63.13.22.05h0l.09,0,.09,0,.16,0,.2,2.68-.57-.11h0l-.64-.12-.64-.13-.66-.12-1.34-.26-1.39-.25h0l-1.42-.26-1.43-.26Zm1.73-1h0l.08,1.23h0l-.07-1.22Zm.12.05h0l.07,1.18h0l-.08-1.23h0v0Zm.1.07,1.74.38.07,1.13-.23-.05-.7-.14-.7-.15h0l-.11,0ZM78.5,56h0l.08,1.21h0L78.51,56h0Zm.12.06h0l.08,1.17h0L78.61,56h0l0,0Zm.09.07,1.66.37.08,1.11-.2-.05-.67-.14-.67-.14-.12,0Zm1.78.32h0l.08,1.18h0l-.08-1.18Zm.1,0h0v0h0v0Zm.1.07,1.57.36L82.34,58l-.16,0-.63-.14-.65-.14h0l-.14,0Zm1.78.33h0v0Zm.1.1,1.49.35.08,1.07-1.33-.3-.17,0Zm.28,1.22,1.34.3h0l.09,0h0l.09,0h0l.21.05,1.31.3h0l.08,0,.08,0,.22,0h0l1.22.29h0l.08,0h0l.08,0,.23.06h0l1.14.28h0l.07,0h0l.08,0,.2,0,.21,2.51-1.49-.33h0l-1.65-.35-1.72-.35h0l-1.78-.36Zm1.42-.89h0Zm.09.1,1.42.34.09,1-1.25-.29-.18,0Zm1.63.31Zm.09.1,1.34.34.08,1-1.16-.28h0l-.18,0Zm1.62.41,1.27.32.09,1L88,59.3h0l-.19,0Zm1.55.4,1.43.37.08,1-1.22-.3h0l-.21,0Zm1.7.44,1.37.36.09,1L91,60.05Zm1.56.32.2,0,.11,1.14-.21-.06Zm.4,1.13-.1-1.15.36.1.11,1.14Zm-3.7-4.71-.2-.06-.08-1,1.42.43.08.94ZM82.51,54h0l-.16,0-.08-1,1.49.4.08,1Zm-6.66-1.63-.72-.17L74.4,52l-.1,0-.07-1.12,1.82.44.07,1.1Zm-9.39-2.08-.85-.18-.87-.18h0l0-1.2,2.18.47.05,1.19Zm-9.19,2.54.55-.12.72-.08h0l.88,0h1l1.09.06h0l1.12.11h0l1.12.15h0l1.08.18h0l.87.17.86.16.85.16.83.16h0l.83.16h0l.81.16.81.16.79.16.78.16.76.16h0l.76.15.75.16.73.15.73.16.71.15h0l.7.15.69.15.69.15.67.15.66.15h0l.66.15.64.14.63.15.63.14h0l1.81.43h0l1.71.42h0l1.64.41h0l1.55.4,3.11.82h-.05l-1.63-.43-1.7-.45L87.58,58h0L86,57.61h0l-1.72-.41-1.8-.43h0l-1.89-.43h0l-2-.44-2.08-.45h0L74.33,55,72,54.53h0l-2.33-.47h0l-2.46-.48h0l-2.56-.48h0l-.32-.05h0l-.66-.11h0L63,52.85h0l-.33-.05h0l-.32,0h0l-.69-.06h0l-.65,0h0l-.33,0h-.9l-.53,0H59l-.19,0h0l-.44.05h0l-.33.08-.19,0h0l-.07,0-.21.09h0l-.09.11-.07,0h0s0,0,0,0,0,0,0,0h0v.46l-.22-.12-.24-.22-.05-.19.14-.17Zm-.39.08h0l-.07.1-.08-2.87v-.07l.1-.14,0,0,.21-.11.07,0,.09,3Zm-.14-3-.39.08h0l.45-.09Zm-.08.11,0,.05-.08,0Zm.68,7.52-.33.13h0l-.08.08-.08-3,.14-.16.15-.07.13-.06Zm-.39-3H56.9l-.15.18v0h0l.08,3.13h0l0,.19h0s0,0,0,0l.26.2h0l.28.13v.2l-4-.78-.09-4.18Zm.49,3.4h0v0h0v.39l-.23-.11L57,58l0-.15.13-.14.35-.13.55-.11.74-.07h0l.88,0h1l1.1.06h0l1.13.09h0l1.14.12h0l1.1.16h0l1.74.28.85.14h0l1.68.28.81.13.81.14.8.13.78.14.78.13h0l.76.13.75.14,1.46.26L77.7,60h0l1.38.26,1.34.25.66.12.65.13.63.12h0L83,61h0l1.81.37h0l1.72.36,1.65.34h0l1.56.35,3.07.68h0l-1.64-.36-1.71-.38L87.9,62h0l-1.64-.35-1.72-.35h0l-1.81-.36h0l-1.9-.37h0l-2-.38h0l-2.08-.38-2.18-.39-2.3-.4h0l-2.35-.39-2.47-.41h0l-2.58-.42h0l-.34,0h0l-.64-.09h0l-.68-.08h0l-.34,0h0l-.33,0h0l-.69-.06h0l-.66,0h0l-.33,0h-.9l-.54,0h-.29l-.2,0h0l-.44,0h0l-.19,0-.15,0h0l-.19,0h0l-.08,0-.22.08h0l-.1.09Zm17.2,1.69h0l.07,1.24h0l-.08-1.29h0l0,0Zm-.13,0h0l.07,1.29h0l-.08-1.28h0Zm0,1.27-.31,0-.76-.13h0l-.88-.14-.06-1.23,2,.34Zm-2.12-1.61h0l.07,1.26h0l-.07-1.31h0v0Zm-.15-.06h0l.07,1.31h0l-.07-1.3h0Zm0,1.29L71,60.2l-.88-.14-.06-1.24,2,.33ZM70,58.75h0l.07,1.29h0L70,58.71h0a0,0,0,0,0,0,0Zm-.15-.06h0L70,60h0l-.07-1.32h0Zm0,1.32-1.23-.19-.88-.14-.06-1.27,2.11.35Zm-2.27-1.67h0l.06,1.31h0L67.5,58.3h0l0,0Zm-.17-.06h0l.06,1.37h0l-.06-1.34h0ZM65,57.93h0L65,59.28h0l-.06-1.38h0a0,0,0,0,0,0,0Zm-.08,1.33h0l-.06-1.36h0a0,0,0,0,0,0,0h0Zm-.15,0-.7-.1h0l-.93-.09L63,57.74l1.64.2ZM63,57.67h0L63,59h0l-.05-1.4H63l0,0a0,0,0,0,0,0,0Zm-.19,0h0v0h0l.05,1.4h0l-.05-1.37Zm0,1.36-1-.07h0l-.66,0,0-1.32,1.63.11Zm-1.79-1.48h0l0,1.36h0l0-1.4h.06v0Zm-.17,0h0a0,0,0,0,0,0,0h0l0,1.41h0l-.05-1.36h0Zm0,1.37H59.36l0-1.29,1.35,0Zm-1.53-1.36h0l0,1.35h0l-.05-1.38h0Zm-.12,0h0Zm0,1.38h-.3l-.58.05,0-1.22.87-.12ZM57.9,59l-.27,0,0-1,.27-.15Zm-.39.16h.09l.35-.07h.16l.62,0H61l.7,0h0l1,.08h.14l.14,0,1,.1h0l.76.1h0l.13,0h0l.12,0h0l.09,2.08L57.5,60.05l0-.89Zm7.62.14h0L65.05,58l2.21.36.06,1.27L66,59.42ZM74.9,64h0L75,65.32h0L74.88,64h0a0,0,0,0,0,0,0Zm-.13,0h0l.08,1.33h0L74.77,64h0Zm-.11.06.07,1.25-1.08-.14L72.76,65l-.07-1.28Zm-2.12-.56-.29.05-.26,0h0l-.49.08v-.07h0v0h0L47.5,59.31l1-.21,24.18,4.34Zm.06.22h0L72.67,65h0l-.07-1.36h0l0,0Zm-.15,0h0L72.55,65h0l-.08-1.34h0Zm-1.08,0v.09l0,.32L47,59.83l0-.51.25,0Zm.1.51a0,0,0,0,0,0,0s0,0,0,0h0l0-.34.49-.08.37.05L72.41,65l-1.14-.15-.87-.11,0-.43Zm-6.1,8.33h0v0h.06L65.48,74h0Zm-.1,0,.06,1.4-.71,0,.11-1.4Zm.26,1.55h.15l.14,3.27-1.09,0h0l-1.17,0H63v-.09L64.32,77h0a0,0,0,0,0,0,0h0s0,0,0,0l.24-3Zm.23,3.44h0L65.82,79h0l-.06-1.58h0ZM65.64,79h0l-.06-1.53a0,0,0,0,1,0,0v0h.06L65.69,79h0Zm-.1,0-1.7,0-.06-1.44,1.7,0Zm-1.85-1.53h0L63.74,79s0,0,0,0h-.06l-.06-1.6h.08a.05.05,0,0,0,0,0ZM63.55,79h0l-.06-1.53h0v0h.06L63.6,79h-.06a0,0,0,0,0,0,0Zm-.1,0-1.69,0,0-1.45h.06l1.63,0Zm-.39-1.85V77l.63,0ZM63,76.91h0l0,.2h0v.11l-21.3-1.09L42.39,69,63.3,73Zm-21.43-.78L37,76.67l.05-.37,4.2-.52a0,0,0,0,0,0,0h0a0,0,0,0,0,0,0L42,69l.29,0Zm.05.09,20.76,1.07-.58,0h-.4l-1.5.15h-.24l-.6.06h0s0,0,0,0,0,0,0,0L58.88,79v0l-.23,2.61h0v.06h0v0h0v.09h0l-.26,2.88,0,.34,0,.43v.15l0,.21-1,0h0v0h0v-.06h0v-.14h0v0h0v-.12l.23-2.58h0v-.12h0l.08-.92h0v0h0v-.15L57.9,79,58,77.76v0s0,0,0,0a.09.09,0,0,0,0,0L55.17,78l0-.49s0,0,0,0h0a.07.07,0,0,0-.05,0l0,.55h0l-.26,2.87-.08.84h0l-.25,2.7-.09,1h0v.14h0l0,.2h0l0,.13-1,0h0v-.14h0l0-.11h0v0h0v-.08h0v-.14l.23-2.51h0l0-.12h0l.08-.9h0v-.11h0l.13-1.38,0-.43.17-1.79,0-.59s0,0,0,0a0,0,0,0,0,0,0L54,78.1h-.22l-.36,0h-.06L51,78.39l.11-1.09a0,0,0,0,0,0,0,.05.05,0,0,0-.06,0l-.11,1.14,0,.49,0,.13-.08.89v.12l-.09.89v.12l0,.5h0l0,.2h0v.11l-.09.88v.12l-.24,2.47v.12h0l0,.21,0,.26-1,0v0l0-.27v-.1h0v0h0v-.08h0v0h0l0-.12.24-2.44v-.12l.08-.88v-.1h0V81.6h0l0-.5V81l.09-.88V80l.09-.88V79l0-.42.12-1.2a.07.07,0,0,0,0,0,.05.05,0,0,0,0,0l-.12,1.15-.29,0-.34,0-.13,0-1.85.18-.62.06.17-1.71a.05.05,0,0,0,0-.06s-.05,0-.05,0l-.18,1.76,0,.2v.12l0,.12,0,.2,0,.54v.12l-.09.87v.11l-.05.49h0l0,.19h0v.1l-.09.86-.11,1.12-.14,1.38,0,.12h0v0h0v.13h0v.05l0,.41h0l-1.07,0s0,0,0,0l0-.41h0v-.05h0l0-.3.12-1.18,0-.45h0l.07-.72h0V82.8h0l.05-.52,0-.3h0v-.12h0l0-.16h0v0h0v0h0l0-.15v-.08h0v-.2h0l.05-.5,0-.18h0l.05-.49h0v0l0-.25h0l0-.27h0l0-.47.19-1.83s0-.05,0-.05a0,0,0,0,0-.05,0l-.19,1.8L45,79,44.5,79h0l-.41,0h-.17l-.19,0-.19,0-.22,0h-.1l-.3,0h-.18l-.92,0L42,76.89a0,0,0,0,0,0,0,.05.05,0,0,0-.06,0l-.24,2.31-.42,4L41,85.61l0,.5h0l-1.11,0h0l0-.48.26-2.45.43-4,.24-2.22a.07.07,0,0,0,0-.06h0a0,0,0,0,0,0,.05l-.24,2.18L36.76,79,37,76.76ZM61.66,79h0l-.06-1.49h.05l0,1.48Zm-.18,0h0l0-1.46h0l0,1.48h0v0Zm-.09,0H60l0-1.27,1.4-.14ZM59.85,79h0l0-1.32h0l0,1.31Zm-.21-.06-.66,0,.11-1.21.51,0Zm-.84,4h0l.07,2.57s0,0,0,0h0v0h0s0,0,0,0a0,0,0,0,0,0,0h0v.21h0l-.11-4h0v0h0l0,1s0,0,0,0h0a0,0,0,0,0,0,0,0,0,0,0,0,0,0v0Zm-.31,2.68h0l0-.9.2-2.27.1,3.36H58.5v-.19Zm-.09.06v.13h0v-.13Zm0-.1v0h0v0Zm-3.89-.08v0h0v0Zm0-.1v0Zm0,.24v.11h0l0-.11Zm0,.21h.66l1.46,0-2.23,0V85.8ZM57.6,79h0l-.16,0h0a0,0,0,0,0,0,0s0,0,0,0h0l0,1.79-2.53,0,.25-2.78,2.76-.27L57.81,79Zm.2.08-.22,2.5h0l0-.66-.05-1.8.13,0ZM57.44,81l0,.67h.11v0l-2.74,0L54.9,81ZM55.19,82.7l0-.82,2.38,0-.07.83Zm2.28.08v0H55.19v0Zm-2.51-1h.12v0l0,.91v.12l.06,2.54v.12h0v0h0v.16H54.6v-.17h0v0h0V85.4l0-1,.25-2.66Zm.3,3.92V85.6l2,0v0l-.49.06Zm0-.22v0l2,0v0Zm0-.13,0-2.45h2.26l-.22,2.49Zm-2,.53-3,.06,0-.21,2.07,0h.91v.11Zm-3-.25v-.1l2.89,0-.84.1Zm2.9,0h0Zm-2.88-.26v0l3,0v0Zm0-.11.23-2.38h3l-.23,2.42Zm3-6.41v0L50.93,79v0Zm-2.36,0,0-.4,2.31-.22,0,.55Zm2.36.15,0,.8-2.48.06.07-.79Zm0,.9v0l-2.5.06v0Zm0,.13,0,.8-2.6,0,.08-.8Zm0,.9v0l-2.61,0v0Zm0,.11h0v.42h0l-2.72,0,0-.41Zm0,.52h0v.1l-2.76,0v-.1Zm.22.2v0l-3,0h0Zm-.11-.25h0V81l0-2.79.26,0,.05,2.13-.13,1.34h-.11v-.15Zm.1.36-.08.81h-3l.08-.79Zm-.08.9v0h-3v0Zm.33-4.6H54l-.09.91ZM49.05,86,45.81,86l0-.35H46l1.34,0h1.73L49,86A0,0,0,0,1,49.05,86ZM46,85.35h0s0,0,0,0h0V83.92l0-.22v1.6s0,0,0,0a0,0,0,0,0,0,0h1.21v0l-1.41,0v0Zm-.09-.1,0-.46v.46Zm.86-4.66-.1-.1h0a0,0,0,0,0-.07,0s0,0,0,0l-.08-.08h0a0,0,0,0,0-.07,0,0,0,0,0,1,0,0h0l0-.21h.37l.09.1h.07a0,0,0,0,0,0-.07l-.06-.06h.07l.13,0h0l.05,0v0h.06a0,0,0,0,0,0,0h0l.09.1h.07a0,0,0,0,0,0-.07l-.08-.08h.19l.15.06h0s0,0,0,0a0,0,0,0,0,0,0l1.28,0v.78l-2.67,0,0-.44.09.08a.05.05,0,0,0,0,0l0,0a0,0,0,0,1,0,0s0,0,0,0h0a.08.08,0,0,0,0,0h0l.09.09,0,0,0,0S46.77,80.6,46.75,80.59Zm0-.83-.23-.09h0l0,0h0v-.3a0,0,0,0,0,0,0h0v0h0a.09.09,0,0,0,0,0l0,0,0,0,0,0a0,0,0,0,0,0,0h.18l0,0h0l.22.09h0s0,0,0,0a0,0,0,0,0,0-.06l-.2-.08s0,0,0,0a0,0,0,0,0,0,0h0s0,0,0,0h.18a0,0,0,0,0,.05,0,0,0,0,0,0,0,0h0l.09.09h-.16s0,0,0,0a0,0,0,0,0,0,0h0L49,79.16v.78l-1.19,0,0,0-.22-.08,0,0h0a0,0,0,0,0,0-.06l-.22-.09,0,0a.05.05,0,0,0-.07,0s0,0,0,.06l0,0,.22.08h0s0,0,0,.06h0l.07,0h-.46L47,79.9h0l.09,0,.07.07,0,0,0,0a0,0,0,0,0,0-.07l-.1-.09h0v0s0,0-.07,0a0,0,0,0,0,0,0l-.62.22h0l0-.24,0,0h.05l.22.09h0s0,0,0,0S46.8,79.76,46.78,79.76ZM47,79H46.8a0,0,0,0,0,0,0l-.11,0,0,0a0,0,0,0,0-.05,0h0v-.1l.23,0a.05.05,0,0,0,0,0h0Zm-.06-.12h0l.18,0a0,0,0,0,0,0,0l0,0h0a0,0,0,0,0,0,0h0Zm-.19.25h0s0,0,0,0l-.06-.06h.07Zm.47-.28.07,0h0s0,0,0,0a0,0,0,0,0,0,0L49,78.68v.26l-1.7,0,0,0L47.18,79h0v0h0s0,0,0,0S47.18,78.87,47.17,78.85ZM49,79v0l-1.7,0h0s0,0,0,0Zm0,1v0l-1.42,0a0,0,0,0,0,0,0h0l-.07,0h0Zm-1.63.07H47l-.08,0H47l0,0h.29ZM46.74,80l.2-.07s0,0,0,0v0h-.23Zm-.28.1h.32s0,0,0,0h-.37ZM49,81v0l-2.68,0h0Zm0,.11h.47l0,.4h-.42l-2.79,0,0-.4Zm0-1h0V80h0v-.87h0V79h0v-.31h0l0,2.39h0V81h0Zm.36-1h0V80h0v.13h0V81h0V81h-.25l0-2.4.25,0V79h0Zm-.39,2.54h.41v.1l-3.21,0v-.1Zm-1,1.09V82h1.44l-.07.78Zm1.35.09v0H48v0ZM48,81.87h0l1.46,0h0Zm-.62,3.56h0v-.11l0-2.42v-1h.56v1l0,2.42v.14h0v.15h-.56v-.17Zm-.09-.16H46.15l0-2.31h1.13Zm0-3.41v0h-1Zm0,.11v.77H46.14l.08-.76Zm0,.86v0H46.13v0ZM46,85.48l1.31,0v.1l-1.25,0h0v0h-.16v0Zm2.06,0h1l-.83.09H48Zm1,.12h0Zm-1-.24v0l1.07,0v0Zm0-.11,0-2.34h1.34l-.23,2.35Zm1.52-5.23v0h.07v0Zm.06.09,0,.55v-.55Zm-.06-.22v-.78h.17l-.08.78Zm0-.87v0h.18v0Zm0-.13v-.3l.23,0,0,.32Zm-5,7.13-3.51.06.05-.45,2.92,0h0s0,0,0,0h.54l0,.37S44.56,86,44.56,86.05Zm-1.9-6.26v1h0V81h0v.72h0v.12h0V82h0v1.14h-1.3l.41-3.9.88,0v0h0Zm.05,3.45h1.78v2.28l-3.39,0,.25-2.34Zm.09-4h0l.08.06h0a.06.06,0,0,0,0,.06h0l0,.07h0a.07.07,0,0,0,0,0l-.08-.06s0,0,0,0a0,0,0,0,0-.06,0h0v0h0a0,0,0,0,0,.05,0Zm.36,0-.07,0h.09s0,0,0,0Zm.08.14h0v0h0a0,0,0,0,0,0,0h0l-.09,0v0Zm0,.14,0,.06-.07,0-.13-.09h.07l0,0Zm-.18.09h0l.06,0,.17.12h0a.08.08,0,0,0,0,0l0,0a.05.05,0,0,0,0,0l-.17-.07h0l0,0h0a0,0,0,0,0-.06,0v0h0a0,0,0,0,0,0,.08h0a.07.07,0,0,0,0,0v0h0s0,0,0-.06l-.06-.06h0v0a0,0,0,0,0-.07,0s0,0,0,0h0s0,0,0-.05v-.13l0,0h0l0,0s0,0,0-.06l-.06-.06h0v-.1a0,0,0,0,0,0,0h0l0,0a0,0,0,0,0,0,0,0,0,0,0,0,0,.06l0,0h0Zm.36-.33.07.05h0v0h0l-.08-.06h0s0,0,0,0Zm0,.18a.08.08,0,0,0,0,0h0l0,0,0,0a0,0,0,0,0,0,.06s0,0,0,0h0l.09.07s0,0,0,0h0l0,0a.06.06,0,0,0,0-.07h0l-.11-.09h0a0,0,0,0,0-.07,0v0l.07,0h0s0,0,0,0a0,0,0,0,0,0-.06l-.1,0,0,0h0l0,0h.07Zm.06-.23h0Zm.31-.08H44l0,0h0v.08l0,0h0l-.06,0h0Zm.43.14a0,0,0,0,0,0,0h0l-.16-.06h0Zm-.06-.2h0v0h0Zm.24.17s0,0,0,0h0l-.07,0s0,0,0,0a0,0,0,0,0,0-.06l0,0v-.07h.07l0,.14h0v0Zm.1.89h0l0,0h0s0,0,0,0h0l0,0,0,0,0,0h0v-.08h0l.06,0v0S44.56,80.18,44.59,80.19Zm0-1h0v0h0Zm.29.54v.12h0a0,0,0,0,0,0,0l-.09-.09h0a.07.07,0,0,0,0-.06h0l.06,0h0Zm0-.13Zm.09-.31v0h0v-.07h0v.19a0,0,0,0,0,0,0h0a0,0,0,0,1,0,0A0,0,0,0,0,45,79.27Zm0-.21Zm0,.36Zm0,0h0Zm0,.15h0l0,0a0,0,0,0,0,0,0V80h0v-.12l0-.12h0s0,0,0,0h0l0,0A.05.05,0,0,0,45,79.61Zm0,.54h0v.06l0,0h0l0,0Zm0,.15h0v0h0l-.1,0h0ZM45,81.46h0v.07l-.11,0h0s0,0,0,0,0,0,0,0l0,0,.06,0h0s0,0,0,0a0,0,0,0,0,0-.06l-.07,0a0,0,0,0,0,0,0l.12.05A.06.06,0,0,0,45,81.46Zm-.8.62,0,0h0l0,0a.06.06,0,0,0,0,0h0s0,0,0,0v0h0A0,0,0,0,0,44.21,82.08Zm-.06.77v0a0,0,0,0,0,0,0l0,0,0,0a0,0,0,0,0,0,0Zm-1.22-.41-.17-.07v-.14h0l.09.09h.07a0,0,0,0,0,0-.07l-.08-.07h0a0,0,0,0,0,0-.06l-.08,0v0h0a0,0,0,0,0,0,0,0,0,0,0,0,0,0h.13l0,0a.05.05,0,0,0-.05,0,0,0,0,0,0,0,.06h0a0,0,0,0,0,0,0s0,0,0,0h0l0,0s0,0,0,0l0,.06h0v0a0,0,0,0,0,0,.05h0l.08.28a.05.05,0,0,0,.05,0h0s0,0,0-.06h0l.18.08h-.17s0,0,0,0l0-.05,0,0a0,0,0,0,0-.07,0s0,0,0,0L43,82.68l0,0a0,0,0,0,0-.07,0s0,0,0,0,0,0,0,0,0,0,0,0h-.07v-.26l.14.06h0a.05.05,0,0,0,0,0A0,0,0,0,0,42.93,82.44Zm-.1-.88h0a0,0,0,0,0,0,0h0l0,0v-.07a0,0,0,0,0,0,0h0l.11.09H43a0,0,0,0,0,0-.06h0a0,0,0,0,0,0,0l.15.06s0,0,0,0h-.07a.07.07,0,0,0,0,.06l0,0h0a0,0,0,0,0-.06,0h-.06a0,0,0,0,0,0,.05,0,0,0,0,1,0,0h-.06v-.07h0a.05.05,0,0,0,0,0h0A0,0,0,0,0,42.83,81.56Zm0-1.54s0,0,0,0l0-.07h0s0,0,0,0l.07.07v0l0,0h0A0,0,0,0,0,42.8,80Zm.05.41h0Zm-.06-.23h0v0h0Zm0,.31h.05a.05.05,0,0,0,0,0l0,0s0,0,0,0l-.08,0a.06.06,0,0,0,0,0l-.06,0v0Zm.11-.15Zm0-.26h0Zm.07.65h-.07a0,0,0,0,0-.06,0,.05.05,0,0,0,0,.07h0l0,0h0l.13.05h0A0,0,0,0,0,43,81h0l-.06,0,0,0h0l0,0-.11,0a.08.08,0,0,0,0,0,.09.09,0,0,0,0,0h0v-.07Zm0-.28Zm.24-.64-.12,0h0l.1,0,0,0v0h0l.1.08h.06v0a0,0,0,0,1,0,0h0l0,0h0l0,0s0,0,0,0h0a0,0,0,0,0,0-.06h0a.06.06,0,0,0-.07,0v0l-.07,0h0s0,0,0,0l-.06,0h0l0,0a.05.05,0,0,0,0,0l0,0,.09,0h0a.05.05,0,0,0,0,0S43.22,79.84,43.2,79.83Zm.55-.21h0v0h0S43.75,79.62,43.75,79.62Zm0,.3v0s0,0,0,0a0,0,0,0,0,0,0s0,0,0,0,0,0,0-.06h0l0,0,0,0h0l0,.16-.06,0h0a0,0,0,0,0-.06,0s0,0,0,0h0l0,0s0,0,0,0S43.74,79.93,43.74,79.92Zm.09.23,0,0h0a0,0,0,0,0,0,0,0,0,0,0,0,0,0h0s0,0,0,0h0s0,0,0,0v0h0a.06.06,0,0,0-.07,0h0l0,0a0,0,0,0,0,0,0l0,0s0,0,0,0a0,0,0,0,0,0,0s0,0,0,0v0a0,0,0,0,0,0,0Zm.14.42v.31l0,0A0,0,0,0,0,44,81h0a0,0,0,0,0-.06,0s0,0,0,0h0l0,0s0,0,0-.06a0,0,0,0,0,0,0,.07.07,0,0,0,0,0l-.09-.07s0,0,0,0,0,0,0,0,0,0,0,0v0l0-.06h0a0,0,0,0,0,0-.07l-.09-.06h0l0,0s0,0,0,0l.09,0a.05.05,0,0,0,0,0Zm0-.85h0v0Zm-.33,3.15v0H44v0ZM44,83V83L43.76,83Zm-.37-.2v-.09h0l.18.08h-.2Zm.21-.18-.05,0h0l0,0,0,0a0,0,0,0,0-.06,0l0,0h0s0,0,0,0v0h0a0,0,0,0,0,0-.06h0l0,0h0a0,0,0,0,0,0,.06l0,0h0l.23.09h0l0,0h0l-.13.06Zm-.58-.12h0a0,0,0,0,0-.06,0s0,0,0,.06h0l0-.12.12-.05,0,0S43.24,82.44,43.26,82.46ZM43.05,82h0a.05.05,0,0,0,0,0l.13,0h0l0,0h0l-.14,0h0Zm-.13-.59h0l-.06,0h0a0,0,0,0,0,0,0h0l.06,0h0Zm0-.32.1,0h-.12l0,0a0,0,0,0,0,0,0,.05.05,0,0,0,0,0v0h0s0,0,0,0l0,0v0A0,0,0,0,0,42.94,81.11Zm.51-.87,0,0h0l-.07-.06a0,0,0,0,0,0,0l-.1,0H43.2l0,0h0s0,0,0,0l.2.08h0S43.43,80.23,43.45,80.24Zm0,.33,0,0h0a0,0,0,0,0,0,0h.07l0,0h0l-.08-.07h-.05s0,0,0,0,0,0,0,0h0l0,0h0l0,0s0,0,0,0h0s0,0,0,0l0,0A0,0,0,0,0,43.49,80.57Zm.11-.15,0,0h0a0,0,0,0,0,0,.06l0,0h0v0h0a0,0,0,0,0,0-.06l-.07,0h0a0,0,0,0,0,0-.06l0,0a0,0,0,0,0,0,0v0l0,0h0l0,0s0,0,0,0A0,0,0,0,0,43.6,80.42Zm.23,1.07h0s0,0,0,0h0l0,0a0,0,0,0,0,0,0v0h0v0l.11,0h0Zm.11.7,0,0h0s0,0,0,0h0v0h0l.05,0h0ZM43.68,82l0,0h0l0,0h0s0,0,0,0Zm0-.14v0h0a0,0,0,0,0,0,0Zm.06.45a0,0,0,0,0,0-.05h0l.11.08h0a0,0,0,0,0,0,.06s0,0,0,0h0s0,0,0,0h0a.06.06,0,0,0,0,0l-.08,0a.08.08,0,0,0,0,0l-.08-.06v0Zm0-.26Zm.1-.17h0Zm0,.23Zm.08-.8v0h0Zm0-.13h0Zm0,.84-.09,0h0a0,0,0,0,0,0,0h0v0h0l0,0h0v0h0Zm-.06-.24h0Zm0-.08s0,0,0,0h-.08a.05.05,0,0,0,.05,0h0l.06.06h.06Zm-.06-.34s0,0,0,0h0l0,0Zm0-.1a0,0,0,0,0,0,.06l-.08-.06s0,0,0,0h0a.05.05,0,0,0,.05,0h0l0,0Zm-.09-.14h0Zm0,.25a0,0,0,0,0,0,.06h0l-.11-.09h0Zm-.18-.23h0v0h0Zm0-.1h0Zm.08.72v.1h0l0-.1Zm0,.77h0Zm0,.22h0a0,0,0,0,0,0,0l0,0v.11l0,0h0a0,0,0,0,0,0,0S43.52,82.71,43.51,82.7Zm0-1.1v0h0l0-.06v0h0A.08.08,0,0,0,43.51,81.6Zm0-.78h0s0,0,0,0l-.08,0a.06.06,0,0,0,0,0v0h0l.06,0h0a0,0,0,0,1,0,0h0v0a0,0,0,0,0,.05,0h0l.06,0Zm0,.18h0Zm0,.19Zm-.07-.07h0s0,0,0,0h0Zm.14-.42h0Zm-.25.24a.07.07,0,0,0,0,0l0,0s0,0,0,0h0V81h0s0,0,0,0l-.11,0h0A.09.09,0,0,0,43.21,80.94Zm0-.39h0Zm.09.52Zm0-.43h0l0,0h0s0,0,0,0Zm0-.18v0h0Zm0,.07Zm-.06-.33,0,0s0,0,0,0v0h0l-.09-.07h0a0,0,0,0,0,0,0h.05Zm-.05.22s0,0,0,0v0l-.07,0L43,80.37Zm-.11.24h0l.07,0h0l0,0h0l0,0Zm0,.16h0l0,0h0l0,0,0,0Zm0,.22h0s0,0,0,0h0Zm.17.2h0s0,0,0,0h0s0,0,0,0h0l.11.08h0s0,0,0,0l-.09,0h0l0,0h0l-.14-.06h0s0,0,0,0h0a0,0,0,0,0-.05,0v0Zm-.07.33h0s0,0,0,0h0s0,0,0,0h-.09v0Zm.06.34h.13l0,0h0l0,0h0s0,0,0,0l-.1,0h0s0,0,0,0Zm.15-.1,0,0a0,0,0,0,0-.06,0h0l.05,0h0l0,0h0a0,0,0,0,1,0,0h0v0Zm0-.16,0,0h0l0,0s0,0,0,0l0,0a.06.06,0,0,0,0-.07,0,0,0,0,0-.07,0,0,0,0,0,0,0,0,0,0,0,0,0,0-.06h0s0,0,0,0h0l.09,0h0a.08.08,0,0,0,0,.07h0Zm-.46-.36h0l0,0s0,0,0,0h0a0,0,0,0,0,0,0l0,0h0a0,0,0,0,0,0,.06l-.1,0s0,0,0,0Zm.24.39s0,0,0,0h0l0,0h0l-.08,0v0l0,0h0Zm-.07.52h0l0,0h0a.06.06,0,0,0,0,.07h0l0,0h0l0-.06s0,0,0,0h0S43.09,82.22,43.09,82.2Zm.19.06a.06.06,0,0,0,0,0l-.08-.06.05,0h0l0,0a0,0,0,0,0,0-.06h0l.12,0h0a0,0,0,0,0,0,0s0,0,0,0h0a0,0,0,0,0-.06,0,0,0,0,0,0,0,.06l0,0h0l0,0h0s0,0,0,0v0h0v0h0l-.07,0h0v0a0,0,0,0,0-.06,0h-.07Zm.13.16s0,0,0,0l0,0h0v0h0Zm-.1.18h0a0,0,0,0,0,0,0l0,0h.07v0h0l0,0-.07,0a.05.05,0,0,0,0,0l-.12-.05h0Zm.12.22h0l.09.07h0l-.08,0h0l-.05,0h0a0,0,0,0,0,0,0Zm.08-1.38s0,0,0,0h0l.05,0s0,0,0,0Zm.05.7,0,0h0s0,0,0,0l0,0s0,0,0,0h0l0,0h0l-.07-.06Zm.42.33h0v0Zm-.2-2.08h0l0,0h0Zm0,.53h0l0,.07h0s0,0,0,0v0a.05.05,0,0,0,0-.05h0l0,0h0a0,0,0,0,1,0,0l0,0a0,0,0,0,0,0,0h0Zm-.07-.66s0,0,0,0h0l-.06,0h0a0,0,0,0,0,0,0h0a.07.07,0,0,0,0,0h0A0,0,0,0,0,43.68,80.26Zm0-.2s0,0,0,0L43.53,80s0,0,0,0h0a.05.05,0,0,0,0,.07h0l0,0Zm0-.17h0l-.08-.06s0,0,0,0l0,0h0a0,0,0,0,0,0,0h0l.07.06s0,0,0,0h0a0,0,0,0,0,0,.05h0Zm-.15,0Zm0,0h0v0Zm-.33.14,0,0h0s0,0,0,0h0v0h0s0,0,0,0h.05Zm-.08.11s0,0,0,0,0,0,0,0a0,0,0,0,0,0,.06v0h0l0,0-.09,0s0,0,0,0l0,0h0Zm-.25,1.09a0,0,0,0,0,0,0s0,0,0,0,0,0,0,0h0l0,0h0a0,0,0,0,0,0,.06h0s0,0,0,0h0l0,0h0Zm.27.69h0s0,0,0,0h0l0,0Zm-.12-.09,0,0,0,0-.07,0h0Zm-.15.11h.06a.05.05,0,0,0,0,0s0,0,0,0l0,0Zm.09.91.12,0h0l.38.09.09,0,.59.14.09,0H42.76v-.32Zm1.24.19v0Zm0-.35-.07.06h-.1a0,0,0,0,0,0-.06h0a0,0,0,0,0,0,.06h0s0,0,0,0,0,0,0-.06h0a0,0,0,0,0,0,0h0s0,0,0,0l0,0h0Zm-.06-.42.05,0,0,0v0h0Zm.09.21h0v.07h0Zm0-.17h0Zm0-.71h0v0h0v0Zm0-.61-.06,0,0,0,0-.12h0a0,0,0,0,0,0,.07l0,0h0s0,0,0,0l0,0,.06,0h-.11A.06.06,0,0,0,44.15,81Zm0,.21h0l0,0v-.06l0,0a.05.05,0,0,0,0,0S44.13,81.19,44.13,81.2Zm0-.68,0,0h0l.08,0h0S44.14,80.51,44.14,80.52Zm0,.1h0l0,.07a0,0,0,0,1,0,0v-.09Zm0,1.14h0s0,0,0,0h0l-.07,0h0v0Zm.09-1h0Zm0-.08.05,0h0s0,0,0,0v0Zm0-1,.08-.07h0l0,0,0,.14-.12-.06s0,0,0,0Zm0,.14,0,0s0,0,0,0l0,0a0,0,0,0,0,0,0h0l-.13-.06h0l-.06,0h0l0,0h0a.05.05,0,0,0,0,0Zm.13.45h0v0h0ZM44.17,80l.08,0h0l-.07,0Zm.08.41h.06s0,0,0,0l0,0h0l0,0h0l0,0s0,0,0,0v.08l0,0-.1,0,0,0Zm.09-.25h0Zm.09.32,0,0h.05v0h0s0,0,0,0h0a.05.05,0,0,0,0,0s0,0,0,0h0a.09.09,0,0,0,0,0h0l-.06,0s0,0,0,0h0a0,0,0,0,0,0-.06l0,0,0-.1Zm0-.72h0l0,0,0,0a0,0,0,0,1,0,0v0Zm0,.49h0l0,0s0,0,0,0a0,0,0,0,0,0,.06h0v0h0v0h0l-.07-.06v0a0,0,0,0,0,0,0s0,0,0,0Zm.26.69h0v0h0l-.06,0h-.07v0l.07-.16h0a0,0,0,0,0,0,.06l0,0s0,0,0,0A0,0,0,0,0,44.72,81Zm-.13.19a0,0,0,0,0,0,0h0l0,0h0v0h0Zm0,.25h.07a0,0,0,0,0,0-.07l0,0h0l.06,0s0,0,0,0l0,0h0l0,0,0,0a0,0,0,0,0,0,0h0v0h0a0,0,0,0,0-.06,0l-.07-.05h0l0,0h0Zm.18-.4h0S44.77,81,44.76,81Zm0,.18h0l0,0v0a0,0,0,0,0,0,.06h0s0,0,0,0h0l-.07,0h0A.05.05,0,0,0,44.8,81.17Zm.1.69h0a0,0,0,0,0,0,0h-.06a0,0,0,0,0,0,0h0l0,0h0a0,0,0,0,0,0-.06h.05a.05.05,0,0,0,0,0h0s0,0,0,0h0l0,0h0l.07.07s0,0,0,0Zm-.68-.06h0v0a.07.07,0,0,0,0,0h0l.07,0h0a0,0,0,0,0,0,.07h0Zm.07.14h0v0h0Zm0-.34h0a.06.06,0,0,0,0,0h0s0,0,0-.05l.07,0h.07a.08.08,0,0,0,0,0l.06,0h-.07s0,0,0,0h0a0,0,0,0,1,0,0,0,0,0,0,0-.07,0l0,0A0,0,0,0,0,44.29,81.6Zm0-.24h0l.06,0h0l-.15-.07,0,0h0l0,0h0l0,0a.05.05,0,0,0,0,0h0Zm0-.13h.05l.07,0v0h0v0h0a.05.05,0,0,0,0,0h0s0,0,0,0Zm.14.19h0Zm.22.18,0,0,0,0s0,0,0,0l-.15-.07h0a0,0,0,0,0,0-.07l-.07-.06h0v0h0l.09.08h.09S44.67,81.59,44.69,81.6Zm-.08.32h0l0,0,0,0h0S44.61,81.93,44.61,81.92Zm0-.17h0s0,0,0,0h0l.1,0A0,0,0,0,0,44.58,81.75Zm-.06,0Zm0,.09-.05,0h0l0,0h0a0,0,0,0,0,0,0h.07Zm-.16-.25h0l0,0h0s0,0,0,0h0s0,0,0,0l0,0Zm0,.6.09,0h0l0,0h0l-.08.06-.07,0Zm.08-.07s0,0,0,0,0,0,0-.06L44.37,82h.05l.1.09h0l.07.06h0s0,0,0,0v0l0,0-.15-.06h0Zm.21-.06h0a0,0,0,0,0,0,0h0l0,0h0s0,0,0,0h0Zm.06.15,0,0h0v0h0Zm0-.25,0,0h0a0,0,0,0,0,0,0,0,0,0,0,0,0,0h0l0,.06,0,0h0l0,0Zm.12-.39-.05,0s0,0,0,0h0a0,0,0,0,1,0,0h0v0s0,0,0,0a0,0,0,0,0,0,0Zm-.36-.77h0V81a.06.06,0,0,0-.06,0s0,.05,0,.06h0l-.11,0v0h0a.06.06,0,0,0,0-.07l-.07,0s0,0,0-.05l0,0,.07,0h0a.05.05,0,0,0,0,0,.06.06,0,0,0,0,0,0,0,0,0,0,0,0h0Zm-.23-.08h0v0l0,0h0s0,0,0,0h0Zm-.08.66h0l0,0,0,0A0,0,0,0,0,44.17,81.41Zm.07.94h0l.09.07v0l0,0h0l.12-.09s0,0,0,0l.09,0-.16.18,0,0-.22-.09h0v0Zm.08.18.12,0h0l0,.06v0a0,0,0,0,0-.06,0v-.08Zm0,.43h.58l-.06.61-.23,0v-.33h0v0h0l-.26-.07Zm0-.09,0,0h.55v0Zm.1-.12.32-.36h0s0,0,0,0h.07l.1-.09h0v0l0,.44Zm.47-.54h0l-.06.06v0h0s0,0,0,0a0,0,0,0,0,0,0l.08-.12,0,0v.18h0S44.9,82.19,44.88,82.21Zm0-.51H45v0l0,0Zm0-1s0,0,0,0h0v.21s0,0,0,0h0a.05.05,0,0,0,0,0Zm0,.27,0,0h0l0,0Zm0,.13h0s0,0,0,0h0l0,0s0,0,0,0,0,0,0,0h0Zm0-.61h0l-.14-.06h0Zm-.13.08-.14-.06v0h0s0,0,0,0l0,0,.07,0s0,0,0,0Zm-.24-.48h0s0,0,0,0h0l0,0a0,0,0,0,0-.06,0Zm0,.09h0a0,0,0,0,1,0,0h0l.1,0h0s0,0,0,0h-.12Zm.15.07h0v0h0v0h0A0,0,0,0,0,44.79,80.22Zm.09.08h0v0Zm0-.89-.12,0s0,0,0,0l.12.05v0Zm0-.22s0,0,0,0h-.06s0,0,0,0v0h.16v0Zm0,.31-.12.07v-.12Zm0,.38,0,0a.05.05,0,0,0,0,0h0l0,.12,0,0-.18-.07v-.06h0a0,0,0,0,0,0-.07h.06Zm-.14.68h0l.22.09h0a0,0,0,0,0,0,0v.15h0l-.13,0h0l0,0h0a0,0,0,0,0,0-.06l-.09,0h0l.22.09h0a.05.05,0,0,0,0,0,0,0,0,0,0,0-.06l-.22-.09v0ZM44.5,80h0Zm0-.24h0l0,0s0,0,0,0v0s0,0,0,0a0,0,0,0,0,0,0l0,0h0l0,0Zm-.12-.32s0,0,0,.06h0l0,0h0v0h0a.05.05,0,0,0-.07,0v0l0,0h0s0,0,0-.06v-.1s0,0,0,0h0Zm-.06.17h0Zm-.2-.35h-.05v-.06s0,0,0,0h0l0,0Zm.09.25h0v0h0l0,0s-.05,0-.06,0h0l-.06,0v0h0Zm-.13.11h0l0,0h0l0,0h0l-.07,0,0,0Zm-.06.42h0Zm.12.15,0,0h-.18v0Zm-.14.13Zm0,0h0a0,0,0,0,0,0,0h0l0,0-.07,0A0,0,0,0,0,44.05,80.32Zm0,1.28h0l0,0v0h0s0,0,0,0h0v0S44,81.62,44,81.6Zm0,.45h0l0,0h0l.1.08h0s0,0,0,.06h0l-.08,0s0,0,0,0L44,82.08l0,0h0Zm-.08-2.71h0l0,0h0v0h0a0,0,0,0,0-.06,0,0,0,0,0,0,0,.06h0v0h0l-.09,0h0a0,0,0,0,0-.06,0h-.06s0,0,0,0a0,0,0,0,0,0-.06h0s-.06,0-.06,0a0,0,0,0,0,0,0h0a.06.06,0,0,0-.07,0h0l0,0a0,0,0,0,0,0,0,0,0,0,0,0,0-.06h0s0,0,0,0v-.09h.21Zm.65,6.18V84.14h.05v1.13l0,.25Zm0-1.48v-.35h.21l0,.35h-.18Zm.17.09,0,.15h0v-.14Zm.41-4.84s0,0,0,0,0,0,0,.06h0s0,0,0,0v-.19h0a.08.08,0,0,0,0,0v-.07l.19,0,0,.2Zm.08.06v0h0a0,0,0,0,0,0,0Zm-.16.1h0s0,0,0,0h0l0,0,.07,0,0,.14s0,0,0,0l-.15-.06a0,0,0,0,0,0,0S45.09,79.48,45.08,79.45Zm0,1.14s0,0,0,0,0,0,0,0h0v0h0l0,0v.1Zm0,.17v0Zm0-.38h0s0,0,0,0h0a.05.05,0,0,0,0,0,.06.06,0,0,0,0-.07h0v-.09h0s0-.05,0-.06l0,0h0l0,0h0l.05,0,0,.35Zm0-.51h0v-.23l.07,0h0a0,0,0,0,0,0,.06h0v.08h0ZM40.5,79.2l-.42,3.93H36.3l.45-4Zm-.43,4-.25,2.36-3.8,0,.27-2.42Zm-.26,2.45-.05.43s0,0,0,0l-2.33,0-1.48,0,0-.41Zm-2.42.59v.5h0v0h0l1,0v.5h0v0h0l.72,0v.5h0s0,0,0,0h0l.72,0v.45l-4.1-1.16.11-1Zm1.88,1.59v-.45l9.47-.25v.42Zm-.76-.57v-.45L48,86.63v.42ZM47,86.51l-9.51.21v-.45l23.92-.43v.36Zm13.6-4.73h0l2.66,0,0,.91-4.34,0,0-1,.76,0Zm-.88-.12h0Zm.44,0h.75v0l-.75,0Zm.84,0v0h2.77v.06Zm2.93,4.92h-.28l-.18-4.78h.28Zm-5-3.67h4.33l.1,2.55-4.25,0H59Zm1.84,2.79h0l-1.76,0V85.6l4.35.06,0,.85-1.43,0-.48-.27v-.42s0,0,0,0h0v0H60.8Zm2.67.87h0a0,0,0,0,0,.05,0h0l0-.94s0,0,0,0h0L59,85.51h0l4.36,0h0a0,0,0,0,0,0,0h0l-.09-2.63h0s0,0,0,0,0,0,0,0H60.21l3.13,0h0a0,0,0,0,0,0,0h0l0-1h0l.18,4.79-1.27,0-.11-.06Zm.54,0-.18-4.8h0a0,0,0,0,0,0,0h0v-.1h0v.11l.18,4.83ZM64,81.67h1.29v.06l-1.29,0Zm.94-.09H58.75L59,79.05h3.47l1.18,0h0l1.15,0,.94,0h.15l.1,2.47Zm1-4,2.27.08L68.2,79,65.92,79ZM77.7,78l.08,1.31-1.9-.06-.07-1.33Zm1.83,2.9.94-.14,7.08.19-.87.12Zm1.13-.23L81.94,80l7.42.26-1.23.61Zm1.3-.75-.06-.13,7.46.28h0l.06.11Zm-.11-.22-.07-.13h.35l1.94.08,1.84.07H86l3.2.12.06.11Zm3.91-1.41Zm.1,0Zm.09.07,1.46.08.09,1.19L86,79.6Zm1.66,0Zm.09.08,1.37.07.1,1.17-1.38,0Zm4.69.24.1,1.13-1.46,0-.1-1.15Zm2.39-2.65-.12-1.32-.1-1.15,1.24.14.35,3.75L94.9,77.4Zm-.23-2.57-.13-1.36-.11-1.29-.11-1.1,1.24.18.35,3.71Zm-.35-3.85-.13-1.38L94,67l-.09-1,1.23.23.34,3.66Zm-.35-3.8-.13-1.4-.11-1.26-.09-1,1.23.28.33,3.61Zm-.34-3.75-.13-1.42-.12-1.25L93,57l-.11-1.23L92.77,54l1.22.39.08.91.67,7.11Zm-.57-5.2-.36-.11-.11-1.13.37.11Zm-.46-.13-.21-.06-.09-1,.2,0Zm-35.73-8.5h0l-.07.1v-.33l0-.77V47l0-.43v-.65l.13-.21.28-.16.07,2.53Zm-3,.49h0l2.83-.63h0Zm0-.11,0-.66,2.83-.64,0,.67Zm0-.75h0l2.83-.65h0Zm-.05-.1-.11,0,3-.69v.06Zm-3.89,2.08-.21.05,0-1.21.21,0v.07l0,.74v.1h0Zm-.07-1.22,3.49-.81v.06l-3.39.78ZM53.19,48v0l-3.34.76h0Zm0,.11,0,.66-3.35.75v-.64Zm0,.76h0l-3.35.75h0Zm0,.1v.16h0l-3.31.73v-.14Zm-.08.33.09,4.23-.25,0-.08-3.8v-.42ZM52.9,58l-3.49.58-.14,0v-.66l3.62-.62Zm-3.64-.21v0l3.62-.62v0Zm0-.12v-.71l3.61-.64,0,.73Zm0-.81v0l3.61-.64v0Zm0-.11V56l3.6-.66,0,.73Zm0-.81v0l3.6-.66v0Zm0-.12v-.7l3.61-.68v.72Zm0-.8v0l3.6-.68v0Zm0-.11-.09,0,3.73-.71v0Zm0,.09v2.73h0v.12h0v.68l-.24,0,0-3.54ZM48,59l.27,0-1,.22L47,59.22Zm23.14,5.06-.84.13h0l-.12,0h0l-.12,0h0l-.39.06v0l1.07-.16s0,0,0,0h0a0,0,0,0,0,0,0h0l-1.56-.26-1.53-.26L47.21,60h0l-1.07.22L43,60.87h0s0,0,0,0l.19,0h0s0,0,0,0h0l3.08-.59.73-.14.11.26h0l.08.2L47.78,62l-2.73.48-3.13.55a0,0,0,0,0,0,.06,0,0,0,0,0,0,0h0l3.12-.56,1.47.22h0a0,0,0,0,0,0,0s0-.05,0-.05l-1.19-.18,2.5-.44h0v0h0l.12-.28h0v0l.1,0h0a.05.05,0,0,0,0,0h0l3.08-.55.73-.13.1.25.06.16.53,1.32L50,63.24l-3.12.52s0,0,0,.05a0,0,0,0,0,.05,0h0L50,63.33l1.17.18h0a0,0,0,0,0,0,0s0,0,0-.06l-.88-.13,2.48-.41h0l.17-.4,2.9-.49.72-.12.1.24h0l0,.13h0l.51,1.3-2.7.42-3.1.49s0,0,0,.06a0,0,0,0,0,0,0h0l3.1-.49.91.13h0s0,0,0,0,0,0,0,0L54.85,64l2.46-.39h0l.18-.46,2.62-.42.72-.12.09.23,0,.11.5,1.27-2.68.4L55.72,65s0,0,0,0a0,0,0,0,0,0,0h0l3.08-.46.68.1h0a0,0,0,0,0,0,0s0,0,0,0l-.37-.06,2.43-.36h0a0,0,0,0,1,0,0s0,0,0,0h0l.19-.52,2.37-.36.71-.11.08.23,0,.08.48,1.25-2.66.38-3.06.43s0,0,0,.05a0,0,0,0,0,0,0h0l3.06-.44.46.07h0a.07.07,0,0,0,.05,0,0,0,0,0,0,0-.05l-.16,0,2.4-.34h0a0,0,0,0,0,0,0,0,0,0,0,0,0,0h0l.19-.55.89-.13,2-.29v0l.09.25.47,1.22-3.81.52-.18,0-1.68.23s-.05,0,0,.06a0,0,0,0,0,0,0h0L65.17,66l-.11,1.35h0v.07h0v.08h0L64.93,69h0v0h0l-.26,3.29v0h0v.08h0l-.12,1.49v0l-.24,3-1.2-.07L63.4,73v0h0s0,0,0,0l-21-4h0l-.38,0h0a0,0,0,0,0,0,0l-.71,6.78-1.81-.09L40.85,62l.74.11h0s0,0,0,0,0-.05,0-.05l-.79-.12h0l-8.58,1.3-3.53.54h0L47,59.92ZM21.27,78.57h0v0h0l14.11.43L35,83.12l-13.88,0,.17-4.87h0v.35Zm.1,0v-.3l14.34-1.76,0,.37Zm14.3-1.6-.23,2L22,78.54Zm-4.1,9.15-.89-.26,4,0,0,.36Zm3.06.15-.08.69-2.62-.74Zm-4.27-.5-9-2.54,13.58,0-.27,2.44ZM21,83.07,6.16,78.88l15-.66ZM5.86,78.79H5.52l13.94-.63.52,0Zm13.6-.72h0L4.2,78.75l-1-.27-1-.81L1.59,76l-.11-2.18.41-2.22.85-1.76,1.12-1L28.7,63.79l3.53-.53L40.76,62,39.3,75.59ZM2.63,69.87l-.81,1.69H1.63l.81-1.69Zm-.1-.1,1-.89h.16l-1,.89Zm-.74,1.88-.4,2.13H1.2l.4-2.13Zm-.4,2.23.1,2.1h-.2l-.1-2.1Zm.12,2.19.58,1.58H1.9l-.58-1.59Zm.63,1.68.94.72H2.94L2,77.75ZM20.7,65.34l7.68-1.59h0ZM4.26,78.85l1.59,0L21,83.18l9.32,2.64,1.21.34,3,.84,0,.24s0,0,.05.05h0s0,0,0,0l0-.28.09-.79.05-.47.28-2.54L35.53,79l.24-2.14,0-.46,0-.18s0,0,0,0h0a0,0,0,0,0,0,0l0,.14-14.4,1.77h-.11l-1.15,0,19.28-2.41,1.37.07-3.65.45v0a.07.07,0,0,0,0-.05h0a.07.07,0,0,0-.05,0v.08l-.06.47L36.66,79l-.46,4.14-.28,2.52-.06.5-.12,1.11h0v.09a.07.07,0,0,0,0,.06h0a0,0,0,0,0,0,0v0l4.11,1.16h0s0,0,0,0h0a0,0,0,0,0,0,0V88l9.47-.29v.47h0s0,0,0,0h0l0,0h0L64,87.71l.54,0-24.77.87-2-.07s0,0,0,0Zm45.35,9.26v-.47h0v0h0l-.72,0v-.47h0s0,0,0,0h-.75v-.47l13.38-.29.5.28h0l.29.16.17.1.41.22h0l.06,0h0l.41.23h0l.06,0h0l.21.12.27.15Zm14-.74h0Zm-.24-.13-.23-.14,2.28.05v.13Zm2-2h-.05a0,0,0,0,0,0,0h0l0,1.32-1.21,0L64,81.83h1.29l.14,3.36Zm0-3.4v-.1h.73v.06l0,1v.1l.1,2.29h-.74Zm1-.08h0Zm0,.1,0,.94h-.21l0-1Zm-.17,1Zm.22.09.09,2.24h-.21L66.23,83Zm4.07-.2-.05-1,4,0,0,.94Zm3.32.11h0ZM70,81.74l.16,3.41h0L70,81.74Zm.09,0h.13l.17,3.41h-.13Zm.23,0h.05l0,1v.1l.11,2.25h0Zm.2,1.19,4,0,.12,2.14-4,0Zm4.09,0v-.09l-.06-1h0l.06,1v.1l.12,2.18h0Zm.13,0h2.13l.13,2.1-2.14,0Zm2.23,0v-.09l-.06-1h.63l.06,1v.09l.13,2.14h-.64Zm.72,0h.71l.15,2.4h-.28l0-.28h0v0h-.42Zm.87,2.6,0,.56s0,0,0,0h-.29v0l0-.56Zm6-3.74,0-.71,2.15.06h0l1.46-.2h0l1.41-.7h0v0h0L89.47,80h0l0,0h-.06l-.07-.11h0l1.58.06h.28l.17,2Zm6.71-1.89,1.37,0,1.67.07h.31l.42,0,.12,1.31.06.6-3.78-.06Zm3.86.1L95,78.7l-.11-1.21,1.25.09.35,3.8-1.25,0Zm1.11-2.51-.36-3.85-.36-3.8-.35-3.75-.34-3.7-.67-7.13L96,55,96.94,85l-.33-3.54ZM94.16,55.21l-.08-.9h0l-1.28-.41,0-.19L95.9,55Zm-1.33.45-.4-.12-3.3-1L89,52.46l3.68,1.2,0,.24Zm-3.91-3.31h0l-1.54-.49h0l-1.62-.51L84,50.84h0l-1.79-.53h0l-.62-.17h0L81,50l-.64-.18h0l-.65-.18-.66-.18-.67-.18-.67-.19L77,48.87h0l-.32-.09,2.75-.53,12.36,5ZM38.17,50.59l18.34-4.33v.28l-17.59,4.1h0l-.24.05Zm.72.16v1.54l-.16,0V50.79ZM34.3,53.46l18.49-4.09v.36h0l-4,.87-.12,0-3.78.83-.12,0-3.59.78-.11,0L37.64,53l-.1,0-3.24.71Zm14.49.92h0V50.72h0Zm-3.61-.14v.83l-.24,0V51.57l.23,0v1.84h0Zm-.08-2.73,3.52-.77v0l-3.4.74Zm3.52-.62v0l-3.36.72h0Zm0,.11v.7l-3.36.71v-.68Zm0,.79v0l-3.37.71v0Zm0,.12v.69l-3.38.69v-.68Zm0,.79v0l-3.38.69v0Zm0,.11v.7l-3.38.67V53.5Zm0,.8h0l-3.38.68v0Zm0,.11v.68l-3.39.66v-.67Zm-3.83-.17v-.11h0V51.79h0v-.22h0l0,3.57h0v-.81h0ZM41.4,52.32l3.32-.73v0l-3.21.7Zm.06.11V55.8l-.24,0V52.37Zm.09,2.5v-.67l3.18-.65v.68Zm3.19-.54h0L41.55,55h0Zm-3.19-.22v0l3.18-.65v0Zm0-.11V53.4l3.18-.67v.67Zm0-.76h0l3.18-.67h0Zm0-.11v-.66l3.16-.68v.67Zm0-.75h0l3.16-.69h0Zm0,2.69,3.19-.63v.66l-3.19.62Zm-.42-2.76v3.49h0V52.38ZM38,55.74h0l3-.6h0Zm3-.5v.64l-3,.58v-.63Zm-3,.39V55l3-.62V55Zm0-.74h0l3-.62v0Zm0-.11v-.64l3-.63v.66ZM38,54h0l3-.63h0Zm0-.1V53.3l3-.65v.66Zm0-.74h0l3-.65h0ZM38,53.11l-.1,0L41,52.4v.05Zm0,.08v3.29l-.23.05,0-3.39Zm-.37,2.69h0V53.15h0l0,3.41h0v-.67Zm-2.93.53h0l2.84-.57h0Zm2.84-.47v.63l-2.84.55V56.5Zm-2.84.36v-.63l2.84-.58v.65Zm0-.72h0L37.49,55h0Zm0-.11v-.62l2.83-.6v.64Zm0-.72h0l2.83-.59h0Zm0-.1V54l2.83-.61v.64Zm0-.72h0l2.83-.61h0Zm0-.09-.1,0,3-.65v0Zm-.05.08v3.21l-.24,0,.05-3.3Zm-.33,3.37h0l.33-.06,2.94-.57.11,0,.33-.06,3.1-.6.11,0,.33-.07,3.29-.63.12,0h0l.33-.06h0l3.47-.67.13,0,.33-.06,3.69-.71h0v.37h0l-4,.77-.13,0-3.81.72-.12,0-3.61.68-.12,0L37.62,57l-.11,0-3.27.62Zm10.6.38v-.11h0v-.89h0v-1h0l0,3.29h0v-.51h0Zm-3.42-1.34,3.31-.63v0l-3.23.62Zm0,.1V59.7l-.24,0V56.39ZM41.55,59V58.3l3.2-.57v.69Zm3.21-.45v0l-3.21.54h0Zm-3.21-.32h0l3.2-.57v0Zm0-.11v-.67l3.2-.58v.68Zm0-.77h0l3.2-.59v0Zm0-.11v-.67l3.2-.6v.69Zm0-.76v0l3.2-.6h0Zm0,2.73,3.21-.55V59l-3.21.69Zm-.42-2.79v3.39h0V56.39ZM38,59.69h0l3-.52h0Zm3-.42v.53l-2.88.62-.15,0v-.65Zm-3,.31v-.65l3-.54v.67Zm0-.75h0l3-.54v0Zm0-.11v-.65l3-.55v.67ZM38,58h0l3-.55h0Zm0-.11v-.65l3-.56v.66Zm0-.74h0l3-.57h0Zm0-.1h-.08l3.13-.6v0Zm-.06.9h0v.86h0v.86h0v.82l-.24,0,0-3.44.24,0v.81Zm-.36,1.9h0V58.11h0v-1h0l0,3.46h0v-.7Zm-2.95.45h0l2.86-.49h0Zm2.86-.39v.65L34.58,61v-.64Zm-2.86.28v-.64l2.85-.5v.65Zm0-.73h0l2.86-.51h0Zm0-.11v-.63l2.85-.52v.65Zm0-.73h0l2.85-.52h0Zm0-.11v-.63l2.85-.54V58Zm0-.73h0l2.85-.54h0Zm0-.09h-.07l3-.57v0Zm0,.09V61l-.24,0,0-3.35Zm-.32,3.41.33,0,1.65-.28-2,.43v-.1Zm-.16-7.64.16,0v.35l-.05,3.42v.41l0,3.46v.17l-.16,0Zm2.29,35.93L-8,87.53l0-.32,44.33,1.71ZM-6.38,87.18,3,87l0,.27a0,0,0,0,0,0,0H3a.07.07,0,0,0,0,0l0-.33.47-7.2.1,0-.49,7.5a.07.07,0,0,0,0,0h0a0,0,0,0,0,0,0l.49-7.47,28.68,8.56.24.07h0s0,0,0,0a0,0,0,0,0,0-.06l-.25-.07L3.72,79.7l-.19-.06-1-.28L1.4,78.44l-.72-2-.12-2.6.5-2.63,1-2.11L3.35,68,33.9,61.42l.26-.05,4-.85h0l2.92-.63h0l.11,0h0l.33-.07,3.31-.71.12,0,.33-.07L48,58.4l0,.52L3.33,68.34h0L2.09,69.4h0l-.92,2h0L.68,73.82h0l.12,2.4h0l.67,1.84h0L2.61,79h0l31.6,9.28.84.24h0l4.69.17h0l15.9-.56-19.31.7Zm114.12-.6-71.3,2.87v-.53l71.27-2.56Zm-1.9-.25-2.9.11v0h0a0,0,0,0,0,0,0h0l-5.58-.08v-.08Zm-8.52.13v-.07l3.66,0L66.13,87.67l-2.1,0-.25-.14,2-.07a0,0,0,0,0,0,0,0,0,0,0,0,0-.05h-.24V87.1h0v0h0v-.45l0-1.32H66l12.13-.14,0,.28v.09l0,.61v.07l0,.39v0l0,.4h0v0a0,0,0,0,0,0,0h0s0,0,0,0l10.31-.3h.49l0,0h0a0,0,0,0,0,0,0h.07s0,0,0,0h0s0,0,0,0l1.27,0h.39l0,0h0l0,0h.06l0,0h0a0,0,0,0,0,.05,0v0h0l0-.35a0,0,0,0,1,0,0h-.13L90.77,82h.09l3.36.06h.43l.4,4.44a0,0,0,0,0,0,0h0a.07.07,0,0,0,0,0l-.4-4.44h.57a0,0,0,0,0,0,0s0,0,0,0h0l-.06-.6,1.25,0,.47,5s0,0,0,0h.07a0,0,0,0,0,0,0v0h0l-1-31.5h0L79.47,48.15,55.87,35.92l0-.56L79.42,47.67h0l16.82,6.95,1,31.25v.6a0,0,0,0,0,0,0h0A0,0,0,0,0,97.32,86.46Z"/></g></svg>