<svg id="Layer_1" data-name="Layer 1" xmlns="http://www.w3.org/2000/svg" xmlns:xlink="http://www.w3.org/1999/xlink" viewBox="0 0 100 100"><defs><style>.cls-1{fill:none;}.cls-2{clip-path:url(#clip-path);}.cls-3{fill:#f9320b;}.cls-4{clip-path:url(#clip-path-2);}</style><clipPath id="clip-path"><rect class="cls-1" width="100" height="100"/></clipPath><clipPath id="clip-path-2"><rect class="cls-1" x="118.05" width="100" height="100"/></clipPath></defs><g class="cls-2"><path class="cls-3" d="M146.83,67.7a.08.08,0,0,0,0,0v0h0l.43-6.1v0h-.08l-1.54-.22v0h0v0h-.07l-7-1.65L137.21,59l-.87-.62h0l-6.14-.84.17-3,.82.11h.06l.21-.11a0,0,0,0,0,0,0h0a.14.14,0,0,0,0-.06h0L133,27.19H133L131.88,27,132,24.9l4.32-.59.05,0h0s0,0,0-.05h0l.21-1.34h0s0,0,0,0h-.07l-35.4-4,0-1.54.11-3.42,9.28-.9h0s0,0,0,0h0v0h0v0h0l-.05-1.26h0a.33.33,0,0,0,0-.06h0a.09.09,0,0,0-.07,0l-25.94-.58h0L43.93,15.43h-.06v0h0v0l.1,1.34h0s0,0,0,.05h0l.07,0h0l2.31,0,.06.72h0s0,.05,0,.06h0a.09.09,0,0,0,.06,0h0l6.35-.15V20L4.49,24.31H4.43a0,0,0,0,1,0,0v0h0s0,0,0,0l.06,1.43V26l1,22.94h0a.08.08,0,0,0,0,.06h0l0,0,2.9.52L-103,69.1a.09.09,0,0,0-.08.11.09.09,0,0,0,.09.08h0L9,49.62l14.45,2.57.25,9-2.49.63H21.1v0h0v.37L10.79,64.89a.1.1,0,0,0-.07.12.1.1,0,0,0,.1.07h0l10.27-2.62v.17L17,63.69h-.07v0h0v.43l-4,1h-.07v.19l-5.2,1.35H7.59v0h0l0,.23L2.1,68.6h0l-66.4,21.22-16,4.39L-102.9,77.93a.09.09,0,0,0-.13,0,.08.08,0,0,0,0,.13l22.66,16.31h0l.68.49h0l8.71,6.27,4.65,3.34.06,0a.1.1,0,0,0,.07,0,.11.11,0,0,0,0-.14l-4.35-3.13,1.14.13h0l1.65.08h1.81l1.92-.1h0l2-.19h0l2.08-.28h0l2.12-.36h0l2.14-.44h0l1.84-.44-12.26,4.72a.1.1,0,0,0,0,.13.1.1,0,0,0,.09.06h0L-52,99.14,16.4,72.8l1.88-.72L47.8,80.24,38.91,88h0a0,0,0,0,0,0,0h0l.06,3.71a.1.1,0,0,0,.1.09h0a.09.09,0,0,0,.09-.09l-.06-3.58,2.74.88,0,3.69-.1,0-1.2-.4a.09.09,0,0,0,0-.11.11.11,0,0,0-.13,0L18.33,104.34a.09.09,0,0,0,0,.13.1.1,0,0,0,.08,0h.05l22-12.11a.13.13,0,0,0,.06.07l1,.34L19.88,104.34a.1.1,0,0,0,.05.18h0L41.73,92.9l.2.06H42l14.18-6.59a.1.1,0,0,0,0-.13.1.1,0,0,0-.13,0L42.05,92.72,42,89,65,68.61,87.7,60.16l4.3,2h0l3.12.7h0l3.79.52h0l2.94.37,3,.78h0l2.72.38h0l3.08,0h0l4.05-.29h0l1.78-.28h0L120,63.26h0l.56-.6,0,.61-.7.77-3.43,1.07-1.77.28-4,.29-3.07,0-2.7-.39-3-.79h0l-2.94-.37h0l-3.78-.53-3.1-.7-4.33-2a.09.09,0,1,0-.08.17L92,63h0l3.11.71h0l3.79.52h0l2.93.37,3,.8h0l2.72.39h0l3.08,0h0l4-.29h0l1.79-.28h0L120,64.18h0l.75-.81v0l0,0,0-.91h0v0l-.51-1.6,3-1.53.41.76h0l1.44,2.69.35,1.67-1.16.92-2,1-2.37.35h0l-2.9.5-2.87.19-2.39-.08h0l-1.31.14-3,.19-7.23-.15-5-1.26-3.49-1.44-6.58-3a.09.09,0,0,0-.12,0,.1.1,0,0,0,0,.13l6.57,3h0l3.5,1.44h0l5,1.27h0l7.25.15h0l3-.19h0l1.3-.14,2.39.08h0l2.88-.19h0l2.9-.51h0l2.38-.34h0l2-1h0l1.05-.82-.06,1-1.16,1-2,1.06-2.36.35h0l-2.89.52-2.87.19-2.38-.08h0l-1.31.14-3,.19-7.23-.14-5-1.3L91.84,66h0l-6.57-3a.09.09,0,0,0-.13,0,.1.1,0,0,0,0,.13l6.57,3h0l3.49,1.47h0l5,1.3h0l7.24.15h0l2.95-.2h0l1.3-.14,2.38.08h0l2.88-.19h0l2.89-.52h0l2.37-.36h0l2-1.07h0l1.21-1h0s0,0,0,0,0,0,0,0h0l.07-1.24h0l-.37-1.74h0L123.93,60l.19-.1.85.32,1.36.52,3.23,1.81,2.52,1.61h0l1.8.88-8.43,5.53-2.69-.42h0l-.77,0h0l-3,.11h0l-1.92.21h0l-9.44,1-6.8-.73-3.93-.6-2.88-1L81.52,64.39a.09.09,0,0,0-.12,0,.09.09,0,0,0,0,.12l12.41,4.77,0,1.28L81.5,65.75a.1.1,0,0,0-.13,0,.1.1,0,0,0,.06.13l12.45,4.91h0l2.89,1h0l3.93.62h0l6.81.74h0L117,72.13l1.91-.22,3-.11.76,0,2.47.4-6.08,4.09-2.27-.3h0l-2.08-.08h0l-4.6-.2L98.26,74.26l-10.2-3.62-9.44-3.75a.1.1,0,0,0-.12.06.09.09,0,0,0,0,.12l9.38,3.73,0,1.11L78.6,68.13a.09.09,0,0,0-.12.05.1.1,0,0,0,0,.13L88,72.14h0l10.19,3.7h0L110,77.36h0l4.58.2h0l2.08.09,2,.28-3.54,2.44-3-.33h0l-2.12-.15L104.26,79,94.59,76.7l-5.76-2-4.19-1.89h0L76.23,69.1a.08.08,0,0,0-.12.05.09.09,0,0,0,0,.12L84.56,73h0l4.19,1.89h0l5.77,1.95h0l9.68,2.29h0l5.87.91h0l2.12.15,2.9.32-.07,1.58-2.89-.32h0l-2.12-.16-5.85-.93-9.66-2.34-5.75-2-.44-.2h0L75.12,73.23l-3.43-.77a.1.1,0,0,0-.12.08.09.09,0,0,0,.08.11l3.42.76,15.32,6.47h0l9.69,3.06h0l6,1.43h0l2.26.46h0l.92.17.62.51L65.62,75a.11.11,0,0,0-.12.07.1.1,0,0,0,.07.12l44.57,10.59-.06,1.32L79.36,79.64,65.61,76.3a.09.09,0,0,0-.11.07.09.09,0,0,0,.07.12l13.74,3.33,8.58,3.57h0l6.52,2.34-32-8a.09.09,0,0,0-.12.06.1.1,0,0,0,.07.12l33.91,8.52L98,87h0l4.89,1.44h0l4.5.73-.07,1.65-4.46-.74L98,88.64h0L96.24,88h0L71.52,81.62l-9.14-2.35a.09.09,0,0,0-.12.06.1.1,0,0,0,.07.12l9.14,2.35,12,4.16L60.71,80a.09.09,0,0,0-.12.06.1.1,0,0,0,.07.12l25.7,6.74,3.84,1.23h0l2.31.44,2.89.87h0l5.19,1.43h0l2.18.58,1.44.45h0l1.73.14-.08,2.17-1.71-.15-1.43-.45h0L100.58,93h0L95.4,91.56h0l-2.89-.89h0l-2.3-.44L86.36,89h0L60.71,82a.1.1,0,0,0-.12.07.09.09,0,0,0,.07.11l25.65,6.93,3.83,1.27h0l2.3.44,2.88.89h0l5.18,1.47h0l2.18.61h0l1.43.46h0l1.57.14-1.17.89L59,82.79A.09.09,0,0,0,59,83l45.53,12.52-.08,2L59,84.65a.09.09,0,0,0-.11.07.09.09,0,0,0,.06.12l45.35,12.8-7.58,6.71a.11.11,0,0,0,0,.14.11.11,0,0,0,.08,0,.09.09,0,0,0,.06,0l7.71-6.82h0s0,0,0,0l0,0v0h0l.08-2.13,1.38-1h0a0,0,0,0,0,0,0h0s0,0,0,0h0l.09-2.31,1.34-1h0a0,0,0,0,1,0,0s0,0,0,0h0l.07-1.8,2.61-1.88h0a0,0,0,0,1,0,0l0,0h0l.06-1.46,4.88-3.44h0s0,0,0,0v0s0,0,0,0h0l.08-1.72,3.73-2.58h0a0,0,0,0,0,0,0h0s0,0,0,0h0l.07-1.39,6.27-4.23h0s0,0,0,0h0l.08-1.47L134,65.19l-.05.73h0v0h0l0,0H134l0,0,3.13-2.09-.07,1.27h0v0s0,0,0,0h0l0,0h.05s0,0,.05,0l2.67-1.82-.05.79a0,0,0,0,0,0,0h0s0,0,0,0h0l.06,0,2.47-1.73,1.19-.83,0,.73a.13.13,0,0,0,0,.06h0l0,0h.1l1.66-1.19-.09,1.42a.07.07,0,0,0,0,.06h0l0,0h0a.07.07,0,0,0,.06,0l1.57-1.15-.42,5.85-44.59,36.77a.09.09,0,0,0,0,.13.09.09,0,0,0,.07,0l.07,0,44.62-36.8ZM134.17,65h0v0h0l-1.94-1-2.51-1.61h0l-3.23-1.82h0l-.75-.29,2.17.29.37.11.54.17h0l2.44.79,1,.34,3.14,1.18h0l1.75.63-3,2Zm-10-5.33h-.08l-.23.12-.41-.76h0v0h-.11l-3,1.55-.2-.6,0-.65.19-.1,1.43.21h.06l.27-.14h0a.05.05,0,0,0,0-.05h0l.05-.89,1-.53,1.4.2h.05l.26-.13h0s0,0,0,0h0l0-.87,2.35-1.15,1.35.17h.05l.23-.11,0,0h0a.14.14,0,0,0,0-.06h0l0-.83.75-.37.31,0L130,57.6l0,.56-.07,1.37-1.56.87h0l-.09.05-.34-.11h0L125.07,60H125Zm-4.21,3.4-3.42,1-1.78.28-4,.28-3.07,0-2.71-.37-3-.79h0l-3-.37h0l-3.79-.52-3.1-.69L88,60.06l.22-.08,24,4h.06l4-2a.08.08,0,0,0,0-.12.09.09,0,0,0-.12-.05l-4,2-24-4-1.3-.21h-.08l0,0h0v0h0v.06h0v0h0l.63.29L64.92,68.42l-2.46-.52,1.28-.46h0l.16-.06h0l.12,0h0l.11,0,.12,0,.12-.05.11,0,.12,0,.12,0,.11,0L65,67,65,67v.14a.11.11,0,0,0,.1.1h0a.11.11,0,0,0,.1-.1v-.28h0l.07-15.06h0V45.91l.1-19.08v-.4l0-4.75v-.23a.14.14,0,0,0,0-.06l1,0h0a.11.11,0,0,0,.1.1h1.42v.11l0,4.67-.14,19.53,0,2.3v3.06h0l-.1,14.81h0v1.3a.09.09,0,0,0,.1.09h0a.09.09,0,0,0,.09-.09V66h0l.11,0h0l.11,0h0l.11,0h0l.11,0,.11,0,.11,0,.11,0h0l.11,0h0l.11,0h0l.11,0h0l.11,0h0l.11,0,.11,0,.11,0h0l.11,0h0l.11,0h0l.11,0,.11,0,.1,0,0,0v.13a.09.09,0,0,0,.1.1h0a.09.09,0,0,0,.09-.09v-.27h0l.13-14.57h0l0-1.57V47.47l0-2.27L70.45,26l0-4.58v-.22a.07.07,0,0,0,0-.05l1-.05a.09.09,0,0,0,.1.09h1.34v.11l-.05,4.5-.21,18.87,0,2.19h0v.06h0l0,1.4v1.54L72.4,64.18v1.25a.09.09,0,0,0,.09.1h0a.09.09,0,0,0,.09-.09v-1.2h0l1.85-.67v.12a.09.09,0,0,0,.09.1h0a.09.09,0,0,0,.09-.1v-.25h0l.18-14.14,0-1.52v-.61l0-2.25v-.73l.24-18.59,0-4.44v-.21a.06.06,0,0,0,0,0l1,0a.1.1,0,0,0,.1.09h1.26v0h0l-.36,25h0v.67l0,1.5v1L77,53.52v0l0,1.35v.74l0,2h0v.12h0v1h0V59l0,3.21v.29h0v0h0v1.22a.09.09,0,0,0,.09.09h0a.1.1,0,0,0,.1-.09V62.62l.52-.19.88-.31.28-.11v.11a.09.09,0,0,0,.1.1h0a.09.09,0,0,0,.09-.09v-.25h0v0h0v-.69L79,58h0l0-2.85.1-6.53V47.9l0-1.14v-.44l0-1.48v-.69h0l.37-23.29h0v-.13a.06.06,0,0,0,0,0l.95-.05a.09.09,0,0,0,.09.09h1.2v0h0l-.38,21.22h0v.66h0l0,1.46,0,2.1,0,1.13h0v.35h0l-.2,11.23V60h0v.4h0V61l0,1.18a.09.09,0,0,0,.1.1h0a.09.09,0,0,0,.09-.09l0-1.12,1.18-.42.91-.33,2-.71.89-.32,2-.71.87-.32,1.48-.53.87.13-3.91,1.43h0v0h0v0h0l0,0h0l0,0,1.33.21,22.42,3.65h.06L114,62.1l1-.5h0l.09,0a.09.09,0,0,0,0-.13.07.07,0,0,0-.09,0,.07.07,0,0,0-.07-.05l-4.08-.64a.11.11,0,0,0-.11.08.09.09,0,0,0,.08.11l3.93.61-.86.42-3.07-.48a.1.1,0,0,0,0,.19l2.8.44-2.26,1.11-22-3.59,2.55-.95,9,1.42h0a.11.11,0,0,0,.1-.08.09.09,0,0,0-.08-.11l-8.9-1.4V58l8.88,1.37h0a.09.09,0,0,0,.09-.08.1.1,0,0,0-.08-.11h0l.07-2,0-.63.25.12h0l.39.11h0l.49.09h0l.56.06h0l.59,0h.59l.52,0h0l.44-.06h0l.31-.09h0l0,0v0l0,.35,0,.69-.06,1.49a.09.09,0,0,0,.1.09h0a.11.11,0,0,0,.1-.09l0-1.37,2.23.33-.08,1.94-3.67-.56a.09.09,0,0,0-.11.08.09.09,0,0,0,.08.1l3.9.61h0a.1.1,0,0,0,.1-.08.11.11,0,0,0-.08-.11h0l.08-2,0-.66h0l.29.13h0l.42.12h0l.52.09h0l.58.07h0l.61,0h.6l.54,0h0l.44-.06h0l.31-.1h0v.37l0,.71-.06,1.65c0,.05,0,.09.09.1h0a.11.11,0,0,0,.1-.1l.06-1.54,2.43.36-.09,1.87a.1.1,0,0,0,.09.1h0a.09.09,0,0,0,.09-.09l.09-2,0-.7,0,0h0l.32.14h0l.45.12h0l.55.1h0L117,59h0l.63,0h.62l.54,0h0l.44-.06h0l.3-.09h0l0,.37h0l0,.72h0v.24h0l-.07,1.45a.09.09,0,0,0,.09.1h0a.1.1,0,0,0,.1-.09l.06-1.39.23-.11.2.62.52,1.63ZM87.7,60l-.14-.07.22,0ZM41.88,88.87,39.17,88l8.89-7.73,4.28-3.72,1.28-1.11,5.17-4.5L62,68.19l.18-.16,2.58.55ZM-52.1,99l-1.46.4-2.12.51h0l-2.13.43h0l-2.12.36-2.09.28h0l-2,.19-1.91.1h-1.8l-1.66-.09-1.46-.16-8.54-6.15L-64.25,90,2.12,68.79,11,71.3l5,1.42Zm-28-4.6,11.28-3.11-10.8,3.45ZM21.21,62.8l2.53,1,0,1.47-6.4-1.53Zm89.25-50.09-25.72-.26-.08-1.39,25.75.58Zm-26-1.64.08,1.39-40.42,4.3-.08-1.15Zm.18,1.57,24.11.24-7.47.72v0h0v-.06h-.5l-21.2-.05h-.16a.1.1,0,0,0,0,.2h.06l-.07,4.13H79L79,13.59h0v0l0,0h-.08L53.49,16.16h-.06v0h0v.38l-6.95.13h-.23Zm16.27,6.2v.22a.1.1,0,0,0,.09.1h0a.09.09,0,0,0,.1-.09V19l34.57,3.92-13.54,1.62L88.7,20.35l5.45-.42h0a0,0,0,0,0,0,0h0s0,0,0,0v0s0,0,0,0h0l0-.36,6.52-.3h0a.08.08,0,0,0,.06,0h0a.08.08,0,0,0,0-.06h0l0-1.77H101Zm35.31,5.29-4.33.59L122,26.07l.18-1.4L136.4,23Zm-4.94,30.26h0l1.52-26.49a0,0,0,0,0,0,0v0h0v0h-.1l-1.39.24h0l-.82.14h0l0,0h0v0h0v0h0l0,.34-.69,12.53h0l0,.34h0l0,.33h0l-.68,12.28,0,.33,0,.33,0,.82,0,0,1.54-27.92,2.48-.42Zm-1,0-.33,0,1.46-26.08,1.21-.21-1.51,26.43Zm-1.13-.14.52-.26v.11l-.53.26Zm1.43-25.8.53-.1v.15h0l-.49.09Zm-.19,12.68v.13l-.52.18v-.13Zm-.54.51.52-.17v.14h-.06l-.47.16Zm.71-12.85.42-.08-.69,12.26-.41.13Zm-.73,13.19.41-.14-.67,12-.41.2Zm-.7,12.59.63-.31v.11l-.64.31Zm-.16-26.86,1.23.06-1.55,28-1.19-.16Zm1.32-.13-.48,0,1.79-.3H132Zm1.31-.51h0l-2.71.45h-.07v0h0l-1.52,28L125,56.66l1.48-28.37h-.09L125,28.13h0l-3.19.52h0l0,0h0v0h0L120.18,59l-.07,0,1.59-32.83.21,0h0l9.87-1.36L131.69,27Zm-9.39,30.55.81-.4v.14l-.81.39Zm1.4-27.93.82-.15v.19h0l-.77.14Zm.12,13.66v.16l-.82.27v-.16Zm-.84.63.82-.27v.18h-.08l-.73.25Zm.7-13.92.69-.13-.67,13.26-.69.23Zm-.71,14.29.68-.24-.66,13-.68.33Zm-.69,13.62.94-.46v.13l-.93.47Zm2.56-28.52,1.29-.23-1.49,28.57-1.23-.17Zm1.49-.34h0v0h-.13l-1.46.26h0l-1.12.2a.08.08,0,0,0-.08.06v0h0v0h0l0,.37-.68,13.57h0v.36h0l0,.36h0L122,57.51v.35l0,.36,0,.9-.07,0,1.51-30.25,3-.5-1.48,28.41,0,.87-.06,0ZM125,28.32l.55,0-2.25.38-.59,0Zm-3.1.53,1.31.06L121.65,59.2,120.38,59ZM119.2,58.73l-.42.06-.54,0h-.6l-.63,0-.6-.07-.54-.1-.44-.11-.3-.13-.12-.1v0l.1-.07.28-.09.42-.06h.2v.29c0,.05,0,.09.09.09h0a.11.11,0,0,0,.1-.1v-.39l1.46-32.18,2.25.29-1.52,32,0,.45a.1.1,0,0,0,.09.1h0a.09.09,0,0,0,.09-.09l0-.34h.09l.44.12.31.12.14.11v0l-.09.07Zm-7.39-1.07-.42.06-.52,0h-.6l-.6,0-.58-.07-.51-.09-.41-.11-.27-.12-.09-.08v0l0,0,.08,0,.3-.09.42-.06h.12v.34a.09.09,0,0,0,.09.09h0a.09.09,0,0,0,.09-.09l0-.43.52-13.07V43.1L110,29.71l0-.36V29l.17-4.13h0v-.08l2.16.28-1.33,32v.37a.09.09,0,0,0,.09.1h0a.09.09,0,0,0,.09-.09v-.27l.15,0,.41.11.28.12.11.09v0l-.11.07Zm-7-1-.42.06-.52,0h-.58l-.58,0h0l-.56-.06-.48-.09-.38-.11-.24-.11-.07-.07v0l0,0,.09-.05.3-.08.42-.06h0v.31a.11.11,0,0,0,.1.1h0a.09.09,0,0,0,.09-.1l0-.41.43-12.79,0-.35v-.35L103,29.34l0-.36h0v-.35h0l.14-4h0l0-.73,2.1.27-.17,4.6v.36l0,.36-.47,13.18v.71L104.1,56v.37a.09.09,0,0,0,.09.1h0a.09.09,0,0,0,.1-.09v-.26l.19,0,.3.08.09,0,.22.09h0l.08.07v0l-.13.08ZM91.86,57.75l-1.26-.19-6.92-1.08,3.73-1.23,2.93.43,10.37,1.53-.07,1.9Zm-.13.72-2.82,1.05L88,59.37,91.75,58ZM77.73,21a.12.12,0,0,0,.07.07l-.35,24.51a.1.1,0,0,0-.08.06Zm.2,0S78,21,78,21l-.36,24.35a.08.08,0,0,0-.07,0Zm.21,0a.09.09,0,0,0,.08.06l-.36,24.17a.09.09,0,0,0-.08,0Zm.21,0a.09.09,0,0,0,.07.06l-.36,24A.08.08,0,0,0,78,45Zm.28.05-.37,23.81a.13.13,0,0,0-.07.05l.36-23.92A.09.09,0,0,0,78.63,21Zm.13-.07a.09.09,0,0,0,.07.06L78.47,44.6a.16.16,0,0,0-.08.06Zm.2,0A.09.09,0,0,0,79,21l-.36,23.46a.08.08,0,0,0-.07,0Zm.2,0a.12.12,0,0,0,.08.06l-.37,23.29a.07.07,0,0,0-.07.06Zm.21,0a.11.11,0,0,0,.07.06l-.37,23.11a.08.08,0,0,0-.07.05Zm-1.47,32,.08,0H78l0,0h0l0,0,.14,0,.11.09.09.21h0v0h0v-.09h0a.09.09,0,0,0,0-.06h0l-.11-.09h0L78,53h0l-.21,0h0l-.17,0h0l-.11,0,0,0h0l-.1.1v0l0,0h0l.08-.07h0l.09-.15h.07s0,0,0,0h0l0,0h0Zm.73,2.18h0l.25.13,0,1.28s0,0-.06,0a.09.09,0,0,0-.1.09l0,.6-.37,0-.35,0L77.79,57h-.3l-.14,0h0v-.27l0-.1.17-.37.45-.82h0l0-.05,0,0h.09v0l0,0h0l.2-.55Zm-.26,5.09h-.58l-.14-.06-.14-.28h0l-.11-.17L77.32,59v-.15h0l0-.11h0l-.05-.42,0-.42.09.07h0l.06,0h.23l.18-.08h0l.25.1h0l.54.08,0,.2h0v0l.16,1.81-.15,0Zm-1-14.2h0v-.09h0v-.06a.09.09,0,0,0,.09.06h0a.09.09,0,0,0,.09-.09v-.09h0v-.06a.1.1,0,0,0,.09.06h0a.1.1,0,0,0,.1-.09v-.09h0V45.4a.09.09,0,0,0,.09.06h0a.09.09,0,0,0,.09-.09v-.09h0s0,0,0,0v-.05a.11.11,0,0,0,.09.05h0a.1.1,0,0,0,.1-.09v-.09h0a0,0,0,0,0,0,0v0a.09.09,0,0,0,.08.06h0a.1.1,0,0,0,.09-.1v-.08h0v-.06a.11.11,0,0,0,.09.06h0a.09.09,0,0,0,.09-.1v-.08h0v-.06a.1.1,0,0,0,.09.06h0a.1.1,0,0,0,.1-.09v-.09h0a0,0,0,0,0,0,0v-.05a.1.1,0,0,0,.08.06h0a.11.11,0,0,0,.1-.1v-.08h0v-.06a.11.11,0,0,0,.07.06v.46l-1.72,1.59ZM79,48.18l-1.49.38-.21.06v-.16L79,48Zm-1.06,5,.2.06.07.05,0,.25h0l0,.17a.09.09,0,0,0,0,.11.08.08,0,0,0,.08.06h.11v0L78.4,54l0,0,0,0h0a.09.09,0,0,0-.13,0,.09.09,0,0,0,0,.07v0l0,0,0,.08-.11.08-.15.06h-.1l-.15,0,0,0-.09-.16,0-.07h0l0-.13a.08.08,0,0,0-.11-.06h0v-.11h0l.06,0s0,0,0,0,0,0,0,0l0-.28,0-.13.09-.09.08,0,.15,0Zm.33,4.11h0l.47,0h.09v.59h-.08l-.62-.1-.13,0,0-.07v0l0,0,0-.13h0v0h0l0-.14h0Zm.58-.24Zm-.07,4.67-.22.08v-.14l.21-.08Zm0-1.48v.79l-.2.07V61l.1-.65Zm0,1.14-.2.07v-.14l.21-.07Zm-1.07-4.24.13.07,0,.11,0,.12,0,.08-.07.1,0,0h0l-.06,0-.15.07h-.14l-.19-.15-.06-.12v-.09h.12l.15-.09,0,0h0l.09-.11h0s0,0,0-.05Zm-.42-8.37.14,0-.06,4h0l.06-3.72v0h0s0,0,0,0H77.3Zm.44,5.8h.17l.16-.08h0l0,0v.1l-.06.12-.29.22h0l-.12.14h0a.08.08,0,0,0,0,.07h0v.06l-.09.11v0h0v0L77.45,55l0-.28v-.1h0l.19.07h0Zm-.54,1,.08-.44.1.12v.23l-.16.53h0l0,.11Zm.25.37.13-.4.21-.27h0l0,0h0Zm.54-.78h0l-.14-.06h0l.09-.09.18-.14Zm.45-1.69v0ZM79,46.7l-.12,0,.12-.11Zm-.4.3.48-.12,0,.95-1.7.43v-.11ZM77.44,61.69l0,.22h0Zm-.19.29-.1,0,0-.16h0v0h0v0h0v-.35h0Zm-.14.26h0l.27-.1.1,0v.14l-.38.14Zm1.69-4,0-.21h0v.68Zm-1.09-9.42h0v0h0v0h0l0,3.74h0l0-4L79,48.38v.15ZM79,46.28l0,0,0,0-.54.5-1.11,1V46.66l1.72-1.6Zm-.06-2a.11.11,0,0,0-.07-.06L79.26,21a.09.09,0,0,0,.08-.06Zm-.2.18a.08.08,0,0,0-.07,0L79.06,21a.09.09,0,0,0,.08-.06Zm-.2.19a.09.09,0,0,0-.08,0L78.86,21a.07.07,0,0,0,.07-.06Zm-.21.19a.11.11,0,0,0-.07-.06L78.65,21a.1.1,0,0,0,.08-.07Zm-.2.19a.11.11,0,0,0-.07-.06l.36-24a.09.09,0,0,0,.08-.06Zm-.2.18a.09.09,0,0,0-.08,0L78.24,21a.08.08,0,0,0,.08-.06Zm-.21.19a.08.08,0,0,0-.07,0L78,21a.07.07,0,0,0,.07-.06Zm-.2.19a.08.08,0,0,0-.08-.05L77.83,21a.1.1,0,0,0,.08-.07Zm.13,16.61,0-.24,0-.6h0l-.15-.64h0l0-.06h0a0,0,0,0,1,0,0l0,0h-.14v0h0l-.13.46,0-1.88,0,.46h0v0l.13.18.16.31h0l0,0h0l.19.08h.66l.12,0-.09.6h0l0,.36h0v.35h0l0,.32ZM78.9,55l-.17-.08-.36-.26,0-.08h0V54.4l0-.15h0l0,0h0l.09-.07a0,0,0,0,0,0,0h0l.08-.12s0,0,0,0,0,0,0,0v-.1h0s0,0,0,0h0l0,0,0-.23v0h0v0h0a.05.05,0,0,0,0,0h0v-.06h0L78.52,53l0,0h0l-.15-.12h0l0,0h0a.14.14,0,0,0,0-.06h0a.06.06,0,0,0,0,0l-.15,0-.09,0h-.06l-.1,0h0L77.83,49,79,48.73Zm.54-34.27v0a.11.11,0,0,0-.08.09h0a.11.11,0,0,0-.1-.08.09.09,0,0,0-.09.09h0a.09.09,0,0,0-.09-.09.1.1,0,0,0-.1.09h0s0,0,0,0a.11.11,0,0,0-.09-.09.09.09,0,0,0-.1.1h0a.09.09,0,0,0-.08-.09.1.1,0,0,0-.1.09h0s0,0,0,0,0-.09-.09-.09a.1.1,0,0,0-.1.1h0a.09.09,0,0,0-.09-.09.1.1,0,0,0-.09.1,0,0,0,0,1,0,0h0a0,0,0,0,0,0,0,.11.11,0,0,0-.09-.09.1.1,0,0,0-.1.1,0,0,0,0,0,0,0h0a.08.08,0,0,0-.09-.08.1.1,0,0,0-.1.09h0v-.12h0l1.75-.09A0,0,0,0,0,79.44,20.71Zm-22.08.9-.12-1.8L78.86,19l.63,0L94,18.42l0,1h0l0,.36ZM74.49,63.36,72.7,64l.15-14.13,1.82-.47Zm.2-15.67-1.92.48V47l1.92.24Zm0-.64-1.85-.23,1.87-1.69Zm-2,2.66,0-1.34,1.92-.48,0,1.32Zm2-4.84-1.94,1.75,0-1.9,1.93-.42Zm0-.77-1.92.43L73,25.86,75,25.69ZM75,25.5l-2,.17,0-4.31,2-.11Zm0-4.56v.12l-2,.11v-.12h0l2-.1S75,20.93,75,20.94Zm-4.76,5-2.21.19,0-4.48,2.22-.11Zm-.51,39.16.12-14.42h0l.07,0L69.83,65h0Zm-.11,0,.12-14.43h0l.07,0-.12,14.42h0Zm-.11,0,.12-14.44h.08l-.12,14.43h0Zm0,0-.06,0,.12-14.45h0l.08,0L69.5,65.16Zm-.11,0-.06,0,.12-14.47h0l.08,0L69.39,65.2Zm-.1,0-.07,0,.12-14.48h0l.08,0-.12,14.47Zm-.44.16-.07,0,.12-14.51H69l-.11,14.5Zm-.28.1L68.66,51h0l.07,0-.11,14.53h0Zm0,0-.07,0L68.54,51h0l.07,0-.11,14.54Zm-.67.24-.06,0,.1-14.61h0l.08,0-.11,14.61ZM70,50.62H70L69.91,65l0,0Zm.06-.21-.1,0h0l-.1,0h0l-.12,0-.1,0-.11,0-.11,0-.11,0-.12,0h0l-.11,0h0l-.11,0-.11,0h0l-.11,0h0l-.11,0h0l-.11,0h0l-.11,0h0l-.12,0-.11,0-.11,0L68,51l-.07,0v-1.4L70.05,49Zm0-1.57-2.17.54V48.11l2.17-.52ZM68,65.72l-.07,0,.1-14.6h0l.07,0L68,65.71Zm.11,0-.07,0,.11-14.59h0l.07,0-.1,14.58Zm0,0,.11-14.58h0l.07,0-.1,14.57h0Zm.11,0,.11-14.57h0l.08,0L68.3,65.59h0Zm.11,0L68.43,51h0l.07,0-.11,14.55h0Zm.4-.14-.07,0,.12-14.52h0l.07,0-.11,14.52Zm.22-.08-.07,0L69,50.88h0l.07,0L69,65.35Zm0,0,.12-14.49h0l.07,0-.11,14.48h0Zm.11,0,.12-14.49h0l.08,0-.12,14.48h0Zm1-17.92-2.17.52V45.8l2.18-.48Zm0-2.26-2.18.48.14-19.32,2.21-.19Zm.21-24v.13l-2.22.12v-.12h0v0h0l2.24-.11A0,0,0,0,0,70.3,21.18ZM62.08,67.84h0l-.18.16-3-.65V64.15l4.8,1v2.17ZM41.36,56.71v-.42l.53.34v.42Zm.72.47v-.42l.57.36v.43Zm.76.46v-.46l.92.16v.46Zm-5.56.75h0l.51.22-.89-.18.32-.08Zm1.38.59.45.19.28.31-1.19.31-3.69-.73,2-.51ZM34.89,61.1v.61l-.56-.19,0-.61Zm-.76-.26v.61l-.88-.37v-.6Zm-1.07-.45V61l-.89-.63v-.56ZM32,60.16l-.39-.36.38-.1Zm-.56-.52-.05,0v-.52l.5.45Zm-.26-.75v.48l-.13-.15v-.48Zm-.33-.34,0,.58L30.29,59v-.57Zm-.54.64.6.15.31.36-.9.23Zm.72,3.9v-.5l.73.19v.5Zm.82-.48-.9-.24-.58-.3,0-.83L34,62Zm-1-.09V63l-.44-.24v-.47Zm-.41,1.19,0-.73.5.27h0l.34.09h-.17l0,0v0s0,0,0,0h0v.07Zm1.54-.43v-.5l2.38-.65v.5Zm2.46-1.37-4.06-.86,0-.93,1.05-.27.65.6h0l1.08.76h0l1.07.45h0l.46.16Zm.69-.19V61.1l1.62-.43v.61Zm8.71-.47v1.07L38,61.13v-1Zm-6-.88V61l-.93.25v-.61Zm.11.94,5.89,1.21v.36l-6.6-1.38Zm5.84-2.8,0,2.54L38.33,60l1.26-.34.2,0,1.42-.38Zm-2.69.32V59l-1.23.32v-.2Zm-1.42.28v.29l-.07,0-.34-.37v-.38Zm-1.83.8h0v.2l-1,.28h0L35,60.93l-.72-.24-1.06-.44-.91-.63,1.79-.45Zm-5.74-.43-.75-.69h0l-.18-.2,2.5.5Zm-1.65,6.1,0-1.67.66-.18,0,1.66Zm.85-.24,0-1.67.51-.14,0,1.66Zm.7-.2,0-1.66,2.49-.68h.06v0h0v-.62l.14,0,0,2.32Zm2.89-.83L34.83,62l.07,0L35,64.29Zm.26-.07,0-2.32,1.62-.44v0l0,1.24,0,1Zm1.79-1.36,1.69.36-1.68.48Zm2.11.25-2.12-.45,0-1,6.92,1.44v1.09Zm4.72-5v.2L41.28,59v-.2Zm-2.7-.73,0,1.24L39.79,59l-.56-.61h0s0,0,0,0h0L38.5,58Zm-2,1.1v.45l-.34-.14h0l-1.2-.51.66-.17Zm-1.63-.37V57.8l.47.2Zm-.2-.41v.43l-.9-.59v-.42ZM36.14,57v0Zm-.35-.43V57l-.53-.11v-.44Zm-.62.52.67.13.11.14.21.31h0v0h0l.83.54-.54.14-3.64-.71Zm-2.78.68,3.66.71-2,.5-3.66-.73ZM30.5,68.21l-.05-2.44.77-.22.7-.2,2.89-.82.26-.08,1.78-.5,4.55,1Zm11.27-3.39-4.53-1,1.78-.5,4.53,1ZM44,64.2,44,63v-.55l0-1.26.87.18,5,1,2.2.45,0,3.12Zm4.91-8.34h0l-1.42.37V54.61l17.6-4.35v1.43h0l-.12,0-.11,0-.12,0-.12,0-.12,0-.11,0-.12,0-.12,0L64,52h0l-.12,0h0l-.16,0-5,1.3L53.44,54.7l-1.3.33-2.3.6-.25.06-.39.1h0Zm-42.06-30h0l.86,21.41-.08,0h0L6.82,25.91A.09.09,0,0,0,6.88,25.88ZM58.82,64V53.51l4.93-1.28,0,12.7Zm5,3.25V65h0v0h-.06l.05-12.72h0l.12,0-.06,15H63.8Zm.15,0-.07,0,.06-15h0l.08,0-.06,15Zm0,0,.06-15h0l.08,0-.06,15h0Zm.11,0,.07-15h0l.08,0-.06,15h0Zm.12,0,.06-15h0l.08,0-.07,15h0Zm.12,0,.06-15h0l.08,0L64.44,67h0Zm.12,0,.06-15h0l.08,0-.07,14.93h0Zm.11,0L64.65,52h0l.08,0L64.67,66.9h0Zm.12,0L64.77,52h0l.08,0-.07,14.91h0Zm.11,0,.07-14.91h0l.08,0-.07,14.9h0Zm.12,0L65,51.91h0l.08,0v2.75L65,66.78h0ZM29.07,46.73h0l-.47-20,3.95.23L33,47.31Zm33-.62,0-18.49,3.12-.28-.09,18.1Zm3.17-19L62,27.44h-.06v0h0v0l0,18.69h0v0h0l0,0h0l0,0h0l3.15-.68v.19l-3.33.73.05-19.33,3.37-.3ZM33.43,47,33,27.41l3.63.21L37,47.51Zm3.78.56-.35-19.91,3.77.23.29,20.22Zm3.9.57-.29-20.24,3.91.23L45,48.68Zm4,.6-.22-20.59,4,.24.16,20.93Zm4.18.58-.16-20.93L53.43,28l.08,20.39Zm4.38-1L53.62,28l4-.36V47.46Zm4.16-.91,0-19.83,3.8-.34,0,19.35Zm7.35-20.68-3.48.31-4,.35-4.22.38-4.35.38v-.25l16.06-1.38Zm-32.57,0-4-.23-.05-2.26,20.31-1.63,0,5.07Zm.51,20.57L32.73,27,49,27.91v.26l-4.14-.25-4.1-.25-4-.23L33,27.21h0a.09.09,0,0,0-.08.06h0v0h0l.4,19.76v0h0v0h0v0h0l3.78.55,3.9.58,4,.59,4.09.61v.24Zm16.18,2.38v-.24l4.31-.94,4.15-.91,3.94-.86,3.4-.74v.2ZM65.22,26.34,49.16,27.72l0-5.08,16.12-.86Zm-36.8-2.2v.05h0l.06,2.45h0v0h0v0h0l.48,20h0l0,0h0a0,0,0,0,0,0,0h0L29,49.21l0,1.63H29l-.63-26.7Zm-9.65,25-.11,0L17.9,25.16H18l.76,23.93Zm-.16,0,0,0h0l0,0-.76-23.89h.11l.76,24Zm-.27,0h0l0,0h-.06L17.5,25.14h.11l.76,23.92Zm-.26,0v0h0l0,0h0l-.77-23.83h.11L18.11,49Zm-.91-23.91,0,0L18,49h0l-.1,0L17.1,25.12Zm.27,0h0L18.24,49h0l-.11,0-.77-23.89Zm.27,0h0l.76,23.9h0l-.1,0-.77-23.92Zm-.64,0L17.84,49h0l0,0h0l-.05,0L17,25.11Zm11.27-1L29,50.84h-.05a.11.11,0,0,0-.07-.06l-.64-26.58a.09.09,0,0,0,.06,0Zm-.2,0a.06.06,0,0,0,.06,0l.63,26.58h0l-.12,0-.64-26.63Zm-.09,0,.63,26.63h0v0h0v0h0l0,0h0l-.63-26.51s0,0,.06,0Zm-.21,0,.06,0,.64,26.51h0l-.11,0-.64-26.56Zm-.09,0,.64,26.56h0s0,0,0,0h0s0,0,0,0h0l-.64-26.43a.09.09,0,0,0,.06,0Zm-.2,0s0,0,.05,0l.64,26.44h0l-.11,0-.65-26.48Zm-.09,0L28.1,50.7h0l0,0h0l-.05,0-.64-26.37s0,0,.06,0Zm-.21,0a.09.09,0,0,0,.06,0L28,50.63h0l-.11,0-.65-26.41Zm-.09,0,.65,26.41h0s0,0,0,0h0a.07.07,0,0,0-.06,0h0L27,24.28a.06.06,0,0,0,.06,0Zm-.2,0,.05,0,.65,26.3h0l-.11,0-.66-26.34Zm-.09,0,.65,26.33h0v0h0a.1.1,0,0,0,0,0h0l-.65-26.22.06,0Zm-.2,0s0,0,0,0l.65,26.22h0l-.11,0L26.6,24.29Zm-.1,0,.66,26.26h0a.1.1,0,0,0-.08-.05l-.65-26.15a.07.07,0,0,0,.05,0Zm-.2,0,.06,0,.66,26.15h0l-.11,0-.66-26.19Zm-.09,0,.66,26.19h0a.05.05,0,0,0,0,0h0s0,0-.06,0l-.66-26.08a.06.06,0,0,0,.06,0Zm-.2,0a.08.08,0,0,0,.06,0l.66,26.08h0l-.12,0L26,24.33Zm-.09,0,.67,26.12h-.05a.08.08,0,0,0-.07,0l-.67-26a.09.09,0,0,0,.06,0Zm-.2,0a.06.06,0,0,0,.06,0l.66,26h0l-.11,0-.67-26Zm-.09,0,.67,26.05h0v0h0l0,0h-.05L25.58,24.4a.07.07,0,0,0,.06,0Zm-.2,0,.06,0,.66,25.94h0l-.11,0-.67-26Zm-.09,0,.67,26h0v0h0a.07.07,0,0,0-.05,0h0l-.68-25.87a.06.06,0,0,0,.06,0Zm-.2,0a.08.08,0,0,0,.06,0l.67,25.87h0l-.11,0L25.15,24.4Zm-.09,0,.68,25.9h-.05s0,0-.07,0L25,24.45a.09.09,0,0,0,.06,0Zm-.2,0a.07.07,0,0,0,.06,0l.68,25.79h0l-.11,0-.68-25.83Zm-.09,0,.68,25.83h0s0,0,0,0h0l0,0h0l-.68-25.72a.07.07,0,0,0,.05,0Zm-.2,0,.06,0,.68,25.72h0l-.11,0-.69-25.77Zm-.09,0,.69,25.77h0v0h0a0,0,0,0,0,0,0h0l-.68-25.66a.09.09,0,0,0,.06,0Zm-.19,0,0,0,.69,25.66h0l-.12,0-.69-25.7Zm-.09,0L25,50.17H24.9v0h-.06l-.69-25.58a.09.09,0,0,0,.06,0Zm-.2,0s0,0,.06,0l.69,25.58h0l-.11,0L24,24.5Zm-.09,0,.7,25.62h0v0h0l-.06,0h0l-.69-25.51s0,0,.06,0Zm-.19,0,0,0,.69,25.51h0l-.11,0-.7-25.55Zm-.09,0,.69,25.55h0a.07.07,0,0,0-.07-.06h0l-.7-25.45a.06.06,0,0,0,.06,0Zm-.2,0a.08.08,0,0,0,.06,0L24.24,50h0l-.11,0-.7-25.49Zm-.09,0L24.1,50h0v0H24l-.7-25.37.06,0Zm-.19,0s0,0,.05,0L24,50h0l-.11,0-.7-25.41Zm-.09,0L23.82,50h0l0,0h0a.05.05,0,0,0-.05,0L23,24.61a.1.1,0,0,0,0,0Zm-.2,0a.09.09,0,0,0,.06,0l.7,25.3h0l-.11,0-.71-25.34Zm-.08,0,.7,25.34h0l0,0h0l-.05,0-.71-25.24a.09.09,0,0,0,.06,0Zm-.2,0,.06,0,.7,25.24h0l-.11,0-.71-25.28Zm-.09,0,.72,25.28h-.05v0h-.06l-.71-25.17a.09.09,0,0,0,.06,0Zm-.19,0,.05,0,.71,25.17h0l-.11,0-.71-25.2Zm-.09,0L23,49.84h0l0,0h0l0,0h0l-.71-25.09.06,0Zm-.19,0a.05.05,0,0,0,.05,0l.72,25.09h0l-.11,0L22,24.66Zm-.09,0,.72,25.13h0v0H22.6l-.72-25s0,0,.06,0Zm-.19,0,.05,0,.72,25h0l-.11,0-.72-25.07Zm-.09,0,.72,25.07h0v0h-.06l-.72-25a.09.09,0,0,0,.06,0Zm-.19,0,.05,0,.72,25h0l-.11,0-.72-25Zm-.09,0,.73,25h0a.09.09,0,0,0-.07-.06h0l-.73-24.89a.09.09,0,0,0,.06,0Zm-.19,0s0,0,.05,0L22,49.63h0l-.11,0-.73-24.92Zm-.09,0,.73,24.92h0v0h-.06L21,24.77a.09.09,0,0,0,.06,0Zm-.19,0s0,0,.06,0l.73,24.82h0l-.1,0L20.9,24.75Zm-.08,0,.73,24.86h-.05a.08.08,0,0,0-.06,0l-.73-24.75a.1.1,0,0,0,.05,0Zm-.2,0,.06,0,.73,24.75h0l-.11,0-.73-24.79Zm-.08,0,.74,24.79h0l0,0h-.05l-.74-24.69s0,0,.06,0Zm-.19,0,.05,0L21.2,49.5h0l-.11,0-.74-24.73Zm-.09,0,.74,24.73h0l0,0h0a.07.07,0,0,0-.06,0l-.74-24.62a.06.06,0,0,0,.06,0Zm-.19,0,.06,0,.74,24.62h0l-.1,0-.74-24.66Zm-.08,0,.74,24.65h0v0h0v0h-.05l-.74-24.55.06,0Zm-.19,0s0,0,.05,0l.74,24.56h0l-.1,0L19.8,24.84Zm-.09,0,.75,24.59h0s0,0,0,0h0a.09.09,0,0,0-.06,0h0l-.75-24.48a.09.09,0,0,0,.06,0Zm-.19,0,.06,0,.74,24.48h0l-.1,0-.75-24.52Zm-.08,0,.75,24.52h0a.08.08,0,0,0-.07,0L19.39,24.9l.06,0Zm-.19,0,.05,0,.75,24.42h0l-.11,0-.75-24.46Zm-.08,0L20,49.34h0v0h0l-.06,0h0l-.75-24.35a.09.09,0,0,0,.06,0Zm-.19,0,.05,0,.75,24.35h0l-.1,0L19,24.9Zm-.09,0,.76,24.39h-.05v0h0l-.75-24.29a.05.05,0,0,0,0,0Zm-.19,0,.06,0,.75,24.29h-.1l-.76-24.32Zm-.08,0,.76,24.31h0v0h-.06L18.58,25a.1.1,0,0,0,.05,0Zm-.19,0,.06,0,.75,24.21h0l-.1,0L18.44,25Zm-.08,0,.76,24.25h0l0,0h-.06L18.3,25a.09.09,0,0,0,.06,0Zm-.19,0a.09.09,0,0,0,.06,0L19,49.14h0l-.11,0L18.17,25Zm-.08,0,.76,24.18h0a.09.09,0,0,0-.07-.06L18,25.15a.09.09,0,0,0,.07-.06h0v0h0V25Zm-1.27.1h0l.05,0,.78,23.8h0l-.11,0-.77-23.85Zm-.07,0,.78,23.85h0a.09.09,0,0,0-.07-.06h0l-.78-23.75a.09.09,0,0,0,.06,0Zm-.19,0a.09.09,0,0,0,.06,0l.77,23.75h0l-.1,0L16.56,25.1Zm-.08,0,.78,23.79h0s0,0,0,0h0l-.05,0-.78-23.69.06,0Zm-.18,0,0,0,.78,23.69h-.1L16.3,25.12Zm-.08,0,.78,23.72h0v0H17l-.79-23.62a.09.09,0,0,0,.06,0Zm-.19,0,.06,0,.78,23.62h0l-.1,0L16,25.14Zm-.08,0,.79,23.66h0a.09.09,0,0,0-.06-.06h0L15.9,25.18a.09.09,0,0,0,.06,0Zm-.18,0,0,0,.79,23.56h0l-.1,0-.79-23.6Zm-.08,0,.79,23.6h0s0,0,0,0h0s0,0,0,0L15.64,25.2a.05.05,0,0,0,0,0Zm-.19,0,.06,0,.79,23.49h0l-.11,0L15.5,25.18Zm-.07,0,.79,23.52h0a.08.08,0,0,0-.08-.06l-.79-23.43a.07.07,0,0,0,.06,0Zm-.19,0s0,0,.06,0l.79,23.43h0l-.11,0L15.24,25.2Zm-.08,0L16,48.67h0l0,0H15.9l-.79-23.36.06,0Zm-.18,0s0,0,.05,0l.8,23.37-.1,0L15,25.23Zm-.08,0,.8,23.39h0l0,0h0l-.79-23.29a.1.1,0,0,0,.05,0Zm-.18,0s0,0,.05,0l.8,23.29-.1,0-.8-23.33Zm-.08,0,.8,23.33h0a.08.08,0,0,0-.07,0l-.8-23.23.06,0Zm-.18,0s0,0,.05,0l.8,23.23-.1,0-.8-23.27Zm-.08,0,.8,23.27h0v0h-.06l-.8-23.17a.1.1,0,0,0,.05,0Zm-.18,0,.05,0,.8,23.17-.1,0-.8-23.21Zm-.08,0,.8,23.2h0a.08.08,0,0,0,0-.05h0l-.8-23.11,0,0Zm-.18,0,0,0,.8,23.1-.1,0-.8-23.14Zm-.08,0,.81,23.14h0a.11.11,0,0,0-.08,0l-.8-23,.06,0Zm-.18,0,0,0,.81,23-.1,0-.81-23.08Zm-.08,0,.81,23.08h0l0,0h0l-.81-23a.09.09,0,0,0,.06,0Zm-.18,0,0,0,.81,23-.1,0-.81-23Zm-.08,0,.82,23h0s0,0,0,0H14.1l-.81-22.92a.06.06,0,0,0,.06,0Zm-.18,0,.06,0,.81,22.92H14l-.82-22.95Zm-.07,0,.81,23h0v0h-.05L13,25.41a.05.05,0,0,0,.05,0Zm-.19,0,.06,0,.81,22.85-.1,0-.81-22.89Zm-.07,0,.82,22.88h0a.11.11,0,0,0-.08-.05l-.81-22.79a.09.09,0,0,0,.06,0Zm-.18,0,.05,0,.82,22.79-.1,0-.82-22.83Zm-.08,0,.82,22.82h0l0,0h0a.09.09,0,0,0-.06,0l-.82-22.73a.06.06,0,0,0,.06,0Zm-.18,0,.06,0,.81,22.73-.09,0L12.4,25.44Zm-.07,0,.82,22.76h0v0h0l-.05,0-.82-22.67a.05.05,0,0,0,.05,0Zm-.18,0s0,0,.05,0l.82,22.67H13l-.82-22.69Zm-.08,0,.83,22.69h0a.06.06,0,0,0-.06,0h0L12,25.49a.06.06,0,0,0,.06,0Zm-.18,0a.07.07,0,0,0,.06,0l.82,22.61h-.1l-.82-22.63Zm-.07,0,.82,22.63h0l0,0h0l-.06,0-.82-22.54a.09.09,0,0,0,.06,0Zm-.18,0s0,0,.05,0l.83,22.53-.1,0L11.63,25.5Zm-.07,0,.82,22.57h0s0,0,0,0h-.05l-.82-22.47a.1.1,0,0,0,.05,0Zm-.18,0s0,0,.05,0L12.31,48l-.1,0-.83-22.51Zm-.08,0L12.18,48h0l0,0h0l-.06,0-.82-22.41a.1.1,0,0,0,.05,0Zm-.18,0s0,0,.06,0L12.06,48,12,48l-.83-22.45Zm-.07,0L11.93,48h0l0,0h0l-.06,0L11,25.58a.09.09,0,0,0,.06,0Zm-.18,0a.09.09,0,0,0,.06,0l.83,22.35h-.1l-.83-22.38Zm-.07,0,.83,22.38h0a.08.08,0,0,0-.08,0L10.75,25.6a.09.09,0,0,0,.06,0Zm-.18,0,.06,0,.83,22.29h-.1l-.83-22.32Zm-.07,0,.83,22.32h0v0h0a.06.06,0,0,0-.05,0L10.5,25.62a.09.09,0,0,0,.06,0Zm-.18,0,.06,0,.83,22.22-.1,0L10.38,25.6Zm-.07,0,.84,22.26h0l0,0h-.05l-.84-22.17.06,0Zm-.18,0a.07.07,0,0,0,.06,0l.83,22.16-.09,0-.84-22.2Zm-.07,0,.84,22.2h0a.05.05,0,0,0-.05,0L10,25.66a.09.09,0,0,0,.06,0Zm-.18,0,.06,0,.83,22.1-.09,0L9.88,25.64Zm-.07,0,.84,22.14h0s0,0,0,0h0l-.06,0-.84-22a.09.09,0,0,0,.06,0Zm-.18,0s0,0,.06,0l.84,22-.1,0L9.63,25.66Zm-.07,0,.85,22.07h0v0h0l-.05,0-.84-22a.1.1,0,0,0,.05,0Zm-.17,0a.05.05,0,0,0,.05,0l.84,22h-.09l-.85-22Zm-.07,0,.84,22h0l0,0H10.1L9.26,25.72a.1.1,0,0,0,.05,0Zm-.18,0a.05.05,0,0,0,.05,0l.85,21.92H10L9.13,25.7Zm-.07,0,.84,22h0l0,0h0L9,25.74a.09.09,0,0,0,.06,0Zm-.18,0s0,0,.06,0L9.83,47.6H9.74L8.89,25.72Zm-.07,0,.85,21.89h0l0,0H9.61l-.84-21.8a.1.1,0,0,0,.05,0Zm-.17,0a.05.05,0,0,0,.05,0l.85,21.8h-.1L8.64,25.74Zm-.07,0,.85,21.83h0v0h0l0,0h0L8.52,25.78l.06,0Zm-.18,0a.05.05,0,0,0,.05,0l.85,21.74H9.25L8.4,25.76Zm-.07,0,.85,21.77h0l0,0h0L8.28,25.8a.1.1,0,0,0,.05,0Zm-.18,0,.06,0L9.1,47.47l-.09,0L8.15,25.78Zm-.06,0L9,47.49H9a.16.16,0,0,0-.08,0L8,25.82l.06,0Zm-.18,0,.06,0,.85,21.61-.1,0L7.91,25.8Zm-.07,0,.86,21.65h0a.16.16,0,0,0-.08,0L7.79,25.84l.06,0Zm-.17,0s0,0,0,0l.86,21.56-.1,0L7.67,25.82Zm-.07,0L8.5,47.41h0l-.08,0L7.55,25.86a.1.1,0,0,0,0,0Zm-.18,0a.07.07,0,0,0,.06,0l.85,21.5-.09,0L7.42,25.84Zm-.06,0,.86,21.53h0a.13.13,0,0,0-.07,0L7.3,25.87a.06.06,0,0,0,.06,0Zm-.18,0a.07.07,0,0,0,.06,0l.85,21.44-.09,0L7.18,25.86Zm-.07,0L8,47.33H8s0,0,0,0h0L7.06,25.89a.09.09,0,0,0,.06,0Zm-.17,0s0,0,0,0l.86,21.38-.09,0L6.94,25.88ZM29.2,49.13l-.05-2.19,3.89.58,16.1,2.4v2.4Zm20.15,3.18,0-2.4,15.79-3.49v2.15ZM50,62.19l0-6.4,2.1-.54,0,7.36Zm-.83-3.49v-.1l.35.06v.14l-.37-.07h0Zm-4,2.21,0-2.73,4.36.82,0,2.77ZM49.32,56l.2-.05v2.56l-.33-.06ZM45,58v0h0L45,61h0v0h0v0h.05l4.54.9h0l.05,0h0l0-.05h0l0-3v-.33l0-2.72.06,0,0,6.31-4.85-1,0-3.16Zm7.38,18.24-.06-10.22V62.73l0-7.53,1.11-.29.09,20.41Zm1.28-1.11-.09-20.3,5.07-1.31V70.83Zm5.17-4.5v-3.1l2.87.61Zm6.42-49.21v.14l-15.32.81,7.36-.59h0l8-.41S65.24,21.43,65.24,21.45Zm14.42-7.81,21.12,0h0l-.11,3.45-21.11.64ZM101,17.12h-.08l.11-3.45h.08v0Zm20.64,8.93-1.6-.21-2.43-.31-5.08-.66-2.35-.3-4.8-.62-2.29-.29-14.9-1.92-3.58-.46v-.61l3.13-.24L122,24.67l-.19,1.4Zm-1.74,33.8-.18,0,0-.53.17,0Zm-.14-.75,0-.49h0l0-.13h0a.1.1,0,0,0,0-.07l-.18-.13h0l-.32-.13h0l-.45-.11h0l-.11,0L120.1,26l1.41.18-1.6,32.91ZM116,57.81l-.23,0h0l-.44.06h0L115,58h0l-.15.11h0v0h0v.19L112.38,58l0-.48h0v-.13h0a.09.09,0,0,0,0-.06h0l-.16-.13h0l0,0-.3-.12h0l-.42-.12h0l-.18,0,1.32-31.85,4.88.62ZM104.53,56h0l-.22,0,.44-12.49.43,0L104.72,56ZM110,24.75l-4.61-.17,0-.43Zm-3.57,4.68h0a.1.1,0,0,0-.1.09h0l-.49,13.24v0h0a0,0,0,0,1,0,0v0H106l3.36.32v.17L105.72,43l.5-13.75,3.64.18v.18Zm-.51,14h0a.09.09,0,0,0-.09.08h0l-.47,12.88-.13-.12h0l.48-13,3.6.35v.17Zm-1.18-.64.52,0h0l.06,0v0l0,0h0l.48-13.21v0h0v0h0s0,0,0,0h0l-.53,0V29.2l.77,0L105.53,43l-.77-.08Zm5.1-13.5-3.64-.18v-.17l3.65.18ZM106,29.05l-.78,0v-.17l.77,0Zm-.8.51.44,0-.48,13-.42,0Zm-.3,26.53h0l.46-12.67v0h0v0h-.06l-.53-.05V43.1l.76.07-.48,13Zm.44.77,2.25.32,0,.09h0v.06L105.38,57Zm2.49.1h0l-.06,0-2.39-.34v-.18h0l2.63.38Zm.91-.17h0l-3.17-.46L106,43.58l3.26.32Zm.55-13.8-3.27-.31.49-13,3.3.17Zm.56-14.11-3.74-.19h0l-.86,0,.13-3.88,4.63.17ZM83.17,57.2l-.37.13.37-.51Zm19.77-32.71L88.2,24l0-2L103,23.84Zm-11.2,3.67,4.48.22v.16L92,28.32h0a.08.08,0,0,0-.08.05h0a0,0,0,0,0,0,0h0L91.51,41.6H91.4l0-1.93,0-1.36Zm9.72,1h0a.09.09,0,0,0-.1.09h0l-.43,13v0h0v0H101l1.31.13v.15l-1.53-.15L101.23,29l1.55.08v.17Zm-.72,27.09h0v.07l-.4-.06v-.15l.42.06ZM90.38,54.83l-2.95-.43-.5-.07.14-6.15.52-.14h0v0h0v0h0l.08-3.3.07-3.32h0v0h0v0H87.7l-3.93.87,1-.94,3-.64,3.5-.75-.05,1.91L90.87,54.9ZM84.22,49l1-.26-.13,6.19-1,.31Zm2.52,5.38-1.5.49.13-6.18,1.51-.42ZM84.1,55.4l1.07-.35,1.68-.54.15,0-2.91.95ZM81.82,48,83,47.68l-.16,8.53-1.18,1.61Zm1.36-.47h0l0,0h-.06l-1.36.35h0a0,0,0,0,1,0,0v0h0v-.19l1.53-.39ZM81.46,58.16l0,0h0l.05,0h.06s0,0,0,0h0L83,56.3h0v.06l-1.56,2.11Zm0,.62,0,0,.82-1.12v0Zm1-1.35,0,0,.74-1h0v0Zm.87-10.3h-.11l-1.68.43v-.14l1.79-.46Zm-1.73-3,1.86-1.74,4.13-.91-.07,3.12L81.6,46Zm9.77-2.32h.11l-.33,12.93v0h0v0h.06l4.18.6v.15l-4.37-.64ZM92,28.52l4.17.21L95.83,42l-4.13-.41Zm8.56,14L96,42.05l.38-13.31L101,29ZM95.44,55.23l-4.07-.59.33-12.83,4.12.41Zm.19.22,4.52.65v.15l-4.52-.66Zm4.53.46-4.53-.65.38-13,4.58.45Zm2.63-27-1.55-.08v-.16l1.55.07ZM101,28.79l-4.63-.24v-.16l4.64.24ZM84.75,39.55l-.52,0v-.72l3.56-.69,2.92.25Zm-.79,0,.37-18.89s0,0,.07-.05l-.38,19S84,39.58,84,39.57Zm-.19.18.37-19.06a.08.08,0,0,0,.07,0l-.37,19.14A.1.1,0,0,0,83.77,39.75Zm-.19.17L84,20.7a.08.08,0,0,0,.07,0L83.65,40A.1.1,0,0,0,83.58,39.92Zm-.19.17.38-19.38a.08.08,0,0,0,.06,0l-.37,19.47S83.42,40.1,83.39,40.09Zm-.19.18.38-19.55a.08.08,0,0,0,.06,0l-.37,19.63A.08.08,0,0,0,83.2,40.27Zm-.19.17.38-19.71a.07.07,0,0,0,.06,0l-.37,19.8A.13.13,0,0,0,83,40.44Zm-.19.18.38-19.88a.07.07,0,0,0,.06,0l-.37,20A.08.08,0,0,0,82.82,40.62Zm-.19.17.37-20a.08.08,0,0,0,.07,0L82.7,40.84A.13.13,0,0,0,82.63,40.79Zm-.19.18.37-20.21a.08.08,0,0,0,.07,0L82.51,41A.12.12,0,0,0,82.44,41Zm-.19.18.37-20.38a.08.08,0,0,0,.07,0L82.32,41.2S82.28,41.15,82.25,41.15Zm-.19.18.37-20.55a.09.09,0,0,0,.07-.06l-.38,20.65A.07.07,0,0,0,82.06,41.33Zm-.13.22a.13.13,0,0,0-.07,0l.37-20.71a.09.09,0,0,0,.08-.05Zm-.19.18-.06,0,.37-20.88a.06.06,0,0,0,.06-.05Zm.4-21a.08.08,0,0,0,.07.05L81.84,41.5s-.06,0-.07,0Zm.19,0s0,.05.07.05L82,41.33a.08.08,0,0,0-.07,0Zm.19,0s0,.05.07.05l-.37,20.38a.1.1,0,0,0-.07,0Zm.2,0a.08.08,0,0,0,.07.05L82.41,41a.09.09,0,0,0-.06,0Zm.19,0a.08.08,0,0,0,.07.05l-.37,20a.08.08,0,0,0-.07,0Zm.19,0a.1.1,0,0,0,.07,0L82.8,40.62a.08.08,0,0,0-.07,0Zm.19,0a.1.1,0,0,0,.07,0L83,40.44a.18.18,0,0,0-.07.05Zm.19,0a.1.1,0,0,0,.07,0l-.37,19.55a.1.1,0,0,0-.07,0Zm.19,0a.1.1,0,0,0,.07,0l-.37,19.38a.12.12,0,0,0-.07,0Zm.19,0a.08.08,0,0,0,.07,0l-.37,19.22a.08.08,0,0,0-.07,0Zm.19,0a.08.08,0,0,0,.07,0l-.38,19.05a.13.13,0,0,0-.06,0Zm.19,0a.07.07,0,0,0,.06,0l-.37,18.89s-.05,0-.06,0Zm0,17.94v-.15l.18,0,1.63-.31,1.59-.31h0v.16Zm0-.49h.06v.18h-.07Zm.25-.12,0,0h0a.06.06,0,0,0,0,0h0l1.28-.24H86v.17l-1.44.28Zm1.63-.3,0,0h0l0,0h0l1.25-.23h.05v.16l-1.4.27Zm1.24-.36-1.06.19.26-12.11,1.06-.1Zm-1.6.3-1.09.2.25-12.27,1.1-.1Zm2-12.48,0,0h-.07l-1.25.11h0l0,0h0v-.18l1.41-.13Zm-1.6.15h0s0,0,0,0h0s0,0,0,0h0l-1.29.11h0a.09.09,0,0,0-.08,0v-.2l1.45-.13Zm-1.65.16h0v0h0v-.16h.07ZM88,24.77h0l0,0h-.08l-1.57.13L84.67,25h-.16v-.16L88,24.58Zm0-.39-3.48.3.06-3.21,3.48.45Zm-3.5-3.9h0a0,0,0,0,1,0,0v0h0v0h0a.11.11,0,0,0-.08-.08.11.11,0,0,0-.11.09h0a.1.1,0,0,0-.09-.08.09.09,0,0,0-.09.09h0a.09.09,0,0,0-.09-.08.09.09,0,0,0-.09.09h0a.11.11,0,0,0-.1-.08.09.09,0,0,0-.09.09h0a.11.11,0,0,0-.1-.08.09.09,0,0,0-.09.09h0a.11.11,0,0,0-.1-.08.09.09,0,0,0-.09.09h0a.11.11,0,0,0-.1-.08.09.09,0,0,0-.09.09h0a.09.09,0,0,0-.09-.08.09.09,0,0,0-.09.09h0a.09.09,0,0,0-.09-.08.09.09,0,0,0-.09.09h0a.1.1,0,0,0-.09-.08.11.11,0,0,0-.1.09h0a.1.1,0,0,0-.19,0h0a.11.11,0,0,0-.1-.08.09.09,0,0,0-.09.09h0a.08.08,0,0,0-.07-.07v0h0l4.71-.24ZM81.67,42a.11.11,0,0,0,.08-.09V41.8h0v0a.1.1,0,0,0,.08,0h0a.09.09,0,0,0,.09-.09v-.08h0v0a.08.08,0,0,0,.08,0h0a.09.09,0,0,0,.09-.09v-.08h0v0a.16.16,0,0,0,.08,0h0a.11.11,0,0,0,.1-.1v-.08h0v0a.1.1,0,0,0,.08,0h0a.09.09,0,0,0,.1-.1v-.07s0,0,0,0v0a.1.1,0,0,0,.08,0h0a.09.09,0,0,0,.09-.09v-.08h0v0a.08.08,0,0,0,.07,0h0a.09.09,0,0,0,.09-.09v-.08h0v0a.08.08,0,0,0,.08,0h0a.09.09,0,0,0,.09-.09v-.08h0v0a.09.09,0,0,0,.08,0h0a.09.09,0,0,0,.09-.09v-.08s0,0,0,0v0a.08.08,0,0,0,.08.05h0a.09.09,0,0,0,.09-.1v-.07h0v0a.08.08,0,0,0,.07,0h0a.09.09,0,0,0,.09-.09V40h0v0a.1.1,0,0,0,.08.05h0a.09.09,0,0,0,.1-.09v-.08h0v0a.1.1,0,0,0,.08,0h0a.1.1,0,0,0,.1-.1v-.08h0v0a.1.1,0,0,0,.07,0l.41,0-2.86,2.66Zm0,.68,3.14-2.92,6.49-1.31,0,1.16-3.54.75-3,.65,0,0h0l-1.28,1.2-1.74,1.63Zm.6,15.41v.46l-.43.15Zm1.3-11.27v0h0v0h-.1l-1.86.48,0-.93,5.94-1.47-.07,3.1L87,48l-1.7.47-1.14.31-.06,0h0v0h0l-.12,6.44v.3h0a.05.05,0,0,0,0,0h0l0,0h0l3.29-1.07v.45l-3.94,1.3Zm4,7.82,2.76.4v.46l-2.76-.4Zm2.95.43.49.07,4.56.66,4.71.69.51.07,0,.49L90.45,55.5ZM101,56h0l-.07,0-.58-.08.43-13.23,1.53.15V43l-1.3-.13h0s0,0-.06,0h0a.08.08,0,0,0,0,0h0l-.42,12.74v0h0v0h.06l.66.1Zm.84-.16-1.19-.17.41-12.55,1.21.12Zm.46-13.5-1.21-.11.43-12.84,1.22.07Zm.47-13.79-1.65-.08h0l-4.82-.24h0L91.65,28h-.08s0,0,0,0v0h0L91.3,38.2l-3.41-.3.3-13.43v-.33l14.73.54Zm-8.59-9.24,0-1h0a.09.09,0,0,0,0-.06h0a.09.09,0,0,0-.06,0h0l-14.48.55V18l21.11-.64,0,1.66Zm-14.82-.5-.43,0V18h.43Zm-.61-1L53.6,17.39v-.25h0v-.06h0v-.16h0v-.23h0v-.35L78.84,13.7ZM53.61,19.94V17.58L78.78,18l0,.84-21.63.83h0ZM81.34,60.48l.76.13-.76.28Zm1.13,0-1.12-.19V60l.08,0,1.58.26Zm.91-.33-1.86-.31V59h0v0l3.43.57Zm2-.71-3.51-.57.53-.19,3.5.58Zm.89-.32-3.78-.61v-.82l5.38.85Zm2-.71-5.45-.87.51-.17,5.44.86Zm.87-.32-5.72-.9v-.56l6.83,1.06Zm16.29-.89,2.23.33,0,.5-2.23-.33Zm7,1,2.43.36,0,.52-2.42-.36Zm-59-41.43v0l-6.8.7,0-.61Zm-.51.29h0v0h0v.26l-3.93.09Zm.17.4h0v-.25h.35v.25h0V20l-.35,0ZM53,20.19l.53-.05L57,19.83l.13,1.8L5.51,25.8l-.87-.05,0-1.26ZM6.79,25.92l.87,21.35-1.16.19L5.61,26Zm.88,21.54.11,0h.07l.05,0,.12,0h.07l.05,0,.12,0h.07l.05,0,.12,0h.07l0,0,.12,0h.07l0,0,.12,0h.08l0,0,.12,0H9.3l0,0,.12,0h.07l.05,0,.12,0h.08l0,0,.13,0H10l.05,0,.12,0h.08a.05.05,0,0,0,0,0l.13,0h.07l.05,0,.12,0h.08l.05,0,.12,0H11l0,0,.13,0h.08a.05.05,0,0,0,0,0l.13,0h.07l.05,0,.12,0h.08l.05,0,.12,0H12l.05,0,.12,0h.08l.05,0,.12,0h.08l.05,0,.13,0h.08l0,0,.13,0H13a.05.05,0,0,0,0,0l.13,0h.08l.05,0,.12,0h.08l.05,0,.13,0h.12l.13,0H14l.05,0,.13,0h.08l0,0,.13,0h.08l.05,0,.13,0h.08s0,0,0,0l.12,0h.09l0,0,.13,0h.09a.05.05,0,0,0,0,0l.13,0h.13l.13,0h.08l.05,0,.13,0h.08l.05,0,.13,0h.08s0,0,0,0l.13,0h.08l.05,0,.13,0h.13l.13,0h.13l.14,0h.13l.13,0h.13l.13,0h.09l0,0,.14,0h.08l0,0,.13,0h.09l.05,0,.13,0h.13l.14,0H19l.05,0,.13,0h.09l0,0,.13,0h.09l0,0,.14,0h.08v0h0l.14,0h.13l.14,0h.13l.14,0h.09l.05,0,.13,0h.14l.13,0h.14l.14,0h.09a.05.05,0,0,0,0,0l.14,0h.08v0h.05l.13,0H22l.14,0h.09s0,0,.05,0l.13,0h.14l.14,0h.09l.05,0L23,50h.08v0h.05l.14,0h.09l0,0,.14,0h.1l0,0,.14,0h.09v0h0l.14,0h.14l.14,0h.14l.15,0h.14l.14,0H25l0,0a0,0,0,0,1,0,0h0l.14,0h.14l.14,0h.15l.14,0h.14l.14,0h.09v0h.05l.14,0h.14l.15,0h.14l.14,0h.15l.14,0h.15l.14,0h.14l.15,0h.09v0H28l.14,0h.09v0h.05l.14,0h.15l.14,0h.15L29,51h0l.16,0h0l0,0h0v0h0l0-1.59,20,3.2h0l15.84-3.75v1.29L47.4,54.44,7,47.58Zm39.73,9h0l1.42-.36-.1,2.12-3.86-.71L45,56Zm-2.7,1.11h0v.06h.05l4,.75h0l.06,0a0,0,0,0,0,0,0,.05.05,0,0,0,0,0h0L49.06,56l.07,0L49,58.48v.1l-3.9-.72-.24,0-.22,0,.08-1.8h.06Zm-.26.29h0v0h.07l.22,0,0,3.16L44,61l0-2.6V58h0v-.08h0V55.83l.6.11Zm-.71-2.06,0,1.35-1-.16L42,56.5l-.68-.44v-.4l.18-.26Zm-2.56-.22h0a.08.08,0,0,0,0,.05v.49h0v.64h0v0h0v0h0l.72.47.76.49h0l.87.15-2.33.61,0-1.31h0v0h0a.08.08,0,0,0-.08,0h0l-2.93.74-.83-.35-1.07-.68-.2-.29h0L36,56.43a.1.1,0,0,0-.05,0h0l-.29-.06,4.74-1.14,1,.18Zm-6,.68h-.06v0h0l0,.56-2.71.66h0l-2.1.52-.11-4.69,9.72,1.72ZM30,53.35l.11,4.85v.09h0l0,.77,0,2.06,0,1,0,.69,0,1,0,1.86.06,2.64v.47l-5.21,1.58-.49-18Zm-5.54-1,.49,18-.82-.21L24,67.53V67l0-.53,0-1,0-1.66,0-.82v-.47l0-1.24-.25-9ZM7.71,67.27h0l0-.18,8.5,2.26-5.18,1.47-2.29-2L7.64,67.61Zm1.08,1.8,0,0L11,71v0ZM11.14,71l5.38-1.53v.08l-5.37,1.54Zm5.57-1.5v-.08l1.95-.55v.07Zm-1.32-2.75-1.88-1.17,8,2-2.75.78Zm3.45,1.86v-.07l2.94-.83v.07Zm0,.28v-.08l3.06-.87H22v0h0v0h0v-.2l1.27-.35v.33ZM23.42,67v-.33l.4-.12v.34Zm.27-4.68-1.15-.26,1.14-.29Zm.09,3.15,0,.89-.49.13-1.9-.84h0L19.28,65l-1-.73h0l-.21-.12Zm-6-1v-.28l.36.22v.28Zm.56.35v-.27l.78.59v.28Zm1,.72v-.31l1.95.61v.33Zm2.15.7v-.32l1.73.78V67Zm1.93,1.34v-.34l.41-.11v.33Zm.24-6L22.13,62l-.53-.12,2.07-.52Zm0,.94v.25l-1.4-.57Zm-6.1,1.53v.3l-.52-.17v-.3Zm-.6.3.67.22.55.33,1,.75h0l0,0,2.15.68,1.68.76-1.19.33-8.54-2.14Zm-1.71,2.53h0l3.34,1.61v.06L15.4,67,13,65.54v0ZM12.93,65.7l2.37,1.48h0l3.17,1.53-1.87.53L8.05,67ZM7.44,67.62h0v.27a.05.05,0,0,0,0,0s0,0,0,0L8.65,69.2h0l2,1.8L2.49,68.69l5-1.31Zm8.92,5-4.95-1.4,5.23-1.5,2.14-.61,4.59-1.3.47-.14.07,2.52-5.67,1.71h0ZM24,70.35l1,.26H25L30.45,69h0v0a0,0,0,0,1,0,0v0h0v-.47L41.8,65l2.14-.64,8.18,1.74.06,10.31L48,80.09,18.62,72ZM130.27,58.42h0l1.88.59h0l2.7.64.74.32.59.4-6.16-.88.07-1.17Zm7.14,5.31h0v0h0v0h0l0,0h0l-1.92-.69h0l-2.92-1.1,1.13.21h0l3.46.71h0l1.53.35h0l1.16.19L137.33,65Zm2.73-.48h0v0h0l0,0h0l-1.4-.23-1.53-.35h0l-3.47-.71h0l-2.44-.44-2.31-.75,7,1.13h0l3.54.43h0l1.3.15h0l1.44.18L140.09,64Zm2.29-.85-1.64-.21h0l-1.3-.15h0l-3.54-.43-7.31-1.18,1.34-.74,6.62.94,7,1Zm1.47-.84h0v0s0,0,0,0h0s0,0,0,0h-.05l-7.18-1-.92-.62h0l-.76-.33h0l-2.7-.63-1.87-.59-.23-.13,0-.4,6.1.82.86.62h0l1.38.45h0l6.83,1.6-1.5,1.06Zm1.75-.15,1.3.18-1.38,1ZM4.65,26.06,5.42,26l.9,21.58h0a.08.08,0,0,0,0,0h0l0,0,40.92,6.95v1.62l-2.42-.43-.25-.05-.8-.14L41.5,55.2,40.36,55h0L30.08,53.18l-5.54-1-1-.18L9,49.43H9l-3.36-.6ZM21.29,62l.28.11-.27.07Zm.58.23,1.84.75,0,.61-2.42-1v-.21Zm74.88,8,0,1.31L94,70.68l0-1.29Zm.19,0,3.74.58,0,1.33-3.74-.59Zm3.94.6,6.63.71L107.45,73l-6.62-.72Zm6.82.71,9.28-1-.06,1.32-9.28,1Zm9.47-1,1.73-.19-.06,1.32-1.73.19Zm1.92-.2,2.79-.1-.07,1.32-2.78.1Zm3-.1.58,0-.07,1.31H122Zm.77,0,2.53.4-.07,1.33-2.53-.41ZM98.1,75.61,88.1,72l0-1.12,10,3.55Zm.23-1.15L110,75.92l0,1.24-11.65-1.5Zm11.85,1.48,4.4.19,0,1.24-4.4-.19Zm4.6.19,1.89.08-.06,1.24-1.89-.07Zm2.08.09,2.12.29-.07,1.25-2.11-.29ZM104.27,91.74l-1.42-.45h0l-2.18-.59h0l-2.83-.78L105,91.8ZM90.25,88l-.5-.17.91.24Zm15.81,3.91L86.41,86.73l-1.87-.6h0l-10.8-3.74,22.44,5.78,1.78.65h0l4.88,1.47h0l4.35.73ZM103,88.29l-4.79-1.41,7.14,1.79Zm4.54.73L96.29,86.21l-8.33-3-7.46-3.1L110,87.26Zm2.73-3.43-.91-.74h0l0,0-1-.17h0l-2.25-.47h0l-6-1.43-9.68-3L76.11,73.64l12.17,2.71.43.2h0l5.77,2h0l9.67,2.34h0l5.86.94h0l2.11.16,2.74.3Z"/><path class="cls-3" d="M36.9,47.17h0l-.34-19.22v0h0v0h-.07l-3.22-.2h0a.08.08,0,0,0-.06,0h0s0,0,0,0v0h0l.38,19h0v0s0,0,0,0h.07l3.18.47h0l0,0h0l0,0h0ZM33.34,27.84l3,.19.34,19-3-.43Z"/><path class="cls-3" d="M40.79,47.74h0l-.28-19.55h0v0h0a.12.12,0,0,0,0-.05h0l-3.34-.21H37v0h0v0h0l.33,19.27h0s0,0,0,0v0h.07l3.29.48h0s0,0,0,0h0l0,0ZM37.18,28.08l3.14.19.28,19.35-3.1-.45Z"/><path class="cls-3" d="M44.82,48.32h0L44.6,28.43h0v0h-.07l-3.46-.21H41s0,0,0,0h0s0,0,0,0v0h0l.27,19.6h0v0h.06l3.41.5h0l.06,0h0l0-.06h0Zm-3.68-20,3.27.2.22,19.68-3.22-.46Z"/><path class="cls-3" d="M57.59,47.21v0h0l0-19.23h0s0,0,0,0v0h-.09l-3.68.34h-.06v0h0v0h0L53.78,48h0a.05.05,0,0,0,0,0h0l.05,0h0l3.62-.78h0v0h0ZM53.9,28.37l3.48-.32,0,19.06L54,47.85Z"/><path class="cls-3" d="M61.59,27.58h0v0h0l0,0h-.07L58,27.81h0l0,0h0v0h0V47.07h0s0,0,0,0h0l.06,0h0l3.43-.75h.07v0h0ZM58.1,28l3.29-.3,0,18.56-3.25.7Z"/><path class="cls-3" d="M100.45,42.92v0h0v0h-.07l-4.13-.41h0l-.06,0v0a.08.08,0,0,0,0,0h0l-.37,12.55h0v0h.07l4.09.59h0a.07.07,0,0,0,.06,0s0,0,0,0l0,0h0Zm-4.13-.31,3.94.39-.41,12.52L96,55Z"/><path class="cls-3" d="M100.89,29.23v0h0s0,0,0,0a0,0,0,0,1,0,0h-.07l-4.18-.22h0a.1.1,0,0,0-.07.08h0l-.37,12.81h0v0h0l0,0h0l4.14.41h0a.09.09,0,0,0,.06,0v0a.05.05,0,0,0,0,0h0Zm-4.18-.12,4,.21-.42,12.8-3.94-.39Z"/><path class="cls-3" d="M91.82,41.4a0,0,0,0,1,0,0h0s0,0,0,0h0v0h0l3.7.35h0a.07.07,0,0,0,.06,0h0a.09.09,0,0,0,0-.06h0L96.08,29v0a0,0,0,0,0,0,0v0H96l-3.74-.2h0a.08.08,0,0,0-.1.08h0Zm3.7.25L92,41.31l.32-12.43,3.55.19Z"/><path class="cls-3" d="M95.69,42.45v-.06h-.07L91.91,42h0a.06.06,0,0,0-.05,0h0a0,0,0,0,0,0,0h0l-.32,12.37h0v0h0v0h.06l3.65.53h0a.09.09,0,0,0,.06,0h0a.05.05,0,0,0,0-.05h0ZM92,42.18l3.51.35-.36,12.32-3.46-.49Z"/><path class="cls-3" d="M71.69,71.78a.09.09,0,1,0,0,.18l1.07.24L85.29,75l3,.67h0a.1.1,0,0,0,.09-.07.1.1,0,0,0-.07-.12l-3-.66-.73-.34h0l-8.4-3.86a.09.09,0,0,0-.12,0,.1.1,0,0,0,0,.13l8.34,3.83L72.76,72Z"/></g><g class="cls-4"><path class="cls-3" d="M280.35,92.41,256,92.35h0l-4.73.18-13.2,0,0-.11s0,0,0,0,0,0,0,0h0a0,0,0,0,1,0,0h0l-11.16,0-7.38-39.09v0s0,0,0,0l-3.09-2.64h0l-.05,0L201.87,38.25,169,7.12h0a0,0,0,0,0,0,0h-.09v0l0,0L165,20.59,137.39,1.88h-.12L86.83,60.26h0l-1.25,2.2h0L84,66h0l-1.64,4.21h0l-1.38,4.08h0l-.8,3.09v0h0v1.3a.11.11,0,0,0,0,.06h0l1.58,1.58-4.3,12.2-14.79.06h-.06a0,0,0,0,0,0,0h0l-.29.69-6.53,0a.09.09,0,0,0-.09.1.09.09,0,0,0,.09.09h0l6.58,0L75.7,97.53h0L238,92.92h0l0,0s0,0,0,0a0,0,0,0,0,0,0h0l0-.14,8.68,0L106.5,98a.09.09,0,0,0-.09.1.09.09,0,0,0,.09.08h0l144.75-5.42,4.73-.18,24.37.07h0a.09.09,0,0,0,.09-.1A.09.09,0,0,0,280.35,92.41Zm-53.76,0h0v0h0l-5.19-27.69Zm-3.17-6.14.76,0h0l0,0h0s0,0,0,0,0,0,0,0h0l-.14-.64.69.1,1.56,6.87-1.59,0h0Zm-2.3,6.21h0l-.11-.52s0,0,0,0,0,0,0,0l0,0h-.15l-1.25-6.07,3.14.39.17,0,.38,0,1.37,6.23-3.47.05v-.06Zm-15.35.08L205.7,92h15.15l.07.34h-.1l-1.93,0H218Zm2,.16-2,0h0Zm-59.4-.57h0s0,0,0,0a0,0,0,0,1,0,0h0s0,0,0,0h-1.41l.1-1.24h0a0,0,0,0,0,0,0s0,0,0,0l0,0h0l-1.34,0,.09-1,32.93.61,2.74,1.55.3.17h0l.71.4h0l.74.41.1.06h0l.09,0-35,.44.1-1.26Zm-.29,1.35h0s0,0,0,0h0l-35.61.5s.07,0,.07-.07l.37-1.69h17.42l7.84,0h10l-.1,1.26Zm-35.67.35L106.7,90.3l.75-2.65,2.61-.23-.34,1.47v0h0s0,0,0,0,0,0,0,0l0,0h0l1.36-.07-.35,1.53s0,0,0,0h0s0,0,0,0l0,0,0,0h.05l1,0-.35,1.6h0s0,0,0,0l0,0h0a0,0,0,0,0,0,0h1.08Zm0,.2h0Zm-14.23-.74.62.54h-.75l-.6-.54Zm-.93-.18-16.5-15H81l17,15Zm1,0L81.09,78l0-1.15.12-.47,0,.89h0s0,0,0,0h0a0,0,0,0,0,0,0h0l.31.25L102.09,94l-2.93-.15h0a.06.06,0,0,0,0,0h0Zm101-48.45-.16-.84h0l0,0-2.71-1.83-.07-.53.78.43h0l.91.51h0l.29.17h0l0,0,.13.08h0l.13.07h0l.3.17h0l.87.49h0l.84.48h0l.23.14,0,0,.13.07.12.07.31.18h0l.81.47h0l.78.47h0l.17.09,0,0,.11.06h0l.11.06h0l.34.2h0l.75.45h0l.73.44h0l.09,0h0l.05,0h0l.1.07.11.06.33.2.56,3.11L206,49.8h0l-.73-.42h0l-.76-.42h0l-.78-.43h0L203,48.1h0l-.82-.45h0l-.83-.45h0l-.86-.46h0l-.88-.46h0l-.9-.47h0l-.91-.48,1.53-.56h0l0,0h0a0,0,0,0,0,0,0s0,0,0,0Zm-9.71-8.37h0l-3.38-1.77h0l-3-1.53L182,32.12l.83.38,1.25.64h0l1.22.63,1.19.62h0l1.16.6h0l1.14.6h0l1.1.59h0l1.08.58h0l1.06.58h0l1,.56h0l1,.55h0l1,.55h0l1,.54h0l.92.53h0l.91.52h0l.88.52h0l.87.51h0l.84.49h0l.82.49h0l.81.49h0l.78.47h0l.77.47h0l.74.46h0L205,45h0l.71.44h0l2,1.31h0L209.63,48h0l1.72,1.19,1.59,1.14h0l3.14,2.3-.15,0-1.57-1.14-1.71-1.24h0l-1.59-1.13h0l-1.72-1.18h0l-1.87-1.23h0l-2-1.3h0L203.29,44h0L201,42.63h0l-2.53-1.48h0l-2.71-1.54h0L192.75,38h0Zm2.93,2.86L192.3,39h0l-.75-.4L190,37.54l-.08-.77,2.57,1.38Zm-3.17-2-2.88-1.95,0-.21,2.82,1.47Zm-3.46-2.34-.65-.45.64.33Zm21.42,9h0l-2-1.37h0l-.71-.47h0l-.73-.47h0l-.74-.48h0l-.76-.49h0l-.78-.5h0l-.79-.5h0l-.13-.08,1.16-.43,6.63,5.6Zm1.75,1.45,1.24.91.48.34h0l1.56,1.18.47,2.26-1.4-1h0l-1.73-1.19h0l-1.86-1.24h0l-2-1.28-.45-2.49L207.26,44h0Zm-8.36-5.58h0l.8.51h0l.77.49h0l.76.49h0l.74.48h0l.73.48h0l.67.44.45,2.51-.53-.34h0l-.73-.45h0l-.75-.46h0l-.76-.46h0l-.79-.48h0l-.8-.48h0l-.83-.49h0l-.84-.5h0l-.86-.51h0l-.89-.52h0l-.9-.52h0l-.89-.51-.39-2.77.76.46h0l.9.54h0l.87.54h0l.86.53h0l.83.52h0l.53.33Zm-4.86-.44-.79-.45h0l-1-.55h0l-1-.55h0l-1-.57h0L191,36.6h0L190,36h0l-1.11-.59h0l-1.13-.6h0l-1.16-.61h0l-1.2-.62h0L184.13,33h0l-1.2-.62-.23-3.06,1.08.58h0l1.21.65h0l1.17.65h0l1.15.63h0l1.12.62h0l1.09.61h0l1.07.61h0l1,.59h0l1,.59h0l1,.58h0l1,.56h0l.9.54Zm-13.15-7-1.44-.66h0l-.16-.05-6.59-4.48.2,0,1.44.08,1.57.27,1.63.45,1.62.62,1.51.72ZM217.6,53.92l1.68,7.33-.68-.41-.48-2.15-.33-1.47-.65-2.88-.32-1.42-.28-1.26.67.5Zm-.21-1.77L219,53.5l-1.22.28Zm-3.91,38.17L212.89,87l3,.24.6,3.13Zm3,.38.11.6-3,0-.12-.65ZM185.7,91.83h-2.29l-.48-8,2.38.22.33,4.73h-.06l0,0,0,0a0,0,0,0,0,0,0s0,0,0,0Zm-40.33-1.16-33.32-.31h0l-1,0,.33-1.47,34.09.67Zm1.42.2L146.7,92h-8.51l-7.84,0h-7.93l-10.63,0,.34-1.53,33.32.31ZM111.3,88.74h0l-1.36.07.32-1.39,13.22.38,3.06.08,12.42.36,2.66.08,9.39.27h.45l2.39.07,3.45.1h.4l1.07,0h0l3,.09L164,89l4,.12,1.11,0,1.34,0,2,0,1.94.06h.06l.54,0h.28l3.2.09,0,.68v0l-32.85-.62v0s0,0,0,0l0,0,0,0h0ZM97.43,73.34h0s0,0,0,0v0h0l0,0h0l9.95,1.07-2.6,8.73-10.4-.54,3-10.08.17,0-.21.69Zm.25-.18.16-.53,12.5-7.78-.23.79ZM110,65.9l-2.52,8.44-9.71-1Zm-7.27,22-8.07-5,10.12.52-1.31,4.38Zm.69.13-.08.25L103,88Zm-9.16-5.35-7.78-4.79L97.26,72.7Zm-8-4.89-3.66-.28L92.23,72l4.85.54Zm5.86-5.89-9.82,5.56-.24-.18-.06-1,.62-2.55,1.13-3.41,1.38-3.55,1.35-3,1.09-1.88,21-23h0l15.67-16.13L114.82,55.4ZM87.5,61.68l-.43-.07,20.63-23,.73.24Zm37.08-39.15,1,.48,1.63.78h0a.09.09,0,0,0,.08-.05.09.09,0,0,0,0-.12l-1.63-.78-1.11-.53h0s0,0,0,0h-.05L108.57,38.69l-.74-.24L135.17,8l61,38.05-.37.13-3,1.1.13-.42,2.18-.8h0l0,0h0a0,0,0,0,0,0,0v0h0l0,0,0,0-.9-.55-.88-.54L136.75,10h-.12l-6.1,6.51L129,18.22h0s0,0,0,0v0l0,0s0,0,0,0h0l.63.33h0a.09.09,0,0,0,.08-.05.08.08,0,0,0,0-.12L131.22,17l5.47-5.7,2,5.14L128.07,26.52a.1.1,0,0,0,0,.13.09.09,0,0,0,.07,0,.09.09,0,0,0,.06,0l10.66-10.16L141.1,15l-4.89,4.61-1.59,1.5,0,0a.07.07,0,0,0-.07,0,.1.1,0,0,0,0,.13L145.43,27h0a.09.09,0,0,0,.08,0,.11.11,0,0,0,0-.11l1.61-1.24L153,21.11l1.6,4.09h0l.16.42-3.18,2.25-1.74,1.23-4.51,3.19-1.84,1.3a.09.09,0,0,0,0,.13.07.07,0,0,0,.07,0l.05,0,1.81-1.27,8.2,3.92,1.61.77h0a.09.09,0,0,0,.08-.06.1.1,0,0,0,0-.12l-1.62-.77-8.1-3.88,4.33-3.06,8.18,4.28h0a.11.11,0,0,0,.09,0,.13.13,0,0,0,0-.09l1.63-1,5.9-3.6,1.19,3,.38,1-3.19,1.8-1.76,1-4.59,2.59-1.9,1.07a.1.1,0,0,0,0,.13.08.08,0,0,0,.08.05l0,0,1.85-1,6.08,2.9,1.57.75h0a.09.09,0,0,0,0-.18l-1.57-.75L158,38.29l4.39-2.48,6,3.13h0a.1.1,0,0,0,.08-.05.11.11,0,0,0,0-.08l1.62-.82,5.84-3,.92,2.33.49,1.27-3.13,1.47-1.74.82-4.57,2.15L166,44a.08.08,0,0,0,0,.12.08.08,0,0,0,.08.06h0l1.86-.88,4.52,2.17,1.52.72h0a.1.1,0,0,0,.08,0,.09.09,0,0,0,0-.12l-1.52-.73-4.39-2.1,4.35-2,4.41,2.3h0a.1.1,0,0,0,.08-.05.17.17,0,0,0,0-.07l1.58-.69,5.72-2.48.72,1.84h0l.56,1.42-3.05,1.23-1.7.69-4.49,1.81-1.88.76a.1.1,0,0,0-.05.12.11.11,0,0,0,.09,0h0l1.84-.75,3.36,1.61,1.47.7h0a.09.09,0,0,0,.08,0,.1.1,0,0,0,0-.12l-1.47-.7-3.21-1.54,4.26-1.72,3.24,1.69h0a.09.09,0,0,0,.08,0,.06.06,0,0,0,0-.06l1.54-.59,5.56-2.12.41,1h0l.18.46h0l.58,1.48-1.3.46h0l-.48.17h0l-.13,0,0,0h0l-.11,0-6.91,2.46-1.84.65a.09.09,0,0,0-.05.12.1.1,0,0,0,.08.06h0l1.8-.64.06,0,.56.27.47.23,0,.48,0,.34v.11h0v0h0l-.1,1.77-.06,1.11-.2,3.6V59l0,.29h0v.12h0l-.09,1.76-.28,5.12,0,.25h0v.13h0L183.7,69l-.14,2.54L181.29,71l.48-7.61v0a0,0,0,0,0,0,0l0,0h0L127.5,40h-.08l-.59.28h0l0,0s0,0,0,0h0l-4.42,16.73L115,55.38ZM207.44,47.9h0l.05,0h0l.1.06.09.06.39.24h0l1.25.81,0,0,.09.06.09.06.4.26h0l1.1.74.05,0h0l.08.06h0l.08,0,.42.28h0l1,.68,0,0,.08,0,.08.06.39.27.59,2.8-1.42-.92h0l-1.73-1.09h0l-1.88-1.14h0l-2-1.17-.56-3.09Zm-1.3-1h0l-.33-.21-.15-.81,1.56,1,.14.78Zm1.53.27,1.42,1,.14.74-1.06-.69h0l-.36-.22Zm1.86,1.25,1.29.88.14.7-.92-.62h0l-.37-.23Zm1.72,1.18,1.17.83.13.66-.78-.54h0l-.38-.26ZM216,53.69h0l0,0h0l.07,0,.49.35h0l.41.29.59,2.63-.25-.17L214,54.7l-.58-2.79.9.64h0l0,0,.07.05h0l.08.06h0Zm-1.42-1.76,1.2.87.13.61-1.2-.85Zm7.83,29.63.27,0,.36,1.61-.29-.05Zm0,1.48-1.22-.22-.32-1.46,1.23.27Zm.43-1.48.25.06.36,1.62-.24,0Zm-.1-.21-3.25-.72-.76-3.6.95.28h.05l.07,0,.08,0,1.42.42h.05l.07,0,.48.14.39.12.45,2,.3,1.35Zm-2.93,1s0,0,0,0v0h0l-.22-.3h0l0,0s0,0,0,0h0l-.16-.22-.16-.75,1.33.29.32,1.47-1-.18h0l-.24,0,.16-.09h0s0,0,0,0l0,0ZM198.92,83.9h0l-5.85-.51h-.22l-.33,0h-.4l-.8,0h-.15l-4.32.27-.09-1.15h0l0,0s0,0,0,0l3.86.32h0l4,.35h0l3.66.33h0l3.35.31h0l1.14.11h0l0,0a0,0,0,0,0,0,0s0,0,0,0v0h0l0,.21-3.61-.33h0Zm.11,1.78-5.69-.38-.16-1.56,5.67.48Zm-16.64,6.08h0l-.09-1.59h0a.08.08,0,0,0,0-.05h0l0,0h0l0,0s0,0,0,0h0l-.25-4.4h0s0,0,0,0a.08.08,0,0,0,0,0h0s0,0,0,0v0h0L182,83.86h0l.45,8h0a0,0,0,0,0,0,0l0,0Zm-7.85-9v-.1l.81.13v.1Zm.49,3.08h0v0Zm-.14-1.74h0L173,84l.1-1.11.38.09h0l1.13.17h0l.2,0h.08l0,1h0Zm0,5h-.36l-.12-4.75.35,0Zm-.72-4.74,0,1.29-1.36.07.11-1.28Zm-1.2-.1v0h0Zm1.3,1.57h0l-1.45.07h0Zm-.06.2.08,3-1.75,0,.26-2.93Zm11.06-2.36-2.45-.24-.16,0L178.06,83h0l-1.4-.15h0l-1.2-.16h0l-1-.16-.75-.17-.11,0,.23-.05.88-.09h0l1.19-.05h0l1.46,0,1.66,0h0l1.79,0h0l1.85.08h0l1.83.11h0l.8.06h0s0,0,0,0a37041283011,37041283011,0,0,1,0,.06ZM178,83.22l-1.22-.12V83l1.21.13Zm-1.4-.14-1-.13v-.1l1,.13Zm-2.22-.33-.57-.12v-.1l.57.12Zm-.54-.69h0l-.54.11h0l-.05,0h0l0-.13.53-.06.48,0Zm-.21.52-.28-.1v-.1l.29.1Zm-.44,0h0l.45.16-.13,0-.41-.09v-.11Zm2.82.68h0l1.52.16h0l4.27.39.08,1.51-6.58.34-.07-2.49Zm2.17-.05v-.09l4.42.43v.07Zm4,.64h0l.37,0,.47,8h-.42Zm.58,0h0v0l.48,8h0Zm.2-.22,2.37.23v.08l-2.38-.23Zm1.75-1.56h0l-2-.12h0l-2.08-.09h0l-2,0h0l-1.87,0h0l-1.63,0h0l-1.33.06h0l-.51,0,.4-4.51h.31l1-.07.66,0h.94l1.83,0h.45l.56,0,1,0h0l1,.07,1,.06h0l1.14.1h0l.82.07h0l.79.09h0l.74.08.29,0,.32,4.31ZM181.18,71.6h0s0,0,0,0a0,0,0,0,0,0,0s0,0,0,0,0,0,0,0h0l0-.36,1.95.46-9.32,2,0-.44Zm-.1-.2L122.86,58l4.67-17.77,54.05,23.16L181.1,71Zm2.58.31h.05a0,0,0,0,0,0,0s0,0,0,0h0l.14-2.55,1.13.2h0l.23,0h0l.21,0,.07,0,.4,5.42-1.77-.24h0l-2-.21h0l-2-.15h0l-1.95-.1h0l-1.81,0h0l-1.58,0h0l-.94.08,0-.34Zm.77-10.4h0l.23.06.2,0,.07,0,.38,5L184,66.21l.28-4.93Zm-.11-.22v-.25l0,.26Zm4.7-12h0l1.2.48h0l.58.23h0l0,0h0l.17.07.17.07.22.09h0l1.14.46h0l1.11.46h0l.43.18,0,0,.16.07h0l.16.06h0l.28.12h0l1.06.44h0l1,.43h0l.38.16h0l0,0h0l.15.06.14.07.24.1.54,3.89-.87-.34h0l-1-.4h0l-1.06-.4h0l-1.09-.41h0l-1.13-.42h0l-1.15-.43h0l-1.19-.43h0l-1.22-.45h0l-1.25-.45h0L187,52.44h0L185.67,52h0l-.84-.29,0-.48h0a.06.06,0,0,0,0,0l0,0a0,0,0,0,1,0,0l-.48-.23,0-.34L188.65,49Zm-.12-.25,1.63-.59h0l.05,0,.14,1.35-.43-.18h0l-1.2-.48h0Zm10.56-.73.3.15.89.45h0l.86.44.23.13,0,0,.13.06.12.07.31.16h0l.82.43h0l.8.42h0l.17.09,0,0h0l.12.06h0l.11.06.34.19h0l.76.4h0l.74.4h0l.09,0h0l0,0h0l.1.06h0l.11,0h0l.33.19.6,3.28-.57-.28h0l-.74-.38h0l-.77-.38h0l-.79-.38h0l-.8-.39h0l-.83-.4h0l-.85-.41h0l-.87-.41h0l-.89-.42h0l-.92-.42h0l-.94-.44h0l-.91-.42-.5-3.65.79.4.93.46h0l.3.15,0,0,.13.07Zm0-1.22L201.5,48l.16,1-.07,0h0l-.86-.44h0l-.88-.45h0l-.26-.13ZM202,48.27l1.89,1,.17,1-.8-.42h0l-.82-.43h0l-.28-.15Zm2.37,1.29,1.72,1,.17.95-.66-.36h0l-.76-.41h0l-.31-.16ZM208.61,53l.4.22h0l1.25.74h0l.05,0h0l.09.06h0l.09.05h0l.4.23h0L212,55h0l.05,0h0l.08,0h0l.09.05h0l.41.25h0l1,.62h0l0,0h0l.08,0,.08,0,.39.25.62,2.94-1.43-.82h0l-1.75-1h0l-1.9-1h0l-2-1.05-.59-3.27,1.24.71h0l0,0h0l.1.06h0Zm0-1,1.44.86.17.87-1.08-.64h0l-.36-.2Zm1.88,1.13,1.3.8.17.83-.93-.56h0l-.36-.21Zm1.73,1.08,1.18.75.16.79-.79-.5h0l-.38-.23Zm1.6,1,1.29.85.16.74-.9-.58h0l-.39-.24Zm-6.73-3.3h0l-.34-.19-.17-.94,1.58.92.17.91Zm-9.53-1.16,1,.44h0l.94.43h0l.91.43h0l.89.42h0l.87.41h0l.85.4h0l.83.4h0l.8.39h0l.79.39.76.38h0l.75.37.73.36,2.05,1.07h0l1.9,1h0l1.75,1,1.6.92h0L218,61.4l-.13,0-1.58-.93-1.72-1h0L213,58.58h0l-1.74-1h0l-1.9-1h0l-2.06-1.06h0L205,54.44h0l-2.41-1.16h0L200,52.06h0l-2.82-1.28h0l-3.07-1.35h0L191,48.09l.23-.08,1,.44h0l1.1.48h0l1.07.47h0l1,.46h0l1,.45h0l1,.45Zm20.67,10.79.28,1.26-.27-.16L218,61.59Zm-.32.92-1.21-.68-.19-.87,1.21.71Zm1,3.63-1.59-.8-1.72-.86h0l-1.61-.8h0l-1.76-.83h0l-1.91-.87h0L208.23,61h0L206,60h0l-2.44-1h0L200.9,58h0L198,56.84h0l-3.13-1.19h0l-3.33-1.23h0l-3.63-1.3h0L184.81,52v-.15l.79.27h0l1.32.47h0l1.28.46h0l1.25.45h0l1.22.44h0l1.19.43h0l1.15.43h0l1.12.42h0l1.09.41h0l1.07.41h0l1,.39h0l1,.4h0l1,.38h0l.95.38h0l.93.38h0l.91.36h0l.88.36h0l.86.36h0l.84.34h0l.82.34h0l.79.34h0l.78.33h0l.75.32h0l.74.32h0l2.08.93h0l1.91.89h0l1.75.84h0l1.62.81h0L219,66.09Zm.33.14.3,1.33-.28-.13L219,66.27Zm-.3,1.05-1.22-.59-.21-1,1.22.61Zm-19.3-8h0l1,.36h0l.31.12h0l.14.06.13.05.31.11h0l.91.35h0l.89.34h0l.24.1h0l.13.05.13,0,.33.13h0l.84.33h0l.82.32h0l.17.07,0,0,.12,0h0l.12,0,.35.14h0l.78.31h0l.75.31h0l.1,0h0l.11,0,.11,0,.34.14.66,3.67-.6-.22h0l-.76-.27h0l-.79-.27h0l-.8-.29h0l-.83-.28h0l-.85-.29h0l-.88-.3h0l-.9-.3h0l-.92-.31h0l-.94-.31h0l-1-.32h0l-.94-.31L198.79,59Zm-.92-.54h0l-.24-.09-.2-1.43,2.35.92.2,1.39-.16-.06h0l-1-.36h0Zm2.42-.4,2.14.86.22,1.35-.09,0h0l-.89-.34h0l-.91-.35h0l-.26-.1Zm2.64,1.06,1.95.81.22,1.3h0l-.83-.32h0l-.84-.33h0l-.28-.11Zm2.43,1,1.78.76.22,1.24-.7-.28h0l-.77-.31h0l-.31-.12Zm2.24,1,1.62.71.23,1.19L209,62.78h0l-.34-.14Zm.65,1.6,1.28.54,0,0h0l.1,0h0l.1,0,.4.17h0l1.27.56h0l.05,0h0l.09,0h0l.09,0,.41.18h0l1.13.51h0l0,0h0l.09,0,.08,0,.42.19h0l1,.46h0l0,0h0l.08,0,.08,0,.38.18.69,3.26-1.46-.6h0l-1.77-.71h0l-1.92-.73h0l-2.05-.76Zm1.42-.69L212,63l.23,1.14-1.12-.49h0l-.36-.15Zm1.91.88,1.33.63.22,1.1-1-.44h0l-.37-.16Zm1.75.84,1.2.59.22,1-.82-.39h0l-.38-.17Zm2.21,2h0l-.38-.18-.22-1,1.32.66.21,1-.93-.45ZM197.93,58.5l-.24-.09h0l-1-.38h0l-1.08-.38h0l-.24-.09-.18-1.48,2.59,1Zm-3.15-1.14-.31-.11h0l-1.14-.39h0l-1.16-.4h0l-.17-.06-.16-1.54,2.76,1Zm-3.35-1.17L191,56h0l-1.22-.42h0l-1.26-.43h0l-.11,0-.15-1.6,3,1.09ZM188,53.37v0h0S188,53.37,188,53.37ZM188,55h0l-.07-.68Zm-.23-.07-.57-.2h0l-1.33-.44h0l-1.15-.38.09-1.57,2.82,1Zm11-1.78h0l.94.42h0l.31.13,0,0,.14.06.13.06.3.14h0l.9.4h0l.87.4h0l.24.1,0,0h0l.13.06.12.06.33.14h0l.83.39h0l.81.37h0l.16.08h0l0,0h0l.11.06.12,0,.34.16h0l.77.36h0l.75.36h0l.09,0h0l.05,0h0l.11,0,.1.05h0l.34.16.63,3.47-.58-.25h0l-.76-.33h0l-.77-.33h0l-.8-.33h0l-.82-.35h0l-.84-.34h0l-.86-.36h0l-.88-.36h0l-.91-.37h0l-.93-.37h0l-1-.38h0l-.93-.37-.53-3.87Zm-.9-.59h0l-.24-.1-.17-1.26,2.3,1,.18,1.23-.15-.07h0l-.95-.41h0Zm2.4-.08,2.1,1,.19,1.19-.08,0h0l-.88-.4h0l-.89-.4h0l-.26-.11Zm2.6,1.21,1.92.93.19,1.14h0l-.81-.38h0l-.83-.38h0l-.28-.13Zm2.4,1.16,1.75.87.19,1.09-.68-.32h0l-.77-.37h0l-.3-.14ZM207.47,56l1.6.82.2,1L208,57.22h0l-.34-.17Zm6.94,7.58h0l-1.75-.85h0l-1.92-.88h0l-2-.91-.62-3.46,1.26.63h0l0,0h0l.1,0h0l.1.05.4.2h0l1.26.65.05,0,.09.05.09,0,.41.21h0L213,60h0l0,0h0l.09,0,.08,0h0l.42.22h0l1,.54h0l0,0h0l.07,0h0l.08,0h0l.39.21.65,3.1ZM209.52,57l1.46.77.19,1-1.1-.57h0l-.36-.18Zm1.89,1,1.32.73.19.95-.95-.5h0l-.36-.19Zm1.74,1,1.19.67.19.92-.81-.45h0l-.38-.2Zm2.18,2h0l-.38-.21-.19-.91,1.3.76.19.88-.92-.52Zm-18.24-8.79-.23-.1h0l-1-.43h0l-1.05-.45h0l-.24-.1-.16-1.31L196.92,51ZM194,50.94l-.29-.12h0l-1.11-.46h0l-1.14-.46h0l-.17-.07-.14-1.36,2.69,1.16Zm-8.2,3.54h0l1.33.45h0l.71.23h0l0,0h0l.19.06.19.06.18.06h0l1.26.43h0l1.22.42h0l.59.2h0l0,0h0l.18.06.17.06.22.07h0l1.16.41h0l1.14.4h0l.44.16h0l.17.06.16.05.29.11h0l1.07.38h0l1,.38h0l.38.14h0l.05,0h0l.15,0,.14.06h0l.25.08.56,4.14-.89-.29h0l-1.06-.33h0l-1.09-.34h0L195,61.76h0l-1.15-.35h0l-1.18-.36h0l-1.22-.37h0l-1.24-.37h0l-1.29-.38h0l-1.32-.39h0l-1.35-.4h0l-1.33-.38-.28-3.65.06-1Zm-1.07,4.23-.28-.07.12-2.12Zm.08.21,1.39.4h0l1.35.4h0l1.32.38h0l1.28.38h0l1.25.38h0l1.22.36h0l1.18.36h0l1.15.36h0l1.12.34h0l1.09.34h0l1.06.34h0l1,.33h0l1,.32h0l1,.32h0l.94.32h0l.93.3h0l.89.3h0l.88.3h0l.85.29h0l.83.29h0l.8.28h0l.79.27h0l.76.28h0l.75.26h0l2.09.78h0l1.93.73h0l1.76.71h0l1.62.66h0L220,71H220l-1.6-.66-1.72-.72h0L215,68.94h0l-1.77-.7h0l-1.92-.73h0l-2.09-.77h0l-2.27-.8h0l-2.48-.85h0l-2.69-.89h0l-2.92-1h0l-3.19-1h0l-3.4-1h0l-3.72-1.1h0l-4-1.17h0l-.11,0v-.11ZM220,72.31l-1.22-.48-.25-1.14,1.22.51ZM186.4,61.82h0l1.36.37h0l.73.2h0l.2.06h0l.19,0,.18,0h0l1.29.35h0l1.26.35h0l.6.17h0l.18,0h0l.18.05h0l.23.06h0l1.19.34h0l1.16.33h0l.45.13h0l.16,0,.17,0,.29.08h0l1.1.32h0l1.07.31h0l.39.12h0l.16,0,.15,0,.24.07.61,4.41-.93-.23h0l-1.08-.26h0L197,69.15h0l-1.14-.27h0l-1.18-.28h0l-1.21-.29h0L192.21,68h0l-1.28-.29h0l-1.31-.3h0l-1.36-.31h0l-1.39-.31h0l-1.37-.3-.38-5Zm-1.35-.55h0l-.06,0-.14-1.87,3.41,1,.17,1.81-.6-.16h0l-1.37-.37h0Zm3.41-1h0l.18,2h0Zm.21.1s0,0,0,0v0h0l.17,1.87h0l-.18-2h0v0Zm.19.17,3.13.92.18,1.75-.47-.13h0l-1.26-.35h0l-1.29-.36h0l-.12,0Zm3.52.89h0Zm.19.2,2.83.86.2,1.69-.32-.1h0l-1.16-.33h0l-1.19-.33h0l-.17-.05Zm3.39,1,2.65.83.22,1.62-.26-.07h0l-1.07-.31h0l-1.09-.32h0l-.25-.07Zm3.19,1,2.39.77.23,1.57-.18-.06h0l-1-.29h0l-1-.31h0l-.24-.07Zm.54,1.9.87.26h0l1,.3h0l.31.1h.05l.14,0,.14,0,.31.09h0l.93.29h0l.9.28h0l.24.07.05,0h0l.13,0h0l.13,0,.33.1h0l.85.27h0l.83.27h0l.17.06h0l.12,0,.12,0,.35.11h0l.79.26h0l.77.25h0l.09,0h0l0,0h0l.11,0,.11,0,.33.11.7,3.88L210,72.5h0l-.77-.21h0l-.8-.22h0l-.81-.22h0l-.84-.22h0l-.87-.23h0l-.88-.23h0l-.91-.24h0l-.94-.24h0l-1-.24h0l-1-.25h0L200.3,70Zm2.36-1,2.19.72.24,1.52-.11,0h0l-.9-.28h0l-.92-.28h0l-.25-.08Zm2.68.89,2,.67.25,1.46h0l-.83-.27h0l-.86-.27h0L205,67Zm2.47.84L209,67l.25,1.4-.71-.24h0l-.79-.25h0l-.3-.1Zm2.27.8,1.64.6.25,1.35-1.31-.45h0l-.33-.11Zm.67,1.73,1.31.45h.05l.1,0,.1,0,.4.14h0l1.29.45h0l0,0h0l.1,0h0l.09,0,.41.14h0l1.13.42h0l.05,0h0l.08,0h0l.08,0,.42.15h0l1,.38h0l.05,0h0l.08,0,.08,0,.38.15.72,3.43-1.47-.47h0l-1.78-.55h0l-1.94-.57h0l-2.06-.59Zm1.42-1,1.48.56.26,1.3-1.14-.41h0l-.35-.12Zm1.92.73,1.34.52.25,1.25-1-.36h0l-.36-.13Zm1.76.69,1.2.49.25,1.2-.83-.32h0l-.37-.14Zm2.24,2h0l-.38-.14L216.85,70l1.32.55.25,1.15-.94-.37ZM184.65,59.22h0v0l.15,2h0l-.15-2,0,0h0s0,0,0,0Zm-.22-.11.16,2h0l-.13-1.87v-.17Zm1,7.56h0l1.43.32h0l1.39.31h0l1.36.31h0l1.31.3h0l1.28.29h0l1.25.29h0l1.21.29h0l1.17.27h0l1.15.28h0l1.11.27h0l1.08.26h0l1.05.26h0l1,.25h0l1,.25h0l1,.25h0l.94.24h0l.91.24h0l.89.23h0l.86.23h0l.84.22h0l.82.22h0l.79.21h0l.77.21h0l.76.2h0l2.11.61h0l1.94.57h0l1.77.54h0l1.62.52h0l1.09.36L217.78,75h0l-1.63-.52h0l-1.77-.54h0l-1.94-.56h0l-2.12-.6h0l-2.3-.63h0l-2.51-.66h0l-2.73-.7h0l-3-.74h0l-3.26-.79h0l-3.48-.81h0l-3.81-.87h0l-4.15-.92h0l-.55-.1-.54-.1V66.4Zm23,15.12.1.2-2.35.44-.08-.27ZM206,82l-.05-.14,2.25-.43.1.2Zm2.47-.43-.1-.21.7-.39h0l.25-.14,0,0h0l.11-.06h0l.1-.06,1-.54.13.19ZM206.13,78h0l-.93-.17-.95-.16h0l-1-.17h0l-2-.34-.64-4.68.89.2h0l1,.22h0l.32.08h0l.15,0,.14,0,.32.07h0l.94.22h0l.92.21.24.06h0l.13,0h0l.13,0h0l.34.08h0l.86.21h0l.85.2h0l.17,0h.05l.12,0h0l.12,0h0l.36.08h0l.79.2h0l.77.19.09,0h.05l.11,0,.11,0,.34.08.74,4.11-.63-.12h0l-.78-.15h0l-.81-.15-.82-.15h0l-.85-.15h0l-.88-.16h0Zm.5,2.39-1.06-.15h0l-1.21-.18-.3-2,2.27.38ZM200.15,77h0l-1.1-.18h0l-1.14-.19-1.17-.18h0l-1.2-.2h0l-1.24-.19h0l-2.59-.41h0L189,75.24h0l-2.83-.43-.41-5.41,1.33.26h0l1.4.28h0l.75.15h0l.21.05h0l.19,0h0l.19,0,1.33.27h0l1.29.27h0l.62.13h0l.18,0,.18,0,.23,0h0l1.22.26h0l1.19.25h0l.47.1h0l.17,0,.17,0,.3.07h0l1.12.24h0l1.09.23h0l.4.09h0l.16,0,.16,0,.24,0,.64,4.7Zm.63,2.59-1.4-.19h0L198,79.22l-.26-2.12,2.77.44Zm-3.23-2.67h0v0Zm-.13,2.21-1.58-.21h0l-.81-.1-.6-.09-.24-2.2,3,.46Zm-7.56-3.4h0l.23,2.46h0l-.22-2.44Zm0,2.41-3.65-.45L186,75.31l3.62.54Zm.21-2.39h0l0,0v0h0l.22,2.37h0Zm.21.18,3.31.5.23,2.23-3.32-.43Zm3.52.41h0l.25,2.37h0Zm.19.06h0v0h0v-.07h0s0,0,0,0Zm-8.19-1.29h.07s0,0,0,0a0,0,0,0,0,0,0h0l.19,2.47h0Zm0,2.53h-.05l-.18-2.53a0,0,0,0,0,0,0v0h.06Zm-.16-8.45h-.06l-.16-2.12,3.51.77.19,2-.63-.12h0l-1.4-.28h0Zm3.72-1.36h0v0h0l.19,2.11h0l-.2-2.19h0v0A0,0,0,0,0,189.36,67.84Zm.19.14,3.21.73.21,2-.49-.1h0l-1.29-.27h0L189.86,70l-.12,0Zm-.2,2h0l-.2-2.19h0Zm3.81-1.28h0s0,0,0,0Zm.19.19,2.9.67.23,1.9-.34-.07h0L195,71.1h0l-1.22-.26h0l-.16,0Zm3.47.81,2.71.64.24,1.83-.27,0h0l-1.09-.24h0l-1.12-.24h0l-.24-.06Zm3.25.78,2.44.6.26,1.77-.19,0h0l-1-.22h0l-1-.23h0l-.24-.06Zm3.47,7.61.29,2-1.22-.17h0l-1-.15h0l-.24,0-.28-2ZM203,71.17l2.22.56.27,1.71-.11,0h0l-.92-.21h0l-.94-.22h0l-.26,0Zm2.72.69,2,.53.28,1.65h0l-.84-.2h0l-.87-.21h0l-.28-.06Zm2.5.66,1.83.5.28,1.58-.73-.18h0l-.8-.19h0l-.3-.08Zm2.29.63,1.66.46.29,1.53-1.33-.34h0l-.34-.09Zm2.82,6.66.13.7-1.69-.34-.12-.68Zm-2,.27-.76-.16h0s0,0,0,0h0l-.91.52-.24-1.39,1.85.34ZM208.88,79l.29,1.72-.17.1-1.59-.24h0l-.28,0-.3-1.9Zm1.89,1.51.13.2-2.24,1.25-.1-.2Zm.08-.2-.09-.13.67.13h0l.11,0h0l.11,0h0l1.88.37h0l.11,0,.1,0,1.72.34h0l.1,0h0l.09,0h0l1.56.31h.05l.09,0h.08l1.42.29h.15l.06.07Zm3-.39,1.52.3.14.71-1.53-.3Zm1.95.39,1.36.28.14.7L215.89,81Zm1.77.36,1.22.26.15.69-1.22-.24Zm.28-.37h0L216,79.89h0l-1.95-.39h0L212,79.1,211.25,75l1.33.34h0l.1,0,.1,0,.41.11,1.29.34h.05l.09,0h0l.09,0,.42.11h0l1.13.31h0l.05,0h0l.09,0h0l.08,0h0l.42.12h0l1,.28.05,0h0l.08,0h0l.08,0h0l.37.11.76,3.62Zm-5.15-6.53,1.5.44.29,1.47-1.16-.31h0l-.35-.09Zm1.93.57,1.36.41.28,1.41-1-.28h0l-.36-.09Zm1.77.54,1.22.38.28,1.36-.85-.25h0l-.37-.1Zm2.28,2h0l-.38-.11L218,75.36l1.33.42.28,1.31-1-.28Zm-33.4-9.88h0l.16,2.19h0l-.17-2.29.06,0,0,0S185.23,66.92,185.23,66.93Zm-.06,2.18h0L185,66.84h0a0,0,0,0,1,0,0h0Zm-.4-2.17.16,2.13-1-.18L184,66.8Zm.78,10.68-.39,0h0l-.79-.08h0l-.83-.07h0l-.82-.08-.15-2.45,2.81.33Zm-3.17-2.85h0l.15,2.55h-.06l-.16-2.63h.1s0,0,0,.05Zm-.31,0h0l0,0h.07l.16,2.64h-.06l-.15-2.57h0Zm0,2.56-.72,0h0l-1-.06h0l-1,0h-.2L179,74.66l2.87.17Zm-3.22-2.75h0l.12,2.6h-.07l-.12-2.65h.08v0Zm-.27,0h0a.09.09,0,0,0,0,0h0l.12,2.66h0l-.11-2.58h0Zm-3.74-.23,1.58,0,1.81,0h0l-1.08,0h0l-1,0h-.51l-.33,0-.41,0-.37,0h0l-.57.1h-.08l0-.15Zm3.67,2.83h-.15l-1.83,0h-.44L176,74.65h2.39Zm-2.74-2.59h0l.08,2.56h0l-.08-2.63h0v0h0Zm-.27,2.58-.58,0h0l-.92.06-.06-2.32,1.48-.18Zm10.89.79,1.38.17h0l2.46.31h0l1.76.23h0l2.18.28h0L195,79l.81.1h0l1.69.23h0l.18,0,.17,0h0l1.45.2h0l1.52.21h0l.16,0,.15,0,.25,0,.5,3.69-3.25-.3h0l-2.42-.22h0l-3.91-.35h0L191,82.58h0l-4.32-.37Zm16.39,6.67L203,86l-3.55-.25-.18-1.45Zm-.58-1-.5-3.68.92.13h0l1.34.19h0l.15,0h0l.14,0,1.28.18h0l1.19.17h0l.14,0,.13,0h0l.34,0h0l1.36.2-.52.3-2.4.45-1.12.15a.1.1,0,0,0-.08.1.09.09,0,0,0,.09.08h0l1-.13,0,.14-1.06.17a.09.09,0,0,0,0,.18h0l1.09-.18.08.26-1.13.15a.08.08,0,0,0-.08.1.08.08,0,0,0,.09.08h0l1.23-.16,6.54,1,.2,1.08-.65-.07h0l-1.6-.17-.83-.09h0l-2.66-.27h0l-2.89-.28h0Zm4.46-1.07,2-.37L217,83.5l-1.74.29ZM208.9,82l2.15-1.2,8.38,1.59-.1.06-.06,0-1.73.91Zm2.19-1.38L211,80.5l8.39,1.63h0l.07.09Zm8.6-4.72,1.23.39.28,1.26L220,77.2Zm1.51.33.25,0,.34,1.52-.28-.09Zm.79,1.55-.34-1.54.24.08.34,1.53ZM221.56,76,218.29,75l-.72-3.41.94.36h0l.05,0h0l.07,0,.07,0,1.43.56h.05l.07,0,.48.19.4.15.46,2,.25,1.14Zm-1.49-4.88.25,0,.32,1.43-.28-.11Zm.77,1.48-.32-1.46.23.1.33,1.45Zm-.41-1.7-3.28-1.38-.68-3.24.93.44,0,0h0l.07,0h0l.07,0,1.43.68,0,0h0l.06,0h0l.49.23.4.19.47,2.09.21,1Zm-.69-3.25-.31-1.38.23.12.31,1.37Zm-.4-1.63-3.27-1.67-.65-3.08.92.52h0l0,0h0l.07,0h0l.07,0h0l1.43.81h0l0,0h0l.07,0h0l.49.28.4.23.48,2.12.17.77Zm-.66-3.12-.29-1.3.23.13.29,1.29Zm-.38-1.56L215,59.44l-.62-2.93.91.58.05,0h0l.07,0h0l.07.05h0l1.43.91h0l0,0h0l.07,0h0l.49.31.4.26.49,2.16.13.6Zm-2.82-5,1.21.78.16.73-1.21-.78Zm1.49.76.22-.05.26,1.18-.27-.17Zm.7,1.27-.28-1.22.22.14.28,1.22Zm-4.31-6.74h0l-.39-.27-.13-.66,1.29.94.13.62Zm-6.71-1.26,2,1.19h0l1.88,1.14h0l1.73,1.09h0l1.6,1h0L217,56.9l-.14,0-1.58-1-1.71-1.13h0l-1.6-1h0l-1.73-1.08h0l-1.89-1.13h0l-2-1.18h0l-2.2-1.23h0l-2.37-1.3h0l-2.57-1.35h0l-1.88-1,.21-.08.13.07.93.48h0l.9.47h0l.87.47h0l.86.45h0l.83.45h0l.82.45h0l.79.43h0l.78.43h0l.76.42h0l.73.42h0l.72.41Zm-7.73-3.72.16,1.08-.14-.07h0l-.93-.47h0l-.95-.47h0l-.24-.12-.12-.88.24-.09Zm-2,.21.5,3.66-.84-.38h0l-1-.45h0l-1.05-.46h0l-1.07-.47h0l-1.1-.48h0l-.85-.36,1.17-.42h0s0,0,0,0h0l3.11-1.13.16.07h0l.37.18h0l0,0h0l.14.07.15.07Zm-14.12-2.15,3-1.19h0s0,0,0,0h0l.85-2.1a0,0,0,0,0,0,0v0h0a.08.08,0,0,0,0,0h-.07l-1.35.57L184.47,40h0l0,0,0,0s0,0,0,0,0,0,0,0h0l-5.77,2.51-4.13-2.24,3.05-1.43h0s0,0,0,0l1.17-2.17h0s0,0,0,0,0,0,0,0h0l0,0s0,0,0,0h-.08L177,37.2l-.91-2.33h0l0,0,0,0h-.07l-5.89,3-5.74-3.1L167.43,33s0,0,0,0h0l1.61-2.2v0s0,0,0,0h0s0,0,0,0a0,0,0,0,0,0,0s0,0,0,0H169L167,31.69l-1.19-3h0l0,0s0,0,0,0h-.07l-5.95,3.64-8-4.32,3.12-2.21h0l2.24-2.22a0,0,0,0,0,0,0l0,0s0,0,0,0a0,0,0,0,0,0,0h0s0,0,0,0h0s0,0,0,0h0L154.69,25l-1.6-4.09h0l0,0H153a0,0,0,0,1,0,0h0l-5.86,4.51-10.66-5.76,5.61-5.3a0,0,0,0,0,0,0l0,0v0a0,0,0,0,0,0,0h0s0,0,0,0l0,0h-.06l-3.09,2.08-2-5.23s0,0,0,0h-.14l-5.52,5.76-.38-.21,6-6.37,56.36,34.62-1.18.45-.4-1,0,0,0,0h-.07l-5.6,2.13Zm2.73,1.69-1.43.55h0l-3-1.56,1.48-.6Zm.19-3.21-.47-1.2,1.15-.48Zm-7.37-.67-1.49.65h0L172.71,41l1.53-.72Zm-.9-4.06-.42-1.09,1.36-.65Zm-7.62-.55-1.54.78a0,0,0,0,1,0,0l-5.75-3,1.57-.88Zm-2.44-5.23-.32-.82,1.57-.9Zm-7.84-.32-1.56,1h0l-8-4.16,1.57-1.11Zm-4.81-7.16,1.44-1-1.33,1.32Zm-7.83.32-1.55,1.19h0l-10.59-5.53,1.5-1.42ZM131,16.91l-1.46,1.53h0l-.37-.19,1.45-1.55Zm62.28,28,.69.42-.67.25.06-.19s0,0,0,0v0h0s0,0,0,0l0,0h0s0,0,0,0l-1.15.42-.12-.29Zm.88.54.71.43L193,46.6l.23-.77Zm-1,.06-.06.19-.3,1-.13.41-.49-1.24Zm3,.7h0l.19-.07,0,.17ZM135.25,7.79l.18-1,1,.65,59.69,37.84.1.53v.06Zm48.89,43-.23-.1.21-.08ZM122.48,57.3h0s0,0,0,0l0,0L127,40.47l.38-.18L122.67,58,114.53,63l.25-.87Zm.29.89,58,13.32-6.91,1.54-.1,0a.09.09,0,0,0-.07.11.1.1,0,0,0,.09.07h0l0,.51-.05.51,0,.33-.11,1.27,0,.46-.09,1L173,82l-.07.75-.11,1.3h0v.07h0l0,.22-.13,1.46V86l-.27,3-1.85,0,.27-2.86,0-.19.13-1.43L171,84V83.9l.12-1.35.68-7.15.09-.94,0-.24.06-.62,0-.23a.09.09,0,0,0-.08-.1.09.09,0,0,0-.1.08l0,.16-6.14,1.37.36-3.13a.1.1,0,0,0-.08-.11.11.11,0,0,0-.11.08L165.45,75l-.07.6,0,.19,0,.17,0,.2-.16,1.41,0,.2L165,79.18l0,.2-.16,1.44,0,.2-.16,1.45v.1l-.1.84h0v0h0l0,.32v.07l-.12,1.06-.15,1.35,0,.18-.27,2.35-2,0,.26-2.16,0-.18.16-1.33.13-1V84l0-.31h0v0h0l.1-.81v-.11l.17-1.42h0l0-.2h0l.17-1.4,0-.2.17-1.39,0-.2.17-1.38h0l0-.2h0l0-.17h0v0h0l.07-.59.44-3.66a.09.09,0,0,0-.08-.1.08.08,0,0,0-.1.08l-.44,3.59-7.68,1.72,1-7.2a.08.08,0,0,0-.08-.1.08.08,0,0,0-.1.07l-1.06,7.33-.08.56-.07.44h0l-.12.83-.06.42-.19,1.33h0l0,.13h0l-.18,1.27,0,.21,0,.26-.05.31-.07.48h0l-.06.41h0l0,.31h0v0h0l0,.29h0v.07l-.14,1L154,86.78h0l0,.16-.22,1.54-2.21-.06.09-.6.07-.48.12-.78h0l.07-.46,0-.18,0-.18,0-.1.1-.67,0-.22,0-.16,0-.24,0-.29V84l0-.22.1-.67.12-.78.08-.56.06-.4,0-.19,0-.26,0-.22,0-.14.07-.5,0-.28.09-.54.13-.86.08-.55L154.35,70a.09.09,0,0,0-.07-.11.11.11,0,0,0-.11.08L153,77.71l-2.92.65-1.71.38-.16,0-4.68-.5,1.89-10.37a.1.1,0,0,0-.08-.11.08.08,0,0,0-.1.07l-1.91,10.47-1.27,7-.53,2.87-2.47-.07.55-2.9L141,78l1.95-10.25a.1.1,0,0,0-.08-.11.1.1,0,0,0-.1.08L140.8,77.93l-11.64-1.26,2.62-11.46a.1.1,0,0,0-.07-.11.09.09,0,0,0-.11.07L129,76.73l-1.77,7.76-.73,3.21-2.87-.08.77-3.25,1.88-7.91,2.69-11.32a.09.09,0,0,0-.18,0l-2.67,11.24-14.92-1.6,3.3-11.52ZM167,83.49v-1.2l3.9.34-.11,1.16ZM169,88.92l-.92,0v-5.1h.36l.33,0,.21,0v5.08Zm-2.74-2.68,1.63-.09h0Zm1.63.1v2.55l-3.81-.11.26-2.26Zm-3.51-.18L164.5,85l3.37-.22V86Zm.16-1.36.1-.87,2.37-.18.89.07v.76Zm4.68-9.92,2.5-.55v.12l-.07.84Zm2.41.59-.66,7L167,82.11l0-6.76,1.66-.37Zm-2.92-.67-1.74.38h0l-.08,0h0l-.52.11-.77.17,0-.4,6.15-1.38-.05.43Zm-2.28,8.5h0v-.86l.05-6.79v-.17l.34-.08,0,8.08-.36,0V83.3Zm-.13-7.78v0h0l-.7.1h0Zm-.11.43h0l-.66.1v0Zm0,.2v1.2l-.81.11.14-1.21Zm0,1.39v0l-.83.1h0Zm0,.2V79l-1,.11.14-1.23Zm0,1.41v0l-1,.12v0Zm0,.21V80.6l-1.16.12.14-1.24Zm0,1.43v0l-1.18.12v0Zm0,.21v1.26l-1.34.12.15-1.26Zm.09,1.54h0v.66h0l-1.51.12.07-.65Zm0,.84h0v.17l-1.57.12V83.5Zm4.59.68,0,.33-1.62.11v-.58Zm-.05.52-.12,1.24-1.48.08V84.68ZM170.61,86h0l-1.46.07h0Zm0,.19L170.33,89l-1.17,0V86.28Zm-13,.31,0-1.08h.06l0,1.08Zm0,.35-.07,1.73h-.06l.07-1.72Zm-.09-1.61,0,0h0a0,0,0,0,0,0,0v0h0l0,0h0l-3,.2.11-.77.26,0,.11,0h0s.06,0,.08-.06v0l2.79-.21h0l0,.79Zm-.07,1.44h0a0,0,0,0,0,0,0h0v0l0,0h0l0,0a0,0,0,0,1,0,0s0,0,0,0l0,0Zm-3.3,0,.15-1,3-.2-.05,1.08Zm3.07.19-.07,1.7L154,88.49l.21-1.45ZM154.65,84h0v0l.37-.24,0,0a.08.08,0,0,0,0,.07l.05,0h0l.33.13h0a.1.1,0,0,0,.09-.06.09.09,0,0,0,0-.12l-.32-.13h0l-.06,0h0a.09.09,0,0,0,0-.1h.18a.09.09,0,0,0,.06,0l0,0h.16l0,0,.07,0a.07.07,0,0,0,.06,0,0,0,0,0,0,0,0l4.29-.37h.18l.59-.06,1.59-.13-.07.63-2.15.17H160l-4.7.37h0L155,84h0l0,0a.09.09,0,0,0-.12,0,.07.07,0,0,0,0,.09l-.3,0v-.05Zm0-.23v-.06l0,0Zm.1-.44v0h0l0,0h0Zm.18-.75H155a.1.1,0,0,0,0,.12l.06,0h0l-.07,0h0l-.16-.08-.06,0h0l0-.13Zm0-.43v-.06l0,0h0a0,0,0,0,0,0,0s0,0,0,0a0,0,0,0,0,0,.05Zm.46-2.63,0,.78v.19h0l0,.34s0,0,0,0a.08.08,0,0,0-.08,0l0,0-.05,0,.16-1.08Zm0-.25v0h0Zm5.63,2v0l1.67-.17v0Zm1.65,0-.15,1.23-1.54.13,0-1.2Zm-1.64-.22L161,80l1.8-.21L162.61,81Zm0-1.37h0l1.81-.21h0Zm0-.19,0-1.16,1.94-.26-.14,1.2Zm0-1.35h0l2-.26h0Zm0-.19,0-1.15,2.09-.3L163,77.77Zm0-1.34h0l2.11-.31h0Zm1.75-.61-2,.43-.48.1-.18,0-2.26.5-1.74.38-.61.13-.06,0,0-.37,7.69-1.71,0,.39Zm-1.94.61v.11l0,1.33v.19l0,1.35v.19l0,1.37v.2l0,1.38v0l-.4,0,.19-6.08Zm-3.63,1.84,0,0-.34-.14-.06,0a.1.1,0,0,0-.12,0,.09.09,0,0,0,.05.12l.06,0,.12,0h-.09a.1.1,0,0,0-.07.07l-.07-.07,0,0a.09.09,0,0,0-.13,0,.07.07,0,0,0,0,.07l-.14,0a0,0,0,0,0,0,0,.09.09,0,0,0,0-.12l-.09,0h0v0h0a.08.08,0,0,0,0,0l.05.05a.07.07,0,0,0,.06,0,.09.09,0,0,0,.07,0,.11.11,0,0,0,0-.13l-.18-.18,0,0a.09.09,0,0,0-.13.13l0,0h0l0,0,0,0h0l-.25-.1h0l-.06,0h0a.09.09,0,0,0-.05-.11l-.19-.08a.08.08,0,0,0,0,0v-.08h.11l.34.14h0a.08.08,0,0,0,.08-.06,0,0,0,0,1,0,0l0,0,.13.14.06,0,.07,0h0l.06.07.07,0,.06,0a.09.09,0,0,0,0-.13l-.18-.18h0l0,0a.09.09,0,0,0-.13,0h0l0,0h0a.12.12,0,0,0,0-.1h.08a.09.09,0,0,0,0,.12l.06,0h0l.33.14h0a.08.08,0,0,0,0,.1l.06,0h0l.34.14h0a.11.11,0,0,0,.09,0,.1.1,0,0,0-.05-.12l-.34-.14h0L157,78h0a.07.07,0,0,0-.05-.1l-.33-.14h0l-.06,0h-.07a.06.06,0,0,0,0-.07l.32-.08a.11.11,0,0,0,0,.12l.06,0h0l.33.14h0a.1.1,0,0,0,.08,0h0l0,0,.18.17a.07.07,0,0,0,.06,0l.07,0a.1.1,0,0,0,0-.13l-.17-.18,0,0h0a.1.1,0,0,0,0-.1h.06a.09.09,0,0,0,0-.17l-.06,0,.4-.09,2.15-.31,0,1.13Zm2.83-.19h0l-2.56.34Zm-3.43.45h0l0,0Zm-.15,0h0Zm-.25-.15-.14,0-.06-.06h0l0,0Zm-.42-.2s0,0,0,0,0,0,0,.05l-.06,0-.06,0h-.06v-.18a.09.09,0,0,0,0-.06.06.06,0,0,0,0-.06l.11,0h0a.1.1,0,0,0,.05.11l.06,0h0s0,0,0,0A.09.09,0,0,0,155.82,78.47Zm-.19.22a.1.1,0,0,0-.08,0v-.08h0l.06,0Zm.3-.91.17,0a.06.06,0,0,0,0,0l.09.09h0l0,0a.12.12,0,0,0,0,0h0Zm1.36-.16.09.09h0l0,0a.08.08,0,0,0,0,0l-.27-.11a.05.05,0,0,0,0,0l.22,0h0A.09.09,0,0,0,157.29,77.62Zm-1.77,1.67s0,0,0,0a0,0,0,0,0,0,0l.15.14a.09.09,0,0,0,.06,0,.09.09,0,0,0,.07,0,.09.09,0,0,0,0-.13l-.15-.14.72-.1.26.11h0a.08.08,0,0,0,.08-.06.08.08,0,0,0,0-.1l3.28-.43,0,1.15-2.39.28a.09.09,0,0,0,0-.12l-.17-.17h0l0,0h0a.09.09,0,0,0,0-.09h.06a.09.09,0,0,0,0-.17l-.33-.14h0l-.05,0a.09.09,0,0,0-.12.05.1.1,0,0,0,0,.12l.06,0h0l.08,0a.09.09,0,0,0,0,.11l.07.07h0a0,0,0,0,0,0,0,.08.08,0,0,0,0,0l-.27-.11a.09.09,0,0,0,0-.07h0l0,0a.11.11,0,0,0-.13,0,.08.08,0,0,0,0,.08l0,0a.09.09,0,0,0,0,.12l.06,0h0l.33.14h0a.08.08,0,0,0,.08,0h0l0,0h0l.17.17h0l-.26,0a.1.1,0,0,0-.07,0L157,80l-.06,0h0a.08.08,0,0,0-.05-.1l-.33-.14-.05,0a.09.09,0,0,0-.12,0,.08.08,0,0,0,0,.1.09.09,0,0,0-.13.13h0v.08a.09.09,0,0,0,.07.09l0,0-.1-.1h0l0,0a.09.09,0,0,0-.13.13h0l-.57.07Zm2.39,2.16h0l-.19-.08-.06,0a.09.09,0,0,0-.1.14l-.38,0-.32-.14-.06,0a.1.1,0,0,0-.12,0,.11.11,0,0,0,0,.08s0,0,0,0a.08.08,0,0,0,0,.08l-.47,0a.09.09,0,0,0-.08.09l-.1-.09v0l1-.39h0l0,0h0l.17.17a.09.09,0,0,0,.06,0,.09.09,0,0,0,.07,0,.1.1,0,0,0,0-.13l-.15-.15.1,0,.13.13a.09.09,0,0,0,.07,0,.09.09,0,0,0,.06,0,.09.09,0,0,0,0-.13l-.17-.17h0l.06,0,.33.14h0a.1.1,0,0,0,.05.11l.06,0h0l.33.14h0a.08.08,0,0,0,.08-.06.09.09,0,0,0,0-.12l-.33-.14h0l-.06,0a.09.09,0,0,0,0-.11l-.33-.14-.06,0a.09.09,0,0,0-.12,0,.08.08,0,0,0,0,.1.1.1,0,0,0-.13,0s0,0,0,0l-1.1.42h0l-.09,0,0,0,.34-.38.32.14h0a.11.11,0,0,0,.09,0,.1.1,0,0,0,0-.12l-.29-.12,0-.29h0a.09.09,0,0,0,0,.13l0,0h0l.17.17a.08.08,0,0,0,.07,0l.06,0a.09.09,0,0,0,0-.13l-.17-.17,0,0a0,0,0,0,0,0,0l.14,0,0,0h0l.33.14h0a.08.08,0,0,0,.08-.06.09.09,0,0,0-.05-.12l-.07,0,.91-.11a.12.12,0,0,0,0,0,.09.09,0,0,0,0,.12l.06,0,.08,0a.09.09,0,0,0,0,.11l.07.07h0a0,0,0,0,0,0,0l0,0-.28-.11a.11.11,0,0,0,0-.08h0l0,0a.09.09,0,0,0-.13,0,.11.11,0,0,0,0,.08s0,0,0,0a.09.09,0,0,0,.05.12l.06,0,.33.14h0a.1.1,0,0,0,.08,0h0l0,0,.17.17a.09.09,0,0,0,.07,0,.09.09,0,0,0,.06,0,.09.09,0,0,0,0-.13l-.17-.17,0,0h0a.08.08,0,0,0,0-.08h.05a.11.11,0,0,0,.09,0,.09.09,0,0,0-.05-.12l-.33-.14-.06,0H158l2-.23,0,1.17Zm2.06,0h0l-1.89.19h0Zm-2.11.23h-.17l-.07,0,0,0,.26,0Zm-.5,0-.41,0h0l.41,0Zm-.5-.1a0,0,0,0,1,0,0l0,0Zm-.1.18s0,0,0,0l-.14-.06h.07a.05.05,0,0,0,0,0Zm-.37,0h0l-.26,0h0Zm.42-1.72-.17,0,0,0-.18-.17h0l0,0,.33.14h0Zm.12.17a.09.09,0,0,0,.07-.06l.1,0-.65.08h0Zm.44,0h0l2.65-.31h0Zm-1.14.13-.15,0h0a.1.1,0,0,0,.08-.1Zm-.5.25,0,0,.18.17a.09.09,0,0,0,.06,0,.09.09,0,0,0,.07,0,.1.1,0,0,0,0-.13l-.1-.09h0l.21.09h0v.11l0,0h0l-.15.17s0,0,0,0a.09.09,0,0,0-.05-.12l-.33-.14-.06,0a.09.09,0,0,0-.12,0,.09.09,0,0,0,.05.12l.06,0,.33.14h0l0,0-.18.21s0,.06,0,.09l0,0a.08.08,0,0,0,0-.1l-.14-.14,0,0a.09.09,0,0,0-.13,0l0,0,0,0h0l0-.37ZM155.58,82l-.05,0s0-.06-.05-.07h0l.3,0a.12.12,0,0,0,.08-.09l.07.07-.25,0a.08.08,0,0,0-.08.1A0,0,0,0,0,155.58,82Zm-.12-.76a.09.09,0,0,0,.07,0,0,0,0,0,0,0,0l0,0s0,0,0,0a.09.09,0,0,0,.05.12l0,0h0l-.08.09,0,0-.08,0a.13.13,0,0,0,0-.08h0v-.2Zm.27,1h0a.11.11,0,0,0,.09-.05.1.1,0,0,0,0-.12l-.09,0,.2,0a.14.14,0,0,0,0,.06l0,0h0l.17.17a.08.08,0,0,0,.07,0l.06,0v0h0a.08.08,0,0,0,.07,0l.06,0,0,0,.14.13a.09.09,0,0,0,.06,0,.11.11,0,0,0,.07,0,.09.09,0,0,0,0-.13l-.17-.17,0,0a.1.1,0,0,0-.13,0,0,0,0,0,0,0,0l-.1-.09.25,0,0,0,.29.13h0a.08.08,0,0,0,.08,0s0-.07,0-.1h.16a.06.06,0,0,0,0,.06l.05,0,.34.14h0a.11.11,0,0,0,.09,0,.1.1,0,0,0-.05-.12l-.21-.09.13,0h0l0,0s0,0,.06,0l.07,0a.06.06,0,0,0,0,0h0l2.25-.23,0,1.19-4.09.35a.07.07,0,0,0-.05-.09l-.32-.14-.06,0h-.06v0l0,0h0a.08.08,0,0,0,.08-.06.08.08,0,0,0,0-.08l.25-.12a.09.09,0,0,0,.05-.1.11.11,0,0,0,0-.11l-.17-.17h0l0,0a.09.09,0,0,0-.13,0s0,0,0,0l0,0-.19-.08.08-.1h0s0,0,0,0l.06,0Zm-.4.91v-.1h0l.06,0,.1,0s0,0,0,0h-.08a.06.06,0,0,0-.06,0l-.07,0S155.32,83.2,155.33,83.17Zm0-.52a.09.09,0,0,0,.06-.08v-.06l.13,0-.13.07s0,0,0,0Zm-.21-1.29a.09.09,0,0,0,.06,0,.09.09,0,0,0,.07,0,.11.11,0,0,0,0-.13l-.1-.1,0,0,.09.08v.28h0a.11.11,0,0,0,0,.08s0,0,0,0v.16l-.18-.08h0l-.06,0,0-.27,0,0s0,0,0,0Zm.07.57-.06.07-.14-.14v0h0Zm0,.5v.11l-.07-.06h0l0,0a.09.09,0,0,0-.09,0l0,0,.12-.12,0,0a.09.09,0,0,0,.05.1Zm-.15.89H155a.09.09,0,0,0,0-.06l-.11-.1.06-.08.11,0v0l0,0A.09.09,0,0,0,155,83.32Zm-.4,1h0a.09.09,0,0,0,.06,0h.05l.12.11h-.14l0,0h0l-.06,0h0l-.06,0s0,0,0,0v-.07Zm.44.07a.11.11,0,0,0,0-.08l-.06,0,.23,0,0,0h.07a.08.08,0,0,0,.08-.06l4.57-.36.21,0h0a.08.08,0,0,0,.06,0h.13a.09.09,0,0,0,.07,0l1.83-.15,0,.16Zm2.79,2.37V86.6l0-1.27,0-.79h.32l.32,0,.24,0,0,.68,0,1.28v.17l-.07,1.92-.89,0Zm.78-2.39,3.59-.27-.1.85-3.14.2,0-.65s0,0,0,0,0,0,0,0,0,0,0,0h0l-.07,0h0Zm3.47.76L162,86.28l-3,.16,0-1.09Zm-3.18,1.66,3-.16-.25,2.07-2.82-.08ZM151,86.52h0l0,.77h0l-.08,1.1-9.19-.26.5-2.77,5.43.29,3.44.17,0,.21,0,.35h0v.13Zm1.63-7.36a.08.08,0,0,0,0,0v0h0v0a.08.08,0,0,0,0,.07h0A.11.11,0,0,0,152.67,79.16Zm.08-.28a.08.08,0,0,0-.05-.07l-.11,0a.08.08,0,0,0,0-.05h0v0a.06.06,0,0,0,0-.08h0l.13,0h0a.1.1,0,0,0,.09-.06.1.1,0,0,0-.05-.12h0l.09,0-.06.37a.12.12,0,0,0-.05.05Zm-.15,1.48v0h0s0,0,0,0l-.05,0v0l.08,0h0A.08.08,0,0,0,152.6,80.36Zm-.07-.31a.08.08,0,0,0,0,0v0h0l.06.06v0Zm0-.35h0l0,0h0l0,0h0Zm.08-.18h0Zm-.13-1.17-.29.07-.14,0h0l-.26,0-.13,0-1-.11L153,77.9l-.05.36Zm0,3.12v0l0,0,0,0h0l0-.16h0l0,0,0,0v0a0,0,0,0,0,0,0A.06.06,0,0,0,152.43,81.47Zm-.16.29a.08.08,0,0,0,0-.07,0,0,0,0,0,0,0l.07.06s0,0,0,0v.11h-.06A.1.1,0,0,0,152.27,81.76Zm-.22.35a.08.08,0,0,0-.08,0h-.09v-.15l.24.11v0a.09.09,0,0,0,.09.09h0l0,0h0Zm.12,1Zm0,.21a0,0,0,0,0,0,0,0,0,0,0,1,0,0h0l0,.13h0A.11.11,0,0,0,152.13,83.36Zm-.15-.72a.08.08,0,0,0,0-.09l-.1-.1h.06a0,0,0,0,0,0,0l0,0,.12.12s0,0,.06,0v.07Zm.13.91v0h0A0,0,0,0,1,152.11,83.55Zm-.16.25v0h0a.08.08,0,0,0,0-.07Zm0-.14h0Zm-.2,1.93h.08v.1l0,0v.18l0,.1-.05,0-.1,0v0h0a.09.09,0,0,0,0-.13h0l0-.32V85.4a.06.06,0,0,0,0,0l.05,0,.16-.14a0,0,0,0,1,0,0v0l0,.15a0,0,0,0,0,0,0l-.12,0a.09.09,0,0,0-.05.12A.08.08,0,0,0,151.72,85.59Zm-.27-1.47h0a0,0,0,0,0,0,0,.06.06,0,0,0,0-.06.07.07,0,0,0,0,.06l0,0h0l.05,0a.07.07,0,0,0,.06,0,0,0,0,0,0,0,0s0,0,0,0a.13.13,0,0,0-.09,0S151.48,84.13,151.45,84.12Zm0,.16h0Zm0,.91a.09.09,0,0,0-.12,0,0,0,0,0,0,0,0h0v0l-.08,0h0l0,0v-.11h0a.1.1,0,0,0,.08-.06l.19.08h0s0,0,0,0Zm-.12.66h0l0,0v-.08h0s0,0,0,0v0l.07-.06h0a.09.09,0,0,0,0,.13l0,0h0l0,.06v0Zm.07.3v.21l-.07,0,0-.12v-.08Zm-3.37-1,.19,0,1.26.29.67.15-2.39-.12,0-.42Zm-.22-.24h0Zm.38-1.52-.17-.07a.09.09,0,0,0,0-.1h0l0-.34H148l0,0h0l.14.12h0l-.06,0a.09.09,0,0,0-.12,0,.1.1,0,0,0,0,.12l.06,0h0l.13.06a.06.06,0,0,0,0,.06h0a.09.09,0,0,0,0,.13l0,0h0a.07.07,0,0,0,0,.06l0,0a.07.07,0,0,0,.06,0h0l0,0a.08.08,0,0,0,0,.12l0,0a.07.07,0,0,0,0,.1v0h0l.05,0,0,0h0l-.26,0-.3-.13h0l0-.26.19.09h0a.1.1,0,0,0,.08,0A.09.09,0,0,0,148.18,83.35Zm-.2-.71v0l0,0Zm.23-.9h0l.14.06a.09.09,0,0,0,0,.12l-.06,0a.1.1,0,0,0-.05.06.08.08,0,0,0-.07.05.1.1,0,0,0,0,.12l.07,0,.11,0h0l.06,0,.21.09a.12.12,0,0,0,0,.05l-.4,0h0l-.13-.05a.1.1,0,0,0,.09-.06.09.09,0,0,0,0-.12l-.13,0,0-.52a0,0,0,0,0,0,0l0,0h0A.08.08,0,0,0,148.21,81.74Zm.18-.71h0a.07.07,0,0,0-.08,0h-.06s0,0,0-.08l0,0,.2-.1h0l0,0,0,0A.1.1,0,0,0,148.39,81Zm0,.44h0l-.05-.06h0v0Zm.2.12.06,0s.05,0,.05-.08h0l.12,0s0,0,0,0h0a.08.08,0,0,0,0,0,.1.1,0,0,0,.05.12l.06,0,.14.06h0a.09.09,0,0,0,.08,0h0l.1,0h.08s0,0,0,0,0,0,0,0l-.18.07a.09.09,0,0,0,0,.18h0l.13,0a.08.08,0,0,0,0,.11.08.08,0,0,0,.08,0h0l.05,0h0l0,0a.09.09,0,0,0,0,.13l0,0,.06,0a.09.09,0,0,0,.07,0h0a.16.16,0,0,0,0-.07l0,0h0a.09.09,0,0,0-.05.12h0l-.09,0h0l-.12,0h0l0,0h0l-.06,0a.09.09,0,0,0-.12,0h-.06a.09.09,0,0,0,.05-.12.1.1,0,0,0-.12,0l-.06,0-.14,0a0,0,0,0,1,0,0l-.24-.1h0l.21-.11h0l0,0a.08.08,0,0,0,0-.12.1.1,0,0,0-.12,0v0a.1.1,0,0,0-.12,0l-.06,0h0a.09.09,0,0,0-.05.12.08.08,0,0,0,0,0h0s0,0,0,0l-.08-.09a.08.08,0,0,0,.05,0,.09.09,0,0,0,0-.12l-.09,0Zm0-.2h0s0,0,0,0h0Zm0-.26.05,0,.07.08Zm.19.09h0a.09.09,0,0,0,.06,0h0l.12,0-.16.07S148.83,81.22,148.82,81.22Zm.2.27.12-.06.15.07-.11.06Zm.66-.1h0s0,0-.05,0l-.07,0-.26-.12.3,0h0A.08.08,0,0,0,149.68,81.39ZM149,80.14l0,0a.07.07,0,0,0,0-.05l.28-.1h0l0,0a.09.09,0,0,0,0,.09.08.08,0,0,0,.07,0l.06,0,.13-.11h0l.06.06h0l-.05,0a.07.07,0,0,0,0,.09h0a.07.07,0,0,0-.1,0l-.08,0a.08.08,0,0,0-.05,0l-.07,0h0l-.06,0a.09.09,0,0,0-.11,0l0,0h0Zm.09-.87h0Zm0,.27h0s0,0,0,0h0l.07.12h-.1A.11.11,0,0,0,149.08,79.54Zm.08.25,0,0h0Zm.23-.37.05,0,0,0a.08.08,0,0,0,.07,0h.05l.14-.1,0,0s0,0,0,0h.05s0,0,0,0h0a0,0,0,0,1,0,0h0a.11.11,0,0,0-.08.08v.09l-.11.08a0,0,0,0,0,0,0h0l-.19-.08a.1.1,0,0,0-.12,0l-.07-.11h0l.06,0h0s0,0,0,0v0A.1.1,0,0,0,149.39,79.42Zm0-.38.11,0h0v0a.08.08,0,0,0,0,0Zm.5,3v0s0,0,0,0v0h0l0,0a.08.08,0,0,0,0,.07h0l-.07,0a.1.1,0,0,0,0,0l0,0A.09.09,0,0,0,149.87,82Zm0-1.78h0Zm.2-.7,0,0h0Zm0,.23.22.09h0l0,.08v.13a.05.05,0,0,0,0,0,.09.09,0,0,0,0,.13v0h-.05l-.14.1a.09.09,0,0,0,0,.13.08.08,0,0,0,.07,0h0v.24h0l0,.25s-.09,0-.12,0l0,0h0l-.06,0h0l-.07-.41s0,0,0,0a.08.08,0,0,0,0-.1h0v-.1s0,0,0,0l.19-.07,0,0a.09.09,0,0,0,0-.12h0a.08.08,0,0,0,0-.12l-.14-.13a.07.07,0,0,0,0,0,.09.09,0,0,0-.07,0h0A.08.08,0,0,0,150.1,79.79Zm0-.73v0l.07.06h0s0,0,0,0l0,0Zm.17-.14h0Zm0,.15h0l.12.19-.07-.1h0l0,0A.05.05,0,0,0,150.28,79.07Zm.21,4.85.14-.08h0l0,0a.11.11,0,0,0,.07.06l-.06,0a.09.09,0,0,0,0,.11l-.09,0a.09.09,0,0,0-.05.09l0,0a.07.07,0,0,0,0-.06.1.1,0,0,0,.05,0A.08.08,0,0,0,150.49,83.92Zm.21.32-.07,0h0S150.68,84.23,150.7,84.24Zm-.19.12.09.07a.09.09,0,0,0,.06,0l0,0h0s0,0,0,0a.1.1,0,0,0-.09,0l-.11,0-.14-.13,0,0a.09.09,0,0,0-.13,0,.09.09,0,0,0,0,.1h0l-.17,0-.28-.12.05,0a.09.09,0,0,0,0-.13h0a.07.07,0,0,0,.06,0s0,0,0,0l.16.14a.07.07,0,0,0,.06,0,.09.09,0,0,0,.07,0,0,0,0,0,1,0,0h0l.1-.05s0,.05,0,.06Zm-.08.38h0l.08,0,0,0-.25,0h0l-.24-.1h.11a.1.1,0,0,0,.08-.1l.08.07a.06.06,0,0,0,0,.06A.08.08,0,0,0,150.43,84.74Zm-1.73.14,0,0h0l-.06,0s-.07,0-.1,0h-.2a.06.06,0,0,0,0,0l-.05-.07h.09l0,0,0,0h0l.05,0,1-.07h.21l0,0h.08a.1.1,0,0,0,.09-.09h0l.07,0,0,0a.08.08,0,0,0,0,.07l-.06,0h0Zm.65.19v.15h0l-.15,0-.16-.07v0Zm-1-2.2-.11-.1v0a.1.1,0,0,0,.08.05h0l.58-.06a.13.13,0,0,0,0,.06h0a.09.09,0,0,0,0,.13l0,0,0,0,0,0s0,0,0,0l-.12-.1,0,0a.09.09,0,0,0-.13,0l0,0v0l0,0a.09.09,0,1,0-.12.14l0,0,.2.18a.08.08,0,0,0,.06,0l0,0,.08,0h0a.08.08,0,0,0,.08-.06h0s0,0,0,0l.17.15.06,0a.11.11,0,0,0,.07,0,.09.09,0,0,0,0-.13l-.14-.12,0,0a.09.09,0,0,0,0-.11l0,0h0a.09.09,0,0,0,0,.13l0,0h0l.08.07,0,0s0,0,0,0h0v0s0,0,0,0a.11.11,0,0,0,0,.11v.19s0,0,0,0h0l0,0a.09.09,0,0,0-.13,0,.08.08,0,0,0,0,.11l-.18,0h0l-.24-.11h0l-.06,0a.09.09,0,0,0-.11,0h0a.09.09,0,0,0,0-.1h0a.09.09,0,0,0,.07,0s0,0,0,0l.16.14.06,0a.11.11,0,0,0,.07,0,.09.09,0,0,0,0-.13l-.19-.17h0l0,0a.09.09,0,0,0-.13,0,0,0,0,0,1,0,0h0a.11.11,0,0,0,0-.08l0,0h0l0,0s0,0,0,0a.09.09,0,0,0-.05-.12l-.17-.08a0,0,0,0,0,0,0A.09.09,0,0,0,148.36,82.87Zm-.17-.24h.1a.07.07,0,0,0,0,.06A.1.1,0,0,0,148.19,82.63Zm1.34,1.57h0l.1.11-.13,0-.05,0a.09.09,0,0,0,0-.12l-.22-.1h.15v0l0,0,.14.12h0Zm0-.47Zm-1,.79-.06-.07h0a.1.1,0,0,0,0,0l.19.08h0a.1.1,0,0,0,.09-.06.06.06,0,0,0,0-.06h0l.2.08-.5,0A.1.1,0,0,0,148.53,84.52Zm.39-.22-.06,0h0l0,0-.11-.12v0h.07l0,0,.12,0,0,0,.06,0h0l.32.14a.09.09,0,0,0,.05.12l.06,0,.1,0h0l.06,0h-.29s0-.07,0-.08Zm.56-.57h0Zm0-.91h0l0,0a.14.14,0,0,0-.09,0l-.18-.08h.13l0,0,.11.09,0,0Zm-1,.61h.07v0a.06.06,0,0,0-.08,0A.08.08,0,0,0,148.48,83.43Zm.06.76,0,0,.11.13a.09.09,0,0,0,.07,0h0l-.15-.06h-.06a.1.1,0,0,0,0,0h0l-.06,0a.1.1,0,0,0-.1,0l-.09-.11v0l-.05,0h.15a.12.12,0,0,0,.07,0l.08.1a.08.08,0,0,0,.07,0h0Zm1.36.92-.06,0h0v0h.08s0,0,0,0S149.9,85.1,149.9,85.11Zm-.37,0h.07l0,0,.06,0h0l.28.12h0s0,0,0,0h-.05a.1.1,0,0,0-.09,0l-.06,0h0a.1.1,0,0,0-.09,0l-.12,0h0Zm.23-1.77h.05l0,0-.1,0h0Zm0-2s0,0,0,0h0l.05,0Zm.06,1.48Zm.16-.27,0,0a.07.07,0,0,0,0,.06h0l0,0a.11.11,0,0,0-.12.05h0v-.07s0,0,0,0h0l0,0a.09.09,0,0,0,.06,0H150Zm0-.3Zm0,1a0,0,0,0,1,0,0l0,0h0v0h0Zm-.19.39v0l.11,0h0a.1.1,0,0,0,.09-.06.08.08,0,0,0,0-.09l.05,0a.08.08,0,0,0,0,.1l0,0h0l.09.08v0h0l-.07,0a.09.09,0,0,0-.07,0l-.05,0h0l-.06,0a.09.09,0,0,0-.12,0v0a0,0,0,0,0,0,0l0,0A.09.09,0,0,0,149.75,83.63Zm.48-2.42,0,0h0v0Zm.08.2h0v0Zm0,0h0Zm0,.33h0a.12.12,0,0,0,0,.08l0,0-.09,0Zm-.05-.43,0,0,0,0A.09.09,0,0,0,150.2,81.28Zm0,.65a.09.09,0,0,0,0,0l.08.07-.08,0h0l0,0a.08.08,0,0,0,0,0l0-.06,0,0a0,0,0,0,0,0,0Zm-.13,1.12s0,0,0,0h.11v.11h0l-.06,0s0,0,0,0l-.07-.08s0,0,0,0Zm0,.35.09,0h.06l0,0,0,0h0l0,0a.09.09,0,0,0-.12,0S150,83.42,150,83.4Zm.19.62h0l-.08,0a.09.09,0,0,0,0-.07l.06,0Zm0-1.75h-.11a.21.21,0,0,0,0-.06h0l.23.1a.05.05,0,0,0,0,0l-.07,0Zm.13-.17h0Zm-.3-1.92-.09,0v0a.08.08,0,0,0,0-.07h0a0,0,0,0,0,0,0ZM150,81.26h0l-.05,0h0s0,0,0-.05v0Zm-.05.22h0l0,0h0l.06,0s0,0,0,0l0,0-.14.08s0,0-.05.07h0v0a.11.11,0,0,0,0-.07Zm-.38-1.74h0Zm-.44.62h0l.35.15h0a.1.1,0,0,0,.09-.06.09.09,0,0,0,0-.1l.12-.1h0v.19h0l0,0s-.05,0-.06.08l-.1,0h0l0,0h0l-.3-.13Zm.59.62h0l0,0Zm-.14.65-.15.08s0,0,0,0h0l0,0a.08.08,0,0,0,0,0Zm-.94.48-.05,0h0l-.06,0h0a.11.11,0,0,0,.07,0h0Zm-.54,2h0a.21.21,0,0,0,0,.06h0l-.11-.05Zm-.12.23h0a.08.08,0,0,0,.08-.06v0l.09.11a.13.13,0,0,0,.07,0h0a.1.1,0,0,0,0,.07l0,0,.05.06-.08,0h0l-.13,0h0l-.06,0a.09.09,0,0,0-.12,0,.09.09,0,0,0,.05.12h0l-.21,0,0-.35Zm.13.58h0l-.08-.11h0a0,0,0,0,1,0,0l0,0Zm2.06.43h0l0,0s0,0,0,0a.09.09,0,0,0,0-.12l0,0h.19a.1.1,0,0,0,0,.11l.06,0h0a.07.07,0,0,0,0,.06v0a.09.09,0,0,0-.1,0h0Zm.14-.35.23,0a0,0,0,0,0,0,0l0,0,.2.16a.11.11,0,0,0-.12,0l-.11,0,0,0s0,0,0,0h0a37462206679.71,37462206679.71,0,0,0,0-.06l0,0,0,0-.09,0h-.12Zm.49-.34-.05-.06s0,0,0,0h0l.05,0h0l0,0A.07.07,0,0,0,150.77,84.67Zm.1.34h0Zm0,0h0Zm-.3.41v0h0l.16.07h0a.09.09,0,0,0,.08,0v0s.05,0,.06,0a.09.09,0,0,0,0-.12l0,0h0a.09.09,0,0,0,.07,0v0h0l0,0h0l0,.17v0l-.05,0a.09.09,0,0,0-.05.12.1.1,0,0,0,.08.06h0v.08l-.51-.12A.09.09,0,0,0,150.54,85.44Zm.39-1.92h0l0,0a.09.09,0,0,0-.13,0,.11.11,0,0,0,0,.12h-.15a.06.06,0,0,0-.06,0h0s0,0,0,0l-.14.08s0,0,0,0a.09.09,0,0,0,0-.06s0,0,0,0l-.05,0,0-.06h0s0,0,0,0h0a.1.1,0,0,0,.05.09l.09,0h0a.1.1,0,0,0,.08-.06.11.11,0,0,0,0-.08.1.1,0,0,0-.05-.11l-.26-.12a.07.07,0,0,0,.06-.07v0a0,0,0,0,1,0,0l0,0a.07.07,0,0,0,0,.08l.06,0h0l.05,0a.09.09,0,0,0,.06,0h0l.2.09H151l.22.09h-.06a.07.07,0,0,0-.06,0Zm-.51-4.25s0,0,0,0h0Zm.78-.24-.1,0a.08.08,0,0,0,0-.07.08.08,0,0,0,0-.1l-.11-.09h0l.1,0a.05.05,0,0,0,0,.05l0,0h0l0,0V79Zm-.2.27h.05l0,.07h-.15l.05,0a.07.07,0,0,0,0-.06Zm0,.42s0,0,0,0l-.05,0Zm-.08.19A.08.08,0,0,0,151,80l.06,0h0l.23.1h0a.1.1,0,0,0-.07,0,.09.09,0,0,0,0,.13l0,0,0,0h0l-.05,0a.11.11,0,0,0-.08,0l-.23-.1-.06,0h0a.1.1,0,0,0,0-.09l0,0,0-.23h0Zm.4,0,0,0-.05,0a0,0,0,0,1,0,0h0Zm0-.67s0,0,0,0l0,0h0Zm0,1.31,0,0h0s0,0,0,0l0,0h0l.12.11h0l0,0h0l0,0,0,0a.14.14,0,0,0-.17,0h0l0,0a.1.1,0,0,0,0-.09.08.08,0,0,0,0,0l0,0h0A.07.07,0,0,0,151.34,80.55Zm.2-1.69h0s0,0,0,0l0,0h0l-.06,0s0,0,0,0Zm0-.08a0,0,0,0,0,0,0s0,0,0,0l0,0h0l0,0h0S151.56,78.77,151.56,78.78Zm.13.4h0l-.06,0a.08.08,0,0,0-.08,0h0l-.08-.07h0Zm.1-.35s0,0,0,0a.09.09,0,0,0,.08,0h.06a.06.06,0,0,0,0,0l.06.1h0s0,0,0,0l0,0-.08-.06a.11.11,0,0,0,0-.08l-.11-.11,0,0h0a.09.09,0,0,0,0-.05h0s0,0,0,0A.09.09,0,0,0,151.79,78.83Zm.54.76,0,0a.06.06,0,0,0-.06,0,.09.09,0,0,0,0-.11l0,0h0v0l.11,0v.17A.08.08,0,0,0,152.33,79.59Zm0,.36h-.06s0,0,0,0l-.1,0v0Zm0,.64-.05,0h.05Zm0-.44h.06v0Zm-.14.12,0,0h0s0,0,0,0v0a0,0,0,0,0,0,0Zm0-.15v0h0Zm0,1.1s0,0,0,0l.07,0,0,.13-.12-.08A.18.18,0,0,0,152.11,81.22Zm0-2.43-.11-.05h0l.11.05Zm0,2.78h0s0,0,0,0,0,0,0,0l-.06,0,0,0a.06.06,0,0,0-.08,0s0,0,0,0l0,0V81.4ZM152,81v0l-.11,0H152S152,81,152,81Zm-.38,1.68a.12.12,0,0,0-.05,0l-.13,0v-.06h0v-.07h.09l.07,0s0,.08,0,.1l0,0a.06.06,0,0,0,0,0h0A.06.06,0,0,0,151.59,82.71Zm0,.05h0v0S151.6,82.75,151.6,82.76Zm-.17.65,0,0-.09,0h0l-.31-.13h0l-.14-.07h0a0,0,0,0,0,0,0l.08.08a.09.09,0,0,0,.07,0,.09.09,0,0,0,.06,0h0l0,0,.05,0,.05,0,0,0,.26.11Zm.09.22h0l-.08,0a0,0,0,0,0,0,0h0Zm-.41-.53h0l0,0L151,83l0,0h0Zm-.05-.29Zm0-1.33h0a.08.08,0,0,0,0,0v0h0l0,0Zm0-.72s0,0,0,0H151a.06.06,0,0,0,0-.08h0a.09.09,0,0,0,0,0l.05,0Zm-.06.36Zm0,0h0Zm0-.68h0Zm0,.87s0,0,0,0a.08.08,0,0,0,0,0Zm0,.06,0,0s0,0,0,0Zm0,.45a.09.09,0,0,0,.06,0h0a.09.09,0,0,0,0,0l0,0,0,0-.05,0a.09.09,0,0,0-.13,0,0,0,0,0,1,0,0h0l0,0h0a.08.08,0,0,0,.07,0Zm-.08.45h0Zm.32-1.32a0,0,0,0,0,0,0l0,0h0v0l0,0Zm0,.37h0l-.05,0h0Zm.13-.21s0,0,0,0h0s0,0,0-.06h0Zm-.06-.32Zm.2,1.32a.09.09,0,0,0-.06,0l-.08,0h0v0l0,0a.09.09,0,0,0,0-.13l0,0h0v0h0Zm0-.35h0Zm-.11-.88h0l0,0h0a0,0,0,0,0,0-.05l0,0Zm0,2.24h0Zm.16-1.24h0Zm0-.48h0l-.07,0h0l0,0s0,0,0,0a.1.1,0,0,0,0,0s0,0,0,0h0l0,.2Zm.13-1.77h0l.22,0v0a.09.09,0,0,0,0,.17h0v0l-.06,0h0l-.06,0a.1.1,0,0,0-.13,0v.07a.07.07,0,0,0,0,0l-.09,0v0a.08.08,0,0,0-.07-.08h0l.05,0h0l0,0a.07.07,0,0,0,.06,0,.11.11,0,0,0,.07,0A.1.1,0,0,0,151.74,79.63Zm.25.92a0,0,0,0,1,0,0h0l-.07,0H152S152,80.54,152,80.55Zm-.44-.16h0Zm0-.18a0,0,0,0,0,0,0h0a.09.09,0,0,0,.06,0l.06,0h0l0,0h0Zm.1,2.85h0l0,0h0l-.08,0h0Zm0,2h0Zm0-.56h.05l0,0a0,0,0,0,0,0,0Zm.09-4.44a.11.11,0,0,0-.08,0l0,0s0,0,0,0a.09.09,0,0,0,0-.07.12.12,0,0,0,.05,0l.06,0h0l.11,0,0,.07-.05,0s0,0,0,0l0,0Zm-.91-.86s0,0,0,0l-.11-.1h0a0,0,0,0,0,0,0l0,0,.09.15Zm-.11.15h0l.07.05h0l-.12,0a.1.1,0,0,0,0-.05l-.07,0v-.06l.06,0A.07.07,0,0,0,150.76,79.32Zm-.1,1.21.08,0a.09.09,0,0,0,0,.12l0,0a.09.09,0,0,0,0,.09l0,0,.11.11h-.06l-.18-.17h0l0,0a.09.09,0,0,0-.09,0v-.15h0l.06,0Zm.16,1.35h0Zm-.13-.73h0Zm-.15-.24.08.06h0v0l0,0Zm.09.42h0a0,0,0,0,0,0,0l.06,0,0,0h0l0,0,0,0h0l-.08-.08,0,0a.09.09,0,0,0-.13,0h0l0-.08Zm0,1.81.05,0s0,0,0,0a.08.08,0,0,0-.07,0h0v0l-.07-.06h0l0,0h0l.08,0,0,0h0a.06.06,0,0,0,0,.07h0Zm0-.33s0,0,0,0l0,0h0Zm-.08-1.31h0Zm0,.68h0l-.07,0h0Zm.57,1.67h.13a.08.08,0,0,0,.07-.07h0l0,0a.1.1,0,0,0,.05.13l.06,0h0a.08.08,0,0,0,0,0,.08.08,0,0,0,0,0l-.25-.11Zm.21.75h0a.09.09,0,0,0,0,.08,0,0,0,0,1,0,0h0a.09.09,0,0,0,0-.07.08.08,0,0,0-.08,0,.08.08,0,0,0,0-.08h.07l.12.06Zm0,.26a.1.1,0,0,0,.07,0h0a.08.08,0,0,0,0,.08Zm.2-.22,0,0,0,0,0,0h-.07a0,0,0,0,0,0,0Zm0,1.52.12.06,0,.21-.11,0Zm.27-1.9h0ZM152.4,81h0l0,0h0a0,0,0,0,0,0,0v0l0,0Zm.07-.43h0Zm-1.54-1.9-.18,0-.18,0h-.09l-.18,0-.28,0-.16,0h-.12l-.23,0-.38.06-.28,0-.29,0-.28,0v-.09h.11l1.71-.38Zm-2.2.77,0,0h0l0,0a.07.07,0,0,0,.06,0l0,0a.06.06,0,0,0,0-.06Zm0,.4h0Zm.05-.69h0s0,0,0,0Zm-.08.71h0Zm-.16-.52,0,0s-.06,0-.09,0h0a.08.08,0,0,0,0-.11l0,0,.16,0,0,0h0v0l0,0h0S148.57,79.28,148.56,79.31Zm0,.38h0Zm-.26-.14,0,0a.09.09,0,0,0,0,.07l-.09.06a.09.09,0,0,0,0,.07h0l0-.19h.07Zm.42.47-.35.13h0l-.16-.07Zm-.37.33h0a.1.1,0,0,0,.08,0l.32-.12a.06.06,0,0,0,0,.07l0,0h0l0,.06,0,0a.1.1,0,0,0,0,.12h0l.05,0h0l.11,0,0,0a.08.08,0,0,0,0,.12.09.09,0,0,0,.08,0l0,0,.12-.1h0l.06,0h0l.25.11v.1s0,0,0,0a.07.07,0,0,0-.06,0h-.1a.09.09,0,0,0,0-.07.1.1,0,0,0-.12-.06l-.07,0h0l-.27.1-.08,0a.1.1,0,0,0-.09,0,.12.12,0,0,0-.05-.07v0a.09.09,0,0,0-.12,0l0,0h0l-.06-.07v0l.05,0a.1.1,0,0,0,0-.12.09.09,0,0,0-.12,0l-.07,0a.1.1,0,0,0,0,.12h0l0,0s0,0,0,0l0,0-.19.09h0l0-.5Zm-.22,1.14a.06.06,0,0,0-.06,0v-.07h0A.08.08,0,0,0,148.14,81.49Zm0-2.38,0,.2,0,.61v.21l-.08,1v.08l0,.17-.06.84,0,.18v.18l0,.18,0,.48h0v.07h0l-.06.66V84h0v.12h0l0,.58v0h0v.17h0l0,.53-5.31-.28,1.23-6.79,4.62.5Zm3,5s0,0,0,0,0,0,0,0h0l0,0,.17.07h0a.1.1,0,0,0,0,.08h0Zm.08,3.31h.22l0,.24-.05.77h-.21Zm0-.19,0-.59.42,0-.09.59h-.37Zm-11.77-2-.54,2.83-12.22-.36.71-3.1Zm-12-.81,1.72-7.57,11.65,1.26-1.32,6.94ZM126,76.52l-1.83,7.73-15.54-.8,2.44-8.53Zm-1.88,7.92-.75,3.17-13.22-.38h0l-2.66.23,1.1-3.83Zm51.21,4.66L175.28,86l6.55-.33h0l.24,4.21-3.43,0,0-.68h0s0,0,0,0h0a.05.05,0,0,0,0,0Zm6.77,1.16.08,1.41h-.83L179,90.3ZM182.5,92h3.21l0,.23h-3.34L182,92Zm3-8,0-.26-.09-1.2H186l.33,0,.21,0h0l.09,1.19.38,5h-1.23Zm1.45,0,4.17-.25.14,1.55-4.2.2Zm2.11,1.75.27,3.12-2-.05-.23-3Zm.19,0,2-.1.3,3.29-2.09,0Zm2.35-.46-.15-1.56.62,0,.15,1.56Zm.65.32.33,3.36-.64,0-.31-3.31Zm.14-2.09h.05L193,89h-.06Zm.24,0h.14l.55,5.46h-.15Zm.33,0h0v.08h0l.18,1.75h0l0,.16.35,3.46h0Zm.42,2.08,5.7.37.39,3.16L193.71,89Zm5.92.65.36,2.89h0Zm.15-.25,3.55.24.42,3-3.57-.11Zm3.73.14,0-.14-.23-1.57v-.15l0-.24h.56l.23,0h.06l.05.34,0,.14.23,1.55,0,.14.44,3-.88,0Zm.82-1.5h0l.2,1.36h-.05Zm.25,1.69h0l.43,3h-.05Zm.15-1.66,4.09.39.21,1.28-4.11-.31Zm.24,1.69,4.11.3.57,3.51-3.89-.08-.1-.71,0,0,0,0h0a0,0,0,0,0,0,0h-.17Zm4.18-1.27,3.5.35.22,1.2L209,86.41Zm.56,5.4.11.7-3.9,0-.11-.74Zm-.3-3.81,3.51.27.59,3.31-3.53-.08Zm3.55-1.2,3,.31L215.8,87l-3-.25Zm.61,5.1.11.64-3.54,0-.11-.69Zm2.61-4.92v-.07a0,0,0,0,0,0,0l0,0,0,0h-.12l-3.15-.34h0l-.12,0h0l-3.69-.37h0l-.14,0h0l-4.28-.41h0l-.16,0h-.17l0-.33.76.08h0l2.8.27h0l2.58.27h0l1.59.16h0l.76.08h0l2.14.24h0l2,.22h0l1.79.21h0l.4,0Zm1.2-.57h0l-2-.22h0L213,84.69l-.19-1.08,2.42.36h0l2.3-.38h0l1.73-.91h0l.36.07.59,2.8-1.5-.19h0Zm2.89-2.37,1,.18H221l.07,0h0l1.43.26h.11l.48.09.38.07.44,1.94.14.64-3.55-.45Zm3.72.56-.41-1.81-.3-1.35.69.18,1.15,5-.7-.1ZM222.89,80l-.44-2-.39-1.74-.26-1.14.69.24,1.09,4.81Zm-1.14-5.08-.46-2-.37-1.66-.21-1,.69.3,1,4.59ZM220.66,70l-.47-2.09-.36-1.59-.17-.77.68.36,1,4.39Zm-1-4.68-.48-2.12-.34-1.53-.13-.6.67.41,1,4.2Zm-2.7-11.2-.22-.15-.26-1.15.22.16Zm-.44-.31-.26-.18-.19-.87.2-.05Zm-11.13-7.45L204.7,46h0l-.75-.45h0l-.31-.18-.14-.86,1.7,1.06Zm-2.17-1.3-.78-.46h0l-.81-.47h0l-.27-.15-.15-.91L203,44.21Zm-2.35-1.37-.07,0h0l-.84-.49h0L199,42.7h0l-.26-.15-.14-.93,2,1.18Zm-5.28-3-.2-.11h0l-1-.53h0l-1-.54h0l-.23-.13-.13-1,2.43,1.34ZM193,39.58l.27.15h0l1,.54h0l1,.53h0l.36.2h0l0,0h0l.14.08.14.07.24.13.07.5-3.32-2.25ZM196.06,41l-.13-1,2.21,1.25.14,1-.13-.08h0l-.91-.51h0l-.94-.52h0Zm1.45,4.19h0l-.45.17h0l-.1,0,0,0h0l-.35.13-.13,0h0l0,0-.08-.46h0a.05.05,0,0,0,0,0v0h0L136.65,7.32l2.45-2.71,60,40.05Zm-61-38-1.08-.69h-.12L87.07,60.93l-.21,0,50.3-57.59L139,4.51ZM87.18,61.09l48-54.18-.15.89L107.6,38.43,87,61.44Zm.2.76-1,1.72L86,63.5l1-1.72ZM86.3,63.74,85,66.56l-.45-.06,1.28-2.83Zm-1.35,3-1.31,3.38-.45-.06,1.32-3.38Zm-1.37,3.55-1.07,3.25-.47,0,1.08-3.25Zm-1.12,3.43-.58,2.38-.5,0,.6-2.39ZM82,77.43l-.38,0-.06-.05.38,0Zm-.17-1.16,0,.92-.52,0,0-.92Zm0,1.33.42,0,4,.3,8,4.93L102.68,88l.64.39-.64,2.12a.11.11,0,0,0,.07.12h0a.09.09,0,0,0,.09-.06l.65-2.19.15-.5L105,83.37l2.66-8.9,2.6-8.75.32-1,1.23-4.15a.09.09,0,0,0-.17-.05l-1.23,4.11L97.74,72.47l-.32,0-5-.56,22.46-16.33,7.27,1.71-7.33,4.56.26-.92a.09.09,0,0,0-.06-.12.09.09,0,0,0-.11.07L114.61,62l-.32,1.13L111,74.79l-2.5,8.72-1.15,4-.8,2.78-.12.42a.09.09,0,0,0,.06.12h0a.08.08,0,0,0,.08-.07l.09-.31L112.37,94h0l-8.14.11L102.36,94a.05.05,0,0,0,0-.05ZM183.14,92.66l-.41-.23h3l0,.24Zm3.23.26a.09.09,0,0,0,.09-.09.1.1,0,0,0-.09-.09H186l0-.4h0l0-.41h0l-.2-2.91h1.53l2.2.06,2.27.06h.16l.82,0h1l5.93.17h.19l3.77.11,1.06,0h.56l.11.7h0l0,.14h0l.14.93.09.65h0l.1.67h0v.05a.05.05,0,0,0,0,0L187.9,93l-3.16,0Zm19.23-1.53,4,0h.14l3.72,0h.12l3.16,0h.11l3.14,0h0a.09.09,0,0,0,0-.18l-3.07,0-1-5.4,3.47-.14,1.25,6.09H205.67Zm19.92-3.59L225,85.46l-1.18-5.21-1.14-5-1.1-4.79-1.05-4.61-1-4.43L217.8,54l1.31-.31Zm-6.31-34.55,0,.25h0l0,0-2.83-2.39-.06-.27Zm-2.72-1.86h0Zm-.38-.78.13.54.06.3.29,1.28-.24-.18h0l-3.27-2.39-.47-2.25,3.48,2.68ZM169.05,7.38l32.7,31h0l11.5,9.8-.73-.56h0l-1.58-1.2h0l-.48-.35L202,38.9l-33-31Zm-.11.73,32.79,30.82-1.21.44-.49-.31h0l-.83-.52h0l-.86-.53h0l-.88-.53h0l-.9-.55h0l-.91-.55h0l-.94-.56h0l-1-.57h0l-1-.58h0l-1-.59h0l-1-.59h0l-1.07-.61h0l-1.09-.61h0l-1.12-.62h0L186.25,31h0l-1.18-.64h0l-1.2-.65h0l-1.23-.66h0l-1.56-.75h0l-1.63-.61h0l-1.64-.46h0L176.21,27h0l-1.46-.07h0l-.43,0-9.07-6.15Zm-31.53-6L165,20.81h0l.1.07h0l9.16,6.21L181,31.71l2.12,1.44.55.37.26.18,2,1.38h0l0,0h0l.18.12h0l.18.12h0l3.07,2.08h0l0,0h0l.17.11h0l.16.11,1.63,1.1,4.86,3.3,2.7,1.84.11.58-60-40.08-1.9-1.27ZM87,60.37,137.2,2.26l-.15.88L86.79,60.7Zm-.24.69.23,0L85.89,63l-.23,0Zm-1.16,2,.23,0-1.4,3.09-.23,0ZM84.1,66.39l.23,0-1.45,3.71-.24,0Zm-1.52,3.89.24,0-1.2,3.57-.25,0ZM81.31,74l.26,0-.67,2.65-.27,0Zm-.43,2.85,0,1-.29,0v-1Zm-3.5,15.89a.09.09,0,0,0,.05.11h.08a0,0,0,0,0,0,0h0a.11.11,0,0,0,.09-.07L82,80.6,95,93.63l.24.24.07,0,.06,0a.09.09,0,0,0,0-.13l-.24-.24L82,80.36l-.07-.06-1.59-1.59V77.46l.11-.44,0,1h0s0,0,0,0l0,0h0L97.19,93.26,98,94h0s0,0,0,0h.06l5.71.27-27.12.41L63.88,92.83Zm-1.71,4.55-13.2-3.89.24-.6,13.83,2Zm.19,0,.87-2.46,161.12-2.39,0,.1,0,.15Z"/><path class="cls-3" d="M88.61,61.31s0,0,0,0a0,0,0,0,0,0,0,0,0,0,0,0,0,0h-.13l-.4.39v0L83.17,75.38h0a.06.06,0,0,0,0,0v0h0l0,0h.08l.36-.23h0l0-.05,4.91-13.89ZM83.55,75.12l-.11.07L88.2,61.74l.11-.11Z"/><path class="cls-3" d="M92.31,57.72v0l0,0h-.13l-.51.49v0s0,0,0,0L86.41,73.34h0s0,0,0,0v0h0a.05.05,0,0,0,0,0h.08l.46-.28h0l0,0,5.26-15.38ZM86.89,73l-.22.13,5.13-14.9L92,58Z"/><path class="cls-3" d="M97,53.19s0,0,0,0,0,0,0,0v0h-.13l-.64.62s0,0,0,0,0,0,0,0l-5.6,17h0a0,0,0,0,0,0,0v0h0a.1.1,0,0,0,.05,0h0l0,0,.59-.37h0a.1.1,0,0,0,0,0L97,53.2S97,53.2,97,53.19Zm-5.8,17.14-.35.22,5.5-16.7.36-.35Z"/><path class="cls-3" d="M103.08,47.2a0,0,0,0,0,0,0v0h0s0,0,0,0h0l0,0h0l-.86.84s0,0,0,0l0,0-6,19.25h0s0,0,0,0a0,0,0,0,0,0,0h0a.08.08,0,0,0,0,0h0l0,0,.82-.51h0a.1.1,0,0,0,0-.05l6-19.57v0A0,0,0,0,0,103.08,47.2ZM96.89,66.73l-.57.36,5.9-19,.59-.57Z"/></g></svg>