<svg id="Layer_1" data-name="Layer 1" xmlns="http://www.w3.org/2000/svg" viewBox="0 0 100 100"><defs><style>.cls-1{fill:#f9320b;}</style></defs><path class="cls-1" d="M74.31,5H25.69a.94.94,0,0,0-.94.94v78a.94.94,0,0,0,.94.94h4.74L27,94.59a.3.3,0,0,0,.18.39l.11,0a.3.3,0,0,0,.28-.2l3.52-9.94H69.17l3.52,9.94A.3.3,0,0,0,73,95l.11,0a.3.3,0,0,0,.18-.39l-3.44-9.73h4.49a.94.94,0,0,0,.94-.94v-78A.94.94,0,0,0,74.31,5ZM54.68,18.2v2.45H25.36V18.2Zm-.85,3.06V58.48H25.36V21.26Zm.85,37.83v2.46H25.36V59.09Zm0,3.07V72.81H25.36V62.16Zm-29-56.55H53.83v12H25.36V5.94A.33.33,0,0,1,25.69,5.61Zm-.33,78.31V73.42H54.68V84.25h-29A.33.33,0,0,1,25.36,83.92Zm49.28,0a.33.33,0,0,1-.33.33h-19V5.61h19a.33.33,0,0,1,.33.33Z"/><path class="cls-1" d="M40.05,68.27a.91.91,0,0,0,0-1.82.91.91,0,0,0,0,1.82Z"/><path class="cls-1" d="M59.69,43.11a.91.91,0,1,0,.89.91A.9.9,0,0,0,59.69,43.11Z"/><path class="cls-1" d="M40.05,77.7a.91.91,0,1,0,.89.91A.9.9,0,0,0,40.05,77.7Z"/></svg>