<svg id="Layer_1" data-name="Layer 1" xmlns="http://www.w3.org/2000/svg" viewBox="0 0 100 100"><defs><style>.cls-1{fill:#f9320b;}</style></defs><path class="cls-1" d="M94,46.34H22.13a5.18,5.18,0,0,0,1.24-.78,5.66,5.66,0,0,0,.49-8.26.61.61,0,0,1-.15-.56L24,35.58a.61.61,0,0,0-.12-.55.63.63,0,0,0-.51-.25h-2.5a7.57,7.57,0,0,1,1.23-4.42,24.71,24.71,0,0,1,11.54-.44.34.34,0,0,0,.36-.15.3.3,0,0,0-.06-.38c-3.13-3-5.91-4.28-8.25-3.69-3,.75-4.08,4.15-4.12,4.29s0,0,0,.06a8.44,8.44,0,0,0-1.33,4.73h-.45V30.19c4.3-4.75,0-12,0-12.1a.33.33,0,0,0-.26-.16.31.31,0,0,0-.27.13,9.93,9.93,0,0,0-.12,12.12v4.6H18.8a8.44,8.44,0,0,0-1.33-4.73s0,0,0-.06-1.15-3.54-4.12-4.29c-2.34-.59-5.12.65-8.25,3.69a.3.3,0,0,0-.06.38.34.34,0,0,0,.36.15,24.71,24.71,0,0,1,11.54.44,7.57,7.57,0,0,1,1.23,4.42h-2a.63.63,0,0,0-.51.25.61.61,0,0,0-.12.55l.28,1.16a.6.6,0,0,1-.14.56,5.65,5.65,0,0,0,1.73,9H8.9a1,1,0,0,0-1,1V70.53a1,1,0,0,0,1,1h4.19L9.51,81.65a.31.31,0,0,0,.19.4l.1,0a.3.3,0,0,0,.3-.21l3.66-10.35H89l3.66,10.35a.32.32,0,0,0,.3.21l.11,0a.32.32,0,0,0,.19-.4L89.67,71.51H94a1,1,0,0,0,1-1V47.32A1,1,0,0,0,94,46.34Zm-68.19-20a4.23,4.23,0,0,1,1-.12c1.7,0,3.65,1,5.82,2.89a26.1,26.1,0,0,0-9.85.44,6.68,6.68,0,0,1,4-1.66.33.33,0,0,0,.29-.35.32.32,0,0,0-.35-.28,7.53,7.53,0,0,0-3.82,1.38A5,5,0,0,1,25.84,26.31Zm-6.36-7.46c.77,1.51,3,6.59.3,10.31v-5a.32.32,0,0,0-.32-.32.32.32,0,0,0-.32.32V29A9.16,9.16,0,0,1,19.48,18.85ZM6.36,29.08c2.62-2.32,4.91-3.25,6.83-2.77a5,5,0,0,1,2.89,2.3,7.46,7.46,0,0,0-3.81-1.38.32.32,0,1,0-.07.63,6.69,6.69,0,0,1,4,1.66A27.47,27.47,0,0,0,10,28.8,23.83,23.83,0,0,0,6.36,29.08Zm8.48,13.26a5,5,0,0,1,1.26-4.61,1.21,1.21,0,0,0,.3-1.14l-.27-1.18,7.25,0-.29,1.16a1.25,1.25,0,0,0,.31,1.15A5,5,0,0,1,23,45.07a5.1,5.1,0,0,1-4.18,1.08A5,5,0,0,1,14.84,42.34ZM29,58.17V59.9H8.56V58.17ZM29.59,47h44V70.87h-44ZM8.9,47H28.25V57.54H8.56V47.32A.34.34,0,0,1,8.9,47ZM8.56,70.53v-10H28.25V70.87H8.9A.34.34,0,0,1,8.56,70.53Zm85.81,0a.34.34,0,0,1-.34.34H74.22V47H94a.34.34,0,0,1,.34.34Z"/><ellipse class="cls-1" cx="51.77" cy="55.35" rx="0.94" ry="0.92"/><ellipse class="cls-1" cx="84.37" cy="55.35" rx="0.94" ry="0.92"/></svg>