<svg id="Layer_1" data-name="Layer 1" xmlns="http://www.w3.org/2000/svg" viewBox="0 0 100 100"><defs><style>.cls-1{fill:#f9320b;}</style></defs><path class="cls-1" d="M90,43.06H89a5,5,0,0,0-4.36,2.52V35.94A15.19,15.19,0,0,0,69.47,20.76H30.57A15.19,15.19,0,0,0,15.38,35.94v9.71A5,5,0,0,0,11,43.06h-.93a5.06,5.06,0,0,0-5.05,5V69.28A1.22,1.22,0,0,0,6.22,70.5h8L11.3,78.81a.32.32,0,0,0,.2.41l.11,0a.32.32,0,0,0,.3-.22l3-8.41a.25.25,0,0,0,0-.12H15l.17,0H84.25a.41.41,0,0,0,0,.11l3,8.41a.33.33,0,0,0,.31.22l.1,0a.32.32,0,0,0,.2-.41L84.9,70.5h8.88A1.22,1.22,0,0,0,95,69.28V48.11A5.06,5.06,0,0,0,90,43.06Zm-75,13.52H85.07a.79.79,0,0,1,.8.77v4.78a.79.79,0,0,1-.8.77H14.93a.79.79,0,0,1-.8-.77V57.35A.79.79,0,0,1,14.93,56.58Zm0,6.89H85.07a.79.79,0,0,1,.8.77V69a.78.78,0,0,1-.8.76H14.93a.78.78,0,0,1-.8-.76V64.24A.79.79,0,0,1,14.93,63.47ZM16,35.94A14.56,14.56,0,0,1,30.57,21.4h38.9A14.57,14.57,0,0,1,84,35.94V47.48a4.46,4.46,0,0,0,0,.63v7.83H16v-20ZM5.64,69.28V48.11a4.41,4.41,0,0,1,4.41-4.4H11A4.15,4.15,0,0,1,12.4,44h-.08V69.86H6.22A.58.58,0,0,1,5.64,69.28Zm88.72,0a.58.58,0,0,1-.58.58h-6.1V44H87.6A4.15,4.15,0,0,1,89,43.71H90a4.41,4.41,0,0,1,4.41,4.4Z"/></svg>