<svg id="Layer_1" data-name="Layer 1" xmlns="http://www.w3.org/2000/svg" viewBox="0 0 100 100"><defs><style>.cls-1{fill:#f9320b;}</style></defs><path class="cls-1" d="M93.16,46.75H45.21a1.17,1.17,0,0,0,.19-.63V28.3a1.2,1.2,0,0,0-1.2-1.2H16.92a1.2,1.2,0,0,0-1.2,1.2v4.08a4.27,4.27,0,0,0-2.16-.6H9.27A4.27,4.27,0,0,0,5,36v26.6a1,1,0,0,0,1,1H19l-3.13,8.86a.27.27,0,0,0,.17.34l.09,0a.28.28,0,0,0,.26-.18l3.19-9H85.49l3.2,9a.27.27,0,0,0,.25.18l.09,0a.27.27,0,0,0,.17-.34l-3.13-8.86h7.09A1.85,1.85,0,0,0,95,61.83V48.59A1.85,1.85,0,0,0,93.16,46.75Zm1.3,1.84v6.59H14.78V48.59a1.3,1.3,0,0,1,1.3-1.3h.62a.82.82,0,0,0,.22,0H44.2a.82.82,0,0,0,.22,0H93.16A1.31,1.31,0,0,1,94.46,48.59ZM16.68,38.22h0c.19-.08.37-.15.56-.21h.06a3.88,3.88,0,0,1,.49-.11h.12a3.52,3.52,0,0,1,.56,0,4.41,4.41,0,1,1,0,8.81,5.25,5.25,0,0,1-.56,0l-.12,0a4.31,4.31,0,0,1-.49-.11h-.05A4.35,4.35,0,0,1,16.17,46L16,45.91h0a4.41,4.41,0,0,1,0-7.31l0,0,.12-.07A3.74,3.74,0,0,1,16.68,38.22Zm-.41-9.92a.66.66,0,0,1,.65-.66H44.2a.67.67,0,0,1,.66.66V46.12a.65.65,0,0,1-.55.63H20.52l0,0a4.23,4.23,0,0,0,.47-.25l.13-.08a5.74,5.74,0,0,0,.5-.36l.07-.07a4.59,4.59,0,0,0,.39-.37l.1-.12a5.85,5.85,0,0,0,.38-.49l0-.07a4.53,4.53,0,0,0,.27-.48,1,1,0,0,0,.07-.15,3.8,3.8,0,0,0,.23-.59.06.06,0,0,0,0,0,5.63,5.63,0,0,0,.14-.59.88.88,0,0,0,0-.16,4.89,4.89,0,0,0,.05-.66,5,5,0,0,0-5-5,5.09,5.09,0,0,0-.55,0H17.8l-.42.08-.12,0-.42.12-.1,0-.43.18,0,0ZM5.54,62.64V36a3.73,3.73,0,0,1,3.73-3.72h4.25v8.29a5.27,5.27,0,0,0-.27,1.64,5,5,0,0,0,.27,1.64V63.14H6A.49.49,0,0,1,5.54,62.64Zm88.92-.81a1.31,1.31,0,0,1-1.3,1.31H85.87a.27.27,0,0,0-.33-.15.29.29,0,0,0-.16.15H19.69a.26.26,0,0,0-.16-.15.27.27,0,0,0-.33.15H16.08a1.31,1.31,0,0,1-1.3-1.31V55.72H94.46Z"/><ellipse class="cls-1" cx="24.18" cy="33.95" rx="0.61" ry="0.62"/><path class="cls-1" d="M36.1,34.58a.63.63,0,1,0-.61-.63A.62.62,0,0,0,36.1,34.58Z"/><ellipse class="cls-1" cx="24.18" cy="40.43" rx="0.61" ry="0.62"/><path class="cls-1" d="M36.1,41.06a.63.63,0,1,0-.61-.63A.62.62,0,0,0,36.1,41.06Z"/></svg>