<svg id="Layer_1" data-name="Layer 1" xmlns="http://www.w3.org/2000/svg" viewBox="0 0 250 250"><defs><style>.cls-1{fill:#e1e1e1;}.cls-2{fill:#fafafa;}.cls-3{fill:#ececec;}.cls-4{fill:#1a2e35;}.cls-5{fill:#ff735d;}.cls-6{opacity:0.3;}.cls-7{fill:#fff;}.cls-8{fill:#375a64;}.cls-9{fill:#ffbf9d;}.cls-10{fill:#ff9a6c;}.cls-11{opacity:0.6;}.cls-12{opacity:0.2;}</style></defs><path class="cls-1" d="M181.29,200.6a13.81,13.81,0,0,0-5.87-2,3.92,3.92,0,0,0-2.78.51.61.61,0,0,0-.29.51.64.64,0,0,0,.28.35,8.39,8.39,0,0,0,8.66.65"/><path class="cls-1" d="M181.14,200.44a28,28,0,0,1-3.79-3.34,9.54,9.54,0,0,1-2.38-4.4,1.79,1.79,0,0,1,.19-1.47c3,2.36,5.39,5.42,6,9.21"/><path class="cls-1" d="M181.26,200.58a13.66,13.66,0,0,1,.07-5,6.75,6.75,0,0,1,2.65-4.11,5.9,5.9,0,0,1-.07,3.91,18.88,18.88,0,0,1-2.63,5.53"/><path class="cls-1" d="M184.22,205.89a8.75,8.75,0,0,0-4.71,2.38,9,9,0,0,0-2.69,4.63,6.4,6.4,0,0,0,4.35-2.75c1.08-1.4,1.83-2.93,3-4.23"/><path class="cls-1" d="M184.87,206.74a11.61,11.61,0,0,1,1.34-11,14,14,0,0,1-1.34,11"/><path class="cls-1" d="M188.78,211.4a8.43,8.43,0,0,0-8,4.62c-.1.2-.19.46-.05.63a.58.58,0,0,0,.53.16,7,7,0,0,0,4.14-2.14,40.93,40.93,0,0,1,3.45-3.27"/><path class="cls-1" d="M188.66,211.15a14.86,14.86,0,0,1-.15-8.36,4.09,4.09,0,0,1,1.78-2.71.37.37,0,0,1,.27-.05.39.39,0,0,1,.18.2,5.17,5.17,0,0,1,.42,2.4,15.36,15.36,0,0,1-.38,2.43,12.9,12.9,0,0,1-1.29,4.35,7.44,7.44,0,0,0-.52,1c-.15.32-.16.44-.3.7"/><path class="cls-1" d="M199,212.69a10.75,10.75,0,0,1,1.89-8.85.66.66,0,0,1,.54-.35c.33,0,.42.48.41.82a16,16,0,0,1-2.84,8.38"/><path class="cls-1" d="M200,213.33a12.88,12.88,0,0,0,10.57-2.15,8.54,8.54,0,0,0-5.73-.7,8.15,8.15,0,0,0-4.84,2.85"/><path class="cls-1" d="M200.74,211.39a12.22,12.22,0,0,1,9.6-5.55,6,6,0,0,1-3.14,3.47,17.74,17.74,0,0,1-4.61,1.35,3.14,3.14,0,0,0-1.85.73"/><path class="cls-1" d="M199.22,202a27.79,27.79,0,0,0,1.23-5.62,9.47,9.47,0,0,0-1.12-5.56,12.23,12.23,0,0,0-.17,11.37"/><path class="cls-1" d="M205.47,198.79a15,15,0,0,1,11.08-7.54,12.34,12.34,0,0,1-11.08,7.54"/><path class="cls-1" d="M204.1,199.56c3.24.5,6,2.56,9,3.82a4,4,0,0,0,2,.39,1.6,1.6,0,0,0,1-2.83,4.27,4.27,0,0,0-1.48-.89,16.42,16.42,0,0,0-10.3-.58"/><path class="cls-1" d="M202.23,201.83a3.79,3.79,0,0,1,1.56,1.09,16.76,16.76,0,0,0,6.85,3.51c.26.07.6.09.73-.14s0-.46-.18-.64a9.39,9.39,0,0,0-4.13-2.81c-1.58-.58-2.95-1.29-4.83-1.14"/><path class="cls-1" d="M200.12,188.12A12.94,12.94,0,0,0,210,191.5a.69.69,0,0,0,.45-.17c.25-.27-.05-.69-.34-.91a11.42,11.42,0,0,0-10-2.3"/><path class="cls-1" d="M202.62,187.2a13.81,13.81,0,0,1,12.39-2,9.91,9.91,0,0,1-5.9,2.59,18.71,18.71,0,0,1-6.49-.55"/><path class="cls-1" d="M201.63,180.9c-.29-2.91-.11-5.21-.31-8.14,0-.24-.06-.52-.28-.6s-.56.26-.66.57a9.32,9.32,0,0,0,1.24,8.1"/><path class="cls-1" d="M201.42,181.22a17.21,17.21,0,0,0,4.82-4.69,6.41,6.41,0,0,0,1.54-4.47,4.63,4.63,0,0,0-3.48,1.73,9.65,9.65,0,0,0-1.77,3.57c-.39,1.28-.66,2.6-1.11,3.86"/><path class="cls-1" d="M206.16,179.9a38.79,38.79,0,0,0,11.87-7,6.08,6.08,0,0,0-4.46.34,14,14,0,0,0-7.47,6.63"/><path class="cls-1" d="M202.75,182.81a24.25,24.25,0,0,0,6.59,0,28.21,28.21,0,0,0,6.16-2,.75.75,0,0,0,.42-.32.48.48,0,0,0-.15-.52,1.3,1.3,0,0,0-.53-.25,11.38,11.38,0,0,0-6.65.4,30.62,30.62,0,0,0-5.84,2.7"/><path class="cls-1" d="M190.23,188.22a11.71,11.71,0,0,1-.11-9.66,7.36,7.36,0,0,1,.86,4.8c-.17,1.65-.67,3.35-.7,5"/><path class="cls-1" d="M184.26,185.2a13.46,13.46,0,0,0-10,4.27,9.37,9.37,0,0,0,5.48-1,27.82,27.82,0,0,0,4.69-3.14"/><path class="cls-1" d="M180.24,183.86a14.07,14.07,0,0,0-5.34.16,6.38,6.38,0,0,0-4.07,3.46,9.64,9.64,0,0,0,5-.95,28.76,28.76,0,0,0,4.41-2.67"/><path class="cls-1" d="M186.19,183.92a17.12,17.12,0,0,0-5.25-2.62,5.73,5.73,0,0,0-5.46,1.33,10.11,10.11,0,0,0,5.22,1,18,18,0,0,1,5.69.58"/><path class="cls-1" d="M186.2,184a12.2,12.2,0,0,1-2.75-11.49A17.53,17.53,0,0,1,186.2,184"/><path class="cls-1" d="M193.92,176.19c.53-1.23.9-2.52,1.38-3.78a11.17,11.17,0,0,1,2-3.48,5.15,5.15,0,0,1,3.48-1.8,14,14,0,0,1-6.75,9.08"/><path class="cls-1" d="M192.52,177.82a18.29,18.29,0,0,0-3.07-3.75,5.18,5.18,0,0,0-4.19-1.1,9.74,9.74,0,0,0,7.26,4.85"/><path class="cls-1" d="M192.8,176.29a20.82,20.82,0,0,1-1.38-4.49,7,7,0,0,1,.7-4.56,10.36,10.36,0,0,1,.76,9.09"/><path class="cls-1" d="M193.94,167.24c.87-2.89,3.52-5,6.37-6a2.29,2.29,0,0,1,1.12-.17,1,1,0,0,1,.83.69c.1.49-.31.93-.69,1.25a21.59,21.59,0,0,1-7.63,4.22"/><path class="cls-1" d="M194,164.88a20.83,20.83,0,0,1,.83-5.52,7,7,0,0,1,3.47-4.2,8.2,8.2,0,0,1-1.54,5.38,24.53,24.53,0,0,0-2.81,5"/><path class="cls-1" d="M193.92,166.16c-.72-2.11-.79-4.78-2.06-6.62-.88-1.28-2.29-2.15-3.05-3.51a5.36,5.36,0,0,0,.18,4,11.68,11.68,0,0,0,2.33,3.34c.94,1,1.73,1.74,2.6,2.8"/><path class="cls-1" d="M193.94,228.19c-.06,0-.11-14.05-.11-31.38s0-31.38.09-31.38.11,14,.11,31.38S194,228.19,193.94,228.19Z"/><path class="cls-1" d="M206.21,186.1a3.42,3.42,0,0,1-.52.2l-1.46.49c-1.22.41-2.91,1-4.73,1.77a18.64,18.64,0,0,0-4.49,2.25,3.09,3.09,0,0,0-.9,1.19c-.14.33-.17.53-.19.53s0-.05,0-.15a2,2,0,0,1,.1-.41,3.14,3.14,0,0,1,.88-1.27,7.66,7.66,0,0,1,2-1.21c.78-.36,1.64-.74,2.56-1.12,1.83-.75,3.53-1.34,4.77-1.72.62-.19,1.12-.34,1.47-.43A2.59,2.59,0,0,1,206.21,186.1Z"/><path class="cls-1" d="M210.24,176.21l-.15.16-.45.42L208,178.32l-5.6,5c-2.19,1.95-4.08,3.81-5.39,5.21-.66.7-1.17,1.28-1.53,1.68l-.4.47-.15.15s0-.07.12-.18.2-.28.37-.49c.34-.42.84-1,1.48-1.73a71.83,71.83,0,0,1,5.36-5.26c2.19-1.94,4.19-3.69,5.64-4.95l1.73-1.48.47-.39A.91.91,0,0,1,210.24,176.21Z"/><path class="cls-1" d="M200,185.29c-.05,0,.4-1.08.86-2.41s.67-2.46.73-2.45a7.8,7.8,0,0,1-.54,2.51,15.82,15.82,0,0,1-.68,1.69A2.46,2.46,0,0,1,200,185.29Z"/><path class="cls-1" d="M194,193.79a2.56,2.56,0,0,1-.34-.39l-.86-1.1c-.73-.94-1.73-2.24-2.85-3.65S187.74,186,187,185l-.88-1.09a2,2,0,0,1-.3-.42,4.15,4.15,0,0,1,.36.37c.23.24.54.6.93,1,.78.9,1.83,2.15,3,3.57s2.11,2.73,2.8,3.69c.35.48.63.87.82,1.15A3.79,3.79,0,0,1,194,193.79Z"/><path class="cls-1" d="M191.26,190.34a5,5,0,0,1-1.13-2.11,6.13,6.13,0,0,1-.26-2.13H190a.75.75,0,0,1-.08.24s0-.09,0-.26H190a10.2,10.2,0,0,0,.36,2.07A16.33,16.33,0,0,0,191.26,190.34Z"/><path class="cls-1" d="M187.78,186a3,3,0,0,0-.79-.46,5.18,5.18,0,0,0-2.18-.18,13.6,13.6,0,0,0-2.2.36,6.41,6.41,0,0,1-.91.22,2.94,2.94,0,0,1,.87-.36,10.58,10.58,0,0,1,2.22-.42,4.76,4.76,0,0,1,2.26.25A1.33,1.33,0,0,1,187.78,186Z"/><path class="cls-1" d="M187,184.91s-.46-.19-1.21-.44a12.16,12.16,0,0,0-3-.62,12.51,12.51,0,0,0-3.07.15c-.78.14-1.25.29-1.26.25a1.33,1.33,0,0,1,.32-.13,7.36,7.36,0,0,1,.91-.26,10.78,10.78,0,0,1,3.12-.22,11.05,11.05,0,0,1,3,.69,7.69,7.69,0,0,1,.86.39C186.86,184.83,187,184.89,187,184.91Z"/><path class="cls-1" d="M193.92,180.43a26.15,26.15,0,0,1-.88-3.06,25.54,25.54,0,0,1-.68-3.11,26.15,26.15,0,0,1,.88,3.06A23.45,23.45,0,0,1,193.92,180.43Z"/><path class="cls-1" d="M194,180.43a15,15,0,0,0-1-1.83,8.12,8.12,0,0,0-1.43-1.49,1.43,1.43,0,0,1,.55.29,4.52,4.52,0,0,1,1,1.08A4,4,0,0,1,194,180.43Z"/><path class="cls-1" d="M193.94,220.7s-.07-.34-.23-.94a13.14,13.14,0,0,0-.93-2.43,33.38,33.38,0,0,0-5-7c-1.11-1.27-2.19-2.47-3.1-3.62a25,25,0,0,1-2.22-3.2,14.84,14.84,0,0,1-1.13-2.38c-.1-.29-.17-.52-.22-.68a.91.91,0,0,1-.05-.24s.12.32.35.89a17.89,17.89,0,0,0,1.17,2.34,27.11,27.11,0,0,0,2.24,3.16c.92,1.13,2,2.32,3.12,3.6a31.88,31.88,0,0,1,5,7.09,11.91,11.91,0,0,1,.88,2.47,7.08,7.08,0,0,1,.13.71A2.09,2.09,0,0,1,193.94,220.7Z"/><path class="cls-1" d="M205,208.16a3.14,3.14,0,0,1-.58.33,12.73,12.73,0,0,0-1.51,1,17.94,17.94,0,0,0-2,1.8c-.69.74-1.41,1.59-2.14,2.5-1.46,1.84-2.83,3.46-3.65,4.76-.41.64-.72,1.18-.91,1.56s-.31.59-.32.59,0-.06.05-.17a4.31,4.31,0,0,1,.2-.45,13.57,13.57,0,0,1,.86-1.61,52.5,52.5,0,0,1,3.61-4.8c.73-.92,1.46-1.77,2.17-2.51a16.28,16.28,0,0,1,2-1.79,11.24,11.24,0,0,1,1.55-1,4.27,4.27,0,0,1,.46-.2Z"/><path class="cls-1" d="M205.25,212.23a8,8,0,0,1-1.23.18,16.42,16.42,0,0,0-2.92.57,9,9,0,0,0-2.61,1.37c-.6.47-.88.85-.91.83s0-.11.18-.28a4.71,4.71,0,0,1,.64-.66,8.07,8.07,0,0,1,2.64-1.45,13.56,13.56,0,0,1,3-.53A6.58,6.58,0,0,1,205.25,212.23Z"/><path class="cls-1" d="M197.94,214.73c-.06,0,.49-.88.92-2s.5-2.15.57-2.14a2,2,0,0,1,0,.66,7.42,7.42,0,0,1-.36,1.55,7.9,7.9,0,0,1-.71,1.43C198.12,214.55,198,214.75,197.94,214.73Z"/><path class="cls-1" d="M208.63,197.25l-.2.1-.58.27c-.25.1-.56.24-.91.42s-.75.37-1.17.62l-.67.38-.71.45c-.49.3-1,.67-1.52,1a29.14,29.14,0,0,0-3.16,2.79,28.1,28.1,0,0,0-2.68,3.26c-.36.55-.71,1-1,1.56-.14.25-.29.48-.42.72l-.35.68c-.24.43-.41.84-.58,1.2s-.3.66-.4.92l-.24.58c-.06.14-.09.21-.1.2a1.23,1.23,0,0,1,.06-.21c.06-.16.12-.36.21-.6s.2-.58.36-.94.33-.78.56-1.21l.35-.7c.12-.24.27-.47.41-.73.28-.51.63-1,1-1.57a26.72,26.72,0,0,1,2.69-3.3,29.39,29.39,0,0,1,3.2-2.8c.54-.37,1-.74,1.54-1,.25-.16.48-.31.72-.44l.68-.37c.43-.25.84-.43,1.2-.6s.66-.3.92-.4l.59-.22C208.55,197.27,208.62,197.24,208.63,197.25Z"/><path class="cls-1" d="M199.84,203.13a1.51,1.51,0,0,1,.49-.72,3,3,0,0,1,1.94-.74,5.17,5.17,0,0,1,2,.4,2.83,2.83,0,0,1,.77.37,4.31,4.31,0,0,1-.82-.24,6.29,6.29,0,0,0-2-.33,3.16,3.16,0,0,0-1.86.65C200,202.85,199.88,203.15,199.84,203.13Z"/><path class="cls-1" d="M198.53,204.49a7,7,0,0,0,.55-1.8,7.38,7.38,0,0,0-.12-1.88,1.26,1.26,0,0,1,.23.53,3.82,3.82,0,0,1,.1,1.37,3.66,3.66,0,0,1-.42,1.32A1.26,1.26,0,0,1,198.53,204.49Z"/><path class="cls-1" d="M184.23,222.71a46.62,46.62,0,0,0,4.41,16.35h10.82a47,47,0,0,0,4.15-16.35Z"/><path class="cls-2" d="M201.86,231.4s-3.57.1-8,.1-8-.05-8-.1,3.56-.1,8-.1S201.86,231.34,201.86,231.4Z"/><path class="cls-2" d="M201.62,233.34c0,.06-3.34.1-7.46.1s-7.47,0-7.47-.1,3.34-.1,7.47-.1S201.62,233.29,201.62,233.34Z"/><path class="cls-2" d="M188.82,226.23a31.18,31.18,0,0,1,0,5,31.18,31.18,0,0,1,0-5Z"/><path class="cls-2" d="M194.62,226.23a33.46,33.46,0,0,1,0,5.17,30.43,30.43,0,0,1,0-5.17Z"/><path class="cls-2" d="M200.06,226.19a34.77,34.77,0,0,1,0,5.27,34.77,34.77,0,0,1,0-5.27Z"/><path class="cls-2" d="M203.27,226.23c0,.06-4.18.11-9.34.11s-9.33-.05-9.33-.11,4.18-.1,9.33-.1S203.27,226.18,203.27,226.23Z"/><rect class="cls-1" x="31.82" y="178.13" width="8.91" height="53.44"/><rect class="cls-1" x="46.14" y="178.13" width="8.91" height="53.44"/><rect class="cls-1" x="60.45" y="178.13" width="8.91" height="53.44"/><rect class="cls-1" x="74.76" y="178.13" width="8.91" height="53.44"/><rect class="cls-1" x="89.08" y="178.13" width="8.91" height="53.44"/><rect class="cls-1" x="103.39" y="178.13" width="8.91" height="53.44"/><rect class="cls-1" x="117.71" y="178.13" width="8.91" height="53.44"/><rect class="cls-1" x="26.41" y="184.17" width="98.93" height="2.86" rx="1.42"/><rect class="cls-1" x="26.41" y="225.13" width="98.93" height="2.86" rx="1.42"/><rect class="cls-1" x="162.96" y="47.48" width="49.64" height="82.17"/><rect class="cls-3" x="161.31" y="47.48" width="49.64" height="82.17"/><rect class="cls-2" x="163.43" y="49.15" width="45.41" height="78.84"/><rect class="cls-3" x="172.07" y="59.39" width="27.93" height="58.35"/><path class="cls-1" d="M172.07,97.09c-.06-5.45,4.84-10.77,10.24-11.53,2.57-.36,5.3.15,7.71-.84,4.29-1.76,5.66-7.46,10-9.15l.19,42.17H172.07Z"/><path class="cls-4" d="M210.76,239.6c0,.07-40.91.12-91.37.12S28,239.67,28,239.6s40.91-.12,91.39-.12S210.76,239.54,210.76,239.6Z"/><path class="cls-5" d="M122.1,62.48l21.76-.92a7.05,7.05,0,0,1,7.35,6.89l.77,33.61a7.06,7.06,0,0,1-6.32,7.18h0a2.34,2.34,0,0,0-2.1,2.42l2.73,71a8.81,8.81,0,0,1-8.41,9.14l-83.13,3.69a2.34,2.34,0,0,1-2.44-2.27L48.63,70a2.35,2.35,0,0,1,2.17-2.41Z"/><g class="cls-6"><path d="M52.24,190.88l.07,2.33L141.79,185,140.08,61.72S118.36,65,118,65,52.24,190.88,52.24,190.88Z"/></g><polygon class="cls-3" points="110.77 55.86 136.74 54.28 139.42 182.03 48.01 191.3 34.55 64.22 110.77 55.86"/><path class="cls-4" d="M110.77,55.86l-1.35.16-4,.45L90.29,58.16,34.56,64.31l.08-.1C38.25,98.26,43,142.49,48.13,191.29l-.13-.1,20.49-2.08,70.92-7.19-.1.12c-1.15-55.86-2.09-101.68-2.63-127.76l.06,0-19.32,1.15-5,.29c-1.11.07-1.68.09-1.68.09l1.68-.12,5-.31,19.33-1.21h0v.06c.56,26.08,1.54,71.89,2.74,127.75v.1h-.1l-70.92,7.2L48,191.42h-.12v-.11c-5.16-48.81-9.84-93-13.44-127.09v-.09h.08l55.74-6.07,15.19-1.64,4-.42Z"/><polygon class="cls-7" points="30.01 59.97 42.38 188.55 138.12 179.53 124.31 51.05 30.01 59.97"/><path class="cls-4" d="M30,60l94.29-9h.1V51c3.88,36.07,8.66,80.49,13.82,128.48l0,.12h-.12l-.68.06-95.06,8.95h-.1v-.11C35,112.43,30.1,60.91,30,60c.09.94,5.09,52.45,12.48,128.57l-.12-.1,95.06-9,.67-.06-.1.13c-5.15-48-9.92-92.42-13.79-128.49l.11.09Z"/><path class="cls-1" d="M103.43,157.49a14.11,14.11,0,1,1,14.07,14.14A14.13,14.13,0,0,1,103.43,157.49Zm28,.06a13.85,13.85,0,1,0-13.88,13.82A13.87,13.87,0,0,0,131.39,157.55Z"/><path class="cls-1" d="M105,157.49a12.31,12.31,0,1,1,12.27,12.34A12.31,12.31,0,0,1,105,157.49Zm22.79.06A10.49,10.49,0,1,0,117.32,168,10.49,10.49,0,0,0,127.83,157.55Z"/><path class="cls-1" d="M108.07,157.67a9,9,0,0,1,1-4.08l1.62.82A7.3,7.3,0,0,0,121,163.92l.94,1.55a9.1,9.1,0,0,1-13.84-7.8Z"/><path class="cls-1" d="M113,149.62a9.1,9.1,0,0,1,11.9,12.93l-1.53-1a7.29,7.29,0,0,0-6.15-11.17,7.07,7.07,0,0,0-3.38.82Z"/><path class="cls-4" d="M58,72.25a2.53,2.53,0,0,1,2.41-2.81,2.58,2.58,0,0,1,2.19.71l-.8.88a1.42,1.42,0,0,0-1.2-.45,1.39,1.39,0,0,0,.28,2.77,1.41,1.41,0,0,0,1.09-.68l1,.7a2.59,2.59,0,0,1-2,1.13A2.52,2.52,0,0,1,58,72.25Z"/><path class="cls-4" d="M63,71.73a2.73,2.73,0,1,1,3,2.25A2.55,2.55,0,0,1,63,71.73Zm4-.41a1.32,1.32,0,1,0-1.18,1.52A1.31,1.31,0,0,0,67,71.32Z"/><path class="cls-4" d="M73.49,68.2,74,73.06l-1.13.12-2.41-2.37.26,2.59-1.34.14-.5-4.87L70,68.56l2.41,2.37-.26-2.59Z"/><path class="cls-4" d="M75.61,69.09l-1.5.15L74,68.15l4.36-.45.11,1.09L77,68.94l.39,3.78L76,72.86Z"/><path class="cls-4" d="M81.36,71l-.75.08.14,1.29-1.38.14-.5-4.86,2.23-.23c1.32-.13,2.23.47,2.34,1.58a1.62,1.62,0,0,1-.79,1.63l1.2,1.42-1.47.16Zm-.24-2.49-.76.08L80.5,70l.77-.08c.57-.06.83-.35.78-.8S81.69,68.46,81.12,68.51Z"/><path class="cls-4" d="M87.67,70.71l-2,.21-.29,1-1.4.15L85.58,67l1.35-.13,2.65,4.64-1.43.14Zm-.5-1-.79-1.5-.46,1.62Z"/><path class="cls-4" d="M89.4,69a2.53,2.53,0,0,1,2.42-2.8,2.61,2.61,0,0,1,2.19.7l-.8.88a1.42,1.42,0,0,0-1.2-.45,1.4,1.4,0,0,0,.28,2.78,1.45,1.45,0,0,0,1.09-.69l1,.7a2.61,2.61,0,0,1-2,1.13A2.53,2.53,0,0,1,89.4,69Z"/><path class="cls-4" d="M95.64,67l-1.49.15L94,66.1l4.36-.45.11,1.09L97,66.9l.39,3.77L96,70.81Z"/><path class="cls-4" d="M122,84.13c0,.06-18.06,1.82-40.34,3.93s-40.37,3.76-40.37,3.69,18.05-1.82,40.35-3.93S122,84.07,122,84.13Z"/><path class="cls-4" d="M78.24,83.12c0,.06-8.33.9-18.61,1.88S41,86.7,41,86.64s8.33-.91,18.62-1.88S78.24,83.05,78.24,83.12Z"/><path class="cls-4" d="M122.39,89.37c0,.06-18,1.82-40.34,3.93S41.69,97.05,41.68,97s18-1.82,40.35-3.93S122.39,89.3,122.39,89.37Z"/><path class="cls-4" d="M122.75,94.61c0,.06-18.06,1.82-40.35,3.93S42,102.29,42,102.23s18.06-1.82,40.35-3.93S122.74,94.54,122.75,94.61Z"/><path class="cls-4" d="M123.1,99.85c0,.06-18.06,1.82-40.35,3.92s-40.36,3.76-40.37,3.7,18.06-1.83,40.35-3.93S123.09,99.78,123.1,99.85Z"/><path class="cls-4" d="M123.45,105.09c0,.06-18.06,1.82-40.34,3.92s-40.37,3.76-40.37,3.7,18-1.83,40.34-3.93S123.44,105,123.45,105.09Z"/><path class="cls-4" d="M123.8,110.32c0,.07-18.06,1.83-40.34,3.93S43.09,118,43.09,117.94s18-1.82,40.35-3.92S123.8,110.26,123.8,110.32Z"/><path class="cls-4" d="M124.15,115.56c0,.07-17.82,1.8-39.81,3.88s-39.84,3.71-39.85,3.64,17.82-1.8,39.82-3.87S124.15,115.5,124.15,115.56Z"/><path class="cls-4" d="M93.05,125.64c0,.06-10.76,1.09-24,2.28S45,130,45,130s10.75-1.09,24-2.28S93.05,125.58,93.05,125.64Z"/><path d="M80,168.94c0,.07-6.54.67-14.63,1.36s-14.64,1.19-14.65,1.13,6.55-.68,14.63-1.36S80,168.88,80,168.94Z"/><path d="M67.4,173.94c0,.07-3.67.43-8.21.82s-8.22.64-8.22.58,3.67-.43,8.2-.82S67.4,173.88,67.4,173.94Z"/><path class="cls-5" d="M66.39,137.07c0,.07-4.31.55-9.65,1.07s-9.68.9-9.68.84,4.31-.55,9.65-1.07S66.39,137,66.39,137.07Z"/><g class="cls-6"><polygon points="40.41 166.79 49.2 165.1 54.11 157.69 40.11 162.29 40.41 166.79"/></g><polygon class="cls-5" points="25 157.33 48.46 155.11 54.11 157.69 49.6 162.76 25.77 165.33 25 157.33"/><path class="cls-7" d="M35.53,158.8l.31,3-.7.07L35,160.65l-1.37.14.12,1.23-.69.07-.31-3,.7-.07.12,1.19,1.37-.14-.12-1.19Z"/><path class="cls-7" d="M38.66,160.55l-1.75.18a.62.62,0,0,0,.71.4.79.79,0,0,0,.55-.29l.4.35a1.27,1.27,0,1,1-1.24-1.9,1.15,1.15,0,0,1,1.32,1.08A1.09,1.09,0,0,1,38.66,160.55Zm-1.8-.21,1.14-.12a.58.58,0,0,0-1.14.12Z"/><path class="cls-7" d="M40.42,159l.06.62h-.15a.56.56,0,0,0-.55.7l.11,1.1-.67.06L39,159.16l.64-.06,0,.3A1,1,0,0,1,40.42,159Z"/><path class="cls-7" d="M43.18,160.1l-1.74.17a.61.61,0,0,0,.7.4.75.75,0,0,0,.56-.28l.4.35a1.36,1.36,0,0,1-2.36-.59,1.18,1.18,0,0,1,1.12-1.31,1.14,1.14,0,0,1,1.32,1.08A1.08,1.08,0,0,1,43.18,160.1Zm-1.79-.22,1.14-.11a.56.56,0,0,0-.62-.43A.55.55,0,0,0,41.39,159.88Z"/><path d="M96.15,136.49l.08,0a1.45,1.45,0,0,1,.23.11,3.1,3.1,0,0,1,.75.64,10.58,10.58,0,0,1,1.9,3.27,13.71,13.71,0,0,1,1,5.91,9.89,9.89,0,0,1-.32,1.8,13.51,13.51,0,0,1-.72,1.8,12.12,12.12,0,0,1-2.51,3.39A12.35,12.35,0,0,1,92.67,156a10.62,10.62,0,0,1-5,.78A10.85,10.85,0,0,1,79,150.54a8.81,8.81,0,0,1-.79-2.87,6.68,6.68,0,0,1,.32-3,4.79,4.79,0,0,1,1.81-2.53,3.35,3.35,0,0,1,1.5-.57,3.67,3.67,0,0,1,1.61.19A4.74,4.74,0,0,1,86,143.79a7.66,7.66,0,0,1,1,3.13,13.72,13.72,0,0,1-1,6.59,12.88,12.88,0,0,1-4,5.32,11.9,11.9,0,0,1-6,2.41,11.2,11.2,0,0,1-6.15-1,10.46,10.46,0,0,1-4.37-4.06A10.23,10.23,0,0,1,64,150.7a7.46,7.46,0,0,1,.53-2.7,5.31,5.31,0,0,1,1.55-2.17,3.19,3.19,0,0,1,2.45-.73,3.64,3.64,0,0,1,2.16,1.21,4.59,4.59,0,0,1,1.09,2.12,6,6,0,0,1,0,2.28,11.49,11.49,0,0,1-1.61,3.89,18.91,18.91,0,0,1-2.26,3,20.1,20.1,0,0,1-2.4,2.21,20.72,20.72,0,0,1-2.29,1.53,17.62,17.62,0,0,1-3.47,1.53c-.83.26-1.28.35-1.28.35l.32-.1c.21-.07.54-.14.94-.3a17.76,17.76,0,0,0,3.44-1.56,19.85,19.85,0,0,0,2.27-1.54,20.8,20.8,0,0,0,2.38-2.21,19.22,19.22,0,0,0,2.23-3,12,12,0,0,0,1.57-3.85,5.87,5.87,0,0,0,0-2.21,4.53,4.53,0,0,0-1-2,3.48,3.48,0,0,0-2.06-1.14,3,3,0,0,0-2.3.69,5.12,5.12,0,0,0-1.48,2.1,7,7,0,0,0-.51,2.62,10,10,0,0,0,1.46,5.37A10.27,10.27,0,0,0,70,160a11,11,0,0,0,6,1,11.7,11.7,0,0,0,5.87-2.36,12.72,12.72,0,0,0,3.9-5.23,13.36,13.36,0,0,0,.95-6.47,7.32,7.32,0,0,0-.95-3,4.56,4.56,0,0,0-2.35-2,3.4,3.4,0,0,0-1.51-.18,3.27,3.27,0,0,0-1.41.53,4.66,4.66,0,0,0-1.72,2.41,6.69,6.69,0,0,0-.31,2.94,8.7,8.7,0,0,0,.77,2.8,10.67,10.67,0,0,0,8.51,6.11,10.44,10.44,0,0,0,4.87-.76A12.3,12.3,0,0,0,98.92,150a11.06,11.06,0,0,0,.72-1.78,8.73,8.73,0,0,0,.33-1.77,13.7,13.7,0,0,0-.94-5.86,10.94,10.94,0,0,0-1.85-3.28,3.18,3.18,0,0,0-.74-.65C96.26,136.53,96.14,136.5,96.15,136.49Z"/><path class="cls-8" d="M103.37,73.22l0-.22-.07-.64c-.07-.57-.16-1.41-.28-2.49-.24-2.17-.58-5.33-1-9.33l.07.07L53.21,65.76h0l.11-.13c.45,4.35.89,8.6,1.32,12.68l-.13-.1,34.86-3.59,10.26-1,2.77-.27.72-.07.25,0-.23,0-.71.08-2.74.3-10.23,1.1-34.92,3.7h-.12v-.11C54,74.25,53.54,70,53.08,65.65v-.12h.12l48.85-5h.07v.07c.4,4,.72,7.2.94,9.38l.24,2.47c0,.28,0,.48.06.63S103.37,73.22,103.37,73.22Z"/><path class="cls-4" d="M158.08,95.06a1.13,1.13,0,0,1,.43-.68,2.86,2.86,0,0,1,1.79-.45,7.33,7.33,0,0,0,.74-2.38,1.61,1.61,0,0,1-.85-.24l-.14,0a1.19,1.19,0,0,1-.28-1.72,3.43,3.43,0,0,1,1.65-1.06,6.34,6.34,0,0,0-1.28.46c-.43.14-1,0-1.1-.46a1.14,1.14,0,0,1,.07-.41c.09-.27.17-.54.26-.81a.92.92,0,0,1,.35-.56,2.31,2.31,0,0,1,.47-.11c.5-.13.77-.75,1.27-.89a2.38,2.38,0,0,1,1.14.16c.38.09.88,0,1-.35a3.74,3.74,0,0,1-1.3-1.09,1.26,1.26,0,0,1,.12-1.57,1.88,1.88,0,0,1,1.28-.26c.5,0,1.12.14,1.25.62a1.29,1.29,0,0,1,1.59,1l1.28-.13a11.72,11.72,0,0,1-1.17-1c-.31-.43-.26-1.19.26-1.3a3.55,3.55,0,0,0,.57,0c.13-.06.23-.17.37-.18a.57.57,0,0,1,.28.11l2.71,1.77-.74-1.7c-.22-.53-.4-1.25.07-1.57s1.12.14,1.21.68a.88.88,0,0,1,1.07.81A.89.89,0,0,1,173.5,83a2.58,2.58,0,0,1,1.29.38.77.77,0,0,1,1.25-.53,1.43,1.43,0,0,1,.2-.77.47.47,0,0,1,.7-.08.91.91,0,0,1,1.47-.89l.44-.54a1.2,1.2,0,0,1,1.15.6c.19.42-.12,1-.58,1,.32,0,.25.51.06.77L178.7,84a1,1,0,0,1,1.24-.11.77.77,0,0,1,1.12,0,.63.63,0,0,1,1.13.19c.08-.21.37-.22.59-.19a1.48,1.48,0,0,1,.9.3c.22.23.22.7-.08.81.27-.15.63.15.63.46a1.08,1.08,0,0,1-.45.8,2.58,2.58,0,0,0-.64.68,1.32,1.32,0,0,1,.9-.19,3.39,3.39,0,0,1,1.64.32c.1-.22.4-.23.64-.18a3.75,3.75,0,0,1,2,1.06c.25.25.48.63.31,1a1,1,0,0,1-.36.31l-1.74,1.08A4.68,4.68,0,0,1,188.85,92a8.44,8.44,0,0,1,1.11.48c.31.25.29.91-.11.91a.72.72,0,0,1,.21.85.72.72,0,0,1-.27.3,1,1,0,0,1-.19.22,1.4,1.4,0,0,1-.47.24.89.89,0,0,1-.78.36,3.52,3.52,0,0,1,.83,1,1.56,1.56,0,0,1,0,1.59l-.06.07a.77.77,0,0,1-.34.48.62.62,0,0,1,.07.42,1.71,1.71,0,0,1,.38,3c-.4.28-1.14.23-1.18-.26a1.31,1.31,0,0,1-1,.73,1.28,1.28,0,0,1-.67,1.76,1.37,1.37,0,0,1-.43,2.23,1,1,0,1,1-2,.68,2.23,2.23,0,0,1-.78,1,.76.76,0,0,1-1.08-.28,1.43,1.43,0,0,1-2.11.68.92.92,0,0,1-1.84.16l-2.39,0a9.38,9.38,0,0,1-1.59-.11,4.41,4.41,0,0,1-1.82-.85,1,1,0,0,0-1.28-.22,3.89,3.89,0,0,1-3.68-.87,2.05,2.05,0,0,0-.49-.39,1.83,1.83,0,0,0-.7-.1,6.77,6.77,0,0,1-1.74-.25,1.83,1.83,0,0,1-1.23-.8c-.23-.45,0-1.14.54-1.14a1.1,1.1,0,0,0-.26-.91.66.66,0,0,0-.89,0,.46.46,0,0,0,.22.76,1,1,0,0,1-1.4-.81,1.29,1.29,0,0,1,1.3-1.2,3,3,0,0,1,0-1.45,1.07,1.07,0,0,1-1.45.16,1.83,1.83,0,0,1-1.19.86,1.1,1.1,0,0,1-1.21-.67.8.8,0,0,1,.75-1,.94.94,0,0,1,.84-1.36,1.47,1.47,0,0,1,.9-1.56.77.77,0,0,1-1.1-.43c-.3.48-1,.36-1.54.07A1,1,0,0,1,158.08,95.06Z"/><path class="cls-8" d="M158.08,95.06a.92.92,0,0,0,0,.2.86.86,0,0,0,.19.55,1.89,1.89,0,0,0,.79.54,1.56,1.56,0,0,0,.62.11.76.76,0,0,0,.63-.33h-.05a.81.81,0,0,0,1.15.44l0-.06a1.53,1.53,0,0,0-.93,1.6l.05,0a.9.9,0,0,0-.83.44,1,1,0,0,0-.06,1l0-.07a.79.79,0,0,0-.8.6.87.87,0,0,0,.4,1,1.23,1.23,0,0,0,1.15.11,2,2,0,0,0,.94-.8l-.08,0a1.13,1.13,0,0,0,1.53-.17l-.11,0a3.07,3.07,0,0,0,0,1.47l.06-.08a1.52,1.52,0,0,0-.89.33,1.23,1.23,0,0,0-.47.87,1,1,0,0,0,.47.88.92.92,0,0,0,1,.06l.15-.11-.18,0a.38.38,0,0,1-.27-.45.41.41,0,0,1,.45-.33.64.64,0,0,1,.55.34,1.06,1.06,0,0,1,.12.68l.07-.06a.64.64,0,0,0-.47.22,1,1,0,0,0-.22.48,1,1,0,0,0,.07.52,1.27,1.27,0,0,0,.32.41,2.52,2.52,0,0,0,.92.44,5.85,5.85,0,0,0,1,.21c.68.14,1.46-.13,1.9.5a3.93,3.93,0,0,0,1.93,1,4.22,4.22,0,0,0,1.12.07,6.3,6.3,0,0,0,1.1-.24.68.68,0,0,1,.49,0,3.22,3.22,0,0,1,.45.33,4.44,4.44,0,0,0,1,.57,6.19,6.19,0,0,0,2.34.34l2.4,0-.09-.07a1,1,0,0,0,2-.18l-.14.07a1.52,1.52,0,0,0,2.25-.72H182a.68.68,0,0,0,.51.42,1,1,0,0,0,.67-.07,2.18,2.18,0,0,0,.85-1l-.17,0a1.14,1.14,0,1,0,2.15-.74l-.06.12a1.37,1.37,0,0,0,.87-1,1.38,1.38,0,0,0-.41-1.36l0,.17a1.37,1.37,0,0,0,.72-1.9l-.07.15a1.45,1.45,0,0,0,1.08-.79l-.19,0a.49.49,0,0,0,.16.33.77.77,0,0,0,.31.16,1.11,1.11,0,0,0,.67-.06,1.77,1.77,0,0,0,.78-2.32,1.81,1.81,0,0,0-1-.93l.07.12a.83.83,0,0,0-.07-.49l0,.13a.85.85,0,0,0,.38-.55l0,0a1.52,1.52,0,0,0,.2-1.51,3.41,3.41,0,0,0-1-1.28l-.07.18a1,1,0,0,0,.86-.4l-.05,0a1.27,1.27,0,0,0,.71-.5l0,0a.8.8,0,0,0,.38-.63.86.86,0,0,0-.31-.69l-.06.18a.38.38,0,0,0,.32-.16.58.58,0,0,0,.1-.33.74.74,0,0,0-.25-.61,8.47,8.47,0,0,0-1.11-.48l0,0a4.89,4.89,0,0,0-2.43-1.72l0,.19.8-.5.6-.37a4.25,4.25,0,0,0,.61-.4.63.63,0,0,0,.19-.37.77.77,0,0,0-.06-.4,1.89,1.89,0,0,0-.45-.59,4.07,4.07,0,0,0-1.9-1,1,1,0,0,0-.39,0,.43.43,0,0,0-.34.25l.14,0a3,3,0,0,0-1.31-.32l-.67,0a1.08,1.08,0,0,0-.68.22l.16.12c.19-.38.67-.58,1-1a.81.81,0,0,0,.09-.77.74.74,0,0,0-.29-.29.47.47,0,0,0-.43,0l.09.19a.47.47,0,0,0,.27-.3.7.7,0,0,0,0-.38.72.72,0,0,0-.2-.32,1.17,1.17,0,0,0-.3-.19,3.08,3.08,0,0,0-.66-.13,1,1,0,0,0-.35,0,.39.39,0,0,0-.31.25l.19,0a.66.66,0,0,0-.59-.54.66.66,0,0,0-.73.32l.17,0a.89.89,0,0,0-1.28,0l.14,0a1.11,1.11,0,0,0-1.37.12l.15.13.66-.92a1.35,1.35,0,0,0,.28-.53.74.74,0,0,0,0-.33.3.3,0,0,0-.11-.17.29.29,0,0,0-.19-.06v.2a.66.66,0,0,0,.64-.4.8.8,0,0,0,0-.74,1.28,1.28,0,0,0-1.23-.63h0l0,0-.45.54h.14a1,1,0,0,0-1.63,1l.17-.08a.46.46,0,0,0-.46-.15.62.62,0,0,0-.39.24,1.36,1.36,0,0,0-.21.82l.16-.07a.83.83,0,0,0-.9-.12.8.8,0,0,0-.52.73l.15-.09a2.67,2.67,0,0,0-1.34-.39l.08.15a1,1,0,0,0,0-1.2,1,1,0,0,0-1.14-.31l.13.09a1,1,0,0,0-1.19-.9l.11.07a1.07,1.07,0,0,0-.36-.61,1,1,0,0,0-.67-.24.7.7,0,0,0-.57.42,1.27,1.27,0,0,0-.06.69,5.9,5.9,0,0,0,.45,1.22c.16.39.33.78.5,1.16l.12-.11-1.67-1.09-.82-.53a1.82,1.82,0,0,0-.44-.25.41.41,0,0,0-.29,0,1.16,1.16,0,0,1-.2.12,1.2,1.2,0,0,1-.44,0,.63.63,0,0,0-.47.23,1,1,0,0,0-.1,1,1.85,1.85,0,0,0,.62.73,4.87,4.87,0,0,1,.69.57l.05-.14-1.28.13.09.07a1.38,1.38,0,0,0-1.69-1.08l.1.06a.88.88,0,0,0-.66-.57,2.89,2.89,0,0,0-.82-.11,2.3,2.3,0,0,0-.82.09,1,1,0,0,0-.61.55,1.48,1.48,0,0,0,.26,1.5,4.29,4.29,0,0,0,1.18.92l0-.08a.57.57,0,0,1-.44.33,1.26,1.26,0,0,1-.61-.06,5.62,5.62,0,0,0-.62-.15,1,1,0,0,0-.64.12c-.37.23-.58.59-.92.75a5.59,5.59,0,0,1-.56.15.75.75,0,0,0-.38.46c-.11.36-.22.72-.33,1.06a.62.62,0,0,0,0,.56.74.74,0,0,0,.46.3,1.19,1.19,0,0,0,.53,0,2.27,2.27,0,0,0,.48-.18,2.58,2.58,0,0,1,.88-.31l0-.1a6,6,0,0,0-1.05.51,2,2,0,0,0-.73.78,1.37,1.37,0,0,0-.07,1,.86.86,0,0,0,.63.63h0a1.46,1.46,0,0,0,.87.24l0,0a7.58,7.58,0,0,1-.72,2.38h0a4.65,4.65,0,0,0-1.2.14,1.64,1.64,0,0,0-.72.43,1,1,0,0,0-.26.42.54.54,0,0,0,0,.16,1.29,1.29,0,0,1,.31-.56,1.75,1.75,0,0,1,.72-.41A4.61,4.61,0,0,1,160.3,94h0a7.81,7.81,0,0,0,.75-2.4v0h0a1.5,1.5,0,0,1-.83-.24h0a.8.8,0,0,1-.57-.58,1.31,1.31,0,0,1,.07-.93,1.84,1.84,0,0,1,.7-.74,5.53,5.53,0,0,1,1-.49l.3-.12-.32,0a2.84,2.84,0,0,0-.93.31,1.89,1.89,0,0,1-.45.17,1.11,1.11,0,0,1-.48,0,.69.69,0,0,1-.4-.26.58.58,0,0,1,0-.47l.33-1a.65.65,0,0,1,.32-.4,3.81,3.81,0,0,0,.56-.14c.38-.19.6-.56.94-.76a1.41,1.41,0,0,1,1.15,0,1.51,1.51,0,0,0,.67.06.66.66,0,0,0,.55-.42l0,0-.05,0a4.28,4.28,0,0,1-1.14-.89,1.37,1.37,0,0,1-.24-1.36.87.87,0,0,1,.53-.46,2.14,2.14,0,0,1,.76-.08,3,3,0,0,1,.79.1.73.73,0,0,1,.55.47l0,.07.07,0a1.22,1.22,0,0,1,1.49,1v.08h.08l1.28-.13H168l-.11-.12a4.94,4.94,0,0,0-.71-.59,1.6,1.6,0,0,1-.56-.66.86.86,0,0,1,.07-.81.43.43,0,0,1,.35-.16,1.51,1.51,0,0,0,.5,0c.17-.09.27-.19.38-.16a2.33,2.33,0,0,1,.39.23l.82.54,1.67,1.09.24.16-.11-.27c-.17-.38-.33-.77-.5-1.16A5.77,5.77,0,0,1,170,81a1,1,0,0,1,0-.58.54.54,0,0,1,.43-.32.86.86,0,0,1,.83.71l0,.1.1,0a.78.78,0,0,1,1,.72v.14l.13-.05a.8.8,0,0,1,.94,1.21l-.12.15h.19a2.43,2.43,0,0,1,1.24.38l.15.09v-.18A.68.68,0,0,1,176,82.9l.16.15v-.21a1.25,1.25,0,0,1,.17-.71c.12-.18.44-.25.55-.09l.27.36L177,82a.81.81,0,0,1,1.31-.79l.08.06.06-.07.45-.54-.07,0a1.1,1.1,0,0,1,1,.53c.18.33-.09.89-.47.85v.2a.1.1,0,0,1,.11.08.45.45,0,0,1,0,.23,1,1,0,0,1-.24.46l-.66.93.15.13a.89.89,0,0,1,1.11-.1L180,84l.06-.07a.67.67,0,0,1,1,0l.11.12.06-.14a.53.53,0,0,1,.94.16l0,.5.16-.48c0-.13.26-.16.45-.14a2.77,2.77,0,0,1,.6.12.58.58,0,0,1,.38.38c.05.17,0,.38-.15.42l.08.19c.14-.09.35,0,.44.2a.58.58,0,0,1-.09.57c-.22.37-.7.56-.95,1l-.24.44.39-.31a1.9,1.9,0,0,1,1.2-.16,2.83,2.83,0,0,1,1.23.3l.1.06,0-.11c.06-.14.31-.16.51-.12a3.72,3.72,0,0,1,.65.19,3.87,3.87,0,0,1,1.15.73,1.48,1.48,0,0,1,.4.51.46.46,0,0,1-.08.54c-.16.13-.38.25-.58.38l-.6.37-.79.49-.2.12.22.07A4.62,4.62,0,0,1,188.77,92v0h0c.39.22.81.24,1.09.47a.55.55,0,0,1,.18.43c0,.17-.09.3-.22.3l-.33,0,.26.2A.62.62,0,0,1,190,94a.54.54,0,0,1-.28.47h0v0a1.06,1.06,0,0,1-.6.41h0l0,0a.81.81,0,0,1-.69.32l-.3,0,.23.21a3.21,3.21,0,0,1,.91,1.18,1.32,1.32,0,0,1-.16,1.31l0,0v0a.61.61,0,0,1-.29.41l-.08.05,0,.09a.55.55,0,0,1,.06.35l0,.09.08,0a1.61,1.61,0,0,1,.88.82,1.51,1.51,0,0,1,.06,1.18,1.48,1.48,0,0,1-.74.88.92.92,0,0,1-.54,0,.37.37,0,0,1-.32-.32l0-.39-.17.36a1.23,1.23,0,0,1-.93.67l-.14,0,.07.13a1.19,1.19,0,0,1-.61,1.62l-.18,0,.15.11a1.21,1.21,0,0,1,.34,1.17,1.16,1.16,0,0,1-.74.89l-.1,0,0,.1a.95.95,0,1,1-1.79.62l-.07-.21-.11.2a2,2,0,0,1-.76,1c-.33.17-.82.07-.92-.24l-.09-.27-.09.27a1.28,1.28,0,0,1-.87.79,1.25,1.25,0,0,1-1.09-.16l-.16-.11v.19a.83.83,0,0,1-1.66.15v-.08h-.08l-2.4,0a6,6,0,0,1-2.28-.32,4.11,4.11,0,0,1-1-.55,4.78,4.78,0,0,0-.47-.34.84.84,0,0,0-.6-.07,6.18,6.18,0,0,1-1.08.24,3.9,3.9,0,0,1-1.08-.06,3.73,3.73,0,0,1-1.85-1A2.11,2.11,0,0,0,167,106a1.32,1.32,0,0,0-.54-.12,8.64,8.64,0,0,1-1-.06,7.39,7.39,0,0,1-1-.2,2.35,2.35,0,0,1-.87-.42.84.84,0,0,1-.34-.79c0-.3.26-.58.54-.57h.07v-.07a1.26,1.26,0,0,0-.15-.78.78.78,0,0,0-.66-.4.56.56,0,0,0-.6.45.51.51,0,0,0,.39.61l0-.12a.77.77,0,0,1-.87-.06.89.89,0,0,1-.42-.77,1.24,1.24,0,0,1,1.23-1.07h.08l0-.08a2.87,2.87,0,0,1,0-1.42l.06-.26-.17.21a1,1,0,0,1-1.36.16l-.05,0,0,.05a1.93,1.93,0,0,1-.87.76,1.16,1.16,0,0,1-1.06-.09.78.78,0,0,1-.37-.88.7.7,0,0,1,.7-.54h.09l-.05-.08a.9.9,0,0,1,.8-1.3h0v0a1.44,1.44,0,0,1,.87-1.52l0-.06a.74.74,0,0,1-1.05-.41l0-.06,0,0a.72.72,0,0,1-.59.32,1.64,1.64,0,0,1-.6-.1,1.78,1.78,0,0,1-.79-.52.85.85,0,0,1-.19-.53C158.07,95.13,158.09,95.06,158.08,95.06Z"/><path class="cls-9" d="M180,97a7.64,7.64,0,0,0-7.49-8,7.85,7.85,0,0,0-8,7.18,78,78,0,0,0-.44,8.42c.3,3.89,2.71,5.25,3.68,5.64a5.35,5.35,0,0,0,1.06.19h0s0,0,0,0l-.59,4.52c-.21,3-.86,13,2.15,13.22s7.67-9.7,7.94-12.65Z"/><path class="cls-4" d="M165.73,99a.61.61,0,0,0,.55.67.6.6,0,0,0,.7-.5.61.61,0,0,0-.56-.67A.6.6,0,0,0,165.73,99Z"/><path class="cls-4" d="M165.54,97.16c.07.09.57-.22,1.25-.17s1.14.43,1.22.35,0-.18-.23-.35a1.77,1.77,0,0,0-2-.15C165.58,97,165.5,97.12,165.54,97.16Z"/><path class="cls-4" d="M172.05,99.49a.63.63,0,0,0,.56.67.6.6,0,0,0,.69-.51.61.61,0,0,0-.55-.67A.6.6,0,0,0,172.05,99.49Z"/><path class="cls-4" d="M172.18,97.8c.07.09.57-.22,1.25-.16s1.14.42,1.22.35,0-.19-.23-.36a1.74,1.74,0,0,0-1-.38,1.65,1.65,0,0,0-1,.24C172.22,97.63,172.14,97.77,172.18,97.8Z"/><path class="cls-4" d="M169.31,102.54a5.11,5.11,0,0,0-1.08-.28c-.17,0-.33-.07-.35-.19a.85.85,0,0,1,.15-.5c.2-.4.41-.81.62-1.25A21.65,21.65,0,0,0,170.08,97a23.2,23.2,0,0,0-1.69,3.17l-.6,1.26a1,1,0,0,0-.15.66.45.45,0,0,0,.27.27,1.15,1.15,0,0,0,.29.06A4.37,4.37,0,0,0,169.31,102.54Z"/><path class="cls-10" d="M168.88,110.42a10.93,10.93,0,0,0,6-1.26c-.21.1-1.2,3.92-6.18,2.48Z"/><path class="cls-10" d="M169.46,104.17a1.23,1.23,0,0,1,1.13-.36,1.08,1.08,0,0,1,.74.46.69.69,0,0,1,0,.8.83.83,0,0,1-.91.15,2.88,2.88,0,0,1-.82-.57.76.76,0,0,1-.18-.22.21.21,0,0,1,0-.24"/><path class="cls-4" d="M171.26,103.16c-.11,0-.17.7-.84,1.17s-1.44.32-1.46.42.16.15.49.19a1.86,1.86,0,0,0,1.22-.31,1.58,1.58,0,0,0,.66-1C171.38,103.34,171.32,103.16,171.26,103.16Z"/><path class="cls-4" d="M172.2,95.65c.05.19.73.16,1.52.31s1.41.42,1.53.27-.05-.26-.29-.45a2.55,2.55,0,0,0-1.11-.48,2.63,2.63,0,0,0-1.21,0C172.34,95.44,172.18,95.57,172.2,95.65Z"/><path class="cls-4" d="M165.88,95.42c.11.16.59,0,1.15.07s1,.19,1.15,0,0-.23-.21-.39a1.58,1.58,0,0,0-.91-.32,1.62,1.62,0,0,0-.94.23C165.91,95.19,165.84,95.34,165.88,95.42Z"/><path class="cls-4" d="M163.52,91.48a4.62,4.62,0,0,1,.09-.65,1.86,1.86,0,0,1,.58-.8,6.64,6.64,0,0,1,2.72-1.91c.63-.16,1.29-.1,1.92-.26a12.19,12.19,0,0,0,1.15-.42,9.41,9.41,0,0,1,4.88-.26,7.75,7.75,0,0,1,2.62.85,9.49,9.49,0,0,1,2.35,2.14,14.38,14.38,0,0,1,2.62,4.21,7,7,0,0,1,.37,4,3.38,3.38,0,0,1-2.4,2.7l-.4-.55-.63-.8c.1.32,0,.3-.27.45a.56.56,0,0,1-.76-.28c-.23.26-.68-.07-.59-.42-.27.12-.57-.26-.46-.57-.31.09-.45-.41-.58-.74a4.2,4.2,0,0,0-.26-.52,3.34,3.34,0,0,1-.34-1.83,3.36,3.36,0,0,1-.42-1.8c0-.4,0-.8,0-1.2l-.2-.29a.64.64,0,0,1-.48.58,1.43,1.43,0,0,1-.71-.07l-.7-.2-.45.09a1.78,1.78,0,0,1-.23,1.14,1.09,1.09,0,0,1-.46.61.33.33,0,0,1-.43-.39.38.38,0,0,1-.57-.14,1.24,1.24,0,0,1-.1-.74,3.12,3.12,0,0,1,.71-1.67l-1.32,1a.54.54,0,0,1-.32.16.32.32,0,0,1-.37.33.85.85,0,0,1-.43-.35c-.27-.33-.55-.89-.25-1.23-.14,0-.19-.28-.09-.4-.49.32-1,.64-1.48,1,.15-.07.28.16.24.34a.79.79,0,0,1-.33.39,1,1,0,0,1,.11.67c.27-.2.61.24.5.6a.79.79,0,0,1-.78.51.55.55,0,0,1-.59-.46c-.31,0-.57-.4-.43-.74-.24.13-.4-.28-.39-.58a4.62,4.62,0,0,1,.35-1.53s-.08,0-.11,0,0,0,0-.06l-.88,1.73a4.49,4.49,0,0,0-.56,1.56c0,.22-.07.54-.27.54a.3.3,0,0,1-.15,0,2.85,2.85,0,0,1-1.13-1.57,2,2,0,0,1-.14-.68A9.05,9.05,0,0,1,163.52,91.48Z"/><path class="cls-9" d="M179.25,99.3c.07,0,2.71-.62,2.46,2a2,2,0,0,1-2.85,1.77C178.86,103,179.25,99.3,179.25,99.3Z"/><path class="cls-10" d="M179.76,102.17a1,1,0,0,0,.12.08.46.46,0,0,0,.34,0,1.13,1.13,0,0,0,.63-1,1.46,1.46,0,0,0-.07-.67.53.53,0,0,0-.31-.39.24.24,0,0,0-.29.1c0,.07,0,.13,0,.13s0,0,0-.16a.24.24,0,0,1,.12-.15.33.33,0,0,1,.26-.05.66.66,0,0,1,.44.46,1.54,1.54,0,0,1,.09.75,1.21,1.21,0,0,1-.78,1.08.52.52,0,0,1-.42-.11C179.76,102.24,179.75,102.18,179.76,102.17Z"/><path class="cls-8" d="M169.65,90.87a.62.62,0,0,1-.15-.35.47.47,0,0,1,.16-.39.49.49,0,0,1,.51-.09l.11,0,0-.11a.5.5,0,0,1,.85-.5l.09-.07,0-.07a.3.3,0,0,1,.07-.25.31.31,0,0,1,.22-.11.5.5,0,0,1,.27,0,.62.62,0,0,0,.29.09c.13,0,.19-.1.26-.14l.22-.11a1.17,1.17,0,0,1,1,.14c.13.09.19.16.19.15s0-.08-.16-.18a1.09,1.09,0,0,0-.62-.25,1.36,1.36,0,0,0-.48.05.9.9,0,0,0-.24.12c-.08,0-.14.11-.21.11s-.14,0-.24-.09a.69.69,0,0,0-.32,0,.45.45,0,0,0-.31.16.42.42,0,0,0-.08.35.21.21,0,0,0,0,.11l.1-.08a.63.63,0,0,0-.81-.09.6.6,0,0,0-.22.7l.06-.06a.57.57,0,0,0-.61.12.51.51,0,0,0-.16.45.56.56,0,0,0,.13.29S169.65,90.88,169.65,90.87Z"/><path class="cls-8" d="M166.63,91.39a.76.76,0,0,1-.2-.35.57.57,0,0,1,.07-.45.62.62,0,0,1,.49-.3h.09l-.06-.07a.75.75,0,0,1-.14-.67.37.37,0,0,1,.26-.24.32.32,0,0,1,.35.07l.3.39-.21-.45a.63.63,0,0,1,0-.52.55.55,0,0,1,.44-.31.61.61,0,0,1,.4.07l.13.08-.05-.15c-.06-.21.17-.43.38-.44a1,1,0,0,1,.61.21l.11.07,0-.12a.43.43,0,0,1,.18-.41.77.77,0,0,1,.43-.15,2.22,2.22,0,0,1,.76.08,2.38,2.38,0,0,1,.61.29s0,0-.14-.12a2,2,0,0,0-.45-.23,2.07,2.07,0,0,0-.79-.11.89.89,0,0,0-.48.16.52.52,0,0,0-.22.51l.08-.06a1.09,1.09,0,0,0-.68-.23.58.58,0,0,0-.37.17.44.44,0,0,0-.11.42l.09-.07a.65.65,0,0,0-.47-.09.69.69,0,0,0-.53.38.71.71,0,0,0,0,.62l.1-.06a.44.44,0,0,0-.48-.11.49.49,0,0,0-.32.32.81.81,0,0,0,.17.75l0-.07a.72.72,0,0,0-.56.35.65.65,0,0,0-.05.5.66.66,0,0,0,.16.27A.39.39,0,0,0,166.63,91.39Z"/><path class="cls-8" d="M160.2,91.39a.41.41,0,0,1,.18-.31.59.59,0,0,1,.41-.11,1.68,1.68,0,0,1,.55.18l.07,0v-.07a.53.53,0,0,1,.46-.46,1.5,1.5,0,0,1,.84.21l.35.17-.29-.27a.43.43,0,0,1,.08-.6,1,1,0,0,1,.76-.11h0l.23,0-.18-.15a.46.46,0,0,1,.11-.71.69.69,0,0,1,.76.14l.23.21-.14-.28a1,1,0,0,1,.09-1,.93.93,0,0,1,.74-.39A1.09,1.09,0,0,1,166,88a1,1,0,0,1,.18.11l0,0L166,88a1.11,1.11,0,0,0-.57-.16,1.06,1.06,0,0,0-.82.4,1.14,1.14,0,0,0-.11,1.15l.08-.06a.79.79,0,0,0-.88-.17.57.57,0,0,0-.3.41.51.51,0,0,0,.17.5l0-.1h0a1.06,1.06,0,0,0-.85.14.62.62,0,0,0-.22.37.47.47,0,0,0,.13.41l.06-.1a1.5,1.5,0,0,0-.89-.2.59.59,0,0,0-.53.57l.06-.05a2,2,0,0,0-.59-.17.66.66,0,0,0-.44.14.43.43,0,0,0-.15.25A.24.24,0,0,0,160.2,91.39Z"/><path class="cls-8" d="M164.07,85.61s0,0,.15.07a2.14,2.14,0,0,0,.46.06,1.31,1.31,0,0,1,.66.16.44.44,0,0,1,.21.31.32.32,0,0,1-.16.34l.08.06c0-.15.24-.23.42-.32a2.19,2.19,0,0,1,.58-.19.74.74,0,0,1,.56.14.46.46,0,0,1,.2.46l0,.14.12-.09a1.4,1.4,0,0,1,.81-.25,1.57,1.57,0,0,1,.66.15,1.78,1.78,0,0,1,.48.38s0-.06-.09-.14a1.29,1.29,0,0,0-.36-.3,1.52,1.52,0,0,0-.69-.18,1.42,1.42,0,0,0-.88.25l.09.06a.61.61,0,0,0-.24-.58.88.88,0,0,0-.65-.16,2.06,2.06,0,0,0-.62.21,1.74,1.74,0,0,0-.27.14.45.45,0,0,0-.2.25l0,.12.11,0a.41.41,0,0,0,.21-.46.51.51,0,0,0-.26-.37,1.42,1.42,0,0,0-.71-.15,2.49,2.49,0,0,1-.45,0C164.12,85.62,164.07,85.6,164.07,85.61Z"/><path class="cls-8" d="M170.18,83.82a1.58,1.58,0,0,1,.31.07.7.7,0,0,1,.28.22.64.64,0,0,1,.16.42v.06H171a.4.4,0,0,1,.42.28,1.17,1.17,0,0,1,0,.66l-.05.23.16-.18,0,0a.52.52,0,0,1,.43-.13.53.53,0,0,1,.37.2.88.88,0,0,1,.18.73,1.69,1.69,0,0,1-.17.5,1.11,1.11,0,0,0-.09.18.76.76,0,0,0,.13-.16,1.37,1.37,0,0,0,.22-.51,1,1,0,0,0-.18-.81.66.66,0,0,0-1-.08l0,0,.11.06a1.22,1.22,0,0,0,0-.73.48.48,0,0,0-.54-.34l.06,0a.77.77,0,0,0-.52-.69.62.62,0,0,0-.24,0Z"/><path class="cls-8" d="M175.09,87.9a.62.62,0,0,0,.16,0,1,1,0,0,0,.38-.22,1.05,1.05,0,0,0,.32-.58c0-.12,0-.24.11-.31s.23-.12.33-.25a.6.6,0,0,0-.09-.82v.09a2.05,2.05,0,0,0,.57-.67.71.71,0,0,0,.11-.32s-.06.11-.17.29a2.23,2.23,0,0,1-.57.61l-.06,0,0,0a.49.49,0,0,1,.06.66c-.07.1-.2.14-.31.24a.64.64,0,0,0-.14.39,1,1,0,0,1-.27.53A2,2,0,0,1,175.09,87.9Z"/><path class="cls-8" d="M176.53,89.08l.1,0a1.37,1.37,0,0,0,.29,0,1.55,1.55,0,0,0,.92-.42h-.07a1,1,0,0,0,.67.43,1.14,1.14,0,0,0,.45,0,.67.67,0,0,0,.4-.27.77.77,0,0,0,.07-.17.16.16,0,0,1,.08-.1.67.67,0,0,1,.29-.1.87.87,0,0,0,.31-.1.33.33,0,0,0,.2-.28l-.08.05a1.11,1.11,0,0,0,.73.08,1.24,1.24,0,0,0,.5-.26,1.18,1.18,0,0,0,.23-.29.93.93,0,0,0,0-.13,1.54,1.54,0,0,1-.31.37,1.19,1.19,0,0,1-.48.22,1,1,0,0,1-.66-.09l-.08,0v.09a.23.23,0,0,1-.14.18.66.66,0,0,1-.29.08.78.78,0,0,0-.33.12.42.42,0,0,0-.13.16,1.31,1.31,0,0,1-.05.15.58.58,0,0,1-.33.21,1.09,1.09,0,0,1-.4,0,1,1,0,0,1-.61-.38l0,0,0,0a1.6,1.6,0,0,1-.86.44C176.67,89.08,176.53,89.07,176.53,89.08Z"/><path class="cls-8" d="M185.66,93.57a.1.1,0,0,0,0,0,.35.35,0,0,0,0-.13,1.31,1.31,0,0,0,0-.48,3,3,0,0,0-.27-.7,2.12,2.12,0,0,0-.23-.4.63.63,0,0,0-.19-.17.35.35,0,0,0-.3,0l.07.06a.8.8,0,0,0-.3-.79.83.83,0,0,0-.93,0l.09.06a.56.56,0,0,0-.18-.47.56.56,0,0,0-.51-.11.67.67,0,0,0-.25.16l.11,0a.34.34,0,0,0-.11-.29.51.51,0,0,0-.26-.14,1.12,1.12,0,0,0-.52.09l.07,0a.87.87,0,0,0-.48-.41,1.33,1.33,0,0,0-.59,0,2.89,2.89,0,0,0-.94.38l.06,0a.22.22,0,0,0,0-.21.41.41,0,0,0-.14-.12.6.6,0,0,0-.31-.08,1.88,1.88,0,0,0-.49.11,1.52,1.52,0,0,0-.28.13l-.09.07a4,4,0,0,1,.39-.16,1.82,1.82,0,0,1,.47-.08.53.53,0,0,1,.27.08c.09.05.16.14.11.22l-.08.13.14-.07a3.07,3.07,0,0,1,.91-.34,1.11,1.11,0,0,1,.54,0,.76.76,0,0,1,.42.35l0,0,0,0a1.07,1.07,0,0,1,.46-.08c.15,0,.29.16.27.29l0,.21.14-.16a.45.45,0,0,1,.2-.12.41.41,0,0,1,.53.44V91l.11-.07a.68.68,0,0,1,1.06.69v.1l.09-.05c.13-.06.28.06.37.17a3.85,3.85,0,0,1,.23.38,2.8,2.8,0,0,1,.28.68A1.72,1.72,0,0,1,185.66,93.57Z"/><path class="cls-8" d="M184.69,97l.06-.07a1.43,1.43,0,0,0,.16-.23.81.81,0,0,0,.14-.43A.58.58,0,0,0,185,96a.47.47,0,0,0-.24-.22l0,.06a.58.58,0,0,0,.07-.59.57.57,0,0,0-.6-.31l.05.09a.47.47,0,0,0,0-.54.66.66,0,0,0-.49-.28,2.13,2.13,0,0,1-.27,0,.24.24,0,0,1-.15-.16,1.11,1.11,0,0,0-.13-.27.54.54,0,0,0-.27-.18,2.41,2.41,0,0,0-.64-.07.69.69,0,0,1-.5-.2,1.67,1.67,0,0,1-.15-.24.56.56,0,0,0-.22-.21.64.64,0,0,0-.57,0l.07.08a.48.48,0,0,0,0-.56.66.66,0,0,0-.43-.26,2,2,0,0,0-.79,0,2,2,0,0,0-.48.15c-.11,0-.16.07-.16.08a4,4,0,0,1,.65-.17,2.13,2.13,0,0,1,.76,0,.61.61,0,0,1,.37.23.38.38,0,0,1,0,.44l-.15.18.21-.1a.53.53,0,0,1,.46,0,.52.52,0,0,1,.19.17,1.43,1.43,0,0,0,.15.26.64.64,0,0,0,.27.18,1.7,1.7,0,0,0,.31.06,3,3,0,0,1,.61.06.46.46,0,0,1,.21.14.73.73,0,0,1,.12.25.34.34,0,0,0,.23.22c.11,0,.2,0,.28,0a.54.54,0,0,1,.41.22.34.34,0,0,1,0,.4l-.1.12.15,0a.47.47,0,0,1,.44.75l0,0,.06,0a.44.44,0,0,1,.27.42.71.71,0,0,1-.11.41C184.76,96.9,184.68,97,184.69,97Z"/><path class="cls-8" d="M185.06,103.51a.39.39,0,0,0,.12,0,.87.87,0,0,0,.29-.19.85.85,0,0,0,.25-.49.93.93,0,0,0-.19-.69v.07a1.79,1.79,0,0,0,.36-.57.74.74,0,0,0,0-.39.58.58,0,0,0-.26-.32V101a.76.76,0,0,0,.26-1,.63.63,0,0,0-.29-.27.24.24,0,0,1-.15-.24.9.9,0,0,0-.05-.36,1.22,1.22,0,0,0-.4-.51l-.42-.36a2.07,2.07,0,0,0-.71-.41,1.23,1.23,0,0,0-.21,0h-.08a2.61,2.61,0,0,1,.28.08,2.07,2.07,0,0,1,.66.42l.41.37a1.24,1.24,0,0,1,.37.48,1.08,1.08,0,0,1,0,.32.3.3,0,0,0,.05.2.39.39,0,0,0,.15.14.57.57,0,0,1,.32.56.58.58,0,0,1-.28.5l-.11.06.11.05a.47.47,0,0,1,.19.57,1.44,1.44,0,0,1-.33.53l0,0,0,0a.8.8,0,0,1,0,1.07A1.55,1.55,0,0,1,185.06,103.51Z"/><path class="cls-8" d="M175,93a1.11,1.11,0,0,0,.37-.11,1,1,0,0,0,.34-.25.69.69,0,0,0,.17-.51s0-.09,0-.13l0,.08a.56.56,0,0,0,.32-.37.53.53,0,0,0,0-.4c-.11-.2-.27-.23-.27-.22a.75.75,0,0,1,.2.26.49.49,0,0,1-.26.62l-.05,0,0,.06,0,.09a.65.65,0,0,1-.13.43,1.09,1.09,0,0,1-.3.24A1.81,1.81,0,0,0,175,93Z"/><path class="cls-8" d="M172.35,91.42a.74.74,0,0,1,0-.44.52.52,0,0,1,.32-.36.55.55,0,0,1,.56.14l.07.08,0-.1a.91.91,0,0,1,.17-.34.45.45,0,0,1,.31-.19c.2,0,.4.19.33.34l.11,0a.89.89,0,0,1,.91-.72,1.24,1.24,0,0,1,.49.14s0,0-.11-.09a.77.77,0,0,0-.38-.12.92.92,0,0,0-.59.14,1,1,0,0,0-.43.63l.11,0a.33.33,0,0,0-.09-.35.47.47,0,0,0-.35-.15.56.56,0,0,0-.41.24,1,1,0,0,0-.18.38l.1,0a.64.64,0,0,0-.69-.16.55.55,0,0,0-.34.43.65.65,0,0,0,0,.36A.35.35,0,0,0,172.35,91.42Z"/><polygon class="cls-9" points="148.52 228.32 147 235.82 141.98 236.29 139.87 233.8 141.81 224.84 148.52 228.32"/><path class="cls-5" d="M138.87,233v.58s-9.6,3.71-9.76,5.59l18.85.47-.11-6.58A10.37,10.37,0,0,1,138.87,233Z"/><g class="cls-11"><path class="cls-7" d="M145.89,235.09a.81.81,0,0,1,.51.93.75.75,0,0,1-.88.54.86.86,0,0,1-.54-1c.14-.37.65-.65,1-.46"/></g><path class="cls-4" d="M148,239.61l0-1.58-18,.13a1.72,1.72,0,0,0-.92,1.55Z"/><path class="cls-4" d="M138.79,233.61c0,.09.46.15.9.47s.68.73.77.7,0-.6-.59-1S138.77,233.52,138.79,233.61Z"/><path class="cls-4" d="M136.79,234.41c0,.1.37.27.68.69s.38.85.47.84.17-.54-.22-1.05S136.8,234.32,136.79,234.41Z"/><path class="cls-4" d="M135.61,236.86c.09,0,.23-.45,0-1s-.65-.76-.69-.68.22.37.4.81S135.52,236.85,135.61,236.86Z"/><path class="cls-9" d="M177.68,226.55c.07.25,0,9.6,0,9.6l-2.82,1.75-3.67-2.31-.78-9Z"/><path class="cls-5" d="M170.93,234.78s5,3.72,7.42.5l.64,1.56L181.83,248a1.49,1.49,0,0,1-.8,1.78,1.32,1.32,0,0,1-1.45-.29c-2.06-2-9.6-9.64-9.53-10.67l0-2.73a1.38,1.38,0,0,1,.85-1.27Z"/><path class="cls-4" d="M180.79,249.82l-10.74-12v.6a1.61,1.61,0,0,0,.51,1.32,117,117,0,0,0,9,10.09c.33.34,1,0,1.21,0Z"/><g class="cls-11"><path class="cls-7" d="M171.62,236.06a.91.91,0,0,1,.24,1.14.79.79,0,0,1-1.08.25,1,1,0,0,1-.24-1.21.8.8,0,0,1,1.15-.13"/></g><path class="cls-4" d="M177.69,243.68c.08,0,.38-.7,1.18-1.1a4,4,0,0,1,1.54-.32s-.16-.14-.47-.19a2.21,2.21,0,0,0-1.21.23,2.29,2.29,0,0,0-.9.87C177.68,243.46,177.66,243.67,177.69,243.68Z"/><path class="cls-4" d="M178.66,245.56c.06.06.49-.4,1.18-.61a8.69,8.69,0,0,1,1.32-.18,1.46,1.46,0,0,0-1.4-.12C179,244.9,178.59,245.52,178.66,245.56Z"/><path class="cls-4" d="M175.9,241.27a14.22,14.22,0,0,1,1.77-1.07,13.68,13.68,0,0,1,2-.5,3,3,0,0,0-2.11.21A3.12,3.12,0,0,0,175.9,241.27Z"/><path class="cls-4" d="M175.66,237.89c0,.08.78-.25,1.75-.29s1.73.2,1.76.11a2.64,2.64,0,0,0-1.78-.42A2.58,2.58,0,0,0,175.66,237.89Z"/><path class="cls-4" d="M178,237.57a1.52,1.52,0,0,0-.08-.53,3.81,3.81,0,0,0-.64-1.29,1.59,1.59,0,0,0-.8-.64.54.54,0,0,0-.59.25,1,1,0,0,0-.1.66,2,2,0,0,0,2,1.53,2.28,2.28,0,0,0,2-1.64.86.86,0,0,0-.08-.68A.52.52,0,0,0,179,235a2,2,0,0,0-.79.65,4.48,4.48,0,0,0-.71,1.25,1.19,1.19,0,0,0-.11.52,6.31,6.31,0,0,1,1-1.63,1.77,1.77,0,0,1,.7-.54.28.28,0,0,1,.33.1.61.61,0,0,1,0,.45,2,2,0,0,1-1.72,1.4A1.7,1.7,0,0,1,176,236a.73.73,0,0,1,0-.47.3.3,0,0,1,.32-.14,1.48,1.48,0,0,1,.69.53A5.77,5.77,0,0,1,178,237.57Z"/><path class="cls-4" d="M183,149.34a47.12,47.12,0,0,1,3.51,9.46c1.55,5.85,3.29,8.78,2.65,19.55-.32,5.5-4.86,20.42-5.91,25.67-.86,4.32-3.56,24.63-4.93,30h-7.82l-.8-60.1S157.23,209,155.64,213s-7.12,20.12-7.12,20.12l-9.73-2.59s5.94-28.76,7.42-35.91,5.51-27.36,7.21-33.44,3.33-12.5,3.33-12.5Z"/><path class="cls-8" d="M182,160s0,.11.08.3a4.61,4.61,0,0,0,.35.76,6.35,6.35,0,0,0,1.81,2,6.15,6.15,0,0,0,2.45,1.07,4.72,4.72,0,0,0,.8.08c.19,0,.3,0,.3,0s-.42-.05-1.07-.21a6.72,6.72,0,0,1-2.35-1.09,7.25,7.25,0,0,1-1.81-1.93C182.21,160.37,182.05,160,182,160Z"/><path class="cls-8" d="M152.63,164.35s.1.05.28.09a5.11,5.11,0,0,0,2,0,5.33,5.33,0,0,0,1.39-.53,6.84,6.84,0,0,0,2-1.79,3.74,3.74,0,0,0,.61-1s-.27.34-.72.86a7.67,7.67,0,0,1-2,1.7,5.6,5.6,0,0,1-2.49.69C153.05,164.38,152.63,164.31,152.63,164.35Z"/><path class="cls-8" d="M169.55,161a1.66,1.66,0,0,0-.09.48c0,.32-.09.77-.13,1.34-.1,1.12-.17,2.69-.16,4.42s.12,3.29.23,4.41c.06.57.11,1,.16,1.33a2.25,2.25,0,0,0,.09.49,1.92,1.92,0,0,0,0-.5c0-.36,0-.8-.09-1.33-.07-1.13-.15-2.68-.16-4.41s0-3.28.09-4.4c0-.53.05-1,.07-1.34A3.11,3.11,0,0,0,169.55,161Z"/><path class="cls-8" d="M180,114.62l7.09,3.38-1,12.93s-.84,1-2.2,7.9,3.19,20.41,3.19,20.41l-33.36.83s3.91-27.95,4.37-31.65l1.66-14.14,6.71-.36h1.93l1.67,12,8.39-11.69Z"/><path class="cls-4" d="M149.19,139.69a2.14,2.14,0,0,0,.1-.76,5.42,5.42,0,0,0-.31-1.83,5.11,5.11,0,0,0-.9-1.6c-.3-.36-.53-.53-.55-.51a8.8,8.8,0,0,1,1.25,2.19A9.51,9.51,0,0,1,149.19,139.69Z"/><path class="cls-8" d="M135.65,136.48l11.88-.1L152,123.11h0s.54-1.35,2.35-4.68c2.38-4.38,5.41-4.15,5.41-4.15l3.64,5.67-3.87,8.69s-3.7,16.39-8,17.11c-7.13,1.19-19.89-3.74-19.89-3.74Z"/><g class="cls-12"><path d="M156.5,140.55c0-.45-.12-1,.27-1.23a1.33,1.33,0,0,1,1,.08c9.84,3.49,15.54-.56,25.38,2.93l2,10.11c-4.37,0-6.37-1-10.66-2.36s-8.77-2.81-13.06-4.47a11.86,11.86,0,0,1-3.38-1.77A4.3,4.3,0,0,1,156.5,140.55Z"/></g><path class="cls-4" d="M158.89,123.83a3.92,3.92,0,0,1-.23.67,10.82,10.82,0,0,0-.41,1.64c-.23,1.31-.28,2.39-.35,2.39a7,7,0,0,1,.12-2.43,7,7,0,0,1,.48-1.66C158.69,124,158.87,123.81,158.89,123.83Z"/><path class="cls-5" d="M219.45,136.86H222a3,3,0,0,1,3,3v0a3,3,0,0,1-3,3h-2.56a0,0,0,0,1,0,0v-6A0,0,0,0,1,219.45,136.86Z" transform="translate(3.67 -5.67) rotate(1.47)"/><path class="cls-5" d="M100.33,134.22l24.33-2.45,91.39,2.35a1.61,1.61,0,0,1,1.57,1.65l-.22,8.58a1.61,1.61,0,0,1-1.65,1.57L124,143.56l-23.78-4.88Z"/><path class="cls-4" d="M100.29,135.48l-2.23-.06-1.9.64c-.16.12-.12.27,0,.43l1.91.62,2.19.06Z"/><rect class="cls-4" x="124.5" y="131.79" width="1.9" height="11.8" transform="translate(3.58 -3.18) rotate(1.47)"/><path class="cls-5" d="M217.93,134.64h0a2.1,2.1,0,0,1-2.15,2.05l-45.62-1.18a2.1,2.1,0,0,1-2-2.15h0a2.11,2.11,0,0,1,2.16-2.05l45.62,1.18A2.09,2.09,0,0,1,217.93,134.64Z"/><path class="cls-4" d="M217.93,134.64a2.32,2.32,0,0,0-.25-1,2.18,2.18,0,0,0-.9-.88,2,2,0,0,0-.77-.21c-.28,0-.6,0-.93,0l-11.19-.25-16.6-.4-9.8-.25-5.18-.13-1.32,0a4.65,4.65,0,0,0-1.3.05,2,2,0,0,0-1.46,1.86,2,2,0,0,0,1.36,1.94,5.39,5.39,0,0,0,1.29.12l1.32,0,5.19.13,9.8.26,16.6.46,11.19.32c.33,0,.64,0,.93,0a1.94,1.94,0,0,0,.78-.17,2.08,2.08,0,0,0,.93-.83,2.31,2.31,0,0,0,.31-1,1.37,1.37,0,0,1,0,.27,2,2,0,0,1-.25.75,2.2,2.2,0,0,1-.95.87,2.3,2.3,0,0,1-.81.2l-.94,0-11.19-.25-16.6-.4-9.8-.24-5.19-.14-1.32,0-.66,0a2.31,2.31,0,0,1-.69-.11,2.22,2.22,0,0,1,.11-4.25,2.38,2.38,0,0,1,.7-.07H171l1.32,0,5.19.13,9.8.26,16.59.45,11.19.33c.33,0,.64,0,.94,0a2,2,0,0,1,.8.23,2.13,2.13,0,0,1,.9.92,1.86,1.86,0,0,1,.21.76A.92.92,0,0,1,217.93,134.64Z"/><polygon class="cls-4" points="217.64 135.19 219.98 136.38 219.8 143.16 217.4 144.51 217.64 135.19"/><path class="cls-8" d="M190,140l-5.17-8h0l-.47-.71h0l-.69-1.07,3-12.39a11.52,11.52,0,0,1,4,3.18,47.09,47.09,0,0,1,3.17,5.66S199,138.22,199.8,140s2.18,4.93,0,6.73-16.75,1.85-16.75,1.85l-1-7.32Z"/><path class="cls-4" d="M183.62,128.88s-.07-.54-.12-1.42a11.34,11.34,0,0,1,.33-3.38,11.47,11.47,0,0,1,1.33-3.13c.46-.75.82-1.16.79-1.19a1.52,1.52,0,0,0-.28.27,7.73,7.73,0,0,0-.64.83,10.52,10.52,0,0,0-1.41,3.16,10.37,10.37,0,0,0-.27,3.45,7,7,0,0,0,.16,1A1.89,1.89,0,0,0,183.62,128.88Z"/><path class="cls-9" d="M180.39,142.56a5.08,5.08,0,0,0-1.31-1.73c-1-.83-3.05-1.47-3.32-2.27s-1.07-.18-.88.81a10.2,10.2,0,0,0,1.41,2.28,3.93,3.93,0,0,1-2.53-.2c-1-.58-4.57-1.63-4.95-1.14s.5.75.9,1,2.67,1.34,2.67,1.34a41.74,41.74,0,0,0-5.29.07c-.64.24,0,.81.31.82a7.52,7.52,0,0,1,1.56,1.25,2.12,2.12,0,0,0,1.42.58h1.1l-3.32.35s-.57.52.23.8c.35.12,9.54,1,10.32.92,1.77-.05,4.23-.18,4.23-.18l-.43-5Z"/><path class="cls-10" d="M167.32,143.58a10.08,10.08,0,0,0,4.56.81c0-.06-1-.12-2.29-.35S167.34,143.52,167.32,143.58Z"/><g class="cls-6"><path d="M132.65,137.81a3.3,3.3,0,0,1,2.52.93,10.81,10.81,0,0,1,1.34,1.09c1.14,1.14,1.74,2.71,2.71,4L133.8,143Z"/></g><path class="cls-9" d="M140.94,144.06l-2.37-.49s-2.12-3.39-3.24-3.8l-.63-.28s-.82-1.8-1.94-1.57c-.66-.43-1.25-.26-1.32.4,0,0-.33-1.51-1.56-.89s1.71,5.84,1.71,5.84,1,2.67,2.31,1.78a3.47,3.47,0,0,0,2.13-.18s.79,1.11,2.67.26Z"/><path class="cls-10" d="M135.8,144.25s0,.08,0,.25a1.16,1.16,0,0,0,.33.61,1.53,1.53,0,0,0,.93.43,3.3,3.3,0,0,0,1.23-.13,7.81,7.81,0,0,0,2-.89A3,3,0,0,0,141,144a14.59,14.59,0,0,1-2.82,1.24,3.15,3.15,0,0,1-1.15.14,1.44,1.44,0,0,1-.84-.35A1.3,1.3,0,0,1,135.8,144.25Z"/><path class="cls-10" d="M133.53,143.05c.06,0-.65-1.06-1.26-2.46s-.89-2.61-1-2.59a3,3,0,0,0,.13.81,10.79,10.79,0,0,0,.63,1.87,11.87,11.87,0,0,0,1,1.73A2.75,2.75,0,0,0,133.53,143.05Z"/><path class="cls-10" d="M134.89,142.93c.05,0-.54-1.09-1.13-2.48s-.93-2.55-1-2.53a10.1,10.1,0,0,0,.8,2.62A9.3,9.3,0,0,0,134.89,142.93Z"/><path class="cls-10" d="M133.07,144.14c-.06,0,0,.43.38.76a.86.86,0,0,0,.81.24c0-.07-.35-.13-.67-.41S133.13,144.12,133.07,144.14Z"/><path class="cls-10" d="M136.36,142.19a8,8,0,0,0-.76-1.32,10.44,10.44,0,0,0-.82-1.29,3.84,3.84,0,0,0,.63,1.4A4.27,4.27,0,0,0,136.36,142.19Z"/></svg>