<svg id="Layer_1" data-name="Layer 1" xmlns="http://www.w3.org/2000/svg" viewBox="0 0 250 250"><defs><style>.cls-1{fill:#070908;}.cls-2{fill:#fff;}.cls-3{fill:#d15754;}.cls-4{fill:#f3d3cf;}.cls-5{fill:#fdebe7;}.cls-6{fill:#e7bcb9;}.cls-7{fill:#6c78b8;}.cls-8{fill:#f1ac34;}</style></defs><rect class="cls-1" x="227.97" y="222.76" width="9.89" height="27.24"/><rect class="cls-2" x="214.93" y="205.79" width="143.25" height="21.87"/><polygon class="cls-3" points="235.45 227.66 225.14 227.66 214.93 205.79 225.23 205.79 235.45 227.66"/><polygon class="cls-3" points="255.96 227.66 245.66 227.66 235.45 205.79 245.75 205.79 255.96 227.66"/><rect class="cls-1" x="232.91" y="242.18" width="105.29" height="0.39"/><rect class="cls-1" x="232.91" y="239.83" width="105.29" height="0.39"/><rect class="cls-4" x="2.44" y="34.05" width="63.4" height="157.61"/><rect class="cls-4" x="11.44" y="26.25" width="45.42" height="7.8"/><rect class="cls-5" x="8.79" y="40.06" width="5.03" height="7.25"/><rect class="cls-5" x="17.93" y="40.06" width="5.03" height="7.25"/><rect class="cls-5" x="27.06" y="40.06" width="5.03" height="7.25"/><rect class="cls-5" x="36.2" y="40.06" width="5.03" height="7.25"/><rect class="cls-5" x="45.34" y="40.06" width="5.03" height="7.25"/><rect class="cls-5" x="54.47" y="40.06" width="5.03" height="7.25"/><rect class="cls-5" x="8.79" y="53.54" width="5.03" height="7.25"/><rect class="cls-5" x="17.93" y="53.54" width="5.03" height="7.25"/><rect class="cls-5" x="27.06" y="53.54" width="5.03" height="7.25"/><rect class="cls-5" x="36.2" y="53.54" width="5.03" height="7.25"/><rect class="cls-5" x="45.34" y="53.54" width="5.03" height="7.25"/><rect class="cls-5" x="54.47" y="53.54" width="5.03" height="7.25"/><rect class="cls-5" x="8.79" y="75.88" width="5.03" height="7.25"/><rect class="cls-5" x="17.93" y="75.88" width="5.03" height="7.25"/><rect class="cls-5" x="27.06" y="75.88" width="5.03" height="7.25"/><rect class="cls-5" x="36.2" y="75.88" width="5.03" height="7.25"/><rect class="cls-5" x="45.34" y="75.88" width="5.03" height="7.25"/><rect class="cls-5" x="54.47" y="75.88" width="5.03" height="7.25"/><rect class="cls-5" x="8.79" y="89.36" width="5.03" height="7.25"/><rect class="cls-5" x="17.93" y="89.36" width="5.03" height="7.25"/><rect class="cls-5" x="27.06" y="89.36" width="5.03" height="7.25"/><rect class="cls-5" x="36.2" y="89.36" width="5.03" height="7.25"/><rect class="cls-5" x="45.34" y="89.36" width="5.03" height="7.25"/><rect class="cls-5" x="54.47" y="89.36" width="5.03" height="7.25"/><rect class="cls-5" x="8.79" y="111.7" width="5.03" height="7.25"/><rect class="cls-5" x="17.93" y="111.7" width="5.03" height="7.25"/><rect class="cls-5" x="27.06" y="111.7" width="5.03" height="7.25"/><rect class="cls-5" x="36.2" y="111.7" width="5.03" height="7.25"/><rect class="cls-5" x="45.34" y="111.7" width="5.03" height="7.25"/><rect class="cls-5" x="54.47" y="111.7" width="5.03" height="7.25"/><rect class="cls-5" x="8.79" y="125.18" width="5.03" height="7.25"/><rect class="cls-5" x="17.93" y="125.18" width="5.03" height="7.25"/><rect class="cls-5" x="27.06" y="125.18" width="5.03" height="7.25"/><rect class="cls-5" x="36.2" y="125.18" width="5.03" height="7.25"/><rect class="cls-5" x="45.34" y="125.18" width="5.03" height="7.25"/><rect class="cls-5" x="54.47" y="125.18" width="5.03" height="7.25"/><rect class="cls-5" x="8.79" y="147.52" width="5.03" height="7.25"/><rect class="cls-5" x="17.93" y="147.52" width="5.03" height="7.25"/><rect class="cls-5" x="27.06" y="147.52" width="5.03" height="7.25"/><rect class="cls-5" x="36.2" y="147.52" width="5.03" height="7.25"/><rect class="cls-5" x="45.34" y="147.52" width="5.03" height="7.25"/><rect class="cls-5" x="54.47" y="147.52" width="5.03" height="7.25"/><rect class="cls-5" x="8.79" y="161" width="5.03" height="7.25"/><rect class="cls-5" x="17.93" y="161" width="5.03" height="7.25"/><rect class="cls-5" x="27.06" y="161" width="5.03" height="7.25"/><rect class="cls-5" x="36.2" y="161" width="5.03" height="7.25"/><rect class="cls-5" x="45.34" y="161" width="5.03" height="7.25"/><rect class="cls-5" x="54.47" y="161" width="5.03" height="7.25"/><rect class="cls-6" x="11.44" y="33.86" width="45.42" height="0.39"/><rect class="cls-4" x="104.15" y="53.18" width="63.69" height="117.48"/><rect class="cls-4" x="113.19" y="47.37" width="45.63" height="5.82"/><rect class="cls-6" x="113.19" y="52.99" width="45.63" height="0.39"/><rect class="cls-5" x="110.31" y="58.75" width="51.38" height="3.52"/><rect class="cls-5" x="110.31" y="66.99" width="51.38" height="3.52"/><rect class="cls-5" x="110.31" y="75.23" width="51.38" height="3.52"/><rect class="cls-5" x="110.31" y="83.47" width="51.38" height="3.52"/><rect class="cls-5" x="110.31" y="91.71" width="51.38" height="3.52"/><rect class="cls-5" x="110.31" y="99.95" width="51.38" height="3.52"/><rect class="cls-5" x="110.31" y="108.19" width="51.38" height="3.52"/><rect class="cls-5" x="110.31" y="116.43" width="51.38" height="3.52"/><path class="cls-7" d="M233.23,71.15v40.67H266V71.15Zm9.37,29.05h-4.44V82.76h4.44Zm13,0h-12V82.76h12Zm5.48,0h-4.45V82.76h4.45Z"/><path class="cls-7" d="M233.23,112v40.68H266V112ZM242.6,141h-4.44V123.57h4.44Zm13,0h-12V123.57h12Zm5.48,0h-4.45V123.57h4.45Z"/><path class="cls-7" d="M200.44,112v40.68h32.79V112ZM209.81,141h-4.44V123.57h4.44Zm13,0h-12V123.57h12Zm5.47,0h-4.44V123.57h4.44Z"/><path class="cls-7" d="M233.23,152.5v40.67H266V152.5Zm9.37,29.05h-4.44V164.12h4.44Zm13,0h-12V164.12h12Zm5.48,0h-4.45V164.12h4.45Z"/><path class="cls-7" d="M200.44,152.5v40.67h32.79V152.5Zm9.37,29.05h-4.44V164.12h4.44Zm13,0h-12V164.12h12Zm5.47,0h-4.44V164.12h4.44Z"/><polygon class="cls-1" points="233.43 193.17 233.04 193.17 233.04 111.63 298.82 111.63 298.82 112.02 233.43 112.02 233.43 193.17"/><rect class="cls-1" x="200.44" y="152.3" width="98.38" height="0.39"/><rect class="cls-1" x="236.81" y="100.01" width="25.85" height="0.39"/><rect class="cls-1" x="236.81" y="140.82" width="25.85" height="0.39"/><rect class="cls-1" x="204.23" y="140.82" width="25.85" height="0.39"/><rect class="cls-1" x="236.81" y="181.36" width="25.85" height="0.39"/><rect class="cls-1" x="204.23" y="181.36" width="25.85" height="0.39"/><rect class="cls-1" x="27.06" y="167.24" width="3.34" height="25.22"/><rect class="cls-1" x="22.65" y="191.66" width="12.16" height="1.6"/><rect class="cls-2" x="-13.63" y="160.18" width="48.45" height="9.1"/><polygon class="cls-3" points="14.12 169.28 10.64 169.28 7.18 160.18 10.67 160.18 14.12 169.28"/><polygon class="cls-3" points="20.94 169.28 17.45 169.28 14 160.18 17.48 160.18 20.94 169.28"/><polygon class="cls-3" points="34.82 169.28 31.33 169.28 27.88 160.18 31.36 160.18 34.82 169.28"/><polygon class="cls-3" points="27.88 169.28 24.39 169.28 20.94 160.18 24.42 160.18 27.88 169.28"/><polygon class="cls-3" points="7.18 169.28 3.7 169.28 0.24 160.18 3.73 160.18 7.18 169.28"/><polygon class="cls-3" points="0.24 169.28 -3.24 169.28 -6.7 160.18 -3.21 160.18 0.24 169.28"/><rect class="cls-1" x="-7.55" y="179.66" width="35.61" height="0.39"/><rect class="cls-1" x="-7.55" y="177.99" width="35.61" height="0.39"/><rect class="cls-1" x="183.15" y="34.97" width="123.75" height="0.39"/><path class="cls-1" d="M174.42,65.15v1.54a2.61,2.61,0,0,1-1,1.2c-3.92,2.52-2.94,7.91,1.53,7.91,2.84,0,4.51-1.7,4.31-5.14.41-.37.15-1.53-.73-1.09S177.57,73,175.42,73A1.71,1.71,0,0,1,174,70.28c.57-.94,2.28-1.5,2.42-3.59V65.15Z"/><rect class="cls-8" x="173.74" y="61.78" width="3.27" height="3.86" rx="0.84"/><rect class="cls-1" x="167.5" y="32.58" width="15.65" height="5.17"/><path class="cls-8" d="M186.46,20.18H172.68v0l-7.87,10.67h0L163.22,33l18.86,0H354.17V20.18Zm-4.38,2.18h5.78l-5.72,7.77-5.73-7.77Zm-8.33.06L180,30.87H167.5Zm12.71,8.45h-2.18l5.87-8,5.88,8Zm6-8.45H204.2l-5.88,8Zm8.17,8.45,5.88-8,5.87,8Zm8.17-8.51h11.75l-5.87,8ZM217,30.87l5.88-8,5.88,8Zm8.17-8.45h11.76l-5.88,8Zm8.18,8.45,5.87-8,5.88,8Zm8.17-8.51h11.75l-5.88,8Zm8.17,8.51,5.88-8,5.87,8Zm8.17-8.45h11.52v-.06h.28l-.28.38h0l-5.64,7.68ZM266,30.87l5.88-8,5.88,8Zm8.17-8.45H286l-5.88,8Zm8.18,8.45,5.87-8,5.88,8Zm8.17-8.51h11.75l-5.88,8Zm8.17,8.51,5.88-8,5.87,8Zm8.17-8.45h11.75l-5.87,8Zm8.17,8.45,5.88-8,5.88,8Zm8.17-8.51H335l-5.88,8Zm8.18,8.51,5.87-8,5.88,8Zm8.17-8.45h11.75l-5.88,8Zm14,8.45h-5.85l5.85-8Z"/><rect class="cls-1" x="171.28" y="36.44" width="0.39" height="20.35"/><rect class="cls-1" x="178.97" y="36.44" width="0.39" height="20.35"/><path class="cls-1" d="M180.7,54.16a5.33,5.33,0,1,0-10.65,0,5.57,5.57,0,0,0,.26,1.64h0l2.14,6a1.79,1.79,0,0,0,1.69,1.2h2.52a1.73,1.73,0,0,0,1.63-1.15l2.18-6h0A5.37,5.37,0,0,0,180.7,54.16Z"/><circle class="cls-8" cx="175.38" cy="54.45" r="2.96"/><path class="cls-1" d="M175.38,56.14a1.69,1.69,0,1,1,1.69-1.69A1.7,1.7,0,0,1,175.38,56.14Zm0-3a1.3,1.3,0,1,0,1.3,1.3A1.31,1.31,0,0,0,175.38,53.15Z"/><rect class="cls-7" x="147.14" y="86.37" width="56.04" height="6.11"/><polygon class="cls-1" points="201.54 86.54 175.35 73.46 149.4 86.54 149.23 86.19 175.35 73.03 201.71 86.19 201.54 86.54"/><rect class="cls-1" x="147.14" y="86.17" width="56.04" height="0.39"/><rect class="cls-1" x="173.75" y="22.23" width="125.71" height="0.39"/><rect class="cls-1" x="167.5" y="30.68" width="124.54" height="0.39"/><rect class="cls-1" x="-19.35" y="193" width="389.25" height="0.39"/><path class="cls-2" d="M202.49,72.32a2.22,2.22,0,0,1,3.37-1,4,4,0,0,1,4-4,4,4,0,0,1,2.79,1.15,5.25,5.25,0,0,1,10.22,1,3,3,0,0,1,1.27-.28,3.06,3.06,0,0,1,3.06,3.07H202.49Z"/><path class="cls-2" d="M102.46,28.55A4.31,4.31,0,0,1,109,26.64a7.75,7.75,0,0,1,13.18-5.46A10.18,10.18,0,0,1,142,23.13a5.83,5.83,0,0,1,2.47-.54,6,6,0,0,1,5.95,5.94v0Z"/><path class="cls-2" d="M42.75,16.84a4,4,0,0,0-7.24-2.07A5.69,5.69,0,0,0,26,11.34,8.81,8.81,0,0,0,9.36,8.58a7,7,0,0,0-11,5.23,4.07,4.07,0,0,0-2.19-.64,4,4,0,0,0-4,3.67Z"/><path class="cls-2" d="M277.29,8.4a3.58,3.58,0,0,0-2.84,1.41,5,5,0,0,0-8.36-3,7.76,7.76,0,0,0-14.67-2.43A6.14,6.14,0,0,0,241.76,9a3.49,3.49,0,0,0-1.92-.57,3.55,3.55,0,0,0-3.54,3.23h44.53A3.56,3.56,0,0,0,277.29,8.4Z"/><path class="cls-2" d="M228.55,7.6a4.17,4.17,0,0,0-4,2.92,2.87,2.87,0,0,0-3.9,1.11h12A4.16,4.16,0,0,0,228.55,7.6Z"/><path class="cls-7" d="M56.31,118.08a19.71,19.71,0,0,0-14.62-2.64c-5.5,1.22-10.11,4.89-13.35,10.61C7.45,159.07-.4,185.93-.4,185.93c-4.2,10.46-2.06,18.33,0,21.68A15.58,15.58,0,0,0,13.72,215a17.11,17.11,0,0,0,2-.23c6.08-1.07,11.38-5.51,14.45-12.22l33.46-56,.05-.1C70,134,64.31,123,56.31,118.08Z"/><path class="cls-7" d="M103.06,118.08a19.71,19.71,0,0,1,14.62-2.64c5.5,1.22,10.12,4.89,13.35,10.61,20.9,33,28.75,59.88,28.75,59.88a24,24,0,0,0,13.89,13.46s-17.6,12.69-20.17,14a15.91,15.91,0,0,1-7.84,1.61,17,17,0,0,1-2-.23c-6.08-1.07-11.38-5.51-14.44-12.22l-33.47-56,0-.1C89.34,134,95.07,123,103.06,118.08Z"/><path class="cls-3" d="M92.62,120.92c0,10.85-19.7,9.36-26.54-1.78V83.79H92.62Z"/><path class="cls-1" d="M65.94,86.51c-6-11.83-7.68-41.13,4.57-41.63l36.75,1.46s4.9,2-.09,23.7Z"/><path class="cls-3" d="M66.08,86.57a42.41,42.41,0,0,0,5.55,9,21.3,21.3,0,0,0,16.55,8.56c5.11.24,9.89-1,13.37-5,6.94-8,6.24-18.35,6.3-28.32q0-9.81-.14-19.63l-29.19-6.9-7,4L67.43,56l-1.27,8.28Z"/><path class="cls-1" d="M67.92,74.23c4.48-1,5.36-12.43,6-21.09,0,0,17.71,6.38,33.51.13,4.61.08-8.49-23.58-42.5-5.29L64.6,69.71Z"/><path class="cls-3" d="M68.56,71.32l-.14-.21a6.19,6.19,0,0,0-1.94-1.94,4.8,4.8,0,0,0-5.13.38C55,74.22,61,88,67.93,86.48c2.77-1.14,3.47-4,3.22-6.84A19.53,19.53,0,0,0,68.56,71.32Z"/><path class="cls-1" d="M65.24,81.17a5.67,5.67,0,0,1-2.47-6.81,2.3,2.3,0,0,1,2.71-1.71l-.09.38a2,2,0,0,0-2.25,1.47,5.36,5.36,0,0,0,2.28,6.33Z"/><path class="cls-1" d="M77.63,101a22.34,22.34,0,0,0,15,2.92v4.59C82,107.91,77.63,101,77.63,101Z"/><path class="cls-1" d="M81.49,74.83l-.15-.36c3.11-1.26,5.35-1.25,6.66,0l-.27.28C86.54,73.62,84.44,73.63,81.49,74.83Z"/><path class="cls-1" d="M86.58,75a1.39,1.39,0,1,1-1.38-1.42A1.4,1.4,0,0,1,86.58,75Z"/><path class="cls-1" d="M105.52,75.12a1.37,1.37,0,1,1-2.73,0,1.37,1.37,0,1,1,2.73,0Z"/><path class="cls-1" d="M80.85,68.91A7.5,7.5,0,0,1,82.62,68a6.42,6.42,0,0,1,2-.41A4.82,4.82,0,0,1,88.41,69a.19.19,0,0,1,0,.27.2.2,0,0,1-.2,0,12.72,12.72,0,0,0-1.77-.54,8,8,0,0,0-1.77-.16,11.06,11.06,0,0,0-1.8.22c-.61.12-1.22.29-1.85.45a.18.18,0,0,1-.23-.14A.2.2,0,0,1,80.85,68.91Z"/><path class="cls-1" d="M99.81,68.91a7.7,7.7,0,0,1,1.77-.94,6.42,6.42,0,0,1,2-.41A4.81,4.81,0,0,1,107.37,69a.18.18,0,0,1,0,.27.2.2,0,0,1-.2,0,12.32,12.32,0,0,0-1.77-.54,8,8,0,0,0-1.77-.16,11.34,11.34,0,0,0-1.8.22c-.61.12-1.22.29-1.85.45a.18.18,0,0,1-.23-.14A.2.2,0,0,1,99.81,68.91Z"/><path class="cls-1" d="M93.06,90.42a6.28,6.28,0,0,1-2.34-.48l.15-.37a5.1,5.1,0,0,0,4.19,0l.16.36A5.25,5.25,0,0,1,93.06,90.42Z"/><path class="cls-1" d="M94.08,87.55c-3.36,0-6.54-.38-7.7-2.49l.35-.19c1.38,2.53,6.34,2.36,10.32,2.23l.45,0v.39l-.44,0C96.09,87.52,95.07,87.55,94.08,87.55Z"/><path class="cls-2" d="M88.76,78.25H80.14A3.12,3.12,0,0,1,77,75.13V72.87a3.11,3.11,0,0,1,3.11-3.11h8.62a3.11,3.11,0,0,1,3.11,3.11v2.26A3.12,3.12,0,0,1,88.76,78.25Zm-8.62-8a2.59,2.59,0,0,0-2.59,2.59v2.26a2.6,2.6,0,0,0,2.59,2.6h8.62a2.6,2.6,0,0,0,2.59-2.6V72.87a2.59,2.59,0,0,0-2.59-2.59Z"/><path class="cls-2" d="M107.72,78.25H99.1A3.12,3.12,0,0,1,96,75.13V72.87a3.11,3.11,0,0,1,3.11-3.11h8.62a3.11,3.11,0,0,1,3.11,3.11v2.26A3.12,3.12,0,0,1,107.72,78.25Zm-8.62-8a2.59,2.59,0,0,0-2.59,2.59v2.26a2.6,2.6,0,0,0,2.59,2.6h8.62a2.6,2.6,0,0,0,2.59-2.6V72.87a2.59,2.59,0,0,0-2.59-2.59Z"/><path class="cls-1" d="M92.27,83.05l-.12-.37s3.77-1.2,3.65-2.92-4.07-9.18-4.11-9.25l.35-.18c.16.3,4,7.48,4.14,9.4S92.44,83,92.27,83.05Z"/><path class="cls-2" d="M91.35,71.72l-.23-.47a6,6,0,0,1,5.62,0l-.23.47A5.37,5.37,0,0,0,91.35,71.72Z"/><rect class="cls-2" x="69.4" y="72.55" width="7.89" height="0.52"/><path class="cls-1" d="M100.63,74.83l-.15-.36c3.11-1.26,5.35-1.25,6.66,0l-.27.28C105.68,73.62,103.58,73.63,100.63,74.83Z"/><path class="cls-1" d="M66.08,86.51s2.85.44,3.83-1.5c-.33,2.54-1.63,3.77-3.83,3.77Z"/><path class="cls-1" d="M66.22,78.8A3.12,3.12,0,0,0,63,78.17l-.15-.36a3.56,3.56,0,0,1,3.64.71Z"/><path class="cls-8" d="M58.68,66H80.47L92,69.84c4.81,1.31,25.37.58,26.59-.72.89-1.06-2.13-3.35-4.4-4.46V59.44h-1.45s-3-26-27.34-26c-22.21,0-25.31,25.44-25.31,25.44H58.68Z"/><polygon class="cls-1" points="68.67 66.03 68.28 66.03 68.28 61.13 63.41 61.13 63.41 66.03 63.02 66.03 63.02 60.74 68.67 60.74 68.67 66.03"/><polygon class="cls-1" points="90.43 66.03 90.04 66.03 90.04 61.13 83.97 61.13 83.97 66.03 83.58 66.03 83.58 60.74 90.43 60.74 90.43 66.03"/><path class="cls-1" d="M96,66.37c-4.72,0-10-.07-15.49-.15v-.39c11.94.18,31.91.49,33.5-1.08a.16.16,0,0,0,0-.09h.39a.53.53,0,0,1-.17.37C113.17,66.08,105.83,66.37,96,66.37Z"/><polygon class="cls-1" points="111.27 61.58 110.88 61.58 110.88 59.24 112.78 59.24 112.78 59.63 111.27 59.63 111.27 61.58"/><path class="cls-8" d="M82.94,33.6c6,.36,10.78,4.26,14.4,11.18h6C98.91,34.36,88.25,30.55,82.94,33.6Z"/><path class="cls-1" d="M74.49,37a16.74,16.74,0,0,1,5.18.44,11.27,11.27,0,0,1,4.63,2.42,12.63,12.63,0,0,1,3,4.25,19.59,19.59,0,0,1,1.41,5l-.14,0A22.53,22.53,0,0,0,87,44.2a12.61,12.61,0,0,0-3-4.1,11.13,11.13,0,0,0-4.45-2.39,18.2,18.2,0,0,0-5.1-.63Z"/><path class="cls-1" d="M59.62,64.24l-.39,0a35.46,35.46,0,0,1,.7-5.34l.38.08A34.5,34.5,0,0,0,59.62,64.24Z"/><path class="cls-1" d="M103.59,45H97.23l-.06-.1c-3.67-7-8.46-10.73-14.24-11.08l0-.39c5.9.36,10.78,4.12,14.51,11.19H103a20.41,20.41,0,0,0-7.77-9.24l.21-.33a20.91,20.91,0,0,1,8,9.68Z"/><path class="cls-7" d="M66.35,108.51S37.76,111.36,30,123.62C28.07,132.87,30,250,30,250h93.17S134.06,134.48,130,123.62s-37.42-14.21-37.42-14.21C88.23,121.45,78.54,118.28,66.35,108.51Z"/><circle class="cls-2" cx="85.7" cy="120.26" r="0.89"/><circle class="cls-2" cx="85.7" cy="145.34" r="0.89"/><circle class="cls-2" cx="85.7" cy="170.42" r="0.89"/><circle class="cls-2" cx="85.7" cy="195.5" r="0.89"/><circle class="cls-2" cx="85.7" cy="220.58" r="0.89"/><circle class="cls-2" cx="85.7" cy="245.66" r="0.89"/><path class="cls-8" d="M74.11,141.45l-14.7-32.34c-11.2,1.43-26.32,5.89-31.34,15.43,0,0,11.18,15.27.7,59.8C29.21,217.1,30,250,30,250H78.17V160.22A45.35,45.35,0,0,0,74.11,141.45Z"/><path class="cls-8" d="M130,122.88c-4-10.87-32-13.16-32-13.16C97,118.3,93,148.86,93,148.86V250h33.18S134.06,133.74,130,122.88Z"/><path class="cls-2" d="M72.58,234.61q-21.36,0-43-1.54c.06,3.08.11,5.75.16,7.92q21,1.5,42.82,1.51Z"/><path class="cls-2" d="M98.34,234.54v7.9c9.82-.14,19.31-.59,28.4-1.45.13-2.17.3-4.84.49-7.92Q112.49,234.36,98.34,234.54Z"/><path class="cls-2" d="M72.58,219.17q-22.2-.06-43.27-1.5l.14,7.64q21.65,1.41,43.13,1.5Z"/><path class="cls-2" d="M98.34,219.06v7.71q14.79-.18,29.36-1.46c.11-1.62.33-5.38.45-7.64Q112.84,218.69,98.34,219.06Z"/><path class="cls-7" d="M66.08,101.46,62,109.11s8,13.82,16.34,17.74L85.48,117C75.48,111.64,68,106.49,66.08,101.46Z"/><rect class="cls-1" x="88.1" y="120.15" width="0.39" height="129.85"/><rect class="cls-1" x="82.91" y="120.26" width="0.39" height="129.74"/><path class="cls-7" d="M85.48,117a13,13,0,0,0,7.14-7.61v-4.18l2.82,4.57c.39,5.94-1.2,10.37-4.08,13.82A47.89,47.89,0,0,0,85.48,117Z"/><polygon class="cls-2" points="193.32 205.79 73.46 205.79 104.15 105.23 224.01 105.23 193.32 205.79"/><path class="cls-1" d="M125.17,194.76h-34l3.24-10.64h34Zm-33.5-.39h33.21l3-9.86H94.68Z"/><path class="cls-1" d="M186.27,194.76H159l1.35-4.41h27.27Zm-26.75-.39H186l1.11-3.63H160.62Z"/><polygon class="cls-5" points="107.22 141.02 99.77 165.43 173.09 165.43 180.54 141.02 107.22 141.02"/><path class="cls-1" d="M182.66,170.31H122.6l.07-.25L133,136.13h60.06l-.07.25Zm-59.54-.38h59.25l10.2-33.41H133.32Z"/><path class="cls-1" d="M190.06,202.18H78.92l.08-.25,28.42-93.1H218.56l-.08.25Zm-110.61-.39H189.77L218,109.22H107.71Z"/><polygon class="cls-1" points="93.25 141.43 92.88 141.31 104.01 105.03 156.15 105.03 156.15 105.42 104.3 105.42 93.25 141.43"/><polygon class="cls-1" points="193.47 205.98 165.14 205.98 165.14 205.59 193.18 205.59 199.3 185.48 199.67 185.59 193.47 205.98"/><rect class="cls-1" x="153.6" y="115.59" width="56.53" height="0.39"/><rect class="cls-1" x="168.06" y="122.14" width="40.04" height="0.39"/><path class="cls-1" d="M78.33,127.14l-.16-.14A126.4,126.4,0,0,1,61.8,109.23l.31-.24a127.08,127.08,0,0,0,16.15,17.58l7.2-9.86,5.9,6.61c2.9-3.49,4.21-8,3.88-13.51l.39,0c.34,5.66-1,10.36-4.12,13.95l-.14.17-5.87-6.58Z"/><path class="cls-3" d="M209.37,153.22l-1.12,3.7a14,14,0,0,0-2.48-1.12s-6.18-2.63-8.48.79-3.5,12.67-2.42,16.56,7.23,6.17,7.23,6.17C209.2,182.14,216.23,156.05,209.37,153.22Z"/><rect class="cls-1" x="201.31" y="154.79" width="0.39" height="10.93" transform="translate(-19.74 291.93) rotate(-69.25)"/><rect class="cls-1" x="199.34" y="160.28" width="0.39" height="10.27" transform="translate(-45.06 251.12) rotate(-58.97)"/><rect class="cls-1" x="198.15" y="165.88" width="0.39" height="9.28" transform="translate(-54.06 239.15) rotate(-55.9)"/><path class="cls-3" d="M66.46,161.43c3-3.66,12.35-12.29,24.33-12.57L89,154.66s15,0,15.54,4S102,171.08,99.3,173.91s-24.56,8.44-24.56,8.44C63.38,184.13,56.45,173.43,66.46,161.43Z"/><rect class="cls-1" x="93.86" y="149.79" width="0.39" height="21.06" transform="translate(-68.16 251.07) rotate(-88.82)"/><rect class="cls-1" x="85.16" y="165.25" width="18.58" height="0.39" transform="translate(-9.34 5.69) rotate(-3.29)"/><rect class="cls-1" x="86.54" y="170.37" width="15.49" height="0.39" transform="translate(-20.38 12.98) rotate(-7.11)"/><rect class="cls-1" x="84.04" y="154.46" width="4.99" height="0.39"/><path class="cls-7" d="M24.26,212.65A320.1,320.1,0,0,0,78,182.5l-12-22.82c-21.88,5.74-41.14,12.6-57.46,20.71C-14.25,191,.42,224,24.26,212.65Z"/><path class="cls-1" d="M8.7,180.56l-.17-.35c8.3-4,15.79-7.21,22.91-9.9l.13.36C24.47,173.36,17,176.6,8.7,180.56Z"/><polygon class="cls-1" points="72.02 186.41 60.45 163.75 60.8 163.58 72.36 186.23 72.02 186.41"/><path class="cls-2" d="M74.36,181.53a.9.9,0,1,1-.9-.9A.89.89,0,0,1,74.36,181.53Z"/><path class="cls-1" d="M71.51,152.76a24.22,24.22,0,0,0-2.13-6.66L53.79,110.28l.35-.15,15.59,35.81a24.31,24.31,0,0,1,2.17,6.77Z"/><path class="cls-1" d="M37.8,166.73l-.39-.06c2.42-16.75,1.13-38.06-6-46.39l.29-.26C38.91,128.44,40.23,149.89,37.8,166.73Z"/><rect class="cls-1" x="72.38" y="189.44" width="0.39" height="60.56"/><rect class="cls-1" x="98.29" y="205.79" width="0.39" height="44.21"/></svg>