<svg id="Layer_1" data-name="Layer 1" xmlns="http://www.w3.org/2000/svg" xmlns:xlink="http://www.w3.org/1999/xlink" viewBox="0 0 250 250"><defs><style>.cls-1,.cls-34{fill:none;}.cls-2{opacity:0.68;}.cls-3,.cls-45{opacity:0.47;}.cls-4,.cls-45{fill:#d1d5fa;}.cls-5{opacity:0.41;}.cls-38,.cls-6{opacity:0.43;}.cls-7{opacity:0.75;}.cls-8{clip-path:url(#clip-path);}.cls-9{fill:#ffac5e;}.cls-10{opacity:0.38;}.cls-11,.cls-13,.cls-16{fill:#ea5f00;}.cls-12,.cls-33{fill:#fff;}.cls-13{opacity:0.44;}.cls-14{fill:#ff8d00;}.cls-15{opacity:0.22;}.cls-16{opacity:0.4;}.cls-17{fill:#ffd19c;}.cls-18{fill:#ffb741;}.cls-19{fill:#ff9d00;}.cls-20{fill:#ff9100;}.cls-21{fill:#121936;}.cls-22{fill:#040616;opacity:0.63;}.cls-23{fill:#fd9a9a;}.cls-24,.cls-27,.cls-39{fill:#fc6969;}.cls-25{fill:#efeeed;}.cls-26{fill:#354dc0;}.cls-27{opacity:0.46;}.cls-28{fill:#e7701b;}.cls-29{fill:#f08130;}.cls-30{fill:#dfe0fc;}.cls-31,.cls-43{fill:#fc9500;}.cls-32,.cls-40,.cls-41{fill:#233863;}.cls-32{opacity:0.77;}.cls-33{opacity:0.84;}.cls-34{opacity:0.58;}.cls-35{fill:#ffd8aa;}.cls-36{opacity:0.39;}.cls-37,.cls-38{fill:#3885fc;}.cls-39{opacity:0.36;}.cls-40{opacity:0.24;}.cls-41{opacity:0.48;}.cls-42{fill:#ffac19;}.cls-43{opacity:0.69;}.cls-44{fill:#99a9e6;}</style><clipPath id="clip-path"><rect class="cls-1" x="78.37" y="199.03" width="136.34" height="50.96"/></clipPath></defs><g class="cls-2"><g class="cls-3"><path class="cls-4" d="M240.73,166.29a51.36,51.36,0,0,0-16.6-33.18c-15.24-13.62-38.28-17.05-58.48-13.91-8.46,1.32-16.85,3.66-25.51,2.92-12.64-1.07-23.77-8.42-35.27-13.81C89.21,101,71.26,97,54.61,100.22c-18.87,3.62-34.35,17.29-36.19,35.43-.84,8.21,7.66,22.69,5,30.48S.81,198.23,1.3,216.63s5.06,24,11.53,33.36H224c4-9.45,7.18-17,2.46-29.4-3.76-9.9,6.47-18.06,10.43-27.28A56.76,56.76,0,0,0,240.73,166.29Z"/></g></g><g class="cls-5"><path class="cls-4" d="M.82,170a8,8,0,0,1,3.27-10.56c3.69-2,10.76-1.81,12.65,2.05s-3.8,7.15-6.12,10.74C7.39,177.19,2.7,173.8.82,170Z"/></g><g class="cls-5"><path class="cls-4" d="M238.83,208.73a5.08,5.08,0,0,1,1,6.89c-1.55,2.18-5.58,4.14-7.66,2.52s.24-5.13.59-7.82C233.22,206.56,236.75,207.11,238.83,208.73Z"/></g><g class="cls-5"><path class="cls-4" d="M136.86,105.27a6.16,6.16,0,0,1,8.75-2c2.88,2,5.64,7.51,3.7,10.61s-6.57.15-10-.1C134.44,113.43,134.91,108.37,136.86,105.27Z"/></g><g class="cls-6"><path class="cls-4" d="M217.43,239.18c2.06-10.7-1.24-19.84-2.06-30.34-.78-9.94,2.59-18.3,4.46-27.77a61.84,61.84,0,0,0-1-26.25C216,143.51,209.42,133,200,126.66c-14.76-10-34.44-8.78-50.74-1.93-6.83,2.86-13.44,6.67-20.76,7.64-10.66,1.41-21-3.41-31.43-6.29-14.14-3.93-29.67-4.22-43,2-15.13,7-25.89,22.9-24.63,40.39.57,7.92,3.48,15.74,2.45,23.61s-5.58,14.66-8,22.17c-3.27,10.27-3.57,25.35,1.69,35.76H213.89A44.91,44.91,0,0,0,217.43,239.18Z"/></g><g class="cls-7"><path class="cls-4" d="M197,241.48c1.62-8.44-1-15.64-1.63-23.91-.61-7.83,2-14.42,3.52-21.88a48.76,48.76,0,0,0-.77-20.68c-2.25-8.91-7.43-17.15-14.89-22.18-11.63-7.84-27.13-6.92-40-1.53-5.38,2.26-10.59,5.26-16.35,6-8.4,1.11-16.58-2.68-24.76-4.95C91,149.27,78.76,149,68.25,153.93c-11.92,5.54-20.39,18-19.4,31.82.45,6.24,2.74,12.4,1.93,18.6s-4.4,11.55-6.28,17.47c-2.58,8.08-2.82,20,1.33,28.17H194.21A35.52,35.52,0,0,0,197,241.48Z"/></g><g class="cls-3"><path class="cls-4" d="M182.41,205.63a27.57,27.57,0,0,0-8.51-17.58c-7.8-7.21-19.61-9-30-7.36-4.33.7-8.63,1.93-13.07,1.54-6.47-.56-12.17-4.46-18.07-7.31-8-3.89-17.21-6-25.74-4.29-9.67,1.92-17.6,9.16-18.55,18.77-.43,4.35,3.93,12,2.56,16.15s-11.58,17-11.33,26.76,2.6,12.74,5.91,17.68H173.84c2.06-5,3.68-9,1.27-15.58-1.93-5.25,3.31-9.57,5.34-14.46A31.07,31.07,0,0,0,182.41,205.63Z"/></g><g class="cls-8"><rect class="cls-9" x="78.37" y="199.03" width="136.34" height="50.96"/><g class="cls-10"><path class="cls-11" d="M88.22,213.13h17.06a1.75,1.75,0,0,1,1.75,1.75v11.59A8.06,8.06,0,0,1,99,234.54h-4a8.06,8.06,0,0,1-8.06-8.06v-12a1.33,1.33,0,0,1,1.33-1.33Z" transform="translate(193.92 447.66) rotate(180)"/></g><g class="cls-10"><path class="cls-11" d="M193.69,213.13h4a8.06,8.06,0,0,1,8.06,8.06v11.59a1.75,1.75,0,0,1-1.75,1.75H187a1.33,1.33,0,0,1-1.33-1.33v-12a8.06,8.06,0,0,1,8.06-8.06Z"/></g><path class="cls-12" d="M90.42,213.13h16.4a1.69,1.69,0,0,1,1.69,1.69v9.27a7.75,7.75,0,0,1-7.75,7.75H96.89a7.75,7.75,0,0,1-7.75-7.75v-9.67A1.28,1.28,0,0,1,90.42,213.13Z" transform="translate(197.65 444.96) rotate(180)"/><path class="cls-9" d="M98.53,231.89a.4.4,0,0,1-.4-.4l-.06-18.11a.41.41,0,0,1,.4-.4h0a.4.4,0,0,1,.4.4l0,18.11a.39.39,0,0,1-.39.4Z"/><path class="cls-9" d="M103.6,223H88.8a.4.4,0,0,1,0-.8h14.8a.4.4,0,1,1,0,.8Z"/><path class="cls-12" d="M191.81,213.13h3.87a7.75,7.75,0,0,1,7.75,7.75v9.27a1.69,1.69,0,0,1-1.69,1.69h-16.4a1.28,1.28,0,0,1-1.28-1.28v-9.67A7.75,7.75,0,0,1,191.81,213.13Z"/><path class="cls-9" d="M194.05,231.89h0a.4.4,0,0,1-.4-.4l.06-18.11a.4.4,0,0,1,.4-.4h0a.4.4,0,0,1,.39.4l-.05,18.11A.4.4,0,0,1,194.05,231.89Z"/><path class="cls-9" d="M203,223H189a.4.4,0,1,1,0-.8h14a.4.4,0,1,1,0,.8Z"/><rect class="cls-13" x="103.72" y="199.03" width="85.19" height="50.96"/></g><path class="cls-14" d="M209.47,180H82.24L71.53,208.86H217.66a2.33,2.33,0,0,0,2.16-3.2Z"/><g class="cls-15"><polygon class="cls-11" points="203.05 179.97 92.52 179.97 83.22 204.35 213.17 204.35 203.05 179.97"/></g><path class="cls-16" d="M144.43,155l-45.28,35.6a1.64,1.64,0,0,0-.53,1.85l2.16,5.85a1.63,1.63,0,0,0,2.51.75l43-31.73a1.64,1.64,0,0,1,1.95,0l43.49,32.31a1.64,1.64,0,0,0,2.6-1.1l.85-6.28a1.62,1.62,0,0,0-.6-1.49L150.26,155A4.68,4.68,0,0,0,144.43,155Z"/><polygon class="cls-17" points="177.33 175.35 163.22 166.19 163.22 152.6 177.33 152.6 177.33 175.35"/><rect class="cls-18" x="163.22" y="156.01" width="14.11" height="2.33"/><rect class="cls-19" x="162.51" y="152.02" width="15.52" height="3.99" rx="0.43"/><path class="cls-20" d="M144.79,154.29,99.93,187.22a.46.46,0,0,0-.15.55l2.85,7.2a.47.47,0,0,0,.7.22l43.21-29.78a.48.48,0,0,1,.54,0l44,30.52a.47.47,0,0,0,.73-.32l1.15-7.9a.44.44,0,0,0-.18-.44l-43.78-33A3.53,3.53,0,0,0,144.79,154.29Z"/><path class="cls-18" d="M144.48,162.21l-37.32,28V250h78.32V190.26l-36.36-28A3.84,3.84,0,0,0,144.48,162.21Z"/><path class="cls-17" d="M144.26,168.35l-37.1,26V250h78.32V194.33l-36.14-26A4.39,4.39,0,0,0,144.26,168.35Z"/><path class="cls-9" d="M118.26,198.13h6.87a4.2,4.2,0,0,1,4.2,4.2v32.2a0,0,0,0,1,0,0H114.06a0,0,0,0,1,0,0v-32.2A4.2,4.2,0,0,1,118.26,198.13Z"/><path class="cls-9" d="M118,198.13h7.4a3.93,3.93,0,0,1,3.93,3.93V230.9a3.64,3.64,0,0,1-3.64,3.64h-8.4a3.22,3.22,0,0,1-3.22-3.22V202.07A3.93,3.93,0,0,1,118,198.13Z"/><path class="cls-9" d="M166.71,198.13h7.4a3.93,3.93,0,0,1,3.93,3.93v28.46a4,4,0,0,1-4,4h-7.47a3.79,3.79,0,0,1-3.79-3.79V202.07A3.94,3.94,0,0,1,166.71,198.13Z"/><path class="cls-14" d="M144.16,204.35h4.67a9.33,9.33,0,0,1,9.33,9.33v36.25a0,0,0,0,1,0,0H134.83a0,0,0,0,1,0,0V213.68A9.33,9.33,0,0,1,144.16,204.35Z"/><path class="cls-12" d="M156,246.57H137a.2.2,0,0,1-.2-.2V218.83a9.67,9.67,0,1,1,19.34,0v27.54A.2.2,0,0,1,156,246.57Zm-18.74-.39h18.54V218.83a9.27,9.27,0,1,0-18.54,0Z"/><path class="cls-12" d="M153.27,230a1.61,1.61,0,1,1,1.61-1.61A1.61,1.61,0,0,1,153.27,230Zm0-2.82a1.22,1.22,0,1,0,1.21,1.21A1.21,1.21,0,0,0,153.27,227.14Z"/><path class="cls-12" d="M119.85,198.13h6.57a3.93,3.93,0,0,1,3.93,3.93V227.6a3,3,0,0,1-3,3H119a3.08,3.08,0,0,1-3.08-3.08V202.07A3.94,3.94,0,0,1,119.85,198.13Z"/><path class="cls-17" d="M123,230.16a.4.4,0,0,1-.4-.4V198.41a.4.4,0,0,1,.8,0v31.35A.4.4,0,0,1,123,230.16Z"/><path class="cls-17" d="M130.69,207.94h-14.8a.4.4,0,0,1,0-.8h14.8a.4.4,0,0,1,0,.8Z"/><path class="cls-12" d="M165.92,198.13h6.57a3.93,3.93,0,0,1,3.93,3.93v24.52a4,4,0,0,1-4,4h-6.9A3.56,3.56,0,0,1,162,227V202.07A3.93,3.93,0,0,1,165.92,198.13Z"/><path class="cls-17" d="M169.2,230.16a.39.39,0,0,1-.4-.39l-.24-31.2a.39.39,0,0,1,.39-.4.41.41,0,0,1,.41.39l.24,31.2a.4.4,0,0,1-.4.4Z"/><path class="cls-17" d="M176,207.94H162a.4.4,0,0,1,0-.8h14a.4.4,0,0,1,0,.8Z"/><circle class="cls-12" cx="146.38" cy="183.48" r="6.93"/><path class="cls-17" d="M153.28,184H139.36a.39.39,0,0,1-.4-.39.4.4,0,0,1,.4-.4h13.92a.4.4,0,0,1,.4.4A.39.39,0,0,1,153.28,184Z"/><path class="cls-17" d="M146.32,190.84a.4.4,0,0,1-.4-.4V177.21a.4.4,0,1,1,.8,0v13.23A.4.4,0,0,1,146.32,190.84Z"/><path class="cls-12" d="M114.42,236.89l-2.31-2.35-2.3,2.35v3.27h-2.33v-3.27l-2.3-2.35-2.3,2.35v3.27h-2.79v-3.27l-2.31-2.35-2.3,2.35v3.27H92.65v-3.27l-2.3-2.35-2.3,2.35v3.27H85.72v-3.27l-2.3-2.35-2.31,2.35v3.27H78.32v-3.27L76,234.54l-2.3,2.35v3.27H71.83v2.07h1.89v2.46H71.83v2.07h1.89V250h4.6v-3.24h2.79V250h4.61v-3.24h2.33V250h4.6v-3.24h2.83V250h4.61v-3.24h2.79V250h4.6v-3.24h2.33V250h4.61v-3.24h2.11v-2.07h-2.11v-2.46h2.11v-2.07h-2.11Zm-36.1,7.8v-2.46h2.79v2.46Zm7.4,0v-2.46h2.33v2.46Zm9,0H92.65v-2.46h2.83v2.46Zm5.32,0v-2.46h2.79v2.46Zm9.72,0h-2.33v-2.46h2.33Z"/><path class="cls-12" d="M219.43,242.62v-1.88h-2.11v-3.85l-2.3-2.35-2.31,2.35v3.85h-2.33v-3.85l-2.3-2.35-2.3,2.35v3.85H203v-3.85l-2.3-2.35-2.31,2.35v3.85h-3.09v-3.85l-2.3-2.35-2.3,2.35v3.85h-2.33v-3.85l-2.3-2.35-2.31,2.35v3.85H181v-3.85l-2.3-2.35-2.3,2.35v3.85h-1.88v1.88h1.88v2.25h-1.88v1.89h1.88V250H181v-3.24h2.79V250h4.61v-3.24h2.33V250h4.6v-3.24h3.09V250H203v-3.24h2.79V250h4.6v-3.24h2.33V250h4.61v-3.24h2.11v-1.89h-2.11v-2.25ZM181,244.87v-2.25h2.79v2.25Zm7.4,0v-2.25h2.33v2.25Zm9,0h-2.12v-2.25h3.09v2.25Zm5.58,0v-2.25h2.79v2.25Zm9.72,0h-2.33v-2.25h2.33Z"/><path class="cls-21" d="M95.86,137.34a3.08,3.08,0,0,1-2.28-3c0-4,.26-9.73-.1-12.45-.54-4.19-3.67-9.57-9-8.63.52-6.4-3.68-12.8-9.8-15.56C68.76,95,61.2,95.79,55.61,99.11A9.68,9.68,0,1,0,45.12,112c-2.75.81-5.68.53-8.37,1.47a11,11,0,0,0-6.18,5.24c-2.75,5.44-.11,11.82,0,17.85a2.52,2.52,0,0,1-.49,1.84,3.2,3.2,0,0,1-1.74.71h-.08a6.66,6.66,0,0,0-5.1,7.92c2,8.78,13.3,6.56,19.44,6.55,15,0,46.55.09,55.37.23a4,4,0,0,0,4-3.33v-.07C102.65,146,101.56,138.82,95.86,137.34Z"/><path class="cls-12" d="M81.57,137.91a2.27,2.27,0,1,0,2.48-2A2.27,2.27,0,0,0,81.57,137.91Z"/><path class="cls-22" d="M52.5,128.38c-.31.39-.58-2.25-1-2.09-1.88.64-3.92.41-5.77,1.06a7.18,7.18,0,0,0-4,3.43c-1.8,3.56-.07,7.73,0,11.68a1.63,1.63,0,0,1-.32,1.2,2.09,2.09,0,0,1-1.13.47h-.06a4.34,4.34,0,0,0-3.33,5.18c1.27,5.74,8.63,4.07,12.65,4.06,9.82,0,30.53.28,36.31.37a2.61,2.61,0,0,0,2.63-2.18v0c.41-2.87-.31-7.58-4-8.54a2,2,0,0,1-1.49-2c0-2.62.17-6.37-.07-8.16-.35-2.74-2.4-6.26-5.87-5.64.34-4.19-10,4.11-14.05,2.3Z"/><path class="cls-23" d="M72.79,119c-7.36-.35-10.48-7.72-11.55-11.21l.28,2.1c1.06,7.82-2.73,16.16-6.41,16.66l-5-.45a6.06,6.06,0,0,0-6.07,6v.14a6.06,6.06,0,0,0,6,6.07h2.43l-1.32,19.17c-.16,5.47,5.12,8.75,10.68,8.93h.23a10.06,10.06,0,0,0,10.41-9.63l.15-4.92a13.6,13.6,0,0,0,10.62-14.16l-1-15.5C81.12,120.6,78.61,119.27,72.79,119Z"/><path class="cls-24" d="M49.38,134.26a.4.4,0,0,1-.21-.74l1.63-1-1.73-2.07a.4.4,0,0,1,0-.56.41.41,0,0,1,.56.05l2,2.43a.38.38,0,0,1,.09.32.4.4,0,0,1-.19.28l-2,1.21A.36.36,0,0,1,49.38,134.26Z"/><path class="cls-21" d="M79.89,131a1.17,1.17,0,1,1-1.17-1.17A1.17,1.17,0,0,1,79.89,131Z"/><circle class="cls-21" cx="66.59" cy="130.96" r="1.17" transform="translate(-51.78 43.94) rotate(-26.73)"/><path class="cls-24" d="M67.54,132.79a.34.34,0,0,1-.22-.07,1.43,1.43,0,0,0-1.57,0,.4.4,0,0,1-.46-.66,2.24,2.24,0,0,1,2.47,0,.4.4,0,0,1-.22.73Z"/><path class="cls-24" d="M79.73,132.69a.41.41,0,0,1-.22-.07,1.41,1.41,0,0,0-1.57,0,.4.4,0,0,1-.46-.66A2.24,2.24,0,0,1,80,132a.4.4,0,0,1-.22.73Z"/><path class="cls-12" d="M66.66,136.45a5.55,5.55,0,0,1,0-11.1h0a5.55,5.55,0,0,1,0,11.1Zm0-9.91h0a4.36,4.36,0,0,0,0,8.72h0a4.36,4.36,0,0,0,0-8.72Z"/><path class="cls-12" d="M80.3,136.23a5.56,5.56,0,0,1,0-11.11h0a5.56,5.56,0,0,1,0,11.11Zm0-9.91h0a4.36,4.36,0,0,0,0,8.71h0a4.36,4.36,0,0,0,0-8.71Z"/><path class="cls-23" d="M73,127.1l.2,4.52a1,1,0,0,0,1,1l1,0a1.38,1.38,0,0,1,1.44,1.32h0a3.41,3.41,0,0,1-3.26,3.55l-1.57.07"/><path class="cls-24" d="M71.84,137.88a.4.4,0,0,1,0-.8l1.57-.06a3,3,0,0,0,2.88-3.15,1,1,0,0,0-1-.93l-1,0a1.4,1.4,0,0,1-1.47-1.34l-.2-4.53a.4.4,0,0,1,.8,0l.19,4.52a.64.64,0,0,0,.2.43.6.6,0,0,0,.44.16l1-.05a1.77,1.77,0,0,1,1.85,1.7,3.81,3.81,0,0,1-3.64,4l-1.57.07Z"/><path class="cls-12" d="M71.55,130.19a3.33,3.33,0,0,1,3.85,0"/><path class="cls-12" d="M71.89,130.67l-.69-1a3.88,3.88,0,0,1,4.57,0l-.74.93A2.77,2.77,0,0,0,71.89,130.67Z"/><path class="cls-24" d="M74.5,145a.22.22,0,0,1-.16,0,2.06,2.06,0,0,0-2.29.52.24.24,0,0,1-.34,0,.25.25,0,0,1,0-.34,2.62,2.62,0,0,1,2.84-.66.25.25,0,0,1,.13.32A.21.21,0,0,1,74.5,145Z"/><path class="cls-21" d="M63.36,123a3.58,3.58,0,0,0,1.47-.1c.51-.11,1-.2,1.49-.27s1-.12,1.5-.16a3.72,3.72,0,0,0,1.44-.32c.37-.22.46-.72-.09-1.23a4,4,0,0,0-3.24-.75,3.92,3.92,0,0,0-2.87,1.63C62.7,122.4,62.94,122.85,63.36,123Z"/><path class="cls-21" d="M77.5,123.44a3.47,3.47,0,0,1,1.47,0c.52.08,1,.14,1.5.18s1,.07,1.52.08a3.48,3.48,0,0,1,1.45.23c.38.2.5.69,0,1.24a4.08,4.08,0,0,1-3.19.93,4,4,0,0,1-3-1.46C76.87,124,77.09,123.57,77.5,123.44Z"/><path class="cls-24" d="M68,141a2.4,2.4,0,0,1-2.19-2l-.09-.45a.41.41,0,0,1,.32-.47.4.4,0,0,1,.46.32l.09.45a1.56,1.56,0,0,0,1.5,1.4l2.78-.27a.4.4,0,0,1,.44.36.39.39,0,0,1-.36.43l-2.78.27Z"/><path class="cls-24" d="M72.62,151.9s-11.88.19-13.73-4.09h0s-.74,6.42,13.45,10.22Z"/><path class="cls-12" d="M46.73,137.91a2.27,2.27,0,1,0,2.49-2A2.28,2.28,0,0,0,46.73,137.91Z"/><rect class="cls-12" x="125.18" y="158.06" width="5.39" height="18.57" rx="2" transform="translate(-42.92 290.58) rotate(-88.43)"/><path class="cls-25" d="M135.2,167.54a.83.83,0,0,1,0-1.66.83.83,0,0,1,0,1.66Zm0-1.26a.43.43,0,1,0,.43.43A.43.43,0,0,0,135.2,166.28Z"/><path class="cls-26" d="M137.06,168.89l-18.64-.95a1.55,1.55,0,0,0-1.62,1.41l-2.14,24.46-18-25.76h0c-7.81-9.8-21.51-9.08-21.51-9.08l-.28,19.89,5.22,19.8,30.28,23.1a15.54,15.54,0,0,0,25-11.8l2.93-39.74A1.24,1.24,0,0,0,137.06,168.89Z"/><path class="cls-23" d="M135.33,164.84a11.61,11.61,0,0,0,1.79-4.64,9.88,9.88,0,0,0-1.15-6.87h0l-1.88.88-6.29-3a4.71,4.71,0,0,0-6.76,4.16c-.07,4.11-.5,7.07.35,9"/><path class="cls-27" d="M123.73,151.18s-4.65,11.73,4.93,9.8,4.61-9.72,4.61-9.72Z"/><path class="cls-23" d="M119.89,150.54a6.63,6.63,0,0,1,4.88-1.44,1.38,1.38,0,0,1,.72,2.4c-1.43,1.83-4.34,4.58-4.51,6.11s.51.84.51.84l-2.31-2.13A4,4,0,0,1,119.89,150.54Z"/><path class="cls-23" d="M123,154.45c.88-1,1.87-2.1,2.54-2.95a1.38,1.38,0,0,0-.72-2.4,6.63,6.63,0,0,0-4.88,1.44,4,4,0,0,0-.82,5.63A5.07,5.07,0,0,1,123,154.45Z"/><path class="cls-28" d="M129.54,163.71a5.07,5.07,0,1,0-4.87,1.3,5.16,5.16,0,0,0,1.5.17h0l.74,1.57.59.21.43.92-.23.65,1.09.38-.33.92,1.14,2.42,1.14.41-.41,1.14,2.63.94.78-2.19S129.92,164.53,129.54,163.71Z"/><path class="cls-29" d="M132.26,172.59a.21.21,0,0,1-.19-.12l-3.74-8a.19.19,0,0,1,.07-.25l1-.69a.21.21,0,0,1,.28.06.19.19,0,0,1,0,.27l-.89.6,3.68,7.84a.21.21,0,0,1-.1.26Z"/><path class="cls-30" d="M125.16,159.09a4.1,4.1,0,0,1-2.49-.83,4.19,4.19,0,1,1,6.64-4h0a4.19,4.19,0,0,1-3.53,4.75A4.4,4.4,0,0,1,125.16,159.09Zm0-8a5.09,5.09,0,0,0-.55,0,3.78,3.78,0,0,0-2.49,1.49,3.81,3.81,0,0,0,.77,5.31,3.8,3.8,0,0,0,6-3.6A3.8,3.8,0,0,0,125.17,151.11Z"/><path class="cls-31" d="M127.22,162.13a5.07,5.07,0,1,0-7,1.72,5.13,5.13,0,0,0,1.4.58h0l.27,1.71.51.37.16,1-.41.55.94.68-.58.78.42,2.65,1,.71-.71,1,2.25,1.64,1.37-1.88s-1.39-8.77-1.53-9.67A5.05,5.05,0,0,0,127.22,162.13ZM123.75,159a1.27,1.27,0,1,1-.43-1.75A1.28,1.28,0,0,1,123.75,159Z"/><path class="cls-29" d="M122.66,159.82a1.5,1.5,0,0,1-.76-.21,1.48,1.48,0,0,1-.5-2,1.44,1.44,0,0,1,.91-.67,1.49,1.49,0,0,1,1.11.17,1.47,1.47,0,0,1,.5,2h0A1.47,1.47,0,0,1,122.66,159.82Zm0-2.54a1.06,1.06,0,1,0,.56.15A1.15,1.15,0,0,0,122.66,157.28Zm1.09,1.73Z"/><path class="cls-29" d="M125.65,173.26a.2.2,0,0,1-.2-.17l-1.49-8.7a.2.2,0,0,1,.13-.22l1.18-.39a.2.2,0,0,1,.25.12.21.21,0,0,1-.13.26l-1,.34,1.46,8.53a.2.2,0,0,1-.16.23Z"/><path class="cls-30" d="M123.61,158.78l-.08,0a4.19,4.19,0,0,1,1-8,.2.2,0,0,1,.23.17.19.19,0,0,1-.17.22,3.78,3.78,0,0,0-2.49,1.49,3.72,3.72,0,0,0-.71,2.81,3.78,3.78,0,0,0,2.27,3,.19.19,0,0,1,.1.26A.2.2,0,0,1,123.61,158.78Z"/><rect class="cls-23" x="126.04" y="149.17" width="9.17" height="3.57" rx="1.43" transform="translate(-68.47 165.38) rotate(-53.27)"/><rect class="cls-23" x="122.84" y="147.15" width="9.62" height="3.57" rx="1.43" transform="matrix(0.6, -0.8, 0.8, 0.6, -68.05, 162.18)"/><rect class="cls-23" x="129.71" y="151.45" width="7.21" height="3.57" rx="1.43" transform="translate(-69.23 168.45) rotate(-53.27)"/><rect class="cls-23" x="133.89" y="152.77" width="5.36" height="3.57" rx="1.43" transform="translate(-68.98 171.59) rotate(-53.27)"/><path class="cls-24" d="M127.23,152.67a.19.19,0,0,1-.12,0,.2.2,0,0,1,0-.28l3.7-4.95a.19.19,0,0,1,.27,0,.2.2,0,0,1,0,.28l-3.69,5A.21.21,0,0,1,127.23,152.67Z"/><path class="cls-24" d="M130.35,154.51l-.12,0a.21.21,0,0,1,0-.28l3-4.23a.2.2,0,0,1,.33.23l-3,4.23A.21.21,0,0,1,130.35,154.51Z"/><path class="cls-24" d="M134.09,155.38a.2.2,0,0,1-.11,0,.21.21,0,0,1,0-.28l2.06-3a.2.2,0,0,1,.28-.05.19.19,0,0,1,0,.27l-2.06,3A.23.23,0,0,1,134.09,155.38Z"/><path class="cls-32" d="M114.29,198.81h0a.4.4,0,0,1-.37-.43l.77-9.12a.4.4,0,0,1,.43-.36.39.39,0,0,1,.36.43l-.76,9.12A.4.4,0,0,1,114.29,198.81Z"/><path class="cls-26" d="M92.16,222.08l2.6-23.45A134,134,0,0,1,85.64,170c-1-5.09-5.48-9.61-10.38-11.34l-3.93-1.25L62,160.66l-13-5.48-14,3s-20.13,4.92-19.42,30.11a1.07,1.07,0,0,0,.87,1L23,213.8,32.43,225a158.05,158.05,0,0,0-9.56,25s79.06,0,79.06,0A57.87,57.87,0,0,0,92.16,222.08Z"/><path class="cls-32" d="M48.49,193.66a.39.39,0,0,1-.35-.2l-7-12.13a1.34,1.34,0,0,1,.74-1.94l2.65-.87a.56.56,0,0,0,.35-.38.54.54,0,0,0-.12-.5l-7.18-8.13a1.34,1.34,0,0,1-.32-1,1.38,1.38,0,0,1,.57-.94l4.68-3.19a.4.4,0,0,1,.56.1.41.41,0,0,1-.11.56l-4.68,3.19a.53.53,0,0,0-.23.38.56.56,0,0,0,.13.43l7.18,8.13a1.33,1.33,0,0,1-.58,2.15l-2.65.88a.54.54,0,0,0-.34.32.53.53,0,0,0,0,.46l7,12.13a.41.41,0,0,1-.15.55A.45.45,0,0,1,48.49,193.66Z"/><path class="cls-32" d="M77.79,192.82a.47.47,0,0,1-.17,0,.4.4,0,0,1-.19-.53l6-12.68a.53.53,0,0,0,0-.46.57.57,0,0,0-.37-.29l-2.71-.66a1.33,1.33,0,0,1-.76-2.09l6.48-8.7a.58.58,0,0,0,.09-.44.53.53,0,0,0-.26-.36L81,163.79a.4.4,0,0,1,.39-.7l4.93,2.8a1.35,1.35,0,0,1,.65.89,1.33,1.33,0,0,1-.24,1.07l-6.47,8.7a.55.55,0,0,0,.31.85l2.71.65a1.33,1.33,0,0,1,.89.73,1.3,1.3,0,0,1,0,1.14l-6,12.68A.4.4,0,0,1,77.79,192.82Z"/><path class="cls-32" d="M92.25,234.32H81.16a.4.4,0,0,1,0-.8H92.25a.4.4,0,1,1,0,.8Z"/><path class="cls-32" d="M46.18,234.32H35.09a.4.4,0,1,1,0-.8H46.18a.4.4,0,1,1,0,.8Z"/><rect class="cls-31" x="77.81" y="180.68" width="11.44" height="3.15" rx="1.26"/><path class="cls-25" d="M88.73,184H78.33a.72.72,0,0,1-.72-.72v-2.1a.72.72,0,0,1,.72-.72h10.4a.72.72,0,0,1,.72.72v2.1A.72.72,0,0,1,88.73,184Zm-10.4-3.15a.32.32,0,0,0-.32.33v2.1a.32.32,0,0,0,.32.33h10.4a.32.32,0,0,0,.32-.33v-2.1a.32.32,0,0,0-.32-.33Z"/><polygon class="cls-12" points="73.47 160.66 61.99 160.44 50.39 158.71 52.34 249.99 76.88 249.99 73.47 160.66"/><path class="cls-25" d="M66.33,245.74a.4.4,0,0,1-.4-.38l-4.1-84.17a.39.39,0,0,1,.37-.42.4.4,0,0,1,.42.38l4.11,84.18a.4.4,0,0,1-.38.41Z"/><path class="cls-25" d="M59.2,175.2a1.54,1.54,0,1,1,1.54-1.53A1.54,1.54,0,0,1,59.2,175.2Zm0-2.28a.75.75,0,1,0,.74.75A.75.75,0,0,0,59.2,172.92Z"/><path class="cls-25" d="M59.2,193.44a1.54,1.54,0,1,1,1.54-1.54A1.54,1.54,0,0,1,59.2,193.44Zm0-2.28a.74.74,0,1,0,.74.74A.74.74,0,0,0,59.2,191.16Z"/><path class="cls-25" d="M60.34,230.11a1.54,1.54,0,1,1,1.54-1.54A1.54,1.54,0,0,1,60.34,230.11Zm0-2.28a.74.74,0,1,0,.74.74A.74.74,0,0,0,60.34,227.83Z"/><path class="cls-25" d="M60.34,244a1.54,1.54,0,1,1,1.54-1.54A1.54,1.54,0,0,1,60.34,244Zm0-2.28a.74.74,0,1,0,.74.74A.74.74,0,0,0,60.34,241.72Z"/><path class="cls-25" d="M51.71,154.12,62,160.44l-5.08,5a2.35,2.35,0,0,1-3,.23l-8-5.83a1.6,1.6,0,0,1,.07-2.62l4.67-3.1A1,1,0,0,1,51.71,154.12Z"/><path class="cls-25" d="M69.17,165.85,78.43,161a1.06,1.06,0,0,0,.07-1.84l-5.56-3.43a1,1,0,0,0-1-.05l-9.73,4.7,4.63,5.07A1.88,1.88,0,0,0,69.17,165.85Z"/><polygon class="cls-1" points="38.47 203.14 39.63 202.95 38.48 202.86 38.47 203.14"/><path class="cls-26" d="M78.08,198a1.26,1.26,0,0,0-1.4-.91l-33.37,5.26-3.68.58-1.16.19v-.28h0L39,193.2,16.4,188.74l-.77-1L16,202c.2,7.56.45,14.75,7,19.85a18.22,18.22,0,0,0,10.1,3.72c3.68.22,40.85-5.8,50.18-8.28Z"/><circle class="cls-33" cx="106.45" cy="184.78" r="11.82" transform="translate(-105.02 157.28) rotate(-52.65)"/><circle class="cls-34" cx="106.34" cy="184.77" r="11.82"/><path class="cls-21" d="M86.4,202.82a1.59,1.59,0,0,0,1.14.55,1.63,1.63,0,0,0,1.17-.4l8.19-7.2a1.63,1.63,0,0,0,.41-.57,13.8,13.8,0,1,0-2-2.2,1.68,1.68,0,0,0-.53.31l-8.19,7.2A1.63,1.63,0,0,0,86.4,202.82Zm19.31-6.24a11.82,11.82,0,1,1,12.44-11.17A11.82,11.82,0,0,1,105.71,196.58Z"/><rect class="cls-12" x="90.69" y="195.16" width="4.59" height="3.4" rx="1.36" transform="translate(8.65 397.59) rotate(-131.93)"/><path class="cls-35" d="M81,207.73h0a2.52,2.52,0,0,0,3.58.19l10.22-9.29c.27-.24-3.12-4-3.37-3.8l-10.23,9.29A2.58,2.58,0,0,0,81,207.73Z"/><g class="cls-36"><path class="cls-37" d="M112.13,191.62h0l-4.67-.25a.37.37,0,0,1-.28-.13.43.43,0,0,1-.1-.29l.2-3.73-1.78-.1-.2,3.74a.37.37,0,0,1-.13.27.38.38,0,0,1-.29.1L100.3,191a.4.4,0,0,1-.38-.42l.38-7a.42.42,0,0,1,.14-.28l6.18-5.24a.39.39,0,0,1,.55,0l5.61,6.25a.36.36,0,0,1,.1.28l-.35,6.66a.46.46,0,0,1-.13.27A.39.39,0,0,1,112.13,191.62Zm-4.25-1,3.87.21.33-6.1-5.24-5.83-5.75,4.87-.35,6.47,3.77.2.2-3.74a.37.37,0,0,1,.13-.27.38.38,0,0,1,.29-.1l2.57.14a.39.39,0,0,1,.38.41Z"/><path class="cls-37" d="M113.83,186a.4.4,0,0,1-.29-.12l-6.7-7-7.62,6.26a.4.4,0,1,1-.51-.61l7.91-6.5a.4.4,0,0,1,.54,0l7,7.29a.4.4,0,0,1,0,.56A.39.39,0,0,1,113.83,186Z"/><path class="cls-37" d="M106.61,183.64h0a.88.88,0,0,1-.59-.29.84.84,0,0,1-.22-.61.88.88,0,0,1,.29-.59.79.79,0,0,1,.61-.21.83.83,0,0,1,.59.28.85.85,0,0,1,.22.61.88.88,0,0,1-.29.59A.82.82,0,0,1,106.61,183.64Zm0-.91a.06.06,0,1,0,0,.11s.06,0,.06-.05a.06.06,0,0,0,0-.06Z"/><path class="cls-37" d="M101.8,182.93a.47.47,0,0,1-.17,0,.38.38,0,0,1-.22-.38l.25-4.79a.41.41,0,0,1,.13-.27.4.4,0,0,1,.29-.1l2,.11a.39.39,0,0,1,.37.41l-.15,2.82a.41.41,0,0,1-.13.28l-2.1,1.86A.45.45,0,0,1,101.8,182.93Zm.64-4.77-.19,3.44,1.26-1.11.13-2.26Zm1.46,2.51h0Z"/></g><path class="cls-38" d="M115.82,183.85a.39.39,0,0,1-.39-.36c-.7-7-7.55-8-7.84-8a.4.4,0,0,1-.34-.45.41.41,0,0,1,.45-.34c.08,0,7.76,1.16,8.52,8.75a.4.4,0,0,1-.36.44Z"/><path class="cls-23" d="M98.09,201.43c.24-3.15-3.74-2.73-6.15-2.77-1.14.07-2.18.11-3.15.14A9.34,9.34,0,0,0,90.55,196a1.18,1.18,0,0,0,0-1,.94.94,0,0,0-.73-.34,2.49,2.49,0,0,0-.8.17,90.39,90.39,0,0,0-9,4.48,17,17,0,0,0-1.9,1.51c-1.41,1.31,2.07,13.29,3.24,13.11l10-1.24c1.86-.13,3.21-2.09,1.95-2.74,1.42.26,3.07.05,3.22-1.72.19-1-.42-1.42-1.2-1.68,1.3.22,2.61.17,2.84-1.28.48-1.55-.69-2.19-1.95-2.49C97.06,202.76,97.91,202.52,98.09,201.43Z"/><path class="cls-39" d="M88.79,198.8l-5.44.66s5.65-2.27,6.64-2.3Z"/><path class="cls-24" d="M92.92,203a.21.21,0,0,1-.2-.19.19.19,0,0,1,.19-.2,31.68,31.68,0,0,1,3.79,0,.2.2,0,0,1-.1.39,32.1,32.1,0,0,0-3.67,0Z"/><path class="cls-24" d="M95.91,206.77h0l-3.75-.2a.2.2,0,0,1,0-.4l3.75.2a.21.21,0,0,1,.19.21A.2.2,0,0,1,95.91,206.77Z"/><path class="cls-24" d="M93.54,210.15h0l-3.14,0a.2.2,0,1,1,0-.4h0l3.15,0a.19.19,0,0,1,.19.2A.2.2,0,0,1,93.54,210.15Z"/><rect class="cls-12" x="70.44" y="203.94" width="18.57" height="5.39" rx="2" transform="translate(276.05 104.13) rotate(83.53)"/><path class="cls-25" d="M81.37,214.63a.82.82,0,0,1-.5-.17.78.78,0,0,1-.32-.54.83.83,0,0,1,1.32-.78A.83.83,0,0,1,82,214.3a.8.8,0,0,1-.55.32Zm0-1.26h-.06a.46.46,0,0,0-.29.17.41.41,0,0,0-.08.32.46.46,0,0,0,.17.29.4.4,0,0,0,.32.08h0a.46.46,0,0,0,.28-.17.45.45,0,0,0,.09-.32.46.46,0,0,0-.17-.28A.43.43,0,0,0,81.37,213.37Z"/><polygon class="cls-40" points="39.63 202.95 43.31 202.37 39.67 182.71 38.48 202.86 38.48 202.86 39.63 202.95"/><path class="cls-41" d="M38.28,203.07h0a.4.4,0,0,1-.38-.42l.95-17.1a.41.41,0,0,1,.42-.38.4.4,0,0,1,.38.42l-1,17.1A.4.4,0,0,1,38.28,203.07Z"/><path class="cls-41" d="M35.73,203.65a.4.4,0,0,1,0-.79l15-2a.4.4,0,0,1,.45.34.39.39,0,0,1-.34.44l-15,2Z"/><path class="cls-41" d="M32.42,226.2a.4.4,0,0,1-.06-.79l19.33-3a.4.4,0,1,1,.13.78l-19.33,3Z"/><path class="cls-41" d="M76,219.42a.4.4,0,0,1-.39-.33.41.41,0,0,1,.33-.46l2.67-.41a1,1,0,0,0,.86-1.12l0-.62a.39.39,0,0,1,.36-.43.4.4,0,0,1,.43.36l.06.62a1.82,1.82,0,0,1-1.54,2l-2.66.42Z"/><path class="cls-31" d="M134.34,129a15.57,15.57,0,0,1-26.28,3.91l-5.58.85,3-5.36a15.56,15.56,0,1,1,28.9.6Z"/><path class="cls-12" d="M127.52,117.59h-14.8a.4.4,0,1,1,0-.8h14.8a.4.4,0,1,1,0,.8Z"/><path class="cls-12" d="M127.52,122.56h-14.8a.39.39,0,0,1-.4-.39.4.4,0,0,1,.4-.4h14.8a.4.4,0,0,1,.4.4A.39.39,0,0,1,127.52,122.56Z"/><path class="cls-12" d="M127.52,128h-14.8a.4.4,0,1,1,0-.79h14.8a.4.4,0,1,1,0,.79Z"/><rect class="cls-26" x="122.76" y="131.78" width="19" height="9.12" rx="3.65"/><path class="cls-12" d="M127.2,137.71a1.13,1.13,0,1,1,1.13-1.13A1.14,1.14,0,0,1,127.2,137.71Zm0-1.86a.73.73,0,1,0,.73.73A.73.73,0,0,0,127.2,135.85Z"/><path class="cls-12" d="M132.26,137.71a1.13,1.13,0,1,1,1.13-1.13A1.13,1.13,0,0,1,132.26,137.71Zm0-1.86a.73.73,0,0,0,0,1.46.73.73,0,1,0,0-1.46Z"/><path class="cls-12" d="M137.31,137.71a1.13,1.13,0,1,1,1.13-1.13A1.14,1.14,0,0,1,137.31,137.71Zm0-1.86a.73.73,0,1,0,.73.73A.73.73,0,0,0,137.31,135.85Z"/><rect class="cls-26" x="197.45" y="138.54" width="47.07" height="15.12" rx="1.61"/><circle class="cls-12" cx="205.36" cy="145.81" r="3.42" transform="translate(-42.95 187.92) rotate(-45)"/><path class="cls-19" d="M205.07,147.5h0a.37.37,0,0,1-.28-.13l-1.51-1.71a.4.4,0,1,1,.59-.53l1.23,1.39,3-3.06a.4.4,0,0,1,.57.56l-3.34,3.36A.39.39,0,0,1,205.07,147.5Z"/><path class="cls-12" d="M238,143.8H213.9a.2.2,0,0,1,0-.4H238a.2.2,0,1,1,0,.4Z"/><path class="cls-12" d="M224.66,146.66H213.9a.2.2,0,0,1,0-.4h10.76a.2.2,0,0,1,0,.4Z"/><path class="cls-12" d="M224.66,149.91H213.9a.2.2,0,0,1,0-.4h10.76a.2.2,0,0,1,0,.4Z"/><path class="cls-12" d="M238,146.66H227.22a.2.2,0,0,1,0-.4H238a.2.2,0,0,1,0,.4Z"/><rect class="cls-12" x="185.25" y="151.83" width="47.07" height="15.12" rx="1.61"/><circle class="cls-42" cx="193.16" cy="159.11" r="3.42"/><path class="cls-43" d="M225.79,157.09H201.7a.19.19,0,0,1-.2-.19.2.2,0,0,1,.2-.2h24.09a.19.19,0,0,1,.19.2A.18.18,0,0,1,225.79,157.09Z"/><path class="cls-43" d="M212.46,160H201.7a.2.2,0,0,1,0-.4h10.76a.2.2,0,1,1,0,.4Z"/><path class="cls-43" d="M212.46,163.2H201.7a.2.2,0,0,1,0-.4h10.76a.2.2,0,1,1,0,.4Z"/><path class="cls-43" d="M225.79,160H215a.2.2,0,0,1,0-.4h10.77a.2.2,0,0,1,0,.4Z"/><path class="cls-26" d="M187.56,115.4c0,10.11-18.31,26.61-18.31,26.61s-18.32-16.5-18.32-26.61a18.32,18.32,0,1,1,36.63,0Z"/><path class="cls-40" d="M169.25,134.35S154.48,121,151.47,111a18.22,18.22,0,0,0-.54,4.4c0,10.11,18.32,26.61,18.32,26.61s18.31-16.5,18.31-26.61A18.22,18.22,0,0,0,187,111C184,121,169.25,134.35,169.25,134.35Z"/><path class="cls-12" d="M169.25,127.05a11.48,11.48,0,1,1,11.47-11.48A11.49,11.49,0,0,1,169.25,127.05Zm0-22.16a10.68,10.68,0,1,0,10.68,10.68A10.69,10.69,0,0,0,169.25,104.89Z"/><circle class="cls-44" cx="146.38" cy="128.87" r="0.88"/><circle class="cls-44" cx="187.56" cy="174.28" r="0.88"/><circle class="cls-44" cx="249.12" cy="163.98" r="0.88"/><circle class="cls-44" cx="24.19" cy="99.98" r="0.88"/><circle class="cls-44" cx="100.48" cy="100.92" r="0.88"/><circle class="cls-44" cx="11.03" cy="147.41" r="0.44"/><circle class="cls-44" cx="217.44" cy="118.92" r="0.88"/><path class="cls-26" d="M180.33,145.64a.44.44,0,1,1-.44-.44A.44.44,0,0,1,180.33,145.64Z"/><circle class="cls-26" cx="22.87" cy="130.22" r="0.44"/><circle class="cls-12" cx="200.37" cy="131.45" r="1.23"/><path class="cls-12" d="M238.52,171.54a.7.7,0,1,1-.69-.7A.69.69,0,0,1,238.52,171.54Z"/><path class="cls-12" d="M26.3,134.11a.62.62,0,0,1-.62.62.61.61,0,0,1-.61-.62.61.61,0,0,1,.61-.61A.61.61,0,0,1,26.3,134.11Z"/><circle class="cls-12" cx="110.85" cy="150.09" r="0.61"/><circle class="cls-12" cx="143.9" cy="118.92" r="0.44"/><circle class="cls-12" cx="12.12" cy="223.83" r="0.44"/><polygon class="cls-31" points="204.17 107.05 202.11 109.8 202.03 106.3 199.58 104.21 202.89 103.75 205.03 100.92 205.15 104.52 207.51 106.89 204.17 107.05"/><polygon class="cls-31" points="1.83 141.09 1.11 138.81 3.12 140.19 5.3 139.66 4.21 141.72 4.94 144.08 2.86 142.69 0.56 143.05 1.83 141.09"/><polygon class="cls-45" points="127.61 98.19 126.27 99.98 126.21 97.7 124.61 96.33 126.77 96.03 128.17 94.19 128.25 96.53 129.79 98.08 127.61 98.19"/><polygon class="cls-45" points="235.98 127.8 235.06 129.03 235.03 127.47 233.93 126.54 235.41 126.33 236.36 125.07 236.42 126.67 237.47 127.73 235.98 127.8"/><polygon class="cls-45" points="12.02 116.45 12.37 118.66 10.7 117.11 8.6 117.31 9.89 115.55 9.54 113.26 11.28 114.83 13.47 114.81 12.02 116.45"/><polygon class="cls-12" points="153.6 143.45 152.55 144.84 152.51 143.07 151.27 142.01 152.95 141.77 154.03 140.34 154.1 142.16 155.3 143.37 153.6 143.45"/><polygon class="cls-12" points="226.1 185.55 225.06 186.94 225.02 185.17 223.77 184.11 225.45 183.87 226.54 182.44 226.6 184.26 227.8 185.47 226.1 185.55"/><polygon class="cls-12" points="106.64 163.16 106.18 164.85 105.49 163.21 103.95 162.67 105.43 161.84 105.92 160.11 106.64 161.78 108.19 162.47 106.64 163.16"/><circle class="cls-44" cx="150.09" cy="89.91" r="0.44"/><circle class="cls-44" cx="180.77" cy="94.43" r="0.88"/></svg>