<svg xmlns="http://www.w3.org/2000/svg" xmlns:xlink="http://www.w3.org/1999/xlink" viewBox="0 0 250 250"><defs><style>.cls-1{isolation:isolate;}.cls-2{fill:#684b4b;mix-blend-mode:multiply;opacity:0.47;}.cls-3{fill:#ededed;}.cls-4{fill:url(#linear-gradient);}.cls-5{fill:#9fafbf;}.cls-6{fill:#c6cee0;}.cls-7{fill:#b04d32;mix-blend-mode:screen;opacity:0.62;}.cls-8{fill:url(#linear-gradient-2);}.cls-9{fill:#8492ad;}.cls-10{fill:#d9e0ed;}.cls-11{fill:url(#linear-gradient-3);}.cls-12,.cls-13,.cls-14,.cls-15,.cls-19,.cls-20,.cls-22{fill:none;stroke-miterlimit:10;}.cls-12,.cls-13,.cls-14,.cls-15{stroke:#9bc6bd;}.cls-12{stroke-width:1.74px;}.cls-13{stroke-width:1.85px;}.cls-14{stroke-width:2.06px;}.cls-16{fill:#9bc6bd;}.cls-17{fill:#c0ddd3;}.cls-18{fill:#d6e5de;}.cls-19{stroke:#8ebcaf;}.cls-20{stroke:#78baa8;}.cls-21{fill:#6caa00;}.cls-22{stroke:#6caa00;stroke-width:2.9px;}.cls-23{fill:url(#linear-gradient-4);}.cls-24{fill:#fff;}.cls-25{fill:url(#linear-gradient-5);}</style><linearGradient id="linear-gradient" x1="-21.39" y1="121.71" x2="51.14" y2="121.71" gradientUnits="userSpaceOnUse"><stop offset="0" stop-color="#6e7d9c"/><stop offset="0.03" stop-color="#717f9e"/><stop offset="0.69" stop-color="#aeb8cd"/><stop offset="1" stop-color="#c6cee0"/></linearGradient><linearGradient id="linear-gradient-2" x1="183.18" y1="132.91" x2="183.18" y2="198.5" xlink:href="#linear-gradient"/><linearGradient id="linear-gradient-3" x1="179.3" y1="132.91" x2="179.3" y2="198.5" xlink:href="#linear-gradient"/><linearGradient id="linear-gradient-4" x1="185.41" y1="128.04" x2="185.41" y2="209.48" gradientUnits="userSpaceOnUse"><stop offset="0" stop-color="#7d8cab"/><stop offset="0.03" stop-color="#808ead"/><stop offset="0.69" stop-color="#bdc7dc"/><stop offset="1" stop-color="#d5ddef"/></linearGradient><linearGradient id="linear-gradient-5" x1="212.96" y1="154.14" x2="212.96" y2="194.11" xlink:href="#linear-gradient"/></defs><g class="cls-1"><g id="Layer_1" data-name="Layer 1"><path class="cls-2" d="M185.11,77.16l-5.58,12.62H38.79A13.79,13.79,0,0,0,25,103.57v65a13.8,13.8,0,0,0,13.79,13.8H180.73A6.82,6.82,0,0,0,194.22,181h0V179a13.78,13.78,0,0,0,4.69-10.36V91A13.8,13.8,0,0,0,185.11,77.16Z"/><path class="cls-3" d="M183.18,85.44H25v79.92h0a12.69,12.69,0,0,0,12.58,12.58c27,0,145.6-.16,145.6-.16Z"/><path class="cls-4" d="M32.67,66.49A12.56,12.56,0,0,0,25,77.9v87.62a12.62,12.62,0,0,0,12.58,12.42h1.9V85.44H37.4l.18-20a12.63,12.63,0,0,0-4.91,1Z"/><path class="cls-3" d="M37.58,62.17A12.69,12.69,0,0,0,25,74.75v90.74a12.69,12.69,0,0,1,12.58-12.58Z"/><rect class="cls-5" x="168.9" y="85.5" width="13.73" height="92.43"/><path class="cls-3" d="M170.6,78.15v87.27a12.58,12.58,0,0,0,25.15,0V78.15a12.58,12.58,0,0,0-25.15,0Z"/><path class="cls-6" d="M195.75,78.15v87.27a12.19,12.19,0,0,1-3.34,8.33,12.7,12.7,0,0,1-4.33,3,12.55,12.55,0,0,1-4.9,1v-112a12.67,12.67,0,0,1,9.23,4A12.19,12.19,0,0,1,195.75,78.15Z"/><path class="cls-7" d="M195.75,78.15v87.27a12.19,12.19,0,0,1-3.34,8.33V69.82A12.19,12.19,0,0,1,195.75,78.15Z"/><path class="cls-8" d="M195.75,165.42a12,12,0,0,1-2.19,6.89,12.74,12.74,0,0,1-6.72,4.92,12.33,12.33,0,0,1-3.66.55,12.36,12.36,0,1,1,0-24.72,12.33,12.33,0,0,1,3.66.55,12.78,12.78,0,0,1,6.72,4.91A12,12,0,0,1,195.75,165.42Z"/><path class="cls-9" d="M193.56,158.52v13.79a12.74,12.74,0,0,1-6.72,4.92V153.61A12.78,12.78,0,0,1,193.56,158.52Z"/><path class="cls-10" d="M187.75,153.93v23a12.43,12.43,0,0,1-4.57.87,12.58,12.58,0,0,1-12.58-12.36,11.59,11.59,0,0,1,.24-2.36,12.64,12.64,0,0,1,8.53-9.41,12.39,12.39,0,0,1,3.81-.59,11.42,11.42,0,0,1,1.55.1c.27,0,.54.07.8.12A12.62,12.62,0,0,1,187.75,153.93Z"/><path class="cls-11" d="M187.75,153.93v18.25a12.43,12.43,0,0,1-4.57.87,12.66,12.66,0,0,1-12.34-10,12.64,12.64,0,0,1,8.53-9.41,12.39,12.39,0,0,1,3.81-.59,11.42,11.42,0,0,1,1.55.1c.27,0,.54.07.8.12A12.62,12.62,0,0,1,187.75,153.93Z"/><rect class="cls-12" x="40.84" y="88.14" width="124.68" height="84.53"/><rect class="cls-13" x="101.23" y="155.04" width="64.29" height="17.63"/><rect class="cls-13" x="101.23" y="155.04" width="32.15" height="5.88"/><rect class="cls-13" x="101.23" y="160.92" width="32.15" height="5.88"/><rect class="cls-13" x="101.23" y="166.8" width="32.15" height="5.88"/><rect class="cls-14" x="101.23" y="155.04" width="10.72" height="17.63"/><polyline class="cls-14" points="122.66 160.89 122.66 172.64 111.94 172.64 111.94 160.89"/><rect class="cls-14" x="122.66" y="155.01" width="10.72" height="17.63"/><line class="cls-15" x1="150.18" y1="159.82" x2="160.87" y2="159.82"/><line class="cls-15" x1="137.96" y1="159.82" x2="148.53" y2="159.82"/><line class="cls-15" x1="146.11" y1="164.49" x2="160.87" y2="164.49"/><line class="cls-15" x1="137.96" y1="164.49" x2="144.46" y2="164.49"/><path class="cls-16" d="M101.11,150.79H52.69V102.37h48.42Zm-47.41-1h46.39V103.38H53.7Z"/><path class="cls-16" d="M85.51,135.19H53V102.67H85.51Zm-32.12-.41H85.1v-31.7H53.39Z"/><path class="cls-16" d="M73.36,150.48H53v-15.7H73.36Zm-20-.4H73V135.19H53.39Z"/><path class="cls-16" d="M100.8,150.48H73v-15.7H100.8Zm-27.44-.4h27V135.19h-27Z"/><rect class="cls-16" x="54.04" y="99.64" width="45.88" height="0.49"/><polygon class="cls-16" points="54.04 101.04 52.94 99.89 54.04 98.73 54.04 101.04"/><polygon class="cls-16" points="99.92 98.73 101.02 99.89 99.92 101.04 99.92 98.73"/><rect class="cls-16" x="50.13" y="103.96" width="0.49" height="45.23"/><polygon class="cls-16" points="49.22 103.96 50.38 102.87 51.53 103.96 49.22 103.96"/><polygon class="cls-16" points="51.53 149.19 50.38 150.28 49.22 149.19 51.53 149.19"/><rect class="cls-17" x="58.9" y="102.37" width="20.56" height="1.01"/><rect class="cls-17" x="52.69" y="108.65" width="1.01" height="20.56"/><rect class="cls-17" x="56.33" y="149.77" width="12.97" height="1.01"/><rect class="cls-17" x="80.4" y="149.77" width="12.97" height="1.01"/><path class="cls-16" d="M58.9,145.54a2.91,2.91,0,1,1,2.9-2.91A2.91,2.91,0,0,1,58.9,145.54Zm0-5.41a2.5,2.5,0,1,0,2.5,2.5A2.5,2.5,0,0,0,58.9,140.13Z"/><rect class="cls-18" x="72.78" y="138.87" width="0.76" height="7.52"/><rect class="cls-18" x="89.6" y="134.61" width="7.52" height="0.76"/><rect class="cls-18" x="84.92" y="115.17" width="0.76" height="7.52"/><rect class="cls-18" x="99.71" y="108.65" width="1.52" height="20.56"/><rect class="cls-16" x="102.62" y="108.65" width="1.01" height="20.56"/><rect class="cls-16" x="104.3" y="108.65" width="1.01" height="20.56"/><path class="cls-16" d="M85.08,122.79v-.25a7.43,7.43,0,0,0,6.83-7.24H85.09V115h7.07v.13A7.69,7.69,0,0,1,85.08,122.79Z"/><path class="cls-16" d="M97.24,135.2H97a7.43,7.43,0,0,0-7.25-6.83v6.82h-.25v-7.07h.12A7.69,7.69,0,0,1,97.24,135.2Z"/><path class="cls-16" d="M73,146.51v-.25A7.42,7.42,0,0,0,79.77,139H73v-.25H80v.12A7.69,7.69,0,0,1,73,146.51Z"/><line class="cls-19" x1="113.83" y1="93.08" x2="122.82" y2="93.08"/><line class="cls-19" x1="103.97" y1="93.08" x2="112.27" y2="93.08"/><line class="cls-19" x1="100.32" y1="93.08" x2="102.05" y2="93.08"/><line class="cls-19" x1="86.74" y1="93.08" x2="98.4" y2="93.08"/><line class="cls-20" x1="113.83" y1="110.03" x2="147.38" y2="110.03"/><line class="cls-20" x1="113.83" y1="112.77" x2="158.37" y2="112.77"/><line class="cls-20" x1="113.83" y1="115.52" x2="142.7" y2="115.52"/><line class="cls-20" x1="113.83" y1="118.27" x2="136.1" y2="118.27"/><line class="cls-20" x1="143.73" y1="124.11" x2="156.12" y2="124.11"/><path class="cls-2" d="M216.52,86.84A8.6,8.6,0,0,0,208,95.32c-.07,18.61-.14,57.6-.21,76.21,0,1.43,0,2.85,0,4.28a8.52,8.52,0,0,0,17,.07c.07-18.61.14-57.61.21-76.22,0-1.42,0-2.85,0-4.27A8.59,8.59,0,0,0,216.52,86.84Z"/><path class="cls-21" d="M103.62,138.41l-2.44.63-.16.88-1.55.4-.06-.23,1.22-6.78.68-.17,4.37,5.32.06.23-1.55.4Zm-2-2.67-.28,1.81,1.42-.36Z"/><path class="cls-21" d="M106.55,138.48c-.53-2.07-1.07-4.13-1.6-6.2l2.72-.71c3-.76,4.17,3.84,1.2,4.61l-1.14.3.41,1.59ZM108,133l-1.13.29.46,1.77,1.13-.29C109.36,134.54,109,132.76,108,133Z"/><path class="cls-21" d="M112.7,136.88q-.8-3.09-1.61-6.2l2.73-.71c3-.76,4.17,3.85,1.2,4.62l-1.14.29.41,1.59Zm1.48-5.49-1.13.3c.13.5.32,1.26.46,1.77l1.13-.3C115.51,132.94,115.1,131.16,114.18,131.39Z"/><path class="cls-21" d="M124,133.7l.06.23-1.77.46-1.53-1.55-.83.21.48,1.83-1.59.41-1.61-6.2,2.72-.71a2.28,2.28,0,0,1,2.35,3.67Zm-3.7-3.9-1.14.29.41,1.55,1.13-.29C121.58,131.13,121.22,129.57,120.32,129.8Z"/><path class="cls-21" d="M123.86,130.69c-1.12-4.29,5.24-5.94,6.36-1.65S125,135,123.86,130.69Zm4.74-1.23a1.61,1.61,0,1,0-3.11.8A1.61,1.61,0,1,0,128.6,129.46Z"/><path class="cls-21" d="M133.83,128.52h0l.51-3.87,1.52-.4.06.24-1.06,6.71-.67.18L130,126l-.06-.24,1.52-.4Z"/><path class="cls-21" d="M141.13,124.4l-2.29.59.23.88,2.1-.55.37,1.41-2.11.55c.1.36.19.71.29,1.09l2.37-.62.36,1.41-3.95,1q-.8-3.1-1.61-6.2l3.87-1Z"/><path class="cls-21" d="M146.16,128.2l-2.34.6-1.61-6.2,2.34-.6C148.59,121,150.19,127.13,146.16,128.2ZM145,127l.75-.2c2-.51,1.12-3.82-.86-3.31l-.75.2Z"/><path class="cls-22" d="M147.6,117.83,95.71,131.3a2.5,2.5,0,0,0-1.57,3.15l1.9,7.31a2.5,2.5,0,0,0,2.9,2l51.89-13.48a2.5,2.5,0,0,0,1.57-3.14l-1.9-7.31A2.5,2.5,0,0,0,147.6,117.83Z"/><path class="cls-23" d="M191.45,156.19v13.08a12.49,12.49,0,0,0-3.7-2.25h0s-.52-.2-.55-.2a12.59,12.59,0,0,0-7.83-.08V153.65a12.39,12.39,0,0,1,3.81-.59,11.42,11.42,0,0,1,1.55.1h0A12.66,12.66,0,0,1,191.45,156.19Z"/><path class="cls-24" d="M206.36,83.63c-.06,14.85-.12,70.69-.18,85.54,0,1.14,0,2.28,0,3.42a6.8,6.8,0,0,0,13.59,0c.06-14.85.11-70.69.17-85.54,0-1.14,0-2.28,0-3.41a6.8,6.8,0,0,0-13.59-.06Z"/><path class="cls-6" d="M212.94,179.41a6.87,6.87,0,0,0,6.82-6.77c.06-14.85.11-70.69.17-85.54,0-1.14,0-2.28,0-3.41a6.86,6.86,0,0,0-6.77-6.82Z"/><path class="cls-25" d="M212.94,179.41a6.79,6.79,0,1,0-6.77-6.82,6.84,6.84,0,0,0,6.77,6.82Z"/></g></g></svg>