<svg id="Layer_1" data-name="Layer 1" xmlns="http://www.w3.org/2000/svg" viewBox="0 0 250 250"><defs><style>.cls-1{fill:#e1e1e1;}.cls-2{fill:#ececec;}.cls-3{fill:#f5f5f5;}.cls-4{fill:#ff4f5b;}.cls-5{opacity:0.3;}.cls-6{fill:#fafafa;}.cls-7{fill:#1a2e35;}.cls-8{fill:#fff;}.cls-9{fill:#375a64;}.cls-10{opacity:0.4;}.cls-11{fill:#ffbf9d;}.cls-12{fill:#ff9a6c;}</style></defs><polygon class="cls-1" points="237.27 212.08 233.63 249.38 214.38 249.38 210.59 212.08 237.27 212.08"/><rect class="cls-2" x="208.31" y="209.35" width="31.84" height="2.73" transform="translate(448.46 421.43) rotate(180)"/><polygon class="cls-2" points="234.09 204.65 237.27 209.96 211.95 209.96 213.16 204.65 234.09 204.65"/><polygon class="cls-3" points="236.05 224.64 234.75 237.95 213.21 237.95 211.86 224.64 236.05 224.64"/><path class="cls-1" d="M221.19,235a6.14,6.14,0,0,1,1-3.29c.54-.84,1.19-1.56,1.72-2.28a6.81,6.81,0,0,0,1.11-2.1,4.42,4.42,0,0,0,.17-.92l.15.08a3.35,3.35,0,0,1,1.4,2.19,6.29,6.29,0,0,1-.12,2.66,5.7,5.7,0,0,1-1.4,2.83,3.85,3.85,0,0,1-3.36,1A3,3,0,0,1,221.19,235Z"/><path class="cls-1" d="M219.56,232.11a11.15,11.15,0,0,1,.68-3.49,3.87,3.87,0,0,1,2.55-2.36,3,3,0,0,1,1.85.09,3.81,3.81,0,0,1-.23.93,6.94,6.94,0,0,1-1.14,2c-.52.69-1.18,1.4-1.75,2.28a6.23,6.23,0,0,0-1,2.75c0,.2,0,.4,0,.59a2.07,2.07,0,0,1-.73-.74A3.58,3.58,0,0,1,219.56,232.11Z"/><path class="cls-4" d="M43.18,189l1.61,29.61a2,2,0,0,0,2,1.89l53.29.39a2,2,0,0,0,2-2l.17-23a2,2,0,0,0-2-2l-32.77,0a2,2,0,0,1-1.41-.59l-5.66-5.65A2,2,0,0,0,59,187l-13.82-.1A2,2,0,0,0,43.18,189Z"/><g class="cls-5"><path d="M43.18,189l1.61,29.61a2,2,0,0,0,2,1.89l53.29.39a2,2,0,0,0,2-2l.17-23a2,2,0,0,0-2-2l-32.77,0a2,2,0,0,1-1.41-.59l-5.66-5.65A2,2,0,0,0,59,187l-13.82-.1A2,2,0,0,0,43.18,189Z"/></g><rect class="cls-3" x="43.93" y="190.15" width="58.22" height="34.79" transform="translate(1.52 -0.53) rotate(0.42)"/><path class="cls-6" d="M39.4,193l4.18,36.31a1.29,1.29,0,0,0,1.27,1.14l56.74.42a1.29,1.29,0,0,0,1.29-1.18L106,193.46a1.29,1.29,0,0,0-1.27-1.4l-64-.47A1.3,1.3,0,0,0,39.4,193Z"/><path class="cls-1" d="M27.5,183.41,29.11,213a2,2,0,0,0,2,1.89l53.29.39a2,2,0,0,0,2-2l.17-23a2,2,0,0,0-2-2l-32.77,0a2,2,0,0,1-1.41-.59L44.73,182a2,2,0,0,0-1.4-.58l-13.82-.1A2,2,0,0,0,27.5,183.41Z"/><rect class="cls-3" x="28.25" y="184.56" width="58.22" height="34.79" transform="translate(1.48 -0.41) rotate(0.42)"/><path class="cls-1" d="M23.73,187.44l4.18,36.31a1.29,1.29,0,0,0,1.27,1.14l56.73.41a1.27,1.27,0,0,0,1.29-1.17l3.13-36.26a1.3,1.3,0,0,0-1.28-1.4L25,186A1.29,1.29,0,0,0,23.73,187.44Z"/><path class="cls-3" d="M9.84,190.35,11.45,220a2,2,0,0,0,2,1.89l53.28.39a2,2,0,0,0,2-2l.16-23a2,2,0,0,0-2-2l-32.77,0a2,2,0,0,1-1.42-.58l-5.65-5.65a2,2,0,0,0-1.4-.59l-13.81-.1A2,2,0,0,0,9.84,190.35Z"/><rect class="cls-3" x="10.59" y="191.5" width="58.22" height="34.79" transform="translate(1.53 -0.29) rotate(0.42)"/><path class="cls-3" d="M6.06,194.37l4.18,36.31a1.28,1.28,0,0,0,1.27,1.14l56.74.42a1.29,1.29,0,0,0,1.29-1.18l3.12-36.26a1.28,1.28,0,0,0-1.27-1.39l-64-.47A1.28,1.28,0,0,0,6.06,194.37Z"/><path class="cls-2" d="M0,199.31v50.37H72.66V199.31Zm45.23,12.78H27.44a3.72,3.72,0,0,1,0-7.44H45.23a3.72,3.72,0,0,1,0,7.44Z"/><path class="cls-1" d="M72.66,199.31v50.37h39.18V199.31Z"/><path class="cls-7" d="M248.61,249.68c0,.08-55.63.14-124.24.14S.11,249.76.11,249.68s55.62-.14,124.26-.14S248.61,249.6,248.61,249.68Z"/><path class="cls-8" d="M190.44,138.28l5.48-9.65a25.85,25.85,0,1,1,6.19,6.89h0Z"/><path class="cls-7" d="M190.44,138.28l11.67-2.82,0,.11h0l-.33-.42.43.33a26.7,26.7,0,0,0,5.29,3.15,25.75,25.75,0,0,0,7,2,22.57,22.57,0,0,0,4.06.19c.69,0,1.4-.06,2.12-.12l2.16-.33a25.85,25.85,0,0,0,16-10.3,25.57,25.57,0,0,0,4.31-9.87,26.2,26.2,0,0,0-.31-11.37,25.33,25.33,0,0,0-5.48-10.5l-1-1.15c-.35-.38-.76-.7-1.13-1.06s-.74-.71-1.15-1l-1.23-.91a10.73,10.73,0,0,0-1.27-.84l-1.29-.79-1.36-.66a11.92,11.92,0,0,0-1.37-.61A26,26,0,0,0,216,89.51a25.06,25.06,0,0,0-10.52,3.09,26,26,0,0,0-12.17,14.92,27.83,27.83,0,0,0-1.14,8.33,25.67,25.67,0,0,0,1.23,7.2,26.18,26.18,0,0,0,2.54,5.54l0,0,0,0c-3.54,6.17-5.29,9.21-5.53,9.62.23-.42,1.94-3.48,5.42-9.69v.07a25.91,25.91,0,0,1-2.59-5.56,25.52,25.52,0,0,1-1.26-7.25,28,28,0,0,1,1.12-8.4,26.19,26.19,0,0,1,12.26-15.08A25.5,25.5,0,0,1,216,89.24,26.41,26.41,0,0,1,227.58,91a13.35,13.35,0,0,1,1.39.62l1.37.67,1.31.79a10.93,10.93,0,0,1,1.28.85l1.24.93c.42.3.78.68,1.17,1s.79.68,1.14,1.07l1.05,1.16a25.57,25.57,0,0,1,5.54,10.61,26.29,26.29,0,0,1,.3,11.49,25.73,25.73,0,0,1-4.36,10,26.18,26.18,0,0,1-7.44,6.95,25.85,25.85,0,0,1-8.7,3.41l-2.18.33c-.72.06-1.44.08-2.14.12a23.86,23.86,0,0,1-4.09-.2,26,26,0,0,1-7.08-2,26.66,26.66,0,0,1-5.31-3.2l.1-.1h0l.06.09-.1,0Z"/><path class="cls-7" d="M223.77,116.38c-2.61,0-4.43-1.92-4.43-5s1.82-5,4.43-5,4.46,2,4.46,5S226.38,116.38,223.77,116.38Zm0-2.13c1.1,0,1.87-1,1.87-2.88s-.77-2.88-1.87-2.88-1.87.94-1.87,2.88S222.65,114.25,223.77,114.25Zm1.56,10.49h-3l-12.24-18.17h3Zm-13.72.2c-2.61,0-4.46-1.94-4.46-5s1.85-5,4.46-5,4.43,1.94,4.43,5S214.2,124.94,211.61,124.94Zm0-2.12c1.1,0,1.87-.94,1.87-2.88s-.77-2.88-1.87-2.88-1.87,1-1.87,2.88S210.48,122.82,211.61,122.82Z"/><polygon class="cls-4" points="17.11 220.75 21.5 249.56 46.97 249.56 52.88 221.16 17.11 220.75"/><path class="cls-6" d="M49.32,239.22c0,.08-6.53.14-14.58.14s-14.58-.06-14.58-.14,6.53-.15,14.58-.15S49.32,239.13,49.32,239.22Z"/><path class="cls-6" d="M49.42,237.8c0,.08-6.57.15-14.68.15s-14.68-.07-14.68-.15,6.57-.15,14.68-.15S49.42,237.72,49.42,237.8Z"/><path class="cls-6" d="M49.37,236.2c0,.08-6.57.15-14.68.15S20,236.28,20,236.2s6.57-.15,14.68-.15S49.37,236.11,49.37,236.2Z"/><path class="cls-6" d="M24.42,247.92a46.84,46.84,0,0,1-1.27-7.31,23.51,23.51,0,0,1,.78,3.63A23.7,23.7,0,0,1,24.42,247.92Z"/><path class="cls-6" d="M26.15,247.61a28.58,28.58,0,0,1-.31-3.54,30,30,0,0,1-.17-3.55,17.54,17.54,0,0,1,.47,3.53A17.15,17.15,0,0,1,26.15,247.61Z"/><path class="cls-6" d="M29.31,247.61a18,18,0,0,1-.66-3.63,17.47,17.47,0,0,1-.19-3.68A33.62,33.62,0,0,1,29,244,30.53,30.53,0,0,1,29.31,247.61Z"/><path class="cls-6" d="M31.53,247.76a17.7,17.7,0,0,1-.35-3.68,18.13,18.13,0,0,1,.11-3.71,33.17,33.17,0,0,1,.19,3.7A33.51,33.51,0,0,1,31.53,247.76Z"/><path class="cls-6" d="M35.46,247.61a19,19,0,0,1-.27-3.5,20.52,20.52,0,0,1,0-3.51,41.05,41.05,0,0,1,.24,7Z"/><path class="cls-6" d="M38.32,247.77a23.53,23.53,0,0,1-.12-3.63,22.86,22.86,0,0,1,.18-3.62,22.12,22.12,0,0,1,.12,3.63A20.32,20.32,0,0,1,38.32,247.77Z"/><path class="cls-6" d="M41,247.38a24.94,24.94,0,0,1,.22-3.78,24.38,24.38,0,0,1,.51-3.76,22.73,22.73,0,0,1-.21,3.78A25.07,25.07,0,0,1,41,247.38Z"/><path class="cls-6" d="M44.48,247a12.5,12.5,0,0,1,.43-3.22,13.23,13.23,0,0,1,.94-3.1,25.24,25.24,0,0,1-.65,3.17A29.68,29.68,0,0,1,44.48,247Z"/><path class="cls-9" d="M42,163.88s0,.05,0,.14-.07.25-.12.41c-.11.38-.28.9-.48,1.56s-.48,1.49-.75,2.46-.61,2.06-.92,3.29-.67,2.56-1,4-.65,3-1,4.64c-.61,3.29-1.17,6.92-1.56,10.76s-.55,7.51-.6,10.85c0,1.67,0,3.26,0,4.74s.1,2.87.18,4.13.17,2.4.25,3.4.16,1.87.24,2.57.13,1.23.17,1.62c0,.17,0,.31,0,.42s0,.15,0,.15a.59.59,0,0,1,0-.14c0-.12,0-.25-.07-.42-.05-.4-.13-.93-.22-1.62s-.21-1.56-.3-2.56-.23-2.14-.29-3.4-.18-2.65-.22-4.14-.07-3.08-.07-4.75c0-3.35.2-7,.57-10.88s1-7.49,1.59-10.78c.34-1.64.64-3.2,1-4.65s.69-2.79,1-4,.67-2.31,1-3.28.56-1.78.8-2.45l.54-1.54L42,164Z"/><path class="cls-9" d="M37.43,181.73a9.41,9.41,0,0,1,4-5,2.26,2.26,0,0,1,2.09-.38c.89.43,1,1.68.7,2.63a7,7,0,0,1-2.89,3.93A5.89,5.89,0,0,1,37,184"/><path class="cls-9" d="M35.88,193.77c.66-2.48,2.64-6,4.7-7.56a3.16,3.16,0,0,1,1.07-.57,1.25,1.25,0,0,1,1.14.25,1.76,1.76,0,0,1,.26,1.65A10,10,0,0,1,35.62,195"/><path class="cls-9" d="M35.45,204.38a14.57,14.57,0,0,1,4.75-6,2.22,2.22,0,0,1,1.65-.59c.9.16,1.31,1.26,1.23,2.17-.16,1.87-1.6,3.38-3.08,4.54a18.91,18.91,0,0,1-4.38,2.26"/><path class="cls-9" d="M35.69,212a14,14,0,0,1,4-4.6,2.93,2.93,0,0,1,1.21-.54,1.24,1.24,0,0,1,1.19.45c.4.59,0,1.4-.42,2A11.58,11.58,0,0,1,36,213.52"/><path class="cls-9" d="M35.49,208.91A45.15,45.15,0,0,0,29.72,203c-.33-.28-.74-.57-1.15-.44a.87.87,0,0,0-.53.78,2.14,2.14,0,0,0,.22,1,11.2,11.2,0,0,0,7.43,6.26"/><path class="cls-9" d="M35.68,199l-4.54-5.53a5.43,5.43,0,0,0-1.47-1.4,1.88,1.88,0,0,0-1.94,0,1.84,1.84,0,0,0-.62,1.82,4.91,4.91,0,0,0,.89,1.82,13.3,13.3,0,0,0,3.3,3.51,5.53,5.53,0,0,0,4.14,1.28"/><path class="cls-9" d="M36.31,187.82A15.74,15.74,0,0,0,31.74,181a2.63,2.63,0,0,0-1.19-.7,2,2,0,0,0-2.08,1.46,3.74,3.74,0,0,0,.42,3A7.78,7.78,0,0,0,31,187a18.21,18.21,0,0,0,5,2.72"/><path class="cls-9" d="M38.12,177.86c-.44-3.21-2.11-5.88-4-8.47-.41-.55-1-1.13-1.65-1a1.3,1.3,0,0,0-.95.81,3.09,3.09,0,0,0-.18,1.28,9.88,9.88,0,0,0,6.43,8.84"/><path class="cls-9" d="M39.39,172.77a26.56,26.56,0,0,1-.17-5,8.85,8.85,0,0,1,1.65-4.61,3.75,3.75,0,0,1,1.64-1.31,2.08,2.08,0,0,1,2,.26,2.18,2.18,0,0,1,.69,1.78,5.32,5.32,0,0,1-.51,1.9c-1.2,2.91-3.22,6.13-5.32,6.94"/><path class="cls-7" d="M19.63,176.59a2.18,2.18,0,0,1,0,.41c0,.29,0,.68,0,1.16s0,1.12,0,1.84,0,1.53.09,2.43c.07,1.8.25,3.95.52,6.32s.7,4.95,1.26,7.65,1.24,5.23,1.92,7.51,1.41,4.31,2.06,6c.31.85.63,1.6.9,2.26s.5,1.23.71,1.7.34.79.45,1.07a1.29,1.29,0,0,1,.14.38s-.07-.12-.19-.36l-.51-1.05c-.22-.45-.48-1-.76-1.67s-.62-1.41-.94-2.26c-.68-1.67-1.4-3.7-2.12-6s-1.38-4.83-2-7.53-.95-5.31-1.23-7.68-.41-4.53-.47-6.34c0-.9,0-1.72,0-2.44s0-1.34,0-1.84,0-.87.05-1.17A2.12,2.12,0,0,1,19.63,176.59Z"/><path class="cls-7" d="M20.34,189.73A6.78,6.78,0,0,1,22,185.47a1.62,1.62,0,0,1,1.35-.71c.69.1,1,.93,1,1.64a5,5,0,0,1-1.12,3.29,4.18,4.18,0,0,1-2.71,1.68"/><path class="cls-7" d="M21.88,198.26a11.3,11.3,0,0,1,1.58-6.16,2.18,2.18,0,0,1,.6-.61.88.88,0,0,1,.83-.08,1.23,1.23,0,0,1,.53,1.07A7.14,7.14,0,0,1,22,199.17"/><path class="cls-7" d="M23.87,205.58a10.57,10.57,0,0,1,1.95-5.09,1.6,1.6,0,0,1,1-.75c.65-.09,1.16.57,1.3,1.21A5,5,0,0,1,27,204.71a13.4,13.4,0,0,1-2.5,2.48"/><path class="cls-7" d="M25.68,210.72a10,10,0,0,1,1.76-4,2,2,0,0,1,.71-.63.86.86,0,0,1,.9,0c.41.32.32,1,.14,1.43a8.19,8.19,0,0,1-3,4.12"/><path class="cls-7" d="M24.88,208.65a32.37,32.37,0,0,0-5.2-2.76.92.92,0,0,0-.88,0,.61.61,0,0,0-.19.64,1.52,1.52,0,0,0,.36.61,8,8,0,0,0,6.4,2.66"/><path class="cls-7" d="M22.87,201.86l-4.28-2.79a3.94,3.94,0,0,0-1.3-.64,1.36,1.36,0,0,0-1.33.41,1.32,1.32,0,0,0,0,1.37,3.45,3.45,0,0,0,1,1,9.76,9.76,0,0,0,3,1.68,4,4,0,0,0,3.1,0"/><path class="cls-7" d="M20.89,194.12a11.3,11.3,0,0,0-4.58-3.69,1.9,1.9,0,0,0-1-.21,1.41,1.41,0,0,0-1.1,1.44,2.67,2.67,0,0,0,.93,2,5.4,5.4,0,0,0,1.93,1.08,13.14,13.14,0,0,0,4,.77"/><path class="cls-7" d="M20,186.94a13.3,13.3,0,0,0-4.57-4.89c-.4-.28-.91-.56-1.35-.34a.94.94,0,0,0-.47.76,2.25,2.25,0,0,0,.16.91A7.05,7.05,0,0,0,20,188"/><path class="cls-7" d="M19.75,183.21a19.23,19.23,0,0,1-1.18-3.34,6.31,6.31,0,0,1,.13-3.5,2.7,2.7,0,0,1,.83-1.24,1.49,1.49,0,0,1,1.44-.26,1.58,1.58,0,0,1,.85,1.06,3.93,3.93,0,0,1,.06,1.41c-.19,2.24-.87,4.86-2.13,5.87"/><path class="cls-9" d="M51.84,176.31a2.59,2.59,0,0,1,0,.4c0,.3,0,.69,0,1.17s0,1.12,0,1.84,0,1.54,0,2.44c0,1.81-.21,4-.47,6.34s-.67,5-1.23,7.68-1.26,5.25-2,7.53-1.44,4.32-2.12,6c-.32.85-.66,1.6-.94,2.26s-.54,1.22-.76,1.67l-.51,1.05a1.82,1.82,0,0,1-.19.36,2.06,2.06,0,0,1,.14-.38c.12-.27.27-.63.45-1.07s.45-1,.72-1.7.59-1.41.9-2.26c.65-1.68,1.35-3.72,2-6s1.35-4.82,1.93-7.51,1-5.29,1.25-7.65.45-4.52.53-6.32c.06-.9.06-1.72.09-2.43s0-1.34,0-1.84,0-.87,0-1.16A1.85,1.85,0,0,1,51.84,176.31Z"/><path class="cls-9" d="M51.13,189.45a6.73,6.73,0,0,0-1.62-4.26,1.6,1.6,0,0,0-1.34-.71c-.7.1-1,.93-1,1.64a4.93,4.93,0,0,0,1.12,3.29A4.18,4.18,0,0,0,51,191.09"/><path class="cls-9" d="M49.59,198A11.4,11.4,0,0,0,48,191.82a2.21,2.21,0,0,0-.61-.61.88.88,0,0,0-.83-.08,1.26,1.26,0,0,0-.53,1.07,7.16,7.16,0,0,0,3.45,6.69"/><path class="cls-9" d="M47.6,205.3a10.38,10.38,0,0,0-2-5.09,1.6,1.6,0,0,0-1-.75c-.64-.09-1.16.57-1.3,1.21a5.06,5.06,0,0,0,1.11,3.76A13.65,13.65,0,0,0,47,206.91"/><path class="cls-9" d="M45.8,210.44a10.15,10.15,0,0,0-1.76-4,2.14,2.14,0,0,0-.71-.63.87.87,0,0,0-.91.05c-.4.32-.31.95-.14,1.43a8.21,8.21,0,0,0,3,4.12"/><path class="cls-9" d="M46.6,208.37a32.65,32.65,0,0,1,5.19-2.76.93.93,0,0,1,.88-.05.61.61,0,0,1,.19.64,1.5,1.5,0,0,1-.35.61,8,8,0,0,1-6.41,2.66"/><path class="cls-9" d="M48.61,201.58l4.28-2.79a3.76,3.76,0,0,1,1.3-.64,1.34,1.34,0,0,1,1.32.41,1.3,1.3,0,0,1,0,1.37,3.54,3.54,0,0,1-1,1,9.93,9.93,0,0,1-3,1.68,3.94,3.94,0,0,1-3.09,0"/><path class="cls-9" d="M50.58,193.84a11.36,11.36,0,0,1,4.58-3.69,1.92,1.92,0,0,1,1-.21,1.43,1.43,0,0,1,1.11,1.44,2.67,2.67,0,0,1-.93,2,5.53,5.53,0,0,1-1.94,1.08,12.85,12.85,0,0,1-4,.77"/><path class="cls-9" d="M51.49,186.66a13.24,13.24,0,0,1,4.58-4.89c.39-.28.9-.56,1.34-.34a.94.94,0,0,1,.47.76,2.23,2.23,0,0,1-.15.91,7.1,7.1,0,0,1-6.28,4.64"/><path class="cls-9" d="M51.72,182.93a18.17,18.17,0,0,0,1.18-3.34,6.31,6.31,0,0,0-.12-3.5,2.8,2.8,0,0,0-.84-1.24,1.49,1.49,0,0,0-1.43-.26,1.58,1.58,0,0,0-.86,1.07,4.1,4.1,0,0,0-.06,1.4c.2,2.24.88,4.86,2.13,5.87"/><path class="cls-4" d="M14.19,215v5.39a2.12,2.12,0,0,0,2.12,2.12H53.2a2.12,2.12,0,0,0,2.12-2.12V215Z"/><g class="cls-10"><polygon points="17.39 222.56 17.69 224.27 51.73 226.7 52.59 222.56 17.39 222.56"/></g><path class="cls-7" d="M189.35,249.58h43.76L250,242.69V241l-27.57.18-13.09,6.37-17.52-.29A2.43,2.43,0,0,0,189.35,249.58Z"/><path class="cls-9" d="M250,242.69l-.41,0-1.16.05-4.3.14-14.16.36-6.76.14.06,0-8.43,4.49-2.43,1.27-.66.33-.23.1a.87.87,0,0,1,.21-.14l.64-.37,2.4-1.33c2.08-1.15,5-2.73,8.37-4.58l0,0h0L230,243l14.17-.27,4.29-.05h1.17A1.85,1.85,0,0,1,250,242.69Z"/><path class="cls-7" d="M153.08,63.55c-6.91-1.5-14.32.82-19.86,5.23s-9.34,10.7-11.76,17.35-3.53,13.7-4.48,20.71q-2.36,17.46-3.36,35.06a9.79,9.79,0,0,0,.42,4.35,6.61,6.61,0,0,0,4.93,3.56,19.55,19.55,0,0,0,6.29-.15"/><path class="cls-7" d="M162.21,66.48c5.37-.43,11.91,1.6,15,6C179.57,76,179,82,179.85,86.1c1.33,6.58,2.66,13.21,2.85,19.92.2,7.38-1,14.72-2.16,22q-1.95,12.09-3.91,24.17c-.57,3.58-1.18,7.24-2.87,10.46s-4.68,6-8.29,6.39a10.63,10.63,0,0,1-8.84-3.73,20.25,20.25,0,0,1-4.26-8.9"/><path class="cls-7" d="M177,143.22c-.18-.09.09-1,.69-2.67s1.53-4,2.57-6.88a63.71,63.71,0,0,0,2.89-10.31,34.18,34.18,0,0,0,0-12.8,113.5,113.5,0,0,0-3.55-12.72A62.26,62.26,0,0,1,177,87a26.1,26.1,0,0,1,0-7.55c.32-1.77.73-2.68.9-2.64.44.07-.27,3.9,1,9.87A81.8,81.8,0,0,0,182,97a90.6,90.6,0,0,1,3.85,13c.23,1.2.38,2.41.49,3.61.05.61.09,1.2.09,1.8s0,1.18,0,1.77a35.57,35.57,0,0,1-.82,6.63,52.31,52.31,0,0,1-3.59,10.56,66.47,66.47,0,0,1-3.43,6.6C177.74,142.52,177.14,143.3,177,143.22Z"/><path class="cls-11" d="M131.34,88.47a22.65,22.65,0,0,1,24.91-21.06,23.32,23.32,0,0,1,20.92,24c-.33,10.59-.9,21.23-1.65,25-2.26,11.35-9.86,14.52-12.86,15.34a16.14,16.14,0,0,1-3.19.18h0a.07.07,0,0,0-.08.07l.15,13.54c-.43,8.77-6.71,15.5-15.64,15.13s-14.56-8.21-14.3-17Z"/><path class="cls-7" d="M172.32,98.14a1.84,1.84,0,0,1-1.87,1.78,1.79,1.79,0,0,1-1.87-1.74,1.84,1.84,0,0,1,1.87-1.78A1.79,1.79,0,0,1,172.32,98.14Z"/><path class="cls-7" d="M173.93,94c-.24.23-1.62-.86-3.64-.94s-3.52.85-3.73.6.15-.53.81-1a5.16,5.16,0,0,1,3-.77,5,5,0,0,1,2.88,1C173.85,93.43,174,93.87,173.93,94Z"/><path class="cls-7" d="M153.5,97.7a1.85,1.85,0,0,1-1.88,1.78,1.79,1.79,0,0,1-1.86-1.74A1.84,1.84,0,0,1,151.63,96,1.79,1.79,0,0,1,153.5,97.7Z"/><path class="cls-7" d="M154.12,93.52c-.24.23-1.62-.86-3.63-.94s-3.53.85-3.74.6.15-.54.81-1a5.26,5.26,0,0,1,3-.78,5,5,0,0,1,2.88,1C154.05,93,154.24,93.41,154.12,93.52Z"/><path class="cls-7" d="M160.9,108.5a12.76,12.76,0,0,1,3.29-.45c.51,0,1-.11,1.1-.45a2.48,2.48,0,0,0-.29-1.51c-.44-1.24-.89-2.55-1.38-3.91C161.71,96.61,160.35,92,160.57,92s2,4.38,3.88,10l1.32,3.93a2.9,2.9,0,0,1,.19,2,1.28,1.28,0,0,1-.87.71,3.63,3.63,0,0,1-.88.08A13.79,13.79,0,0,1,160.9,108.5Z"/><path class="cls-12" d="M159.39,131.88s-7.79.31-17.31-5.84c0,0,2.7,10.22,17.35,9.49Z"/><path class="cls-12" d="M159.87,113.23a3.68,3.68,0,0,0-3.2-1.46,3.3,3.3,0,0,0-2.33,1.11,2,2,0,0,0-.25,2.35,2.46,2.46,0,0,0,2.62.77,7.64,7.64,0,0,0,2.62-1.4,2.15,2.15,0,0,0,.6-.56.67.67,0,0,0,0-.74"/><path class="cls-7" d="M154.92,109.62c.33,0,.25,2.14,2.07,3.74s4.15,1.47,4.16,1.77c0,.13-.54.39-1.52.38a5.55,5.55,0,0,1-3.48-1.35,4.67,4.67,0,0,1-1.59-3.14C154.51,110.12,154.77,109.6,154.92,109.62Z"/><path class="cls-7" d="M155.15,90.09c-.21.53-2.21.19-4.59.37s-4.3.74-4.6.24c-.13-.23.22-.73,1-1.22a8.16,8.16,0,0,1,7-.46C154.83,89.4,155.25,89.84,155.15,90.09Z"/><path class="cls-7" d="M173.33,89.9c-.37.43-1.74-.09-3.4-.18s-3.1.17-3.4-.31c-.14-.24.1-.68.73-1.08a4.8,4.8,0,0,1,2.8-.62,4.72,4.72,0,0,1,2.69,1C173.32,89.21,173.5,89.68,173.33,89.9Z"/><path class="cls-11" d="M156.6,137.24s26.27,10.15,29.46,12a15.76,15.76,0,0,1,4.21,3.11l-18.46,17.5H136.34l-27.13-18.49,4.73-12,15.12-3.44"/><path class="cls-12" d="M100.1,238.85a15.64,15.64,0,0,1-.61-6.88c.09,0,0,1.55.2,3.45S100.18,238.83,100.1,238.85Z"/><path class="cls-4" d="M190.27,152.32l-4.83,3.2-1.17,85.59L207.38,228S195.89,154.09,190.27,152.32Z"/><path class="cls-4" d="M113.94,139.3s-17.75,1.18-21.89,7.4-17.46,65.39-17.46,65.39-7.09,10.59-7.67,13.2c-.78,3.51-1.5,10.51-1.5,10.51l4.42,6.44L71.61,244S70.45,224.18,91.16,230l5.92-.52,5.94-35.6,2.93,29-7.43,26.85,85.73-.05,2.33-94.87s-11.18,5.88-22.93,4.36C156.74,158.23,124,149.66,113.94,139.3Z"/><path class="cls-7" d="M96.5,226.4s-.19-.42-.54-1.16a15.43,15.43,0,0,0-1.85-2.91,15.6,15.6,0,0,0-3.79-3.41,14.52,14.52,0,0,0-12-1.85,15.63,15.63,0,0,0-4.64,2.12A15.29,15.29,0,0,0,71,221.41c-.55.6-.84,1-.86.94a1.25,1.25,0,0,1,.19-.27c.14-.17.31-.44.59-.74A14.26,14.26,0,0,1,73.56,219a15.5,15.5,0,0,1,4.69-2.2,15.11,15.11,0,0,1,16,5.39,14,14,0,0,1,1.8,3,9.05,9.05,0,0,1,.34.88A1.1,1.1,0,0,1,96.5,226.4Z"/><path class="cls-7" d="M96.78,224.08a5.83,5.83,0,0,1-.2-.88,18.7,18.7,0,0,0-.64-2.37A17.86,17.86,0,0,0,85,209.69a20,20,0,0,0-2.35-.69,8.29,8.29,0,0,1-.88-.21H82c.15,0,.38,0,.66.09a16.47,16.47,0,0,1,2.4.61,17.42,17.42,0,0,1,11.06,11.27,15.54,15.54,0,0,1,.56,2.41c0,.28.06.51.08.66A1.08,1.08,0,0,1,96.78,224.08Z"/><path class="cls-7" d="M103,193.85s-.07-.07-.17-.24l-.43-.72c-.37-.63-.89-1.55-1.53-2.69-1.27-2.29-3-5.47-4.84-9s-3.57-6.71-4.85-9l-1.51-2.7c-.17-.29-.3-.54-.41-.73a1.13,1.13,0,0,1-.13-.27,1.47,1.47,0,0,1,.18.24l.45.71c.39.62.94,1.52,1.6,2.65,1.32,2.26,3.05,5.43,4.92,8.95l4.76,9,1.45,2.74.39.74A1.17,1.17,0,0,1,103,193.85Z"/><path class="cls-7" d="M101.88,162.19s0,.14,0,.42,0,.71,0,1.21c0,1.05,0,2.57.06,4.45.07,3.75.26,8.93.57,14.65s.7,10.9,1,14.64c.15,1.85.27,3.36.36,4.44q.06.75.09,1.2a2.66,2.66,0,0,1,0,.42,1.72,1.72,0,0,1-.07-.41l-.15-1.2c-.12-1-.28-2.56-.45-4.43-.35-3.74-.76-8.92-1.08-14.64s-.47-10.91-.49-14.67c0-1.88,0-3.4,0-4.45l0-1.21A1.69,1.69,0,0,1,101.88,162.19Z"/><path class="cls-7" d="M159.18,241.62l-.15-.05-.41-.17-1.58-.67c-.69-.29-1.53-.66-2.49-1.12s-2.06-1-3.25-1.57l-1.87-.95c-.65-.33-1.31-.71-2-1.08-1.39-.74-2.83-1.61-4.36-2.5-3-1.84-6.27-4-9.57-6.37s-6.3-4.9-9-7.23c-1.31-1.19-2.56-2.3-3.68-3.41-.57-.54-1.13-1.06-1.64-1.58l-1.47-1.5c-.94-.94-1.75-1.85-2.47-2.63s-1.33-1.46-1.81-2l-1.12-1.31-.28-.35C112,207,112,207,112,207l.11.11.3.32,1.16,1.28c.5.56,1.11,1.23,1.84,2s1.55,1.66,2.5,2.59l1.48,1.49c.52.51,1.08,1,1.65,1.57,1.12,1.09,2.38,2.2,3.69,3.38,2.67,2.32,5.67,4.77,9,7.19s6.54,4.53,9.55,6.38c1.52.9,2.95,1.77,4.33,2.51.69.38,1.35.76,2,1.1l1.86,1c1.18.64,2.28,1.14,3.23,1.61s1.78.86,2.46,1.16l1.56.72.41.2Z"/><path class="cls-7" d="M78.94,214.57l28.46,30.85,2.14,4.58L105,247.73,76.1,217.22a1.93,1.93,0,0,1,.17-2.83h0A1.94,1.94,0,0,1,78.94,214.57Z"/><path class="cls-7" d="M185.36,180.73s0,.06,0,.17v.47l0,1.82c0,1.6-.09,3.88-.16,6.69-.13,5.66-.32,13.45-.53,22.06s-.29,16.41-.39,22.08c0,2.8-.09,5.08-.12,6.68,0,.78,0,1.39,0,1.82V243c0,.1,0,.16,0,.16s0-.06,0-.16v-.48c0-.43,0-1,0-1.82,0-1.6,0-3.88,0-6.69.05-5.65.13-13.45.31-22.07s.42-16.42.61-22.07c.11-2.81.19-5.09.25-6.69,0-.77.07-1.38.08-1.81l0-.48C185.35,180.79,185.36,180.73,185.36,180.73Z"/><g class="cls-5"><path d="M114.58,210s13,8.94,20.25,11.86,14.85,5.31,21.9,8.8c2.07,1,4.41,2.76,4,5a3.76,3.76,0,0,1-2.93,2.72,11.26,11.26,0,0,1-4.21-.07l-1.8-.12S128.85,226.4,114.58,210Z"/></g><path class="cls-7" d="M202.32,218.15s-.34,0-1,.13a21.33,21.33,0,0,0-2.6.51,20.37,20.37,0,0,0-13.24,10.6,24.79,24.79,0,0,0-1.06,2.44,7.52,7.52,0,0,1-.34.91.91.91,0,0,1,0-.24,7.25,7.25,0,0,1,.19-.71,17.64,17.64,0,0,1,1-2.48,19.79,19.79,0,0,1,13.36-10.72,18.91,18.91,0,0,1,2.64-.42,7.3,7.3,0,0,1,.73,0C202.24,218.13,202.32,218.14,202.32,218.15Z"/><g class="cls-5"><path d="M184.07,232.05A20.48,20.48,0,0,1,196.62,216a4.31,4.31,0,0,1,2.33-.4,1.72,1.72,0,0,1,1.5,1.59c0,1.16-1.43,1.67-2.54,2a19.44,19.44,0,0,0-8,5.27,58.25,58.25,0,0,0-5.86,7.67"/></g><g class="cls-5"><path d="M97,226.82A19.42,19.42,0,0,0,84.2,210.34a6.17,6.17,0,0,0-2.58-.42,2.68,2.68,0,0,0-2.14,1.33,2.76,2.76,0,0,0,.75,3.06,7.45,7.45,0,0,0,3,1.55c3,1,6.15,1.87,8.72,3.75s3.33,4.16,5.08,7.21"/></g><path class="cls-6" d="M193.83,159l-.24.15-.72.4-1.17.65c-.46.26-1,.57-1.61.86a71.77,71.77,0,0,1-10.76,4.4l-1.8.58-1.9.51c-.65.16-1.31.36-2,.51l-2.08.45-1.07.23-1.1.18-2.24.37c-.76.11-1.54.19-2.33.29s-1.58.19-2.39.24L160,169l-2.53.07-1.28,0-1.3,0c-.86,0-1.74,0-2.63-.09a75.84,75.84,0,0,1-10.85-1.39,80.56,80.56,0,0,1-10.54-2.94c-3.35-1.16-6.51-2.43-9.51-3.68-6-2.52-11.32-4.9-15.9-6.67a59.57,59.57,0,0,0-11.06-3.48,17.23,17.23,0,0,0-3.14-.21c-.36,0-.64,0-.82.05l-.28,0a7.83,7.83,0,0,1,1.1-.12,15.06,15.06,0,0,1,3.16.16c2.73.37,6.52,1.66,11.11,3.4s9.94,4.11,15.93,6.61c3,1.24,6.16,2.51,9.5,3.66a78.57,78.57,0,0,0,10.51,2.92,76.61,76.61,0,0,0,10.81,1.4c.88.06,1.75.05,2.62.08l1.29,0,1.28,0,2.51-.06,2.46-.17c.81,0,1.6-.14,2.38-.23s1.56-.17,2.32-.28l2.24-.37,1.09-.18,1.07-.22,2.08-.44c.68-.15,1.33-.34,2-.5l1.9-.5,1.8-.56A76.53,76.53,0,0,0,190,161c.63-.28,1.16-.58,1.62-.83l1.18-.63.73-.38Z"/><path class="cls-6" d="M101.47,169.46a2.94,2.94,0,0,1-.59-.32l-1.55-.94A39.06,39.06,0,0,0,94,165.42a17.26,17.26,0,0,0-5.76-1.35c-1.53-.07-2.47.13-2.47.07a2.77,2.77,0,0,1,.65-.15,10.59,10.59,0,0,1,1.82-.12,16,16,0,0,1,5.87,1.29A32.84,32.84,0,0,1,99.43,168c.65.42,1.16.77,1.51,1A3,3,0,0,1,101.47,169.46Z"/><path class="cls-6" d="M185.74,183.44a.7.7,0,0,1-.19.12l-.59.3-1,.48-1.33.61a49.09,49.09,0,0,1-8.83,2.87,61.64,61.64,0,0,1-13.68,1.48,87.41,87.41,0,0,1-16.77-1.73c-5.89-1.14-11.39-2.67-16.36-4.15s-9.41-2.94-13.11-4.21-6.69-2.37-8.74-3.15l-2.36-.9-.6-.25-.21-.09.22.06.61.22,2.38.86c2.06.74,5,1.81,8.76,3.06s8.16,2.68,13.12,4.15,10.47,3,16.34,4.12A87.89,87.89,0,0,0,160.17,189a62.31,62.31,0,0,0,13.64-1.41,50.62,50.62,0,0,0,8.83-2.79l1.33-.57,1-.46.59-.28Z"/><path class="cls-6" d="M197.26,174.76a16.91,16.91,0,0,1-1.84.56c-1.13.32-2.69.8-4.37,1.45s-3.15,1.35-4.21,1.88a15.88,15.88,0,0,1-1.73.82,2,2,0,0,1,.42-.29c.28-.18.7-.42,1.21-.71a36,36,0,0,1,4.21-2,36.83,36.83,0,0,1,4.42-1.38l1.38-.29A1.92,1.92,0,0,1,197.26,174.76Z"/><path class="cls-6" d="M101.94,193.22a6.7,6.7,0,0,1-.77-.5c-.24-.16-.53-.37-.89-.59s-.74-.48-1.2-.74a34.8,34.8,0,0,0-3.27-1.68,36.17,36.17,0,0,0-4.23-1.56,35.6,35.6,0,0,0-4.39-1,32.48,32.48,0,0,0-3.67-.34c-.52,0-1,0-1.41,0s-.78,0-1.07,0a5.49,5.49,0,0,1-.92,0,5.46,5.46,0,0,1,.91-.11c.3,0,.66-.06,1.07-.07s.9,0,1.43,0a31.46,31.46,0,0,1,3.69.28,31.29,31.29,0,0,1,8.69,2.53,29.88,29.88,0,0,1,3.27,1.75c.45.27.84.55,1.19.78s.64.45.87.64A4.76,4.76,0,0,1,101.94,193.22Z"/><path class="cls-6" d="M184.61,207.65l-.21.07-.6.17c-.54.14-1.32.38-2.34.6A72.6,72.6,0,0,1,172.7,210a89.28,89.28,0,0,1-13.16.49,126.46,126.46,0,0,1-16-1.64,224.63,224.63,0,0,1-28.45-7c-3.58-1.09-6.47-2-8.47-2.66l-2.29-.75-.6-.2-.2-.08.21,0,.6.18,2.31.69,8.5,2.58a237,237,0,0,0,28.43,6.92,126.23,126.23,0,0,0,16,1.66,92.52,92.52,0,0,0,13.13-.43,76,76,0,0,0,8.75-1.42c1-.2,1.81-.43,2.35-.54l.61-.15Z"/><path class="cls-6" d="M201.33,193.38a2.76,2.76,0,0,1-.65.16l-1.8.36a59.94,59.94,0,0,0-5.83,1.54,58,58,0,0,0-5.65,2.12l-1.67.74a2.81,2.81,0,0,1-.63.25,3,3,0,0,1,.58-.35c.38-.21.94-.49,1.64-.82a45.36,45.36,0,0,1,5.64-2.21,46.9,46.9,0,0,1,5.88-1.46c.77-.14,1.39-.23,1.82-.28A3.06,3.06,0,0,1,201.33,193.38Z"/><path class="cls-6" d="M99.45,214.94s-.21-.32-.57-.89a23.4,23.4,0,0,0-1.7-2.32,20.43,20.43,0,0,0-16.75-7.34,22.33,22.33,0,0,0-2.86.33c-.67.12-1,.2-1,.18s.08,0,.26-.09.42-.13.76-.2a17.37,17.37,0,0,1,2.87-.41,19.88,19.88,0,0,1,16.91,7.4A18.23,18.23,0,0,1,99,214a7.38,7.38,0,0,1,.37.7C99.42,214.85,99.46,214.93,99.45,214.94Z"/><path class="cls-6" d="M133.63,227.46c0,.07-6.18-1-13.76-2.41s-13.73-2.6-13.72-2.67,6.18,1,13.77,2.4S133.64,227.38,133.63,227.46Z"/><path class="cls-6" d="M183.61,232.33a1.89,1.89,0,0,1-.44,0l-1.24.06c-1.09,0-2.66.1-4.6.14-3.88.09-9.24.12-15.16,0s-11.29-.39-15.16-.65c-1.94-.13-3.5-.24-4.58-.34l-1.25-.11-.43-.06a2.44,2.44,0,0,1,.44,0l1.24.06,4.59.25c3.88.21,9.23.44,15.15.57s11.28.13,15.16.09l4.59-.05h1.25A3,3,0,0,1,183.61,232.33Z"/><path class="cls-6" d="M205,213.47a4.87,4.87,0,0,1-.86,0c-.54,0-1.33,0-2.31.08s-2.13.18-3.41.37a38.81,38.81,0,0,0-4.1.9,36,36,0,0,0-4,1.37c-1.19.5-2.24,1-3.11,1.46s-1.55.85-2,1.13a5.15,5.15,0,0,1-.75.42,4.74,4.74,0,0,1,.69-.51,22.43,22.43,0,0,1,2-1.22,30,30,0,0,1,3.1-1.52,36.24,36.24,0,0,1,4-1.4,33,33,0,0,1,7.58-1.2c1,0,1.78,0,2.33,0A4.5,4.5,0,0,1,205,213.47Z"/><path class="cls-6" d="M96.85,229.84s-.24-.44-.72-1.2a11.87,11.87,0,0,0-2.51-2.84,14.91,14.91,0,0,0-4.93-2.66,16.68,16.68,0,0,0-6.82-.7,21.44,21.44,0,0,0-6.61,1.91,29.13,29.13,0,0,0-4.86,2.89c-1.3.95-2.31,1.79-3,2.39-.34.29-.6.53-.78.69a1.55,1.55,0,0,1-.28.22,3.22,3.22,0,0,1,.24-.26c.17-.17.42-.43.75-.73a37.21,37.21,0,0,1,2.94-2.47,28.4,28.4,0,0,1,4.87-3,21.34,21.34,0,0,1,6.69-2,16.85,16.85,0,0,1,6.93.73,14.82,14.82,0,0,1,5,2.76,11.56,11.56,0,0,1,2.49,2.93,7.68,7.68,0,0,1,.48.93A2.06,2.06,0,0,1,96.85,229.84Z"/><path class="cls-6" d="M158.66,249.63h-.15l-.44,0-1.69-.11c-1.46-.09-3.58-.27-6.19-.54s-5.72-.64-9.15-1.13-7.2-1.14-11.13-1.93-7.65-1.68-11-2.55-6.35-1.77-8.86-2.57c-1.25-.38-2.37-.78-3.36-1.11s-1.84-.63-2.52-.88l-1.59-.59-.41-.15c-.09,0-.14-.06-.14-.07l.15,0,.42.13,1.6.54c.69.23,1.54.52,2.54.84s2.12.69,3.37,1.06c2.51.78,5.51,1.63,8.87,2.51s7.07,1.73,11,2.53,7.69,1.42,11.11,1.94,6.53.91,9.14,1.19,4.72.5,6.18.63l1.68.17.44.05Z"/><path class="cls-11" d="M90.85,227.5l7.62,2.44,2.83-.49,4.79,1.32a3.55,3.55,0,0,1,2.6,3.7,21.05,21.05,0,0,1-.66,3.71c-1.17,4.45-3.12,4.35-5.17,3.76s-3-2.25-3.16-4.88l-4.85-2.65Z"/><path class="cls-12" d="M99.65,237.19a5.07,5.07,0,0,1-1.87-2.28,5.14,5.14,0,0,1-.56-2.89,14,14,0,0,0,.81,2.77A13.59,13.59,0,0,0,99.65,237.19Z"/><path class="cls-11" d="M81.71,227s-6.27.78-8,3.77-3.85,11.46-3.85,11.46l5.93,6.95s24.1,1,24.85,0-.26-2.11-.26-2.11,3,1.33,4.22.45a4.1,4.1,0,0,0,1.23-4.16,9.82,9.82,0,0,0-5.45-5.58A104.27,104.27,0,0,1,91,232.15s-4.51-4.51-5.39-5.14S81.71,227,81.71,227Z"/><path class="cls-12" d="M100.36,247.08a.88.88,0,0,1-.26-.06l-.71-.25-2.63-.94c-2.21-.8-5.26-1.93-8.62-3.19a13.39,13.39,0,0,1-4.47-2.41,11.85,11.85,0,0,1-2.48-3.34,26.49,26.49,0,0,1-1.13-2.55l-.27-.71a1,1,0,0,1-.07-.26,1.31,1.31,0,0,1,.13.24c.08.19.18.41.31.69.27.6.65,1.47,1.21,2.5A12.19,12.19,0,0,0,83.84,240a13.73,13.73,0,0,0,4.4,2.34c3.36,1.26,6.4,2.42,8.59,3.27l2.59,1,.7.29A1,1,0,0,1,100.36,247.08Z"/><path class="cls-12" d="M87.81,249.68a6.44,6.44,0,0,1-1.24-.51c-.74-.36-1.75-.89-2.84-1.53s-2-1.28-2.7-1.76a6.31,6.31,0,0,1-1-.83,6.61,6.61,0,0,1,1.16.67c.69.44,1.66,1,2.74,1.68S86,248.59,86.66,249A7.14,7.14,0,0,1,87.81,249.68Z"/><path class="cls-12" d="M74.66,244.49a.58.58,0,0,1,0-.52,5.83,5.83,0,0,1,.78-1.15,1.22,1.22,0,0,0,.21-.83,3.76,3.76,0,0,0-.34-1,10.74,10.74,0,0,1-.77-2.42,4.49,4.49,0,0,1,.24-2.54,3,3,0,0,1,1.4-1.55,2.39,2.39,0,0,1,1.39-.24,1,1,0,0,1,.49.16s-.18,0-.5,0a2.41,2.41,0,0,0-1.28.31A2.77,2.77,0,0,0,75,236.11a4.59,4.59,0,0,0-.19,2.41,10.87,10.87,0,0,0,.73,2.36,4.06,4.06,0,0,1,.33,1.08,1.46,1.46,0,0,1-.28,1,8.41,8.41,0,0,0-.84,1.07A1.23,1.23,0,0,0,74.66,244.49Z"/><path class="cls-12" d="M88.67,233.55a8.47,8.47,0,0,0-2.35,1.52,8.93,8.93,0,0,0-1.52,2.35,1.85,1.85,0,0,1,.19-.83,5.26,5.26,0,0,1,1.13-1.72,5.1,5.1,0,0,1,1.72-1.13A1.83,1.83,0,0,1,88.67,233.55Z"/><path class="cls-12" d="M105.69,242.16s-.11.08-.35.16a3.68,3.68,0,0,1-1,.18,4.52,4.52,0,0,1-4.75-4.09,3.71,3.71,0,0,1,0-1c0-.24.08-.37.1-.36a13.35,13.35,0,0,0,.07,1.37,4.55,4.55,0,0,0,4.55,3.92A11,11,0,0,0,105.69,242.16Z"/><path class="cls-11" d="M186.64,234.31l12.66-8.08a11,11,0,0,1,3,0,3.31,3.31,0,0,1,2.17,1.56l2.9.24,7.59,6.88,4,.6.73,1.45-1.44,5.48s-3.62,3.7-6.27,2.24l-3.38.34-3-.34s.24,2.89-.85,2.89-2.89-.36-3.37-1.21A28.53,28.53,0,0,1,200,243l-2.89,3s-2.67,2.91-4.22,1.57c-1.32-1.14-1.45-1.81-1.45-1.81h0a6.13,6.13,0,0,1-3.37-.36c-1.21-.73-3.14-.36-3.62-3S184.29,235.8,186.64,234.31Z"/><path class="cls-12" d="M200.72,244.93a2,2,0,0,1-.25-.5A9.68,9.68,0,0,1,200,243a44.31,44.31,0,0,1-.69-4.9,13.59,13.59,0,0,0-1.29-4.7,18.9,18.9,0,0,0-1.11-1.7,2.1,2.1,0,0,1,.4.38,6.84,6.84,0,0,1,.88,1.23,12.5,12.5,0,0,1,1.4,4.75c.23,1.93.34,3.67.6,4.9S200.76,244.91,200.72,244.93Z"/><path class="cls-12" d="M206.6,232.87s-.2.68-.5,1.77a25.22,25.22,0,0,0-.78,4.37,24.23,24.23,0,0,0,.06,4.43c.11,1.13.25,1.82.2,1.83a1.56,1.56,0,0,1-.15-.48,12.46,12.46,0,0,1-.25-1.33A20.19,20.19,0,0,1,205,239a19.83,19.83,0,0,1,.87-4.39,12.91,12.91,0,0,1,.46-1.28C206.5,233,206.58,232.86,206.6,232.87Z"/><path class="cls-12" d="M207.18,239.06a3.27,3.27,0,0,0-2,2.05s-.06-.18,0-.47a2.08,2.08,0,0,1,.56-1,2.21,2.21,0,0,1,1-.58C207,239,207.18,239,207.18,239.06Z"/><path class="cls-12" d="M209.35,235.46a18.79,18.79,0,0,1-1.25,1.92,17.58,17.58,0,0,1-1.26,1.91,9.93,9.93,0,0,1,2.51-3.83Z"/><path class="cls-12" d="M208.45,236.21c0,.07-.73-.28-1.13-1.11a1.89,1.89,0,0,1-.18-1.57,9.92,9.92,0,0,0,.43,1.45A10.38,10.38,0,0,0,208.45,236.21Z"/><path class="cls-12" d="M211.39,244.74a12.79,12.79,0,0,1,1.14-1.15,7,7,0,0,0,2.31-7,12.8,12.8,0,0,1-.24-1.6,7.66,7.66,0,0,1,.43,1.57,7.45,7.45,0,0,1-.1,3.93,7.67,7.67,0,0,1-2.26,3.21A7.36,7.36,0,0,1,211.39,244.74Z"/><path class="cls-12" d="M215.54,243.82s-.26-.17-.49-.59a3,3,0,0,1,.39-3.49c.32-.36.59-.49.6-.46s-.19.22-.45.58a3.38,3.38,0,0,0-.62,1.59,3.47,3.47,0,0,0,.25,1.7A5.78,5.78,0,0,1,215.54,243.82Z"/><path class="cls-12" d="M195.59,239.64a18,18,0,0,0,1.25-3.15,18.37,18.37,0,0,0,.36-3.38,3.1,3.1,0,0,1,.16,1,8.75,8.75,0,0,1-.25,2.44,8.62,8.62,0,0,1-.91,2.28A2.79,2.79,0,0,1,195.59,239.64Z"/><path class="cls-12" d="M194.79,238.83a15.75,15.75,0,0,1-.58-4,14.51,14.51,0,0,1,.58,4Z"/><path class="cls-12" d="M196.24,246.43a4.66,4.66,0,0,0,.95-1.46,3.88,3.88,0,0,0,.21-1.85,3.41,3.41,0,0,0-1-2c-.58-.57-1.27-1-1.81-1.51a12.16,12.16,0,0,1-1.34-1.43,9.24,9.24,0,0,1-.74-1.08c-.16-.27-.23-.43-.21-.44s.39.57,1.11,1.4a12.23,12.23,0,0,0,1.35,1.35c.54.48,1.22.91,1.84,1.51a3.53,3.53,0,0,1,1.08,2.16,3.75,3.75,0,0,1-.28,1.95,3,3,0,0,1-.74,1.1A1.15,1.15,0,0,1,196.24,246.43Z"/><path class="cls-12" d="M194,242.74s-.23.14-.58.38a3.4,3.4,0,0,0-1.5,2.77,3.87,3.87,0,0,1,0,.7s-.16-.24-.2-.69a3,3,0,0,1,1.58-3C193.72,242.74,194,242.7,194,242.74Z"/><path class="cls-7" d="M145.79,81.82c-4.67,9-5.2,19.55-4.83,29.68s1.53,20.35-.13,30.35c-.65,3.94-1.74,7.91-1.12,11.86.37,2.31,1.31,4.5,1.79,6.79s.41,4.88-1,6.74a6.65,6.65,0,0,1-6.4,2.14,11.61,11.61,0,0,1-6-3.56c-3.57-3.72-5.45-8.81-6.15-13.92s-.34-10.3,0-15.45q1.46-20.07,2.9-40.15c.42-5.79.87-11.71,3.21-17A29.49,29.49,0,0,1,140.14,66.1c6.23-3.71,14.3-5.32,20.72-2,2.14,1.13,4.21,3.28,3.7,5.64-.4,1.87-2.23,3-3.89,4l-16.44,9.36"/><path class="cls-7" d="M137.5,154.1c-.18-.09.17-1.13.87-2.95s1.75-4.43,2.83-7.69a52.11,52.11,0,0,0,2.5-11.68,55.7,55.7,0,0,0-1.11-14.56,143.47,143.47,0,0,1-2.33-15,36.8,36.8,0,0,1,1.13-12.53,20.55,20.55,0,0,1,3.89-7.58c.34-.37.64-.7.91-1s.54-.47.74-.64c.42-.32.67-.45.74-.38s0,.33-.32.76l-.52.79c-.19.32-.41.68-.67,1.08a24.47,24.47,0,0,0-2.84,7.42,39.13,39.13,0,0,0-.48,11.84c.43,4.47,1.56,9.39,2.51,14.67a52.28,52.28,0,0,1,.92,15.31,46.27,46.27,0,0,1-3.21,12.1,59.63,59.63,0,0,1-3.71,7.49C138.34,153.32,137.67,154.19,137.5,154.1Z"/><path class="cls-9" d="M121,87.15a2.4,2.4,0,0,1,.43-.16l1.26-.41c.54-.17,1.21-.38,2-.65s1.65-.54,2.61-.9c1.92-.69,4.19-1.58,6.67-2.64s5.16-2.35,7.92-3.79,5.31-3,7.6-4.4,4.29-2.82,6-4c.83-.58,1.56-1.15,2.22-1.63s1.2-.92,1.65-1.27l1-.81a2,2,0,0,1,.38-.26s-.12.11-.34.31l-1,.84c-.44.37-1,.82-1.63,1.31s-1.36,1.08-2.2,1.67c-1.64,1.23-3.64,2.61-5.92,4.08s-4.85,3-7.61,4.42-5.47,2.71-7.95,3.78-4.77,1.93-6.71,2.59c-1,.35-1.84.62-2.62.87s-1.44.45-2,.61L121.4,87Z"/><path class="cls-9" d="M120.84,89.15l.46-.08,1.33-.2,1-.14,1.13-.2c.82-.16,1.75-.3,2.76-.55l1.59-.36c.56-.13,1.12-.3,1.72-.46,1.18-.3,2.42-.72,3.74-1.13a75.34,75.34,0,0,0,8.27-3.41,72.08,72.08,0,0,0,7.75-4.47c1.13-.78,2.22-1.51,3.18-2.27.49-.37,1-.71,1.41-1.07l1.26-1c.82-.65,1.5-1.3,2.12-1.85l.85-.77.7-.68,1-.93a2.19,2.19,0,0,1,.35-.31,4.43,4.43,0,0,1-.31.35l-.93,1-.68.69-.85.79c-.61.56-1.28,1.23-2.09,1.89l-1.25,1c-.44.37-.92.72-1.41,1.1-1,.77-2,1.5-3.17,2.3a71.67,71.67,0,0,1-7.78,4.51,71.76,71.76,0,0,1-8.31,3.39c-1.32.41-2.57.82-3.76,1.11-.6.16-1.17.32-1.73.45l-1.6.34c-1,.24-2,.37-2.77.51-.41.07-.79.14-1.14.18l-1,.12-1.33.14A2.77,2.77,0,0,1,120.84,89.15Z"/><path class="cls-9" d="M128.76,159.76a1.3,1.3,0,0,1,0-.19l-.08-.54c-.08-.47-.19-1.18-.28-2.09a68.68,68.68,0,0,1-.41-7.75c0-3.28.19-7.19.59-11.5s1-9.05,1.55-14c1.16-9.93,2.21-18.91,3-25.43.39-3.24.71-5.87.93-7.71.12-.89.21-1.59.27-2.09l.08-.54,0-.19s0,.07,0,.19l-.05.55c0,.49-.13,1.2-.22,2.1-.2,1.83-.49,4.46-.84,7.71-.75,6.52-1.77,15.51-2.9,25.44-.56,5-1.15,9.69-1.56,14s-.64,8.2-.65,11.48a72.77,72.77,0,0,0,.32,7.74c.07.91.17,1.62.22,2.1l.06.54A.69.69,0,0,1,128.76,159.76Z"/><path class="cls-9" d="M135.8,129.84a3.88,3.88,0,0,1-.05-.45c0-.32,0-.75-.08-1.3-.07-1.13-.14-2.76-.22-4.78-.14-4-.25-9.61-.16-15.78s.34-11.74.6-15.77c.13-2,.25-3.65.35-4.77l.12-1.3a2.87,2.87,0,0,1,.06-.45,2.29,2.29,0,0,1,0,.46c0,.32,0,.75-.06,1.3l-.26,4.77c-.21,4-.44,9.61-.52,15.77s0,11.73.08,15.77c.06,2,.1,3.62.13,4.78,0,.54,0,1,0,1.3A3.16,3.16,0,0,1,135.8,129.84Z"/></svg>