<svg id="Layer_1" data-name="Layer 1" xmlns="http://www.w3.org/2000/svg" viewBox="0 0 250 250"><defs><style>.cls-1{fill:#ebf5ec;}.cls-2{opacity:0.5;}.cls-3{fill:#a1a059;}.cls-4{fill:#748fc9;}.cls-5{fill:#fff;}.cls-6{fill:#ea5160;}.cls-7{fill:#d03642;}.cls-8{fill:#fff042;}.cls-9{fill:#6d6d3d;}.cls-10{fill:#281833;}.cls-11{fill:#9fc4eb;}.cls-12{fill:#366f90;}.cls-13{fill:#b8d5dc;}.cls-14{fill:#444092;}.cls-15{fill:#ffcd1c;}.cls-16{opacity:0.4;}.cls-17{opacity:0.6;}.cls-18{fill:#ef9f6f;}.cls-19{fill:#ffb27d;}.cls-20{opacity:0.3;}.cls-21{fill:#020202;}.cls-22{fill:#daebe8;}.cls-23{fill:#dfe5df;}.cls-24{fill:#5c79bb;}.cls-25{fill:#f0f6f6;}</style></defs><path class="cls-1" d="M201.69,186.62l-144-1.77c-.34-1.61-1.2-32.72-2-63.7l8.45.11V143h5L66.06,95.56l5.85-.33-.55-3.75h4.93V81.66l2.63-.17V74.11h1.17v7.3l3.1-.21-.37,10.28h4.05V94.4l7.24-.4-.52,33.06H100l.5-51.16,19.9,12.23,1,34.77,5.13.83.21-12.57,13.66-2.92v.11l-.18,17.59,4.47.72V143h4.92l-1.36-35.56L178,101.52l-.52,24.16,3.39.87.25-53,18.06,6.58Z"/><g class="cls-2"><path class="cls-1" d="M203.08,189.58l-144.5-1.81c-.34-1.64-1.21-33.36-2-65-.79-32.16-1.51-64.17-1.51-64.17H198.27l2.24,61Z"/></g><path class="cls-3" d="M204,190.19l-1.08,0-146-1.82-.17-.8C56,184.17,53.31,63.14,53.19,58l0-1H199.08ZM58.66,186.33l143.2,1.78L197.1,59H55.27C56.2,100.8,58,177.28,58.66,186.33Z"/><path class="cls-4" d="M225,194c0,7.31-43.59,13.24-97.36,13.24S30.29,201.29,30.29,194,45.57,183.06,128,181.79C216,180.43,225,186.67,225,194Z"/><path class="cls-5" d="M162.62,95.67l-41.71,17.81h0l-7.8,4s-.62-10.68-5.54-18.57a7.64,7.64,0,0,1,.58-9.14h0a11.66,11.66,0,0,1,13.44-3.49c8.36,3.66,37.06-2.88,40.62,1S162.62,95.67,162.62,95.67Z"/><path class="cls-6" d="M140.71,70.63c0,.52-3.88.94-8.67.94s-8.64.75-8.64.23c0-3.7,3.86-7.17,8.64-7.17S140.71,67.31,140.71,70.63Z"/><path class="cls-7" d="M140.69,70.68c0,.36-1.85.8-4.61,1.14l-.48.05c-1.07.12-2.25.23-3.5.31-1,.06-2.07.11-3,.13l-1,0c-2.78,0-4.69-.17-4.71-.53s1.37-.68,3.52-1l.53-.07c.91-.12,1.94-.23,3-.32l1.5-.11q.52,0,1-.06c1.45-.08,2.8-.11,4-.09h.08C139.25,70.19,140.67,70.37,140.69,70.68Z"/><path class="cls-8" d="M137,70.16a5.87,5.87,0,0,1-1,1.3,5.62,5.62,0,0,1-.44.41,5.55,5.55,0,0,1-6.51.44,5.3,5.3,0,0,1-1-.85,5.21,5.21,0,0,1-.6-.72c.91-.12,1.94-.23,3-.32l1.5-.11q.52,0,1-.06C134.49,70.17,135.84,70.14,137,70.16Z"/><path class="cls-6" d="M132,65.25h0a.38.38,0,0,1-.37-.38V43.15a.38.38,0,0,1,.37-.37h0a.38.38,0,0,1,.38.37V64.87A.38.38,0,0,1,132,65.25Z"/><ellipse class="cls-6" cx="132.04" cy="64.79" rx="1.08" ry="1.09"/><path class="cls-6" d="M167,70.63c0,.52-3.88.94-8.66.94s-8.65.75-8.65.23c0-3.7,3.86-7.17,8.65-7.17S167,67.31,167,70.63Z"/><path class="cls-7" d="M167,70.68c0,.36-1.84.8-4.6,1.14l-.49.05c-1.07.12-2.25.23-3.49.31-1.06.06-2.08.11-3,.13l-1,0c-2.78,0-4.69-.17-4.71-.53s1.37-.68,3.52-1l.53-.07c.92-.12,1.94-.23,3-.32l1.5-.11q.53,0,1.05-.06c1.45-.08,2.8-.11,3.95-.09h.08C165.55,70.19,167,70.37,167,70.68Z"/><path class="cls-8" d="M163.29,70.16a5.3,5.3,0,0,1-.95,1.3,5.62,5.62,0,0,1-.44.41,5.53,5.53,0,0,1-3.56,1.29,5.47,5.47,0,0,1-2.94-.85,5.08,5.08,0,0,1-1.05-.85,5.21,5.21,0,0,1-.6-.72c.92-.12,1.94-.23,3-.32l1.5-.11q.53,0,1.05-.06C160.79,70.17,162.14,70.14,163.29,70.16Z"/><path class="cls-6" d="M158.35,65.25h0a.38.38,0,0,1-.38-.38V43.15a.38.38,0,0,1,.38-.37h0a.38.38,0,0,1,.37.37V64.87A.38.38,0,0,1,158.35,65.25Z"/><path class="cls-6" d="M157.27,64.79a1.08,1.08,0,1,1,1.08,1.09A1.08,1.08,0,0,1,157.27,64.79Z"/><path class="cls-6" d="M113.15,70.63c0,.52-3.88.94-8.67.94s-8.65.75-8.65.23c0-3.7,3.87-7.17,8.65-7.17S113.15,67.31,113.15,70.63Z"/><path class="cls-7" d="M113.13,70.68c0,.36-1.85.8-4.61,1.14l-.49.05c-1.06.12-2.24.23-3.49.31-1.06.06-2.07.11-3,.13l-1,0c-2.77,0-4.68-.17-4.71-.53s1.38-.68,3.53-1l.53-.07c.91-.12,1.94-.23,3-.32l1.49-.11,1-.06c1.46-.08,2.81-.11,4-.09h.08C111.68,70.19,113.11,70.37,113.13,70.68Z"/><path class="cls-8" d="M109.42,70.16a5.53,5.53,0,0,1-.94,1.3,4.38,4.38,0,0,1-.45.41,5.54,5.54,0,0,1-6.5.44,5.67,5.67,0,0,1-1-.85,5.14,5.14,0,0,1-.59-.72c.91-.12,1.94-.23,3-.32l1.49-.11,1-.06C106.93,70.17,108.28,70.14,109.42,70.16Z"/><path class="cls-6" d="M104.48,65.25h0a.38.38,0,0,1-.37-.38V43.15a.38.38,0,0,1,.37-.37h0a.37.37,0,0,1,.37.37V64.87A.37.37,0,0,1,104.48,65.25Z"/><path class="cls-6" d="M103.4,64.79a1.08,1.08,0,1,1,1.08,1.09A1.09,1.09,0,0,1,103.4,64.79Z"/><path class="cls-9" d="M51.6,180s4.22-15.9.71-21.75S37,151.5,32.68,155.77s-4.87,9.47,1.88,11.67S50.3,161.68,52,162.49s-1.68,16.84-1.68,16.84Z"/><path class="cls-5" d="M31.88,163.28l-.11-.14a42.39,42.39,0,0,1,7.45-4.33,22.79,22.79,0,0,1,6.72-2,9.66,9.66,0,0,1,6.42,1.29l-.1.15A9.44,9.44,0,0,0,46,157,23,23,0,0,0,39.29,159,42.34,42.34,0,0,0,31.88,163.28Z"/><path class="cls-6" d="M56.35,192.57H47.41a2.46,2.46,0,0,1-2.62-1.91L43.5,178.84H59.91l-1.17,12A2.25,2.25,0,0,1,56.35,192.57Z"/><path class="cls-7" d="M60.5,176.32v2.35c0,1.45-3.9,2.63-8.72,2.63s-8.72-1.18-8.72-2.63v-2.35c0-.74,2.25-1.38,5.44-1.64,1-.08,2.12-.13,3.28-.13C56.6,174.55,60.5,175.34,60.5,176.32Z"/><path class="cls-10" d="M60.5,176.32a.55.55,0,0,1-.24.41,5.9,5.9,0,0,1-2.4.85c-.45.09-1,.17-1.49.24l-.43.05-.26,0q-.68.08-1.41.12h-.1l-.78,0-.54,0H51.19l-.86,0L49,178l-.24,0h0l-.2,0-.22,0q-.73-.06-1.38-.15c-2.33-.32-3.86-.85-3.86-1.46,0-.38.58-.72,1.56-1a16.81,16.81,0,0,1,2-.42l.13,0h0l.24,0c.46-.06.95-.12,1.47-.16h.08c.51-.05,1.05-.08,1.61-.1l1,0h1.67c.51,0,1,0,1.49.06l.39,0c.41,0,.81.06,1.19.11.54.06,1,.13,1.51.21l.24,0,.15,0a9.09,9.09,0,0,1,1.86.53C60.22,175.81,60.5,176.05,60.5,176.32Z"/><path class="cls-3" d="M53.24,177.69s3.26-16.11,9-19.83S79,158.5,81,164.22s.17,10.63-6.87,9.66-11.58-12-13.45-12-6,15.85-6,15.85Z"/><path class="cls-5" d="M76.84,172.92a42.18,42.18,0,0,0-4.74-7.11A22.43,22.43,0,0,0,67,161.17a9.42,9.42,0,0,0-6.22-1.62l0-.17A9.65,9.65,0,0,1,67.07,161a22.77,22.77,0,0,1,5.16,4.68A41.88,41.88,0,0,1,77,172.85Z"/><path class="cls-3" d="M51.15,184.85s.09-16.44-4.79-21.23-16.5-2.72-19.62,2.48-2.33,10.38,4.76,10.84,13.79-9.47,15.63-9.1,2.62,16.72,2.62,16.72Z"/><path class="cls-5" d="M27.85,173.58l-.13-.11a41.86,41.86,0,0,1,6.12-6c3.29-2.6,8.13-5.39,12.55-3.89l0,.16C38,160.89,28,173.45,27.85,173.58Z"/><path class="cls-9" d="M61.2,172.29a7.23,7.23,0,0,0-6.44-3.4c-4.47.16-8.79,13.48-7.13,17.22,2.54,5.73,11.19,6.4,14.73,0C64.14,182.91,63.4,175.25,61.2,172.29Z"/><path class="cls-5" d="M54.82,186.93l-.17,0c0-.09,1.93-9.26.92-16.17l.17,0C56.76,177.64,54.84,186.84,54.82,186.93Z"/><polygon class="cls-11" points="176 111.33 173.7 111.07 173.57 107.38 176 107.24 176 111.33"/><path class="cls-10" d="M135.88,194.19a.51.51,0,0,1-.17,0,.49.49,0,0,1-.28-.63l16.25-42.86a.49.49,0,0,1,.43-.31.46.46,0,0,1,.46.26l21.84,42.86a.5.5,0,0,1-.22.66.49.49,0,0,1-.65-.22L152.2,152l-15.86,41.84A.5.5,0,0,1,135.88,194.19Z"/><path class="cls-10" d="M157.12,194.63a.48.48,0,0,1-.48-.41l-6.31-43.31a.49.49,0,1,1,1-.14l6.31,43.31a.49.49,0,0,1-.41.55Z"/><path class="cls-10" d="M117.32,185.73l-.14,0a.48.48,0,0,1-.33-.6L136.27,120a.49.49,0,1,1,.93.28l-19.42,65.08A.48.48,0,0,1,117.32,185.73Z"/><polygon class="cls-5" points="175.42 159.01 130.11 159.01 117.32 95.67 162.62 95.67 175.42 159.01"/><path class="cls-4" d="M106.32,131.31s6.17-24.53,1.25-32.42a7.64,7.64,0,0,1,.58-9.14h0c5.58-5.27,9.94-1.2,10.45,2.18.42,2.78-1.28,3.74-1.28,3.74L124.46,131Z"/><rect class="cls-4" x="117.32" y="95.61" width="45.31" height="0.12"/><path class="cls-5" d="M106,180.91l.6-.78a.53.53,0,0,1,.42-.2h.55a.52.52,0,0,1,.49.32l.1.2a.54.54,0,0,0,.51.32h0a.54.54,0,0,1,.56.47l.07.58a.53.53,0,0,1-.09.37l-.44.64a.54.54,0,0,1-.55.22l-1.13-.23a.56.56,0,0,1-.33-.21l-.76-1A.56.56,0,0,1,106,180.91Z"/><path class="cls-12" d="M108,181.1h0l-.68,0V181l.68,0h0a.41.41,0,0,0,.19,0l.52-.27,0,0-.52.27A.46.46,0,0,1,108,181.1Z"/><path class="cls-12" d="M107.7,182.33h-.13a.48.48,0,0,1-.39-.19l-.13-.16a.37.37,0,0,0-.22-.14l-.72-.14v0l.72.14a.41.41,0,0,1,.25.15l.12.16a.46.46,0,0,0,.36.17h.13Z"/><path class="cls-12" d="M108.66,182a.58.58,0,0,1-.26-.06l-.51-.27,0,0,.51.27a.55.55,0,0,0,.53,0l.07,0,0,0-.07,0A.55.55,0,0,1,108.66,182Z"/><path class="cls-5" d="M96.38,182.31l.63-1.73a1,1,0,0,1,.63-.6l1-.32a1,1,0,0,1,1.06.29l.28.31a1,1,0,0,0,1.09.28h0a1,1,0,0,1,1.26.53l.45,1a1,1,0,0,1,0,.71l-.43,1.38a1,1,0,0,1-.85.7l-2.14.22a1,1,0,0,1-.7-.19l-2-1.43A1,1,0,0,1,96.38,182.31Z"/><path class="cls-12" d="M98.68,181.87l0-.08,1.23-.31a.94.94,0,0,0,.35-.2l.77-.77.06.06-.78.77a.79.79,0,0,1-.38.21Z"/><path class="cls-12" d="M99.63,184a.92.92,0,0,1-.53-.16l-.31-.21a.64.64,0,0,0-.48-.12l-1.35.15v-.08l1.35-.16a.86.86,0,0,1,.54.14l.31.21a.82.82,0,0,0,.73.11l.24-.07,0,.08-.24.07A.84.84,0,0,1,99.63,184Z"/><path class="cls-12" d="M101.38,182.89h-.19l-1.07-.19,0-.08,1.07.19a1,1,0,0,0,.93-.36l.09-.12.07.05-.1.12A1,1,0,0,1,101.38,182.89Z"/><path class="cls-5" d="M100.79,179l.56-1.53a.88.88,0,0,1,.55-.53l.86-.28a.89.89,0,0,1,.94.25l.25.28a.9.9,0,0,0,1,.25h0a.88.88,0,0,1,1.11.46l.4.89a.88.88,0,0,1,0,.62l-.38,1.23a.88.88,0,0,1-.75.61l-1.9.2a.86.86,0,0,1-.62-.16L101.09,180A.89.89,0,0,1,100.79,179Z"/><path class="cls-12" d="M102.82,178.6l0-.07,1.09-.28a.67.67,0,0,0,.31-.17l.69-.68,0,0-.69.68a.72.72,0,0,1-.34.19Z"/><path class="cls-12" d="M103.66,180.5a.79.79,0,0,1-.46-.15l-.27-.19a.66.66,0,0,0-.43-.1l-1.19.13v-.07l1.19-.13h.08a.66.66,0,0,1,.4.13l.27.18a.73.73,0,0,0,.64.1l.22-.07,0,.07-.21.07A.73.73,0,0,1,103.66,180.5Z"/><path class="cls-12" d="M105.21,179.51l-.16,0-1-.17v-.06l1,.16a.86.86,0,0,0,.83-.31L106,179l0,.05-.08.1A.93.93,0,0,1,105.21,179.51Z"/><path class="cls-5" d="M95.36,177l.31-1.6a.91.91,0,0,1,.46-.62l.8-.41a.9.9,0,0,1,1,.1l.29.24a.88.88,0,0,0,1,.09h0a.89.89,0,0,1,1.18.28l.53.81a.88.88,0,0,1,.14.61l-.18,1.27a.88.88,0,0,1-.64.73l-1.84.5a.89.89,0,0,1-.64-.07l-1.91-1A.87.87,0,0,1,95.36,177Z"/><path class="cls-12" d="M97.3,176.31l0-.06,1-.45a.73.73,0,0,0,.27-.22l.58-.78,0,0-.57.78a.7.7,0,0,1-.3.24Z"/><path class="cls-12" d="M96.06,178.12l0-.06,1.15-.33a.78.78,0,0,1,.5,0l.3.15a.78.78,0,0,0,.65,0l.2-.1,0,.06-.2.1a.79.79,0,0,1-.72,0l-.3-.14a.61.61,0,0,0-.44,0Z"/><path class="cls-12" d="M99.66,176.84h0l-1,0v-.07l1,0h0a.86.86,0,0,0,.75-.44l.06-.12.07,0-.07.12A.91.91,0,0,1,99.66,176.84Z"/><path class="cls-5" d="M106.83,178.34l-1.21-1.1a.86.86,0,0,1-.28-.71l.06-.9a.89.89,0,0,1,.59-.78l.35-.12a.87.87,0,0,0,.59-.8h0a.89.89,0,0,1,.86-.86l1,0a.85.85,0,0,1,.59.2l1,.81a.87.87,0,0,1,.29.93l-.53,1.83a.87.87,0,0,1-.38.5l-1.83,1.13A.9.9,0,0,1,106.83,178.34Z"/><path class="cls-12" d="M107.23,176.31h-.07l.16-1.11a.74.74,0,0,0,0-.36l-.37-.89.07,0,.37.9a.82.82,0,0,1,0,.38Z"/><path class="cls-12" d="M108.14,178.31l-.07,0,.32-1.15a.7.7,0,0,1,.29-.4l.28-.18a.76.76,0,0,0,.34-.56v-.22h.07V176a.83.83,0,0,1-.37.62l-.28.18a.64.64,0,0,0-.26.36Z"/><path class="cls-12" d="M108.39,175.4l-.06,0,.51-.82a.84.84,0,0,0,0-.88l-.07-.11.07,0,.06.12a.93.93,0,0,1,0,1Z"/><path class="cls-5" d="M102.54,184.55l.56-1.52a.88.88,0,0,1,.56-.54l.86-.28a.89.89,0,0,1,.94.26l.24.27a.87.87,0,0,0,1,.25h0a.89.89,0,0,1,1.12.47l.4.88a.86.86,0,0,1,0,.63l-.38,1.22a.88.88,0,0,1-.75.62l-1.89.2a.92.92,0,0,1-.62-.17l-1.73-1.27A.89.89,0,0,1,102.54,184.55Z"/><path class="cls-12" d="M104.58,184.17l0-.07,1.09-.28a.65.65,0,0,0,.31-.18l.69-.68,0,0-.69.68a.79.79,0,0,1-.34.2Z"/><path class="cls-12" d="M105.42,186.06a.86.86,0,0,1-.47-.14l-.27-.19a.57.57,0,0,0-.36-.11h-.07l-1.19.14v-.07l1.19-.14a.68.68,0,0,1,.48.12l.28.19a.72.72,0,0,0,.64.1l.21-.07,0,.07-.21.06A.67.67,0,0,1,105.42,186.06Z"/><path class="cls-12" d="M107,185.07h-.16l-1-.17v-.07l.95.17a.86.86,0,0,0,.82-.32l.08-.1.06,0-.08.11A1,1,0,0,1,107,185.07Z"/><path class="cls-10" d="M106.38,187.43H99.49a3.27,3.27,0,0,1-3.23-2.68l-3.11-16.66.22,0,18.73-1.39,0,.25-2.43,17.67A3.29,3.29,0,0,1,106.38,187.43Zm-12.76-19,3,16.22A2.89,2.89,0,0,0,99.49,187h6.89a2.89,2.89,0,0,0,2.85-2.49l2.4-17.42Z"/><polygon class="cls-10" points="109.56 183.41 96.06 182.87 96.08 182.46 109.57 183.01 109.56 183.41"/><polygon class="cls-10" points="95.28 178.58 95.26 178.18 110.37 177.45 110.39 177.85 95.28 178.58"/><rect class="cls-10" x="94.38" y="173" width="16.7" height="0.4" transform="translate(-9.86 6.24) rotate(-3.32)"/><rect class="cls-12" x="100.05" y="167.79" width="0.4" height="19.47" transform="translate(-13.93 8.62) rotate(-4.61)"/><rect class="cls-10" x="95.09" y="177.08" width="20" height="0.4" transform="translate(-81.87 263.97) rotate(-84.21)"/><rect class="cls-10" x="92.16" y="166.66" width="20.24" height="1.39" rx="0.6" transform="translate(-11.31 7.46) rotate(-3.96)"/><rect class="cls-10" x="86.25" y="147.89" width="1.93" height="45.81"/><path class="cls-10" d="M95.37,194.41H79.07a2.57,2.57,0,0,1,2.57-2.57H92.82a2.55,2.55,0,0,1,2.55,2.55Z"/><ellipse class="cls-3" cx="87.22" cy="149.67" rx="26.78" ry="3.84"/><rect class="cls-3" x="60.44" y="147.89" width="53.56" height="1.77"/><ellipse class="cls-13" cx="87.22" cy="147.89" rx="26.78" ry="3.84"/><path class="cls-14" d="M109.46,150.14a.11.11,0,0,1-.1-.08.1.1,0,0,1,.08-.12,20.48,20.48,0,0,0,3.58-1.13.11.11,0,0,1,.14,0,.1.1,0,0,1,0,.14,20,20,0,0,1-3.64,1.14Z"/><polygon class="cls-6" points="101.16 147.88 75.48 147.88 75.48 105.28 101.16 116.21 101.16 147.88"/><rect class="cls-9" x="69.25" y="113.22" width="15.25" height="34.66"/><rect class="cls-15" x="69.25" y="113.22" width="15.25" height="5.25"/><rect class="cls-15" x="69.25" y="124.96" width="15.25" height="5.25"/><rect class="cls-15" x="69.25" y="137.29" width="15.25" height="5.25"/><rect class="cls-10" x="87.37" y="94.52" width="0.94" height="31.45" transform="translate(-48.14 147.35) rotate(-66.72)"/><rect class="cls-4" x="84.5" y="137.7" width="23.05" height="10.18"/><rect class="cls-15" x="94.46" y="116.56" width="3.03" height="17.81"/><g class="cls-16"><polygon class="cls-5" points="94.46 116.56 94.46 121.12 97.49 118.84 97.49 116.56 94.46 116.56"/></g><g class="cls-16"><polygon class="cls-5" points="94.46 125.06 97.49 122.66 97.49 128.6 94.46 132.14 94.46 125.06"/></g><g class="cls-16"><polygon class="cls-5" points="94.46 134.37 97.49 134.37 97.49 132.14 94.46 133.44 94.46 134.37"/></g><g class="cls-16"><polygon class="cls-5" points="84.5 147.88 84.5 137.7 92.21 137.7 87.56 147.88 84.5 147.88"/></g><g class="cls-16"><polygon class="cls-5" points="96.73 137.7 90.61 147.88 97.46 147.88 104.49 137.7 96.73 137.7"/></g><g class="cls-16"><polygon class="cls-5" points="107.54 141.44 101.16 147.88 107.54 147.88 107.54 141.44"/></g><rect class="cls-10" x="84.5" y="137.29" width="23.67" height="0.82"/><g class="cls-16"><polygon class="cls-5" points="72.95 113.22 70.81 118.47 69.25 118.47 69.25 113.22 72.95 113.22"/></g><g class="cls-16"><polygon class="cls-5" points="77.55 113.22 75.48 118.47 80.89 118.47 83.38 113.22 77.55 113.22"/></g><g class="cls-16"><polygon class="cls-5" points="72.95 124.97 70.81 130.21 69.25 130.21 69.25 124.97 72.95 124.97"/></g><g class="cls-16"><polygon class="cls-5" points="77.55 124.97 75.48 130.21 80.89 130.21 83.38 124.97 77.55 124.97"/></g><g class="cls-16"><polygon class="cls-5" points="72.95 137.29 70.81 142.54 69.25 142.54 69.25 137.29 72.95 137.29"/></g><g class="cls-16"><polygon class="cls-5" points="77.55 137.29 75.48 142.54 80.89 142.54 83.38 137.29 77.55 137.29"/></g><rect class="cls-10" x="67.07" y="146.77" width="41.82" height="1.74"/><g class="cls-17"><polygon class="cls-5" points="162.35 143.57 140.54 143.57 132.76 104.13 156.56 114.25 162.35 143.57"/><path class="cls-10" d="M162.42,143.63H140.49v0L132.67,104l.11,0,23.84,10.12v0Zm-21.83-.12h21.69l-5.77-29.22-23.67-10.06Z"/><polygon class="cls-5" points="148.19 143.57 135.24 143.57 128.91 111.48 141.86 111.48 148.19 143.57"/><path class="cls-10" d="M148.27,143.63H135.19v0l-6.34-32.16h13.07v0Zm-13-.12h12.83l-6.31-32H129Z"/><polygon class="cls-5" points="142.82 116.34 129.87 116.34 128.91 111.48 141.86 111.48 142.82 116.34"/><path class="cls-10" d="M142.89,116.4H129.82v-.05l-1-4.93h13.07v0Zm-13-.12h12.83l-.94-4.74H129Z"/><polygon class="cls-5" points="144.97 127.21 132.01 127.21 131.06 122.35 144.01 122.35 144.97 127.21"/><path class="cls-10" d="M145,127.27H132v0l-1-4.93h13.08v0Zm-13-.12h12.83l-.93-4.74H131.13Z"/><polygon class="cls-5" points="147.22 138.62 134.26 138.62 133.31 133.76 146.26 133.76 147.22 138.62"/><path class="cls-10" d="M147.29,138.68H134.21v-.05l-1-4.93h13.08v.05Zm-13-.12h12.83l-.93-4.74H133.38Z"/><polygon class="cls-5" points="157.46 114.85 130.65 103.35 130.85 102.6 157.67 114.1 157.46 114.85"/><path class="cls-10" d="M157.5,114.94l-.06,0-26.86-11.53.24-.87.06,0,26.86,11.53Zm-26.78-11.63,26.7,11.46.17-.63L130.9,102.68Z"/><polygon class="cls-5" points="167.77 143.57 148.19 143.57 146.33 134.15 165.91 134.15 167.77 143.57"/><path class="cls-10" d="M167.85,143.63H148.14v0l-1.87-9.5H166v0Zm-19.61-.12H167.7l-1.84-9.3H146.41Z"/><polygon class="cls-5" points="156.76 131.06 154.19 131.06 150.94 114.57 153.51 114.57 156.76 131.06"/><path class="cls-10" d="M156.84,131.12h-2.7v-.05l-3.27-16.56h2.7v0Zm-2.6-.12h2.45l-3.23-16.37H151Z"/><g class="cls-16"><polygon class="cls-5" points="150.94 114.57 151.77 118.8 153.93 116.68 153.51 114.57 150.94 114.57"/><path class="cls-10" d="M151.73,118.92l-.87-4.41h2.7v0l.42,2.14,0,0Zm-.72-4.29.8,4,2.05-2-.4-2Z"/></g><g class="cls-16"><polygon class="cls-5" points="152.49 122.44 154.63 120.22 155.71 125.72 153.78 129 152.49 122.44"/><path class="cls-10" d="M153.75,129.16l0-.15-1.3-6.59,0,0,2.21-2.31,1.11,5.64v0Zm-1.19-6.7,1.25,6.37,1.84-3.12-1.06-5.37Z"/></g><g class="cls-16"><polygon class="cls-5" points="154.19 131.06 156.76 131.06 156.36 129 154.02 130.2 154.19 131.06"/><path class="cls-10" d="M156.84,131.12h-2.7l-.19-1,0,0,2.41-1.25,0,.08Zm-2.6-.12h2.45l-.38-1.91-2.22,1.14Z"/></g><g class="cls-16"><polygon class="cls-5" points="148.19 143.57 146.33 134.15 152.89 134.15 150.79 143.57 148.19 143.57"/><path class="cls-10" d="M150.84,143.63h-2.7v0l-1.87-9.5H153v.08Zm-2.6-.12h2.51l2.06-9.3h-6.4Z"/></g><g class="cls-16"><polygon class="cls-5" points="156.73 134.15 153.39 143.57 159.21 143.57 163.32 134.15 156.73 134.15"/><path class="cls-10" d="M159.24,143.63H153.3l0-.08,3.36-9.47h6.72l0,.09Zm-5.76-.12h5.69l4.06-9.3h-6.46Z"/></g><g class="cls-16"><polygon class="cls-5" points="166.6 137.61 162.35 143.57 167.77 143.57 166.6 137.61"/><path class="cls-10" d="M167.85,143.63h-5.62l4.4-6.17,0,.14Zm-5.38-.12h5.23l-1.14-5.75Z"/></g><polygon class="cls-5" points="166.51 134.52 146.41 134.52 146.26 133.76 166.36 133.76 166.51 134.52"/><path class="cls-10" d="M166.59,134.58H146.36l-.18-.88h20.23Zm-20.13-.12h20l-.13-.64h-20Z"/><g class="cls-16"><polygon class="cls-5" points="132.05 111.48 131.19 116.34 129.87 116.34 128.91 111.48 132.05 111.48"/><path class="cls-10" d="M131.24,116.4h-1.42v-.05l-1-4.93h3.29l0,.07Zm-1.32-.12h1.22l.84-4.74h-3Z"/></g><g class="cls-16"><polygon class="cls-5" points="135.96 111.48 135.16 116.34 139.75 116.34 140.91 111.48 135.96 111.48"/><path class="cls-10" d="M139.8,116.4h-4.71l.82-5H141Zm-4.56-.12h4.47l1.13-4.74H136Z"/></g><g class="cls-16"><polygon class="cls-5" points="134.2 122.35 133.34 127.21 132.01 127.21 131.06 122.35 134.2 122.35"/><path class="cls-10" d="M133.39,127.27H132v0l-1-4.93h3.29v.07Zm-1.33-.12h1.23l.84-4.74h-3Z"/></g><g class="cls-16"><polygon class="cls-5" points="138.1 122.35 137.31 127.21 141.9 127.21 143.06 122.35 138.1 122.35"/><path class="cls-10" d="M142,127.27h-4.71l.81-5h5.09Zm-4.57-.12h4.47l1.13-4.74h-4.82Z"/></g><g class="cls-16"><polygon class="cls-5" points="136.45 133.76 135.59 138.62 134.26 138.62 133.31 133.76 136.45 133.76"/><path class="cls-10" d="M135.64,138.68h-1.43v-.05l-1-4.93h3.29v.07Zm-1.33-.12h1.23l.84-4.74h-3Z"/></g><g class="cls-16"><polygon class="cls-5" points="140.35 133.76 139.56 138.62 144.15 138.62 145.31 133.76 140.35 133.76"/><path class="cls-10" d="M144.2,138.68h-4.71l.81-5h5.09Zm-4.57-.12h4.47l1.13-4.74h-4.82Z"/></g><polygon class="cls-5" points="169.02 144.15 133.5 144.15 133.18 142.54 168.71 142.54 169.02 144.15"/><path class="cls-10" d="M169.1,144.21H133.45v-.05l-.33-1.68h35.65v.05Zm-35.55-.12H169l-.29-1.49h-35.4Z"/></g><path class="cls-18" d="M145,104.19s.31,4.7,5.57,4,3.29-5,3.29-5l-3.7-1.78Z"/><path class="cls-8" d="M182.77,101.19s-14.86,7.74-31.43.15c0,0-2.92,5.52-2.44,7.42s4.53,4.48,16.24,5.81c12.47,1.41,20.51-3.09,20.51-3.09Z"/><path class="cls-10" d="M192.13,188.65s.13,2.19-1.4,2.93-6.09,1.64-4.24,2.92c1,.73,5.66-.15,7-.25s2.59.34,3.49-.55-.47-5.38-.47-5.38a5.47,5.47,0,0,1-2.1.68A4.48,4.48,0,0,1,192.13,188.65Z"/><path class="cls-10" d="M214.79,180.21s3.58,8.56,2.93,10.12-3.43,5.25-1.2,5c1.28-.15,4.12-3.84,5-4.78s2.16-1.46,2.23-2.73-4.5-5.71-4.5-5.71-.58-6.29-1.31-5.57C216.94,177.55,214.79,180.21,214.79,180.21Z"/><path class="cls-10" d="M188.27,85s-.81-3.7,2.72-4.34,3,2,3.66,2.54-.75,2.61-2.44,3S188.27,85,188.27,85Z"/><path class="cls-6" d="M178.73,134.62c.48-7,15.48.75,15.48.75s6.32,47.79,3.44,54.49c-.57,1.32-3,1.3-4.17,1.18-8.11-.88-10.13-24.76-12.24-35.26C180.17,150.52,178.44,138.83,178.73,134.62Z"/><path class="cls-10" d="M207.63,134.5c-.42,1.71-7.22,3.5-15.36,1.69s-14.5-3.74-14.07-5.45,7.47-2.56,15.61-.74S208.06,132.79,207.63,134.5Z"/><path class="cls-8" d="M181.44,108.06a25.41,25.41,0,0,1-3.83-2.1,15.11,15.11,0,0,1,13.31-6.67c1.25.07,6.88,1.16,8.1,1.23,12.16.67,8.67,33.32,8.61,34a54.51,54.51,0,0,0-29.43-3.76C178.08,119.05,180.19,107.24,181.44,108.06Z"/><path class="cls-6" d="M204.84,134.85s-13.68-4.11-25-3.44a1,1,0,0,0-1,.9s-.23,3.91-.13,5.21c.23,2.88,27.07,1.83,27.07,1.83Z"/><path class="cls-19" d="M197.48,100.25a6.1,6.1,0,0,1-4.93,2c-3.05,0-1.63-2.93-1.63-2.93a1.08,1.08,0,0,0,1.22-1.06l.08-.86,0-.42.13-1.35.1-1.22.44-5,1.41,5.07.24.86.82,3a2.83,2.83,0,0,0,2.08,1.94Z"/><path class="cls-10" d="M194.57,95.33A3.57,3.57,0,0,1,192.25,97l.13-1.35C193.26,95.43,194.57,95.33,194.57,95.33Z"/><path class="cls-10" d="M199,89.45a5.23,5.23,0,0,0-.12,2.51c.33,2.53-2.82,3.11-3.46,2.31-.08-.1.73-4.21.73-4.21l1-.39Z"/><ellipse class="cls-19" cx="192.55" cy="90.15" rx="5.8" ry="5.02" transform="translate(60.99 257.17) rotate(-76.86)"/><path class="cls-10" d="M191.31,85.48c.11.19-1.16,3,4.57,4.57s3.32-5.57-1-6.34c-6.19-1.12-7.75,2.65-7.39,4.14S191.31,85.48,191.31,85.48Z"/><path class="cls-10" d="M195.39,89s2,2.69.77,5c0,0,1.62-1.21,1.74-1.73a18.65,18.65,0,0,0,.06-2.48Z"/><path class="cls-19" d="M196.71,91.64a1.3,1.3,0,0,1-1.77-.14,1.23,1.23,0,0,1,.56-1.66,1.3,1.3,0,0,1,1.78.14A1.25,1.25,0,0,1,196.71,91.64Z"/><path class="cls-10" d="M192.06,90.14s-.06,0-.06-.08a.11.11,0,0,1,.08-.13,1.3,1.3,0,0,1,1.41.52.1.1,0,0,1,0,.15.14.14,0,0,1-.16,0,2.13,2.13,0,0,0-1.18-.43A.09.09,0,0,1,192.06,90.14Z"/><path class="cls-10" d="M192.76,91.42a.43.43,0,0,1-.41.42.42.42,0,0,1-.3-.5c0-.25.22-.44.42-.41A.4.4,0,0,1,192.76,91.42Z"/><path class="cls-10" d="M187.93,90.1a.15.15,0,0,1-.09,0,.11.11,0,0,1,0-.15,1.31,1.31,0,0,1,1.52,0,.1.1,0,0,1,0,.15s-.1,0-.16,0a2.2,2.2,0,0,0-1.26,0A.08.08,0,0,1,187.93,90.1Z"/><path class="cls-10" d="M189.11,91a.41.41,0,0,1-.22.54.44.44,0,0,1-.47-.36.39.39,0,0,1,.21-.53A.44.44,0,0,1,189.11,91Z"/><g class="cls-20"><ellipse class="cls-5" cx="192.99" cy="90.99" rx="2.67" ry="1.94" transform="translate(87.6 276.51) rotate(-85.64)"/></g><g class="cls-20"><ellipse class="cls-5" cx="188.08" cy="90.98" rx="2.64" ry="1.68" transform="translate(65.91 260.47) rotate(-80.03)"/></g><path class="cls-10" d="M195.05,90.85a2.72,2.72,0,0,0,0-.57,1.23,1.23,0,0,0,0-.19c0-.11,0-.22-.07-.33a2.48,2.48,0,0,0-1.15-1.6,1.63,1.63,0,0,0-1.38-.11l-.28.13a3,3,0,0,0-1.38,2.24l0,.33a4.29,4.29,0,0,0,0,.8,4.12,4.12,0,0,0,.21.73,2.33,2.33,0,0,0,1,1.2,1.67,1.67,0,0,0,.57.19l.17,0a1.78,1.78,0,0,0,.64-.1,1.83,1.83,0,0,0,.62-.36,3.12,3.12,0,0,0,1-1.7c0-.07,0-.15,0-.22A3.42,3.42,0,0,0,195.05,90.85Zm-3.46,2.09a2.54,2.54,0,0,1-.44-.73,2.92,2.92,0,0,1-.2-.69,3.48,3.48,0,0,1,0-.72,1.87,1.87,0,0,1,0-.34,2.8,2.8,0,0,1,1.33-2.15.67.67,0,0,1,.21-.09,1.4,1.4,0,0,1,.56-.09,1.47,1.47,0,0,1,.65.18,2,2,0,0,1,.73.71,2.49,2.49,0,0,1,.2.4v0h0a2,2,0,0,1,.08.22,3.34,3.34,0,0,1,.1.43,4.28,4.28,0,0,1,.05.49c0,.11,0,.21,0,.32s0,.22,0,.33h0a3,3,0,0,1-.89,1.78,1.74,1.74,0,0,1-.63.39,1.46,1.46,0,0,1-.74.07,1.51,1.51,0,0,1-.48-.16,1.79,1.79,0,0,1-.48-.39Z"/><path class="cls-10" d="M189.77,91a1.64,1.64,0,0,0,0-.22l-.07,0a4,4,0,0,1-.17,1.16h0a.56.56,0,0,0,0-.12v0s0-.1,0-.15l.06-.22a1.57,1.57,0,0,0,0-.23A.78.78,0,0,0,189.77,91Zm0,0a1.64,1.64,0,0,0,0-.22l-.07,0a4,4,0,0,1-.17,1.16h0a.56.56,0,0,0,0-.12v0s0-.1,0-.15l.06-.22a1.57,1.57,0,0,0,0-.23A.78.78,0,0,0,189.77,91Zm0,0a1.64,1.64,0,0,0,0-.22l-.07,0a4,4,0,0,1-.17,1.16h0a.56.56,0,0,0,0-.12v0s0-.1,0-.15l.06-.22a1.57,1.57,0,0,0,0-.23A.78.78,0,0,0,189.77,91Zm0,0a1.64,1.64,0,0,0,0-.22l-.07,0a4,4,0,0,1-.17,1.16h0a.56.56,0,0,0,0-.12v0s0-.1,0-.15l.06-.22a1.57,1.57,0,0,0,0-.23A.78.78,0,0,0,189.77,91Zm0,0a1.64,1.64,0,0,0,0-.22l-.07,0a4,4,0,0,1-.17,1.16h0a.56.56,0,0,0,0-.12v0s0-.1,0-.15l.06-.22a1.57,1.57,0,0,0,0-.23A.78.78,0,0,0,189.77,91Zm0,0a1.64,1.64,0,0,0,0-.22l-.07,0a4,4,0,0,1-.17,1.16h0a.56.56,0,0,0,0-.12v0s0-.1,0-.15l.06-.22a1.57,1.57,0,0,0,0-.23A.78.78,0,0,0,189.77,91Zm0,0a1.64,1.64,0,0,0,0-.22l-.07,0a4,4,0,0,1-.17,1.16h0a.56.56,0,0,0,0-.12v0s0-.1,0-.15l.06-.22a1.57,1.57,0,0,0,0-.23A.78.78,0,0,0,189.77,91Zm0,0a1.64,1.64,0,0,0,0-.22l-.07,0a4,4,0,0,1-.17,1.16h0a.56.56,0,0,0,0-.12v0s0-.1,0-.15l.06-.22a1.57,1.57,0,0,0,0-.23A.78.78,0,0,0,189.77,91Zm.14-.26c0-.11,0-.22,0-.33a1.1,1.1,0,0,1,0-.18,2.66,2.66,0,0,0-1.14-2,1.69,1.69,0,0,0-.43-.15,1,1,0,0,0-.35,0l-.26,0h0l-.07,0c-1,.37-1.66,1.89-1.46,3.39a2.62,2.62,0,0,0,1.14,2,1.15,1.15,0,0,0,.46.16,1.23,1.23,0,0,0,.57,0h0l.07,0a1.94,1.94,0,0,0,.93-.79h0a3.52,3.52,0,0,0,.51-1.35A3.44,3.44,0,0,0,189.91,90.75ZM189.53,92a2.88,2.88,0,0,1-.49.92,1.61,1.61,0,0,1-.58.47h0l-.08,0-.1,0a1.1,1.1,0,0,1-.85-.11,2.46,2.46,0,0,1-1-1.82h0v0c-.19-1.43.41-2.86,1.34-3.2l.18,0a.88.88,0,0,1,.36,0,1.19,1.19,0,0,1,.4.14h0a1.92,1.92,0,0,1,.65.7,3.24,3.24,0,0,1,.37,1.15,1.36,1.36,0,0,1,0,.2c0,.12,0,.24,0,.35a4,4,0,0,1-.17,1.16S189.53,92,189.53,92Zm.24-1a1.64,1.64,0,0,0,0-.22l-.07,0a4,4,0,0,1-.17,1.16h0a.56.56,0,0,0,0-.12v0s0-.1,0-.15l.06-.22a1.57,1.57,0,0,0,0-.23A.78.78,0,0,0,189.77,91Zm0,0a1.64,1.64,0,0,0,0-.22l-.07,0a4,4,0,0,1-.17,1.16h0a.56.56,0,0,0,0-.12v0s0-.1,0-.15l.06-.22a1.57,1.57,0,0,0,0-.23A.78.78,0,0,0,189.77,91Zm0,0a1.64,1.64,0,0,0,0-.22l-.07,0a4,4,0,0,1-.17,1.16h0a.56.56,0,0,0,0-.12v0s0-.1,0-.15l.06-.22a1.57,1.57,0,0,0,0-.23A.78.78,0,0,0,189.77,91Zm0,0a1.64,1.64,0,0,0,0-.22l-.07,0a4,4,0,0,1-.17,1.16h0a.56.56,0,0,0,0-.12v0s0-.1,0-.15l.06-.22a1.57,1.57,0,0,0,0-.23A.78.78,0,0,0,189.77,91Zm0,0a1.64,1.64,0,0,0,0-.22l-.07,0a4,4,0,0,1-.17,1.16h0a.56.56,0,0,0,0-.12v0s0-.1,0-.15l.06-.22a1.57,1.57,0,0,0,0-.23A.78.78,0,0,0,189.77,91Zm0,0a1.64,1.64,0,0,0,0-.22l-.07,0a4,4,0,0,1-.17,1.16h0a.56.56,0,0,0,0-.12v0s0-.1,0-.15l.06-.22a1.57,1.57,0,0,0,0-.23A.78.78,0,0,0,189.77,91Zm0,0a1.64,1.64,0,0,0,0-.22l-.07,0a4,4,0,0,1-.17,1.16h0a.56.56,0,0,0,0-.12v0s0-.1,0-.15l.06-.22a1.57,1.57,0,0,0,0-.23A.78.78,0,0,0,189.77,91Z"/><path class="cls-10" d="M189.6,90.84a.22.22,0,0,1-.13-.08.16.16,0,0,1,.07-.23,2.11,2.11,0,0,1,1.59,0,.16.16,0,0,1,.1.22.18.18,0,0,1-.23.09,1.71,1.71,0,0,0-1.29,0A.2.2,0,0,1,189.6,90.84Z"/><path class="cls-10" d="M196.11,85s1.08-3.65,4.54-2.72,2.42,2.69,2,3.81A3.43,3.43,0,0,1,199,87.68C197.34,87.32,196.11,85,196.11,85Z"/><path class="cls-10" d="M197.73,96.6a.1.1,0,0,1-.08,0,4.84,4.84,0,0,0-2-1.47.1.1,0,0,1-.06-.13.1.1,0,0,1,.13-.07,4.87,4.87,0,0,1,2.11,1.55.11.11,0,0,1,0,.15Z"/><path class="cls-21" d="M190.65,94.31a1.26,1.26,0,0,1-1-.37.06.06,0,0,1,.09-.07c.62.67,2,.07,2.06.07a.07.07,0,0,1,.08,0,.05.05,0,0,1,0,.07A3.42,3.42,0,0,1,190.65,94.31Z"/><path class="cls-15" d="M190.92,99.29s-1.26,2.86,1.63,2.93c0,0-1.52,1.42-2.58.85s-.05-1.08-.5-1.46-.95-.65-.5-1.1,0-1.22,0-1.22A4.42,4.42,0,0,1,190.92,99.29Z"/><path class="cls-15" d="M189.91,106.39a.44.44,0,0,0-.45-.43.43.43,0,1,0,0,.85A.44.44,0,0,0,189.91,106.39Z"/><path class="cls-22" d="M188,120a.44.44,0,0,0-.45-.42.42.42,0,1,0,0,.84A.44.44,0,0,0,188,120Z"/><ellipse class="cls-15" cx="187.55" cy="113.83" rx="0.45" ry="0.42"/><path class="cls-15" d="M197.48,100.25l2.06.37a1,1,0,0,1-.64,1.32c-1,.32-1.21.32-1.54,1s-1.58.76-2,.51-1.21.7-1.93.7-1.14-1.19-.86-2A13.64,13.64,0,0,0,197.48,100.25Z"/><path class="cls-10" d="M179.47,113.78h0a.08.08,0,0,1-.06-.08l1-5a.08.08,0,0,1,.08-.05s.07.05.06.08l-1.05,5A.07.07,0,0,1,179.47,113.78Z"/><path class="cls-6" d="M187.09,135s9.66,37.3,25.38,50.37a4.94,4.94,0,0,0,5.43.56l2.79-1.45a3.81,3.81,0,0,0,1.61-5.2c-4.17-7.71-14.11-27.26-17.46-44.38Z"/><path class="cls-10" d="M197.21,163.25c0-.1-4.18-10-5.63-15.56a11.47,11.47,0,0,0-6.08-7.5l.07-.18a11.67,11.67,0,0,1,6.2,7.63,153.13,153.13,0,0,0,5.62,15.53Z"/><polygon class="cls-6" points="172.79 126.52 138.6 111.25 139.96 108.2 143.19 109.65 174.16 123.47 172.79 126.52"/><path class="cls-10" d="M140.68,110h0a.06.06,0,0,1,0-.08l.52-1.16a.06.06,0,0,1,.08,0,.07.07,0,0,1,0,.08l-.52,1.16A.05.05,0,0,1,140.68,110Z"/><path class="cls-10" d="M141.78,110.47h0a.06.06,0,0,1,0-.08l.52-1.16a.06.06,0,0,1,.08,0,.06.06,0,0,1,0,.08l-.52,1.16A.07.07,0,0,1,141.78,110.47Z"/><path class="cls-10" d="M142.87,111h0a.06.06,0,0,1,0-.08l.52-1.16s.06,0,.08,0a.06.06,0,0,1,0,.08l-.52,1.16A.07.07,0,0,1,142.87,111Z"/><path class="cls-10" d="M144,111.44h0s-.05,0,0-.08l.52-1.16a.06.06,0,0,1,.08,0,.06.06,0,0,1,0,.08l-.52,1.16A.06.06,0,0,1,144,111.44Z"/><path class="cls-10" d="M144.75,112.63h0a.08.08,0,0,1,0-.1l.83-1.84a.07.07,0,0,1,.1,0,.07.07,0,0,1,0,.1l-.82,1.84A.1.1,0,0,1,144.75,112.63Z"/><path class="cls-10" d="M146.06,112.38h0a.06.06,0,0,1,0-.08l.52-1.16a.06.06,0,0,1,.08,0,.06.06,0,0,1,0,.08l-.52,1.16A.07.07,0,0,1,146.06,112.38Z"/><path class="cls-10" d="M147.15,112.87s0,0,0,0a.06.06,0,0,1,0-.08l.52-1.16s0-.05.08,0a.06.06,0,0,1,0,.08l-.52,1.16A.08.08,0,0,1,147.15,112.87Z"/><path class="cls-10" d="M148.24,113.35h0s-.05,0,0-.08l.52-1.16a.06.06,0,0,1,.08,0,.06.06,0,0,1,0,.08l-.52,1.16A.06.06,0,0,1,148.24,113.35Z"/><path class="cls-10" d="M149.34,113.84h0a.07.07,0,0,1,0-.08l.52-1.16a.06.06,0,0,1,.08,0,.07.07,0,0,1,0,.09l-.52,1.15A.05.05,0,0,1,149.34,113.84Z"/><path class="cls-10" d="M150.13,115h0a.08.08,0,0,1,0-.11l.82-1.83a.08.08,0,1,1,.14.06L150.2,115A.07.07,0,0,1,150.13,115Z"/><path class="cls-10" d="M151.65,114.87h0a.07.07,0,0,1,0-.08l.52-1.16a.06.06,0,0,1,.11.05l-.52,1.16A.05.05,0,0,1,151.65,114.87Z"/><path class="cls-10" d="M152.74,115.36h0a.07.07,0,0,1,0-.09l.52-1.15a.06.06,0,1,1,.12,0l-.52,1.16A.06.06,0,0,1,152.74,115.36Z"/><path class="cls-10" d="M153.83,115.85h0a.06.06,0,0,1,0-.08l.52-1.16a.06.06,0,0,1,.08,0,.07.07,0,0,1,0,.08l-.52,1.16A.07.07,0,0,1,153.83,115.85Z"/><path class="cls-10" d="M154.93,116.34h0a.06.06,0,0,1,0-.08l.52-1.16a.06.06,0,1,1,.11,0L155,116.3A.07.07,0,0,1,154.93,116.34Z"/><path class="cls-10" d="M155.72,117.52h0a.07.07,0,0,1,0-.1l.82-1.84a.07.07,0,0,1,.1,0,.08.08,0,0,1,0,.11l-.82,1.83A.08.08,0,0,1,155.72,117.52Z"/><path class="cls-10" d="M157,117.27h0a.08.08,0,0,1,0-.09l.52-1.15a.06.06,0,1,1,.12,0l-.52,1.16A.06.06,0,0,1,157,117.27Z"/><path class="cls-10" d="M158.11,117.76h0a.06.06,0,0,1,0-.08l.52-1.16a.06.06,0,0,1,.08,0,.07.07,0,0,1,0,.08l-.52,1.16A.05.05,0,0,1,158.11,117.76Z"/><path class="cls-10" d="M159.21,118.25h0a.06.06,0,0,1,0-.08l.52-1.16a.06.06,0,0,1,.08,0s.05,0,0,.08l-.52,1.16A.07.07,0,0,1,159.21,118.25Z"/><path class="cls-10" d="M160.3,118.74h0a.06.06,0,0,1,0-.08l.52-1.16s.06,0,.08,0a.06.06,0,0,1,0,.08l-.52,1.16A.08.08,0,0,1,160.3,118.74Z"/><path class="cls-10" d="M161.09,119.92h0a.07.07,0,0,1,0-.1l.82-1.84a.08.08,0,0,1,.1,0,.08.08,0,0,1,0,.11l-.82,1.83A.08.08,0,0,1,161.09,119.92Z"/><path class="cls-10" d="M162.43,119.69h0a.06.06,0,0,1,0-.08l.52-1.16a.07.07,0,0,1,.09,0,.06.06,0,0,1,0,.08l-.52,1.16A.07.07,0,0,1,162.43,119.69Z"/><path class="cls-10" d="M163.52,120.18h0a.06.06,0,0,1,0-.08l.52-1.16a.06.06,0,0,1,.08,0,.06.06,0,0,1,0,.08l-.52,1.16A.07.07,0,0,1,163.52,120.18Z"/><path class="cls-10" d="M164.62,120.66h0a.07.07,0,0,1,0-.08l.52-1.16a.06.06,0,0,1,.11,0l-.52,1.16A.05.05,0,0,1,164.62,120.66Z"/><path class="cls-10" d="M165.71,121.15h0a.07.07,0,0,1,0-.09l.52-1.15a.07.07,0,0,1,.09,0,.07.07,0,0,1,0,.08l-.52,1.16A.05.05,0,0,1,165.71,121.15Z"/><path class="cls-10" d="M166.5,122.33h0a.08.08,0,0,1,0-.11l.82-1.83a.08.08,0,0,1,.11,0,.08.08,0,0,1,0,.1l-.82,1.84A.07.07,0,0,1,166.5,122.33Z"/><path class="cls-10" d="M167.8,122.09h0a.06.06,0,0,1,0-.08l.52-1.16a.06.06,0,0,1,.08,0,.06.06,0,0,1,0,.08l-.52,1.16A.07.07,0,0,1,167.8,122.09Z"/><path class="cls-10" d="M168.9,122.57h0a.07.07,0,0,1,0-.08l.52-1.16a.06.06,0,0,1,.11,0l-.52,1.16A.05.05,0,0,1,168.9,122.57Z"/><path class="cls-10" d="M170,123.06h0s-.05,0,0-.08l.51-1.16a.07.07,0,0,1,.09,0,.06.06,0,0,1,0,.08l-.52,1.16A.06.06,0,0,1,170,123.06Z"/><path class="cls-10" d="M171.08,123.55h0a.06.06,0,0,1,0-.08l.52-1.16a.06.06,0,0,1,.08,0,.07.07,0,0,1,0,.08l-.52,1.16A.05.05,0,0,1,171.08,123.55Z"/><path class="cls-10" d="M171.88,124.73h0a.09.09,0,0,1,0-.11l.83-1.84a.07.07,0,0,1,.1,0,.07.07,0,0,1,0,.1l-.82,1.84A.09.09,0,0,1,171.88,124.73Z"/><path class="cls-19" d="M170.64,120.77c-.72-.65-2.45-1.65-3.18-2.29-.32-.27-1.45-1.14-1.8-.88s.22,1.31.54,1.8c-3.57-.52-8.44.1-1.36,1.45h0c-.62-.07-5.14-.75-5.05.24.06.72,3.8,1.17,4.82,1.29v0c-1.05,0-4.2-.35-4.18.34,0,.91,4.12,1.18,4.12,1.18s-3.38-.3-2.92.65c.26.54,2.26.66,3.52.71h0l.66,0a2.42,2.42,0,0,0,.39,0,16.68,16.68,0,0,0,3.46-.37,2.2,2.2,0,0,0,2-1.8A3,3,0,0,0,170.64,120.77Z"/><path class="cls-8" d="M199.87,106.39s-8.06,12-15.53,12.08-13.38-.55-14.41,1.75-1.68,6,1.41,7,19.67,2.94,24.79-2.6,6.09-8.15,6.09-8.15Z"/><path class="cls-10" d="M154.49,99.09l-9.28,10.79a.39.39,0,0,1-.53,0h0a.39.39,0,0,1,0-.53l9.28-10.78a.37.37,0,0,1,.53,0h0A.38.38,0,0,1,154.49,99.09Z"/><polygon class="cls-10" points="144.1 110.8 144.56 109.57 145.1 109.97 144.1 110.8"/><path class="cls-19" d="M147.48,100.42s1.61-1.43,2.75-.09c1.45,1.7.85,7.15-1.25,2.73-.06-.13.75,2.71-.09,3-.63.23-1.59-2.06-1.59-2.06s.78,2.94.15,3.28-1.67-2.06-1.67-2.06,1.13,2.76-.1,2.64c-.67-.07-1.67-2.56-2.1-3.5s.08-1.51,1-1.94a3.35,3.35,0,0,1,1.42-1.07c.26-.05.39-.37.55-.48A6.65,6.65,0,0,1,147.48,100.42Z"/><path class="cls-10" d="M178.37,128.12h-.16V128a53.42,53.42,0,0,0,7.29-.51c3.56-.5,8.27-1.61,10.49-4a31.24,31.24,0,0,0,5.8-8.62l.11,0a31.13,31.13,0,0,1-5.82,8.65c-2.24,2.46-7,3.58-10.57,4.08A54.63,54.63,0,0,1,178.37,128.12Z"/><path class="cls-10" d="M178.76,118.53h0v-.13h0c.22,0,7.18,0,8.78-1.33a31.22,31.22,0,0,0,3.86-4.48l.1.07a31.48,31.48,0,0,1-3.88,4.5C186,118.5,179.31,118.53,178.76,118.53Z"/><path class="cls-23" d="M103,193.87s-.65,2.9,5.78,4h42.45s-3.17-1.57-3.22-4S103,193.87,103,193.87Z"/><rect class="cls-1" x="104.71" y="189.53" width="42.48" height="6.29"/><ellipse class="cls-24" cx="104.57" cy="192.67" rx="2.22" ry="3.14"/><ellipse class="cls-25" cx="147.18" cy="192.67" rx="2.22" ry="3.14"/><path class="cls-1" d="M127.21,197.13s-.48,2.91,4.31,4h31.65s-2.37-1.58-2.41-4S127.21,197.13,127.21,197.13Z"/><rect class="cls-5" x="128.52" y="192.79" width="31.66" height="6.29"/><ellipse class="cls-24" cx="128.42" cy="195.93" rx="1.65" ry="3.14"/><ellipse class="cls-5" cx="160.19" cy="195.93" rx="1.65" ry="3.14"/></svg>