<svg id="Layer_1" data-name="Layer 1" xmlns="http://www.w3.org/2000/svg" viewBox="0 0 100 100"><defs><style>.cls-1{fill:#3b0f37;}.cls-2{fill:#f9320b;}.cls-3{fill:#fff;}</style></defs><polygon class="cls-1" points="30.76 100 25.36 84.5 10.42 91.3 33.42 37.52 53.76 46.23 30.76 100"/><polygon class="cls-1" points="69.24 100 74.64 84.5 89.58 91.3 66.58 37.52 46.24 46.23 69.24 100"/><polygon class="cls-2" points="47.86 0 52.39 4.39 58.06 1.62 61.02 7.2 67.27 6.3 68.35 12.52 74.57 13.61 73.68 19.86 79.26 22.81 76.48 28.48 80.87 33.02 76.48 37.55 79.26 43.22 73.68 46.17 74.57 52.42 68.35 53.51 67.27 59.72 61.02 58.83 58.06 64.41 52.39 61.64 47.86 66.03 43.33 61.64 37.66 64.41 34.7 58.83 28.45 59.72 27.37 53.51 21.15 52.42 22.04 46.17 16.46 43.22 19.24 37.55 14.85 33.02 19.24 28.48 16.46 22.81 22.04 19.86 21.15 13.61 27.37 12.52 28.45 6.3 34.7 7.2 37.66 1.62 43.33 4.39 47.86 0"/><circle class="cls-3" cx="47.86" cy="33.01" r="22.27"/><polygon class="cls-1" points="45.59 45.28 35.2 37.75 38.02 33.63 44.04 37.99 56.13 20.75 60.52 23.99 45.59 45.28"/></svg>