<svg id="Layer_1" data-name="Layer 1" xmlns="http://www.w3.org/2000/svg" viewBox="0 0 50 50"><defs><style>.cls-1{fill:#f9320b;}</style></defs><path class="cls-1" d="M30.16,1a1.45,1.45,0,0,0-1.38-1H21.22a1.45,1.45,0,0,0-1.38,1l-7,22.37a1.18,1.18,0,0,0,1.13,1.54h3v5.2a1.71,1.71,0,0,0-1.13,1.61,1.73,1.73,0,0,0,3.46,0,1.71,1.71,0,0,0-1.13-1.61v-5.2h4.71V44.1l-6.11,4.44A.8.8,0,0,0,17.23,50H32.77a.81.81,0,0,0,.48-1.46L27.13,44.1V24.92h8.93a1.18,1.18,0,0,0,1.13-1.54ZM31.55,48.8H18.45l5.62-4.09V24.92h1.86V44.71ZM14,23.74,21,1.37a.25.25,0,0,1,.23-.17h7.56a.24.24,0,0,1,.23.17l7,22.35Z"/></svg>