<svg id="Layer_1" data-name="Layer 1" xmlns="http://www.w3.org/2000/svg" viewBox="0 0 100 100"><defs><style>.cls-1{fill:#f9320b;}.cls-2{fill:#3b0f37;}</style></defs><path class="cls-1" d="M12.35,90.3a2.58,2.58,0,0,1-2.58-2.58v-12H6.42A6.43,6.43,0,0,1,0,69.3V16.1A6.41,6.41,0,0,1,6.4,9.7H94.29A5.71,5.71,0,0,1,100,15.41V69.3a6.42,6.42,0,0,1-6.4,6.42H30.72L14,89.7A2.56,2.56,0,0,1,12.35,90.3ZM6.4,13.78A2.32,2.32,0,0,0,4.08,16.1V69.3a2.34,2.34,0,0,0,2.34,2.34h5.39a2,2,0,0,1,2,2V84.51l14.82-12.4A2,2,0,0,1,30,71.64H93.6a2.33,2.33,0,0,0,2.32-2.34V15.41a1.63,1.63,0,0,0-1.63-1.63Z"/><path class="cls-2" d="M68,56.79a2,2,0,0,1-2-2.39L67.47,46l-6.1-5.95a2,2,0,0,1,1.13-3.48l8.43-1.22,3.77-7.64a2,2,0,0,1,3.66,0l3.77,7.64,8.43,1.22a2,2,0,0,1,1.13,3.48L85.59,46,87,54.08a1.85,1.85,0,0,1,.11.67,2,2,0,0,1-2,2h0a2,2,0,0,1-1-.24l-7.54-4-7.54,4A2,2,0,0,1,68,56.79Zm8.49-8.55a2,2,0,0,1,1,.24L82.31,51l-.92-5.38A2,2,0,0,1,82,43.83L85.88,40l-5.4-.78a2.08,2.08,0,0,1-1.54-1.12l-2.41-4.89-2.42,4.89a2,2,0,0,1-1.53,1.12l-5.4.78,3.9,3.81a2,2,0,0,1,.59,1.81L70.75,51l4.83-2.54A2,2,0,0,1,76.53,48.24Z"/><path class="cls-2" d="M54.46,53.9a2,2,0,0,1-1-.24l-5.66-3-5.66,3a2,2,0,0,1-3-2.15l1.08-6.3-4.58-4.47a2,2,0,0,1,1.13-3.48l6.33-.92L46,30.61a2,2,0,0,1,3.66,0l2.83,5.73,6.33.92A2,2,0,0,1,60,40.74l-4.58,4.47,1,6a2.09,2.09,0,0,1,.11.67,2,2,0,0,1-2,2Zm-6.61-7.56a2,2,0,0,1,.95.24l3,1.55-.56-3.29A2.07,2.07,0,0,1,51.78,43l2.38-2.32-3.3-.48a2,2,0,0,1-1.53-1.12l-1.48-3-1.47,3a2.08,2.08,0,0,1-1.54,1.12l-3.3.48L43.93,43a2,2,0,0,1,.58,1.81L44,48.13l2.95-1.55A2,2,0,0,1,47.85,46.34Z"/><path class="cls-2" d="M15.44,53.9a2,2,0,0,1-2-2.39l1.08-6.3L9.93,40.74a2,2,0,0,1,1.13-3.48l6.33-.92,2.83-5.73a2,2,0,0,1,1.83-1.14h0a2,2,0,0,1,1.83,1.14l2.83,5.73,6.33.92a2,2,0,0,1,1.13,3.48l-4.58,4.47,1,6a2.09,2.09,0,0,1,.11.67,2,2,0,0,1-2,2h0a2,2,0,0,1-.95-.24l-5.66-3-5.66,3A2,2,0,0,1,15.44,53.9Zm.3-13.19L18.12,43a2,2,0,0,1,.59,1.81l-.56,3.29,3-1.55a2,2,0,0,1,1.9,0L26,48.13l-.56-3.29A2,2,0,0,1,26,43l2.39-2.32-3.3-.48a2.08,2.08,0,0,1-1.54-1.12l-1.47-3-1.48,3A2,2,0,0,1,19,40.23Z"/></svg>