<svg xmlns="http://www.w3.org/2000/svg" xmlns:xlink="http://www.w3.org/1999/xlink" viewBox="0 0 100 100"><defs><style>.cls-1,.cls-38,.cls-41,.cls-42,.cls-49,.cls-50{fill:none;}.cls-2{isolation:isolate;}.cls-3,.cls-5{fill:#f9320b;}.cls-3{opacity:0.5;}.cls-4{fill:#261d2a;}.cls-6{fill:#3b0f37;}.cls-7{fill:url(#Degradado_sin_nombre_137);}.cls-8{opacity:0.52;}.cls-9{clip-path:url(#clip-path);}.cls-10,.cls-11,.cls-12,.cls-13,.cls-14,.cls-15,.cls-16,.cls-17,.cls-18,.cls-19,.cls-20,.cls-21,.cls-22,.cls-23,.cls-24,.cls-25,.cls-26,.cls-27,.cls-28,.cls-29,.cls-30,.cls-31,.cls-32,.cls-33,.cls-34,.cls-35,.cls-36,.cls-37,.cls-40,.cls-41,.cls-42,.cls-43,.cls-51,.cls-52,.cls-53,.cls-54,.cls-55,.cls-56,.cls-57,.cls-58,.cls-59,.cls-60,.cls-61,.cls-62,.cls-63,.cls-64,.cls-65,.cls-66,.cls-67,.cls-68,.cls-69,.cls-70,.cls-71,.cls-72,.cls-73,.cls-74,.cls-75,.cls-76{mix-blend-mode:multiply;}.cls-10{fill:url(#Degradado_sin_nombre_173);}.cls-11{fill:url(#Degradado_sin_nombre_173-2);}.cls-12{fill:url(#Degradado_sin_nombre_173-3);}.cls-13{fill:url(#Degradado_sin_nombre_173-4);}.cls-14{fill:url(#Degradado_sin_nombre_173-5);}.cls-15{fill:url(#Degradado_sin_nombre_173-6);}.cls-16{fill:url(#Degradado_sin_nombre_173-7);}.cls-17{fill:url(#Degradado_sin_nombre_173-8);}.cls-18{fill:url(#Degradado_sin_nombre_173-9);}.cls-19{fill:url(#Degradado_sin_nombre_173-10);}.cls-20{fill:url(#Degradado_sin_nombre_173-11);}.cls-21{fill:url(#Degradado_sin_nombre_173-12);}.cls-22{fill:url(#Degradado_sin_nombre_173-13);}.cls-23{fill:url(#Degradado_sin_nombre_173-14);}.cls-24{fill:url(#Degradado_sin_nombre_173-15);}.cls-25{fill:url(#Degradado_sin_nombre_173-16);}.cls-26{fill:url(#Degradado_sin_nombre_173-17);}.cls-27{fill:url(#Degradado_sin_nombre_173-18);}.cls-28{fill:url(#Degradado_sin_nombre_173-19);}.cls-29{fill:url(#Degradado_sin_nombre_173-20);}.cls-30{fill:url(#Degradado_sin_nombre_173-21);}.cls-31{fill:url(#Degradado_sin_nombre_173-22);}.cls-32{fill:url(#Degradado_sin_nombre_173-23);}.cls-33{fill:url(#Degradado_sin_nombre_173-24);}.cls-34{fill:url(#Degradado_sin_nombre_173-25);}.cls-35{fill:url(#Degradado_sin_nombre_173-26);}.cls-36{fill:url(#Degradado_sin_nombre_173-27);}.cls-37{fill:url(#Degradado_sin_nombre_173-28);}.cls-38,.cls-41,.cls-42,.cls-49,.cls-50{stroke-miterlimit:10;}.cls-38,.cls-49{stroke-width:1.17px;}.cls-38{stroke:url(#Degradado_sin_nombre_148);}.cls-39{fill:url(#Degradado_sin_nombre_126);}.cls-40{fill:url(#Degradado_sin_nombre_204);}.cls-41,.cls-42{stroke-width:0.92px;}.cls-41{stroke:url(#Degradado_sin_nombre_204-2);}.cls-42{stroke:url(#Degradado_sin_nombre_126-3);}.cls-44{fill:url(#Degradado_sin_nombre_79);}.cls-45{fill:url(#Degradado_sin_nombre_79-2);}.cls-46{fill:url(#Degradado_sin_nombre_79-3);}.cls-47{fill:url(#Degradado_sin_nombre_79-4);}.cls-48{fill:url(#Degradado_sin_nombre_79-5);}.cls-49{stroke:url(#Degradado_sin_nombre_148-2);}.cls-50{stroke-width:1.02px;mix-blend-mode:overlay;opacity:0.31;stroke:url(#Degradado_sin_nombre_137-2);}.cls-51{opacity:0.39;fill:url(#Degradado_sin_nombre_166);}.cls-52{fill:#aa7305;}.cls-53{fill:url(#Degradado_sin_nombre_166-2);}.cls-54{fill:url(#Degradado_sin_nombre_166-3);}.cls-55{fill:url(#Degradado_sin_nombre_166-4);}.cls-56{fill:url(#Degradado_sin_nombre_166-5);}.cls-57{fill:url(#Degradado_sin_nombre_166-6);}.cls-58{fill:url(#Degradado_sin_nombre_166-7);}.cls-59{fill:url(#Degradado_sin_nombre_166-8);}.cls-60{fill:url(#Degradado_sin_nombre_166-9);}.cls-61{fill:url(#Degradado_sin_nombre_166-10);}.cls-62{fill:url(#Degradado_sin_nombre_166-11);}.cls-63{fill:url(#Degradado_sin_nombre_166-12);}.cls-64{fill:url(#Degradado_sin_nombre_166-13);}.cls-65{fill:url(#Degradado_sin_nombre_166-14);}.cls-66{fill:url(#Degradado_sin_nombre_166-15);}.cls-67{fill:url(#Degradado_sin_nombre_166-16);}.cls-68{fill:url(#Degradado_sin_nombre_166-17);}.cls-69{fill:url(#Degradado_sin_nombre_166-18);}.cls-70{fill:url(#Degradado_sin_nombre_166-19);}.cls-71{fill:url(#Degradado_sin_nombre_166-20);}.cls-72{fill:url(#Degradado_sin_nombre_166-21);}.cls-73{fill:url(#Degradado_sin_nombre_166-22);}.cls-74{fill:url(#Degradado_sin_nombre_166-23);}.cls-75{fill:url(#Degradado_sin_nombre_166-24);}.cls-76{fill:url(#Degradado_sin_nombre_166-25);}</style><linearGradient id="Degradado_sin_nombre_137" x1="60.44" y1="3.07" x2="42.93" y2="49.15" gradientUnits="userSpaceOnUse"><stop offset="0" stop-color="#f5dd88"/><stop offset="1" stop-color="#fcd165"/></linearGradient><clipPath id="clip-path"><circle class="cls-1" cx="50" cy="30.55" r="25.86"/></clipPath><linearGradient id="Degradado_sin_nombre_173" x1="396.63" y1="-21.97" x2="397.44" y2="-21.97" gradientTransform="translate(-347.03 52.52)" gradientUnits="userSpaceOnUse"><stop offset="0" stop-color="#eab328"/><stop offset="1" stop-color="#c2882a"/></linearGradient><linearGradient id="Degradado_sin_nombre_173-2" x1="253.84" y1="128.65" x2="254.66" y2="128.65" gradientTransform="translate(-204.25 -98.11)" xlink:href="#Degradado_sin_nombre_173"/><linearGradient id="Degradado_sin_nombre_173-3" x1="356.51" y1="83" x2="357.32" y2="83" gradientTransform="translate(-306.91 -52.45)" xlink:href="#Degradado_sin_nombre_173"/><linearGradient id="Degradado_sin_nombre_173-4" x1="149.04" y1="88.54" x2="149.85" y2="88.54" gradientTransform="translate(-99.45 -57.99)" xlink:href="#Degradado_sin_nombre_173"/><linearGradient id="Degradado_sin_nombre_173-5" x1="395.9" y1="-6.72" x2="396.71" y2="-6.72" gradientTransform="translate(-346.31 37.29)" xlink:href="#Degradado_sin_nombre_173"/><linearGradient id="Degradado_sin_nombre_173-6" x1="238.51" y1="128.57" x2="239.32" y2="128.57" gradientTransform="translate(-188.92 -98.02)" xlink:href="#Degradado_sin_nombre_173"/><linearGradient id="Degradado_sin_nombre_173-7" x1="345.06" y1="93.21" x2="345.87" y2="93.21" gradientTransform="translate(-295.48 -62.65)" xlink:href="#Degradado_sin_nombre_173"/><linearGradient id="Degradado_sin_nombre_173-8" x1="138.11" y1="77.59" x2="138.93" y2="77.59" gradientTransform="translate(-88.52 -47.05)" xlink:href="#Degradado_sin_nombre_173"/><linearGradient id="Degradado_sin_nombre_173-9" x1="393.93" y1="9.8" x2="394.74" y2="9.8" gradientTransform="translate(-344.33 20.77)" xlink:href="#Degradado_sin_nombre_173"/><linearGradient id="Degradado_sin_nombre_173-10" x1="222.37" y1="126.6" x2="223.18" y2="126.6" gradientTransform="translate(-172.78 -96.04)" xlink:href="#Degradado_sin_nombre_173"/><linearGradient id="Degradado_sin_nombre_173-11" x1="332.74" y1="102.75" x2="333.56" y2="102.75" gradientTransform="translate(-283.15 -72.2)" xlink:href="#Degradado_sin_nombre_173"/><linearGradient id="Degradado_sin_nombre_173-12" x1="128.84" y1="64.05" x2="129.66" y2="64.05" gradientTransform="matrix(1, 0, 0, 1, -79.25, -33.51)" xlink:href="#Degradado_sin_nombre_173"/><linearGradient id="Degradado_sin_nombre_173-13" x1="390.24" y1="23.57" x2="391.06" y2="23.57" gradientTransform="matrix(1, 0, 0, 1, -340.66, 6.99)" xlink:href="#Degradado_sin_nombre_173"/><linearGradient id="Degradado_sin_nombre_173-14" x1="208.04" y1="122.95" x2="208.86" y2="122.95" gradientTransform="translate(-158.46 -92.4)" xlink:href="#Degradado_sin_nombre_173"/><linearGradient id="Degradado_sin_nombre_173-15" x1="319.84" y1="110.22" x2="320.65" y2="110.22" gradientTransform="translate(-270.26 -79.67)" xlink:href="#Degradado_sin_nombre_173"/><linearGradient id="Degradado_sin_nombre_173-16" x1="120.73" y1="51.67" x2="121.55" y2="51.67" gradientTransform="translate(-71.15 -21.13)" xlink:href="#Degradado_sin_nombre_173"/><linearGradient id="Degradado_sin_nombre_173-17" x1="386.08" y1="37.49" x2="386.9" y2="37.49" gradientTransform="translate(-336.48 -6.96)" xlink:href="#Degradado_sin_nombre_173"/><linearGradient id="Degradado_sin_nombre_173-18" x1="194.61" y1="117.57" x2="195.42" y2="117.57" gradientTransform="translate(-145.01 -87.02)" xlink:href="#Degradado_sin_nombre_173"/><linearGradient id="Degradado_sin_nombre_173-19" x1="305.96" y1="117.39" x2="306.77" y2="117.39" gradientTransform="matrix(1, 0, 0, 1, -256.38, -86.84)" xlink:href="#Degradado_sin_nombre_173"/><linearGradient id="Degradado_sin_nombre_173-20" x1="113.96" y1="38.61" x2="114.77" y2="38.61" gradientTransform="matrix(1, 0, 0, 1, -64.37, -8.06)" xlink:href="#Degradado_sin_nombre_173"/><linearGradient id="Degradado_sin_nombre_173-21" x1="378.61" y1="52.56" x2="379.42" y2="52.56" gradientTransform="matrix(1, 0, 0, 1, -329.01, -21.99)" xlink:href="#Degradado_sin_nombre_173"/><linearGradient id="Degradado_sin_nombre_173-22" x1="179.55" y1="111.29" x2="180.36" y2="111.29" gradientTransform="translate(-129.95 -80.73)" xlink:href="#Degradado_sin_nombre_173"/><linearGradient id="Degradado_sin_nombre_173-23" x1="291.9" y1="122.78" x2="292.71" y2="122.78" gradientTransform="translate(-242.3 -92.23)" xlink:href="#Degradado_sin_nombre_173"/><linearGradient id="Degradado_sin_nombre_173-24" x1="109.6" y1="23.56" x2="110.42" y2="23.56" gradientTransform="translate(-60.01 6.99)" xlink:href="#Degradado_sin_nombre_173"/><linearGradient id="Degradado_sin_nombre_173-25" x1="369.32" y1="67.8" x2="370.14" y2="67.8" gradientTransform="translate(-319.72 -37.25)" xlink:href="#Degradado_sin_nombre_173"/><linearGradient id="Degradado_sin_nombre_173-26" x1="164.55" y1="101.65" x2="165.37" y2="101.65" gradientTransform="translate(-114.96 -71.09)" xlink:href="#Degradado_sin_nombre_173"/><linearGradient id="Degradado_sin_nombre_173-27" x1="273.93" y1="126.88" x2="274.75" y2="126.88" gradientTransform="translate(-224.34 -96.32)" xlink:href="#Degradado_sin_nombre_173"/><linearGradient id="Degradado_sin_nombre_173-28" x1="105.2" y1="6.02" x2="106.02" y2="6.02" gradientTransform="translate(-55.61 24.53)" xlink:href="#Degradado_sin_nombre_173"/><linearGradient id="Degradado_sin_nombre_148" x1="22.9" y1="30.55" x2="77.1" y2="30.55" gradientUnits="userSpaceOnUse"><stop offset="0" stop-color="#eab328"/><stop offset="0.03" stop-color="#c28830"/><stop offset="1" stop-color="#eab328"/></linearGradient><linearGradient id="Degradado_sin_nombre_126" x1="27.24" y1="30.55" x2="72.76" y2="30.55" gradientUnits="userSpaceOnUse"><stop offset="0" stop-color="#fcc938"/><stop offset="1" stop-color="#ffdb67"/></linearGradient><linearGradient id="Degradado_sin_nombre_204" x1="30.78" y1="30.55" x2="69.22" y2="30.55" gradientUnits="userSpaceOnUse"><stop offset="0" stop-color="#ffdb67" stop-opacity="0.5"/><stop offset="0.48" stop-color="#fcc938"/><stop offset="1" stop-color="#ffdb67" stop-opacity="0.6"/></linearGradient><linearGradient id="Degradado_sin_nombre_204-2" x1="30.31" y1="30.55" x2="69.69" y2="30.55" xlink:href="#Degradado_sin_nombre_204"/><linearGradient id="Degradado_sin_nombre_126-3" x1="31.48" y1="30.55" x2="68.52" y2="30.55" xlink:href="#Degradado_sin_nombre_126"/><linearGradient id="Degradado_sin_nombre_79" x1="27.24" y1="33.95" x2="72.76" y2="33.95" gradientUnits="userSpaceOnUse"><stop offset="0" stop-color="#ffe08d" stop-opacity="0"/><stop offset="0.44" stop-color="#ffd974" stop-opacity="0.47"/><stop offset="0.83" stop-color="#ffd45f" stop-opacity="0.85"/><stop offset="1" stop-color="#ffd257"/></linearGradient><linearGradient id="Degradado_sin_nombre_79-2" x1="27.24" y1="40.01" x2="72.76" y2="40.01" xlink:href="#Degradado_sin_nombre_79"/><linearGradient id="Degradado_sin_nombre_79-3" x1="27.24" y1="23.02" x2="72.76" y2="23.02" xlink:href="#Degradado_sin_nombre_79"/><linearGradient id="Degradado_sin_nombre_79-4" x1="27.24" y1="28.47" x2="72.76" y2="28.47" xlink:href="#Degradado_sin_nombre_79"/><linearGradient id="Degradado_sin_nombre_79-5" x1="48.48" y1="34.47" x2="41.87" y2="51.65" xlink:href="#Degradado_sin_nombre_79"/><linearGradient id="Degradado_sin_nombre_148-2" x1="26.65" y1="30.55" x2="73.35" y2="30.55" xlink:href="#Degradado_sin_nombre_148"/><linearGradient id="Degradado_sin_nombre_137-2" x1="24.13" y1="30.55" x2="75.87" y2="30.55" xlink:href="#Degradado_sin_nombre_137"/><linearGradient id="Degradado_sin_nombre_166" x1="50.09" y1="14.63" x2="48.44" y2="52.67" gradientUnits="userSpaceOnUse"><stop offset="0" stop-color="#fcd165"/><stop offset="0.45" stop-color="#f9d776" stop-opacity="0.53"/><stop offset="0.83" stop-color="#f6db83" stop-opacity="0.15"/><stop offset="1" stop-color="#f5dd88" stop-opacity="0"/></linearGradient><linearGradient id="Degradado_sin_nombre_166-2" x1="50.66" y1="11.04" x2="49.5" y2="9.23" xlink:href="#Degradado_sin_nombre_166"/><linearGradient id="Degradado_sin_nombre_166-3" x1="50.66" y1="52.17" x2="49.5" y2="50.36" xlink:href="#Degradado_sin_nombre_166"/><linearGradient id="Degradado_sin_nombre_166-4" x1="-152.24" y1="-192.09" x2="-153.4" y2="-193.9" gradientTransform="translate(222.62 -122.37) rotate(-90)" xlink:href="#Degradado_sin_nombre_166"/><linearGradient id="Degradado_sin_nombre_166-5" x1="-152.24" y1="-150.96" x2="-153.4" y2="-152.76" gradientTransform="translate(222.62 -122.37) rotate(-90)" xlink:href="#Degradado_sin_nombre_166"/><linearGradient id="Degradado_sin_nombre_166-6" x1="-92.78" y1="-48.42" x2="-93.94" y2="-50.23" gradientTransform="translate(136.54 -15.08) rotate(-45)" xlink:href="#Degradado_sin_nombre_166"/><linearGradient id="Degradado_sin_nombre_166-7" x1="-92.78" y1="-7.29" x2="-93.94" y2="-9.1" gradientTransform="translate(136.54 -15.08) rotate(-45)" xlink:href="#Degradado_sin_nombre_166"/><linearGradient id="Degradado_sin_nombre_166-8" x1="-92.62" y1="-335.53" x2="-93.79" y2="-337.34" gradientTransform="translate(207.54 -258.91) rotate(-135)" xlink:href="#Degradado_sin_nombre_166"/><linearGradient id="Degradado_sin_nombre_166-9" x1="-92.62" y1="-294.4" x2="-93.79" y2="-296.21" gradientTransform="translate(207.54 -258.91) rotate(-135)" xlink:href="#Degradado_sin_nombre_166"/><linearGradient id="Degradado_sin_nombre_166-10" x1="-3.11" y1="3.89" x2="-4.27" y2="2.08" gradientTransform="translate(47.46 6.99) rotate(-15.31)" xlink:href="#Degradado_sin_nombre_166"/><linearGradient id="Degradado_sin_nombre_166-11" x1="-3.11" y1="45.02" x2="-4.27" y2="43.21" gradientTransform="translate(47.46 6.99) rotate(-15.31)" xlink:href="#Degradado_sin_nombre_166"/><linearGradient id="Degradado_sin_nombre_166-12" x1="-145.16" y1="-245.6" x2="-146.33" y2="-247.41" gradientTransform="translate(229.59 -169.83) rotate(-105.31)" xlink:href="#Degradado_sin_nombre_166"/><linearGradient id="Degradado_sin_nombre_166-13" x1="-145.16" y1="-204.47" x2="-146.33" y2="-206.28" gradientTransform="translate(229.59 -169.83) rotate(-105.31)" xlink:href="#Degradado_sin_nombre_166"/><linearGradient id="Degradado_sin_nombre_166-14" x1="-125.11" y1="-91.74" x2="-126.27" y2="-93.55" gradientTransform="translate(175.07 -42.93) rotate(-60.31)" xlink:href="#Degradado_sin_nombre_166"/><linearGradient id="Degradado_sin_nombre_166-15" x1="-125.1" y1="-50.61" x2="-126.27" y2="-52.42" gradientTransform="translate(175.07 -42.93) rotate(-60.31)" xlink:href="#Degradado_sin_nombre_166"/><linearGradient id="Degradado_sin_nombre_166-16" x1="-49.15" y1="-368.62" x2="-50.32" y2="-370.43" gradientTransform="translate(179.67 -297.44) rotate(-150.31)" xlink:href="#Degradado_sin_nombre_166"/><linearGradient id="Degradado_sin_nombre_166-17" x1="-49.15" y1="-327.48" x2="-50.32" y2="-329.29" gradientTransform="translate(179.67 -297.44) rotate(-150.31)" xlink:href="#Degradado_sin_nombre_166"/><linearGradient id="Degradado_sin_nombre_166-18" x1="-46.83" y1="-14.04" x2="-47.99" y2="-15.85" gradientTransform="matrix(0.88, -0.48, 0.48, 0.88, 89.12, 3.09)" xlink:href="#Degradado_sin_nombre_166"/><linearGradient id="Degradado_sin_nombre_166-19" x1="-46.83" y1="27.09" x2="-47.99" y2="25.28" gradientTransform="matrix(0.88, -0.48, 0.48, 0.88, 89.12, 3.09)" xlink:href="#Degradado_sin_nombre_166"/><linearGradient id="Degradado_sin_nombre_166-20" x1="-128.14" y1="-289.32" x2="-129.31" y2="-291.12" gradientTransform="matrix(-0.48, -0.88, 0.88, -0.48, 225.6, -211.47)" xlink:href="#Degradado_sin_nombre_166"/><linearGradient id="Degradado_sin_nombre_166-21" x1="-128.14" y1="-248.18" x2="-129.31" y2="-249.99" gradientTransform="matrix(-0.48, -0.88, 0.88, -0.48, 225.6, -211.47)" xlink:href="#Degradado_sin_nombre_166"/><linearGradient id="Degradado_sin_nombre_166-22" x1="-143.67" y1="-134.49" x2="-144.83" y2="-136.3" gradientTransform="translate(201.22 -75.22) rotate(-73.52)" xlink:href="#Degradado_sin_nombre_166"/><linearGradient id="Degradado_sin_nombre_166-23" x1="-143.67" y1="-93.36" x2="-144.83" y2="-95.16" gradientTransform="translate(201.22 -75.22) rotate(-73.52)" xlink:href="#Degradado_sin_nombre_166"/><linearGradient id="Degradado_sin_nombre_166-24" x1="-6.51" y1="-386.66" x2="-7.68" y2="-388.47" gradientTransform="translate(147.3 -323.57) rotate(-163.52)" xlink:href="#Degradado_sin_nombre_166"/><linearGradient id="Degradado_sin_nombre_166-25" x1="-6.51" y1="-345.52" x2="-7.68" y2="-347.33" gradientTransform="translate(147.3 -323.57) rotate(-163.52)" xlink:href="#Degradado_sin_nombre_166"/></defs><g class="cls-2"><g id="Layer_1" data-name="Layer 1"><path class="cls-3" d="M53.76,90.05s-3.09-10.43.85-18.61S65.89,67,76.14,57c7.09-6.88,7.09,7-.68,9.72a26.81,26.81,0,0,1-6.81.93s12.94-2.06,15.56-6.73c2.32-4.13,8.22-11.55,10.89-8.88a2.49,2.49,0,0,1,.59,2.1s5.06,2.6-6,17.51C85.13,77.78,78.85,76,75.19,80.32s-1.85,8.1-3.81,9-6.62,0-6.62,0Z"/><path class="cls-4" d="M76,60.88a1.24,1.24,0,0,1-.54-.11.81.81,0,0,1-.47-.59c-.26-1.29,2.19-4,2.47-4.32a.21.21,0,1,1,.31.29c-.72.78-2.55,3-2.36,4a.36.36,0,0,0,.23.29c1.11.5,3.21-1.71,3.92-2.61a.21.21,0,1,1,.33.27C79.68,58.37,77.62,60.88,76,60.88Z"/><path class="cls-4" d="M75.9,73.34a.21.21,0,0,1-.21-.18.2.2,0,0,1,.18-.24c.09,0,9.35-1.39,12.95-6.58A83.84,83.84,0,0,0,95.5,54.07a.21.21,0,0,1,.28-.11.22.22,0,0,1,.11.28,84.51,84.51,0,0,1-6.72,12.34c-1.94,2.8-5.44,4.49-8,5.41a30.88,30.88,0,0,1-5.2,1.35Z"/><path class="cls-4" d="M92.82,59.42a.2.2,0,0,1-.14-.06,3.64,3.64,0,0,1-1.41-3.18c.31-1.9,2.6-3,2.69-3a.21.21,0,1,1,.18.38s-2.18,1-2.45,2.73A3.26,3.26,0,0,0,93,59.06a.21.21,0,0,1,0,.3A.2.2,0,0,1,92.82,59.42Z"/><path class="cls-4" d="M70.91,69a.21.21,0,0,1,0-.42c3.63-.63,7.54-4.79,7.58-4.83a.21.21,0,0,1,.31.28c-.17.18-4,4.32-7.82,5Z"/><path class="cls-4" d="M95.42,62.29a.22.22,0,0,1-.11,0c-1.77-1,0-5.54,0-5.73a.2.2,0,0,1,.27-.12.2.2,0,0,1,.12.27c-.47,1.21-1.44,4.5-.22,5.21a.21.21,0,0,1,.07.29A.2.2,0,0,1,95.42,62.29Z"/><polygon class="cls-5" points="73.72 85.82 51.77 85.25 52.16 92.16 73.59 91.74 73.72 85.82"/><path class="cls-5" d="M52.17,92.37a.22.22,0,0,1-.22-.2l-.39-6.91a.2.2,0,0,1,.06-.16.22.22,0,0,1,.15-.06l21.95.56a.22.22,0,0,1,.21.22l-.13,5.92a.22.22,0,0,1-.21.21l-21.42.42ZM52,85.47l.37,6.47,21-.41L73.5,86Z"/><polygon class="cls-6" points="75.11 89.62 50.94 89.06 51.38 95.96 74.97 95.54 75.11 89.62"/><path class="cls-3" d="M46.24,90.05s3.09-10.43-.85-18.61S34.11,67,23.86,57c-7.09-6.88-7.09,7,.68,9.72a26.81,26.81,0,0,0,6.81.93S18.41,65.6,15.79,60.93C13.47,56.8,7.57,49.38,4.9,52.05a2.49,2.49,0,0,0-.59,2.1s-5.06,2.6,6,17.51c4.55,6.12,10.83,4.36,14.49,8.66s1.85,8.1,3.81,9,6.62,0,6.62,0Z"/><path class="cls-4" d="M24,60.88c-1.58,0-3.64-2.51-3.89-2.83a.21.21,0,1,1,.33-.27c.71.9,2.81,3.11,3.92,2.61a.36.36,0,0,0,.23-.29c.19-.92-1.64-3.17-2.36-4a.21.21,0,1,1,.31-.29c.28.31,2.73,3,2.47,4.32a.81.81,0,0,1-.47.59A1.24,1.24,0,0,1,24,60.88Z"/><path class="cls-4" d="M24.1,73.34h0A30.88,30.88,0,0,1,18.87,72c-2.6-.92-6.1-2.61-8-5.41A84.51,84.51,0,0,1,4.11,54.24.22.22,0,0,1,4.22,54a.21.21,0,0,1,.28.11,83.84,83.84,0,0,0,6.68,12.27c3.6,5.19,12.86,6.57,13,6.58a.2.2,0,0,1,.18.24A.21.21,0,0,1,24.1,73.34Z"/><path class="cls-4" d="M7.18,59.42A.2.2,0,0,1,7,59.36a.21.21,0,0,1,0-.3,3.26,3.26,0,0,0,1.28-2.81C8,54.57,5.88,53.53,5.86,53.52A.21.21,0,0,1,6,53.14c.09,0,2.38,1.14,2.69,3a3.64,3.64,0,0,1-1.41,3.18A.2.2,0,0,1,7.18,59.42Z"/><path class="cls-4" d="M29.09,69h0c-3.78-.65-7.65-4.79-7.82-5a.21.21,0,0,1,.31-.28s3.95,4.2,7.58,4.83a.21.21,0,0,1,0,.42Z"/><path class="cls-4" d="M4.58,62.29a.2.2,0,0,1-.18-.1.21.21,0,0,1,.07-.29c1.22-.71.25-4-.22-5.21a.2.2,0,0,1,.12-.27.2.2,0,0,1,.27.12c.07.19,1.82,4.69.05,5.73A.22.22,0,0,1,4.58,62.29Z"/><polygon class="cls-5" points="26.28 85.82 48.23 85.25 47.84 92.16 26.41 91.74 26.28 85.82"/><path class="cls-5" d="M47.83,92.37h0L26.41,92a.22.22,0,0,1-.21-.21l-.13-5.92a.22.22,0,0,1,.21-.22L48.23,85a.21.21,0,0,1,.21.22l-.39,6.91A.22.22,0,0,1,47.83,92.37Zm-21.21-.84,21,.41L48,85.47,26.5,86Z"/><polygon class="cls-6" points="24.89 89.62 49.06 89.06 48.62 95.96 25.03 95.54 24.89 89.62"/><circle class="cls-7" cx="50" cy="30.55" r="26.51"/><g class="cls-8"><g class="cls-9"><rect class="cls-10" x="49.59" y="2.03" width="0.81" height="57.05" transform="translate(80.55 -19.45) rotate(90)"/><rect class="cls-11" x="49.59" y="2.03" width="0.81" height="57.05"/><rect class="cls-12" x="49.59" y="2.03" width="0.81" height="57.05" transform="translate(36.25 -26.41) rotate(45)"/><rect class="cls-13" x="49.59" y="2.03" width="0.81" height="57.05" transform="translate(-6.96 44.3) rotate(-45)"/><rect class="cls-14" x="49.59" y="2.03" width="0.81" height="57.05" transform="translate(75.3 -22.3) rotate(84.16)"/><rect class="cls-15" x="49.59" y="2.03" width="0.81" height="57.05" transform="translate(-2.85 5.25) rotate(-5.85)"/><rect class="cls-16" x="49.59" y="2.03" width="0.81" height="57.05" transform="translate(30.52 -24.71) rotate(39.15)"/><rect class="cls-17" x="49.59" y="2.03" width="0.81" height="57.05" transform="translate(-5.26 50.04) rotate(-50.85)"/><rect class="cls-18" x="49.59" y="2.03" width="0.81" height="57.05" transform="translate(69.22 -24.8) rotate(77.72)"/><rect class="cls-19" x="49.59" y="2.03" width="0.81" height="57.05" transform="translate(-5.35 11.33) rotate(-12.28)"/><rect class="cls-20" x="49.59" y="2.03" width="0.81" height="57.05" transform="translate(24.45 -22.18) rotate(32.72)"/><rect class="cls-21" x="49.59" y="2.03" width="0.81" height="57.05" transform="translate(-2.73 56.1) rotate(-57.28)"/><rect class="cls-22" x="49.59" y="2.03" width="0.81" height="57.05" transform="translate(63.68 -26.42) rotate(72.08)"/><rect class="cls-23" x="49.59" y="2.03" width="0.81" height="57.05" transform="translate(-6.97 16.87) rotate(-17.92)"/><rect class="cls-24" x="49.59" y="2.03" width="0.81" height="57.05" transform="translate(19.39 -19.41) rotate(27.08)"/><rect class="cls-25" x="49.59" y="2.03" width="0.81" height="57.05" transform="translate(0.04 61.16) rotate(-62.92)"/><rect class="cls-26" x="49.59" y="2.03" width="0.81" height="57.05" transform="translate(57.74 -27.53) rotate(66.16)"/><rect class="cls-27" x="49.59" y="2.03" width="0.81" height="57.05" transform="translate(-8.08 22.81) rotate(-23.83)"/><rect class="cls-28" x="49.59" y="2.03" width="0.81" height="57.05" transform="translate(14.4 -15.99) rotate(21.16)"/><rect class="cls-29" x="49.59" y="2.03" width="0.81" height="57.05" transform="translate(3.46 66.15) rotate(-68.84)"/><rect class="cls-30" x="49.59" y="2.03" width="0.81" height="57.05" transform="translate(51.36 -28.03) rotate(59.91)"/><rect class="cls-31" x="49.59" y="2.03" width="0.81" height="57.05" transform="matrix(0.87, -0.5, 0.5, 0.87, -8.58, 29.19)"/><rect class="cls-32" x="49.59" y="2.03" width="0.81" height="57.05" transform="matrix(0.97, 0.26, -0.26, 0.97, 9.54, -11.84)"/><rect class="cls-33" x="49.59" y="2.03" width="0.81" height="57.05" transform="translate(7.62 71.01) rotate(-75.09)"/><rect class="cls-34" x="49.59" y="2.03" width="0.81" height="57.05" transform="translate(44.16 -27.75) rotate(52.86)"/><rect class="cls-35" x="49.59" y="2.03" width="0.81" height="57.05" transform="translate(-8.3 36.39) rotate(-37.14)"/><rect class="cls-36" x="49.59" y="2.03" width="0.81" height="57.05" transform="translate(4.65 -6.55) rotate(7.86)"/><rect class="cls-37" x="49.59" y="2.03" width="0.81" height="57.05" transform="matrix(0.14, -0.99, 0.99, 0.14, 12.9, 75.9)"/></g></g><circle class="cls-38" cx="50" cy="30.55" r="26.51"/><circle class="cls-39" cx="50" cy="30.55" r="22.76"/><circle class="cls-39" cx="50" cy="30.55" r="22.76"/><circle class="cls-40" cx="50" cy="30.55" r="19.22"/><circle class="cls-41" cx="50" cy="30.55" r="19.22"/><circle class="cls-42" cx="50" cy="30.55" r="18.06"/><g class="cls-43"><path class="cls-44" d="M30.78,18.36,53.52,53a22.91,22.91,0,0,0,4.31-1.11L33.52,14.85A21.65,21.65,0,0,0,30.78,18.36Z"/><path class="cls-45" d="M27.24,30.55A22.78,22.78,0,0,0,43.73,52.44L27.43,27.58A22.34,22.34,0,0,0,27.24,30.55Z"/><path class="cls-46" d="M72.52,33.85,56,8.57a23,23,0,0,0-4.43-.73L71.44,38.21A22.07,22.07,0,0,0,72.52,33.85Z"/><path class="cls-47" d="M40.3,10,65,47.65q.65-.55,1.23-1.17L41.86,9.29Q41.07,9.59,40.3,10Z"/></g><g class="cls-43"><path class="cls-48" d="M52.47,48.38a22.7,22.7,0,0,1-21.4-30.47A22.75,22.75,0,1,0,71.4,38.25,22.75,22.75,0,0,1,52.47,48.38Z"/></g><circle class="cls-49" cx="50" cy="30.55" r="22.76"/><circle class="cls-50" cx="50" cy="30.55" r="25.36"/><path class="cls-51" d="M58.22,17.55H41.29v3.13h4.25a4.88,4.88,0,0,1,4.74,3.72h-9v2.78h8.86a4.91,4.91,0,0,1-4.61,3.26H41.29v3.12h.29L51,47h4.21L45.78,33.56a8,8,0,0,0,7.6-6.38h4.84V24.4H53.46a7.91,7.91,0,0,0-1.57-3.72h6.33Z"/><path class="cls-52" d="M57.69,18.08H41.81v2.07h3.73a5.41,5.41,0,0,1,5.37,4.77h-9.1v1.73h9A5.42,5.42,0,0,1,45.54,31H41.81V33h0l9.43,13.4h2.91L44.77,33h.77a7.49,7.49,0,0,0,7.4-6.39h4.75V24.92H53a7.4,7.4,0,0,0-2.29-4.77h7Z"/><polygon class="cls-53" points="50.01 8.9 50.36 9.59 51.13 9.7 50.57 10.25 50.7 11.01 50.01 10.65 49.33 11.01 49.46 10.25 48.9 9.7 49.67 9.59 50.01 8.9"/><polygon class="cls-54" points="50.01 50.03 50.36 50.73 51.13 50.84 50.57 51.38 50.7 52.14 50.01 51.78 49.33 52.14 49.46 51.38 48.9 50.84 49.67 50.73 50.01 50.03"/><polygon class="cls-55" points="28.39 30.52 29.09 30.18 29.2 29.41 29.74 29.96 30.5 29.83 30.14 30.52 30.5 31.21 29.74 31.08 29.2 31.63 29.09 30.86 28.39 30.52"/><polygon class="cls-56" points="69.52 30.52 70.22 30.18 70.33 29.41 70.87 29.96 71.64 29.83 71.28 30.52 71.64 31.21 70.87 31.08 70.33 31.63 70.22 30.86 69.52 30.52"/><polygon class="cls-57" points="34.72 15.23 35.46 15.48 36.08 15.01 36.07 15.79 36.7 16.24 35.96 16.47 35.73 17.21 35.28 16.58 34.51 16.59 34.97 15.96 34.72 15.23"/><polygon class="cls-58" points="63.81 44.31 64.54 44.56 65.17 44.1 65.16 44.88 65.79 45.32 65.05 45.55 64.82 46.3 64.37 45.66 63.59 45.67 64.06 45.05 63.81 44.31"/><polygon class="cls-59" points="34.72 45.81 34.97 45.08 34.51 44.45 35.28 44.46 35.73 43.83 35.96 44.57 36.7 44.8 36.07 45.25 36.08 46.02 35.46 45.56 34.72 45.81"/><polygon class="cls-60" points="63.81 16.73 64.06 15.99 63.59 15.37 64.37 15.38 64.82 14.74 65.05 15.48 65.79 15.71 65.16 16.16 65.17 16.94 64.54 16.48 63.81 16.73"/><polygon class="cls-61" points="44.3 9.67 44.82 10.25 45.59 10.15 45.19 10.82 45.52 11.53 44.76 11.36 44.2 11.89 44.12 11.12 43.44 10.74 44.15 10.43 44.3 9.67"/><polygon class="cls-62" points="55.16 49.34 55.68 49.92 56.45 49.82 56.06 50.49 56.38 51.2 55.63 51.03 55.06 51.56 54.98 50.79 54.3 50.41 55.02 50.1 55.16 49.34"/><polygon class="cls-63" points="29.16 36.23 29.74 35.72 29.64 34.95 30.31 35.34 31.01 35.01 30.85 35.77 31.38 36.34 30.6 36.41 30.23 37.09 29.92 36.38 29.16 36.23"/><polygon class="cls-64" points="68.83 25.37 69.41 24.86 69.31 24.09 69.98 24.48 70.69 24.15 70.52 24.91 71.05 25.48 70.28 25.55 69.9 26.23 69.59 25.52 68.83 25.37"/><polygon class="cls-65" points="31.23 19.81 32 19.86 32.48 19.25 32.67 20 33.4 20.26 32.75 20.68 32.72 21.46 32.12 20.96 31.38 21.18 31.66 20.46 31.23 19.81"/><polygon class="cls-66" points="66.96 40.19 67.73 40.23 68.21 39.62 68.41 40.37 69.14 40.63 68.48 41.05 68.46 41.83 67.86 41.34 67.11 41.55 67.39 40.83 66.96 40.19"/><polygon class="cls-67" points="39.3 49.31 39.35 48.53 38.73 48.05 39.49 47.86 39.75 47.13 40.17 47.78 40.95 47.81 40.45 48.41 40.67 49.16 39.95 48.87 39.3 49.31"/><polygon class="cls-68" points="59.67 13.57 59.72 12.8 59.11 12.32 59.86 12.13 60.12 11.4 60.54 12.05 61.32 12.08 60.83 12.68 61.04 13.42 60.32 13.14 59.67 13.57"/><polygon class="cls-69" points="39.67 11.54 40.31 11.99 41.03 11.72 40.8 12.46 41.28 13.07 40.51 13.08 40.08 13.73 39.83 12.99 39.08 12.78 39.7 12.32 39.67 11.54"/><polygon class="cls-70" points="59.31 47.68 59.95 48.13 60.67 47.86 60.44 48.6 60.92 49.22 60.15 49.23 59.72 49.87 59.47 49.14 58.72 48.92 59.34 48.46 59.31 47.68"/><polygon class="cls-71" points="31 40.87 31.44 40.23 31.18 39.51 31.92 39.73 32.53 39.25 32.54 40.03 33.18 40.46 32.45 40.71 32.24 41.46 31.77 40.84 31 40.87"/><polygon class="cls-72" points="67.14 21.23 67.58 20.59 67.32 19.87 68.06 20.09 68.67 19.61 68.68 20.39 69.32 20.82 68.59 21.07 68.38 21.82 67.91 21.2 67.14 21.23"/><polygon class="cls-73" points="29.26 24.41 30.03 24.28 30.35 23.57 30.71 24.26 31.48 24.35 30.94 24.91 31.09 25.67 30.4 25.32 29.72 25.7 29.83 24.94 29.26 24.41"/><polygon class="cls-74" points="68.7 36.08 69.47 35.95 69.79 35.24 70.16 35.93 70.93 36.02 70.39 36.58 70.54 37.34 69.84 36.99 69.16 37.37 69.27 36.6 68.7 36.08"/><polygon class="cls-75" points="43.86 51.28 43.73 50.51 43.02 50.19 43.71 49.83 43.8 49.05 44.36 49.6 45.12 49.45 44.78 50.14 45.16 50.82 44.39 50.71 43.86 51.28"/><polygon class="cls-76" points="55.53 11.84 55.4 11.07 54.69 10.75 55.38 10.38 55.47 9.61 56.03 10.15 56.79 10 56.45 10.7 56.83 11.38 56.06 11.27 55.53 11.84"/></g></g></svg>