<svg id="Layer_1" data-name="Layer 1" xmlns="http://www.w3.org/2000/svg" viewBox="0 0 100 100"><defs><style>.cls-1{fill:#f9320b;}.cls-2{fill:#3b0f37;stroke:#fff;stroke-miterlimit:10;}.cls-3{fill:#fff;}</style></defs><path class="cls-1" d="M14.77,57.17V94.05a3.19,3.19,0,0,0,1.66,2.71A5.09,5.09,0,0,0,19,97.4H35.77a2.24,2.24,0,0,0,1.56-.64A2.2,2.2,0,0,0,38,95.21V77.47H54.71V95.21a2.17,2.17,0,0,0,.64,1.55,2.22,2.22,0,0,0,1.57.64H73.71a5,5,0,0,0,2.53-.64,3.19,3.19,0,0,0,1.66-2.71V57.17L46.34,28.45ZM15.82,5.89,41.61,6.94,14,32ZM90.17,47,50.33,10.73a5.94,5.94,0,0,0-8,0L2.49,47a5.85,5.85,0,0,0-.36,8.31v0a6,6,0,0,0,8.37.36L46.34,23,82.19,55.68a5.94,5.94,0,0,0,8.35-.36A5.87,5.87,0,0,0,90.17,47Z"/><path class="cls-2" d="M76.22,2.6A22.67,22.67,0,0,0,64.7,44.46a6.87,6.87,0,0,1,3.23,5.81V61a2.15,2.15,0,0,0,.61,1.5l1.65,1.67V92.29a4.62,4.62,0,0,0,1.68,3.58l.36.3a5.32,5.32,0,0,0,7.17-.33l5-5a1.23,1.23,0,0,0,.36-.87V88.45a1.22,1.22,0,0,0-.9-1.18,2.55,2.55,0,0,1-2-2.46,2.84,2.84,0,0,1,1.58-3.18,1.45,1.45,0,0,0,.85-1.34l-.07-16.15,1.58-1.67A2.18,2.18,0,0,0,86.4,61V49.71A6.86,6.86,0,0,1,89.46,44,22.67,22.67,0,0,0,76.22,2.6Z"/><path class="cls-3" d="M76.76,25.52A5.54,5.54,0,1,1,82.3,20,5.53,5.53,0,0,1,76.76,25.52Z"/></svg>