<svg id="Layer_1" data-name="Layer 1" xmlns="http://www.w3.org/2000/svg" viewBox="0 0 50 50"><defs><style>.cls-1{fill:#f9320b;}.cls-2{fill:#3b0f37;}</style></defs><path class="cls-1" d="M32.44,28.05c-.66-.32-1.33-.58-2-.83a14.15,14.15,0,1,0-15.61,0A22.65,22.65,0,0,0,0,48.44H3.77a18.86,18.86,0,0,1,27-17ZM12.26,15.44A10.37,10.37,0,1,1,22.63,25.81,10.39,10.39,0,0,1,12.26,15.44Z"/><path class="cls-2" d="M40.1,28.9A9.9,9.9,0,1,0,50,38.8,9.91,9.91,0,0,0,40.1,28.9Zm0,17a7.07,7.07,0,1,1,7.07-7.07A7.08,7.08,0,0,1,40.1,45.87Z"/><polygon class="cls-2" points="41.52 34.01 38.69 34.01 38.69 37.38 35.31 37.38 35.31 40.21 38.69 40.21 38.69 43.59 41.52 43.59 41.52 40.21 44.9 40.21 44.9 37.38 41.52 37.38 41.52 34.01"/></svg>