<svg id="Layer_1" data-name="Layer 1" xmlns="http://www.w3.org/2000/svg" viewBox="0 0 100 100"><defs><style>.cls-1{fill:#3b0f37;}.cls-2{fill:#f9320b;}.cls-3{fill:#fff;}</style></defs><polygon class="cls-1" points="32.27 96.1 27.28 81.8 13.51 88.07 34.71 38.5 53.47 46.52 32.27 96.1"/><polygon class="cls-1" points="67.73 96.1 72.72 81.8 86.49 88.07 65.29 38.5 46.53 46.52 67.73 96.1"/><polygon class="cls-2" points="48.03 3.9 52.21 7.95 57.43 5.39 60.16 10.54 65.92 9.72 66.92 15.45 72.65 16.45 71.83 22.21 76.97 24.93 74.41 30.16 78.46 34.34 74.41 38.52 76.97 43.75 71.83 46.47 72.65 52.23 66.92 53.23 65.92 58.97 60.16 58.14 57.43 63.29 52.21 60.73 48.03 64.78 43.85 60.73 38.62 63.29 35.9 58.14 30.14 58.97 29.14 53.23 23.4 52.23 24.22 46.47 19.08 43.75 21.64 38.52 17.59 34.34 21.64 30.16 19.08 24.93 24.22 22.21 23.4 16.45 29.14 15.45 30.14 9.72 35.9 10.54 38.62 5.39 43.85 7.95 48.03 3.9"/><circle class="cls-3" cx="48.03" cy="34.34" r="20.53"/><polygon class="cls-1" points="45.93 45.65 36.35 38.7 38.95 34.91 44.5 38.93 55.65 23.03 59.7 26.02 45.93 45.65"/></svg>