<svg id="Layer_1" data-name="Layer 1" xmlns="http://www.w3.org/2000/svg" viewBox="0 0 100 100"><defs><style>.cls-1{fill:#f9320b;}.cls-2,.cls-3{fill:#fff;}.cls-2{opacity:0.6;}.cls-4{fill:#3b0f37;}</style></defs><path class="cls-1" d="M27.44,10.5l-.71-1.2a49.19,49.19,0,0,1,6.38-3.17l.52,1.29A47.57,47.57,0,0,0,27.44,10.5Z"/><path class="cls-1" d="M7.1,35l-1.32-.47A48.4,48.4,0,0,1,22.87,11.85L23.69,13A47,47,0,0,0,7.1,35Z"/><circle class="cls-1" cx="51.33" cy="50.98" r="42.89"/><path class="cls-2" d="M87.16,51A35.81,35.81,0,1,1,77.8,26.82s0,0,.06.07A35.76,35.76,0,0,1,87.16,51Z"/><path class="cls-3" d="M87.16,51A35.84,35.84,0,0,1,27,77.31,35.83,35.83,0,0,1,77.8,26.82s0,0,.06.07A35.76,35.76,0,0,1,87.16,51Z"/><path class="cls-4" d="M51.33,53.07a2.07,2.07,0,0,1-1.48-.61L32.38,35a2.09,2.09,0,0,1,2.95-3l16,16,9.24-9.24a2.09,2.09,0,0,1,3,3L52.81,52.46A2.09,2.09,0,0,1,51.33,53.07Z"/></svg>