<svg id="Layer_1" data-name="Layer 1" xmlns="http://www.w3.org/2000/svg" viewBox="0 0 250 250"><defs><style>.cls-1{fill:#e1e1e1;}.cls-2{fill:#ececec;}.cls-3{fill:#fafafa;}.cls-4{fill:#1a2e35;}.cls-5{fill:#f5f5f5;}.cls-6{fill:#375a64;}.cls-7{fill:#fff;}.cls-8{fill:#ff735d;}.cls-9{opacity:0.3;}.cls-10{opacity:0.6;}.cls-11{fill:#ffbf9d;}.cls-12{fill:#ff9a6c;}</style></defs><path class="cls-1" d="M40.16,127.56a22.76,22.76,0,0,0-9,9.26,67.46,67.46,0,0,0-4.87,12.12l-1.19,21.35c4.5-7.66,8.12-16.67,9.1-25.5l-3-.27A7.19,7.19,0,0,0,36,141a21.44,21.44,0,0,0,2.16-5.68l-3.65.55A13.58,13.58,0,0,0,40.16,127.56Z"/><path class="cls-2" d="M24.45,175.3s-9.78-11.7-9.66-22.88h3.95s-4.29-2.82-3.95-4.4.45-7.56.45-7.56l3.61.91s-2.71-1.36-3.05-3.5.79-12.08.79-12.08,4.4,4.63,5.76,9.37,4.91,10.27,3.86,24.71S24.45,175.3,24.45,175.3Z"/><path class="cls-2" d="M29.41,176.4S40,169.35,42.35,160.34l-3.17-.86s4.07-1.33,4.14-2.68a62.82,62.82,0,0,1,1.29-6.17l-3.1-.07s2.47-.5,3.21-2.14,2-9.88,2-9.88-4.55,2.75-6.68,6.27-6.19,7.18-8.51,19S29.41,176.4,29.41,176.4Z"/><path class="cls-1" d="M19.26,136s0,0,0,.12l.08.36.32,1.39c.13.6.29,1.34.46,2.2s.38,1.84.58,2.93c.41,2.17.86,4.76,1.31,7.65s.88,6.07,1.27,9.42.68,6.55.91,9.46.38,5.54.47,7.75c.05,1.1.08,2.1.11,3s0,1.63.05,2.25,0,1.08,0,1.42v.37c0,.08,0,.13,0,.13a1.16,1.16,0,0,0,0-.13l0-.37,0-1.42c0-.62,0-1.37-.08-2.25s-.07-1.87-.13-3c-.11-2.2-.28-4.83-.51-7.74s-.54-6.1-.92-9.45-.83-6.53-1.26-9.42S21,145.19,20.6,143c-.19-1.09-.38-2.07-.54-2.93s-.31-1.6-.44-2.21l-.27-1.39-.07-.37A1.13,1.13,0,0,0,19.26,136Z"/><path class="cls-2" d="M23.1,182.47s-9-10.16-11.73-16.29l2.1-.9a5.45,5.45,0,0,1-4.26-1.39,16.21,16.21,0,0,1-2.89-3.59l2.76-.46a10.3,10.3,0,0,1-6-4.68,17.26,17.26,0,0,1,8.64,4.56,43.33,43.33,0,0,1,5.24,6.07,21.11,21.11,0,0,1,2,3.34C20.46,172.24,23.1,178.74,23.1,182.47Z"/><path class="cls-1" d="M42.5,144.44l0,.11-.13.29L41.77,146c-.48,1-1.16,2.39-2,4.15S38,154,37,156.34s-2.09,5-3.16,7.74-2,5.42-2.87,7.84-1.54,4.63-2.12,6.49-1,3.36-1.32,4.4l-.36,1.2-.1.31,0,.11s0,0,0-.11l.08-.32c.07-.29.18-.69.32-1.21.28-1,.71-2.56,1.27-4.42s1.26-4.07,2.08-6.5,1.79-5.09,2.85-7.86,2.16-5.38,3.18-7.73,2-4.46,2.83-6.22,1.54-3.16,2-4.12l.57-1.11.16-.29C42.47,144.47,42.49,144.44,42.5,144.44Z"/><path class="cls-1" d="M23.85,186.82a1.9,1.9,0,0,1,0-.19l-.09-.54c-.06-.47-.18-1.14-.35-2s-.39-1.82-.68-2.9S22,179,21.56,177.77s-.95-2.34-1.44-3.34-1-1.9-1.39-2.63-.79-1.31-1.05-1.71l-.29-.46-.09-.17a.63.63,0,0,1,.12.15l.32.44c.28.39.66,1,1.1,1.69s.93,1.61,1.44,2.61,1,2.14,1.46,3.35.82,2.4,1.12,3.48.5,2.07.64,2.91.25,1.52.3,2l.05.54A.54.54,0,0,1,23.85,186.82Z"/><rect class="cls-2" x="16.08" y="184.43" width="19.58" height="3.99"/><polygon class="cls-2" points="17.94 188.42 20.06 201.86 31.9 201.86 33.87 188.42 17.94 188.42"/><path class="cls-1" d="M34.46,188.42c0,.05-3.7.1-8.27.1s-8.28-.05-8.28-.1,3.71-.09,8.28-.09S34.46,188.37,34.46,188.42Z"/><rect class="cls-3" x="185.37" y="65.24" width="56.79" height="38.71" transform="translate(-11.59 39.11) rotate(-10.18)"/><path class="cls-1" d="M189.23,108.66c0-.29-2.65-14.88-6.8-38.11l0,0,55.89-10h0l0,0,6.85,38.1,0,0-55.89,10.08,55.91-10h0v0c-2.09-11.63-4.41-24.54-6.84-38.1v-.05h0L182.39,70.53h0v0C186.55,93.79,189.18,108.37,189.23,108.66Z"/><path class="cls-1" d="M211.51,82.44a.59.59,0,0,0,0-.13l-.06-.35c-.05-.31-.13-.75-.22-1.32-.2-1.14-.49-2.77-.84-4.74l0,0,8.2-1.47-.05,0h0v.08l0,.11,0,.22.08.44.15.86q.16.85.3,1.68c.2,1.09.39,2.14.57,3.11l0,0L213.8,82l-1.69.31-.44.08-.12,0h0l.11,0,.44-.07,1.68-.29,5.94-1h0v0c-.17-1-.36-2-.55-3.12-.1-.54-.2-1.1-.3-1.67-.05-.29-.1-.58-.16-.87l-.07-.43,0-.22,0-.11v-.09h0l-.06,0-8.2,1.48h0v0c.37,2,.67,3.6.88,4.75.1.56.18,1,.24,1.31l.07.34A1.13,1.13,0,0,0,211.51,82.44Z"/><path class="cls-1" d="M191.83,72.29l44-7.91L241,93.09,197,101Zm43.92-7.71L192,72.43l5.09,28.38L240.84,93Z"/><rect class="cls-1" x="191.71" y="68.41" width="44.59" height="1.48" transform="translate(436.86 99.38) rotate(169.82)"/><rect class="cls-1" x="237.47" y="72.23" width="1.62" height="21.1" transform="translate(487.44 122.15) rotate(169.82)"/><rect class="cls-1" x="234.45" y="64.6" width="1.62" height="2.78" transform="translate(478.48 89.36) rotate(169.82)"/><path class="cls-1" d="M232.58,71.92,234.7,67l.58.26-2.12,4.91Zm2.21-4.67-2,4.59.27.12,2-4.59Z"/><path class="cls-1" d="M232.36,78.73l3.83-.69.76,4.22-3.83.68Zm3.7-.49-3.5.63.7,3.88,3.49-.63Z"/><rect class="cls-1" x="196.56" y="95.31" width="44.59" height="1.67" transform="translate(451.25 152.09) rotate(169.82)"/><path class="cls-1" d="M233.57,80.75a1.13,1.13,0,0,1,.9-1.32,1.12,1.12,0,0,1,1.29.92,1.11,1.11,0,1,1-2.19.4Zm.16,0a1,1,0,1,0,1.87-.34,1,1,0,1,0-1.87.34Z"/><path class="cls-1" d="M205.86,71.27l14.83-2.66.73,4.1L206.6,75.37Zm14.69-2.46-14.49,2.6.67,3.76,14.5-2.6Z"/><path class="cls-1" d="M214.55,71.56l1.47-1.8,1.78,1.52-1.47,1.8Zm1.5-1.56-1.26,1.54,1.51,1.3,1.26-1.54Z"/><path class="cls-1" d="M212.24,72l1.47-1.81,1.77,1.52L214,73.49Zm1.49-1.56L212.47,72l1.52,1.3,1.26-1.54Z"/><path class="cls-1" d="M209.92,72.39l1.47-1.8,1.78,1.52-1.47,1.8Zm1.49-1.56-1.25,1.54,1.51,1.3,1.26-1.54Z"/><path class="cls-1" d="M202.49,73.88A1.38,1.38,0,1,1,204.1,75,1.4,1.4,0,0,1,202.49,73.88Zm.16,0a1.24,1.24,0,0,0,1.42,1,1.24,1.24,0,1,0-1.42-1Z"/><path class="cls-1" d="M221.63,68.44,228,67.3l.66,3.66-6.36,1.15Zm6.23-.94-6,1.08.59,3.33,6-1.08Z"/><path class="cls-1" d="M194,76l3.67-.66L199.41,85l-3.67.66Zm3.54-.46-3.34.6,1.67,9.33,3.34-.6Z"/><rect class="cls-1" x="194.33" y="72.01" width="1.49" height="27.33" transform="translate(402.23 135.52) rotate(169.82)"/><path class="cls-1" d="M199.45,81.65l-.4-2.19a1.15,1.15,0,0,1,.91-1.34l.27-.05a1.15,1.15,0,0,1,1.32.94l.39,2.19a1.14,1.14,0,0,1-.91,1.34l-.26,0A1.14,1.14,0,0,1,199.45,81.65Zm.54-3.36a1,1,0,0,0-.77,1.14l.39,2.19a1,1,0,0,0,1.13.8l.26,0a1,1,0,0,0,.78-1.15l-.4-2.19a1,1,0,0,0-1.12-.8Z"/><path class="cls-1" d="M219.15,86.2s4.17-.71,9.3-1.63,9.29-1.69,9.29-1.71-4.17.7-9.3,1.62S219.15,86.17,219.15,86.2Z"/><path class="cls-1" d="M219.92,89.7a4.57,4.57,0,0,0-.07-.53c0-.33-.13-.78-.22-1.28s-.17-1-.24-1.28a4,4,0,0,0-.12-.52,2.28,2.28,0,0,0,.06.53c0,.33.13.78.22,1.28s.17.95.24,1.28A2.39,2.39,0,0,0,219.92,89.7Z"/><path class="cls-1" d="M232.69,83.68l4.86-.87,1.62,9-4.86.87Zm4.72-.67-4.52.81,1.56,8.7,4.52-.81Z"/><path class="cls-1" d="M186.42,73.35s1.83-.29,4.09-.69,4.08-.75,4.07-.78-1.83.29-4.09.69S186.41,73.32,186.42,73.35Z"/><path class="cls-1" d="M192.09,104.55s-1.25-7.2-2.84-16.06-2.9-16.06-2.93-16,1.25,7.19,2.84,16.06S192.06,104.56,192.09,104.55Z"/><path class="cls-1" d="M190,102.24s1.64-.25,3.66-.61,3.66-.68,3.65-.7-1.64.25-3.66.61S190,102.22,190,102.24Z"/><path class="cls-1" d="M197.62,103.42s-.1-.75-.26-1.67-.32-1.67-.34-1.67a14.83,14.83,0,0,0,.25,1.68A14.48,14.48,0,0,0,197.62,103.42Z"/><path class="cls-1" d="M240.92,95s-10.88,1.91-24.3,4.32-24.29,4.38-24.28,4.4,10.88-1.91,24.3-4.32S240.93,95,240.92,95Z"/><path class="cls-1" d="M241.26,95.72a10.31,10.31,0,0,0-.2-1.34,9.39,9.39,0,0,0-.28-1.33,12.5,12.5,0,0,0,.2,1.35A11,11,0,0,0,241.26,95.72Z"/><path class="cls-1" d="M232.6,71.91a.68.68,0,0,0,.14.1c.09,0,.23.13.41.21a5,5,0,0,0,1.44.41,5.61,5.61,0,0,0,1.5,0,4.33,4.33,0,0,0,.45-.08l.16,0a4.22,4.22,0,0,0-.61.06,7.34,7.34,0,0,1-1.49,0,5.4,5.4,0,0,1-1.43-.39C232.82,72,232.61,71.9,232.6,71.91Z"/><path class="cls-1" d="M217.51,94.35l2.12-4.91.58.27-2.13,4.9Zm2.21-4.68-2,4.59.27.12,2-4.59Z"/><path class="cls-1" d="M217.53,94.33a.68.68,0,0,0,.14.1,3.43,3.43,0,0,0,.4.21,4.65,4.65,0,0,0,1.45.42,5.56,5.56,0,0,0,1.5,0l.45-.07a.7.7,0,0,0,.16,0s-.24,0-.62.06a6.59,6.59,0,0,1-1.48,0,5.72,5.72,0,0,1-1.43-.38C217.74,94.44,217.54,94.32,217.53,94.33Z"/><path class="cls-1" d="M218.28,73a17.18,17.18,0,0,0-.28-1.84c-.18-1-.35-1.83-.37-1.82a17.59,17.59,0,0,0,.28,1.84C218.09,72.18,218.26,73,218.28,73Z"/><path class="cls-1" d="M210.24,74.6a16.25,16.25,0,0,0-.29-1.86c-.18-1-.35-1.85-.37-1.84a16.61,16.61,0,0,0,.29,1.86C210.05,73.78,210.22,74.6,210.24,74.6Z"/><path class="cls-1" d="M221.64,78.37l9.8-1.76,1.19,6.63L222.83,85Zm9.66-1.57-9.47,1.71,1.13,6.3,9.48-1.71Z"/><path class="cls-1" d="M229.85,83.63s-.22-1.43-.53-3.19-.59-3.18-.62-3.17.22,1.43.53,3.18S229.82,83.63,229.85,83.63Z"/><path class="cls-1" d="M225.41,84.4s-.21-1.43-.52-3.18-.59-3.16-.62-3.16.22,1.43.53,3.18S225.39,84.41,225.41,84.4Z"/><path class="cls-1" d="M197.35,99.33,195.85,91,211,88.24l1.5,8.36Zm-1.1-8.08,1.38,7.68,14.5-2.61-1.38-7.68Z"/><rect class="cls-3" x="14.53" y="91.6" width="22.79" height="33.43" transform="translate(-85.37 112.5) rotate(-78.69)"/><path class="cls-1" d="M44.55,100.42c0,.17-1.76,8.72-4.49,22.34h0L7.31,116.19h0l0,0c1.59-8,3.11-15.53,4.47-22.35l0,0,32.79,6.53L11.77,93.84h0v0c-1.36,6.82-2.88,14.39-4.47,22.35v0h0l32.79,6.55h0v0C42.81,109.15,44.51,100.59,44.55,100.42Z"/><path class="cls-1" d="M26.69,110l0,.07,0,.21-.16.77c-.14.67-.33,1.63-.57,2.78l0,0-4.81-1s0,.06,0,0h0v-.12l0-.12,0-.26.1-.51.2-1L21.9,109l0,0,3.48.68,1,.2.27,0h.07l-.07,0-.25,0-1-.21-3.48-.7h0v0l-.37,1.83-.2,1-.1.51-.05.26,0,.12v.12h0l0,0,4.81,1h0v0c.22-1.15.41-2.11.54-2.79.07-.33.12-.59.15-.77l0-.2A.42.42,0,0,0,26.69,110Z"/><path class="cls-1" d="M35.28,119.78,9.45,114.62l3.36-16.84,25.84,5.16ZM9.56,114.54l25.65,5.13L38.53,103,12.89,97.9Z"/><rect class="cls-1" x="9.34" y="116.29" width="26.25" height="0.87" transform="translate(23.32 -2.14) rotate(11.31)"/><rect class="cls-1" x="11.63" y="97.81" width="0.95" height="12.42" transform="translate(20.63 -0.35) rotate(11.31)"/><rect class="cls-1" x="9.66" y="113.05" width="0.95" height="1.64" transform="translate(22.52 0.22) rotate(11.3)"/><path class="cls-1" d="M12.88,111.2l-2.22,2.23-.26-.27,2.22-2.23Zm-2.22,2.08,2.08-2.08-.12-.13-2.08,2.09Z"/><path class="cls-1" d="M14.47,107.52l-2.25-.45.5-2.48L15,105ZM12.34,107l2.05.41.45-2.28-2.05-.41Z"/><rect class="cls-1" x="12.5" y="100.4" width="26.25" height="0.98" transform="translate(20.28 -3.07) rotate(11.31)"/><path class="cls-1" d="M14.24,106.15a.66.66,0,1,1-1.29-.26.66.66,0,1,1,1.29.26Zm-.1,0a.56.56,0,0,0-.43-.67.57.57,0,0,0-.66.45.56.56,0,0,0,.44.67A.56.56,0,0,0,14.14,106.13Z"/><path class="cls-1" d="M27.38,117.32l-8.7-1.74.48-2.41,8.7,1.74ZM18.8,115.5l8.5,1.7.44-2.21-8.5-1.7Z"/><path class="cls-1" d="M22.68,115.28l-1.2.67-.64-1.21,1.19-.67Zm-1.16.54,1-.58-.56-1-1,.57Z"/><path class="cls-1" d="M24,115.56l-1.2.66L22.2,115l1.19-.67Zm-1.16.53,1-.57-.55-1-1,.57Z"/><path class="cls-1" d="M25.39,115.83l-1.19.67-.64-1.22,1.19-.67Zm-1.15.53,1-.57-.55-1-1,.57Z"/><path class="cls-1" d="M29.79,116.62a.82.82,0,1,1-.64-1A.83.83,0,0,1,29.79,116.62Zm-.1,0a.71.71,0,1,0-1.4-.28.71.71,0,0,0,.55.85A.73.73,0,0,0,29.69,116.6Z"/><path class="cls-1" d="M18.13,115.47l-3.73-.75.43-2.15,3.73.75Zm-3.62-.83,3.54.71.39-1.95-3.53-.71Z"/><path class="cls-1" d="M34.88,117.31l-2.15-.43,1.13-5.67,2.16.43Zm-2-.51,2,.39,1.09-5.47-2-.39Z"/><rect class="cls-1" x="35.95" y="103.7" width="0.88" height="16.09" transform="translate(22.61 -4.97) rotate(11.3)"/><path class="cls-1" d="M33.13,113l-.26,1.29a.67.67,0,0,1-.78.54l-.16,0a.67.67,0,0,1-.52-.8l.26-1.28a.67.67,0,0,1,.78-.54l.16,0A.68.68,0,0,1,33.13,113Zm-1,1.73a.59.59,0,0,0,.67-.46L33,113a.57.57,0,0,0-.44-.68l-.16,0a.57.57,0,0,0-.67.46L31.51,114a.58.58,0,0,0,.44.69Z"/><path class="cls-1" d="M23.31,106.27s-2.43-.51-5.44-1.11-5.45-1.08-5.46-1.07,2.44.52,5.45,1.12S23.31,106.29,23.31,106.27Z"/><path class="cls-1" d="M23.65,104.19l-.08.31c0,.19-.1.45-.15.74l-.15.76a1.67,1.67,0,0,0,0,.31,1.49,1.49,0,0,0,.08-.31c0-.19.1-.45.16-.75s.1-.55.14-.75A1.67,1.67,0,0,0,23.65,104.19Z"/><path class="cls-1" d="M15.35,104.73l-2.84-.57,1.06-5.3,2.84.57Zm-2.73-.64,2.66.53,1-5.11L13.65,99Z"/><path class="cls-1" d="M38.48,120.37s-1.07-.24-2.39-.5-2.4-.47-2.4-.46,1.07.24,2.39.51S38.47,120.38,38.48,120.37Z"/><path class="cls-1" d="M42.1,102.05s-.87,4.22-1.91,9.42-1.87,9.42-1.86,9.42.87-4.21,1.91-9.41S42.11,102.06,42.1,102.05Z"/><path class="cls-1" d="M42.75,103.77s-1-.21-2.14-.45-2.15-.42-2.15-.4,1,.21,2.14.45S42.75,103.79,42.75,103.77Z"/><path class="cls-1" d="M38.83,101.48a7,7,0,0,0-.22,1,7.61,7.61,0,0,0-.17,1s.11-.43.22-1S38.84,101.48,38.83,101.48Z"/><path class="cls-1" d="M13.28,96.78s6.37,1.3,14.24,2.88,14.25,2.83,14.25,2.82-6.37-1.3-14.24-2.88S13.28,96.77,13.28,96.78Z"/><path class="cls-1" d="M13.26,96.29a4.38,4.38,0,0,0-.18.78,7.15,7.15,0,0,0-.14.79,5.33,5.33,0,0,0,.19-.78C13.21,96.64,13.27,96.29,13.26,96.29Z"/><path class="cls-1" d="M12.87,111.2l-.06-.08-.18-.21a2.88,2.88,0,0,0-.7-.54,4,4,0,0,0-.83-.31l-.26,0h-.09a2.24,2.24,0,0,0,.35.1,4.18,4.18,0,0,1,.81.32,3,3,0,0,1,.7.52A2.51,2.51,0,0,0,12.87,111.2Z"/><path class="cls-1" d="M26,102.16l-2.22,2.23-.26-.27,2.22-2.22Zm-2.22,2.09,2.08-2.09-.12-.12-2.08,2.08Z"/><path class="cls-1" d="M26,102.17a.3.3,0,0,0-.06-.09,2,2,0,0,0-.17-.2,2.91,2.91,0,0,0-.71-.54,3.42,3.42,0,0,0-.82-.31l-.26,0c-.07,0-.1,0-.1,0a2.81,2.81,0,0,0,.35.1,3.62,3.62,0,0,1,.81.32,3,3,0,0,1,.7.52C25.86,102.06,26,102.17,26,102.17Z"/><path class="cls-1" d="M20.94,113.7s-.12.47-.24,1.07-.2,1.07-.19,1.07a9.29,9.29,0,0,0,.24-1.06A9.73,9.73,0,0,0,20.94,113.7Z"/><path class="cls-1" d="M25.7,114.55a9,9,0,0,0-.25,1.08c-.12.6-.2,1.09-.19,1.09a10.42,10.42,0,0,0,.24-1.08C25.62,115,25.71,114.55,25.7,114.55Z"/><path class="cls-1" d="M20.26,110l-5.74-1.15.77-3.89L21,106.14Zm-5.63-1.23,5.56,1.11.74-3.7-5.56-1.11Z"/><path class="cls-1" d="M16.9,105.38s-.19.83-.4,1.86-.36,1.86-.34,1.87.19-.83.4-1.86S16.92,105.38,16.9,105.38Z"/><path class="cls-1" d="M19.5,105.91s-.19.83-.4,1.85-.36,1.86-.35,1.87.2-.83.4-1.86S19.51,105.91,19.5,105.91Z"/><path class="cls-1" d="M37.17,108.78,28.11,107l1-5.06,9.05,1.81Zm-8.63-2.09,8.35,1.66.87-4.35-8.35-1.67Z"/><path class="cls-4" d="M245.82,201.81c0,.06-52.15.11-116.47.12s-116.48,0-116.48-.07,52.14-.11,116.48-.12S245.82,201.76,245.82,201.81Z"/><rect class="cls-5" x="161.67" y="139.64" width="74.38" height="62.11"/><path class="cls-4" d="M236.05,201.75c0-1.75,0-24.86.09-62.11v-.09H161.57v.1c0,22.49,0,43.72,0,62.11v.09h.09l74.38-.09-74.38-.09.09.09c0-18.39,0-39.62,0-62.11l-.1.1h0l74.37,0-.08-.08C236,176.89,236.05,200,236.05,201.75Z"/><rect class="cls-6" x="211.72" y="183.68" width="7.72" height="18.06"/><path class="cls-3" d="M218.61,193.84a.4.4,0,1,1-.4-.4A.4.4,0,0,1,218.61,193.84Z"/><path class="cls-1" d="M236.06,166.81s-16.61.07-37.1.07-37.1,0-37.1-.07,16.61-.07,37.1-.07S236.06,166.77,236.06,166.81Z"/><path class="cls-1" d="M236.06,169s-16.61.07-37.1.07-37.1,0-37.1-.07,16.61-.07,37.1-.07S236.06,169,236.06,169Z"/><path class="cls-1" d="M236.06,171.21s-16.61.07-37.1.07-37.1,0-37.1-.07,16.61-.07,37.1-.07S236.06,171.17,236.06,171.21Z"/><path class="cls-1" d="M236.06,173.41s-16.61.07-37.1.07-37.1,0-37.1-.07,16.61-.07,37.1-.07S236.06,173.37,236.06,173.41Z"/><path class="cls-1" d="M236.06,175.61s-16.61.07-37.1.07-37.1,0-37.1-.07,16.61-.07,37.1-.07S236.06,175.57,236.06,175.61Z"/><path class="cls-1" d="M236.06,177.81s-16.61.07-37.1.07-37.1,0-37.1-.07,16.61-.07,37.1-.07S236.06,177.77,236.06,177.81Z"/><path class="cls-1" d="M236.06,180s-16.61.07-37.1.07-37.1,0-37.1-.07,16.61-.07,37.1-.07S236.06,180,236.06,180Z"/><path class="cls-1" d="M236.06,182.21s-16.61.07-37.1.07-37.1,0-37.1-.07,16.61-.07,37.1-.07S236.06,182.17,236.06,182.21Z"/><rect class="cls-7" x="191.08" y="148.05" width="5.74" height="11.25"/><path class="cls-4" d="M196.82,159.3v-.84c0-.56,0-1.35,0-2.34,0-2,0-4.8,0-8.07l.06.07h-5.74s.13-.13.07-.07h0v3.16c0,1,0,2,0,3,0,1.9,0,3.63,0,5.11l0-.05,4.18,0h0l-4.21,0H191v-.06c0-1.48,0-3.21,0-5.11,0-.95,0-1.94,0-3v-3.16h0l.07-.07h5.81v.06c0,3.29,0,6.11,0,8.11,0,1,0,1.78,0,2.33v.76S196.82,159.31,196.82,159.3Z"/><path class="cls-4" d="M194,159.3s-.07-2.53-.07-5.66,0-5.65.07-5.65.07,2.53.07,5.65S194,159.3,194,159.3Z"/><path class="cls-4" d="M196.76,154.07s-1.3.07-2.9.07-2.9,0-2.9-.07,1.29-.07,2.9-.07S196.76,154,196.76,154.07Z"/><rect class="cls-3" x="223.85" y="184.15" width="5.74" height="11.25"/><path class="cls-4" d="M229.59,195.4v-.22c0-.15,0-.36,0-.62,0-.56,0-1.35,0-2.34,0-2,0-4.8,0-8.07l.06.07h-5.74l.07-.07h0v6.13c0,1.9,0,3.63,0,5.11l-.05-.05,4.19,0h1.55s0,0-.09,0h-1.43l-4.22,0h0v-.06c0-1.48,0-3.21,0-5.11v-6.13h0l.07-.07h5.81v.06c0,3.29,0,6.11,0,8.11,0,1,0,1.78,0,2.32,0,.27,0,.47,0,.62v.15S229.6,195.41,229.59,195.4Z"/><path class="cls-4" d="M226.74,195.4s-.07-2.53-.07-5.66,0-5.65.07-5.65.07,2.53.07,5.65S226.78,195.4,226.74,195.4Z"/><path class="cls-4" d="M229.53,190.17s-1.3.07-2.9.07-2.9,0-2.9-.07,1.3-.07,2.9-.07S229.53,190.13,229.53,190.17Z"/><path class="cls-1" d="M188.7,163s0-.06,0-.16v-.43c0-.38,0-.91,0-1.56l0,0-5.77,0c-.06.06.08-.09.07-.07h0V163l-.07-.07c1.65,0,3.09,0,4.12,0l1.21,0h0l-1.2,0c-1,0-2.48,0-4.16,0h-.07v-2.18h0s.13-.13.07-.07l5.77,0h.05v.05c0,.66,0,1.2,0,1.59l0,.42C188.71,162.9,188.71,163,188.7,163Z"/><path class="cls-1" d="M224.83,145.83s0-.05,0-.14,0-.25,0-.41c0-.36,0-.85,0-1.44l.05,0-4.16,0,.07-.07h0v1c0,.33,0,.66,0,1l-.06-.06c1.2,0,2.23,0,3,0l.87,0h.32a1.38,1.38,0,0,1-.29,0l-.86,0-3,0h-.07v-2h0l.07-.07,4.16,0h.06v.05q0,.91,0,1.47v.4C224.84,145.79,224.84,145.84,224.83,145.83Z"/><rect class="cls-1" x="186.81" y="162.95" width="5.59" height="2.04"/><rect class="cls-1" x="193.67" y="144.46" width="5.59" height="2.04"/><rect class="cls-1" x="220.64" y="161.09" width="5.59" height="2.04"/><rect class="cls-1" x="231.41" y="153.56" width="4.39" height="2.04"/><polygon class="cls-8" points="223.44 118.99 172.3 119.36 155.83 139.64 239.7 139.64 223.44 118.99"/><path class="cls-4" d="M223.44,119l1.11,1.44,3.21,4.11,11.89,15.14,0-.11-67.41,0H155.83l.08.16,16.46-20.29-.07,0,37-.31,10.45-.1c2.42,0,3.72-.05,3.72-.05h-3.7l-10.43.05-37,.23h0l0,0-16.47,20.27-.13.16h16.66l67.41,0h.15l-.09-.12-12-15.11-3.23-4.08Z"/><polygon class="cls-5" points="197.77 127.89 201.69 134.43 219.41 134.43 219.41 127.89 211.68 113.86 201.69 127.77 197.77 127.89"/><circle class="cls-7" cx="210.97" cy="125.43" r="2.89" transform="translate(-31.87 89.79) rotate(-22.38)"/><path class="cls-4" d="M213.86,125.43a2.19,2.19,0,0,0-.06-.72,2.82,2.82,0,0,0-1-1.63,2.94,2.94,0,0,0-2.81-.45,3,3,0,1,0,2.81,5.15,2.81,2.81,0,0,0,1-1.64,2.13,2.13,0,0,0,.06-.71s0,.26-.13.69a2.93,2.93,0,0,1-1.06,1.55,2.81,2.81,0,0,1-4.49-2.24A2.83,2.83,0,0,1,210,122.8a2.8,2.8,0,0,1,2.65.39,2.88,2.88,0,0,1,1.06,1.54C213.85,125.17,213.83,125.43,213.86,125.43Z"/><rect class="cls-7" x="202.77" y="143.69" width="18.6" height="19.29"/><path class="cls-4" d="M221.38,163a.62.62,0,0,0,0-.09v-.27c0-.24,0-.59,0-1,0-.91,0-2.24,0-3.93,0-3.38,0-8.2,0-14l.06.06H202.77l.07-.07c0,7.08,0,13.7,0,19.29l-.06-.06,13.48,0,3.78,0h0l-3.77,0-13.51,0h-.06V163c0-5.59,0-12.21,0-19.29v-.07h18.74v.06c0,5.78,0,10.61,0,14,0,1.68,0,3,0,3.91,0,.45,0,.79,0,1V163Z"/><path class="cls-4" d="M212.43,162.72s-.07-4.24-.07-9.46,0-9.45.07-9.45.07,4.23.07,9.45S212.47,162.72,212.43,162.72Z"/><path class="cls-4" d="M221.17,154s-4.07.07-9.09.07-9.1,0-9.1-.07,4.07-.07,9.1-.07S221.17,153.91,221.17,154Z"/><rect class="cls-3" x="226.32" y="147.82" width="5.74" height="11.25"/><path class="cls-4" d="M232.06,159.07a.12.12,0,0,1,0,0v-.17c0-.15,0-.36,0-.62l0-2.34c0-2,0-4.8,0-8.07l.07.07h-5.74s.13-.13.06-.07h0V154c0,1.9,0,3.63,0,5.11l-.05,0,4.18,0h1.56s0,0-.1,0h-1.43l-4.21,0h-.06v-.06c0-1.48,0-3.21,0-5.11v-6.13h0l.07-.07h5.8v.06c0,3.29,0,6.11,0,8.11,0,1,0,1.78,0,2.33v.81Z"/><path class="cls-4" d="M229.21,159.07s-.07-2.53-.07-5.66,0-5.65.07-5.65.07,2.53.07,5.65S229.24,159.07,229.21,159.07Z"/><path class="cls-4" d="M232,153.84s-1.3.07-2.9.07-2.9,0-2.9-.07,1.3-.07,2.9-.07S232,153.8,232,153.84Z"/><rect class="cls-5" x="240.41" y="179.74" width="2.83" height="22.01"/><path class="cls-4" d="M243.24,201.75s0-.14,0-.43,0-.75,0-1.24c0-1.17,0-2.73,0-4.65,0-4,0-9.52,0-15.69v-.1h-2.93c-.2.2,0,.06-.1.11h0v3.53c0,1.16,0,2.29,0,3.39,0,2.2,0,4.27,0,6.17,0,3.73,0,6.79,0,8.91v0h0l2.12,0,.71,0-.73,0-2.1,0,.05.05c0-2.12,0-5.18,0-8.91,0-1.9,0-4,0-6.17v-6.92h0s.1-.11-.1.09h2.83l-.1-.1c0,6.15,0,11.61.05,15.62,0,1.92,0,3.5,0,4.67,0,.5,0,.92,0,1.27S243.24,201.75,243.24,201.75Z"/><rect class="cls-5" x="205.05" y="179.74" width="2.83" height="22.01"/><path class="cls-4" d="M207.88,201.75s0-.14,0-.43,0-.75,0-1.24c0-1.17,0-2.73,0-4.65,0-4,0-9.52,0-15.69v-.1h-2.93c-.2.2-.06.06-.1.11h0v6.92c0,2.2,0,4.27,0,6.17,0,3.73,0,6.79,0,8.91v0h.05l2.12,0,.71,0-.74,0-2.09,0,0,.05c0-2.12,0-5.18,0-8.91,0-1.9,0-4,0-6.17,0-1.1,0-2.23,0-3.39v-3.53h0c-.05,0,.1-.11-.1.09h2.83l-.1-.1c0,6.15,0,11.61,0,15.62,0,1.92,0,3.5,0,4.67,0,.5,0,.92,0,1.27S207.88,201.75,207.88,201.75Z"/><polygon class="cls-8" points="185.72 179.85 246.96 179.85 233.63 168.85 200.49 168.85 185.72 179.85"/><g class="cls-9"><polygon points="185.72 179.85 246.96 179.85 233.63 168.85 200.49 168.85 185.72 179.85"/></g><polygon class="cls-8" points="200.49 168.85 212.09 179.85 185.63 179.85 200.49 168.85"/><polyline class="cls-8" points="219.41 127.89 221.54 127.89 212.66 112.56 211.68 113.86 219.41 127.89"/><path class="cls-4" d="M211.67,113.87h0l1-1.3v0l8.89,15.35H219.4Zm1-1.29-1,1.29,7.72,14h2.12Z"/><g class="cls-9"><polyline points="219.41 127.89 221.54 127.89 212.66 112.56 211.68 113.86 219.41 127.89"/></g><polygon class="cls-2" points="201.69 134.43 201.69 127.78 197.71 127.78 201.69 134.43"/><polygon class="cls-8" points="197.77 127.89 194.56 127.89 205.66 112.48 212.66 112.56 201.69 127.77 197.77 127.89"/><path class="cls-4" d="M197.77,127.89s.36,0,1,0l2.89-.06h0v0l11-15.19.11-.16h-.19l-3.25,0-3.75,0h0l0,0c-4.76,6.64-8.77,12.25-11.05,15.44l-.06.07h.09l2.39,0,.82,0-.82,0-2.39,0,0,.07,11.14-15.38-.08,0,3.74,0,3.26,0-.08-.16-10.93,15.24,0,0-2.9.11Z"/><path class="cls-4" d="M179.39,139.7c-.06,0-.1,13.89-.1,31s0,31,.1,31,.1-13.89.1-31S179.44,139.7,179.39,139.7Z"/><rect class="cls-3" x="193.05" y="184.48" width="5.74" height="11.25"/><path class="cls-4" d="M198.8,195.74s0,0,0-.06v-.17c0-.15,0-.36,0-.62,0-.56,0-1.35,0-2.34,0-2,0-4.8,0-8.07l.07.07h-5.75s.14-.13.07-.07h0v6.13c0,1.91,0,3.63,0,5.12l-.06-.06,4.19,0h0l-4.22,0H193v0c0-1.49,0-3.21,0-5.12v-3c0-.51,0-1,0-1.56v-1.6h0l.07-.07h5.81v.06c0,3.29,0,6.11,0,8.12,0,1,0,1.77,0,2.32v.82Z"/><path class="cls-4" d="M195.94,195.73s-.07-2.53-.07-5.66,0-5.65.07-5.65.07,2.53.07,5.65S196,195.73,195.94,195.73Z"/><path class="cls-4" d="M198.73,190.5s-1.3.07-2.9.07-2.9,0-2.9-.07,1.3-.07,2.9-.07S198.73,190.46,198.73,190.5Z"/><rect class="cls-1" x="75.94" y="56.72" width="102.22" height="145.09" rx="4.13"/><path class="cls-4" d="M174,201.81l.32,0a4.46,4.46,0,0,0,.92-.17,4.27,4.27,0,0,0,1.35-.74,4.17,4.17,0,0,0,1.24-1.71,4,4,0,0,0,.27-1.24c0-.45,0-.93,0-1.43,0-1,0-2.1,0-3.29,0-2.37,0-5.11,0-8.2,0-12.33,0-30.18,0-52.24,0-11,0-23.11,0-36.08,0-6.48,0-13.19,0-20.09V66.09c0-1.78,0-3.57,0-5.37a4,4,0,0,0-.91-2.43,4,4,0,0,0-2.23-1.37,5.92,5.92,0,0,0-1.34-.11H80.09a4,4,0,0,0-4,3.83c0,2.08,0,4.18,0,6.25v82.35c0,14.59,0,28.44,0,41.41v4.82c0,.8,0,1.6,0,2.38a4.09,4.09,0,0,0,.74,2.16,4,4,0,0,0,1.76,1.41,4.56,4.56,0,0,0,1.1.28c.37,0,.76,0,1.14,0h21.88l52.24,0,14.2,0h0l-14.2,0-52.24,0H80.77c-.38,0-.76,0-1.16,0a5,5,0,0,1-1.14-.29,4.31,4.31,0,0,1-1.83-1.47,4.19,4.19,0,0,1-.77-2.24c0-.8,0-1.59,0-2.39v-4.82c0-13,0-26.82,0-41.41V66.9c0-2.08,0-4.16,0-6.26a4.19,4.19,0,0,1,1.3-2.85,4.3,4.3,0,0,1,2.93-1.17h93.5a5.33,5.33,0,0,1,1.38.11,4.19,4.19,0,0,1,3.28,4c0,1.8,0,3.59,0,5.37V76.6c0,6.9,0,13.61,0,20.09,0,13,0,25,0,36.08,0,22.06,0,39.91,0,52.24,0,3.09,0,5.83,0,8.2,0,1.19,0,2.28,0,3.29,0,.5,0,1,0,1.43a3.93,3.93,0,0,1-.28,1.26,4,4,0,0,1-2.62,2.44,3.87,3.87,0,0,1-.92.17Z"/><g class="cls-9"><polygon points="85.64 198.21 171.36 197.74 172.34 181.18 169.72 171.19 84.86 184.45 85.64 198.21"/></g><path class="cls-4" d="M174,201.81l.32,0a4.46,4.46,0,0,0,.92-.17,4.27,4.27,0,0,0,1.35-.74,4.17,4.17,0,0,0,1.24-1.71,4,4,0,0,0,.27-1.24c0-.45,0-.93,0-1.43,0-1,0-2.1,0-3.29,0-2.37,0-5.11,0-8.2,0-12.33,0-30.18,0-52.24,0-11,0-23.11,0-36.08,0-6.48,0-13.19,0-20.09V66.09c0-1.78,0-3.57,0-5.37a4,4,0,0,0-.91-2.43,4,4,0,0,0-2.23-1.37,5.92,5.92,0,0,0-1.34-.11H80.09a4,4,0,0,0-4,3.83c0,2.08,0,4.18,0,6.25v82.35c0,14.59,0,28.44,0,41.41v4.82c0,.8,0,1.6,0,2.38a4.09,4.09,0,0,0,.74,2.16,4,4,0,0,0,1.76,1.41,4.56,4.56,0,0,0,1.1.28c.37,0,.76,0,1.14,0h21.88l52.24,0,14.2,0h0l-14.2,0-52.24,0H80.77c-.38,0-.76,0-1.16,0a5,5,0,0,1-1.14-.29,4.31,4.31,0,0,1-1.83-1.47,4.19,4.19,0,0,1-.77-2.24c0-.8,0-1.59,0-2.39v-4.82c0-13,0-26.82,0-41.41V66.9c0-2.08,0-4.16,0-6.26a4.19,4.19,0,0,1,1.3-2.85,4.3,4.3,0,0,1,2.93-1.17h93.5a5.33,5.33,0,0,1,1.38.11,4.19,4.19,0,0,1,3.28,4c0,1.8,0,3.59,0,5.37V76.6c0,6.9,0,13.61,0,20.09,0,13,0,25,0,36.08,0,22.06,0,39.91,0,52.24,0,3.09,0,5.83,0,8.2,0,1.19,0,2.28,0,3.29,0,.5,0,1,0,1.43a3.93,3.93,0,0,1-.28,1.26,4,4,0,0,1-2.62,2.44,3.87,3.87,0,0,1-.92.17Z"/><g class="cls-9"><polygon points="85.64 198.21 171.36 197.74 172.34 181.18 169.72 171.19 84.86 184.45 85.64 198.21"/></g><rect class="cls-7" x="81.12" y="62.57" width="91.88" height="132.4"/><path class="cls-4" d="M173,195c0-.76,0-54.26-.09-132.39l.09.08H81.12l.09-.09c0,49.72,0,95.65,0,132.39l-.07-.07L173,195,81.12,195H81V195c0-36.74,0-82.67,0-132.39v-.1h92.05v.09C173,140.7,173,194.2,173,195Z"/><rect class="cls-8" x="105.41" y="69.98" width="46.08" height="4.26"/><rect class="cls-1" x="86.29" y="79.94" width="20.09" height="4.26"/><rect class="cls-5" x="86.29" y="87.51" width="40.28" height="4.26"/><rect class="cls-5" x="109" y="93.42" width="40.28" height="4.26"/><rect class="cls-5" x="86.29" y="93.33" width="19.16" height="4.26"/><rect class="cls-5" x="130.3" y="87.38" width="19.16" height="4.26"/><rect class="cls-5" x="151.59" y="87.38" width="14.58" height="4.26"/><rect class="cls-5" x="151.59" y="93.4" width="14.58" height="4.26"/><rect class="cls-1" x="86.29" y="157.71" width="79.48" height="4.85"/><rect class="cls-1" x="86.29" y="100.84" width="79.48" height="4.85"/><rect class="cls-1" x="86.29" y="134.86" width="31.7" height="4.85"/><rect class="cls-1" x="127" y="134.86" width="39.63" height="4.85"/><path class="cls-4" d="M118,142.67c0,.05-7.09.1-15.83.1s-15.84-.05-15.84-.1,7.09-.1,15.84-.1S118,142.61,118,142.67Z"/><path class="cls-4" d="M117.44,146.39c0,.06-7,.1-15.58.1s-15.57,0-15.57-.1,7-.1,15.57-.1S117.44,146.33,117.44,146.39Z"/><path class="cls-4" d="M117.7,150.17c0,.06-7,.11-15.7.11s-15.71-.05-15.71-.11,7-.1,15.71-.1S117.7,150.12,117.7,150.17Z"/><path class="cls-4" d="M117.7,153.85c0,.05-7,.1-15.7.1s-15.71,0-15.71-.1,7-.11,15.71-.11S117.7,153.79,117.7,153.85Z"/><path class="cls-4" d="M166,143.54c0,.06-7.35.1-16.41.1s-16.4,0-16.4-.1,7.34-.1,16.4-.1S166,143.48,166,143.54Z"/><path class="cls-4" d="M130.7,144.73s0-.27,0-.68,0-1,0-1.7l.08.09-2.26,0,.1-.11h0v1.24c0,.39,0,.77,0,1.12l-.09-.09,1.61,0a3.8,3.8,0,0,1,.65,0,5.08,5.08,0,0,1-.59,0c-.4,0-1,0-1.67,0h-.08v-2.45h0l.09-.1,2.26,0h.09v.08c0,.74,0,1.34,0,1.75A3.62,3.62,0,0,1,130.7,144.73Z"/><path class="cls-4" d="M166,148.1c0,.06-7.35.1-16.41.1s-16.4,0-16.4-.1,7.34-.1,16.4-.1S166,148,166,148.1Z"/><path class="cls-4" d="M130.7,149.29s0-.27,0-.68,0-1,0-1.7l.08.09-2.26,0,.1-.11h0v1.24c0,.39,0,.77,0,1.12l-.09-.09,1.61,0a3.8,3.8,0,0,1,.65,0,5.08,5.08,0,0,1-.59,0c-.4,0-1,0-1.67,0h-.08v-2.45h0l.09-.1,2.26,0h.09v.08c0,.74,0,1.34,0,1.75A3.62,3.62,0,0,1,130.7,149.29Z"/><path class="cls-4" d="M166,152.66c0,.06-7.35.1-16.41.1s-16.4,0-16.4-.1,7.34-.1,16.4-.1S166,152.6,166,152.66Z"/><path class="cls-4" d="M130.7,153.85s0-.27,0-.68,0-1,0-1.7l.08.09-2.26,0,.1-.11h0v1.24c0,.39,0,.77,0,1.12l-.09-.09,1.61,0a3.8,3.8,0,0,1,.65,0,5.08,5.08,0,0,1-.59,0c-.4,0-1,0-1.67.05h-.08v-2.45h0l.09-.1h2.35v.09c0,.73,0,1.34,0,1.75A3.62,3.62,0,0,1,130.7,153.85Z"/><path class="cls-4" d="M164.65,131.28s0-.13,0-.39v-1.13c0-1,0-2.48,0-4.4,0-3.84,0-9.44,0-16.53l.06.06-78.26,0h0l.09-.1v22.45l-.09-.1,55.89,0,16.42,0h4.43l-4.39,0-16.39,0-56,0h-.1V108.73h.1l78.26,0h.06v.06c0,7.1,0,12.72,0,16.57,0,1.91,0,3.38,0,4.38v1.5Z"/><path class="cls-4" d="M164.65,114.48c0,.06-17.47.1-39,.1s-39,0-39-.1,17.46-.1,39-.1S164.65,114.42,164.65,114.48Z"/><path class="cls-4" d="M164.65,120.06s-17.47.1-39,.1-39,0-39-.1,17.46-.11,39-.11S164.65,120,164.65,120.06Z"/><path class="cls-4" d="M164.65,125.69c0,.06-17.47.1-39,.1s-39,0-39-.1,17.46-.1,39-.1S164.65,125.63,164.65,125.69Z"/><path class="cls-4" d="M95.48,131.48s-.09-5.08-.09-11.34,0-11.35.09-11.35.1,5.08.1,11.35S95.54,131.48,95.48,131.48Z"/><path class="cls-4" d="M122,130.8c-.06,0-.1-4.85-.1-10.83s0-10.84.1-10.84.1,4.85.1,10.84S122,130.8,122,130.8Z"/><path class="cls-4" d="M149.83,131.82c-.05,0-.09-5-.09-11.17s0-11.17.09-11.17.1,5,.1,11.17S149.89,131.82,149.83,131.82Z"/><path class="cls-4" d="M163.81,81.68s-11.95.09-26.68.09-26.7,0-26.7-.09,11.95-.09,26.7-.09S163.81,81.63,163.81,81.68Z"/><path class="cls-4" d="M126.12,83.57c0,.05-3.51.1-7.84.1s-7.85,0-7.85-.1,3.51-.09,7.85-.09S126.12,83.52,126.12,83.57Z"/><path class="cls-4" d="M149.74,166.67c0,.06-14.21.1-31.73.1s-31.72,0-31.72-.1,14.2-.09,31.72-.09S149.74,166.62,149.74,166.67Z"/><path class="cls-4" d="M137.85,169.86h-.53l-1.5,0-5.52,0-18.23,0-18.23,0-5.53,0-1.5,0h0l1.5,0,5.53,0,18.23,0,18.23,0,5.52,0,1.5,0h.53Z"/><path class="cls-4" d="M116.37,173a1,1,0,0,1-.3,0l-.88,0-3.22,0-10.64,0-10.64,0-3.22,0-.88,0a1,1,0,0,1-.3,0l.3,0h.88l3.22,0,10.64,0L112,173l3.22,0h.88Z"/><path class="cls-4" d="M111.92,180.54c0,.06-4.74.1-10.59.1s-10.59,0-10.59-.1,4.74-.1,10.59-.1S111.92,180.49,111.92,180.54Z"/><path class="cls-4" d="M155.83,188.72s.07-.12.17-.35a2.41,2.41,0,0,0,.18-1.09,9.71,9.71,0,0,0-.28-1.76,5.49,5.49,0,0,1-.15-2.36,3.52,3.52,0,0,1,1.75-2.25,3.33,3.33,0,0,1,3.23.11,3.22,3.22,0,0,1,1.26,1.3,1.53,1.53,0,0,1,.15,1,.83.83,0,0,1-.72.67,6.34,6.34,0,0,1-1,0l-1,0c-.65,0-1.31,0-2-.1a14,14,0,0,1-3.82-.83,2.46,2.46,0,0,0-1.74-.1,5.91,5.91,0,0,0-1.32,1.14,1.59,1.59,0,0,1-.78.44,1.22,1.22,0,0,1-.86-.16,7.41,7.41,0,0,1-1.19-1.09,1.63,1.63,0,0,0-.6-.39.94.94,0,0,0-.66,0,3.65,3.65,0,0,0-1,.86,2.56,2.56,0,0,1-2.23.7,2.39,2.39,0,0,1-1.5-1,2.32,2.32,0,0,1-.45-1,1.44,1.44,0,0,1,0-.39s0,.13.06.38a2.58,2.58,0,0,0,.47,1,2.35,2.35,0,0,0,1.46.88,2.43,2.43,0,0,0,2.11-.69,3.8,3.8,0,0,1,1.06-.91,1.13,1.13,0,0,1,.77,0,1.82,1.82,0,0,1,.66.42,7.84,7.84,0,0,0,1.17,1.06,1,1,0,0,0,.74.13,1.44,1.44,0,0,0,.69-.4,6,6,0,0,1,1.36-1.17,1.81,1.81,0,0,1,.95-.14,4.86,4.86,0,0,1,.93.23,14.13,14.13,0,0,0,3.78.81c.66.06,1.32.09,2,.11h1a5.83,5.83,0,0,0,.94,0,.61.61,0,0,0,.56-.51,1.34,1.34,0,0,0-.13-.83,3.08,3.08,0,0,0-1.18-1.22,3.18,3.18,0,0,0-3.07-.13,3.4,3.4,0,0,0-1.68,2.14,5.48,5.48,0,0,0,.12,2.31,9.45,9.45,0,0,1,.25,1.77,2.48,2.48,0,0,1-.22,1.11A2.17,2.17,0,0,1,155.83,188.72Z"/><path class="cls-4" d="M166.81,184.89a.76.76,0,0,1-.26,0h-.74l-2.74,0c-2.31,0-5.51.06-9,.16s-6.72.25-9,.36l-2.73.14-.75,0h-.26l.26,0,.74-.07,2.74-.2c2.3-.15,5.49-.31,9-.42s6.73-.12,9-.1c1.16,0,2.09,0,2.74,0l.74,0Z"/><path class="cls-8" d="M122.55,182l-2.25.57-.15,1.14-1.54.39,1-5.91,1.48-.38,3.71,4.72-1.57.4Zm-.72-1-1.12-1.53-.25,1.87Z"/><path class="cls-8" d="M129.17,177.84c.31,1.21-.41,2.19-1.87,2.56l-.92.23.35,1.4-1.51.38-1.34-5.33,2.43-.61C127.76,176.1,128.86,176.62,129.17,177.84Zm-1.52.38c-.12-.49-.51-.7-1.13-.54l-.84.21.4,1.56.83-.21C127.54,179.08,127.77,178.71,127.65,178.22Z"/><path class="cls-8" d="M134.7,176.44c.31,1.2-.42,2.19-1.87,2.56l-.92.23.35,1.39-1.51.39-1.35-5.33,2.44-.61C133.29,174.7,134.39,175.22,134.7,176.44Zm-1.52.38c-.13-.49-.51-.7-1.13-.54l-.84.21.39,1.56.84-.22C133.06,177.68,133.3,177.31,133.18,176.82Z"/><path class="cls-8" d="M138.25,177.6l-.82.21.36,1.41-1.51.38-1.35-5.32,2.43-.62c1.46-.36,2.56.16,2.87,1.37a1.83,1.83,0,0,1-.62,1.95l1.57,1.38-1.61.41Zm-.68-2.73-.83.22.39,1.55.84-.21c.62-.16.86-.52.74-1S138.2,174.72,137.57,174.87Z"/><path class="cls-8" d="M141,175.59a3.06,3.06,0,1,1,3.66,2A2.87,2.87,0,0,1,141,175.59Zm4.39-1.12a1.48,1.48,0,1,0-1,1.89A1.47,1.47,0,0,0,145.35,174.47Z"/><path class="cls-8" d="M152.21,169.9l-.94,5.9-1.48.38-3.62-4.75,1.63-.41,2.32,3.1.6-3.84Z"/><path class="cls-8" d="M157.85,172.9l.29,1.16-4.27,1.08-1.35-5.32,4.17-1.06.3,1.17-2.69.68.23.89,2.37-.59.28,1.12-2.36.6.24,1Z"/><path class="cls-8" d="M157.63,168.53l2.51-.64c1.77-.45,3.24.27,3.65,1.91s-.53,3-2.3,3.41l-2.51.64Zm3.5,3.49a1.5,1.5,0,1,0-.74-2.91l-.95.24.74,2.92Z"/><path class="cls-8" d="M118,188.35a3,3,0,0,1-2.94-2.28l-1.79-6.85a3,3,0,0,1,.32-2.31,3,3,0,0,1,1.86-1.41l46.53-12.13a3.06,3.06,0,0,1,2.31.32,3.1,3.1,0,0,1,1.41,1.86l1.78,6.86a3,3,0,0,1-2.18,3.71l-46.53,12.13A3.46,3.46,0,0,1,118,188.35Zm44.75-24a2.2,2.2,0,0,0-.5.06l-46.53,12.13a2,2,0,0,0-1.4,2.39l1.78,6.86a2,2,0,0,0,2.4,1.4L165,175.07a2,2,0,0,0,1.2-.9,2,2,0,0,0,.21-1.49l-1.79-6.86a2,2,0,0,0-.91-1.19A1.91,1.91,0,0,0,162.7,164.36Z"/><path class="cls-4" d="M112.07,53.11h34.46a6.33,6.33,0,0,1,6.33,6.33v7.34a0,0,0,0,1,0,0H105.74a0,0,0,0,1,0,0V59.43A6.33,6.33,0,0,1,112.07,53.11Z"/><polygon class="cls-4" points="135.29 47.97 123.3 47.97 124.7 58.25 133.74 58.25 135.29 47.97"/><path class="cls-6" d="M149.83,53.11s-9.2.1-20.53.1-20.53-.05-20.53-.1S118,53,129.3,53,149.83,53.05,149.83,53.11Z"/><path class="cls-6" d="M106.8,64.57c-.06,0-.1-1.94-.1-4.32s0-4.32.1-4.32.1,1.94.1,4.32S106.85,64.57,106.8,64.57Z"/><path class="cls-6" d="M151.33,63.54a36.72,36.72,0,0,1-.1-3.91,36.84,36.84,0,0,1,.1-3.92s.1,1.75.1,3.92S151.38,63.54,151.33,63.54Z"/><path class="cls-6" d="M149.06,65.36c0,.06-9.44.1-21.08.1s-21.07,0-21.07-.1,9.43-.1,21.07-.1S149.06,65.31,149.06,65.36Z"/><g class="cls-9"><polygon points="152.85 57.02 154.8 62.8 154.8 65.63 152.6 65.63 152.85 57.02"/></g><path class="cls-7" d="M27.18,65.84a10.1,10.1,0,1,0,4,14.42L34,79.73l-1.6-2.2A10.11,10.11,0,0,0,27.18,65.84Z"/><path class="cls-4" d="M27.18,65.84l.22.11.64.35a10.51,10.51,0,0,1,2.14,1.79,7.71,7.71,0,0,1,.6.74l.3.42a5.11,5.11,0,0,1,.28.46,8,8,0,0,1,.54,1c.08.18.15.37.22.56l.12.29.09.3a10.16,10.16,0,0,1,.1,5.68v-.07l1.6,2.2.08.11-.13,0-2.81.53.06,0a10.33,10.33,0,0,1-5,4.07,10.2,10.2,0,0,1-7,.07,10.69,10.69,0,0,1-3-1.64,10.22,10.22,0,0,1-2.2-2.45,8.1,8.1,0,0,1-.42-.7c-.11-.24-.23-.48-.35-.71a12.05,12.05,0,0,1-.51-1.5,9.83,9.83,0,0,1-.33-3A9.48,9.48,0,0,1,13,71.58l.11-.34c0-.11.09-.21.14-.32l.28-.63.33-.59a4.21,4.21,0,0,1,.36-.57,10,10,0,0,1,3.63-3.24,10.15,10.15,0,0,1,3.86-1.14,13.16,13.16,0,0,1,1.65,0,11.43,11.43,0,0,1,1.38.22l.58.14.49.16.42.14.34.16.45.21.16.08L27,65.78l-.46-.2-.34-.14-.43-.14-.49-.15L24.73,65a12.14,12.14,0,0,0-1.37-.2,11.46,11.46,0,0,0-1.64,0A10.24,10.24,0,0,0,17.91,66a9.93,9.93,0,0,0-3.56,3.22,4,4,0,0,0-.35.56l-.33.58L13.4,71a2.92,2.92,0,0,0-.14.31l-.11.33a9.58,9.58,0,0,0-.52,2.8,9.82,9.82,0,0,0,.33,3,11,11,0,0,0,.51,1.46l.35.71c.11.24.27.45.4.68a9.87,9.87,0,0,0,5.08,4,10.07,10.07,0,0,0,6.85-.06,10.18,10.18,0,0,0,4.92-4l0,0h0l2.81-.53,0,.13L32.3,77.57l0,0v0a10.08,10.08,0,0,0-.07-5.6l-.09-.3L32,71.32c-.07-.19-.14-.38-.22-.55a8.69,8.69,0,0,0-.52-1L31,69.3l-.3-.41a7.66,7.66,0,0,0-.59-.74A10.8,10.8,0,0,0,28,66.34L27.39,66Z"/><polygon class="cls-8" points="17.55 75.48 18.92 74 21.76 76.34 26.96 70.95 28.34 72.32 21.66 79.1 17.55 75.48"/><path class="cls-6" d="M53.79,186.78,51.46,195s7.43,5.15,7.14,6.71l-15.82-4,3.11-12.91Z"/><path class="cls-1" d="M46.74,193a.65.65,0,0,0-.63.63.64.64,0,0,0,.61.64.7.7,0,0,0,.67-.67c0-.33-.4-.68-.72-.6"/><g class="cls-10"><path class="cls-7" d="M42.78,197.66l.36-1.29,15,4.33s.63.48.42,1Z"/></g><path class="cls-4" d="M51.74,195c0,.07-.42,0-.86.17s-.73.43-.79.38.16-.47.7-.65S51.77,194.88,51.74,195Z"/><path class="cls-4" d="M53.22,196.06c0,.08-.36.13-.71.39s-.5.6-.58.58,0-.48.42-.8S53.24,196,53.22,196.06Z"/><path class="cls-4" d="M53.67,198.31c-.07,0-.08-.42.22-.79s.71-.46.72-.39-.26.25-.5.56S53.75,198.33,53.67,198.31Z"/><path class="cls-4" d="M52.06,193c-.05.06-.37-.13-.82-.22s-.82,0-.84-.1.37-.27.89-.17S52.12,193,52.06,193Z"/><path class="cls-6" d="M48.24,188.7l-.36,8.51s8.41,3.24,8.5,4.82l-16.32-.13,0-13.28Z"/><path class="cls-1" d="M42.84,196.46a.67.67,0,0,0-.47.77.64.64,0,0,0,.75.47.71.71,0,0,0,.49-.81.66.66,0,0,0-.83-.41"/><g class="cls-10"><path class="cls-7" d="M40.06,201.9l.06-1.34,15.62.63s.72.32.64.84Z"/></g><path class="cls-4" d="M48.14,197.13c0,.08-.4.12-.79.37s-.61.6-.68.56,0-.49.53-.79S48.16,197.06,48.14,197.13Z"/><path class="cls-4" d="M49.85,197.86c0,.08-.33.22-.6.56s-.36.7-.44.69-.12-.46.22-.88S49.85,197.79,49.85,197.86Z"/><path class="cls-4" d="M50.8,200c-.07,0-.18-.39,0-.83s.58-.62.62-.55-.2.3-.37.67S50.88,199.94,50.8,200Z"/><path class="cls-4" d="M48,195.18c0,.08-.39,0-.85,0s-.8.17-.84.1.3-.36.83-.38S48.05,195.12,48,195.18Z"/><path class="cls-4" d="M38.15,126.43v6.73l1.79,26.21s-1.11,12.72-1.79,19.9c-.6,6.23.37,17.09.37,17.09H48.9l3.72-36.21,2.3-22.58,4-10.28Z"/><path class="cls-4" d="M63.66,126.43l1,27.32c-.07,5.13-1.48,14.7-3.32,19.48L53,191.56l-.48,1.65-6.2-1.52,4.61-64.8Z"/><path class="cls-6" d="M56.47,133.66s0,.06,0,.17v.48c0,.43,0,1.05,0,1.84,0,1.61,0,3.92,0,6.79s-.14,6.28-.34,10.06a84.53,84.53,0,0,1-1.37,12.25c-.82,4.3-1.69,8.37-2.46,12.08s-1.46,7-2,9.87-.87,5.11-1.08,6.7c-.12.79-.18,1.41-.24,1.83l-.07.47c0,.11,0,.16,0,.16s0-.05,0-.16l.05-.48c0-.42.09-1,.2-1.83.19-1.59.53-3.89,1-6.71s1.16-6.18,1.93-9.89,1.63-7.78,2.45-12.08A85.4,85.4,0,0,0,55.93,153c.22-3.78.32-7.19.39-10.05s.09-5.19.11-6.79c0-.79,0-1.41,0-1.84v-.48C56.47,133.72,56.47,133.66,56.47,133.66Z"/><path class="cls-8" d="M69.75,117.76a4.61,4.61,0,0,1,.15,1.57,3.43,3.43,0,0,1-2.26,3.47c-2.15.67-4.17-.94-4.83-1.67s-.58-3.1-.58-3.1l3.53-1.57Z"/><path class="cls-8" d="M45.37,87.48l-1.79,2.87-7.23,3.08,1.81,29.69,1.3,5.38,24.09-.8,1-1.79-1.79-22.84c-.54-5.14-1.7-7.89-4-9.16l-1.5-1L56.74,91l-2.13-2-6.8-1.77Z"/><g class="cls-9"><path d="M37.36,120.86a7.37,7.37,0,0,0,7.28,3.24c2.41-.41,4.46-2,6.77-2.8,4-1.39,8.64-.29,12.62-1.83.08-.69,0-1.53.08-2a13.89,13.89,0,0,1-5.87-1.15l-1.6-.59Z"/></g><path class="cls-8" d="M36.35,93.43s-3.44,2.94-2.44,10.6c.92,7.11,2.56,17,4.74,18.18s6.9.57,10.36-1.38,13.45-7.25,13.45-7.25l-4.14-7.36L45,111.4s-1.73-11.81-2.76-13.84"/><path class="cls-4" d="M42.22,97.56a2,2,0,0,1,.1.22,2.13,2.13,0,0,1,.12.29l.13.4c.2.61.43,1.53.69,2.72.51,2.39,1.13,5.87,1.79,10.2l-.1-.06,13.34-5.2.07,0,0,.07,4.15,7.35.05.09-.09,0L54,118.28l-4.19,2.26c-.69.36-1.38.75-2.09,1.06a18.13,18.13,0,0,1-2.18.75,14.16,14.16,0,0,1-4.45.52,6.76,6.76,0,0,1-2.14-.45l-.25-.11-.24-.15a2.4,2.4,0,0,1-.39-.39,5.44,5.44,0,0,1-.56-.91A20.36,20.36,0,0,1,36.12,117c-.34-1.28-.6-2.54-.84-3.76-.48-2.44-.83-4.72-1.12-6.81a32.1,32.1,0,0,1-.47-5.67,14.11,14.11,0,0,1,.76-4.23,9.36,9.36,0,0,1,1.26-2.4,5.46,5.46,0,0,1,.46-.54,1.62,1.62,0,0,1,.18-.16l-.17.17c-.1.12-.26.3-.44.55a9.59,9.59,0,0,0-1.22,2.41,14.39,14.39,0,0,0-.72,4.2,32.21,32.21,0,0,0,.5,5.65c.3,2.09.66,4.37,1.14,6.8.24,1.21.51,2.47.85,3.74a19.7,19.7,0,0,0,1.33,3.82,4.47,4.47,0,0,0,.55.88,2.38,2.38,0,0,0,.35.36l.21.13.24.11a6.59,6.59,0,0,0,2.08.43,14.08,14.08,0,0,0,4.39-.52,17.07,17.07,0,0,0,2.15-.74c.71-.31,1.38-.69,2.07-1.06l4.2-2.26,8.56-4.61,0,.14-4.14-7.36.11,0L45,111.46l-.09,0v-.09c-.64-4.33-1.24-7.82-1.73-10.2-.24-1.2-.46-2.12-.65-2.73l-.12-.4-.11-.29Z"/><polygon class="cls-8" points="43.37 101.92 52.03 101.35 53.95 104.95 44.24 106.7 43.37 101.92"/><path class="cls-4" d="M43.37,101.92s0,.13.08.35.11.56.19,1c.17.84.39,2,.67,3.46l-.09-.06L53,105l1-.17-.07.14c-.67-1.27-1.31-2.48-1.91-3.6l.09,0-6.21.37-1.8.09-.48,0h-.18l.15,0,.47,0,1.77-.14,6.27-.46h.06l0,.06,1.92,3.6.06.12-.13,0-1,.18-8.75,1.55h-.07l0-.07c-.25-1.47-.45-2.67-.59-3.53l-.16-1A1.92,1.92,0,0,1,43.37,101.92Z"/><path class="cls-4" d="M45,111.4c.05,0-.72.95-1.37,2.25s-.92,2.47-1,2.45a3,3,0,0,1,.14-.77,10.5,10.5,0,0,1,.67-1.77,9.4,9.4,0,0,1,1-1.59A2.5,2.5,0,0,1,45,111.4Z"/><path class="cls-4" d="M53.68,94.89a2.91,2.91,0,0,1-.48-.35l-1.25-1h.11a12.54,12.54,0,0,1-1.72,2.16l-.07.06-.07-.06-1.32-1.1c-1.43-1.17-2.76-2.17-3.73-2.89L44,90.85c-.28-.2-.42-.31-.41-.33l.45.27c.28.18.69.45,1.19.8,1,.68,2.34,1.67,3.76,2.84.47.38.92.76,1.33,1.11H50.2a12.55,12.55,0,0,0,1.73-2.1l0-.07.06.05c.49.42.9.77,1.21,1A2.72,2.72,0,0,1,53.68,94.89Z"/><path class="cls-4" d="M57.25,93.06a1.89,1.89,0,0,1,.07.49,6.62,6.62,0,0,1,0,1.28l0,.23-.14-.19a14.06,14.06,0,0,0-1-1.34L55.62,93c-.07-.07-.16-.17-.22-.22s-.07,0-.14,0l-.64.89a3.72,3.72,0,0,1-.63.79,6.35,6.35,0,0,1,.52-.87l.6-.92a.37.37,0,0,1,.18-.13.28.28,0,0,1,.23.07,1.81,1.81,0,0,1,.24.24q.24.24.48.51a12.69,12.69,0,0,1,1,1.37l-.16,0C57.26,93.77,57.2,93.07,57.25,93.06Z"/><path class="cls-4" d="M41.82,96.39a4.91,4.91,0,0,1-.53-.64,7.29,7.29,0,0,0-1.43-1.37A4.43,4.43,0,0,0,38,93.67c-.5-.09-.82-.1-.82-.13a2.45,2.45,0,0,1,.84,0,4.25,4.25,0,0,1,1.92.68,6,6,0,0,1,1.42,1.46A3,3,0,0,1,41.82,96.39Z"/><path class="cls-4" d="M60.65,101.71A10,10,0,0,1,60,99.86a10.31,10.31,0,0,1-.49-1.9,10.06,10.06,0,0,1,.69,1.84A10.3,10.3,0,0,1,60.65,101.71Z"/><path class="cls-1" d="M48.34,104.45a.48.48,0,0,0,.18.76.47.47,0,1,0-.07-.85"/><g class="cls-9"><polygon points="42.79 99.33 45.22 106.53 53.23 105.08 45.51 108.11 44.86 110.61 42.79 99.33"/></g><g class="cls-9"><path d="M43.8,90.67,51,97.16l1.1-3,1.16.39-1.24-1s-1.36,2.09-1.72,2.13Z"/></g><path class="cls-4" d="M57.45,106.19a3.09,3.09,0,0,1-.15-.44l-.33-1.2c-.29-1-.7-2.41-1.2-3.94s-1-2.89-1.39-3.88l-.45-1.17a2.17,2.17,0,0,1-.14-.44,2.19,2.19,0,0,1,.21.41c.13.27.31.66.51,1.15.41,1,.94,2.33,1.45,3.87s.89,2.94,1.14,4c.13.51.22.93.28,1.22A2.14,2.14,0,0,1,57.45,106.19Z"/><path class="cls-4" d="M57.35,98.19c1.35,1.35,4.78,4.88,4.78,4.88l.92-.56-4.84-5.16a.6.6,0,0,0-.77-.09h0A.6.6,0,0,0,57.35,98.19Z"/><path class="cls-11" d="M58.32,106.22,59.47,103a1.82,1.82,0,0,1,1.67-1.24h.17c.69.08,4.22.31,4.22.31l1.36,1.53a.71.71,0,0,1,0,.93h0l.39,2.76-.77.52.07,1.93s-.69.46-1,.31l-.31-.16-.46-.46-1.3,1.84-1.81,1.05Z"/><path class="cls-12" d="M66.91,104.64a5.8,5.8,0,0,0-.49-.53,2.23,2.23,0,0,0-.66-.4,5,5,0,0,0-1-.13,15,15,0,0,1-2.52-.34,17.42,17.42,0,0,1,2.54.14,4.55,4.55,0,0,1,1,.15,2.44,2.44,0,0,1,.7.47C66.86,104.34,66.94,104.64,66.91,104.64Z"/><path class="cls-12" d="M66.84,107.18a5.48,5.48,0,0,0-.29-.7,2.7,2.7,0,0,0-1.36-1.15,5.15,5.15,0,0,0-1.8-.3,4.18,4.18,0,0,1-.78,0,2.76,2.76,0,0,1,.77-.11,4.34,4.34,0,0,1,1.88.26,2.68,2.68,0,0,1,1.42,1.26A1.25,1.25,0,0,1,66.84,107.18Z"/><path class="cls-12" d="M66.49,109.55a1.46,1.46,0,0,1-.18-.76,2.42,2.42,0,0,0-.18-.79,1,1,0,0,0-.72-.55,13,13,0,0,0-1.84-.27,2.06,2.06,0,0,1-.76-.17,5.07,5.07,0,0,1,.78,0,9.74,9.74,0,0,1,1.87.21,1.45,1.45,0,0,1,.52.24,1.08,1.08,0,0,1,.32.43,2.43,2.43,0,0,1,.15.86C66.45,109.26,66.51,109.54,66.49,109.55Z"/><polygon class="cls-6" points="68.41 103.45 53.2 119.16 53.79 119.75 64.69 118.53 79.35 104.56 79.33 103.89 68.41 103.45"/><g class="cls-9"><path d="M69.4,113.33a2.85,2.85,0,0,0-2.2-.74,4,4,0,0,0-2.16.91A2.9,2.9,0,0,0,64,115.05a2.63,2.63,0,0,0,1.45,2.75l.14-.16,3.74-3a1.05,1.05,0,0,0,.44-.56A.91.91,0,0,0,69.4,113.33Z"/></g><path class="cls-11" d="M67.79,111.86a7.21,7.21,0,0,1,2,.26,13.17,13.17,0,0,1,1.8,1.65s0,1-.39,1a3.37,3.37,0,0,1,.08.65,1.08,1.08,0,0,1-.61,1.31s.07.88-.19,1.11a5.29,5.29,0,0,1-.58.42s-.84,1-1.34,1-1.22.53-1.22.53-2.71-1.12-2.42-1.44l.93-1S64,115.92,64,115.5s.19-.46.19-.46-.08-.81.57-.88c0,0,.5-1,1-1a29.32,29.32,0,0,1,3.87,1.19l-1.26-1.07s-1.27-.2-1.23-.62S67.79,111.86,67.79,111.86Z"/><path class="cls-12" d="M67.57,116.91s-.77-.38-1.71-.83a16.49,16.49,0,0,1-1.72-.83,9.22,9.22,0,0,1,3.43,1.66Z"/><path class="cls-12" d="M69.32,115.73a13,13,0,0,1-2.2-.71,14.46,14.46,0,0,1-2.13-.9,13.88,13.88,0,0,1,2.2.71A13.9,13.9,0,0,1,69.32,115.73Z"/><path class="cls-4" d="M79.29,104.53a.63.63,0,0,1-.2,0h-.58l-2.18,0-7.58-.15.07,0-3.82,4-7.9,8.14-2.41,2.45-.66.65c-.15.15-.23.23-.24.22s.07-.09.21-.24l.64-.69L57,116.33l7.86-8.17,3.82-4,0,0h0l7.58.22,2.18.08.58,0A.8.8,0,0,1,79.29,104.53Z"/><path class="cls-6" d="M64.66,125.88l1.63,2.28s1.46,13.59.81,14.21-2.83.63-2.83.63l-.6-16.28Z"/><rect class="cls-6" x="36.4" y="125.88" width="28.26" height="4.72"/><path class="cls-6" d="M37.27,128.16H50.35a0,0,0,0,1,0,0v9.38a6.54,6.54,0,0,1-6.54,6.54h0a6.54,6.54,0,0,1-6.54-6.54v-9.38A0,0,0,0,1,37.27,128.16Z"/><path class="cls-4" d="M50.35,132.47a8.05,8.05,0,0,1-.05-.82,9.59,9.59,0,0,0-.29-2.2,1.34,1.34,0,0,0-.34-.6,3.83,3.83,0,0,0-.62-.49,4,4,0,0,0-1.63-.52c-1.23-.09-2.61,0-4.05,0a23.7,23.7,0,0,0-4,.15,2.08,2.08,0,0,0-2,2.15c-.09.93-.07,1.7-.09,2.23V133c0,.14,0,.21,0,.21s0-.07,0-.21l0-.61a21.52,21.52,0,0,1,0-2.24,2.67,2.67,0,0,1,.49-1.49,2.73,2.73,0,0,1,1.59-.83,8.41,8.41,0,0,1,2-.17q1,0,2.1,0c1.44,0,2.81,0,4.07,0a4.07,4.07,0,0,1,1.7.56,3.72,3.72,0,0,1,.64.52,1.52,1.52,0,0,1,.36.67,9,9,0,0,1,.24,2.24c0,.24,0,.44,0,.6A1,1,0,0,1,50.35,132.47Z"/><path class="cls-4" d="M50.26,133.86c0,.06-2.88.1-6.43.1s-6.43,0-6.43-.1,2.88-.1,6.43-.1S50.26,133.81,50.26,133.86Z"/><path class="cls-4" d="M41,144.23s-.1-2.33-.1-5.2.05-5.19.1-5.19.1,2.32.1,5.19S41.07,144.23,41,144.23Z"/><path class="cls-4" d="M46.91,144.18s-.1-2.3-.1-5.15,0-5.15.1-5.15.1,2.31.1,5.15S47,144.18,46.91,144.18Z"/><path class="cls-4" d="M59.54,130.41a10.08,10.08,0,0,1-.21-2.29,9.62,9.62,0,0,1,.15-2.3,21.53,21.53,0,0,1,.05,2.29A19.69,19.69,0,0,1,59.54,130.41Z"/><path class="cls-4" d="M64.69,126a2.75,2.75,0,0,1,.18.77c.07.47.15,1.14.19,1.87a4.12,4.12,0,0,1,0,1.06,1.26,1.26,0,0,1-.45.76.87.87,0,0,1-.55.23c-.14,0-.21,0-.21,0a1.08,1.08,0,0,0,.67-.28,1.3,1.3,0,0,0,.36-.7,4.77,4.77,0,0,0,0-1C64.78,127.14,64.63,126,64.69,126Z"/><path class="cls-4" d="M46,81.49a28.89,28.89,0,0,1-1.28-4.83,10.09,10.09,0,0,1,.38-4.94c.08-.23.83-1.83,1.08-1.8s-.28,1.5-.18,1.65a8.63,8.63,0,0,1,1,5,22.94,22.94,0,0,1-1,4.92"/><path class="cls-11" d="M55.43,90.7c0-1.18,0-2.11,0-2.11s4-.42,4.29-4.43c.12-1.93,0-5.94-.07-9.56a7.46,7.46,0,0,0-7.1-7.24l-.38,0c-4.19,0-6.49,3.61-6.34,7.79l0,12.43,8.31,5.94Z"/><path class="cls-12" d="M55.45,88.59a9.73,9.73,0,0,1-5.14-1.8,5,5,0,0,0,5.12,2.87Z"/><path class="cls-4" d="M58.33,78a.57.57,0,0,1-.58.55.55.55,0,0,1-.57-.54.58.58,0,0,1,.58-.55A.55.55,0,0,1,58.33,78Z"/><path class="cls-4" d="M58.74,76.22c-.08.07-.5-.27-1.11-.3s-1.09.25-1.15.17.05-.16.25-.29a1.56,1.56,0,0,1,1.8.09C58.71,76.05,58.77,76.19,58.74,76.22Z"/><path class="cls-4" d="M52.8,78.05a.57.57,0,0,1-.58.55.55.55,0,0,1-.56-.54.56.56,0,0,1,.58-.55A.53.53,0,0,1,52.8,78.05Z"/><path class="cls-4" d="M52.69,76.17c-.08.07-.49-.28-1.11-.3s-1.08.25-1.15.17,0-.16.26-.3a1.58,1.58,0,0,1,.92-.23,1.55,1.55,0,0,1,.88.33C52.67,76,52.73,76.13,52.69,76.17Z"/><path class="cls-4" d="M54.66,81a4,4,0,0,1,1-.13c.16,0,.31,0,.34-.14a.73.73,0,0,0-.08-.47l-.4-1.22a19.39,19.39,0,0,1-.89-3.19A20.88,20.88,0,0,1,55.78,79q.19.65.39,1.23a.92.92,0,0,1,0,.62A.4.4,0,0,1,56,81a1,1,0,0,1-.27,0A4.52,4.52,0,0,1,54.66,81Z"/><path class="cls-4" d="M52.83,81.35c.1,0,.07.66.62,1.17s1.26.46,1.26.55-.17.13-.47.12a1.61,1.61,0,0,1-1.05-.43,1.44,1.44,0,0,1-.48-1C52.7,81.5,52.78,81.34,52.83,81.35Z"/><path class="cls-4" d="M52.78,73.66c-.07.17-.68.06-1.41.11s-1.32.22-1.41.06.07-.22.32-.37a2.47,2.47,0,0,1,2.14-.13C52.68,73.45,52.81,73.59,52.78,73.66Z"/><path class="cls-4" d="M58.58,74.16c-.11.13-.53,0-1-.07s-.95,0-1-.1,0-.21.23-.33a1.38,1.38,0,0,1,.86-.19,1.47,1.47,0,0,1,.82.32C58.58,73.94,58.63,74.09,58.58,74.16Z"/><path class="cls-11" d="M46,78.11c-.07,0-2.72-1-2.76,1.79A2.06,2.06,0,0,0,46,82.05C46,82,46,78.11,46,78.11Z"/><path class="cls-12" d="M45.17,81s-.05,0-.13.07a.55.55,0,0,1-.36,0A1.19,1.19,0,0,1,44.15,80a1.7,1.7,0,0,1,.15-.69.6.6,0,0,1,.36-.36.24.24,0,0,1,.28.14c0,.08,0,.13,0,.14a.17.17,0,0,0,0-.16.35.35,0,0,0-.11-.18.37.37,0,0,0-.26-.07.67.67,0,0,0-.51.42A1.67,1.67,0,0,0,44,80a1.25,1.25,0,0,0,.68,1.2.55.55,0,0,0,.44-.07C45.16,81.07,45.18,81,45.17,81Z"/><path class="cls-4" d="M57.94,70c.45-.24-.87-1.69-2-2.19A9.67,9.67,0,0,0,50.3,67,6.62,6.62,0,0,0,46,70.07a10.86,10.86,0,0,0-1.26,5.5,3.34,3.34,0,0,0,.37,1.68c.38.61,1.11,1,1.07,1.83a1.15,1.15,0,0,0,.28.84c.5.54,1.12,0,1.41-.45a8,8,0,0,0,.75-3.59,7.88,7.88,0,0,0-.15-2.61c-.13-.46-.34-.89-.45-1.36a1.68,1.68,0,0,1,.21-1.37,1.66,1.66,0,0,1,.23-.22,2.87,2.87,0,0,1,2.84-.52c1.54.57,4.17,1.41,4.87.89a4.23,4.23,0,0,0,1.24-1.24Z"/><path class="cls-8" d="M50.56,65.43c-.18,0-4.65.82-5.91,4.06s-1,4.28-1,4.28a2.06,2.06,0,0,0-.48.38c-.19.21,0,1.26.61,1.16,4.41-1.72,9.54-1.68,15.23-1.26l4.37.14c1.22.2,1.66-.11,1.16-.44S60.77,72,60.77,72l-.66-.53-1.69-2.58s.24-.34-.19-.65S54.19,65.08,50.56,65.43Z"/><path class="cls-4" d="M60.11,71.43h-.17l-.48,0c-.42,0-1-.06-1.79-.08a34.12,34.12,0,0,0-5.89.47A52.15,52.15,0,0,0,46,73.1c-.73.2-1.31.38-1.72.5l-.47.14-.16,0,.16,0,.46-.16c.41-.12,1-.31,1.72-.52a48.53,48.53,0,0,1,5.77-1.34,32.08,32.08,0,0,1,5.9-.45A24.11,24.11,0,0,1,60.11,71.43Z"/><g class="cls-9"><path d="M46.43,67.19s4.81-.56,6.9.56l-.24-.13,2,1a1.3,1.3,0,0,0,1.07.18,9.48,9.48,0,0,0-3-1.78C51.16,66.22,48,65.79,46.43,67.19Z"/></g><path class="cls-4" d="M46.36,67.21A3.66,3.66,0,0,1,46.8,67a5.78,5.78,0,0,1,1.31-.49,6.76,6.76,0,0,1,2-.2,6,6,0,0,1,2.46.59,10.57,10.57,0,0,1,1.13.68c.35.24.69.45,1,.68a5.46,5.46,0,0,0,.9.63,2.08,2.08,0,0,0,.91.23c1.17.07,1.9-.14,1.85-.22s0,.05-.1.09A1.35,1.35,0,0,1,58,69a6.07,6.07,0,0,1-1.39.08,2.08,2.08,0,0,1-.94-.22,5.93,5.93,0,0,1-.91-.63c-.31-.23-.66-.45-1-.68a12.28,12.28,0,0,0-1.12-.67,5.82,5.82,0,0,0-2.43-.59,7.11,7.11,0,0,0-2,.18,6.32,6.32,0,0,0-1.31.47l-.33.17Z"/><g class="cls-9"><path d="M44.18,70.85a10.21,10.21,0,0,0,2.37-.31c.91-.15,1.81-.27,2.72-.47a3.92,3.92,0,0,0,2-.75,1,1,0,0,1-.34.91,4.76,4.76,0,0,1-1.48.58,25.26,25.26,0,0,1-5.46.8,6.29,6.29,0,0,1,.23-.76"/></g><path class="cls-8" d="M44.81,69.14c-.56.21-.89.36-.93.82s0,.85.4.94a1.36,1.36,0,0,0,.35,0l6-.93a.83.83,0,0,0,.55-.23.59.59,0,0,0-.17-.82,1.61,1.61,0,0,0-.89-.24,19.87,19.87,0,0,0-5.27.47"/><path class="cls-4" d="M51.05,69.82a.68.68,0,0,0,.17-.25.75.75,0,0,0-.21-.76,1.86,1.86,0,0,0-1.18-.32c-.47,0-1,0-1.54.05a15.25,15.25,0,0,0-2.78.36c-.35.08-.63.16-.82.22l-.22.07-.08,0,.07,0,.22-.08c.19-.07.47-.16.82-.25a15.07,15.07,0,0,1,2.78-.39c.55,0,1.08,0,1.55,0a1.83,1.83,0,0,1,1.21.34.74.74,0,0,1,.2.8.46.46,0,0,1-.13.2Z"/><polygon class="cls-7" points="58.95 69.66 55.24 69.42 55.51 70.48 59.55 70.57 58.95 69.66"/><path class="cls-4" d="M53.19,72.7s1.66-.18,3.72-.36,3.73-.31,3.73-.29-1.67.18-3.72.36S53.19,72.72,53.19,72.7Z"/></svg>