<svg id="Layer_1" data-name="Layer 1" xmlns="http://www.w3.org/2000/svg" viewBox="0 0 250 250"><defs><style>.cls-1{fill:#f5f5f5;}.cls-2{fill:#ececec;}.cls-3{fill:#e1e1e1;}.cls-4{fill:#fafafa;}.cls-5{fill:#1a2e35;}.cls-6{fill:#fff;}.cls-7{fill:#ff735d;}.cls-8{opacity:0.7;}.cls-9{fill:none;}.cls-10{fill:#375a64;}.cls-11{opacity:0.3;}.cls-12{opacity:0.1;}.cls-13{opacity:0.2;}.cls-14{fill:#ffbf9d;}.cls-15{fill:#ff9a6c;}</style></defs><path class="cls-1" d="M117.3,109.71a6.45,6.45,0,1,1-7.3-5.43A6.43,6.43,0,0,1,117.3,109.71Z"/><path class="cls-2" d="M115.78,109.93a4.91,4.91,0,1,1-5.56-4.14A4.91,4.91,0,0,1,115.78,109.93Z"/><path class="cls-3" d="M115.76,109.78s-.08-.2-.21-.56a5.26,5.26,0,0,0-.78-1.41,4.9,4.9,0,0,0-1.85-1.46,4,4,0,0,0-.64-.23,3.84,3.84,0,0,0-.69-.15,4.53,4.53,0,0,0-.74,0,4.76,4.76,0,0,0-.75.07,5.57,5.57,0,0,0-.73.19,4.63,4.63,0,0,0-.68.29c-.21.12-.41.25-.6.38a5.73,5.73,0,0,0-.52.44,5,5,0,0,0-.78,1,4.84,4.84,0,0,0-.45,1,5.15,5.15,0,0,0-.25,1.59,3.24,3.24,0,0,1,0,.61,1.39,1.39,0,0,1-.14-.6,4.49,4.49,0,0,1,.13-1.67,4.88,4.88,0,0,1,.44-1.09,4.94,4.94,0,0,1,.8-1.08,5.11,5.11,0,0,1,.55-.48,4,4,0,0,1,.65-.42,5.83,5.83,0,0,1,.72-.32,5.41,5.41,0,0,1,.79-.21,5.83,5.83,0,0,1,.82-.08,5.16,5.16,0,0,1,.79.06,4.54,4.54,0,0,1,.75.16,6,6,0,0,1,.68.27,4.8,4.8,0,0,1,1.13.74,4.75,4.75,0,0,1,.78.87,4.61,4.61,0,0,1,.71,1.52A1.5,1.5,0,0,1,115.76,109.78Z"/><path class="cls-3" d="M111.89,113.46l.14.84-.76.12-.13-.82a3.53,3.53,0,0,1-2-.3l.27-1a3,3,0,0,0,1.54.3l-.2-1.26c-.87-.06-1.85-.19-2-1.27-.13-.8.34-1.58,1.51-1.91l-.13-.84.75-.12.14.83a3.36,3.36,0,0,1,1.6.21l-.23,1a3.17,3.17,0,0,0-1.22-.21l.21,1.28c.87.07,1.83.2,2,1.26C113.52,112.36,113.05,113.13,111.89,113.46Zm-1.28-3.21-.18-1.07c-.38.15-.5.39-.47.64S110.26,110.19,110.61,110.25Zm1.58,1.61c0-.27-.28-.38-.62-.44l.16,1C112.1,112.32,112.23,112.1,112.19,111.86Z"/><path class="cls-1" d="M239.42,97.39a4.46,4.46,0,1,1-5.06-3.77A4.45,4.45,0,0,1,239.42,97.39Z"/><path class="cls-2" d="M238.37,97.54a3.4,3.4,0,1,1-3.85-2.87A3.39,3.39,0,0,1,238.37,97.54Z"/><path class="cls-3" d="M238.35,97.43a2.38,2.38,0,0,1-.15-.39,3.41,3.41,0,0,0-.53-1,3.49,3.49,0,0,0-.54-.55,3.58,3.58,0,0,0-.74-.46,3.29,3.29,0,0,0-.44-.16,2.73,2.73,0,0,0-.48-.1,2.19,2.19,0,0,0-.51,0,3,3,0,0,0-.52,0,2.72,2.72,0,0,0-.51.13,2.46,2.46,0,0,0-.47.2,4.28,4.28,0,0,0-.42.26,3.65,3.65,0,0,0-.36.31,3.1,3.1,0,0,0-.53.69,3.26,3.26,0,0,0-.32.69,3.72,3.72,0,0,0-.17,1.1,2.26,2.26,0,0,1,0,.42s-.07-.14-.1-.41a3.16,3.16,0,0,1,.1-1.16,3.26,3.26,0,0,1,.3-.75,3.43,3.43,0,0,1,.55-.75c.12-.12.25-.23.38-.34a3.4,3.4,0,0,1,.45-.28,4.52,4.52,0,0,1,.5-.23,4.92,4.92,0,0,1,.55-.14,3.64,3.64,0,0,1,.56,0,3.32,3.32,0,0,1,.55,0,4.37,4.37,0,0,1,.52.12,3.25,3.25,0,0,1,1.25.7,3.29,3.29,0,0,1,.54.6A3,3,0,0,1,238.3,97C238.36,97.28,238.37,97.43,238.35,97.43Z"/><path class="cls-3" d="M235.68,100l.09.58-.52.09-.09-.57a2.52,2.52,0,0,1-1.37-.21l.19-.69a2,2,0,0,0,1.07.21l-.14-.87c-.6,0-1.28-.14-1.4-.88-.09-.56.24-1.09,1.05-1.32l-.1-.58.52-.08.1.57a2.38,2.38,0,0,1,1.11.14l-.16.69a2.17,2.17,0,0,0-.84-.15l.14.89c.6,0,1.27.14,1.38.87C236.8,99.21,236.48,99.75,235.68,100Zm-.89-2.23-.12-.74c-.27.11-.36.28-.33.45S234.54,97.72,234.79,97.75Zm1.09,1.12c0-.18-.19-.26-.43-.3l.12.72C235.82,99.19,235.91,99,235.88,98.87Z"/><path class="cls-1" d="M185.09,150a4.46,4.46,0,1,1-5.05-3.76A4.46,4.46,0,0,1,185.09,150Z"/><path class="cls-2" d="M184,150.19a3.4,3.4,0,1,1-3.85-2.87A3.39,3.39,0,0,1,184,150.19Z"/><path class="cls-3" d="M184,150.08a2,2,0,0,1-.14-.39,3.77,3.77,0,0,0-.54-1,3.1,3.1,0,0,0-.54-.55,3.58,3.58,0,0,0-.74-.46,3.29,3.29,0,0,0-.44-.16,4.15,4.15,0,0,0-.48-.11,4.36,4.36,0,0,0-.51,0,4.6,4.6,0,0,0-.52.06,2.72,2.72,0,0,0-.51.13,2.76,2.76,0,0,0-.47.2,4.1,4.1,0,0,0-.41.26,3.65,3.65,0,0,0-.36.31,3.36,3.36,0,0,0-.54.68,4.27,4.27,0,0,0-.32.7,3.65,3.65,0,0,0-.16,1.1,1.72,1.72,0,0,1,0,.42,1.32,1.32,0,0,1-.1-.41,3.16,3.16,0,0,1,.1-1.16,3.26,3.26,0,0,1,.3-.75,3,3,0,0,1,.56-.75,3.16,3.16,0,0,1,.38-.34,2.75,2.75,0,0,1,.44-.28,3.22,3.22,0,0,1,.5-.23,3.41,3.41,0,0,1,.55-.14,3.64,3.64,0,0,1,.56-.05,3.32,3.32,0,0,1,.55,0,4.37,4.37,0,0,1,.52.12,3.27,3.27,0,0,1,.47.18,3.12,3.12,0,0,1,.78.52,3.4,3.4,0,0,1,.55.6,3.1,3.1,0,0,1,.48,1C184,149.93,184,150.08,184,150.08Z"/><path class="cls-3" d="M181.35,152.63l.09.58-.52.08-.09-.56a2.63,2.63,0,0,1-1.37-.21l.19-.69a2.08,2.08,0,0,0,1.07.21l-.14-.87c-.6,0-1.28-.14-1.4-.88-.09-.56.24-1.1,1-1.32l-.1-.58.53-.08.09.56a2.52,2.52,0,0,1,1.11.15l-.16.69a2.17,2.17,0,0,0-.84-.15l.14.89c.6,0,1.27.13,1.39.87C182.47,151.86,182.15,152.4,181.35,152.63Zm-.89-2.23-.12-.74c-.27.11-.35.28-.33.45S180.22,150.37,180.46,150.4Zm1.1,1.12c0-.19-.2-.26-.44-.3l.12.72C181.49,151.84,181.58,151.68,181.56,151.52Z"/><path class="cls-1" d="M217.39,61.44a10.16,10.16,0,1,1-11.51-8.57A10.15,10.15,0,0,1,217.39,61.44Z"/><path class="cls-2" d="M215,61.78a7.74,7.74,0,1,1-8.77-6.52A7.73,7.73,0,0,1,215,61.78Z"/><path class="cls-3" d="M215,61.55a4.72,4.72,0,0,1-.34-.9,8.28,8.28,0,0,0-1.22-2.22,7.87,7.87,0,0,0-2.91-2.29,7.52,7.52,0,0,0-1-.37,7.81,7.81,0,0,0-1.09-.23,7.45,7.45,0,0,0-1.16-.07,8.13,8.13,0,0,0-1.19.12,7.6,7.6,0,0,0-1.16.3,6.66,6.66,0,0,0-1.06.46,7.58,7.58,0,0,0-.95.59,7.71,7.71,0,0,0-2.05,2.27,8.38,8.38,0,0,0-.71,1.58,8.05,8.05,0,0,0-.38,2.51,5.11,5.11,0,0,1,0,1,2.12,2.12,0,0,1-.22-.94,7.14,7.14,0,0,1,.21-2.63A8,8,0,0,1,200.4,59a7.6,7.6,0,0,1,1.27-1.7,8,8,0,0,1,.86-.77,7.08,7.08,0,0,1,1-.65,7.32,7.32,0,0,1,1.14-.51,8.5,8.5,0,0,1,1.25-.33,9.38,9.38,0,0,1,1.28-.12,8.65,8.65,0,0,1,1.25.08,7.51,7.51,0,0,1,1.18.27,7.67,7.67,0,0,1,1.07.42,7.93,7.93,0,0,1,1.78,1.16,7.85,7.85,0,0,1,1.24,1.38,6.87,6.87,0,0,1,1.1,2.4A2.33,2.33,0,0,1,215,61.55Z"/><path class="cls-3" d="M208.87,67.34l.21,1.33-1.19.19-.21-1.29a5.75,5.75,0,0,1-3.11-.48l.42-1.55a5,5,0,0,0,2.45.47l-.32-2c-1.37-.1-2.92-.31-3.19-2-.2-1.26.54-2.49,2.38-3l-.21-1.32,1.19-.19.21,1.29a5.49,5.49,0,0,1,2.53.34l-.36,1.56a5,5,0,0,0-1.92-.33l.32,2c1.37.1,2.89.31,3.16,2C211.43,65.6,210.7,66.82,208.87,67.34Zm-2-5.06-.27-1.69c-.61.24-.8.63-.74,1S206.29,62.19,206.84,62.28Zm2.5,2.53c-.07-.41-.45-.58-1-.68l.27,1.64C209.19,65.55,209.4,65.2,209.34,64.81Z"/><path class="cls-1" d="M57.67,62.94a10.16,10.16,0,1,1-11.51-8.57A10.16,10.16,0,0,1,57.67,62.94Z"/><path class="cls-2" d="M55.27,63.29a7.74,7.74,0,1,1-8.77-6.53A7.71,7.71,0,0,1,55.27,63.29Z"/><path class="cls-3" d="M55.24,63.05a4.11,4.11,0,0,1-.34-.89,8,8,0,0,0-1.22-2.22,8.39,8.39,0,0,0-1.22-1.25,7.65,7.65,0,0,0-1.69-1,5.8,5.8,0,0,0-1-.37,6.51,6.51,0,0,0-1.1-.24A7.25,7.25,0,0,0,47.51,57a8,8,0,0,0-1.19.12,7.31,7.31,0,0,0-1.16.3,8.47,8.47,0,0,0-1.06.46,7,7,0,0,0-1,.6,6.17,6.17,0,0,0-.82.7,7.66,7.66,0,0,0-1.23,1.56,7.56,7.56,0,0,0-.71,1.59A8.38,8.38,0,0,0,40,64.8a4.12,4.12,0,0,1,0,1,2.45,2.45,0,0,1-.22-.94A7.19,7.19,0,0,1,40,62.18a7.42,7.42,0,0,1,.68-1.71,8.23,8.23,0,0,1,1.27-1.71,8.49,8.49,0,0,1,1.88-1.42A9.13,9.13,0,0,1,45,56.83a10.24,10.24,0,0,1,1.24-.32,7,7,0,0,1,1.29-.12,7.93,7.93,0,0,1,2.42.34,8.65,8.65,0,0,1,1.08.42,8.19,8.19,0,0,1,1.78,1.17A7.68,7.68,0,0,1,54,59.69a7,7,0,0,1,1.11,2.4A2.34,2.34,0,0,1,55.24,63.05Z"/><path class="cls-3" d="M49.14,68.85l.22,1.33-1.19.19L48,69.07a5.64,5.64,0,0,1-3.11-.48L45.27,67a4.85,4.85,0,0,0,2.44.47l-.32-2c-1.37-.11-2.91-.31-3.18-2-.2-1.26.54-2.49,2.38-3l-.21-1.32L47.57,59l.21,1.3a5.49,5.49,0,0,1,2.53.34L50,62.19A5,5,0,0,0,48,61.87l.32,2c1.37.1,2.89.3,3.16,2C51.71,67.11,51,68.32,49.14,68.85Zm-2-5.07-.28-1.69c-.6.25-.8.63-.73,1S46.57,63.7,47.12,63.78Zm2.5,2.54c-.07-.42-.45-.59-1-.68l.26,1.64C49.47,67.05,49.68,66.7,49.62,66.32Z"/><polygon class="cls-2" points="214.56 156.84 217.42 175.64 234.04 175.64 237.9 157.12 214.56 156.84"/><path class="cls-4" d="M235.58,168.89c0,.06-4.26.1-9.52.1s-9.51,0-9.51-.1,4.26-.1,9.51-.1S235.58,168.84,235.58,168.89Z"/><path class="cls-4" d="M235.64,168c0,.05-4.29.1-9.58.1s-9.57,0-9.57-.1,4.29-.1,9.57-.1S235.64,167.91,235.64,168Z"/><path class="cls-4" d="M235.61,166.92c0,.06-4.29.1-9.58.1s-9.57,0-9.57-.1,4.28-.09,9.57-.09S235.61,166.87,235.61,166.92Z"/><path class="cls-4" d="M219.33,174.57a15.66,15.66,0,0,1-.51-2.37,15.39,15.39,0,0,1-.32-2.4,13.21,13.21,0,0,1,.51,2.37A15.54,15.54,0,0,1,219.33,174.57Z"/><path class="cls-4" d="M220.46,174.37a18.47,18.47,0,0,1-.2-2.31,16.55,16.55,0,0,1-.11-2.31,11.7,11.7,0,0,1,.3,2.3A11.09,11.09,0,0,1,220.46,174.37Z"/><path class="cls-4" d="M222.52,174.37a19.2,19.2,0,0,1-.56-4.77,18.09,18.09,0,0,1,.32,2.38A18,18,0,0,1,222.52,174.37Z"/><path class="cls-4" d="M224,174.47a11.84,11.84,0,0,1-.23-2.41,11.64,11.64,0,0,1,.07-2.41,18.72,18.72,0,0,1,.12,2.41A20.63,20.63,0,0,1,224,174.47Z"/><path class="cls-4" d="M226.53,174.37a14.63,14.63,0,0,1-.18-2.28,14.33,14.33,0,0,1,0-2.29,12.19,12.19,0,0,1,.18,2.28A14.39,14.39,0,0,1,226.53,174.37Z"/><path class="cls-4" d="M228.4,174.47a14.86,14.86,0,0,1-.08-2.36,13.27,13.27,0,0,1,.12-2.36,14.77,14.77,0,0,1,.08,2.36A14.62,14.62,0,0,1,228.4,174.47Z"/><path class="cls-4" d="M230.15,174.22a15.75,15.75,0,0,1,.15-2.47,16.3,16.3,0,0,1,.33-2.45,16.43,16.43,0,0,1-.14,2.47A14.44,14.44,0,0,1,230.15,174.22Z"/><path class="cls-4" d="M232.41,174a8.54,8.54,0,0,1,.28-2.1,8.3,8.3,0,0,1,.62-2,16.43,16.43,0,0,1-.43,2.06A15.4,15.4,0,0,1,232.41,174Z"/><path class="cls-2" d="M230.81,119.75s0,0,0,.09l-.07.27c-.08.25-.19.58-.32,1s-.31,1-.49,1.61-.4,1.34-.6,2.14-.44,1.68-.64,2.62-.43,2-.65,3c-.39,2.14-.76,4.51-1,7s-.36,4.9-.39,7.07c0,1.09,0,2.13,0,3.1s.07,1.87.12,2.69.11,1.57.16,2.22.11,1.22.16,1.68.08.8.11,1l0,.28q0,.09,0,.09a.66.66,0,0,1,0-.09l0-.27c0-.26-.08-.61-.15-1.06s-.13-1-.19-1.67-.15-1.39-.19-2.22-.12-1.72-.14-2.7-.05-2-.05-3.1c0-2.18.13-4.58.37-7.09s.63-4.89,1-7c.22-1.07.42-2.09.66-3s.45-1.83.67-2.62.44-1.51.63-2.14.36-1.16.52-1.6.26-.76.35-1,.07-.19.09-.26Z"/><path class="cls-2" d="M227.81,131.39a6.15,6.15,0,0,1,2.59-3.26,1.47,1.47,0,0,1,1.37-.25c.57.28.62,1.09.45,1.71a4.52,4.52,0,0,1-1.88,2.57,3.82,3.82,0,0,1-2.82.71"/><path class="cls-2" d="M226.81,139.25a10.33,10.33,0,0,1,3.06-4.93,2,2,0,0,1,.7-.37.78.78,0,0,1,.75.16,1.14,1.14,0,0,1,.16,1.07,6.53,6.53,0,0,1-4.85,4.89"/><path class="cls-2" d="M226.53,146.17a9.49,9.49,0,0,1,3.09-3.89,1.49,1.49,0,0,1,1.08-.39c.59.11.85.83.8,1.42a4.58,4.58,0,0,1-2,3,12.37,12.37,0,0,1-2.87,1.47"/><path class="cls-2" d="M226.68,151.14a9.14,9.14,0,0,1,2.64-3,1.83,1.83,0,0,1,.79-.36.8.8,0,0,1,.77.3c.27.38,0,.91-.27,1.28a7.51,7.51,0,0,1-3.76,2.76"/><path class="cls-2" d="M226.55,149.12a29,29,0,0,0-3.76-3.83c-.22-.18-.49-.37-.75-.29a.57.57,0,0,0-.35.51,1.52,1.52,0,0,0,.14.63,7.33,7.33,0,0,0,4.85,4.08"/><path class="cls-2" d="M226.67,142.65l-3-3.61a3.61,3.61,0,0,0-1-.91,1.21,1.21,0,0,0-1.26,0,1.19,1.19,0,0,0-.4,1.19,3,3,0,0,0,.58,1.18,8.54,8.54,0,0,0,2.15,2.29,3.62,3.62,0,0,0,2.7.84"/><path class="cls-2" d="M227.08,135.36a10.39,10.39,0,0,0-3-4.47,1.86,1.86,0,0,0-.78-.45,1.32,1.32,0,0,0-1.36.95,2.5,2.5,0,0,0,.27,2,5.16,5.16,0,0,0,1.4,1.47,11.65,11.65,0,0,0,3.29,1.78"/><path class="cls-2" d="M228.27,128.87a12.19,12.19,0,0,0-2.64-5.53c-.27-.35-.64-.73-1.08-.66a.84.84,0,0,0-.61.53,2,2,0,0,0-.12.83,6.46,6.46,0,0,0,4.19,5.77"/><path class="cls-2" d="M229.09,125.55a17.48,17.48,0,0,1-.1-3.23,5.74,5.74,0,0,1,1.07-3,2.49,2.49,0,0,1,1.07-.86,1.38,1.38,0,0,1,1.32.17,1.43,1.43,0,0,1,.45,1.16,3.56,3.56,0,0,1-.33,1.24c-.79,1.9-2.1,4-3.48,4.53"/><path class="cls-3" d="M216.21,128s0,.09,0,.26,0,.45,0,.76,0,.74,0,1.2,0,1,.06,1.59c.05,1.18.16,2.57.34,4.12s.46,3.23.82,5,.81,3.41,1.26,4.9.91,2.82,1.34,3.91c.2.56.41,1,.58,1.48s.33.81.47,1.11.22.52.29.7l.1.24s0-.07-.13-.23l-.33-.68c-.15-.3-.32-.66-.5-1.1s-.4-.91-.61-1.47c-.44-1.09-.92-2.41-1.39-3.9s-.9-3.15-1.27-4.92-.62-3.46-.81-5-.27-3-.3-4.13c0-.59,0-1.13,0-1.6s0-.87,0-1.2,0-.56,0-.76A.9.9,0,0,1,216.21,128Z"/><path class="cls-3" d="M216.67,136.61a4.45,4.45,0,0,1,1.06-2.78,1,1,0,0,1,.87-.46c.46.06.67.61.68,1.07a3.24,3.24,0,0,1-.73,2.15,2.7,2.7,0,0,1-1.77,1.09"/><path class="cls-3" d="M217.68,142.18a7.38,7.38,0,0,1,1-4,1.27,1.27,0,0,1,.4-.4.55.55,0,0,1,.54,0,.8.8,0,0,1,.34.69,4.66,4.66,0,0,1-2.25,4.37"/><path class="cls-3" d="M219,147a6.91,6.91,0,0,1,1.27-3.32,1.07,1.07,0,0,1,.66-.49c.42,0,.76.38.85.79a3.28,3.28,0,0,1-.73,2.45,9,9,0,0,1-1.63,1.62"/><path class="cls-3" d="M220.15,150.3a6.74,6.74,0,0,1,1.15-2.61,1.39,1.39,0,0,1,.46-.41.57.57,0,0,1,.59,0c.27.2.21.62.09.93a5.35,5.35,0,0,1-2,2.69"/><path class="cls-3" d="M219.63,149a21.56,21.56,0,0,0-3.39-1.8.64.64,0,0,0-.57,0,.39.39,0,0,0-.13.42,1.07,1.07,0,0,0,.23.4,5.2,5.2,0,0,0,4.18,1.73"/><path class="cls-3" d="M218.32,144.52l-2.79-1.82a2.57,2.57,0,0,0-.85-.41.9.9,0,0,0-.87.26.86.86,0,0,0,0,.9,2.08,2.08,0,0,0,.64.68,6.33,6.33,0,0,0,2,1.1,2.57,2.57,0,0,0,2,0"/><path class="cls-3" d="M217,139.47a7.46,7.46,0,0,0-3-2.4,1.17,1.17,0,0,0-.63-.14.93.93,0,0,0-.71.94,1.73,1.73,0,0,0,.6,1.28,4,4,0,0,0,1.26.7,8.69,8.69,0,0,0,2.63.5"/><path class="cls-3" d="M216.43,134.79a8.59,8.59,0,0,0-3-3.19.92.92,0,0,0-.88-.22.6.6,0,0,0-.3.49,1.38,1.38,0,0,0,.1.6,4.61,4.61,0,0,0,4.09,3"/><path class="cls-3" d="M216.28,132.36a13.14,13.14,0,0,1-.77-2.18,4.11,4.11,0,0,1,.09-2.28,1.82,1.82,0,0,1,.54-.82,1,1,0,0,1,.94-.16,1.08,1.08,0,0,1,.56.69,2.84,2.84,0,0,1,0,.92c-.13,1.46-.58,3.17-1.4,3.83"/><path class="cls-2" d="M237.22,127.86a1.33,1.33,0,0,1,0,.26c0,.19,0,.45,0,.76s0,.73,0,1.2,0,1,0,1.59c0,1.18-.14,2.59-.31,4.14s-.44,3.25-.8,5-.82,3.42-1.28,4.91-.94,2.82-1.38,3.91c-.21.55-.43,1-.62,1.47s-.35.8-.49,1.1l-.33.68a1.41,1.41,0,0,1-.13.23,1.53,1.53,0,0,1,.09-.25c.08-.17.18-.41.3-.7s.29-.67.46-1.1.39-.92.59-1.48c.42-1.1.88-2.42,1.34-3.91s.88-3.14,1.26-4.9.62-3.45.81-5,.3-2.95.35-4.12c0-.59,0-1.12.06-1.59s0-.87,0-1.2,0-.56,0-.76A1.33,1.33,0,0,1,237.22,127.86Z"/><path class="cls-2" d="M236.76,136.43a4.45,4.45,0,0,0-1.06-2.78,1.11,1.11,0,0,0-.88-.47c-.45.07-.66.62-.68,1.08a3.3,3.3,0,0,0,.73,2.15,2.8,2.8,0,0,0,1.77,1.09"/><path class="cls-2" d="M235.75,142a7.38,7.38,0,0,0-1-4,1.39,1.39,0,0,0-.39-.41.61.61,0,0,0-.54,0,.82.82,0,0,0-.35.7,4.69,4.69,0,0,0,2.25,4.37"/><path class="cls-2" d="M234.45,146.77a6.81,6.81,0,0,0-1.27-3.32,1,1,0,0,0-.65-.49c-.42-.06-.76.37-.85.79a3.24,3.24,0,0,0,.73,2.45,9,9,0,0,0,1.63,1.62"/><path class="cls-2" d="M233.27,150.12a6.51,6.51,0,0,0-1.14-2.61,1.5,1.5,0,0,0-.46-.41.61.61,0,0,0-.6,0c-.26.21-.2.62-.09.94a5.36,5.36,0,0,0,2,2.68"/><path class="cls-2" d="M233.8,148.77a21.56,21.56,0,0,1,3.39-1.8.58.58,0,0,1,.57,0,.41.41,0,0,1,.13.42,1.1,1.1,0,0,1-.24.4,5.22,5.22,0,0,1-4.18,1.73"/><path class="cls-2" d="M235.11,144.34l2.79-1.82a2.57,2.57,0,0,1,.85-.41.77.77,0,0,1,.88,1.16,2.22,2.22,0,0,1-.65.68,6.19,6.19,0,0,1-2,1.09,2.57,2.57,0,0,1-2,0"/><path class="cls-2" d="M236.4,139.29a7.31,7.31,0,0,1,3-2.4,1.13,1.13,0,0,1,.62-.14.93.93,0,0,1,.72.94,1.74,1.74,0,0,1-.6,1.27,3.59,3.59,0,0,1-1.27.7,8.4,8.4,0,0,1-2.62.51"/><path class="cls-2" d="M237,134.61a8.67,8.67,0,0,1,3-3.19.9.9,0,0,1,.88-.22.61.61,0,0,1,.31.49,1.5,1.5,0,0,1-.1.59,4.61,4.61,0,0,1-4.1,3"/><path class="cls-2" d="M237.14,132.18a12.29,12.29,0,0,0,.77-2.18,4.1,4.1,0,0,0-.08-2.28,1.78,1.78,0,0,0-.55-.82,1,1,0,0,0-.93-.16,1,1,0,0,0-.56.69,2.58,2.58,0,0,0,0,.92c.13,1.46.57,3.17,1.39,3.83"/><path class="cls-2" d="M212.65,153.12v3.52A1.38,1.38,0,0,0,214,158h24.07a1.38,1.38,0,0,0,1.38-1.38v-3.52Z"/><polygon class="cls-3" points="214.74 158.02 214.94 159.14 237.15 160.73 237.71 158.02 214.74 158.02"/><path class="cls-1" d="M33.24,122A11.27,11.27,0,0,1,36,120.79l.56-2.71,4.59-.08.66,2.69a11.16,11.16,0,0,1,2.78,1.09l2.31-1.52,3.3,3.19-1.44,2.36a11,11,0,0,1,1.2,2.75l2.71.56.08,4.58-2.69.66a11,11,0,0,1-1.1,2.78l1.52,2.32-3.18,3.3-2.37-1.44a11.05,11.05,0,0,1-2.74,1.19l-.57,2.72-4.58.08-.66-2.69a11.43,11.43,0,0,1-2.78-1.1L31.26,143,28,139.86l1.43-2.37a11.44,11.44,0,0,1-1.19-2.74l-2.71-.57-.08-4.58,2.69-.66a11,11,0,0,1,1.09-2.78l-1.52-2.32,3.19-3.3L33.24,122Zm2.44,6.11a4.92,4.92,0,1,0,7-.13A4.91,4.91,0,0,0,35.68,128.09Z"/><path class="cls-5" d="M239.07,175.53c0,.05-50.85.09-113.55.09S12,175.58,12,175.53s50.83-.09,113.56-.09S239.07,175.48,239.07,175.53Z"/><path class="cls-5" d="M190.43,139a1,1,0,0,0,0,1.45,1,1,0,0,0,1.46-.06,1,1,0,1,0-1.51-1.39Z"/><path class="cls-5" d="M180.21,136.74c0-.05,2.37.54,5.27,1.31s5.25,1.44,5.24,1.48-2.38-.54-5.28-1.31S180.19,136.79,180.21,136.74Z"/><path class="cls-5" d="M165.43,155.61a1,1,0,1,0,.89,1.14A1,1,0,0,0,165.43,155.61Z"/><path class="cls-5" d="M160.25,143.49s1.17,2.81,2.52,6.31,2.4,6.36,2.36,6.38-1.18-2.81-2.53-6.31S160.2,143.5,160.25,143.49Z"/><path class="cls-5" d="M183.77,107.11a1,1,0,1,0,1-1A1,1,0,0,0,183.77,107.11Z"/><path class="cls-5" d="M174.77,112.43s2.11-1.22,4.76-2.62,4.82-2.52,4.84-2.48-2.11,1.22-4.76,2.63S174.79,112.48,174.77,112.43Z"/><path class="cls-5" d="M162,88.77a1,1,0,1,0-.07-1.45A1,1,0,0,0,162,88.77Z"/><path class="cls-5" d="M159.85,99s.53-2.38,1.27-5.29,1.39-5.25,1.44-5.24-.52,2.38-1.27,5.29S159.9,99,159.85,99Z"/><path class="cls-5" d="M136.22,92.45a1,1,0,1,0-.38-2,1,1,0,1,0,.38,2Z"/><path class="cls-5" d="M143.15,100.29s-1.59-1.84-3.48-4.18-3.37-4.27-3.33-4.3,1.59,1.85,3.47,4.19S143.19,100.26,143.15,100.29Z"/><circle class="cls-6" cx="171.59" cy="176.53" r="17.09"/><path class="cls-5" d="M154.5,176.53s0-.1,0-.28l0-.81,0-.6c0-.22.06-.46.09-.72l.13-.84a2.39,2.39,0,0,1,.09-.45l.12-.48a16,16,0,0,1,1.88-4.57,16.79,16.79,0,0,1,4.33-4.89l.74-.55.81-.5c.28-.16.54-.35.83-.49l.89-.43.46-.21.47-.18,1-.35c.32-.11.67-.18,1-.27a8.74,8.74,0,0,1,1-.24,16.78,16.78,0,0,1,2.16-.26c.37,0,.75,0,1.12,0l1.14,0c.19,0,.38,0,.57,0l.58.09c.38.06.77.1,1.15.18a18.7,18.7,0,0,1,2.29.67l.57.21.29.1.27.14,1.11.53c.37.2.71.43,1.07.64.18.11.37.21.53.33l.51.38a19,19,0,0,1,2,1.66l.87,1,.22.24.2.26.4.52.39.53.35.57.34.57.18.28.14.3.59,1.21c.15.43.31.85.46,1.28a17.84,17.84,0,0,1,.89,5.42,18.25,18.25,0,0,1-.88,5.42c-.16.42-.32.85-.47,1.27s-.39.81-.59,1.21l-.14.3-.18.29-.34.57-.35.56-.39.53-.4.53-.19.26-.22.24-.88,1a17.74,17.74,0,0,1-2,1.65l-.5.38a6.1,6.1,0,0,1-.54.34c-.35.21-.7.44-1.07.64l-1.11.53-.27.13-.29.11-.57.21a17,17,0,0,1-2.29.66c-.38.08-.77.13-1.15.19l-.58.09c-.19,0-.38,0-.57,0l-1.14.06c-.37,0-.75,0-1.12-.05a15.49,15.49,0,0,1-2.17-.25,9.05,9.05,0,0,1-1-.24c-.34-.09-.69-.16-1-.27l-1-.36-.47-.17-.46-.22-.89-.43a8.61,8.61,0,0,1-.83-.49c-.27-.16-.55-.32-.81-.49l-.74-.56a17.09,17.09,0,0,1-4.34-4.88,16.21,16.21,0,0,1-1.87-4.57l-.12-.48a2.66,2.66,0,0,1-.09-.46l-.13-.83c0-.26-.08-.5-.09-.72l0-.6,0-.81c0-.19,0-.28,0-.28s0,.09,0,.27l0,.82,0,.59c0,.22.07.46.11.72l.13.83a2.39,2.39,0,0,0,.09.45l.13.48a16.49,16.49,0,0,0,1.89,4.54,16.92,16.92,0,0,0,4.33,4.83l.73.55c.26.17.54.33.81.49a7.48,7.48,0,0,0,.83.48l.88.43.45.21.47.17,1,.35c.32.11.66.18,1,.27a7.29,7.29,0,0,0,1,.23,15.21,15.21,0,0,0,2.15.25c.37,0,.74,0,1.11,0l1.13-.06a5.46,5.46,0,0,0,.57,0l.56-.08c.38-.07.77-.11,1.15-.19a17.26,17.26,0,0,0,2.27-.67l.56-.2.28-.11.28-.13,1.1-.53c.36-.2.7-.42,1.06-.63a5.8,5.8,0,0,0,.52-.34l.5-.37a19.92,19.92,0,0,0,1.93-1.64l.87-1,.21-.24.2-.26.39-.52.39-.53.34-.55.34-.57.18-.28.14-.3.58-1.2.46-1.26a16.79,16.79,0,0,0,0-10.73l-.46-1.26-.58-1.2a2.64,2.64,0,0,0-.15-.29l-.17-.29-.34-.56-.34-.56-.39-.52-.39-.52-.2-.26-.22-.24c-.28-.32-.57-.64-.86-1a17.45,17.45,0,0,0-1.93-1.64l-.5-.38c-.17-.12-.35-.22-.53-.33-.35-.21-.7-.44-1-.63l-1.1-.53-.28-.13-.28-.11-.56-.21a17.2,17.2,0,0,0-2.27-.66c-.38-.08-.77-.13-1.15-.19l-.56-.09c-.19,0-.38,0-.57,0l-1.13-.06c-.37,0-.74,0-1.11,0a17,17,0,0,0-2.15.25,9.05,9.05,0,0,0-1,.24c-.33.09-.68.16-1,.26l-1,.35-.47.18-.45.21-.88.42c-.3.14-.56.33-.83.48s-.55.32-.8.49l-.74.55a17,17,0,0,0-4.33,4.84,16.32,16.32,0,0,0-1.89,4.53l-.13.48a2.66,2.66,0,0,0-.09.46c0,.29-.09.57-.13.83s-.09.49-.11.71l0,.6,0,.81C154.51,176.43,154.5,176.53,154.5,176.53Z"/><rect class="cls-2" x="163.6" y="165.67" width="15.98" height="21.21"/><path class="cls-5" d="M163.6,186.88v-1.53l0-4.34c0-3.74,0-9,0-15.34v-.08h16.15v.09c0,7.89,0,15.21,0,21.21V187h-.08l-11.64,0-3.21,0h0l3.24,0,11.59,0-.07.08c0-6,0-13.32,0-21.21l.09.08h-16l.08-.07c0,6.27,0,11.56,0,15.29l0,4.35v1.46A.5.5,0,0,1,163.6,186.88Z"/><path class="cls-6" d="M178.27,185.3H165.11V166.86h13.16ZM165.45,185h12.48V167.2H165.45Z"/><path class="cls-7" d="M178.7,168.63l-3.24,6-11.63,9.2a2.73,2.73,0,0,1-3.9-.55h0a2.72,2.72,0,0,1,.53-3.73L172,170.49Z"/><g class="cls-8"><path class="cls-6" d="M172,170.49l6.69-1.86-3.22,6a1.13,1.13,0,0,1-1.21-1.4,1.18,1.18,0,0,1-1.36-.5,1,1,0,0,1-.06-1.33s-.69.28-.87-.12A.9.9,0,0,1,172,170.49Z"/></g><path class="cls-7" d="M177.39,171.05s-1.29.18-1.43-1.66l2.74-.76Z"/><path class="cls-5" d="M160.9,179.2a22.62,22.62,0,0,1,1.69,2.15,20.4,20.4,0,0,1,1.54,2.25,20.6,20.6,0,0,1-1.68-2.15A23.49,23.49,0,0,1,160.9,179.2Z"/><path class="cls-5" d="M174.32,173.15s-2.44,2.07-5.51,4.53-5.58,4.42-5.62,4.38,2.44-2.06,5.51-4.52S174.29,173.12,174.32,173.15Z"/><path class="cls-5" d="M161.6,180.24s2.46-2.06,5.57-4.51,5.65-4.4,5.68-4.36-2.47,2-5.57,4.5S161.63,180.28,161.6,180.24Z"/><circle class="cls-6" cx="202.9" cy="96.87" r="17.09"/><path class="cls-5" d="M185.8,96.87s0-.1,0-.28l0-.81,0-.6c0-.22.06-.46.1-.72l.12-.84a3.58,3.58,0,0,1,.09-.45l.13-.48a16.26,16.26,0,0,1,1.87-4.58,17.09,17.09,0,0,1,4.34-4.88l.74-.55.8-.5c.28-.16.54-.35.84-.49l.89-.43.45-.21.47-.18,1-.35c.33-.11.67-.18,1-.28a8.73,8.73,0,0,1,1-.23,15.32,15.32,0,0,1,2.17-.26c.37,0,.74,0,1.12,0l1.13.05a5.65,5.65,0,0,1,.58,0l.57.09c.38.06.77.1,1.15.18a18.7,18.7,0,0,1,2.29.67l.57.21.29.1.28.14,1.11.53c.36.2.71.42,1.07.64.17.11.36.21.53.33l.5.38A20.26,20.26,0,0,1,215,84.72l.88,1,.22.24.19.26.4.52.39.53.35.57.35.57.17.28.15.3c.19.4.38.81.58,1.21s.31.85.47,1.27a17.16,17.16,0,0,1,0,10.85l-.47,1.27-.58,1.21-.15.3-.17.29-.35.57-.35.56-.39.53-.39.53-.2.26-.22.24-.88,1a18.92,18.92,0,0,1-1.95,1.65l-.5.38c-.17.13-.36.22-.53.34-.36.21-.71.44-1.07.63l-1.11.54-.28.13-.29.11-.57.21a17,17,0,0,1-2.29.66c-.38.08-.77.13-1.15.19l-.57.09-.58,0L203,114c-.38,0-.75,0-1.12,0a15.32,15.32,0,0,1-2.17-.25,8.74,8.74,0,0,1-1-.24c-.34-.09-.68-.16-1-.27l-1-.36-.47-.17-.45-.22-.89-.43c-.3-.14-.56-.33-.84-.49s-.54-.32-.8-.49l-.74-.56a17.09,17.09,0,0,1-4.34-4.88,16.21,16.21,0,0,1-1.87-4.57l-.13-.48a4.14,4.14,0,0,1-.09-.46l-.12-.84c0-.26-.08-.49-.1-.71l0-.6,0-.82c0-.18,0-.27,0-.27a1.87,1.87,0,0,1,0,.27l0,.82,0,.59c0,.22.07.46.11.72l.13.83a2.42,2.42,0,0,0,.1.45l.12.48a16.49,16.49,0,0,0,1.89,4.54,16.92,16.92,0,0,0,4.33,4.83l.74.55c.26.17.53.33.8.49a7.48,7.48,0,0,0,.83.48l.88.43.45.21.47.17,1,.35c.33.11.67.18,1,.27a7.29,7.29,0,0,0,1,.23,15.35,15.35,0,0,0,2.16.25c.36,0,.73,0,1.1,0l1.13-.06c.19,0,.38,0,.57,0l.57-.09c.38-.06.76-.1,1.14-.18a18.93,18.93,0,0,0,2.27-.67l.56-.2.29-.11.27-.13,1.1-.53c.36-.2.7-.42,1.06-.63.17-.12.36-.21.52-.34l.5-.37a18.79,18.79,0,0,0,1.93-1.64l.87-1,.22-.24.19-.26.39-.52.39-.53.34-.56.35-.56.17-.28.14-.3.58-1.2.46-1.26a16.79,16.79,0,0,0,0-10.73l-.46-1.26L218,89l-.14-.3-.18-.28-.34-.56-.34-.56-.39-.52-.39-.53L216,86l-.21-.24-.87-1A18.5,18.5,0,0,0,213,83.21l-.5-.38a5.69,5.69,0,0,0-.52-.33c-.36-.21-.7-.44-1.06-.63l-1.1-.53-.27-.14-.29-.1-.56-.21a17.2,17.2,0,0,0-2.27-.66c-.38-.08-.76-.13-1.14-.19l-.57-.09-.57,0L203,79.86c-.38,0-.75,0-1.11,0a17,17,0,0,0-2.16.25c-.35,0-.69.16-1,.23s-.67.17-1,.27l-1,.35-.47.17-.45.22-.88.42c-.3.14-.56.33-.83.48s-.54.32-.8.49l-.74.55a17,17,0,0,0-4.33,4.83,16.49,16.49,0,0,0-1.89,4.54l-.12.48a2.62,2.62,0,0,0-.1.45l-.13.84c0,.26-.09.49-.11.71l0,.6,0,.81A2.21,2.21,0,0,1,185.8,96.87Z"/><path class="cls-5" d="M212.22,105.51l-.47-4.44a2.16,2.16,0,0,0-1.22-1.73l-4.26-2-2.08,6-.63-2.25.69-.82,0-1.38-.66-.35h-.48v7Z"/><path class="cls-5" d="M194.05,105.51l.47-4.44a2.16,2.16,0,0,1,1.22-1.73l4.26-2,2.08,6,.63-2.25-.69-.82,0-1.38.66-.35h.48v7Z"/><path class="cls-3" d="M205.72,87.19l1-.62L208.12,88l-.66,1a4.78,4.78,0,0,1,.48,1.2l1.16.29,0,2-1.18.24a5,5,0,0,1-.51,1.19l.62,1-1.43,1.37-1-.65a5,5,0,0,1-1.21.47l-.28,1.17-2,0-.24-1.17a5,5,0,0,1-1.19-.52l-1,.62-1.38-1.42.66-1a4.94,4.94,0,0,1-.48-1.2l-1.16-.29,0-2,1.18-.25a4.74,4.74,0,0,1,.51-1.18l-.62-1,1.43-1.38,1,.66a4.82,4.82,0,0,1,1.21-.47l.28-1.17,2,0,.25,1.17a5,5,0,0,1,1.19.52Zm-4.07,2.59a2.13,2.13,0,1,0,3,0A2.12,2.12,0,0,0,201.65,89.78Z"/><path class="cls-9" d="M205.72,87.19l1-.62L208.12,88l-.66,1a4.78,4.78,0,0,1,.48,1.2l1.16.29,0,2-1.18.24a5,5,0,0,1-.51,1.19l.62,1-1.43,1.37-1-.65a5,5,0,0,1-1.21.47l-.28,1.17-2,0-.24-1.17a5,5,0,0,1-1.19-.52l-1,.62-1.38-1.42.66-1a4.94,4.94,0,0,1-.48-1.2l-1.16-.29,0-2,1.18-.25a4.74,4.74,0,0,1,.51-1.18l-.62-1,1.43-1.38,1,.66a4.82,4.82,0,0,1,1.21-.47l.28-1.17,2,0,.25,1.17a5,5,0,0,1,1.19.52Zm-4.07,2.59a2.13,2.13,0,1,0,3,0A2.12,2.12,0,0,0,201.65,89.78Z"/><path class="cls-5" d="M201.65,89.78s0,0,.09-.1a1.52,1.52,0,0,1,.31-.24,2.11,2.11,0,0,1,1.41-.29,2.16,2.16,0,0,1,1.68,1.26,2.11,2.11,0,0,1,.17,1.27,2.2,2.2,0,0,1-.64,1.22,2.16,2.16,0,0,1-1.25.6,2.08,2.08,0,0,1-1.26-.21A2.18,2.18,0,0,1,201,91.57a2.14,2.14,0,0,1,.34-1.4,2.42,2.42,0,0,1,.25-.3c.07-.07.1-.1.11-.09s-.13.14-.3.43a2.09,2.09,0,0,0,.88,2.94,2,2,0,0,0,1.17.18,2,2,0,0,0,1.74-1.68,2,2,0,0,0-.15-1.17,2.06,2.06,0,0,0-1.55-1.21,2.12,2.12,0,0,0-1.35.22C201.79,89.66,201.66,89.79,201.65,89.78Z"/><path class="cls-5" d="M205.72,87.19l-.08,0-.22-.11a5.43,5.43,0,0,0-.9-.34h0v0c-.07-.33-.16-.72-.25-1.17l0,0-2,0,0,0-.28,1.16v0h0a5,5,0,0,0-1.19.48l0,0,0,0-1-.65h.09l-1.43,1.39v-.09c.2.31.41.66.63,1l0,0,0,0a4.6,4.6,0,0,0-.51,1.17v0h-.05l-1.17.25.06-.08c0,.62,0,1.3,0,2l-.06-.08,1.16.29h0l0,0a4.65,4.65,0,0,0,.46,1.18l0,.05,0,0-.66,1v-.11l1.38,1.43h-.11l1-.62h.12l0,0,.07,0,.14.07.29.14a5.89,5.89,0,0,0,.59.21l0,0,0,0,.24,1.17-.08-.07,2,0-.09.07c.1-.4.2-.79.29-1.17v0h.05a4.54,4.54,0,0,0,1.19-.47l0,0,0,0,1,.66h-.1l1.43-1.38V95l-.62-1,0,0,0,0a4.47,4.47,0,0,0,.51-1.17v0h0l1.17-.24-.05.07c0-.71,0-1.36,0-2l.05.06-1.17-.29h0v0a4.92,4.92,0,0,0-.46-1.19l0,0,0,0,.66-1v0l-1.37-1.43h0l-.78.46-.19.11-.06,0,.06,0L206,87l.76-.48h0l0,0L208.15,88l0,0,0,0-.66,1V89a5.26,5.26,0,0,1,.48,1.22l0,0,1.17.29h0v0c0,.62,0,1.28,0,2v.06h0l-1.17.25.05-.06a4.76,4.76,0,0,1-.52,1.21v-.08l.62,1,0,0,0,0-1.42,1.38,0,0-.06,0-1-.65h.09a4.7,4.7,0,0,1-1.23.48l.07-.06-.29,1.17v.06h-.07l-2,0H202v-.07l-.25-1.18.07.07a4.57,4.57,0,0,1-.62-.22,2.09,2.09,0,0,1-.3-.14l-.15-.08-.07,0,0,0h.06l-1,.62-.06,0-.05-.05-1.37-1.42,0,0,0-.06.65-1v.09a5,5,0,0,1-.48-1.22l.06.06-1.16-.29h-.07v-.07c0-.69,0-1.36,0-2v-.07h.07l1.17-.24-.06.05a5.25,5.25,0,0,1,.53-1.2v.08l-.62-1,0,0,0,0,1.43-1.37,0,0,0,0,1,.66h-.07a4.76,4.76,0,0,1,1.22-.48l0,0,.29-1.16v0h0l2,0h0v0l.24,1.18,0,0a5.32,5.32,0,0,1,.89.37l.22.13Z"/><polyline class="cls-7" points="204.22 98.88 203.56 98.53 202.71 98.53 202.05 98.88 202.02 100.26 202.71 101.08 202.08 103.33 203.14 104.83 204.2 103.31 203.56 101.08 204.25 100.26 204.25 98.89"/><circle class="cls-6" cx="209.93" cy="148.93" r="17.09"/><path class="cls-5" d="M192.84,148.93v-.28l0-.81,0-.6c0-.22.06-.46.1-.72l.12-.84a2.42,2.42,0,0,1,.1-.45l.12-.49a16.33,16.33,0,0,1,1.87-4.57,17.09,17.09,0,0,1,4.34-4.88l.74-.55c.26-.18.53-.33.8-.5s.54-.35.84-.49l.89-.43.45-.21.48-.18,1-.35c.33-.11.67-.18,1-.28a9.18,9.18,0,0,1,1-.23,15.5,15.5,0,0,1,2.17-.26c.37,0,.74-.05,1.12-.05l1.14.06a5.46,5.46,0,0,1,.57,0l.57.08c.38.07.77.11,1.16.19a17.53,17.53,0,0,1,2.29.67l.57.21.28.1.28.14,1.11.53c.36.2.71.42,1.07.64.17.11.36.2.53.33l.51.38a21.55,21.55,0,0,1,2,1.65l.87,1,.22.25.2.26.39.52.4.53.34.57.35.56.17.29.15.3.58,1.21c.16.42.31.85.47,1.27a17,17,0,0,1,0,10.85c-.16.42-.31.85-.47,1.27l-.58,1.21-.15.3-.17.29-.35.56-.34.57-.4.53-.39.52-.2.27-.22.24-.87,1a18.92,18.92,0,0,1-2,1.65l-.51.38c-.17.13-.35.22-.53.34-.36.21-.71.44-1.07.63l-1.11.54-.28.13-.28.11-.57.2a16.5,16.5,0,0,1-2.29.67c-.39.08-.78.13-1.16.19l-.57.09c-.19,0-.39,0-.58,0l-1.13.06c-.38,0-.75,0-1.12-.05a15.49,15.49,0,0,1-2.17-.25,8.74,8.74,0,0,1-1-.24c-.34-.09-.68-.17-1-.28l-1-.35-.48-.17-.45-.22-.89-.43c-.3-.14-.56-.33-.84-.49s-.54-.32-.8-.49l-.74-.56a17.09,17.09,0,0,1-4.34-4.88,16.21,16.21,0,0,1-1.87-4.57l-.12-.48a2.72,2.72,0,0,1-.1-.46l-.12-.84c0-.26-.08-.49-.1-.71l0-.6,0-.82v-.27s0,.09,0,.27l0,.81,0,.6c0,.22.07.46.11.72l.13.83a3.63,3.63,0,0,0,.1.45l.12.48a16.49,16.49,0,0,0,1.89,4.54,17.07,17.07,0,0,0,4.33,4.83l.74.55c.26.17.53.32.8.49s.54.35.83.48l.88.43.45.21.48.17.95.35c.33.11.67.18,1,.27a7,7,0,0,0,1,.23,15,15,0,0,0,2.15.25c.36,0,.73.05,1.11.05l1.12-.06c.19,0,.38,0,.57,0l.57-.09c.38-.06.76-.1,1.14-.18a18.93,18.93,0,0,0,2.27-.67l.57-.2.28-.11.27-.13,1.1-.53c.36-.2.7-.42,1.06-.64.17-.11.36-.2.53-.33l.5-.37A21.2,21.2,0,0,0,222,161c.28-.32.57-.64.86-.95l.22-.24.19-.26.39-.52.39-.53.35-.56.34-.56.17-.28.15-.3.57-1.2.46-1.26a16.79,16.79,0,0,0,0-10.73c-.15-.42-.3-.84-.46-1.26s-.38-.8-.58-1.2c0-.1-.09-.2-.14-.3l-.17-.28-.34-.56-.35-.56-.39-.53-.39-.52-.19-.25-.22-.24-.86-1a21.2,21.2,0,0,0-1.93-1.64l-.5-.37c-.17-.13-.36-.22-.53-.33-.36-.21-.7-.44-1.06-.64l-1.1-.53-.27-.13-.28-.1-.57-.21a17.2,17.2,0,0,0-2.27-.66c-.38-.08-.76-.13-1.14-.19l-.57-.09-.57,0-1.12-.06c-.37,0-.74,0-1.11,0a15,15,0,0,0-2.15.25c-.36,0-.69.16-1,.23s-.68.16-1,.27l-.95.35-.48.17-.44.22-.89.42c-.29.13-.55.32-.83.48s-.54.32-.8.49l-.73.55a16.9,16.9,0,0,0-4.33,4.83,16.25,16.25,0,0,0-1.9,4.54l-.12.48a3.63,3.63,0,0,0-.1.45l-.13.84c0,.25-.08.49-.11.71l0,.6,0,.81C192.85,148.83,192.84,148.93,192.84,148.93Z"/><path class="cls-5" d="M224.57,118.76a.75.75,0,0,1,1-.37.78.78,0,0,1,.37.37l1.16.09-1.18,2.33-.74-1.36a.86.86,0,0,1-.23-.06A.75.75,0,0,1,224.57,118.76Z"/><path class="cls-5" d="M231.31,115.39l-.76-.32,1.84-.47a.73.73,0,0,1,.53-.34.76.76,0,0,1,.84.65.75.75,0,0,1-.64.84.73.73,0,0,1-.56-.15l-1.75,1.07Z"/><path class="cls-5" d="M213.29,149.18l.1,0,.12,0h.1l.8-2.64,1.81-.68.69,1.77-1.18,1.86.11,0,.13,0h.11l5.67-9h0l9.52-25.09-2-.91-.07.14L216.6,138.23v0Zm3.44-10.27,1.31,2.57-2.26.58Zm.18-.07,4.12,1.87-2.79.72Zm2-4.21,1.18,2.38-2.89.8Zm.18-.09,3.75,1.71-2.55.71Zm1.89-3.77.95,2.27-2.67.93Zm.16-.13,3.32,1.51-2.34.82Zm1.92-3.76.72,2.13-2.43,1.05Zm.18-.13L226,128l-2.08.89Zm1.88-3.72.49,2-2.18,1.18h0Zm2.09-3.89.26,1.8-1.91,1.28Zm.18-.17,1.79.82-1.53,1Zm1.93-2.06-1.66,1.4,1.62-3Zm.21.09,1.23-1-1.18,3.09Zm-.06-2,1.37.62-1.32,1.11Zm-.08,4.26-1.66-.76,1.6-1.34Zm-1.4,4-.31-2.21,1.55-1Zm-.18.14-2.16-1,1.85-1.24Zm-.14.55-1.88,1-.5-2.1Zm-1.27,3.52-.56-2.3,1.8-1Zm-.2,0-2.54-1.16,2-1.09Zm-1.35,4-.82-2.42,2.07-.89Zm-.18.1-3.14-1.43,2.32-1Zm-1.4,4.07-1.07-2.55,2.34-.82Zm-.21,0-3.59-1.64,2.54-.89Zm-1.35,4.06-1.33-2.67,2.62-.72Zm-.18.07-4.19-1.9,2.84-.79Zm-2.11,3.83-1.08-2.1,2.85-.73Zm-.17.12-3.43-1.57,2.32-.6Zm-2.83,2,2.15-.79L217,147.47Zm-1-2.57,0-.12,3.35,1.53-.06.09-2.4.89Zm-.93,3.07.84-2.76.83,2.15Z"/><path class="cls-5" d="M233.21,125.84a1.57,1.57,0,0,0,0-.2v-.58c0-.51,0-1.26,0-2.23,0-1.92,0-4.69,0-8.08v0h0l-3.55-.37h0l-9.22,10.31-13.41,15L203,144.24l-1.11,1.24-.28.32-.1.11.1-.1.29-.32,1.11-1.24,4.08-4.54,13.43-15,9.21-10.31h0l3.54.36,0,0c0,3.39,0,6.16,0,8.08,0,1,0,1.72,0,2.23v.78Z"/><rect class="cls-5" x="232.97" y="122.68" width="0.57" height="1.21" rx="0.28" transform="translate(466.5 246.57) rotate(180)"/><path class="cls-5" d="M232.29,124.08h1.86a.2.2,0,0,0,.2-.2h0a.2.2,0,0,0-.2-.21h-1.86a.21.21,0,0,0-.21.21h0A.21.21,0,0,0,232.29,124.08Z"/><path class="cls-5" d="M233.08,127.4v-.26l.27.12a1.38,1.38,0,0,1,0,.29s0,0,0,0l-.07,0a.53.53,0,0,0-.28.25.32.32,0,0,0,.18.45.34.34,0,0,0,.42-.22c0-.05,0-.11.06-.12s.13.12.13.19a.58.58,0,0,1-.55.54.64.64,0,0,1-.31-.07.62.62,0,0,1-.3-.42C232.55,127.72,233.11,127.44,233.08,127.4Z"/><path class="cls-3" d="M232.85,127.27l-1.19-2.85a.4.4,0,0,1,.37-.55h2.37a.4.4,0,0,1,.36.55l-1.19,2.85A.39.39,0,0,1,232.85,127.27Z"/><path class="cls-7" d="M234.28,124.08l.3.3v0l-.1.24-.58-.58Z"/><polygon class="cls-7" points="233.13 124.08 233.51 124.08 234.37 124.93 234.25 125.2 233.13 124.08"/><polygon class="cls-7" points="232.32 125.55 232.04 124.9 233.69 126.55 233.58 126.82 232.32 125.55"/><path class="cls-7" d="M232.59,126.21l.88.88,0,.07a.27.27,0,0,1-.14.14l-.44-.44Z"/><polygon class="cls-7" points="232.37 124.08 232.75 124.08 234.14 125.47 234.03 125.74 232.37 124.08"/><path class="cls-7" d="M231.83,124.3a.15.15,0,0,1,0-.11.26.26,0,0,1,.13-.1l1.92,1.92-.11.27Z"/><path class="cls-5" d="M200.35,145.3h2.58a0,0,0,0,1,0,0v0a1.21,1.21,0,0,1-1.21,1.21h-.17a1.21,1.21,0,0,1-1.21-1.21v0A0,0,0,0,1,200.35,145.3Z" transform="translate(403.29 291.8) rotate(180)"/><path class="cls-5" d="M207.46,146.2h.42v-2.52a1.13,1.13,0,0,0,0-.32l-.22-.66s0,0,0,0l-.25.44.06.21a1,1,0,0,1,.06.34Z"/><path class="cls-7" d="M196.67,151.7h19.09l-.17-.53-.13-.15h3c.15,0,.19-.39.13-.63h0a.3.3,0,0,0,0-.1l-.26-.71a.14.14,0,0,0-.09-.09l-2.81-.55.06-.26a1.39,1.39,0,0,0,0-.5h-1.09a.44.44,0,0,1-.43-.34l-.55-2.6a.44.44,0,0,1,.44-.52h.57l-.16-.48a.42.42,0,0,0-.41-.3h-5.12a.43.43,0,0,0-.43.43v1.77H197.7a.94.94,0,0,0-.69.56A22.39,22.39,0,0,0,196.67,151.7Zm13.65-6.87a.32.32,0,0,1,.24-.11h1.72a.44.44,0,0,1,.42.35l.59,3.07a.39.39,0,0,1-.38.47h-1.26a1.12,1.12,0,0,1-1.11-.88s0-.06,0-.09l-.28-2.56A.33.33,0,0,1,210.32,144.83Z"/><path class="cls-10" d="M205.55,152.94l8.12.11c.05,0,.14-.16.14-.21v-.91a.09.09,0,0,0-.09-.09h-8.17a.09.09,0,0,0-.1.09v.91A.1.1,0,0,0,205.55,152.94Z"/><path class="cls-10" d="M212.91,148.58a.39.39,0,0,0,.38-.47L212.7,145a.43.43,0,0,0-.39-.35H210.6a.35.35,0,0,0-.28.11.33.33,0,0,0-.08.25l.28,2.55s0,.07,0,.1a1.12,1.12,0,0,0,1.11.88Z"/><path class="cls-10" d="M215.48,148.16a1.51,1.51,0,0,0-.07-.37l-1-3.09h-.57a.43.43,0,0,0-.43.51l.55,2.6a.44.44,0,0,0,.43.35Z"/><path class="cls-5" d="M196.85,152.05h19.08c.15,0,.15-.53,0-.53H196.85C196.71,151.52,196.71,152.05,196.85,152.05Z"/><path class="cls-5" d="M208.29,146.24v.43l0,1.17c0,.49,0,1.08.06,1.73l0,.5a1.22,1.22,0,0,0,.11.52.7.7,0,0,0,.44.33,2.09,2.09,0,0,0,.56.06l3.86-.07,1.17,0h-1.17l-3.86.06a1.9,1.9,0,0,1-.54-.07.64.64,0,0,1-.41-.3,1.17,1.17,0,0,1-.11-.49l0-.5c0-.65-.05-1.24-.07-1.74s0-.88-.06-1.16v-.43Z"/><path class="cls-5" d="M213.72,151a26.06,26.06,0,0,0,0-2.5s0,.56,0,1.25S213.71,151,213.72,151Z"/><path class="cls-5" d="M212.73,143.93s0,.06,0,.18,0,.28.08.49c.07.41.18,1,.32,1.6s.28,1.18.39,1.58c.06.2.1.37.14.48l0,.17s0-.06,0-.18l-.12-.48c-.1-.4-.23-1-.37-1.58s-.26-1.19-.34-1.6l-.1-.48C212.74,144,212.73,143.93,212.73,143.93Z"/><path class="cls-5" d="M197.91,146.85s.78,0,1.74,0,1.75,0,1.75,0-.78,0-1.75,0S197.91,146.83,197.91,146.85Z"/><path class="cls-5" d="M197.91,147.2s.78,0,1.74,0,1.75,0,1.75,0-.78,0-1.75,0S197.91,147.18,197.91,147.2Z"/><path class="cls-5" d="M197.91,147.54s.78,0,1.74,0,1.75,0,1.75,0-.78,0-1.75,0S197.91,147.53,197.91,147.54Z"/><path class="cls-5" d="M197.91,147.89s.78,0,1.74,0,1.75,0,1.75,0-.78,0-1.75,0S197.91,147.87,197.91,147.89Z"/><path class="cls-5" d="M197.91,148.24s.78,0,1.74,0,1.75,0,1.75,0-.78,0-1.75,0S197.91,148.22,197.91,148.24Z"/><path class="cls-5" d="M197.91,148.58s.78,0,1.74,0,1.75,0,1.75,0-.78,0-1.75,0S197.91,148.57,197.91,148.58Z"/><path class="cls-5" d="M197.91,148.93s.78,0,1.74,0,1.75,0,1.75,0-.78,0-1.75,0S197.91,148.91,197.91,148.93Z"/><path class="cls-5" d="M217.69,157.16a2.06,2.06,0,0,0,1.92-2,2,2,0,0,0-2-1.93l-16.84-.76a2.26,2.26,0,0,0-2.11,1.18,2.19,2.19,0,0,0-.19,1.56,2.39,2.39,0,0,0,2.79,2C202,157.08,217.69,157.16,217.69,157.16Z"/><path class="cls-10" d="M216.12,155.1a1.57,1.57,0,1,0,1.57-1.58A1.57,1.57,0,0,0,216.12,155.1Z"/><path class="cls-10" d="M198.88,154.78a2,2,0,1,0,2-2A2,2,0,0,0,198.88,154.78Z"/><path class="cls-10" d="M200.69,152.81h0l.13,0,.49,0,1.83.16c1.53.12,3.66.27,6,.37s4.49.15,6,.16h1.83l-1.83,0c-1.54,0-3.68-.07-6-.17s-4.48-.25-6-.36l-1.82-.15-.5,0h-.17Z"/><path class="cls-10" d="M201.33,156.62s3.67,0,8.18,0,8.18,0,8.18,0-3.66,0-8.18,0S201.33,156.6,201.33,156.62Z"/><path class="cls-4" d="M202,156s.05,0,.12-.07a1.46,1.46,0,0,0,.26-.28,1.52,1.52,0,0,0,.25-.51,1.45,1.45,0,0,0,0-.69,1.53,1.53,0,0,0-.29-.63,1.68,1.68,0,0,0-.42-.39,1.47,1.47,0,0,0-.34-.15.5.5,0,0,0-.14,0,1.85,1.85,0,0,1,.46.22,1.75,1.75,0,0,1,.4.38,1.42,1.42,0,0,1,.27.61,1.51,1.51,0,0,1,0,.67,1.79,1.79,0,0,1-.23.5A1.69,1.69,0,0,1,202,156Z"/><path class="cls-6" d="M210.87,146.47a10.49,10.49,0,0,0,.88.67,7.65,7.65,0,0,0,.91.62s-.39-.31-.88-.67S210.88,146.46,210.87,146.47Z"/><path class="cls-6" d="M210.74,146s.33.26.76.57a8.15,8.15,0,0,0,.8.52,8.35,8.35,0,0,0-.77-.57A6.78,6.78,0,0,0,210.74,146Z"/><path class="cls-6" d="M214,146.73a3.32,3.32,0,0,0,.8.56,4.29,4.29,0,0,0-.8-.56Z"/><path class="cls-6" d="M213.79,146.29a3.58,3.58,0,0,0,.44.38,4.06,4.06,0,0,0,.48.33,3.58,3.58,0,0,0-.44-.38A2.08,2.08,0,0,0,213.79,146.29Z"/><path class="cls-4" d="M218,156.43a.5.5,0,0,0,.14,0,1.07,1.07,0,0,0,.34-.17,1.38,1.38,0,0,0,.4-.4,1.41,1.41,0,0,0,.23-.66,1.42,1.42,0,0,0-.14-.69,1.35,1.35,0,0,0-.33-.45,1.41,1.41,0,0,0-.32-.22l-.13-.05a1.76,1.76,0,0,1,.42.3,1.49,1.49,0,0,1,.32.45,1.51,1.51,0,0,1,.12.65,1.36,1.36,0,0,1-.22.64,1.44,1.44,0,0,1-.37.4A1.57,1.57,0,0,1,218,156.43Z"/><path class="cls-6" d="M215.62,150.22s.6,0,1.35,0,1.36,0,1.36,0-.61,0-1.36,0S215.62,150.21,215.62,150.22Z"/><path class="cls-7" d="M227.83,117.1l1-2.19a1.36,1.36,0,0,1,1.8-.66h0a1.36,1.36,0,0,1,.65,1.8l-1,2.19a.08.08,0,0,1-.11,0l-2.3-1.07A.08.08,0,0,1,227.83,117.1Z"/><circle class="cls-6" cx="166.9" cy="68.01" r="17.09"/><path class="cls-5" d="M149.81,68v-.28l0-.81,0-.6c0-.22.07-.46.1-.72l.12-.83a3.78,3.78,0,0,1,.1-.46l.12-.48a16.21,16.21,0,0,1,1.87-4.57,17,17,0,0,1,4.34-4.89l.74-.55.81-.5a7.48,7.48,0,0,1,.83-.48l.89-.43.45-.22.48-.17,1-.36c.33-.11.67-.18,1-.27a9.22,9.22,0,0,1,1-.24,17.15,17.15,0,0,1,2.17-.26c.37,0,.74,0,1.12,0l1.14,0,.57,0,.57.09c.39.06.77.1,1.16.18a19.23,19.23,0,0,1,2.29.67l.57.21.28.11.28.13,1.11.53c.36.2.71.43,1.07.64.18.11.36.21.53.33l.51.38a19,19,0,0,1,2,1.66l.87,1,.22.24.2.26.39.53.4.52.34.57.35.57.17.28c.06.1.1.2.15.3l.58,1.21.47,1.28a16.95,16.95,0,0,1,0,10.84l-.46,1.27c-.2.41-.39.81-.59,1.21l-.15.3-.17.29-.34.57-.35.56-.4.53-.39.53-.2.26-.22.24-.87,1a19,19,0,0,1-2,1.66l-.51.37a4.79,4.79,0,0,1-.53.34c-.36.21-.71.44-1.07.64l-1.11.53-.28.13-.28.11-.57.21a19.23,19.23,0,0,1-2.29.67L169.3,85l-.57.09-.57,0-1.14.06c-.38,0-.75,0-1.12,0a17.15,17.15,0,0,1-2.17-.26,9.22,9.22,0,0,1-1-.24c-.34-.09-.68-.16-1-.27l-1-.36-.48-.17-.45-.22-.89-.43c-.3-.13-.56-.33-.84-.48l-.8-.5-.74-.56a17.09,17.09,0,0,1-4.34-4.88,16.21,16.21,0,0,1-1.87-4.57l-.12-.48a4.24,4.24,0,0,1-.1-.46c0-.3-.08-.57-.12-.83s-.08-.5-.1-.72l0-.6,0-.81V68s0,.09,0,.28l0,.81,0,.6c0,.21.06.45.1.71l.13.83a4.24,4.24,0,0,0,.1.46l.13.47a16.07,16.07,0,0,0,1.89,4.54,16.77,16.77,0,0,0,4.33,4.83l.73.55c.26.17.53.33.8.49s.54.35.83.48l.89.43.45.21.47.17,1,.35c.32.11.66.18,1,.27a8.58,8.58,0,0,0,1,.24,16.63,16.63,0,0,0,2.15.25c.37,0,.74,0,1.11,0l1.13-.06a5.46,5.46,0,0,0,.56,0l.57-.08c.38-.07.76-.11,1.15-.19a18.72,18.72,0,0,0,2.26-.66l.57-.21.28-.11.27-.13,1.1-.53c.36-.19.71-.42,1.06-.63.18-.11.36-.21.53-.33l.5-.38A18.6,18.6,0,0,0,178.93,80l.86-1,.22-.24.2-.26.39-.52.39-.52.34-.56.34-.57.17-.28.15-.3c.19-.4.38-.8.58-1.2s.3-.84.46-1.26a17,17,0,0,0,0-10.73l-.47-1.26-.57-1.2-.15-.29-.17-.29-.34-.56-.35-.56-.39-.52-.39-.52-.19-.26-.22-.24-.86-.95A19.71,19.71,0,0,0,177,54.35l-.5-.38c-.17-.12-.35-.22-.53-.33-.35-.21-.7-.44-1.06-.63l-1.1-.53-.27-.13-.28-.11-.57-.21a17.07,17.07,0,0,0-2.26-.66c-.38-.08-.77-.12-1.15-.19l-.57-.08a5.27,5.27,0,0,0-.56,0L167,51c-.37,0-.74,0-1.11,0a16.63,16.63,0,0,0-2.15.25,8.58,8.58,0,0,0-1,.24c-.34.09-.68.16-1,.27l-1,.34-.47.18-.45.21L159,53c-.29.14-.55.33-.83.48l-.8.5-.73.54a17.08,17.08,0,0,0-4.33,4.84,16,16,0,0,0-1.89,4.53l-.13.48a4.24,4.24,0,0,0-.1.46l-.13.83c0,.26-.08.49-.1.71l0,.6c0,.35,0,.63,0,.81S149.81,68,149.81,68Z"/><path class="cls-3" d="M164.26,76.93h5.37a4.71,4.71,0,0,0,4.71-4.72V60.64h-14.8V72.21A4.73,4.73,0,0,0,164.26,76.93Z"/><path class="cls-5" d="M164.26,76.93a6.59,6.59,0,0,1-1.37-.24,4.71,4.71,0,0,1-1.46-.77,4.5,4.5,0,0,1-1.38-1.72,4.38,4.38,0,0,1-.38-1.24,8.34,8.34,0,0,1-.06-1.43c0-1,0-2.09,0-3.24,0-2.3,0-4.87,0-7.64l-.09.09h14.8l-.1-.09c0,3.45,0,6.7,0,9.63,0,.73,0,1.45,0,2.13a4.6,4.6,0,0,1-3.05,4.18,8.21,8.21,0,0,1-2.88.29l-2.2,0-1.38,0h-.35c-.08,0-.13,0-.13,0h.48l1.38,0h3.58a4.75,4.75,0,0,0,4.2-2.61,4.7,4.7,0,0,0,.51-2c0-.7,0-1.41,0-2.14V60.54h-15v.09c0,2.77,0,5.34,0,7.64,0,1.15,0,2.23,0,3.24a7.71,7.71,0,0,0,.07,1.45,4.29,4.29,0,0,0,.4,1.27A4.77,4.77,0,0,0,161.38,76a4.89,4.89,0,0,0,1.49.76,4.77,4.77,0,0,0,1,.17h.36Z"/><path class="cls-7" d="M174.26,60.75a11.3,11.3,0,0,1-7,2.55,13.12,13.12,0,0,1-7.69-2.56Z"/><path class="cls-5" d="M159.54,63a1.41,1.41,0,0,0-.11.32l-.25.93c-.22.85-.51,2-.87,3.42l-.58,2.36c-.1.44-.23.85-.31,1.34a2.71,2.71,0,0,0,.19,1.48,2.83,2.83,0,0,0,1,1.22,2.87,2.87,0,0,0,1.57.47h5a7.68,7.68,0,0,0,1.66-.1,4.67,4.67,0,0,0,2.68-1.62,4.34,4.34,0,0,0,.75-1.27c.18-.44.31-.87.46-1.28.29-.83.55-1.6.8-2.31.47-1.38.85-2.51,1.14-3.34.12-.37.21-.67.29-.91a1,1,0,0,0,.08-.33,2.16,2.16,0,0,0-.14.31l-.35.89c-.3.82-.72,1.94-1.23,3.31-.25.7-.53,1.47-.83,2.29a7.34,7.34,0,0,1-1.18,2.46,4.46,4.46,0,0,1-2.53,1.5,7,7,0,0,1-1.6.09h-1.68l-3.32,0a2.46,2.46,0,0,1-2.31-1.49,2.37,2.37,0,0,1-.19-1.33c.07-.44.19-.89.29-1.32.19-.85.38-1.64.54-2.37.32-1.42.58-2.59.78-3.45.08-.38.14-.69.19-.94A1.59,1.59,0,0,0,159.54,63Z"/><path class="cls-5" d="M172.11,63.65a.82.82,0,1,0,.82-.81A.82.82,0,0,0,172.11,63.65Z"/><path class="cls-7" d="M159.69,60.8c-.07.34.4.67.39,1a1.59,1.59,0,0,0,1,1.52.39.39,0,0,1,.14.08,1.51,1.51,0,0,1,.43,1l.27,1.86a3.28,3.28,0,0,0,.31,1.11,1.08,1.08,0,0,0,.94.59c.56,0,.91-.64,1-1.2s0-1.44.45-2a.84.84,0,0,1,.92-.31c.85.31.34,1.66,1.14,2a.73.73,0,0,0,.68-.1,1.93,1.93,0,0,0,.66-1.24l.54-2.18-8.89-2.11"/><circle class="cls-6" cx="123.4" cy="75.47" r="17.09" transform="translate(-10.81 21.51) rotate(-9.55)"/><path class="cls-5" d="M106.31,75.47s0-.09,0-.27l0-.82,0-.6c0-.21.07-.45.1-.71l.13-.84a2.66,2.66,0,0,1,.09-.46l.12-.48a16,16,0,0,1,1.88-4.57A16.89,16.89,0,0,1,113,61.84l.74-.55c.26-.18.54-.33.81-.5s.54-.35.83-.49l.89-.43.46-.21.47-.18,1-.35c.32-.11.67-.18,1-.28a8.74,8.74,0,0,1,1-.24,15.18,15.18,0,0,1,2.16-.25c.37,0,.75,0,1.12,0l1.14.06a5.46,5.46,0,0,1,.57,0l.58.08c.38.07.77.11,1.15.19a17.09,17.09,0,0,1,2.29.67l.57.2.29.11.27.13,1.11.54c.37.19.71.42,1.07.64a4.72,4.72,0,0,1,.53.33l.51.38a18.92,18.92,0,0,1,2,1.65l.87,1,.22.24.2.27.4.52.39.53.35.56.34.57.18.29.14.3c.2.4.39.8.59,1.21l.46,1.27a17.94,17.94,0,0,1,.89,5.42,18.14,18.14,0,0,1-.88,5.42c-.16.43-.32.85-.47,1.28s-.39.81-.59,1.21l-.14.3-.18.28-.34.57-.35.57-.39.53-.4.52-.19.26-.22.25-.88,1a20.26,20.26,0,0,1-2,1.65l-.5.38a6,6,0,0,1-.54.33c-.36.22-.7.45-1.07.64l-1.11.54-.27.13-.29.11-.57.2a17.53,17.53,0,0,1-2.29.67c-.38.08-.77.12-1.15.19l-.58.08a5.46,5.46,0,0,1-.57,0l-1.14.06c-.37,0-.75,0-1.12,0a15.5,15.5,0,0,1-2.17-.26,7.29,7.29,0,0,1-1-.23c-.34-.1-.69-.17-1-.28l-1-.35-.48-.18-.45-.21-.89-.43c-.29-.14-.56-.33-.83-.49s-.55-.32-.81-.5l-.74-.55a17.09,17.09,0,0,1-4.34-4.88,16.33,16.33,0,0,1-1.87-4.57l-.12-.49a2.39,2.39,0,0,1-.09-.45l-.13-.84c0-.26-.08-.5-.1-.72l0-.59,0-.82c0-.18,0-.28,0-.28s0,.1,0,.28l0,.81,0,.6c0,.22.07.46.11.71l.13.84a2.39,2.39,0,0,0,.09.45l.13.48a16.49,16.49,0,0,0,1.89,4.54A17,17,0,0,0,113.1,89l.73.55c.26.17.54.32.8.49a8.68,8.68,0,0,0,.84.48l.88.42.45.22.47.17,1,.35c.32.11.66.18,1,.27s.68.19,1,.23a15.21,15.21,0,0,0,2.15.25c.37,0,.74,0,1.11,0l1.13,0,.57,0,.56-.09c.38-.06.77-.11,1.15-.18a18.93,18.93,0,0,0,2.27-.67l.56-.21.28-.1.28-.13,1.1-.53c.35-.2.7-.43,1.05-.64a5.84,5.84,0,0,0,.53-.33l.5-.37a19.92,19.92,0,0,0,1.93-1.64l.87-1,.21-.24.2-.25.39-.53.39-.52.34-.56.34-.56.17-.28.15-.3.58-1.2.46-1.26a16.79,16.79,0,0,0,0-10.73l-.46-1.26-.58-1.2c-.05-.1-.09-.2-.15-.3l-.17-.28-.34-.56-.34-.56-.39-.53-.39-.52-.2-.26-.22-.24-.86-1a19.92,19.92,0,0,0-1.93-1.64l-.5-.37a5.84,5.84,0,0,0-.53-.33c-.35-.21-.7-.44-1.05-.64l-1.1-.53-.28-.13-.28-.1-.56-.21a18.93,18.93,0,0,0-2.27-.67c-.38-.08-.77-.12-1.15-.18l-.56-.09-.57,0-1.13-.05c-.37,0-.74,0-1.11,0a15.38,15.38,0,0,0-2.15.25,7.29,7.29,0,0,0-1,.23c-.33.09-.68.16-1,.27l-1,.35-.47.17-.45.21-.88.43a7.48,7.48,0,0,0-.83.48c-.27.17-.55.32-.8.49l-.74.55a16.92,16.92,0,0,0-4.33,4.83,16.49,16.49,0,0,0-1.89,4.54l-.13.48a2.39,2.39,0,0,0-.09.45l-.13.83c0,.26-.09.5-.11.72l0,.6,0,.81C106.32,75.38,106.31,75.47,106.31,75.47Z"/><path class="cls-2" d="M121.75,75.66A4.66,4.66,0,0,1,119,71.33l8.78,0a4.66,4.66,0,0,1-2.8,4.37c6.76,1,6.45,8.37,6.45,8.37l-16,.07S115.05,76.68,121.75,75.66Z"/><path class="cls-5" d="M121.75,75.66l-.2,0a5.77,5.77,0,0,0-.6.14,6.7,6.7,0,0,0-4.48,3.63,10.29,10.29,0,0,0-1,4.62l-.07-.07,16-.09-.08.08a10,10,0,0,0-.16-1.85,8.43,8.43,0,0,0-2.1-4.41,7,7,0,0,0-1.92-1.37,8.37,8.37,0,0,0-2.2-.64l-.29,0,.27-.11a4.5,4.5,0,0,0,2.07-1.8,4.81,4.81,0,0,0,.69-2.5l.07.08H119l.05,0a4.94,4.94,0,0,0,.52,2.21,4.71,4.71,0,0,0,1,1.34,4.41,4.41,0,0,0,.86.61l.33.17-.09,0-.25-.11a4.29,4.29,0,0,1-.89-.6,4.53,4.53,0,0,1-1.06-1.35,4.9,4.9,0,0,1-.55-2.24v0h0l8.78-.06h.08v.08a5,5,0,0,1-.71,2.58A4.56,4.56,0,0,1,125,75.74l0-.16a8.28,8.28,0,0,1,2.25.66,6.93,6.93,0,0,1,2,1.4,8.53,8.53,0,0,1,2.14,4.5,10.27,10.27,0,0,1,.16,1.89v.09h-.08l-16,0h-.07V84.1a10.38,10.38,0,0,1,1-4.67,6.78,6.78,0,0,1,2.42-2.73,6.88,6.88,0,0,1,2.15-.89,3.17,3.17,0,0,1,.59-.11Z"/><path class="cls-7" d="M128.43,69.89v1a.22.22,0,0,1-.22.22H118.6a.22.22,0,0,1-.23-.22v-1a.22.22,0,0,1,.23-.22h0a.23.23,0,0,0,.22-.21c.05-.7.37-3,2.44-3.63a.22.22,0,0,1,.25.08l.32.43a.22.22,0,0,0,.4-.13v-.93a.22.22,0,0,1,.22-.22h1.76a.22.22,0,0,1,.22.22v1a.22.22,0,0,0,.36.17l.68-.54a.23.23,0,0,1,.24,0,4.14,4.14,0,0,1,2.21,3.54.22.22,0,0,0,.22.21h.07A.22.22,0,0,1,128.43,69.89Z"/><path class="cls-5" d="M118.48,69.63s2.21-.09,4.93-.09,4.92,0,4.92.09-2.2.09-4.92.09S118.48,69.68,118.48,69.63Z"/><path class="cls-7" d="M125.88,66a6.39,6.39,0,0,0-5.43.19l1.64,1.3h2Z"/><path class="cls-5" d="M125.88,66.09a10,10,0,0,1-1.3,1.24.19.19,0,0,1-.15,0,.16.16,0,0,1-.12-.15V66.7l0-.56a2,2,0,0,1,.06-.53s0,.2.06.53l0,.56v.5s0,0,0,0,0,0,0,0h0s0,0,0,0A8.9,8.9,0,0,1,125.88,66.09Z"/><path class="cls-5" d="M120.72,66.15a9,9,0,0,1,1.38,1.11s0,0,0,0,0,0,0,0v-.51l0-.56a1.72,1.72,0,0,1,.07-.52,1.57,1.57,0,0,1,.06.52v1.09a.18.18,0,0,1-.12.14.19.19,0,0,1-.15,0A9.75,9.75,0,0,1,120.72,66.15Z"/><circle class="cls-6" cx="152.81" cy="121.33" r="23.68"/><path class="cls-5" d="M129.14,121.33s0-.52,0-1.51a23.76,23.76,0,0,1,.65-4.29,24.2,24.2,0,0,1,1-3,22.37,22.37,0,0,1,1.64-3.35,24,24,0,0,1,6-6.76,23.59,23.59,0,0,1,10-4.45,23.8,23.8,0,0,1,6.12-.35,25.23,25.23,0,0,1,3.19.45,24.64,24.64,0,0,1,3.17.9,23.79,23.79,0,0,1,13,11.4,22.62,22.62,0,0,1,1.45,3.43,23.69,23.69,0,0,1,0,15c-.19.6-.43,1.18-.65,1.76s-.51,1.13-.8,1.68a24.29,24.29,0,0,1-1.94,3.12,23.84,23.84,0,0,1-11.06,8.28,26.37,26.37,0,0,1-3.17.9,23.5,23.5,0,0,1-3.19.44,23.81,23.81,0,0,1-6.12-.34,23,23,0,0,1-5.46-1.74,22.67,22.67,0,0,1-4.53-2.72,23.85,23.85,0,0,1-6-6.76,22.29,22.29,0,0,1-1.64-3.34,24.87,24.87,0,0,1-1-3,23.56,23.56,0,0,1-.65-4.28c0-1,0-1.51,0-1.51s0,.13,0,.38,0,.63.05,1.13a23.63,23.63,0,0,0,1.65,7.24,22.71,22.71,0,0,0,1.65,3.32,23.63,23.63,0,0,0,6,6.71,23.41,23.41,0,0,0,9.94,4.41,23.58,23.58,0,0,0,6.09.34,24.78,24.78,0,0,0,3.16-.45,24.51,24.51,0,0,0,3.16-.9,23.6,23.6,0,0,0,11-8.23,23.16,23.16,0,0,0,1.92-3.09c.29-.55.54-1.11.79-1.67s.47-1.15.65-1.75a23.51,23.51,0,0,0,0-14.89,21.39,21.39,0,0,0-1.44-3.41,23.28,23.28,0,0,0-1.92-3.1,23.73,23.73,0,0,0-11-8.23,26.22,26.22,0,0,0-3.16-.9,22.87,22.87,0,0,0-3.16-.44,24,24,0,0,0-6.08.33,23.71,23.71,0,0,0-10,4.41,24.06,24.06,0,0,0-6,6.71,22.31,22.31,0,0,0-1.65,3.33,22.64,22.64,0,0,0-1,3,23.06,23.06,0,0,0-.68,4.27c-.05.49,0,.87-.05,1.12S129.14,121.33,129.14,121.33Z"/><path class="cls-5" d="M124.88,138.38s12.79-.08,28.57-.08,28.57,0,28.57.08-12.79.09-28.57.09S124.88,138.43,124.88,138.38Z"/><polygon class="cls-7" points="124.31 115.8 128.93 115.8 137.29 105.98 134.09 102.45 124.31 115.8"/><g class="cls-11"><polygon points="124.31 115.8 128.93 115.8 137.29 105.98 134.09 102.45 124.31 115.8"/></g><polygon class="cls-7" points="179.05 115.12 182.17 128.04 180.61 128.04 177.84 116.7 179.05 115.12"/><g class="cls-11"><polygon points="179.05 115.12 182.17 128.04 180.61 128.04 177.84 116.7 179.05 115.12"/></g><polygon class="cls-3" points="181.07 138.2 181.06 127.55 178.71 117.67 176.78 128.53 176.79 138.2 181.07 138.2"/><rect class="cls-3" x="141.03" y="112.49" width="8.09" height="16.41" transform="translate(290.25 241.27) rotate(179.95)"/><polygon class="cls-7" points="179.05 115.16 176.78 128.57 141.88 128.6 148.78 115.18 179.05 115.16"/><rect class="cls-2" x="142.09" y="128.54" width="34.69" height="9.68" transform="translate(318.99 266.62) rotate(179.95)"/><polygon class="cls-3" points="173.68 128.57 173.68 138.2 169.5 138.21 169.56 128.53 173.68 128.57"/><polygon class="cls-2" points="158.84 116.35 169.56 128.53 169.5 138.21 148.95 138.22 149.13 128.9 158.84 116.35"/><polygon class="cls-7" points="174.66 128.53 163.78 115.13 158.84 115.13 170.09 128.53 174.66 128.53"/><polygon class="cls-7" points="151.42 115.14 143.38 115.25 133.8 102.45 134.19 101.92 141.88 102.06 151.42 115.14"/><polygon class="cls-7" points="140.93 110.76 144.35 115.25 143.38 115.25 133.8 102.45 134.19 101.92 140.93 110.76"/><path class="cls-5" d="M140.93,110.76l0-.05-.09-.12-.37-.49c-.32-.43-.79-1-1.37-1.84l-4.84-6.37,0-.06,0,.06-.39.53,0,0,0,0,3.24,4.33c2.4,3.2,4.61,6.14,6.34,8.46h1.09l-.05-.07L141.87,112l-.69-.89-.19-.22-.06-.08,0,.08.18.24.67.9,2.49,3.29,0-.06h-1l0,0-6.32-8.47-3.24-4.33v.07l.38-.54h-.08L139,108.3l1.4,1.82.37.48.1.12Z"/><polygon class="cls-2" points="127.63 113.93 127.65 138.24 142.09 138.23 142.07 113.5 135.19 104.31 127.63 113.93"/><g class="cls-11"><polygon points="174.96 128.53 163.78 115.13 158.84 115.13 170.09 128.53 174.96 128.53"/></g><polygon class="cls-7" points="159.25 116.81 149.13 128.9 148.25 128.91 158.84 116.35 159.25 116.81"/><g class="cls-11"><polygon points="159.25 116.81 149.13 128.9 148.25 128.91 158.84 116.35 159.25 116.81"/></g><polygon class="cls-7" points="158.84 115.13 170.95 128.53 169.56 128.53 158.84 116.35 148.25 129.05 147.75 128.45 158.84 115.13"/><path class="cls-5" d="M158.84,115.13l-.05.06-.15.18-.6.7-2.25,2.69-8.08,9.66,0,0,0,0,.5.6,0,0,0,0,10.59-12.69h-.08l.34.39,10.39,11.79h1.54l-.08-.08-8.81-9.7-2.47-2.72-.65-.71-.17-.18,0-.06,0,.07.17.19.65.72,2.46,2.74,8.75,9.71,0-.08h-1.39l0,0-10.37-11.8-.35-.39,0,0,0,0L148.21,129h.08l-.5-.6v.06l8-9.66c1-1.17,1.73-2.09,2.24-2.72l.6-.71.15-.19Z"/><path class="cls-5" d="M169.55,138.3s0-2.18,0-4.87,0-4.86-.06-4.86-.06,2.18,0,4.86S169.52,138.3,169.55,138.3Z"/><path class="cls-5" d="M173.62,138.33s.06-2.18,0-4.86,0-4.86-.06-4.86-.05,2.17-.05,4.86S173.59,138.33,173.62,138.33Z"/><rect class="cls-10" x="157.9" y="129.74" width="4.07" height="8.47" transform="translate(319.98 267.82) rotate(179.95)"/><path class="cls-5" d="M161.61,134.73h0a.14.14,0,0,0,.14-.14v-.86a.13.13,0,0,0-.14-.13h0a.14.14,0,0,0-.14.13v.86A.14.14,0,0,0,161.61,134.73Z"/><path class="cls-10" d="M161.56,134.45a0,0,0,0,1,0,0,0,0,0,0,1,.05,0s0,0,0,0v0a0,0,0,0,1,0,0h0a0,0,0,0,1,0,0v0A.05.05,0,0,1,161.56,134.45Z"/><path class="cls-5" d="M160.93,134.11h.62a.06.06,0,0,0,.06-.06h0a.07.07,0,0,0-.06-.07h-.62a.07.07,0,0,0-.07.07h0A.07.07,0,0,0,160.93,134.11Z"/><path class="cls-10" d="M161.34,134.12h.18s.08,0,.1-.06a0,0,0,0,0,0-.06l0,0h0s.05,0,0,.07-.13.05-.17.05Z"/><path class="cls-5" d="M160,131.64s0-.14,0-.38v-1h1.19v1.36h0v-1.36H160v1.38Z"/><path class="cls-5" d="M160.24,131.47s0-.11,0-.3v-.75h.82s0,0,0,0h0v1h0v-1h-.86v1.05Z"/><path class="cls-5" d="M160.05,134.56V132h1.2s0,0,0,0h0v2.56h0V132H160v0C160,133.31,160,134.12,160.05,134.56Z"/><path class="cls-5" d="M160.25,134.42v-2.27h.82v2.27h0v-2.27h-.86c0,.65,0,1.21,0,1.64v.48A1.15,1.15,0,0,0,160.25,134.42Z"/><path class="cls-5" d="M160.05,137.84c0-.44,0-1.26,0-2.59h1.18v2.57h0v-2.57H160C160,136.58,160.05,137.4,160.05,137.84Z"/><path class="cls-5" d="M160.25,137.69v-2.28h.81v2.26h0v-2.26h-.85v2.28Z"/><path class="cls-5" d="M161.06,131.47l.1.09.11.07-.1-.09Z"/><path class="cls-5" d="M160,131.62l.1-.06c.06-.05.1-.08.09-.09l-.1.07C160.07,131.58,160,131.62,160,131.62Z"/><path class="cls-5" d="M160.06,130.29s0,0,.09.07a.44.44,0,0,0,.1.06l-.09-.07Z"/><path class="cls-5" d="M161.07,130.4l.1-.05.09-.07s0,0-.1.05S161.07,130.39,161.07,130.4Z"/><path class="cls-5" d="M161.08,132.14a.22.22,0,0,0,.1-.08c0-.05.08-.1.07-.1s0,0-.08.09Z"/><path class="cls-5" d="M160.06,132a.25.25,0,0,0,.08.09l.1.06-.08-.08Z"/><path class="cls-5" d="M161.08,134.43l.08.07.09.07a.3.3,0,0,0-.07-.09C161.13,134.44,161.09,134.42,161.08,134.43Z"/><path class="cls-5" d="M160.08,134.56l.09-.06s.07-.07.07-.08l-.09.06Z"/><path class="cls-5" d="M161.06,135.44a.38.38,0,0,0,.11-.09l.09-.1-.11.09Z"/><path class="cls-5" d="M160.05,135.24l.09.1.1.08s0,0-.08-.1Z"/><path class="cls-5" d="M161.1,137.68l.07.09s.08.07.09.06l-.07-.08Z"/><path class="cls-5" d="M160.07,137.84l.09-.07.08-.08-.09.06A.25.25,0,0,0,160.07,137.84Z"/><path class="cls-5" d="M158.44,131.64v-1.38h1.19s0,0,0,0h0v1.36h0v-1.36h-1.22v1C158.43,131.51,158.44,131.64,158.44,131.64Z"/><path class="cls-5" d="M158.63,131.47s0-.11,0-.29v-.76h.81v1h0v-1h0s0,0,0,0h-.85v1.05Z"/><path class="cls-5" d="M158.44,134.56c0-.44,0-1.25,0-2.58h1.19s0,0,0,0h0v2.56h0V132h0l0,0h-1.21C158.43,133.31,158.44,134.12,158.44,134.56Z"/><path class="cls-5" d="M158.64,134.42v-.65c0-.43,0-1,0-1.63h.81v2.26h0v-2.26h0s0,0,0,0h-.85v0c0,.64,0,1.2,0,1.64v.47C158.64,134.36,158.64,134.42,158.64,134.42Z"/><path class="cls-5" d="M158.44,137.84c0-.44,0-1.26,0-2.59h1.19v2.57h0v-2.57h-1.23C158.44,136.58,158.44,137.4,158.44,137.84Z"/><path class="cls-5" d="M158.64,137.7v-2.29h.81v2.26h0v-2.26h-.85v2.29Z"/><path class="cls-5" d="M159.45,131.47s0,.05.1.09l.11.07-.1-.09Z"/><path class="cls-5" d="M158.43,131.62l.1-.06.1-.09-.11.07Z"/><path class="cls-5" d="M158.45,130.29s0,0,.09.08.1.06.1,0,0,0-.09-.07Z"/><path class="cls-5" d="M159.46,130.4l.1-.05.09-.07-.1.05C159.5,130.36,159.46,130.39,159.46,130.4Z"/><path class="cls-5" d="M159.47,132.14a.25.25,0,0,0,.11-.07c0-.06.07-.11.06-.11l-.08.09Z"/><path class="cls-5" d="M158.45,132a.5.5,0,0,0,.08.08l.1.06-.08-.08C158.5,132,158.46,132,158.45,132Z"/><path class="cls-5" d="M159.47,134.43l.08.07.09.07s0,0-.07-.09Z"/><path class="cls-5" d="M158.47,134.56s.05,0,.09-.06.08-.07.07-.08l-.08.06Z"/><path class="cls-5" d="M159.45,135.44s.06,0,.11-.08l.09-.11-.11.09Z"/><path class="cls-5" d="M158.44,135.25l.09.09.11.08-.09-.1C158.49,135.28,158.45,135.24,158.44,135.25Z"/><path class="cls-5" d="M159.5,137.68s0,0,.06.09l.09.07a.3.3,0,0,0-.07-.09Z"/><path class="cls-5" d="M158.46,137.84l.1-.07.08-.08s0,0-.1.06Z"/><path class="cls-5" d="M171,128.53h1.63l4.2,0h0v-.05c.2-1.17.42-2.46.65-3.83l1.13-6.77.33-2.06.08-.56,0-.14v0s0,0,0,0l0,.15-.1.56c-.09.49-.22,1.19-.37,2-.3,1.74-.71,4.13-1.16,6.77-.23,1.37-.45,2.67-.64,3.84l.05-.05-4.2,0H171Z"/><polygon class="cls-7" points="133.8 102.45 123.52 115.8 124.8 115.8 134.32 103.15 133.8 102.45"/><path class="cls-5" d="M133.8,102.45l0,0,.09.13.38.53v0c-1.26,1.64-5,6.64-9.55,12.62l0,0h-1.28l0,.09c2.85-3.7,5.4-7,7.25-9.45l2.19-2.86.6-.79.15-.2s.05-.07.05-.08l-.05.07-.15.19-.6.76c-.52.68-1.28,1.64-2.2,2.84l-7.33,9.45-.07.1h1.43l0,0c4.5-6,8.26-11,9.49-12.67h0l-.41-.52-.09-.13Z"/><path class="cls-5" d="M143.16,115.21s2,.05,4.38.05,4.37,0,4.37-.06-2,0-4.37,0S143.16,115.18,143.16,115.21Z"/><rect class="cls-6" x="152.38" y="129.75" width="2.8" height="8.47"/><path class="cls-5" d="M152.39,138.22v-.65c0-.42,0-1,0-1.77,0-1.51,0-3.62,0-6.05l-.06.06h2.8l-.06-.06h0v2.45c0,.79,0,1.56,0,2.28,0,1.43,0,2.7,0,3.72l0,0-2.05,0h0l2.07,0h0v0c0-1,0-2.29,0-3.72v-4.73h0s.06.06,0-.06h-2.85v.05c0,2.44,0,4.56,0,6.08,0,.75,0,1.35,0,1.77v.46A.92.92,0,0,0,152.39,138.22Z"/><path class="cls-5" d="M152.36,132a7.4,7.4,0,0,0,1.4.06,8.48,8.48,0,0,0,1.39-.06,19.49,19.49,0,0,0-2.79,0Z"/><path class="cls-5" d="M152.37,135.54a9.36,9.36,0,0,0,1.4.05,8.66,8.66,0,0,0,1.4-.06,9.47,9.47,0,0,0-1.4-.05A7.4,7.4,0,0,0,152.37,135.54Z"/><path class="cls-5" d="M153.76,138.2s.06-1.88.05-4.2,0-4.19-.06-4.19-.05,1.88-.05,4.19S153.73,138.2,153.76,138.2Z"/><rect class="cls-6" x="134.54" y="129.75" width="2.8" height="8.47"/><path class="cls-5" d="M134.55,138.22v-.65c0-.42,0-1,0-1.78,0-1.51,0-3.62,0-6l-.06.05h2.8c-.11-.11,0,0-.06-.05h0v2.45c0,.79,0,1.55,0,2.27,0,1.44,0,2.71,0,3.73l0,0-2,0h2.08v0c0-1,0-2.29,0-3.73v-4.72h0s.06.05,0-.06h-2.85v.06c0,2.44,0,4.56,0,6.08,0,.75,0,1.34,0,1.76v.47A.92.92,0,0,0,134.55,138.22Z"/><path class="cls-5" d="M134.65,132.08a16.25,16.25,0,0,0,2.79,0,16.25,16.25,0,0,0-2.79,0Z"/><path class="cls-5" d="M134.66,135.59a16.25,16.25,0,0,0,2.79,0,8.48,8.48,0,0,0-1.39-.06A10.15,10.15,0,0,0,134.66,135.59Z"/><path class="cls-5" d="M136.05,138.26s0-1.88,0-4.2,0-4.19-.06-4.19,0,1.88,0,4.19S136,138.26,136.05,138.26Z"/><rect class="cls-6" x="131.26" y="129.81" width="2.8" height="8.47"/><path class="cls-5" d="M131.26,138.28v-.65c0-.42,0-1,0-1.77,0-1.51,0-3.62,0-6.05l-.06.06h2.8c-.11-.12,0,0-.05-.06h0v4.73c0,1.43,0,2.7,0,3.72l0,0-2.05,0h0l2.07,0h0v0c0-1,0-2.29,0-3.72v-4.73h0l-.06-.06H131.2v.05c0,2.44,0,4.56,0,6.09,0,.74,0,1.34,0,1.76v.62Z"/><path class="cls-5" d="M131.23,132.08a7.48,7.48,0,0,0,1.4.06,8.66,8.66,0,0,0,1.4-.06,19.62,19.62,0,0,0-2.8,0Z"/><path class="cls-5" d="M131.24,135.6a9.47,9.47,0,0,0,1.4.05,8.66,8.66,0,0,0,1.4-.06,9.47,9.47,0,0,0-1.4-.05A7.48,7.48,0,0,0,131.24,135.6Z"/><path class="cls-5" d="M132.63,138.26s.06-1.88.06-4.19,0-4.2-.06-4.2-.06,1.88-.06,4.2S132.6,138.26,132.63,138.26Z"/><rect class="cls-6" x="164.46" y="129.74" width="2.8" height="8.47"/><path class="cls-5" d="M164.46,138.21s0,0,0,0v-.61c0-.42,0-1,0-1.77,0-1.52,0-3.62,0-6l0,.06h2.79c-.11-.12,0,0-.05-.06h0v4.73c0,1.43,0,2.7,0,3.72l0,0-2,0h0l2.07,0h0v0c0-1,0-2.29,0-3.72v-4.73h0s.06,0-.06-.06H164.4v.05c0,2.44,0,4.56,0,6.08,0,.75,0,1.35,0,1.77v.62Z"/><path class="cls-5" d="M164.43,132a16.36,16.36,0,0,0,2.8,0,8.08,8.08,0,0,0-1.4,0A9.47,9.47,0,0,0,164.43,132Z"/><path class="cls-5" d="M164.44,135.52a7.48,7.48,0,0,0,1.4.06,8.55,8.55,0,0,0,1.4-.06,9.36,9.36,0,0,0-1.4-.05A9.47,9.47,0,0,0,164.44,135.52Z"/><path class="cls-5" d="M165.84,138.19s0-1.88,0-4.2,0-4.19-.06-4.19-.06,1.88-.05,4.19S165.81,138.19,165.84,138.19Z"/><rect class="cls-6" x="156.61" y="122.34" width="6.32" height="4.69"/><path class="cls-5" d="M156.61,127a.44.44,0,0,1,0-.09v-1.21c0-.82,0-2,0-3.39l0,0h6.32s-.11-.11-.06,0h0v2.43c0,.78,0,1.54,0,2.24l.05,0-4.55,0h-1.65c-.08,0-.12,0-.12,0h1.74l4.58,0h0v-4.72h0c.05,0-.07-.07,0-.06h-6.37v0c0,1.42,0,2.59,0,3.42,0,.4,0,.72,0,.94V127Z"/><path class="cls-5" d="M158.15,123.51a10.65,10.65,0,0,0,1.29.89,11,11,0,0,0,1.36.79,10.33,10.33,0,0,0-1.3-.89A11.39,11.39,0,0,0,158.15,123.51Z"/><path class="cls-5" d="M159.82,125.15a1.81,1.81,0,0,0,.56.4,2,2,0,0,0,.62.3,2.49,2.49,0,0,0-.56-.4A2.24,2.24,0,0,0,159.82,125.15Z"/><rect class="cls-6" x="142.3" y="130.92" width="6.32" height="4.69"/><path class="cls-5" d="M142.3,135.61v-1.29c0-.83,0-2,0-3.4l0,.05h6.32s-.11-.1-.06-.05h0v4.66l.05,0-4.55,0-1.3,0H144l4.58,0h0v-4.71h0c.05.05-.07-.07,0-.06l-6.32,0h-.05v0c0,1.42,0,2.6,0,3.42,0,.4,0,.72,0,.94v.25A.45.45,0,0,1,142.3,135.61Z"/><path class="cls-5" d="M143.84,132.09a9.46,9.46,0,0,0,1.29.89,11,11,0,0,0,1.36.79,11.77,11.77,0,0,0-1.3-.89A13.36,13.36,0,0,0,143.84,132.09Z"/><path class="cls-5" d="M145.51,133.73a1.81,1.81,0,0,0,.56.4,1.75,1.75,0,0,0,.62.3,2.92,2.92,0,0,0-.56-.4A2.65,2.65,0,0,0,145.51,133.73Z"/><rect class="cls-6" x="131.72" y="116.37" width="6.32" height="6.32"/><path class="cls-5" d="M131.72,122.7a.89.89,0,0,0,0-.13v-.34c0-.3,0-.74,0-1.29,0-1.11,0-2.68,0-4.56l-.05.05H138l-.06-.06h0v3.33c0,1.06,0,2.06,0,3l0,0-4.56,0h-1.64c-.08,0-.12,0-.12,0h1.72l4.6,0h.05v-6.36h0s-.07-.07-.05-.06l-6.32,0h-.05v0c0,1.89,0,3.48,0,4.59v1.73Z"/><path class="cls-5" d="M133.26,117.58a9.46,9.46,0,0,0,1.29.89,11,11,0,0,0,1.36.79,11.77,11.77,0,0,0-1.3-.89A11.39,11.39,0,0,0,133.26,117.58Z"/><path class="cls-5" d="M134.93,119.22a1.81,1.81,0,0,0,.56.4,2,2,0,0,0,.62.3,2.92,2.92,0,0,0-.56-.4A2.65,2.65,0,0,0,134.93,119.22Z"/><rect class="cls-3" x="158.93" y="128.07" width="2.05" height="0.64" transform="translate(320.01 256.65) rotate(179.95)"/><path class="cls-5" d="M142.17,127.53s.06-3.14.05-7,0-7-.06-7,0,3.14,0,7S142.14,127.53,142.17,127.53Z"/><path class="cls-5" d="M181.07,137.74s.05-2.15.05-4.81,0-4.8-.06-4.8-.05,2.15-.05,4.8S181,137.74,181.07,137.74Z"/><circle class="cls-7" cx="158.43" cy="102.45" r="7.44" transform="translate(-14.42 26.83) rotate(-9.26)"/><g class="cls-12"><path class="cls-6" d="M158.21,95a7.43,7.43,0,0,0-7.21,7.65s5.23.08,6.42-2.06S158.21,95,158.21,95Z"/></g><path class="cls-7" d="M164,102.17a5.65,5.65,0,1,1-5.82-5.48A5.66,5.66,0,0,1,164,102.17Z"/><g class="cls-13"><path d="M164,102.17a5.65,5.65,0,1,1-5.82-5.48A5.66,5.66,0,0,1,164,102.17Z"/></g><path class="cls-7" d="M164.13,102.41A5.58,5.58,0,1,1,158.39,97,5.58,5.58,0,0,1,164.13,102.41Z"/><g class="cls-13"><path class="cls-6" d="M164.13,102.41A5.58,5.58,0,1,1,158.39,97,5.58,5.58,0,0,1,164.13,102.41Z"/></g><path class="cls-7" d="M158.76,102.08l0-1.43h0a2.77,2.77,0,0,1,.77.18,2.47,2.47,0,0,1,.36.21l0,0,.2-.52.05-.12-.26-.26-.12.06a2.67,2.67,0,0,0-1.05-.27l0-.79-.25-.19v.2h-.34l0,.8c-1.1.14-1.61.78-1.59,1.5,0,1,.88,1.21,1.67,1.38l0,1.41a2.72,2.72,0,0,1-1.43-.49l-.3.72a3.08,3.08,0,0,0,1.75.54l0,.59H158l.29.18h.58l0-.8c1.11-.14,1.62-.78,1.6-1.5C160.41,102.47,159.55,102.25,158.76,102.08Zm-.59-.13c-.41-.11-.72-.26-.73-.6s.2-.57.7-.66Zm.55-1.3Zm.1,3.53,0-1.25c.43.11.75.26.76.61S159.33,104.09,158.82,104.18Z"/><g class="cls-11"><path d="M158.76,102.08l0-1.43h0a2.77,2.77,0,0,1,.77.18,2.47,2.47,0,0,1,.36.21l0,0,.2-.52.05-.12-.26-.26-.12.06a2.67,2.67,0,0,0-1.05-.27l0-.79-.25-.19v.2h-.34l0,.8c-1.1.14-1.61.78-1.59,1.5,0,1,.88,1.21,1.67,1.38l0,1.41a2.72,2.72,0,0,1-1.43-.49l-.3.72a3.08,3.08,0,0,0,1.75.54l0,.59H158l.29.18h.58l0-.8c1.11-.14,1.62-.78,1.6-1.5C160.41,102.47,159.55,102.25,158.76,102.08Zm-.59-.13c-.41-.11-.72-.26-.73-.6s.2-.57.7-.66Zm.55-1.3Zm.1,3.53,0-1.25c.43.11.75.26.76.61S159.33,104.09,158.82,104.18Z"/></g><path class="cls-7" d="M158.6,104.77l0,.79-.58,0,0-.79a3.13,3.13,0,0,1-1.75-.53l.3-.73a2.78,2.78,0,0,0,1.43.5l-.05-1.42c-.79-.16-1.63-.39-1.66-1.38,0-.72.48-1.36,1.58-1.5l0-.8h.58l0,.78a3,3,0,0,1,1.45.39l-.27.72a2.87,2.87,0,0,0-1.16-.35l0,1.43c.79.17,1.66.39,1.68,1.37C160.22,104,159.7,104.62,158.6,104.77Zm-.67-3,0-1.26c-.5.09-.7.35-.69.67S157.52,101.65,157.93,101.76Zm1.36,1.59c0-.34-.32-.5-.75-.6l0,1.25C159.09,103.9,159.3,103.66,159.29,103.35Z"/><path class="cls-6" d="M152.2,106.13l0-.06-.09-.17c0-.07-.09-.16-.14-.27s-.11-.23-.16-.37l-.09-.22c0-.07-.05-.15-.08-.24a5,5,0,0,1-.16-.54,7.48,7.48,0,0,1-.18-2.55c0-.2.05-.39.09-.56a2.17,2.17,0,0,1,0-.25l.06-.23c0-.14.08-.27.11-.38l.1-.29.07-.18,0-.06a.15.15,0,0,1,0,.06l-.06.19c0,.08-.06.17-.09.29s-.07.24-.1.38l-.05.23c0,.08,0,.16-.05.25s0,.36-.08.55a10.72,10.72,0,0,0,0,1.28,9,9,0,0,0,.2,1.26c0,.19.09.37.15.54l.08.24.08.22c0,.14.11.26.16.37a1.71,1.71,0,0,0,.13.27l.08.17Z"/><path class="cls-6" d="M156.79,101.81s-.08,0-.17-.16a.86.86,0,0,1-.18-.53,1,1,0,0,1,.19-.53c.08-.11.16-.16.17-.15a1.16,1.16,0,0,0-.14.18.87.87,0,0,0-.16.5,1,1,0,0,0,.15.51C156.73,101.75,156.79,101.8,156.79,101.81Z"/><path class="cls-6" d="M158,99.61s0-.1,0-.23a.7.7,0,0,1,0-.23s0,.1,0,.23A.7.7,0,0,1,158,99.61Z"/><path class="cls-6" d="M158.65,96.53H158l-.34,0-.38,0a8.38,8.38,0,0,0-.87.21,5.75,5.75,0,0,0-.83.35,2.74,2.74,0,0,0-.34.19l-.29.18-.23.16-.16.13-.15.11a1.21,1.21,0,0,1,.13-.13l.17-.13a1.4,1.4,0,0,1,.22-.17c.09-.06.18-.13.29-.19s.22-.13.34-.2a7.14,7.14,0,0,1,.83-.35,5.56,5.56,0,0,1,.88-.21l.39,0h.84A.85.85,0,0,1,158.65,96.53Z"/><path class="cls-6" d="M159.54,109.48l-.13,0-.37.07a5.18,5.18,0,0,1-1.23,0,4.91,4.91,0,0,1-1.21-.23l-.36-.13q-.12,0-.12-.06l.13,0,.36.11a6,6,0,0,0,1.2.22,6.67,6.67,0,0,0,1.23,0l.36-.06C159.49,109.48,159.54,109.47,159.54,109.48Z"/><polygon class="cls-10" points="109.73 190.79 103.06 184.68 126.17 183.76 132.96 187.52 109.73 190.79"/><polygon class="cls-5" points="105.75 185.53 107.05 186.65 107.05 185.85 105.67 184.83 105.75 185.53"/><polygon class="cls-7" points="107.03 185.9 108.9 185.84 107.4 184.75 105.67 184.83 107.03 185.9"/><polygon class="cls-5" points="107.03 185.9 107.05 186.65 108.88 186.53 108.9 185.84 107.03 185.9"/><path class="cls-5" d="M108.9,185.84a11,11,0,0,1-1.5-1l-.09-.06h0a10.62,10.62,0,0,1-1.69,0,9.93,9.93,0,0,1,1.68-.16h.05l.09.07A10,10,0,0,1,108.9,185.84Z"/><path class="cls-10" d="M107.05,186.65s-.09-.17-.09-.37,0-.37.07-.37.08.16.08.37S107.09,186.64,107.05,186.65Z"/><polygon class="cls-5" points="108.89 185.47 110.18 186.59 110.18 185.79 108.8 184.77 108.89 185.47"/><polygon class="cls-3" points="110.16 185.84 112.03 185.78 110.53 184.69 108.8 184.77 110.16 185.84"/><polygon class="cls-5" points="110.16 185.84 110.18 186.59 112.01 186.47 112.03 185.78 110.16 185.84"/><path class="cls-5" d="M112,185.78a9.75,9.75,0,0,1-1.51-1l-.09-.06h0a9.37,9.37,0,0,1-1.69,0,9.93,9.93,0,0,1,1.68-.16h0l.09.07A12.54,12.54,0,0,1,112,185.78Z"/><path class="cls-10" d="M110.18,186.59c-.05,0-.08-.17-.09-.37s0-.37.07-.37.08.16.08.37S110.22,186.59,110.18,186.59Z"/><polygon class="cls-5" points="111.88 185.43 113.18 186.55 113.17 185.75 111.8 184.73 111.88 185.43"/><polygon class="cls-10" points="113.16 185.8 115.03 185.74 113.53 184.65 111.8 184.73 113.16 185.8"/><polygon class="cls-5" points="113.16 185.8 113.18 186.55 115.01 186.43 115.03 185.74 113.16 185.8"/><path class="cls-5" d="M115,185.74a10,10,0,0,1-1.5-1l-.09-.06h0a9.33,9.33,0,0,1-1.69,0,9.93,9.93,0,0,1,1.68-.16h0l.08.07A10.64,10.64,0,0,1,115,185.74Z"/><path class="cls-10" d="M113.17,186.55s-.08-.17-.08-.37,0-.37.07-.37.08.16.08.37S113.22,186.55,113.17,186.55Z"/><polygon class="cls-5" points="115 185.34 116.3 186.46 116.3 185.66 114.92 184.64 115 185.34"/><polygon class="cls-10" points="116.28 185.72 118.16 185.65 116.65 184.56 114.92 184.64 116.28 185.72"/><polygon class="cls-5" points="116.28 185.72 116.3 186.46 118.13 186.34 118.16 185.65 116.28 185.72"/><path class="cls-5" d="M118.15,185.65a10.57,10.57,0,0,1-1.5-1l-.09-.06h0a9.37,9.37,0,0,1-1.69,0,9.93,9.93,0,0,1,1.68-.16h.05l.09.07A10.92,10.92,0,0,1,118.15,185.65Z"/><path class="cls-10" d="M116.3,186.46s-.08-.17-.09-.37,0-.37.07-.37.08.16.08.37S116.34,186.46,116.3,186.46Z"/><polygon class="cls-5" points="118.17 185.27 119.47 186.38 119.46 185.59 118.09 184.56 118.17 185.27"/><polygon class="cls-10" points="119.45 185.64 121.32 185.57 119.81 184.48 118.09 184.56 119.45 185.64"/><polygon class="cls-5" points="119.45 185.64 119.47 186.38 121.3 186.26 121.32 185.57 119.45 185.64"/><path class="cls-5" d="M121.32,185.57a10.32,10.32,0,0,1-1.51-1l-.08-.06h0a9.24,9.24,0,0,1-1.68,0,9.93,9.93,0,0,1,1.68-.16h0l0,0,.09.06A10.64,10.64,0,0,1,121.32,185.57Z"/><path class="cls-10" d="M119.46,186.38s-.08-.16-.08-.37,0-.37.06-.37.08.17.09.37S119.5,186.38,119.46,186.38Z"/><polygon class="cls-5" points="121.19 185.13 122.49 186.24 122.49 185.44 121.11 184.42 121.19 185.13"/><polygon class="cls-10" points="122.47 185.5 124.34 185.43 122.84 184.34 121.11 184.42 122.47 185.5"/><polygon class="cls-5" points="122.47 185.5 122.49 186.24 124.32 186.12 124.34 185.43 122.47 185.5"/><path class="cls-5" d="M124.34,185.43a10.57,10.57,0,0,1-1.5-1l-.09-.06h0a9.37,9.37,0,0,1-1.69,0,9.93,9.93,0,0,1,1.68-.16h0l.09.07A10.92,10.92,0,0,1,124.34,185.43Z"/><path class="cls-10" d="M122.49,186.24s-.08-.17-.09-.37,0-.37.07-.37.08.16.08.37S122.53,186.24,122.49,186.24Z"/><polygon class="cls-5" points="124.15 184.95 125.45 186.07 125.44 185.27 124.07 184.25 124.15 184.95"/><polygon class="cls-10" points="125.43 185.32 127.3 185.26 125.79 184.17 124.07 184.25 125.43 185.32"/><polygon class="cls-5" points="125.43 185.32 125.45 186.07 127.28 185.95 127.3 185.26 125.43 185.32"/><path class="cls-5" d="M127.3,185.26a10.32,10.32,0,0,1-1.51-1l-.08-.06h0a9.2,9.2,0,0,1-1.68,0,9.93,9.93,0,0,1,1.68-.16h0l.09.07A11.51,11.51,0,0,1,127.3,185.26Z"/><path class="cls-10" d="M125.44,186.07s-.08-.17-.08-.37,0-.37.06-.37.08.16.09.37S125.48,186.07,125.44,186.07Z"/><polygon class="cls-5" points="107.84 187.62 109.14 188.73 109.14 187.94 107.76 186.91 107.84 187.62"/><polygon class="cls-10" points="109.12 187.99 110.99 187.93 109.49 186.84 107.76 186.91 109.12 187.99"/><polygon class="cls-5" points="109.12 187.99 109.14 188.73 110.97 188.62 110.99 187.93 109.12 187.99"/><path class="cls-5" d="M111,187.93a11,11,0,0,1-1.5-1l-.09-.06h0a8.68,8.68,0,0,1-1.68,0,10.66,10.66,0,0,1,1.68-.15h0l.08.06A9.38,9.38,0,0,1,111,187.93Z"/><path class="cls-10" d="M109.13,188.73s-.08-.16-.08-.36,0-.37.06-.37.09.16.09.36S109.18,188.73,109.13,188.73Z"/><polygon class="cls-5" points="110.97 187.56 112.27 188.68 112.27 187.88 110.89 186.86 110.97 187.56"/><polygon class="cls-10" points="112.25 187.93 114.12 187.87 112.62 186.78 110.89 186.86 112.25 187.93"/><polygon class="cls-5" points="112.25 187.93 112.27 188.68 114.1 188.56 114.12 187.87 112.25 187.93"/><path class="cls-5" d="M114.12,187.87a11.78,11.78,0,0,1-1.5-1l-.09-.06h0a10.62,10.62,0,0,1-1.69,0,9.93,9.93,0,0,1,1.68-.16h.05l.09.07A10.92,10.92,0,0,1,114.12,187.87Z"/><path class="cls-10" d="M112.27,188.68s-.09-.17-.09-.37,0-.37.07-.37.08.16.08.37S112.31,188.67,112.27,188.68Z"/><polygon class="cls-5" points="113.97 187.52 115.27 188.63 115.26 187.84 113.89 186.82 113.97 187.52"/><polygon class="cls-10" points="115.25 187.89 117.12 187.83 115.62 186.74 113.89 186.82 115.25 187.89"/><polygon class="cls-5" points="115.25 187.89 115.27 188.63 117.1 188.52 117.12 187.83 115.25 187.89"/><path class="cls-5" d="M117.12,187.83a11,11,0,0,1-1.5-1l-.09-.06h0a10.47,10.47,0,0,1-1.68,0,9.93,9.93,0,0,1,1.68-.16h0l.09.07A10.64,10.64,0,0,1,117.12,187.83Z"/><path class="cls-10" d="M115.26,188.64s-.08-.17-.08-.37,0-.37.06-.37.08.16.09.37S115.31,188.63,115.26,188.64Z"/><polygon class="cls-5" points="117.09 187.43 118.39 188.55 118.39 187.75 117.01 186.73 117.09 187.43"/><polygon class="cls-10" points="118.37 187.8 120.24 187.74 118.74 186.65 117.01 186.73 118.37 187.8"/><polygon class="cls-5" points="118.37 187.8 118.39 188.55 120.22 188.43 120.24 187.74 118.37 187.8"/><path class="cls-5" d="M120.24,187.74a11,11,0,0,1-1.5-1l-.09-.06h0a9.37,9.37,0,0,1-1.69,0,9.93,9.93,0,0,1,1.68-.16h0l.09.07A10.92,10.92,0,0,1,120.24,187.74Z"/><path class="cls-10" d="M118.38,188.55s-.08-.17-.08-.37,0-.37.07-.37.08.16.08.37S118.43,188.55,118.38,188.55Z"/><polygon class="cls-5" points="120.26 187.35 121.56 188.47 121.55 187.68 120.18 186.65 120.26 187.35"/><polygon class="cls-10" points="121.54 187.72 123.41 187.66 121.9 186.57 120.18 186.65 121.54 187.72"/><polygon class="cls-5" points="121.54 187.72 121.56 188.47 123.39 188.35 123.41 187.66 121.54 187.72"/><path class="cls-5" d="M123.41,187.66a10.32,10.32,0,0,1-1.51-1l-.09-.06h0a9.2,9.2,0,0,1-1.68,0,9.89,9.89,0,0,1,1.67-.16h0l0,0,.09.06A11.51,11.51,0,0,1,123.41,187.66Z"/><path class="cls-10" d="M121.55,188.47s-.08-.17-.08-.37,0-.37.06-.37.08.16.09.37S121.59,188.47,121.55,188.47Z"/><polygon class="cls-5" points="123.28 187.21 124.58 188.33 124.58 187.53 123.2 186.51 123.28 187.21"/><polygon class="cls-10" points="124.56 187.58 126.43 187.52 124.93 186.43 123.2 186.51 124.56 187.58"/><polygon class="cls-5" points="124.56 187.58 124.58 188.33 126.41 188.21 126.43 187.52 124.56 187.58"/><path class="cls-5" d="M126.43,187.52a11,11,0,0,1-1.5-1l-.09-.06h0a9.33,9.33,0,0,1-1.69,0,9.93,9.93,0,0,1,1.68-.16h.05l.09.07A10.92,10.92,0,0,1,126.43,187.52Z"/><path class="cls-10" d="M124.57,188.33s-.08-.17-.08-.37,0-.37.07-.37.08.16.08.37S124.62,188.33,124.57,188.33Z"/><polygon class="cls-5" points="126.24 187.04 127.54 188.16 127.53 187.36 126.16 186.34 126.24 187.04"/><polygon class="cls-10" points="127.52 187.41 129.39 187.35 127.88 186.26 126.16 186.34 127.52 187.41"/><polygon class="cls-5" points="127.52 187.41 127.54 188.16 129.37 188.04 129.39 187.35 127.52 187.41"/><path class="cls-5" d="M129.39,187.35a11.46,11.46,0,0,1-1.51-1l-.09-.06h0a10.44,10.44,0,0,1-1.68,0,9.89,9.89,0,0,1,1.67-.16h0l.09.07A11.51,11.51,0,0,1,129.39,187.35Z"/><path class="cls-10" d="M127.53,188.16s-.08-.17-.09-.37,0-.37.07-.37.08.16.09.37S127.57,188.15,127.53,188.16Z"/><polygon class="cls-5" points="139.44 185.84 113.24 187.27 109.77 190.56 103.06 184.68 103.06 186.38 110.01 193.04 113.84 189.31 139.84 187.76 139.44 185.84"/><polygon class="cls-5" points="110.01 193.04 133.68 191.66 139.84 187.76 113.22 188.81 110.01 193.04"/><path class="cls-10" d="M139.84,187.76h-.08l-.23,0-.92.06-3.35.23-11.08.68-10.34.6,0,0-2.82,2.71-.78.73-.2.19L110,193s0,0,.06-.07l.19-.2L111,192l2.79-2.75h0l10.33-.63,11.08-.64,3.36-.18.92,0h.31Z"/><path class="cls-10" d="M113.84,189.31a3.57,3.57,0,0,1-.37-1,3.67,3.67,0,0,1-.23-1,3.77,3.77,0,0,1,.38,1A3.85,3.85,0,0,1,113.84,189.31Z"/><circle class="cls-6" cx="32.98" cy="98.91" r="13.81" transform="translate(-40.5 24.94) rotate(-26.37)"/><path class="cls-5" d="M50.77,100.06s-.15,0-.41.1a1.79,1.79,0,0,0-.88.65,1.83,1.83,0,0,0-.32.69,1.61,1.61,0,0,0,.09.86,1.66,1.66,0,0,0,3.11,0,1.58,1.58,0,0,0,.11-.85,1.75,1.75,0,0,0-.29-.71,1.82,1.82,0,0,0-.87-.68,2.59,2.59,0,0,0-.4-.1h.24a.61.61,0,0,1,.18,0,1.8,1.8,0,0,1,.93.67,1.84,1.84,0,0,1,.31.74,1.53,1.53,0,0,1-.11.91,1.85,1.85,0,0,1-1.68,1.14,1.74,1.74,0,0,1-1-.37,1.89,1.89,0,0,1-.62-.82,1.63,1.63,0,0,1-.08-.92,1.72,1.72,0,0,1,.34-.72,1.82,1.82,0,0,1,1-.65l.18,0h.24Z"/><path class="cls-5" d="M46.75,101a1.89,1.89,0,0,1,0-.22q0-.23.06-.66c0-.15,0-.31,0-.49s0-.37,0-.58v-.69a1.64,1.64,0,0,0,0-.38l0-.4a13.25,13.25,0,0,0-1-3.88A13.69,13.69,0,0,0,43,89.3l-.53-.53c-.18-.17-.38-.33-.58-.5l-.3-.25a3.65,3.65,0,0,0-.31-.24l-.66-.45-.33-.23-.36-.19-.73-.4c-.25-.13-.51-.23-.77-.35L38,86l-.19-.09-.21-.06a13.76,13.76,0,0,0-1.7-.47c-.3,0-.59-.13-.89-.17l-.91-.09-.47-.05H32.22a14.12,14.12,0,0,0-1.91.26l-.48.09-.24,0-.23.07-.95.3c-.32.11-.62.25-.93.37s-.32.12-.47.2l-.45.24a15.37,15.37,0,0,0-1.75,1.09L24,88.4l-.2.17-.19.18-.38.37-.38.38-.35.41-.34.41-.17.2c-.06.07-.11.15-.16.22l-.61.9-.53,1a14.85,14.85,0,0,0-1.37,4.21,14.61,14.61,0,0,0,0,4.43l.21,1.07c.11.35.22.7.32,1l.08.26.1.25.21.49.2.5.25.47.25.46.13.24.14.22c.2.29.39.58.58.87a15.58,15.58,0,0,0,1.35,1.56l.36.36a4,4,0,0,0,.38.34c.26.21.51.44.78.64l.81.56.21.14.21.12.43.24a14.32,14.32,0,0,0,1.74.81c.3.11.61.2.9.3l.45.14.45.1.9.18c.3,0,.6.07.9.11a14.86,14.86,0,0,0,1.76.06h.22l.21,0,.43,0c.28,0,.57,0,.84-.09l.81-.16.41-.08.38-.12.77-.23.37-.14.36-.15.7-.29.66-.35a13.85,13.85,0,0,0,4.09-3.36l.37-.44.31-.46.31-.44c0-.07.1-.14.14-.21L45,106l.47-.84c.14-.27.24-.54.36-.79l.16-.37a2.6,2.6,0,0,0,.13-.36l.21-.65c.06-.2.13-.39.18-.56l.1-.48.14-.65,0-.22s0,.08,0,.23-.07.36-.13.65l-.09.48-.17.56c-.07.2-.13.42-.21.66A1.66,1.66,0,0,1,46,104l-.16.37c-.11.26-.21.53-.35.81L45,106l-.13.22-.14.22-.3.44-.32.46-.37.45a13.79,13.79,0,0,1-4.09,3.39l-.67.35c-.23.11-.47.2-.71.3l-.36.15a2.35,2.35,0,0,1-.37.14l-.77.24-.39.11-.4.09-.82.16c-.28.05-.57.06-.85.1l-.43,0-.22,0h-.21a13.31,13.31,0,0,1-1.78-.07c-.3,0-.61,0-.91-.1l-.9-.18-.46-.1-.45-.14c-.3-.1-.61-.19-.91-.3a16.39,16.39,0,0,1-1.76-.82l-.43-.24-.22-.12-.2-.14-.83-.57c-.27-.2-.52-.43-.78-.64a4.13,4.13,0,0,1-.39-.34l-.36-.36a14.85,14.85,0,0,1-1.36-1.58c-.19-.29-.39-.58-.58-.88l-.15-.22-.13-.23-.25-.47-.25-.48-.21-.5-.21-.5-.1-.25-.08-.26-.32-1-.22-1.09a14.87,14.87,0,0,1,0-4.47,14.66,14.66,0,0,1,1.39-4.24l.53-1,.62-.9.15-.22.18-.21.35-.42.35-.41.38-.37.38-.38.19-.18.21-.17.82-.67a15.52,15.52,0,0,1,1.77-1.08l.46-.25c.15-.08.31-.13.47-.2s.62-.27.94-.38l1-.29.23-.07.25-.05.48-.1A14.16,14.16,0,0,1,32.22,85c.32,0,.63,0,1,0h.47c.16,0,.31,0,.47,0l.92.1c.3,0,.59.12.89.17a13,13,0,0,1,1.71.48l.21.06.2.09.4.17c.26.11.53.21.78.34l.73.41.36.2a4,4,0,0,1,.34.23l.66.45a3.65,3.65,0,0,1,.31.24l.3.26.59.5.52.53a13.81,13.81,0,0,1,2.89,4.47,13.31,13.31,0,0,1,.94,3.91l0,.4c0,.13,0,.26,0,.38s0,.47,0,.69,0,.41,0,.59l-.06.48c0,.29-.05.51-.07.66Z"/><path class="cls-7" d="M29.34,95.86h1.94A1.66,1.66,0,0,1,33,94.19a1.59,1.59,0,0,1,1.53,1,1.74,1.74,0,0,1-.14,1.58,2.12,2.12,0,0,1-2.37.81V102h1.93V99.41a3.77,3.77,0,0,0,2.7-3.68A3.5,3.5,0,0,0,33,92.22,3.34,3.34,0,0,0,29.34,95.86Z"/><rect class="cls-7" x="32" y="102.88" width="1.96" height="1.83"/><polygon class="cls-1" points="35.81 195.5 61.99 196.35 82.28 177.52 56.85 177.52 35.81 195.5"/><polygon class="cls-1" points="45.18 198.31 71.36 199.15 91.65 180.32 66.22 180.32 45.18 198.31"/><polygon class="cls-3" points="40.78 196.44 66.95 197.29 87.25 178.46 61.82 178.46 40.78 196.44"/><polygon class="cls-1" points="65.06 177.52 90.49 177.52 70.19 196.35 43.18 195.47 65.06 177.52"/><path class="cls-5" d="M65.06,177.52l-.11.08-.3.24-1.18.95L59,182.43l-15.87,13-.14.11h.18l25.91.85,1.1,0h0l0,0,20.28-18.84.12-.11h-.16l-18.47,0-5.15,0H72l18.45,0,0-.11-20.3,18.82.06,0-1.11,0-25.9-.83,0,.11L59,182.5l4.45-3.67,1.17-1,.3-.25Z"/><path class="cls-5" d="M55.94,188.38s4.05.2,9.06.36,9.06.25,9.06.2-4-.2-9.06-.36S55.94,188.34,55.94,188.38Z"/><path class="cls-5" d="M53.78,190c0,.05,4.12.21,9.2.36s9.21.25,9.21.21-4.12-.2-9.21-.36S53.78,189.94,53.78,190Z"/><path class="cls-5" d="M51.49,191.59s4.15.22,9.27.38,9.27.27,9.27.22-4.14-.21-9.27-.37S51.49,191.55,51.49,191.59Z"/><path class="cls-5" d="M57.19,186.92s4.17.21,9.32.38,9.33.26,9.33.21-4.17-.2-9.32-.37S57.19,186.88,57.19,186.92Z"/><path class="cls-5" d="M65.81,180.9s3.88.15,8.66.24,8.65.14,8.65.09-3.87-.15-8.65-.24S65.82,180.86,65.81,180.9Z"/><path class="cls-5" d="M63.65,182.51s4,.15,8.92.25,8.92.13,8.92.09-4-.15-8.92-.25S63.65,182.47,63.65,182.51Z"/><path class="cls-5" d="M61.49,184.11s4.19.16,9.35.26,9.36.15,9.36.1-4.18-.15-9.35-.25S61.49,184.07,61.49,184.11Z"/><path class="cls-5" d="M59.33,185.72s4.18.16,9.35.26,9.36.14,9.36.1-4.19-.16-9.35-.26S59.33,185.68,59.33,185.72Z"/><path class="cls-5" d="M67.07,179.45h.18l.52,0,1.91,0,6.31.11,6.31.07h2.43c.12,0,.18,0,.18,0h-.18l-.52,0-1.91,0L76,179.5l-6.31-.07H67.25Z"/><polygon class="cls-10" points="106.05 124.63 93.19 120.37 87.69 115.73 86.5 117.61 81.89 116.56 68.84 119.94 66.74 123.67 53.14 127.3 53.68 143.22 57.57 170.91 58.46 175.44 106.85 175.49 108.99 149.1 109.9 140.66 106.05 124.63"/><path class="cls-5" d="M76.2,138.29l.12-.09.32-.3,1.2-1.14,1.85-1.8c.71-.7,1.51-1.48,2.34-2.39l-.13,0c.39,1.7.84,3.61,1.31,5.65l.05.22.11-.19c.49-.85,1-1.74,1.5-2.65,2.3-4.1,4.27-7.86,5.75-10.56l1.76-3.19.48-.87.12-.23a.46.46,0,0,0,0-.08s0,0-.06.07l-.13.22-.51.85c-.44.74-1.06,1.82-1.81,3.17-1.51,2.68-3.5,6.44-5.79,10.54q-.77,1.37-1.5,2.64l.16,0-1.33-5.65,0-.14-.1.11c-.82.91-1.62,1.7-2.32,2.41l-1.82,1.82-1.17,1.17-.31.31Z"/><path class="cls-5" d="M75.53,137.85a2.23,2.23,0,0,0-.26-.37l-.77-1c-.65-.89-1.55-2.18-2.61-3.72l-.06-.08-.06.08a9,9,0,0,1-1.58,1.4c-.61.43-1.27.83-1.93,1.29l.13,0,0-.12c-.7-2.92-1.33-5.57-1.62-7.52-.15-1-.24-1.76-.29-2.31l-.06-.63,0-.22a.77.77,0,0,0,0,.22c0,.15,0,.36,0,.64,0,.55.1,1.34.24,2.32.25,2,.87,4.62,1.57,7.54l0,.12,0,.13.11-.07c.65-.46,1.32-.86,1.93-1.3a8.91,8.91,0,0,0,1.6-1.44h-.13c1.07,1.53,2,2.81,2.67,3.69.33.44.6.79.8,1l.22.26A.45.45,0,0,0,75.53,137.85Z"/><g class="cls-11"><polygon points="90.75 124.65 83.67 140.66 81.13 135.88 77.25 137.28 81.98 132.52 83.29 138.17 90.75 124.65"/></g><path class="cls-14" d="M87.83,117.93l-.08-26.27c0-7.94-4.55-14.59-12.49-14.4l-.74.06a14.2,14.2,0,0,0-13,14.15c0,6.89.1,14.51.44,18.17.72,7.6,8.41,8.16,8.41,8.16,0,.23.06,2.13.11,4.4l5.5,11.69Z"/><path class="cls-15" d="M70.32,117.8A18.46,18.46,0,0,0,80,114.07s-2,5.93-9.6,5.86Z"/><path class="cls-5" d="M62.91,95.17a22.55,22.55,0,0,1,2.59.07c1.39.24,2.33.92,2.5.83s0-.28-.46-.59a4.85,4.85,0,0,0-2-.81,4.51,4.51,0,0,0-2.08.09C63,94.91,62.84,95.1,62.91,95.17Z"/><path class="cls-5" d="M74.73,95.47c.19.07,1-.68,2.33-1.07s2.49-.21,2.6-.37-.16-.22-.66-.31a4.83,4.83,0,0,0-2.13.16,4.47,4.47,0,0,0-1.82,1C74.71,95.21,74.63,95.45,74.73,95.47Z"/><path class="cls-5" d="M77.79,97.25a.84.84,0,0,0,.88.78.81.81,0,0,0,.8-.83.84.84,0,0,0-.88-.78A.8.8,0,0,0,77.79,97.25Z"/><path class="cls-5" d="M65.9,98.05a.85.85,0,0,0,.88.78.8.8,0,0,0,.8-.83.84.84,0,0,0-.87-.78A.82.82,0,0,0,65.9,98.05Z"/><path class="cls-5" d="M71.37,103.36a7.3,7.3,0,0,0-1.93-.19c-.3,0-.58,0-.65-.24a1.48,1.48,0,0,1,.13-.9l.69-2.34a37.93,37.93,0,0,0,1.5-6.1,39.75,39.75,0,0,0-2,6l-.66,2.35a1.72,1.72,0,0,0-.06,1.19.75.75,0,0,0,.52.39,1.59,1.59,0,0,0,.52,0A8,8,0,0,0,71.37,103.36Z"/><path class="cls-5" d="M75,89.69c.13.28,1.15.06,2.37.11s2.22.31,2.36,0-.13-.39-.54-.64a3.94,3.94,0,0,0-1.8-.48,3.75,3.75,0,0,0-1.81.37C75.13,89.31,74.93,89.55,75,89.69Z"/><path class="cls-5" d="M62.92,92.15c.13.23,1.12,0,2.33-.08s2.2.09,2.33-.15-.15-.32-.57-.5a4.26,4.26,0,0,0-1.78-.28,4.37,4.37,0,0,0-1.77.46C63.05,91.81,62.86,92,62.92,92.15Z"/><path class="cls-14" d="M87.59,97.34c.13-.07,5.1-2,5.35,3.24s-5.49,4.7-5.5,4.55S87.59,97.34,87.59,97.34Z"/><path class="cls-15" d="M89.4,102.77s.09.06.25.12a.89.89,0,0,0,.68,0,2.24,2.24,0,0,0,.94-2.06A3.27,3.27,0,0,0,91,99.52a1,1,0,0,0-.72-.66.45.45,0,0,0-.52.27c-.07.15,0,.26,0,.27s-.12-.09-.09-.3a.59.59,0,0,1,.19-.34.68.68,0,0,1,.49-.16,1.27,1.27,0,0,1,1,.76,3.09,3.09,0,0,1,.39,1.44,2.35,2.35,0,0,1-1.21,2.31,1,1,0,0,1-.84-.09C89.41,102.9,89.38,102.78,89.4,102.77Z"/><path class="cls-5" d="M72.63,107c-.06-.14,1-.45,1.67-1.41a6,6,0,0,0,.71-1.37c.15-.38.26-.62.32-.6s0,.27,0,.68a4,4,0,0,1-.66,1.53,3.12,3.12,0,0,1-1.32,1C72.91,107,72.64,107,72.63,107Z"/><path class="cls-5" d="M54.93,86.79a1.42,1.42,0,0,0-.83,1.13,1.66,1.66,0,0,0,1.19,1.64,2.15,2.15,0,0,0,2-.54,2.86,2.86,0,0,0-.65.65,1.34,1.34,0,0,0,2,1.77l0,0a12.62,12.62,0,0,1,.61,1.22h0l0,.07c.12.25.24.51.39.76v0l1.83,3.41c.09-2.14-.11-5.16,0-7.3a11.93,11.93,0,0,0,8.47-4c1.16-1.3,2.06-2.93,3.62-3.72,2-1,4.41-.31,6.54.41L80,82.18a9.51,9.51,0,0,1,3,2.1,29.62,29.62,0,0,0,1.39,12.54c.2.61.76,1.85,1.36,2.08,1.17.44,1.47-.75,2.17-1.39A3.16,3.16,0,0,1,90.05,97a46.76,46.76,0,0,0,1.38-5.41l.71-1.86-.26-2.07c-1.1-1.82,1.2-2.79.59-4.84s-1.77-4.16-3.79-4.86l-.05,0a5.46,5.46,0,0,0-5.5.57A7.13,7.13,0,0,0,77.69,73a17.49,17.49,0,0,0-9.41.82c-2,.8-3.83,2.43-6.11,4.83-1,1-1.94,4.39-2.72,5.54Z"/><path class="cls-7" d="M80.77,70.07c.37.07,9.43,2.34,11.54,9.17s1.4,8.9,1.4,8.9a4.32,4.32,0,0,1,.93.84c.37.45-.24,2.57-1.42,2.31-8.79-4.15-19.31-4.8-31-4.71l-9-.33c-2.52.24-3.38-.45-2.31-1.06.82-.46,8-3.15,8-3.15l1.43-1,3.83-5s-.44-.73.48-1.3S73.37,68.86,80.77,70.07Z"/><path class="cls-5" d="M60.35,81.05H61.7c.87,0,2.13,0,3.68.09a69.76,69.76,0,0,1,12,1.78A106,106,0,0,1,89,86.44c1.47.52,2.65,1,3.46,1.27l.94.35.33.11a2.87,2.87,0,0,0-.32-.14l-.93-.38c-.81-.32-2-.78-3.44-1.31a99.14,99.14,0,0,0-11.64-3.56,66.43,66.43,0,0,0-12-1.73C62.28,80.92,60.35,81.05,60.35,81.05Z"/><g class="cls-11"><path d="M89,74.27s-9.78-1.82-14.22.19l.52-.25L71.1,75.94a2.63,2.63,0,0,1-2.21.21,19.4,19.4,0,0,1,6.4-3.23C79.43,71.63,86,71.18,89,74.27Z"/></g><path class="cls-5" d="M89.13,74.32a7.89,7.89,0,0,0-.87-.59,12.13,12.13,0,0,0-2.61-1.19,14.29,14.29,0,0,0-4.18-.7,12.29,12.29,0,0,0-5.12.87A23.47,23.47,0,0,0,74,73.94c-.75.44-1.49.82-2.17,1.26a13.44,13.44,0,0,1-1.93,1.17,4.2,4.2,0,0,1-1.9.33c-2.42,0-3.88-.55-3.77-.7a.36.36,0,0,0,.19.19,2.75,2.75,0,0,0,.73.27,13.67,13.67,0,0,0,2.84.35,4.36,4.36,0,0,0,2-.33,14,14,0,0,0,2-1.16c.66-.43,1.41-.82,2.16-1.25a21.41,21.41,0,0,1,2.39-1.22,12.27,12.27,0,0,1,5-.87,14.92,14.92,0,0,1,4.16.66,12.68,12.68,0,0,1,2.61,1.14,7.34,7.34,0,0,1,.66.4A1.82,1.82,0,0,0,89.13,74.32Z"/><g class="cls-11"><path d="M93.1,82.09a22,22,0,0,1-4.82-1c-1.85-.45-3.69-.82-5.51-1.36-1.39-.41-3-.78-3.92-1.81a2,2,0,0,0,.58,1.92,9.85,9.85,0,0,0,2.95,1.38,51.25,51.25,0,0,0,11.07,2.41,11.44,11.44,0,0,0-.35-1.58"/></g><path class="cls-7" d="M92,78.49c1.11.51,1.78.85,1.79,1.8,0,.79-.17,1.75-1,1.87a1.77,1.77,0,0,1-.72-.07L80.08,79.36a1.75,1.75,0,0,1-1.1-.54,1.23,1.23,0,0,1,.46-1.66,3.3,3.3,0,0,1,1.87-.36A39.92,39.92,0,0,1,92,78.49"/><path class="cls-5" d="M79.16,79a1.21,1.21,0,0,1-.31-.54A1.52,1.52,0,0,1,79.38,77a3.75,3.75,0,0,1,2.46-.48c1,.07,2,.16,3.16.3a32.41,32.41,0,0,1,5.64,1.13c.7.22,1.26.43,1.65.57l.44.17.16.06s0,0-.15-.08l-.43-.2c-.38-.17-.94-.39-1.64-.62A29.32,29.32,0,0,0,85,76.62c-1.12-.14-2.19-.23-3.17-.29a3.77,3.77,0,0,0-2.52.54,1.55,1.55,0,0,0-.53,1.61.94.94,0,0,0,.24.42A.78.78,0,0,0,79.16,79Z"/><polygon class="cls-6" points="62.98 77.58 70.62 77.6 69.92 79.74 61.62 79.37 62.98 77.58"/><path class="cls-5" d="M74.37,84.63S71,84,66.79,83.36s-7.59-1.15-7.6-1.11,3.39.61,7.58,1.26S74.36,84.67,74.37,84.63Z"/><path class="cls-10" d="M53.14,127.3s-3.52,1.65-6,9.24c-1.8,5.52-9.14,24.51-9.14,24.51l-8.12-2.27s-6,7.16-4.63,9.65,10.38,7.06,10.38,7.06h13a6.73,6.73,0,0,0,2.74-4.05L58,150Z"/><g class="cls-11"><polygon points="28.39 167.87 28.39 169.54 50.69 169.61 50.69 167.87 28.39 167.87"/></g><path class="cls-14" d="M26.59,164.39h0s-3.07,0-4.61-1.46-4.38-2.84-3.22-5.45a2.94,2.94,0,0,1-.27-3.37l0-.47s-3.46-1.45-2.46-3.22a2.35,2.35,0,0,1,2.92-1s-3.78-2.55-4.46-3.25c-1.82-1.86.14-3.12,2.16-2,3.35,1.85,14.66,7.17,15.43,11v1.67s3.14,3.86,3.14,4.09c0,.05,0,.36-.06.84A4.9,4.9,0,0,1,26.59,164.39Z"/><path class="cls-6" d="M8.84,130.77C8.7,130.59,26,158.5,26,158.5l.79,9.36h27l-2.51-10.65s-4.67-12.52-4.62-12.67S38,130.34,38,130.34Z"/><path class="cls-5" d="M8.84,130.77l.53,0,1.54,0,5.86-.11L38,130.27h0l0,0c2.32,3.65,4.86,7.65,7.5,12,.33.55.66,1.09,1,1.65.08.14.16.28.23.43a.5.5,0,0,1,0,.13s0,0,0,.06,0,0,0,0h0v0l.07.22.32.92c.45,1.23.9,2.47,1.35,3.73q1.41,3.76,2.86,7.71h0c.76,3.23,1.55,6.62,2.37,10.07,0,.2.09.39.13.58l0,.11H26.73v-.07c-.27-3.27-.53-6.4-.78-9.36v0L13.5,138.4,10,132.77l-.9-1.49-.23-.38-.07-.13,17.24,27.69v0h0q.38,4.45.79,9.37l-.08-.07h27l-.09.1-.13-.58-2.37-10.08v0l-2.85-7.72c-.46-1.25-.91-2.5-1.35-3.72-.11-.31-.22-.62-.32-.93l-.08-.23v-.12c-.06,0,.09,0,.05,0h-.05s0,0,0,0h0a.51.51,0,0,1,0-.1c-.07-.14-.15-.28-.23-.42-.31-.56-.64-1.1-1-1.64-2.63-4.32-5.17-8.33-7.48-12l.06,0-21.2.28-5.86.06-1.53,0Z"/><path class="cls-5" d="M44.28,145.23a.93.93,0,0,1-.24,0h-.7l-2.54-.05c-2.14-.05-5.11-.13-8.38-.18s-6.24,0-8.38,0c-1.08,0-1.94.07-2.54.11l-.69,0h-.24a.92.92,0,0,1,.24,0l.68-.07c.6,0,1.47-.12,2.54-.16,2.15-.1,5.12-.12,8.39-.07s6.24.15,8.39.23l2.54.1.69,0Z"/><path class="cls-5" d="M47.6,157.66c0,.05-3.83-.37-8.54-.93s-8.52-1.06-8.51-1.11,3.82.37,8.53.94S47.6,157.61,47.6,157.66Z"/><path class="cls-14" d="M22.7,159.55l5.06-.32a2.23,2.23,0,0,0,1.48-.48,1.34,1.34,0,0,0-.34-1.87l-5.8-1.4"/><path class="cls-15" d="M23.1,155.48a2.72,2.72,0,0,1,.45.08l1.23.27,4.14,1h0a1.19,1.19,0,0,1,.48.56,1.56,1.56,0,0,1,.15.74,1,1,0,0,1-.3.74,1.42,1.42,0,0,1-.67.36,7.81,7.81,0,0,1-1.4.14l-2.34.13-1.58.07a3.67,3.67,0,0,1-.58,0,3.61,3.61,0,0,1,.58-.07l1.57-.13,2.34-.17a8,8,0,0,0,1.36-.15,1.27,1.27,0,0,0,.61-.31.93.93,0,0,0,.24-.63,1.32,1.32,0,0,0-.54-1.14h0l-4.13-1-1.21-.32A2.52,2.52,0,0,1,23.1,155.48Z"/><path class="cls-14" d="M25,153.67a24.25,24.25,0,0,1,4.5,1.26,1,1,0,0,1,.66,1.16.8.8,0,0,1-.33.62,1.6,1.6,0,0,1-.71.19,18.26,18.26,0,0,1-4.3-.26,8.92,8.92,0,0,0-4.29.44"/><path class="cls-15" d="M20.57,157.08l.14-.08a2.91,2.91,0,0,1,.45-.17,7.19,7.19,0,0,1,1.72-.3,11.77,11.77,0,0,1,1.21,0,11.61,11.61,0,0,1,1.38.15,18.55,18.55,0,0,0,3.15.2,5.42,5.42,0,0,0,.81-.07.78.78,0,0,0,.6-.38,1,1,0,0,0-.27-1.27,4.55,4.55,0,0,0-.64-.27l-.63-.23-1.14-.37c-.71-.21-1.28-.35-1.68-.44s-.63-.14-.63-.15.06,0,.17,0l.47.07c.41.08,1,.2,1.7.4.36.1.75.21,1.16.35l.63.22a3,3,0,0,1,.68.28,1,1,0,0,1,.42.66,1.46,1.46,0,0,1-.09.82.8.8,0,0,1-.31.32,1.27,1.27,0,0,1-.41.15,7.71,7.71,0,0,1-.84.08,17.63,17.63,0,0,1-3.17-.23,11.52,11.52,0,0,0-1.36-.15,9.6,9.6,0,0,0-1.2,0,9.41,9.41,0,0,0-1.72.24C20.78,157,20.58,157.1,20.57,157.08Z"/><path class="cls-14" d="M19.24,149.48l4,2.22A4.09,4.09,0,0,1,24.82,153a1.4,1.4,0,0,1-.25,1.86,2,2,0,0,1-1.57,0,37.19,37.19,0,0,1-4.38-1.4"/><path class="cls-15" d="M18.62,153.49s.2.06.56.18l1.51.49c.65.2,1.42.42,2.28.64a2.51,2.51,0,0,0,1.33.07.92.92,0,0,0,.51-.42,1.22,1.22,0,0,0,.16-.68,1.78,1.78,0,0,0-.64-1.24,6.08,6.08,0,0,0-1.15-.77l-2.06-1.17-1.38-.8a5.77,5.77,0,0,1-.5-.31,3.41,3.41,0,0,1,.53.25l1.41.76,2.08,1.13a6.5,6.5,0,0,1,1.18.78,2.3,2.3,0,0,1,.48.59,1.75,1.75,0,0,1,.22.77,1.43,1.43,0,0,1-.18.78,1.07,1.07,0,0,1-.6.49,2.54,2.54,0,0,1-1.43-.08c-.86-.22-1.63-.46-2.27-.67s-1.16-.41-1.51-.55c-.17-.07-.31-.12-.4-.17S18.61,153.5,18.62,153.49Z"/><path class="cls-5" d="M105.58,153.48,82.51,174.92l-2.18,1-1.21.62.57-1,1.14-2.11L104.18,152a1,1,0,0,1,1.4,0h0A1,1,0,0,1,105.58,153.48Z"/><path class="cls-14" d="M105.15,165.53l-1.81.32s-9.37-3.46-10.71-3.63c-1-.13-6,1-8.15,1.56A1.91,1.91,0,0,0,83,165.69v0a1.92,1.92,0,0,0,1.21,1.64h0a1.73,1.73,0,0,0-1,2.52c.61,1.44,2.56,1.21,2.56,1.21l3.24.06s-.83.25-2.07.55a6.1,6.1,0,0,0-1.7.55s-2,1.88-.07,2.67a4,4,0,0,0,2,.35s-.56,2,1,2.37,11.51-.42,11.51-.42a8,8,0,0,1,2.57-.47l2.82-.19Z"/><path class="cls-15" d="M105.15,165.53s0,.07,0,.2v.57c0,.51,0,1.25,0,2.2,0,1.9-.09,4.65-.15,8.07l0-.06-2.58.17c-.46,0-.93.08-1.4.15a5.82,5.82,0,0,0-1.43.34h0c-2.09.15-4.36.3-6.77.41-1.21.05-2.45.1-3.72.08a7.45,7.45,0,0,1-.94-.08,1.19,1.19,0,0,1-.76-.44,1.51,1.51,0,0,1-.28-.88,3.4,3.4,0,0,1,.09-.95l0-.12h-.12a3.56,3.56,0,0,1-1.25-.11,3.08,3.08,0,0,1-1.16-.53,1,1,0,0,1-.18-1.14,3.37,3.37,0,0,1,.75-1.09h0a7.51,7.51,0,0,1,1.56-.52l2.18-.56.6-.16H89L85.76,171h0a3.4,3.4,0,0,1-1.31-.15,1.88,1.88,0,0,1-1-.75,1.84,1.84,0,0,1-.15-.28l-.11-.3c0-.1,0-.21-.07-.31s0-.21,0-.31a1.43,1.43,0,0,1,.51-1.09,1.77,1.77,0,0,1,.52-.33l.07,0,0,0h0c0,.13,0-.19,0-.16h0a.61.61,0,0,1-.14-.07,1.48,1.48,0,0,1-.27-.16,1.84,1.84,0,0,1-.68-1,1.74,1.74,0,0,1,.08-1.17,1.89,1.89,0,0,1,.77-.86,4.11,4.11,0,0,1,1.11-.35l1.15-.28,2.21-.5c.73-.15,1.43-.3,2.13-.42.34-.06.68-.12,1-.16a5.56,5.56,0,0,1,1-.07,17.08,17.08,0,0,1,1.84.51l1.71.56,3,1,4.19,1.5h0l1.35-.26.34-.06.11,0-.11,0-.33,0-1.37.23h0c-1-.36-2.37-.88-4.17-1.53l-3-1.06-1.7-.57a18,18,0,0,0-1.87-.52,7,7,0,0,0-1,.06l-1,.16-2.13.42-2.22.5-1.14.27-.58.14a1.8,1.8,0,0,0-.58.23,2.05,2.05,0,0,0-.84.93,1.91,1.91,0,0,0-.08,1.27,1.93,1.93,0,0,0,.74,1.06,1.67,1.67,0,0,0,.28.18l.15.07h0s0-.29,0-.15h0l0,0-.08,0a2.5,2.5,0,0,0-.56.35,1.8,1.8,0,0,0-.41.54,1.57,1.57,0,0,0-.16.67c0,.12,0,.23,0,.35s0,.22.08.33l.12.32c0,.1.1.21.16.31a2.06,2.06,0,0,0,1.11.81,3.56,3.56,0,0,0,1.38.16h0l3.24.06,0-.17-2.17.57a6.71,6.71,0,0,0-1.62.54h0a3.63,3.63,0,0,0-.79,1.15,1.38,1.38,0,0,0-.11.7,1,1,0,0,0,.33.63,3.16,3.16,0,0,0,1.24.56,3.63,3.63,0,0,0,1.31.12l-.09-.11a3.47,3.47,0,0,0-.1,1,1.71,1.71,0,0,0,.31,1,1.37,1.37,0,0,0,.87.52,8.05,8.05,0,0,0,1,.07c1.27,0,2.52,0,3.72-.08,2.42-.11,4.69-.27,6.78-.43h0A6.33,6.33,0,0,1,101,177c.47-.07.93-.12,1.39-.15l2.58-.18h.06v-.05c0-3.44.06-6.2.08-8.11,0-1,0-1.68,0-2.18v-.75Z"/><path class="cls-15" d="M84.36,167.37a18.75,18.75,0,0,0,2.57-.15,21.22,21.22,0,0,0,2.56-.32,18.75,18.75,0,0,0-2.57.15A19.06,19.06,0,0,0,84.36,167.37Z"/><path class="cls-15" d="M94.48,176.57s.14,0,.3-.2a1.25,1.25,0,0,0,.07-1.66c-.15-.18-.28-.24-.3-.22s.09.11.2.29a1.4,1.4,0,0,1,.21.76,1.47,1.47,0,0,1-.27.75C94.57,176.46,94.46,176.54,94.48,176.57Z"/><path class="cls-15" d="M94.63,173.17s.17,0,.4-.14a1.25,1.25,0,0,0,.53-.88,1.28,1.28,0,0,0-.33-1c-.19-.2-.35-.24-.36-.23s.12.11.27.31a1.33,1.33,0,0,1,.25.87,1.23,1.23,0,0,1-.44.8C94.77,173.09,94.62,173.15,94.63,173.17Z"/><path class="cls-15" d="M94.69,169.22s.17-.07.33-.32a1.55,1.55,0,0,0-.36-2.08c-.24-.17-.42-.21-.43-.19s.15.1.35.28a1.73,1.73,0,0,1,.51.91,1.77,1.77,0,0,1-.17,1C94.79,169.08,94.67,169.2,94.69,169.22Z"/><path class="cls-15" d="M93.5,164.16s.09,0,.15-.18a.82.82,0,0,0,0-.55.79.79,0,0,0-.32-.45c-.12-.08-.21-.09-.22-.07s.28.2.38.57A1.7,1.7,0,0,1,93.5,164.16Z"/><path class="cls-15" d="M88.74,171.1a5.32,5.32,0,0,0,1.4.06,5.49,5.49,0,0,0,1.4-.11,5.88,5.88,0,0,0-1.4-.06A6.84,6.84,0,0,0,88.74,171.1Z"/><path class="cls-15" d="M87.23,175.28a20.86,20.86,0,0,0,2.53-.46,17.74,17.74,0,0,0,2.49-.62,20.86,20.86,0,0,0-2.53.46A17.29,17.29,0,0,0,87.23,175.28Z"/><path class="cls-10" d="M105.52,124.34s7.41,1.13,11.46,6c2.83,3.4,21.22,20.89,23.2,26.75,1.4,4.13-1.08,11.19-8.2,12.76-4.08.9-26.81,8.61-26.81,8.61l-2.82-13.09,17-7.71S105.59,145.51,105.52,145s-1.23-21-1.23-21"/><path class="cls-5" d="M105.17,178.46a.31.31,0,0,1,0-.07l0-.18-.17-.71c-.14-.64-.35-1.55-.61-2.7-.5-2.32-1.22-5.58-2.06-9.41v-.06l.06,0,7.34-3.38,10.06-4.6,0,0a7.53,7.53,0,0,1,3.63-2.21,7.14,7.14,0,0,1,3.27-.07,7.49,7.49,0,0,1,2,.74c.22.12.37.23.48.3s.16.1.15.11l-.17-.09-.48-.28a7.9,7.9,0,0,0-2-.69,7,7,0,0,0-3.22.1,7.42,7.42,0,0,0-3.55,2.19h0l-10,4.62-7.34,3.37,0-.09c.81,3.83,1.51,7.1,2,9.42l.56,2.71.14.72,0,.18Z"/><path class="cls-5" d="M105.84,144.37a.68.68,0,0,1-.1-.14l-.26-.4c-.11-.18-.24-.4-.37-.66s-.3-.56-.44-.91-.32-.71-.46-1.13-.29-.85-.43-1.33a18.8,18.8,0,0,1-.58-3.15,20.14,20.14,0,0,1,0-3.2c.06-.49.1-1,.19-1.39s.16-.83.24-1.19.19-.69.27-1,.17-.53.25-.72l.18-.44c0-.11.06-.16.07-.16a1.29,1.29,0,0,1,0,.17l-.14.45a7.41,7.41,0,0,0-.22.73,8.39,8.39,0,0,0-.24,1c-.08.37-.17.76-.23,1.19s-.11.89-.16,1.38a18.22,18.22,0,0,0,.57,6.3c.14.47.26.92.42,1.33s.29.78.43,1.12.3.64.42.91.24.49.34.67l.23.42A.84.84,0,0,1,105.84,144.37Z"/><path class="cls-5" d="M53.59,141.21s1.17,7.69,2.51,17.2,2.38,17.22,2.33,17.22-1.17-7.69-2.51-17.2S53.54,141.21,53.59,141.21Z"/><path class="cls-5" d="M78.08,173.55s0,0,0-.1l0-.28-.12-1.07c-.1-.93-.22-2.27-.36-3.94-.28-3.33-.59-7.94-.78-13s-.2-9.72-.16-13.07c0-1.67,0-3,.08-4l0-1.08,0-.28c0-.06,0-.1,0-.09v1.45c0,.94,0,2.29,0,4,0,3.34,0,8,.21,13.05s.47,9.71.72,13c.13,1.66.24,3,.31,3.95l.08,1.07,0,.28Z"/></svg>