<svg id="Layer_1" data-name="Layer 1" xmlns="http://www.w3.org/2000/svg" viewBox="0 0 250 250"><defs><style>.cls-1{fill:#ececec;}.cls-2{fill:#fff;}.cls-3{fill:#fafafa;}.cls-4{fill:#e1e1e1;}.cls-5{fill:#ff735d;}.cls-6{fill:#1a2e35;}.cls-7{opacity:0.3;}.cls-8{fill:#375a64;}.cls-9{opacity:0.2;}.cls-10{fill:#ffbf9d;}.cls-11{fill:#ff9a6c;}</style></defs><rect class="cls-1" x="175.89" y="123.36" width="33.65" height="25.95" transform="translate(385.43 272.67) rotate(180)"/><rect class="cls-2" x="178.3" y="142.46" width="4.05" height="4.58" transform="translate(360.65 289.51) rotate(180)"/><rect class="cls-3" x="195.45" y="123.43" width="3.82" height="5.54"/><rect class="cls-3" x="195.45" y="143.7" width="3.82" height="5.54"/><path class="cls-4" d="M184.29,149.49c-.06,0-.11-5.71-.11-12.75s0-12.74.11-12.74.11,5.7.11,12.74S184.35,149.49,184.29,149.49Z"/><rect class="cls-1" x="162.17" y="149.23" width="58.05" height="44.77" transform="translate(382.39 343.23) rotate(180)"/><rect class="cls-2" x="166.32" y="182.19" width="7" height="7.91" transform="translate(339.64 372.28) rotate(180)"/><rect class="cls-3" x="195.92" y="149.34" width="6.59" height="9.55"/><rect class="cls-3" x="195.92" y="184.31" width="6.59" height="9.55"/><path class="cls-4" d="M176.66,194.31c-.1,0-.18-9.85-.18-22s.08-22,.18-22,.19,9.85.19,22S176.76,194.31,176.66,194.31Z"/><polygon class="cls-1" points="218.38 56.1 221.49 62.4 228.44 63.41 223.41 68.31 224.6 75.24 218.38 71.97 212.16 75.24 213.35 68.31 208.32 63.41 215.27 62.4 218.38 56.1"/><polygon class="cls-1" points="33.21 137.46 35.17 141.44 39.55 142.07 36.38 145.16 37.13 149.53 33.21 147.47 29.29 149.53 30.04 145.16 26.87 142.07 31.25 141.44 33.21 137.46"/><polygon class="cls-1" points="35.64 102.87 39.99 111.69 49.72 113.1 42.68 119.96 44.34 129.66 35.64 125.08 26.94 129.66 28.6 119.96 21.56 113.1 31.29 111.69 35.64 102.87"/><polygon class="cls-1" points="215.61 84.55 217.49 88.35 221.68 88.96 218.65 91.92 219.36 96.1 215.61 94.13 211.86 96.1 212.57 91.92 209.54 88.96 213.73 88.35 215.61 84.55"/><polygon class="cls-1" points="154.05 22.98 155.92 26.78 160.12 27.39 157.08 30.34 157.8 34.52 154.05 32.55 150.3 34.52 151.01 30.34 147.98 27.39 152.17 26.78 154.05 22.98"/><polygon class="cls-1" points="196.96 63.64 198.19 66.13 200.94 66.53 198.95 68.46 199.42 71.2 196.96 69.91 194.51 71.2 194.98 68.46 192.99 66.53 195.74 66.13 196.96 63.64"/><polygon class="cls-1" points="83.69 189.21 86.08 194.06 91.42 194.83 87.56 198.6 88.47 203.93 83.69 201.41 78.9 203.93 79.82 198.6 75.95 194.83 81.29 194.06 83.69 189.21"/><polygon class="cls-1" points="90 184.39 90.99 186.4 93.19 186.72 91.6 188.28 91.97 190.47 90 189.44 88.02 190.47 88.4 188.28 86.8 186.72 89.01 186.4 90 184.39"/><polygon class="cls-5" points="178.3 165.84 180.4 170.1 185.1 170.79 181.7 174.1 182.5 178.78 178.3 176.57 174.09 178.78 174.9 174.1 171.5 170.79 176.2 170.1 178.3 165.84"/><polygon class="cls-5" points="188.33 162.07 189.32 164.07 191.54 164.4 189.93 165.96 190.31 168.16 188.33 167.12 186.35 168.16 186.73 165.96 185.12 164.4 187.34 164.07 188.33 162.07"/><path class="cls-3" d="M175.18,51.19,176.83,46a16.05,16.05,0,1,1,12.92,8.83,15,15,0,0,1-9.23-4h0Z"/><path class="cls-6" d="M175.18,51.19l.36,0,1-.08,4-.27h0v0a14.8,14.8,0,0,0,7,3.61,15.54,15.54,0,0,0,2.45.35l1.3.05c.44,0,.89-.05,1.35-.07a16,16,0,0,0,10.56-5.39,15.77,15.77,0,0,0,3.3-6,16.22,16.22,0,0,0,.39-7.22,14.67,14.67,0,0,0-.42-1.83,7.36,7.36,0,0,0-.31-.9c-.11-.3-.22-.6-.34-.89a16.35,16.35,0,0,0-2-3.31,14.67,14.67,0,0,0-1.26-1.46,7.17,7.17,0,0,0-.69-.66c-.25-.21-.47-.44-.72-.63l-.77-.57-.38-.28-.41-.24-.8-.48c-.28-.16-.57-.28-.84-.41a15.95,15.95,0,0,0-21.69,8.79L176,34a4.75,4.75,0,0,0-.2.64c-.1.43-.21.85-.31,1.26a24.49,24.49,0,0,0-.29,2.46A16.09,16.09,0,0,0,176.87,46v0c-.55,1.66-1,2.94-1.25,3.81l-.33,1c-.07.22-.12.34-.12.34s0-.11.1-.33l.3-1c.27-.88.67-2.18,1.2-3.86v0a16,16,0,0,1-1.7-7.75c0-.8.17-1.62.28-2.48l.31-1.28a5.38,5.38,0,0,1,.2-.65l.23-.64a16.19,16.19,0,0,1,8.08-8.87,16.32,16.32,0,0,1,6.71-1.61,16.09,16.09,0,0,1,7.17,1.53c.28.14.57.26.85.42l.82.49.41.24.39.29.78.57c.25.2.48.43.73.64a8.94,8.94,0,0,1,.71.67A15.41,15.41,0,0,1,204,29.12a16.27,16.27,0,0,1,2,3.35c.13.3.23.61.35.91a7,7,0,0,1,.31.91,14.75,14.75,0,0,1,.43,1.86,16.36,16.36,0,0,1-.41,7.32,16.18,16.18,0,0,1-8.45,9.93A16.12,16.12,0,0,1,192.63,55c-.46,0-.91.07-1.36.07L190,55a16.14,16.14,0,0,1-2.47-.36,14.77,14.77,0,0,1-7-3.7l0,0-4,.2-1,.05Z"/><polygon class="cls-5" points="182.1 38.31 184.74 36.02 189.19 40.58 199.16 32.28 201.27 34.91 188.5 45.31 182.1 38.31"/><rect class="cls-4" x="37.8" y="36.04" width="99.51" height="141.25" rx="4.02" transform="translate(-21.1 21.6) rotate(-12.56)"/><path class="cls-6" d="M147.56,165.64l.3-.08a4.28,4.28,0,0,0,.83-.37,3.91,3.91,0,0,0,1.13-1,4,4,0,0,0,.81-3.13c-.08-.43-.2-.88-.3-1.36-.21-.95-.44-2-.7-3.12-.5-2.26-1.09-4.86-1.74-7.79L136.8,99.18,129.15,64.9q-2.07-9.24-4.27-19.09l-2.22-10q-.57-2.52-1.15-5.09a3.91,3.91,0,0,0-3.78-2.95,5.29,5.29,0,0,0-1.3.18l-1.31.29-2.62.59L107.21,30l-10.76,2.4L74.26,37.37,27.58,47.77a3.93,3.93,0,0,0-3,4.49c.42,2,.88,4,1.32,5.94L28.5,70q2.59,11.69,5.12,23c3.36,15.08,6.6,29.63,9.69,43.48s6,27,8.76,39.35c.34,1.54.68,3.07,1,4.58.17.76.33,1.52.51,2.26a3.94,3.94,0,0,0,3.13,2.86,4.49,4.49,0,0,0,1.1,0c.36,0,.73-.14,1.09-.22l4.34-1,16.45-3.66,49.64-11,13.5-3,3.51-.77,1.2-.26-1.19.28-3.51.79-13.49,3L79.74,180.83,63.29,184.5l-4.33,1c-.37.08-.73.17-1.11.22a4,4,0,0,1-1.15,0,4.08,4.08,0,0,1-2.05-1,4,4,0,0,1-1.2-2c-.19-.75-.34-1.5-.52-2.26-.33-1.51-.67-3-1-4.58-2.75-12.32-5.68-25.49-8.78-39.35S36.8,108.09,33.44,93Q30.92,81.7,28.31,70c-.87-3.89-1.74-7.82-2.62-11.76-.44-2-.89-4-1.32-6a4.11,4.11,0,0,1,.64-3,4.18,4.18,0,0,1,2.53-1.73l46.68-10.4,22.19-4.94,10.76-2.4,5.29-1.18,2.63-.58,1.3-.29a5.42,5.42,0,0,1,1.34-.19,4.08,4.08,0,0,1,4,3.09q.58,2.56,1.15,5.09l2.22,10,4.25,19.1c2.74,12.32,5.3,23.8,7.63,34.28,4.66,21,8.43,37.92,11,49.65l1.73,7.79.69,3.12c.1.48.22.93.29,1.37a3.74,3.74,0,0,1,0,1.25,4,4,0,0,1-.83,1.9,4.06,4.06,0,0,1-1.14,1,4.81,4.81,0,0,1-.84.36Z"/><g class="cls-7"><polygon points="62.8 180.94 144.15 162.34 141.58 146.4 136.97 137.46 59.15 168.03 62.8 180.94"/></g><g class="cls-7"><polygon points="96.77 32.55 99.84 37.63 100.44 40.32 98.35 40.79 96.77 32.55"/></g><polygon class="cls-2" points="29.14 53.23 57.36 179.87 145.83 160.16 140.78 137.51 117.6 33.51 29.14 53.23"/><path class="cls-6" d="M29.14,53.23l88.45-19.79.07,0,0,.08c7.85,35.19,17.64,79.11,28.24,126.62h0l0,.1-.09,0L57.38,180l-.09,0,0-.09L29.14,53.23c.17.77,11.59,51.86,28.31,126.62l-.11-.06,88.47-19.73-.08.12h0L117.53,33.53l.09.06Z"/><path class="cls-6" d="M58.4,33.66H91.61A6.33,6.33,0,0,1,97.93,40v7a0,0,0,0,1,0,0H52.07a0,0,0,0,1,0,0V40A6.33,6.33,0,0,1,58.4,33.66Z" transform="translate(-6.97 17.28) rotate(-12.56)"/><polygon class="cls-6" points="78.17 27.67 66.77 30.21 70.28 39.68 78.86 37.76 78.17 27.67"/><path class="cls-8" d="M93.06,29.47c0,.06-8.71,2-19.48,4.44s-19.52,4.31-19.53,4.26,8.71-2,19.49-4.44S93.05,29.42,93.06,29.47Z"/><path class="cls-8" d="M54.6,49.47c-.05,0-.5-1.81-1-4.08a40.71,40.71,0,0,1-.82-4.12s.5,1.82,1,4.08A41.31,41.31,0,0,1,54.6,49.47Z"/><path class="cls-8" d="M96.7,39.07a37.6,37.6,0,0,1-.93-3.7c-.45-2.06-.78-3.73-.73-3.74s.46,1.64.92,3.7S96.75,39.06,96.7,39.07Z"/><path class="cls-8" d="M94.92,41.28s-8.94,2.09-20,4.56-20,4.42-20,4.37,8.94-2.1,20-4.56S94.91,41.23,94.92,41.28Z"/><path class="cls-6" d="M71.36,78.12s-6,1.45-13.49,3.11-13.52,3-13.53,2.91,6-1.44,13.49-3.1S71.35,78.07,71.36,78.12Z"/><path class="cls-6" d="M116.39,73.05s-15.77,3.62-35.25,8-35.28,7.81-35.29,7.76,15.77-3.61,35.25-8S116.38,73,116.39,73.05Z"/><path class="cls-6" d="M117.36,77.4c0,.06-15.77,3.62-35.25,8s-35.28,7.82-35.29,7.76,15.77-3.61,35.25-8S117.35,77.35,117.36,77.4Z"/><path class="cls-6" d="M118.33,81.76s-15.77,3.61-35.25,7.95S47.8,97.53,47.79,97.48s15.77-3.62,35.25-8S118.32,81.7,118.33,81.76Z"/><path class="cls-6" d="M119.3,86.11s-15.77,3.61-35.25,8-35.28,7.82-35.29,7.77,15.77-3.62,35.25-8S119.29,86.06,119.3,86.11Z"/><path class="cls-6" d="M120.27,90.46c0,.05-15.77,3.61-35.25,8s-35.28,7.81-35.29,7.76,15.77-3.61,35.25-8S120.26,90.41,120.27,90.46Z"/><path class="cls-6" d="M63.41,121.1a.63.63,0,0,1,0-.15l-.11-.42c-.09-.37-.21-.9-.37-1.55-.31-1.35-.74-3.24-1.27-5.5l.1.06-7.63,1.72s.14-.22.07-.12h0v.1l0,.13.06.26.12.52c.07.34.15.68.22,1,.15.67.3,1.33.44,2,.28,1.28.55,2.49.79,3.6l-.1-.06,5.52-1.19,1.57-.33.42-.08c.09,0,.14,0,.15,0l-.13,0-.4.1-1.54.37-5.55,1.28-.08,0,0-.08-.81-3.6q-.23-1-.45-2c-.07-.33-.15-.67-.22-1l-.12-.52-.06-.26,0-.13v-.1h0c-.06.11.09-.14.08-.11l7.64-1.69.08,0,0,.08c.49,2.29.9,4.21,1.2,5.57.13.66.24,1.17.32,1.55l.08.4A.72.72,0,0,1,63.41,121.1Z"/><rect class="cls-4" x="66.74" y="108.15" width="54.58" height="4.55" transform="translate(-21.77 23.1) rotate(-12.56)"/><path class="cls-6" d="M66.36,134.34a1,1,0,0,1,0-.14l-.1-.42c-.09-.38-.22-.9-.37-1.55-.31-1.35-.75-3.24-1.27-5.51l.1.07L57,128.5s.14-.22.08-.11h0v0l0,.07,0,.13.06.26.12.52.22,1c.15.67.3,1.33.44,2,.28,1.28.55,2.49.8,3.61L58.7,136l5.52-1.18,1.57-.33.42-.08.15,0-.13,0-.4.1-1.53.37-5.56,1.28-.08,0,0-.09-.81-3.6c-.15-.64-.29-1.3-.44-2l-.23-1L57,129l-.06-.26,0-.13,0-.07v0h0c-.07.1.09-.14.07-.12l7.64-1.69h.08l0,.08c.49,2.29.91,4.21,1.2,5.57.13.65.24,1.17.32,1.55l.08.4A.84.84,0,0,1,66.36,134.34Z"/><rect class="cls-4" x="69.69" y="121.39" width="54.58" height="4.55" transform="translate(-24.58 24.06) rotate(-12.56)"/><path class="cls-6" d="M69.31,147.59a1,1,0,0,1,0-.15c0-.11-.06-.24-.1-.41-.09-.38-.22-.9-.37-1.56L67.53,140l.1.07L60,141.75s.13-.22.07-.11h0v0l0,.06,0,.13,0,.27.12.51.23,1c.15.68.29,1.34.43,2,.29,1.28.55,2.49.8,3.6l-.1-.06L67.18,148l1.56-.32.42-.09.15,0-.13,0-.4.1-1.53.36-5.56,1.28-.08,0,0-.08-.81-3.6c-.14-.64-.29-1.3-.44-2-.08-.34-.15-.68-.23-1L60,142.2l-.05-.26,0-.13,0-.07v-.05h0c-.07.1.09-.15.07-.12l7.64-1.69.09,0v.08c.5,2.3.91,4.21,1.2,5.58.14.65.24,1.17.32,1.54l.08.41C69.31,147.55,69.32,147.59,69.31,147.59Z"/><rect class="cls-4" x="72.64" y="134.64" width="54.58" height="4.55" transform="translate(-27.39 25.02) rotate(-12.56)"/><polygon class="cls-5" points="56.07 118.36 56.87 117.1 59.25 118.42 62.31 113.81 63.5 114.62 59.55 120.44 56.07 118.36"/><polygon class="cls-5" points="58.93 131.16 59.73 129.9 62.1 131.23 65.17 126.61 66.35 127.42 62.4 133.24 58.93 131.16"/><polygon class="cls-5" points="61.85 144.29 62.65 143.03 65.03 144.35 68.09 139.74 69.28 140.55 65.33 146.37 61.85 144.29"/><path class="cls-6" d="M86.23,160.77s-4.48,1.09-10,2.33-10.08,2.2-10.09,2.15,4.49-1.1,10.05-2.34S86.22,160.71,86.23,160.77Z"/><path class="cls-6" d="M96.26,158.37s-1.64.46-3.69.92a33.59,33.59,0,0,1-3.74.73c0-.05,1.64-.46,3.7-.92A33.68,33.68,0,0,1,96.26,158.37Z"/><path class="cls-6" d="M129.48,147.91c0,.05-4,1-9,2.12s-9.07,2-9.08,1.92,4-1,9-2.11S129.47,147.86,129.48,147.91Z"/><path class="cls-6" d="M125.16,160.17a1.87,1.87,0,0,1,.08-.37,2.41,2.41,0,0,0,0-1.08,9.78,9.78,0,0,0-.65-1.6,5.37,5.37,0,0,1-.63-2.22,3.4,3.4,0,0,1,1.18-2.51,3.21,3.21,0,0,1,3.09-.57,3.17,3.17,0,0,1,1.47,1,1.53,1.53,0,0,1,.35.88.8.8,0,0,1-.54.78,6.19,6.19,0,0,1-.92.23l-.92.19c-.63.12-1.26.24-1.91.32a13.9,13.9,0,0,1-3.81,0,2.31,2.31,0,0,0-1.67.28,5.8,5.8,0,0,0-1,1.36,1.59,1.59,0,0,1-.65.58,1.19,1.19,0,0,1-.85,0,7.69,7.69,0,0,1-1.36-.78,1.67,1.67,0,0,0-.66-.25,1,1,0,0,0-.62.16,3.63,3.63,0,0,0-.79,1,2.46,2.46,0,0,1-2,1.14,2.33,2.33,0,0,1-1.63-.58,2.43,2.43,0,0,1-.65-.89,1.52,1.52,0,0,1-.1-.37s0,.12.14.35a2.39,2.39,0,0,0,.65.85,2.26,2.26,0,0,0,1.58.53,2.37,2.37,0,0,0,1.86-1.1,3.56,3.56,0,0,1,.81-1.08,1.05,1.05,0,0,1,.73-.19,1.69,1.69,0,0,1,.72.26,7.62,7.62,0,0,0,1.33.76,1.08,1.08,0,0,0,.73,0,1.44,1.44,0,0,0,.57-.53,6.18,6.18,0,0,1,1.05-1.4A1.64,1.64,0,0,1,121,155a4.13,4.13,0,0,1,.93,0,13.54,13.54,0,0,0,3.76,0c.65-.09,1.28-.2,1.9-.32l.92-.19a7.1,7.1,0,0,0,.88-.21.62.62,0,0,0,.43-.61,1.29,1.29,0,0,0-.3-.76,3,3,0,0,0-1.38-.91,3.08,3.08,0,0,0-2.94.53A3.3,3.3,0,0,0,124,154.9a5.46,5.46,0,0,0,.6,2.17,9.55,9.55,0,0,1,.62,1.63,2.31,2.31,0,0,1,0,1.11A1.93,1.93,0,0,1,125.16,160.17Z"/><path class="cls-6" d="M134.78,154.21l-.24.07-.71.17-2.59.6c-2.2.51-5.22,1.23-8.55,2.07s-6.33,1.66-8.5,2.26l-2.57.7-.7.19a.88.88,0,0,1-.25,0l.24-.09.69-.22,2.55-.77c2.16-.63,5.16-1.46,8.49-2.31s6.37-1.54,8.57-2c1.1-.24,2-.42,2.61-.54l.71-.14A.79.79,0,0,1,134.78,154.21Z"/><rect class="cls-4" x="60.75" y="55.99" width="37.05" height="6.96" transform="translate(-11.04 18.67) rotate(-12.56)"/><polygon class="cls-5" points="130.8 162.3 142.48 224.02 153.16 204.29 173.4 216.17 151.92 156.07 130.8 162.3"/><g class="cls-7"><path d="M134.73,183.06a7,7,0,0,0,6.21-1.91c1.07-1.1,1.78-2.6,3.12-3.33a5.39,5.39,0,0,1,4-.2c1.33.36,2.58,1,3.91,1.32a10.16,10.16,0,0,0,7.78-1.16l-3.37-9.35-15.64-2-7.46,9Z"/></g><path class="cls-6" d="M152.4,201.84c-.07,0-1.81-6.39-3.89-14.32s-3.71-14.36-3.65-14.37,1.81,6.39,3.89,14.31S152.46,201.82,152.4,201.84Z"/><polygon class="cls-5" points="132.51 165.51 120.83 227.23 110.15 207.5 89.92 219.38 111.4 159.28 132.51 165.51"/><g class="cls-7"><path d="M105,177.25a8.37,8.37,0,0,0,7.29,1.48c4-1.26,6.42-1.53,8.57,0s8,6.5,8,6.5l1.35-7.12-7.8-10.71L114.19,169l-5.8.58-2.16,4.08Z"/></g><path class="cls-5" d="M201,109.79c0,4.43-5.66,8.25-6.49,12.43s2.9,10,1.25,14-8.36,5.39-10.76,9-1.13,10.31-4.2,13.38-9.76,1.77-13.38,4.19-4.94,9.09-9,10.77-9.65-2.11-14-1.26-8,6.49-12.43,6.49-8.25-5.66-12.43-6.49-10,2.9-14,1.26-5.39-8.37-9-10.77-10.31-1.13-13.38-4.19-1.77-9.77-4.19-13.38-9.09-4.95-10.77-9,2.11-9.66,1.26-14-6.49-8-6.49-12.43,5.66-8.24,6.49-12.42-2.9-10-1.26-14,8.37-5.39,10.77-9S80.24,64.1,83.3,61s9.77-1.78,13.38-4.2,4.95-9.09,9-10.76,9.65,2.11,14,1.25,8-6.48,12.43-6.48,8.24,5.66,12.43,6.48,10-2.9,14-1.25,5.39,8.36,9,10.76S177.75,58,180.81,61s1.78,9.76,4.2,13.38,9.09,4.94,10.76,9-2.11,9.65-1.25,14S201,105.37,201,109.79Z"/><path class="cls-6" d="M115.92,71.15,115.8,71l-.32-.57c-.27-.5-.65-1.22-1.1-2.13-.9-1.8-2.06-4.34-3.18-7.21s-2-5.53-2.55-7.47c-.28-1-.49-1.76-.63-2.31l-.15-.63a.66.66,0,0,1,0-.23,1,1,0,0,1,.08.22l.2.62c.17.57.41,1.34.7,2.28.6,1.92,1.49,4.56,2.61,7.43s2.25,5.41,3.11,7.23l1,2.16.27.58C115.9,71.07,115.93,71.14,115.92,71.15Z"/><path class="cls-6" d="M122.06,68.81a2,2,0,0,1-.18-.51c-.1-.33-.23-.82-.38-1.43-.31-1.21-.69-2.89-1-4.76s-.58-3.58-.72-4.82c-.07-.62-.12-1.12-.15-1.47a2.75,2.75,0,0,1,0-.54,1.81,1.81,0,0,1,.11.53c.07.39.14.88.23,1.46.18,1.23.45,2.93.79,4.8s.7,3.55,1,4.76c.13.57.23,1.06.31,1.45A1.77,1.77,0,0,1,122.06,68.81Z"/><path class="cls-6" d="M132.89,67.74c-.07,0-.24-5.22-.39-11.67s-.21-11.67-.14-11.67.24,5.22.38,11.67S133,67.74,132.89,67.74Z"/><path class="cls-6" d="M143.78,57c.06,0-.69,2.63-1.68,5.83s-1.85,5.78-1.91,5.76.69-2.63,1.68-5.83S143.71,57,143.78,57Z"/><path class="cls-6" d="M148.22,70.5l.06-.22.21-.61c.19-.54.48-1.3.84-2.24.73-1.88,1.78-4.47,3-7.3s2.3-5.4,3.11-7.24c.41-.9.74-1.63,1-2.18l.28-.59.11-.2s0,.08-.06.22l-.24.6L155.57,53c-.79,1.9-1.86,4.45-3,7.27s-2.24,5.38-3,7.27c-.37.91-.68,1.65-.91,2.21l-.25.6A.74.74,0,0,1,148.22,70.5Z"/><path class="cls-6" d="M154,73.54a3.37,3.37,0,0,1,.27-.48c.18-.29.46-.72.81-1.23.7-1,1.7-2.44,2.87-3.94s2.29-2.82,3.12-3.75l1-1.08c.25-.25.39-.39.4-.37a2.34,2.34,0,0,1-.33.43l-.94,1.14c-.79.95-1.89,2.28-3.06,3.78s-2.19,2.88-2.92,3.89l-.87,1.19C154.18,73.4,154.06,73.55,154,73.54Z"/><path class="cls-6" d="M162.51,80.48s3.64-3.55,8.23-7.82S179.08,65,179.13,65s-3.64,3.55-8.23,7.82S162.55,80.53,162.51,80.48Z"/><path class="cls-6" d="M177.3,81.92a11.74,11.74,0,0,1-1.41.77c-.87.45-2.06,1.11-3.37,1.85s-2.53,1.37-3.42,1.79l-1.07.48c-.26.1-.4.15-.41.13a14.21,14.21,0,0,1,1.4-.76c.88-.46,2.07-1.12,3.38-1.85s2.52-1.38,3.42-1.8c.45-.21.81-.37,1.07-.47A2.1,2.1,0,0,1,177.3,81.92Z"/><path class="cls-6" d="M191,87.6c0,.06-4.36,1.67-9.8,3.58s-9.85,3.41-9.87,3.35,4.36-1.67,9.79-3.58S191,87.54,191,87.6Z"/><path class="cls-6" d="M195.35,112.5c0,.06-4.78-.34-10.65-.9s-10.62-1.06-10.62-1.13,4.77.33,10.65.89S195.35,112.43,195.35,112.5Z"/><path class="cls-6" d="M191.84,134.82c0,.06-4.48-2-10-4.56s-9.88-4.73-9.85-4.79,4.49,2,10,4.57S191.87,134.76,191.84,134.82Z"/><path class="cls-6" d="M177.18,156.07c-.05,0-3.26-3.69-7.17-8.33s-7-8.43-7-8.48,3.26,3.69,7.17,8.33S177.24,156,177.18,156.07Z"/><path class="cls-6" d="M165,158.87a3.35,3.35,0,0,1-.39-.52c-.24-.34-.57-.85-1-1.48-.81-1.26-1.9-3-3-5s-2.13-3.81-2.81-5.14c-.35-.66-.62-1.21-.8-1.58a4.69,4.69,0,0,1-.26-.6,2.87,2.87,0,0,1,.35.55c.22.41.51.93.86,1.55.72,1.31,1.73,3.12,2.87,5.09s2.2,3.76,3,5l.91,1.52A5,5,0,0,1,165,158.87Z"/><path class="cls-6" d="M157.35,169.56a.7.7,0,0,1-.12-.19l-.31-.57c-.26-.5-.62-1.22-1-2.13-.85-1.81-2-4.35-3-7.23s-1.83-5.53-2.34-7.47c-.26-1-.45-1.75-.57-2.3l-.13-.63a.67.67,0,0,1,0-.23.61.61,0,0,1,.08.21c0,.17.1.38.18.62l.63,2.29c.55,1.92,1.37,4.56,2.41,7.43s2.12,5.41,2.94,7.24l1,2.16.26.59C157.33,169.48,157.36,169.55,157.35,169.56Z"/><path class="cls-6" d="M142,162.07a11.14,11.14,0,0,1-.2-1.62c-.11-1-.28-2.39-.53-3.9s-.55-2.88-.77-3.86a13.36,13.36,0,0,1-.34-1.6,1.75,1.75,0,0,1,.16.41c.09.27.21.66.34,1.15.27,1,.59,2.34.85,3.86s.39,2.91.46,3.92c0,.51,0,.92,0,1.2A2.21,2.21,0,0,1,142,162.07Z"/><path class="cls-6" d="M131.89,175.47a.64.64,0,0,1,0-.24c0-.18,0-.41,0-.68,0-.6,0-1.46,0-2.52,0-2.13.14-5.06.31-8.3s.37-6.17.54-8.29c.09-1.05.17-1.91.23-2.5l.07-.68a1.17,1.17,0,0,1,0-.24.73.73,0,0,1,0,.24l0,.68c0,.63-.08,1.48-.15,2.52-.12,2.15-.29,5.06-.47,8.28s-.3,6.17-.38,8.29c0,1-.07,1.89-.09,2.52,0,.27,0,.5,0,.68A.75.75,0,0,1,131.89,175.47Z"/><path class="cls-6" d="M123.7,152a5.85,5.85,0,0,1-.14,1.19c-.12.73-.32,1.73-.57,2.82s-.53,2.08-.74,2.79a5,5,0,0,1-.41,1.13,6.83,6.83,0,0,1,.24-1.17l.67-2.8c.24-1,.46-2,.64-2.8A7.52,7.52,0,0,1,123.7,152Z"/><path class="cls-6" d="M108.9,144.91a27,27,0,0,1-2,2.89,24.27,24.27,0,0,1-2.23,2.74,25.87,25.87,0,0,1,2-2.89A27.15,27.15,0,0,1,108.9,144.91Z"/><path class="cls-6" d="M101.14,139.69c0,.05-2.84,3.44-6.46,7.58s-6.58,7.46-6.63,7.42,2.84-3.44,6.45-7.58S101.09,139.65,101.14,139.69Z"/><path class="cls-6" d="M97.25,133.92A46.29,46.29,0,0,1,93.66,137,45.35,45.35,0,0,1,89.92,140a45.28,45.28,0,0,1,3.59-3.11A47,47,0,0,1,97.25,133.92Z"/><path class="cls-6" d="M92.71,125.21c0,.06-4,2.06-9,4.46s-9.07,4.31-9.1,4.25,4-2.06,9-4.47S92.68,125.15,92.71,125.21Z"/><path class="cls-6" d="M90.88,120.86a1.41,1.41,0,0,1-.42.12c-.27.07-.67.15-1.16.24-1,.18-2.35.39-3.87.54s-2.9.22-3.9.24c-.5,0-.9,0-1.18,0a1.84,1.84,0,0,1-.43,0,11.09,11.09,0,0,1,1.61-.13c1-.06,2.37-.16,3.88-.31s2.88-.33,3.86-.47A12.82,12.82,0,0,1,90.88,120.86Z"/><path class="cls-6" d="M89.41,110.83a4.68,4.68,0,0,1-.82,0l-2.21-.11c-1.87-.09-4.46-.18-7.31-.16s-5.44.13-7.31.24l-2.21.13a4.24,4.24,0,0,1-.82,0,4.73,4.73,0,0,1,.81-.12c.52-.06,1.27-.14,2.21-.21,1.87-.16,4.45-.3,7.32-.32s5.45.1,7.32.24c.93.06,1.69.13,2.21.19A4.29,4.29,0,0,1,89.41,110.83Z"/><path class="cls-6" d="M90.32,102c0,.06-3-.72-6.73-1.75s-6.69-1.93-6.67-2S80,99,83.65,100,90.34,102,90.32,102Z"/><path class="cls-6" d="M92.27,94.63a.73.73,0,0,1-.22,0l-.62-.18c-.53-.17-1.3-.43-2.24-.77A76,76,0,0,1,82,90.56a73.35,73.35,0,0,1-6.81-3.82c-.85-.54-1.52-1-2-1.31l-.52-.37c-.12-.09-.18-.14-.17-.15l.2.11.55.33c.47.3,1.15.73,2,1.24,1.7,1,4.1,2.4,6.82,3.75s5.28,2.41,7.14,3.13l2.2.84.6.23Z"/><path class="cls-6" d="M96.65,87.21c0,.05-2.39-1.54-5.26-3.56s-5.17-3.7-5.13-3.76,2.4,1.54,5.27,3.56S96.69,87.15,96.65,87.21Z"/><path class="cls-6" d="M87.39,64.57l.17.13.48.41,1.71,1.52,5.64,5,5.67,5,1.71,1.52.46.42c.1.1.15.16.14.16s-.06,0-.18-.12l-.48-.39-1.77-1.46c-1.48-1.25-3.5-3-5.71-5s-4.18-3.76-5.59-5.08c-.71-.66-1.28-1.2-1.67-1.58l-.44-.44C87.43,64.64,87.38,64.58,87.39,64.57Z"/><path class="cls-6" d="M101.91,65s.13.1.32.32.46.54.78.94c.65.81,1.51,2,2.41,3.26s1.64,2.52,2.16,3.42c.26.45.46.82.59,1.07a1.65,1.65,0,0,1,.19.42,16.38,16.38,0,0,1-.93-1.4c-.55-.87-1.32-2.07-2.21-3.37s-1.73-2.46-2.34-3.29A13.65,13.65,0,0,1,101.91,65Z"/><g class="cls-9"><path d="M83.3,61l20.26,17.73,5-4-11.75-18a11.22,11.22,0,0,1-3.24,1.33C91.33,58.71,84.66,58.89,83.3,61Z"/></g><g class="cls-9"><path d="M105.85,46l9.89,24.75,6.32-2L120,47.34a10.92,10.92,0,0,1-3.5-.05C114.11,47,108.43,44.77,105.85,46Z"/></g><g class="cls-7"><path d="M132.22,40.85l.67,26.89,5.92.28,6-20.63a9.73,9.73,0,0,1-3.49-1.45C139.27,44.63,135.09,40.64,132.22,40.85Z"/></g><g class="cls-9"><path d="M158.05,45.93l-9.83,24.79,5.36,2.55L167.1,56.58a12.26,12.26,0,0,1-2.57-3C163.24,51.49,161.05,46.76,158.05,45.93Z"/></g><g class="cls-9"><path d="M181.14,61.4,162.83,80.48l4.08,5.5L184.8,74a10.78,10.78,0,0,1-1.18-3.49C183.19,68.23,183.13,64,181.14,61.4Z"/></g><g class="cls-9"><path d="M195.59,82.94,170.94,93.08l2,6.3,21.45-2.33a12.79,12.79,0,0,1,.15-3.08C194.85,91.63,197.31,86.4,195.59,82.94Z"/></g><g class="cls-9"><path d="M201,109.79l-26.87.94-.23,5.93,20.51,6a8.06,8.06,0,0,1,.81-2.45C196.77,117.36,201,113.33,201,109.79Z"/></g><g class="cls-9"><path d="M196.09,135.21l-24.74-9.65-2.51,5.38,16.84,13.35a16.3,16.3,0,0,1,2.92-2.22C190.65,140.76,195.52,138.65,196.09,135.21Z"/></g><g class="cls-9"><path d="M159.7,134.82,153.57,140c.46.49,8.63,14.36,13.66,22.94l.2-.16c3.32-2.22,9.21-1.33,12.53-3.52Z"/><path d="M148.44,144.55l-9.15,3.11,4.33,24.83a7,7,0,0,1,.87-.24c4.31-.85,10,2.9,14,1.26a5.73,5.73,0,0,0,1.5-.94Z"/><path d="M131.74,178.73l1.46-32.43-7.9-2-5.89,27.93.22,0C123.71,173.06,127.45,178.47,131.74,178.73Z"/><path d="M111.86,140.79s-10.45,14-15.91,21.53c.25.13.5.27.73.42,3.59,2.4,4.95,9.09,9,10.77a4.23,4.23,0,0,0,.57.19l14.6-27.63Z"/><path d="M101.14,129.52,78.85,144.84a4.19,4.19,0,0,1,.26.33c2.42,3.61,1.13,10.31,4.19,13.38a6.15,6.15,0,0,0,1,.73c7.87-8.88,22-24.81,22.52-25.36Z"/><path d="M96,118.59l-26.34,4.25c.42,4.23-2.92,9.57-1.35,13.35a5.13,5.13,0,0,0,.34.66c9.22-4.59,28.48-14.14,29.29-14.19Z"/><path d="M94.59,103.91l-24.9-7.19c0,.22,0,.43-.09.65-.83,4.18-6.49,8-6.49,12.42a6.67,6.67,0,0,0,.07.89h30.4Z"/><path d="M68.44,83.2C77.75,88.19,96,98.28,96,98.28l4.48-8.51-21-15.84c-.09.17-.18.33-.28.49C76.75,78,70.25,79.32,68.44,83.2Z"/></g><path class="cls-6" d="M201,109.79a2.25,2.25,0,0,1,0-.29,4.79,4.79,0,0,0-.13-.87,9.23,9.23,0,0,0-1.39-3.12c-.8-1.29-2-2.72-3.28-4.54a11.35,11.35,0,0,1-1.6-3.19,9.11,9.11,0,0,1,0-4.06c.25-1.42.68-2.88,1-4.43a11.8,11.8,0,0,0,.36-4.94A5.6,5.6,0,0,0,194.84,82a11.08,11.08,0,0,0-2.07-1.84c-1.55-1.09-3.32-2-5-3.11a11.7,11.7,0,0,1-2.37-2,7.7,7.7,0,0,1-1.46-2.88c-.6-2.11-.73-4.38-1.18-6.64a10.57,10.57,0,0,0-1.15-3.29,5.6,5.6,0,0,0-2.65-2.29,14.17,14.17,0,0,0-3.56-.95c-1.24-.21-2.5-.35-3.77-.58a11.73,11.73,0,0,1-3.73-1.17A8.86,8.86,0,0,1,165,54.42c-.78-1.11-1.44-2.3-2.15-3.48a18.83,18.83,0,0,0-2.42-3.36,5.75,5.75,0,0,0-3.67-1.8,14.48,14.48,0,0,0-4.26.5c-1.41.34-2.83.76-4.3,1a9,9,0,0,1-4.49-.08,15.52,15.52,0,0,1-4-2.3c-1.23-.91-2.45-1.88-3.77-2.69a7.22,7.22,0,0,0-4.4-1.25l-.29,0-.29.06c-.19,0-.38.08-.57.14a7.37,7.37,0,0,0-1.1.43,13.32,13.32,0,0,0-2.06,1.2c-1.33.9-2.58,1.94-3.94,2.86a15.1,15.1,0,0,1-2.14,1.24,7.25,7.25,0,0,1-2.42.61,17.07,17.07,0,0,1-5-.71,34.67,34.67,0,0,0-4.94-1,7.51,7.51,0,0,0-2.5.17,5.42,5.42,0,0,0-2.19,1.2,16.72,16.72,0,0,0-3.07,4.11,28.53,28.53,0,0,1-2.92,4.38,7.21,7.21,0,0,1-2.1,1.66,11.21,11.21,0,0,1-2.54.87c-1.75.39-3.53.55-5.3.87a9.13,9.13,0,0,0-4.84,2.06A6.64,6.64,0,0,0,82,63.41,14.72,14.72,0,0,0,81.32,66c-.32,1.8-.48,3.64-.91,5.46a9.68,9.68,0,0,1-1,2.62,7.4,7.4,0,0,1-1.87,2.11,44.36,44.36,0,0,1-4.74,3,20.23,20.23,0,0,0-2.31,1.6A7.53,7.53,0,0,0,68.7,83a5.33,5.33,0,0,0-.65,2.69,13.53,13.53,0,0,0,.32,2.81c.4,1.86,1,3.69,1.3,5.6a9.53,9.53,0,0,1,.1,2.92,8.05,8.05,0,0,1-1,2.76c-1,1.7-2.24,3.19-3.36,4.77a15.38,15.38,0,0,0-1.5,2.49,5.81,5.81,0,0,0,0,5.55,15.38,15.38,0,0,0,1.5,2.49c1.12,1.58,2.39,3.07,3.36,4.77a8.07,8.07,0,0,1,1,2.76,9.85,9.85,0,0,1-.09,2.92c-.32,1.91-.91,3.75-1.3,5.61a13.39,13.39,0,0,0-.33,2.81,5.39,5.39,0,0,0,.64,2.68,7.43,7.43,0,0,0,1.8,2.11,20.23,20.23,0,0,0,2.31,1.6,45.52,45.52,0,0,1,4.75,3,7.52,7.52,0,0,1,1.86,2.11,9.39,9.39,0,0,1,1,2.62c.43,1.82.58,3.66.91,5.46a14.72,14.72,0,0,0,.68,2.63,6.62,6.62,0,0,0,1.37,2.28,9.17,9.17,0,0,0,4.85,2.07c1.76.31,3.55.48,5.3.86a12.1,12.1,0,0,1,2.54.87,7.38,7.38,0,0,1,2.1,1.66,28.13,28.13,0,0,1,2.92,4.39,16.72,16.72,0,0,0,3.07,4.11,5.54,5.54,0,0,0,2.19,1.2,7.76,7.76,0,0,0,2.5.17,33.37,33.37,0,0,0,4.94-1,17.07,17.07,0,0,1,5-.71,7.45,7.45,0,0,1,2.42.62,14.19,14.19,0,0,1,2.14,1.24c1.36.92,2.61,2,3.94,2.86a14.73,14.73,0,0,0,2.06,1.2,11.38,11.38,0,0,0,1.1.43l.57.13.29.07.29,0a7.29,7.29,0,0,0,4.4-1.26c1.33-.81,2.54-1.78,3.78-2.69a15.3,15.3,0,0,1,4-2.29,9.15,9.15,0,0,1,4.5-.09c1.47.28,2.88.69,4.3,1a13.77,13.77,0,0,0,4.26.5,5.72,5.72,0,0,0,3.67-1.8,19,19,0,0,0,2.42-3.36c.7-1.17,1.37-2.37,2.14-3.48a8.73,8.73,0,0,1,2.87-2.77,12,12,0,0,1,3.74-1.18c1.27-.22,2.53-.37,3.76-.57a14.36,14.36,0,0,0,3.56-.95,5.53,5.53,0,0,0,2.65-2.3,10.57,10.57,0,0,0,1.15-3.29c.45-2.26.59-4.53,1.19-6.64a7.54,7.54,0,0,1,1.45-2.88,11.15,11.15,0,0,1,2.38-2c1.7-1.14,3.47-2,5-3.12a10.77,10.77,0,0,0,2.07-1.84,5.6,5.6,0,0,0,1.15-2.36,8,8,0,0,0,.08-2.53,22.83,22.83,0,0,0-.44-2.41c-.37-1.55-.8-3-1-4.43a8.92,8.92,0,0,1,0-4,11,11,0,0,1,1.59-3.19c1.27-1.82,2.48-3.26,3.28-4.55a9.23,9.23,0,0,0,1.39-3.12,4.71,4.71,0,0,0,.13-.86,2.29,2.29,0,0,1,0-.3s0,.1,0,.3a4.49,4.49,0,0,1-.11.87,9.31,9.31,0,0,1-1.38,3.14c-.79,1.29-2,2.74-3.26,4.56a10.68,10.68,0,0,0-1.57,3.17,8.89,8.89,0,0,0,0,4c.26,1.42.68,2.88,1.06,4.43a20.33,20.33,0,0,1,.44,2.42,8,8,0,0,1-.06,2.57,5.9,5.9,0,0,1-1.18,2.41,10.66,10.66,0,0,1-2.09,1.86c-1.55,1.11-3.33,2-5,3.13a11.43,11.43,0,0,0-2.34,2,7.57,7.57,0,0,0-1.43,2.83c-.59,2.09-.72,4.36-1.17,6.63a10.71,10.71,0,0,1-1.16,3.34,5.78,5.78,0,0,1-2.72,2.37,15.07,15.07,0,0,1-3.6,1c-1.24.2-2.5.35-3.76.57a12,12,0,0,0-3.68,1.16,8.42,8.42,0,0,0-2.81,2.73c-.77,1.1-1.43,2.29-2.14,3.47a19.38,19.38,0,0,1-2.44,3.39,5.87,5.87,0,0,1-3.79,1.86,14.08,14.08,0,0,1-4.32-.5c-1.42-.34-2.83-.75-4.29-1a8.86,8.86,0,0,0-4.4.08,15.36,15.36,0,0,0-3.91,2.26c-1.24.91-2.45,1.89-3.79,2.71-.35.19-.68.4-1,.56l-.54.25-.56.2a5.8,5.8,0,0,1-2.38.28l-.3,0c-.1,0-.2,0-.3-.06s-.39-.08-.59-.14a9.11,9.11,0,0,1-1.13-.44,15,15,0,0,1-2.09-1.21c-1.34-.91-2.59-2-3.94-2.86a13,13,0,0,0-2.11-1.22,7,7,0,0,0-2.35-.6,16.84,16.84,0,0,0-4.9.71,34,34,0,0,1-5,1,8,8,0,0,1-2.58-.17,5.8,5.8,0,0,1-2.28-1.25,17,17,0,0,1-3.12-4.17A28.23,28.23,0,0,0,98,164.07a7,7,0,0,0-2-1.61,11.44,11.44,0,0,0-2.49-.85c-1.73-.38-3.52-.54-5.29-.87a14.15,14.15,0,0,1-2.63-.69,6.59,6.59,0,0,1-2.34-1.44,6.74,6.74,0,0,1-1.43-2.36,13.79,13.79,0,0,1-.69-2.67c-.33-1.81-.48-3.65-.91-5.44a9.21,9.21,0,0,0-1-2.56,7.4,7.4,0,0,0-1.82-2.05,43.83,43.83,0,0,0-4.71-3,22.14,22.14,0,0,1-2.34-1.62,7.78,7.78,0,0,1-1.86-2.18,5.6,5.6,0,0,1-.67-2.8,13.71,13.71,0,0,1,.33-2.86c.4-1.88,1-3.71,1.3-5.6a9.67,9.67,0,0,0,.09-2.84,7.89,7.89,0,0,0-1-2.68c-1-1.67-2.22-3.16-3.35-4.75a16.16,16.16,0,0,1-1.52-2.53,6.81,6.81,0,0,1-.72-2.88,6.93,6.93,0,0,1,.73-2.87,16.16,16.16,0,0,1,1.52-2.53c1.13-1.59,2.39-3.08,3.34-4.75a7.49,7.49,0,0,0,1-2.68,9.34,9.34,0,0,0-.1-2.84c-.31-1.89-.9-3.72-1.29-5.6a13.71,13.71,0,0,1-.33-2.86,5.67,5.67,0,0,1,.67-2.79,8,8,0,0,1,1.87-2.18,23.09,23.09,0,0,1,2.33-1.62,43,43,0,0,0,4.72-3,7.21,7.21,0,0,0,1.81-2,9.33,9.33,0,0,0,1-2.56c.43-1.79.58-3.63.91-5.44a15.4,15.4,0,0,1,.69-2.67,5.86,5.86,0,0,1,3.77-3.8,14.36,14.36,0,0,1,2.63-.69c1.78-.32,3.56-.48,5.29-.86A12.39,12.39,0,0,0,96,57.13a7.19,7.19,0,0,0,2-1.61,27.61,27.61,0,0,0,2.89-4.35A17,17,0,0,1,104,47a5.8,5.8,0,0,1,2.28-1.25,7.75,7.75,0,0,1,2.58-.17,32.71,32.71,0,0,1,5,1,16.83,16.83,0,0,0,4.9.7,7,7,0,0,0,2.35-.59,14.28,14.28,0,0,0,2.11-1.22c1.35-.91,2.6-2,3.94-2.86a14.08,14.08,0,0,1,2.09-1.22,11,11,0,0,1,1.13-.44l.59-.13.3-.07.3,0a5.64,5.64,0,0,1,2.38.28l.56.2c.18.07.36.16.54.25a9.42,9.42,0,0,1,1,.56c1.35.81,2.56,1.79,3.8,2.7A15.11,15.11,0,0,0,143.77,47a9,9,0,0,0,4.4.08c1.45-.27,2.87-.68,4.29-1a14.39,14.39,0,0,1,4.32-.5,6,6,0,0,1,3.79,1.86,19.08,19.08,0,0,1,2.44,3.4c.71,1.18,1.37,2.36,2.14,3.47A8.55,8.55,0,0,0,168,57a11.45,11.45,0,0,0,3.68,1.16c1.26.23,2.53.37,3.77.58a14.86,14.86,0,0,1,3.6,1,5.76,5.76,0,0,1,2.72,2.36,10.71,10.71,0,0,1,1.16,3.34c.45,2.28.58,4.54,1.17,6.63a7.36,7.36,0,0,0,1.43,2.83,10.89,10.89,0,0,0,2.34,2c1.69,1.14,3.46,2,5,3.13a11.3,11.3,0,0,1,2.09,1.86,5.9,5.9,0,0,1,1.18,2.41,8.3,8.3,0,0,1,.07,2.58,22.83,22.83,0,0,1-.45,2.41c-.38,1.56-.8,3-1.06,4.43a8.89,8.89,0,0,0,0,4,10.86,10.86,0,0,0,1.57,3.18c1.26,1.82,2.47,3.26,3.26,4.56a9.15,9.15,0,0,1,1.38,3.14,4.32,4.32,0,0,1,.11.87C201,109.69,201,109.79,201,109.79Z"/><path class="cls-6" d="M119.13,173.78c.06,0-1.66,7-3.84,15.56s-4,15.52-4.08,15.5,1.66-7,3.84-15.56S119.06,173.76,119.13,173.78Z"/><circle class="cls-2" cx="132.06" cy="109.79" r="42.26"/><path class="cls-8" d="M106,95.15A26.51,26.51,0,0,0,102,106.37c-.29,4.8.4,31.8.4,31.8l.13,1.79c7.61,8.9,35.26,22.14,60.17,0h0l1.4-16.61-4.11-35.15-14.28-3.5-3.35-5.43L120,84.46l-2,4.7Z"/><path class="cls-6" d="M140.76,65.1A65.31,65.31,0,0,0,143.05,54a22.89,22.89,0,0,0-1.47-11.13c-.23-.53-2.11-4-2.68-4-.41.06.82,3.37.63,3.73a19.43,19.43,0,0,0-1.6,11.44,51.29,51.29,0,0,0,2.83,11"/><path class="cls-10" d="M140.39,50.67c-.18-9.49-5.85-17.29-15.32-16.85l-.87.1A17,17,0,0,0,109,51.19c.2,8.22.53,17.3,1,21.67,1.07,9,10.27,9.49,10.27,9.49s.42,6,.42,6l3.89,4.22,18-11.16Z"/><path class="cls-11" d="M120.33,82.42a22,22,0,0,0,11.42-4.73,11.28,11.28,0,0,1-11,8.34Z"/><path class="cls-6" d="M114.22,58.57a1.3,1.3,0,0,0,1.39,1.17,1.25,1.25,0,0,0,1.21-1.31,1.3,1.3,0,0,0-1.38-1.17A1.26,1.26,0,0,0,114.22,58.57Z"/><path class="cls-6" d="M111.35,54.75c.18.15,1.08-.68,2.47-.82s2.49.44,2.62.26-.13-.37-.61-.65a3.57,3.57,0,0,0-2.12-.42,3.44,3.44,0,0,0-1.94.87C111.37,54.36,111.26,54.68,111.35,54.75Z"/><path class="cls-6" d="M126.51,57.52a1.31,1.31,0,0,0,1.39,1.18,1.25,1.25,0,0,0,1.21-1.31,1.3,1.3,0,0,0-1.39-1.17A1.25,1.25,0,0,0,126.51,57.52Z"/><path class="cls-6" d="M125,53.87c.18.15,1.09-.67,2.48-.82s2.48.45,2.61.26-.12-.37-.6-.64a3.61,3.61,0,0,0-2.12-.42,3.47,3.47,0,0,0-2,.86C125.06,53.49,125,53.81,125,53.87Z"/><path class="cls-6" d="M121.17,65.09a9.1,9.1,0,0,0-2.3-.17c-.36,0-.7,0-.79-.27a1.82,1.82,0,0,1,.13-1.08c.24-.89.49-1.83.76-2.82,1-4,1.78-7.28,1.61-7.32a47.26,47.26,0,0,0-2.19,7.18q-.39,1.47-.72,2.82a2,2,0,0,0,0,1.42.91.91,0,0,0,.64.46,3.23,3.23,0,0,0,.61,0A9.46,9.46,0,0,0,121.17,65.09Z"/><path class="cls-6" d="M125.37,65.62c-.23,0-.08,1.52-1.26,2.73s-2.8,1.21-2.79,1.42.39.26,1.07.2a3.72,3.72,0,0,0,2.34-1.1,3.25,3.25,0,0,0,1-2.28C125.68,66,125.47,65.6,125.37,65.62Z"/><path class="cls-6" d="M124.51,48.22c.18.36,1.55,0,3.2.06s3,.33,3.21,0c.07-.17-.19-.5-.76-.81a5.55,5.55,0,0,0-4.88,0C124.71,47.72,124.44,48.05,124.51,48.22Z"/><path class="cls-6" d="M111.44,50.06c.27.29,1.2-.14,2.35-.27s2.15,0,2.34-.37c.08-.17-.11-.47-.56-.72a3.22,3.22,0,0,0-2-.32,3.36,3.36,0,0,0-1.82.83C111.41,49.58,111.31,49.92,111.44,50.06Z"/><path class="cls-10" d="M140.36,57.45c.15-.09,6-2.5,6.48,3.71S141,66.54,141,66.37,140.36,57.45,140.36,57.45Z"/><path class="cls-11" d="M142.67,63.88s.11.06.3.13a1.05,1.05,0,0,0,.81,0,2.66,2.66,0,0,0,1.06-2.49,3.54,3.54,0,0,0-.41-1.53,1.26,1.26,0,0,0-.88-.77.55.55,0,0,0-.61.35c-.07.18,0,.3-.06.31s-.14-.09-.11-.35a.7.7,0,0,1,.22-.41.81.81,0,0,1,.59-.2,1.5,1.5,0,0,1,1.2.88,3.69,3.69,0,0,1,.5,1.7,2.83,2.83,0,0,1-1.38,2.8,1.14,1.14,0,0,1-1-.1C142.69,64,142.65,63.89,142.67,63.88Z"/><path class="cls-6" d="M112.38,40.64c-1-.49,1.76-3.94,4.16-5.22,3.63-1.93,9.26-3.34,12.77-2.59,4.22.91,7.8,2.75,10.12,6.39A24.59,24.59,0,0,1,143,51.52a7.49,7.49,0,0,1-.63,3.85c-.78,1.43-2.39,2.41-2.2,4.3a2.59,2.59,0,0,1-.52,1.93c-1.06,1.29-2.52.24-3.24-.86-1.52-2.34-1.86-5.24-2.16-8a18.15,18.15,0,0,1,0-5.93c.23-1.06.66-2.07.84-3.14a3.77,3.77,0,0,0-.64-3.07,4.81,4.81,0,0,0-.54-.48,6.5,6.5,0,0,0-6.51-.81c-3.42,1.47-9.27,3.7-10.91,2.61a9.59,9.59,0,0,1-3-2.64Z"/><path class="cls-8" d="M106,95.15c-.36.5-5.45,2.19-7.38,5.4s-3.84,17.66-3.84,17.66l-1.23,9.51c2.43,3.83,5.67,8.9,9.12,12.48Z"/><g class="cls-7"><path d="M144.27,109.09a24.11,24.11,0,0,0,1.1,5.73,8.29,8.29,0,0,0,3.54,4.5,9.63,9.63,0,0,1,2.12,1.21c.64.6,1,1.46,1.55,2.12a6,6,0,0,0,2.61,1.53,22.89,22.89,0,0,0,8.67,1.38c.09-1,.1-4.65.19-5.65Z"/></g><path class="cls-8" d="M159.94,88.16s6.42,1.89,8.29,4.63,5.22,13.32,5.9,15.29.09,6.52-1.2,9.8-3.5,6.09-7.34,6.52-9.92-1.8-11.28-3.25-1.94-4.71-1.94-4.71a36.41,36.41,0,0,0,5-1.26"/><path class="cls-6" d="M157.41,115.18l-.08,0-.24.09-1,.31a36.19,36.19,0,0,1-3.75.89l.05-.07a16,16,0,0,0,.66,2.35,9.83,9.83,0,0,0,.55,1.26,4.48,4.48,0,0,0,.86,1.17,6.24,6.24,0,0,0,1.3.86c.48.25,1,.48,1.51.69a23.88,23.88,0,0,0,3.41,1.08,17,17,0,0,0,3.83.49c.33,0,.67,0,1,0s.67-.09,1-.18a6.9,6.9,0,0,0,1.93-.75,8.66,8.66,0,0,0,3.06-3,15.75,15.75,0,0,0,1.82-4.12,24.29,24.29,0,0,0,.74-3.42,16.67,16.67,0,0,0,.17-3.37,6.17,6.17,0,0,0-.34-1.6l-.51-1.55c-.34-1-.68-2-1-3-.66-1.95-1.32-3.79-2-5.49a32.91,32.91,0,0,0-2.06-4.63,5.42,5.42,0,0,0-1.45-1.62,12.62,12.62,0,0,0-1.63-1.1,26.21,26.21,0,0,0-2.85-1.37c-.8-.33-1.43-.57-1.86-.72l-.5-.17-.16-.06s.06,0,.17,0l.5.15c.44.13,1.08.35,1.89.67a22.59,22.59,0,0,1,2.87,1.35A11.79,11.79,0,0,1,167,91.46a5.57,5.57,0,0,1,1.5,1.65,34.08,34.08,0,0,1,2.11,4.64c.66,1.71,1.32,3.55,2,5.5.33,1,.66,2,1,3l.51,1.55a6.07,6.07,0,0,1,.35,1.65,16.5,16.5,0,0,1-.16,3.43,23.65,23.65,0,0,1-.75,3.45,15.89,15.89,0,0,1-1.85,4.18,8.92,8.92,0,0,1-3.14,3.06,7.13,7.13,0,0,1-2,.77,7.41,7.41,0,0,1-1,.18c-.35,0-.69.06-1,0a17.9,17.9,0,0,1-3.88-.51,23.77,23.77,0,0,1-3.43-1.11,16.55,16.55,0,0,1-1.53-.71,6.44,6.44,0,0,1-1.33-.89,4.84,4.84,0,0,1-.88-1.22,8.92,8.92,0,0,1-.55-1.29,15.75,15.75,0,0,1-.64-2.38v-.06h.06c1.64-.28,2.9-.61,3.75-.84l1-.28.24-.07C157.38,115.18,157.41,115.17,157.41,115.18Z"/><path class="cls-6" d="M169.18,111.74c-.05,0-.19-.79-.73-2a13.46,13.46,0,0,0-2.9-4.11,9.33,9.33,0,0,0-2.25-1.6l-.57-.25a3.92,3.92,0,0,0-.55-.18,5.3,5.3,0,0,0-1-.22l-.23,0h-.64a2.52,2.52,0,0,0-.65.06,2.2,2.2,0,0,1-.57,0,3.07,3.07,0,0,1,.55-.15,2.88,2.88,0,0,1,.67-.1l.42,0h.23l.24,0a5.4,5.4,0,0,1,1.06.19,4.3,4.3,0,0,1,.58.18l.59.25a9.09,9.09,0,0,1,2.32,1.63,12.66,12.66,0,0,1,2.88,4.21,6.84,6.84,0,0,1,.31.84,5,5,0,0,1,.18.64A2.58,2.58,0,0,1,169.18,111.74Z"/><path class="cls-6" d="M172.68,106a11.65,11.65,0,0,0-1-2,7.61,7.61,0,0,0-4.09-3.09,13.1,13.1,0,0,0-5.21-.29l-1.6.19a2.38,2.38,0,0,1-.59,0,2.27,2.27,0,0,1,.58-.14c.37-.07.91-.17,1.59-.27a12.42,12.42,0,0,1,5.31.23,7.22,7.22,0,0,1,2.58,1.41,7.78,7.78,0,0,1,1.58,1.82,6.59,6.59,0,0,1,.68,1.47A2.11,2.11,0,0,1,172.68,106Z"/><path class="cls-6" d="M167.84,99.1a19,19,0,0,0-3.81-.37,19.62,19.62,0,0,0-3.78.67,3.54,3.54,0,0,1,1.06-.44,10.55,10.55,0,0,1,2.71-.47,10.69,10.69,0,0,1,2.74.25A3.48,3.48,0,0,1,167.84,99.1Z"/><path class="cls-6" d="M157.46,89.76s-.05.65-.13,1.7a27.1,27.1,0,0,0,0,4.11,27.75,27.75,0,0,0,.66,3.92l-.17.06c-.19-.54-.34-1-.44-1.28a2,2,0,0,1-.12-.48,2.29,2.29,0,0,1,.22.44c.12.3.3.72.51,1.26l-.17.05a21.23,21.23,0,0,1-.69-8.09c.06-.53.13-1,.18-1.25S157.44,89.75,157.46,89.76Z"/><path class="cls-10" d="M148.39,77.81s-3.33,0-3.75,4a55.51,55.51,0,0,0,0,7.41c0,1.34-.59,6.13-.59,6.13s-2.28,2-2.24,4.43a3.39,3.39,0,0,0,1.77,3.18,4.1,4.1,0,0,0,1,4.42s-1,2.23-.17,3.74a3.6,3.6,0,0,0,2,1.55,2.27,2.27,0,0,0,1.38,3.12,9.88,9.88,0,0,0,3.46.43l2.49,0,2.19,1.21s3.74-1.64,3.84-3.85l.1-2.21a45.62,45.62,0,0,1-1.16-4.8c-.09-1.16.87-3.94.29-5.19s-2.59-2-2.4-3.74a4.15,4.15,0,0,0-1.06-3.67c-.86-1-4.69-2.88-4.69-2.88a18.12,18.12,0,0,1-1-4.71C149.83,84.41,151.75,78.55,148.39,77.81Z"/><path class="cls-11" d="M150.63,91.77a4.31,4.31,0,0,1-.92.6c-.58.34-1.4.8-2.31,1.29s-1.74.93-2.35,1.24a6.39,6.39,0,0,1-1,.45,4.31,4.31,0,0,1,.92-.6c.59-.35,1.4-.8,2.31-1.3s1.74-.93,2.35-1.23A4.65,4.65,0,0,1,150.63,91.77Z"/><path class="cls-11" d="M152.82,99.3a1.79,1.79,0,0,1-.29.26c-.2.15-.49.36-.87.61a17.59,17.59,0,0,1-3.12,1.57,16.47,16.47,0,0,1-3.38.91c-.44.07-.8.11-1,.13a1.31,1.31,0,0,1-.39,0s.54-.11,1.41-.3a21,21,0,0,0,3.32-1,21.47,21.47,0,0,0,3.12-1.49A10.83,10.83,0,0,1,152.82,99.3Z"/><path class="cls-11" d="M155.68,96.9c.06,0-.07.45-.46.81s-.83.44-.85.38.34-.24.69-.56S155.61,96.87,155.68,96.9Z"/><path class="cls-11" d="M154.31,105.89a7.38,7.38,0,0,1-1.4.51,26,26,0,0,1-3.49.8,27.08,27.08,0,0,1-3.57.33,6.84,6.84,0,0,1-1.48,0,11.69,11.69,0,0,1,1.48-.13c.91-.06,2.16-.18,3.53-.4s2.6-.5,3.49-.73A10.85,10.85,0,0,1,154.31,105.89Z"/><path class="cls-11" d="M157.35,105.33a7.22,7.22,0,0,1,.25-.71,4.08,4.08,0,0,0,.19-1.76,4.17,4.17,0,0,0-.6-1.68c-.24-.39-.44-.6-.41-.63s.26.15.56.54a3.69,3.69,0,0,1,.69,1.74,3.55,3.55,0,0,1-.27,1.85C157.57,105.13,157.37,105.35,157.35,105.33Z"/><path class="cls-11" d="M154.48,112.63a5.28,5.28,0,0,1-1.18.28,18.92,18.92,0,0,1-2.93.23,18.5,18.5,0,0,1-2.93-.25,5.82,5.82,0,0,1-1.18-.28,7.32,7.32,0,0,1,1.21.11,27,27,0,0,0,2.9.17,25.32,25.32,0,0,0,2.9-.15A7.32,7.32,0,0,1,154.48,112.63Z"/><path class="cls-11" d="M148.57,86.39s-.15.15-.46.26a2.94,2.94,0,0,1-1.28.13,2.9,2.9,0,0,1-1.21-.43c-.28-.18-.41-.34-.39-.36a6,6,0,0,0,1.63.55A6.38,6.38,0,0,0,148.57,86.39Z"/><path class="cls-11" d="M158,105.62a1,1,0,0,1,.05.36,4,4,0,0,1-.11,1c-.09.41-.25.88-.39,1.4a3.94,3.94,0,0,0-.18,1.69c.08.59.53,1.07.59,1.67a2.23,2.23,0,0,1-.36,1.44,5.24,5.24,0,0,1-.6.78c-.16.17-.26.25-.27.24s.32-.4.72-1.11a2,2,0,0,0,.29-1.32c-.05-.51-.5-1-.6-1.66a3.92,3.92,0,0,1,.19-1.8c.16-.52.33-1,.44-1.37A9.27,9.27,0,0,0,158,105.62Z"/><path class="cls-6" d="M159.29,108.54a1.71,1.71,0,0,1,.16.44c.08.28.19.7.3,1.23a11.45,11.45,0,0,1,.22,1.86,4.91,4.91,0,0,1-.42,2.29,6.45,6.45,0,0,1-1.43,1.82,12.72,12.72,0,0,1-1.48,1.16c-.44.3-.81.52-1.07.67s-.41.22-.42.2.54-.38,1.39-1A17.26,17.26,0,0,0,158,116a6.82,6.82,0,0,0,1.36-1.77,5,5,0,0,0,.42-2.17,13.15,13.15,0,0,0-.17-1.84C159.41,109.19,159.25,108.55,159.29,108.54Z"/><path class="cls-6" d="M124.16,93a3.14,3.14,0,0,1-.54-.4l-1.41-1.17-1-.81a2.6,2.6,0,0,0-.54-.4.73.73,0,0,0-.63,0c-.4.21-.67.73-1,1.16l-1,1.38-1.6,2.14-.3.41.09-.5a25.13,25.13,0,0,1,1.16-4.06c.19-.49.36-.87.48-1.12a2.37,2.37,0,0,1,.2-.39,2.68,2.68,0,0,1-.13.42c-.1.26-.25.65-.41,1.14a28,28,0,0,0-1.07,4.06l-.21-.09,1.6-2.16,1-1.38.49-.65A1.76,1.76,0,0,1,120,90a.92.92,0,0,1,.81,0,3,3,0,0,1,.59.44l.94.83,1.36,1.23A3.76,3.76,0,0,1,124.16,93Z"/><path class="cls-6" d="M143.82,89.11l-.18.16-.55.43L141,91.24l-6.85,5-.11.08-.07-.11-.17-.27-3.43-5.42.12,0a25.68,25.68,0,0,0-3.81,1.9l-1,.64a2.1,2.1,0,0,1-.36.22,2,2,0,0,1,.33-.27c.22-.17.55-.41,1-.69a22.86,22.86,0,0,1,3.8-2l.08,0,.05.08,3.47,5.4.17.27-.18,0,6.9-5L143,89.62l.58-.39A.66.66,0,0,1,143.82,89.11Z"/><path class="cls-6" d="M102,107.62a1.5,1.5,0,0,1,0,.33l0,.94c0,.85,0,2,.06,3.47.06,2.93.17,7,.32,11.43s.25,8.51.26,11.44c0,1.46,0,2.64,0,3.46l0,.95a1.34,1.34,0,0,1,0,.32,2,2,0,0,1,0-.32l0-.95c0-.84,0-2-.06-3.46-.06-2.93-.18-7-.33-11.43s-.24-8.51-.25-11.44c0-1.46,0-2.65,0-3.47l0-.94C102,107.74,102,107.62,102,107.62Z"/><path class="cls-6" d="M124.31,149.68s0-.05,0-.13l0-.4c0-.37-.09-.88-.15-1.52-.13-1.33-.28-3.24-.43-5.61s-.28-5.2-.36-8.34-.08-6.6,0-10.22.25-7.08.46-10.22.46-5.95.72-8.31.48-4.27.67-5.59l.21-1.51.06-.4,0-.13s0,0,0,.14l0,.39c0,.37-.1.88-.17,1.52-.16,1.32-.36,3.23-.59,5.6s-.47,5.18-.67,8.31-.35,6.58-.44,10.2-.06,7.07,0,10.21.17,6,.3,8.34.25,4.29.35,5.61c0,.65.08,1.16.1,1.53l0,.39C124.32,149.63,124.32,149.68,124.31,149.68Z"/><path class="cls-6" d="M110.44,73.47l-.49.33-1.46.94c-.64.42-1.37,1-2.28,1.66-.44.34-.89.74-1.38,1.15l-.76.64c-.26.23-.51.48-.77.72A41.7,41.7,0,0,0,96.56,87l-.83,1.33c-.29.44-.51.94-.78,1.42s-.54,1-.78,1.48-.47,1-.72,1.56c-.11.27-.25.53-.35.81l-.32.83c-.21.56-.44,1.13-.64,1.71-.35,1.18-.78,2.37-1,3.64a40.57,40.57,0,0,0-1.15,8,41,41,0,0,0,.49,8.77,42.16,42.16,0,0,0,67.22,26.7,45.34,45.34,0,0,0,4.16-3.64l1-1c.31-.33.62-.66.91-1l.89-1,.83-1.06a41.85,41.85,0,0,0,5.34-9,41.38,41.38,0,0,0,2.85-9.55,40.91,40.91,0,0,0,.55-4.75c.05-.78.05-1.56.08-2.34s-.06-1.53-.09-2.29c0-.38,0-.76,0-1.14s-.09-.75-.13-1.12c-.08-.74-.17-1.47-.26-2.2s-.28-1.43-.42-2.14a19.7,19.7,0,0,0-.49-2.08c-.19-.68-.38-1.35-.58-2a7.87,7.87,0,0,0-.32-1l-.36-1c-.25-.63-.45-1.27-.73-1.87s-.56-1.19-.83-1.78a42,42,0,0,0-8-11.35,43.6,43.6,0,0,0-8.3-6.46l-1.77-1c-.28-.17-.56-.3-.83-.43l-.79-.37L148.85,71c-.42-.21-.83-.33-1.18-.48l-1.62-.63-.55-.22.56.2,1.63.61c.35.14.76.26,1.19.47l1.4.65.78.37a8.22,8.22,0,0,1,.84.42l1.78,1A43.65,43.65,0,0,1,162,79.9a41.88,41.88,0,0,1,8.09,11.37c.28.58.56,1.18.84,1.78s.48,1.25.73,1.88l.37,1a10.24,10.24,0,0,1,.33,1c.19.66.39,1.34.58,2a17.69,17.69,0,0,1,.5,2.09c.13.71.3,1.42.42,2.15l.27,2.21c0,.38.1.75.13,1.13s0,.75,0,1.14c0,.76.08,1.53.09,2.31s0,1.56-.07,2.34a43.75,43.75,0,0,1-.55,4.78,42.19,42.19,0,0,1-8.22,18.67l-.83,1.06-.89,1c-.3.35-.6.68-.92,1l-.95,1a43.13,43.13,0,0,1-4.19,3.65A42.37,42.37,0,0,1,90.24,116.6a43.23,43.23,0,0,1,.69-16.86c.27-1.28.7-2.47,1-3.65.21-.59.44-1.15.65-1.72l.32-.83c.11-.28.24-.54.36-.81L94,91.16c.24-.51.52-1,.78-1.48s.5-1,.79-1.42.56-.9.84-1.34a41.64,41.64,0,0,1,6.78-8.08c.27-.24.52-.49.78-.72l.76-.63c.5-.41,1-.81,1.4-1.14.91-.65,1.65-1.24,2.3-1.65l1.47-.92Z"/></svg>