<svg id="Layer_1" data-name="Layer 1" xmlns="http://www.w3.org/2000/svg" xmlns:xlink="http://www.w3.org/1999/xlink" viewBox="0 0 250 250"><defs><style>.cls-1{fill:none;}.cls-2{clip-path:url(#clip-path);}.cls-3{fill:#d7e4ed;}.cls-4{fill:#bdccd4;}.cls-5{fill:#9db0ba;}.cls-6{fill:#fee6b9;}.cls-7{fill:#1f0e03;}.cls-8{fill:#fff9ed;}.cls-9{fill:#ffbc45;}.cls-10{fill:#ffce78;}.cls-11{fill:#78853e;}.cls-12{fill:#ffb026;}.cls-13{fill:#d5e882;}.cls-14{fill:#f7931e;}.cls-15{fill:#dacbc8;}.cls-16{fill:#c97440;}.cls-17{fill:#401d06;}.cls-18{fill:#dba037;}.cls-19{fill:#31241c;}</style><clipPath id="clip-path"><rect class="cls-1" x="0.45" y="41.97" width="249.09" height="166.06"/></clipPath></defs><g class="cls-2"><polygon class="cls-3" points="226.41 69.17 224.01 67.65 223.81 50.63 211.41 51.79 211.84 67.87 209.58 69.17 209.58 92.42 197.4 94.41 197.85 156.41 228.4 158.18 226.41 69.17"/><path class="cls-3" d="M189.49,57.77c0-.67-22.37-.22-23-.22s-.88,53.58-.88,53.58-6.87.22-8.64,0c-.69-.09-.77-37-.77-37.92,0-.42-.73-1.11-1.78-1.38l-.27-6.15-1.61-.27.06-2.44-1.44.05c-.06-7-.72-15.77-.72-15.77l-.56,15.8-1.32,0,.22,2.33-1.77.33v6.09c-.67.2-1.33.4-1.78.55-1.32.44.67,68.86,0,69.3s-23.25-.44-24.8-.22-1.77,17.5-1.77,19l72-2.88S189.49,58.43,189.49,57.77Z"/><rect class="cls-4" x="221.59" y="63.3" width="31.44" height="96.1"/><rect class="cls-5" x="227.85" y="72.28" width="5.04" height="8.33"/><rect class="cls-5" x="236.6" y="72.28" width="5.04" height="8.33"/><rect class="cls-5" x="245.34" y="72.28" width="5.04" height="8.33"/><rect class="cls-5" x="227.85" y="87.56" width="5.04" height="8.33"/><rect class="cls-5" x="236.6" y="87.56" width="5.04" height="8.33"/><rect class="cls-5" x="245.34" y="87.56" width="5.04" height="8.33"/><rect class="cls-5" x="227.85" y="102.84" width="5.04" height="8.33"/><rect class="cls-5" x="236.6" y="102.84" width="5.04" height="8.33"/><rect class="cls-5" x="245.34" y="102.84" width="5.04" height="8.33"/><rect class="cls-4" x="226.91" y="38.06" width="23.03" height="27.01"/><rect class="cls-5" x="232.06" y="51.47" width="5.04" height="8.33"/><rect class="cls-5" x="240.8" y="51.47" width="5.04" height="8.33"/><rect class="cls-5" x="232.06" y="37.66" width="5.04" height="8.33"/><rect class="cls-5" x="240.8" y="37.66" width="5.04" height="8.33"/><polygon class="cls-3" points="187.94 71.22 203.88 71.22 207.53 160.56 188.27 160.39 187.94 71.22"/><path class="cls-6" d="M-4.36,155.45c30.55,0,90.88-.82,106.22-.75s80.43-.62,94.38-.28,49.49.34,55.47.34c-.34,14.12-1.66,54.74-1.66,55.77S-1,210.19-1,210.19Z"/><path class="cls-7" d="M72.08,44.37c0,3.66.17,7.31.3,11s.14,7.23.14,10.85a.17.17,0,0,0,.34,0v-.33a.17.17,0,0,0-.34,0v.33a.17.17,0,0,0,.34,0c0-3.62,0-7.23-.15-10.85s-.29-7.3-.3-11a.17.17,0,0,0-.33,0Z"/><path class="cls-7" d="M67.32,41.3c.17,7.61-.09,15.22.44,22.81,0,.21.35.21.34,0-.54-7.59-.27-15.2-.45-22.81a.17.17,0,0,0-.33,0Z"/><path class="cls-7" d="M70.2,41.64c.07,3.86.1,7.73.2,11.59.06,1.93.13,3.86.24,5.79a21.17,21.17,0,0,1,0,4c0,.22.31.21.33,0a19.1,19.1,0,0,0,0-3.78c-.13-1.89-.19-3.78-.24-5.67-.12-4-.14-7.94-.22-11.91a.17.17,0,1,0-.33,0Z"/><path class="cls-7" d="M66.1,42.08c0,6.9.34,13.8.34,20.7a.17.17,0,1,0,.33,0c0-6.9-.33-13.8-.33-20.7a.17.17,0,0,0-.34,0Z"/><path class="cls-7" d="M65.1,59.4a34.85,34.85,0,0,1,3.83-.24C70,59,71.16,58.53,72.2,59c.2.08.29-.24.09-.32a5.2,5.2,0,0,0-2.92.11c-1.45.28-2.93,0-4.36.33-.21.05-.12.37.09.32Z"/><path class="cls-7" d="M66.54,54.31a32.27,32.27,0,0,1,3.94-.41c.36,0,2.38,0,2.38-.64a.17.17,0,0,0-.34,0c0,.29-5.4.57-6.07.73-.21,0-.12.36.09.32Z"/><path class="cls-7" d="M66.2,48.88c1.8-.31,3.93.42,5.58-.57.18-.11,0-.4-.17-.29-1.59,1-3.74.24-5.5.54-.21,0-.12.36.09.32Z"/><path class="cls-7" d="M66.27,44.13c2-.11,4-.11,6-.11a.17.17,0,0,0,0-.34c-2,0-4,0-6,.12-.21,0-.21.34,0,.33Z"/><path class="cls-7" d="M50.17,41.57c.34,1.75-.08,3.6.06,5.38s.26,3.72.26,5.6v5.82c0,.9,0,1.81,0,2.71a7.72,7.72,0,0,1-.13,2.54.17.17,0,0,0,.32.09c.42-1.47.12-3.17.12-4.69V52.87c0-2-.1-3.94-.27-5.92-.15-1.81.28-3.68-.07-5.47,0-.21-.36-.12-.32.09Z"/><path class="cls-7" d="M53.37,42.85a44.41,44.41,0,0,0,0,5c.08,1.82,0,3.62.06,5.44s.21,3.62.3,5.43,0,3.43,0,5.14c0,.2.25.21.32,0a1.36,1.36,0,0,0,.12-.48.17.17,0,1,0-.33,0,.77.77,0,0,1-.11.39l.33,0c0-1.61,0-3.22,0-4.82-.07-1.81-.26-3.62-.31-5.43s0-3.62-.06-5.44a53,53,0,0,1,0-5.35c0-.21-.31-.21-.33,0Z"/><path class="cls-7" d="M54.6,43.14a15.86,15.86,0,0,0,.19,4.66c.18,1.8.22,3.6.26,5.41s.19,3.82.29,5.72c.06,1.29-.42,2.84.16,4,.09.19.38,0,.29-.17a4.08,4.08,0,0,1-.16-2.11,16,16,0,0,0,0-2.08c-.09-1.81-.22-3.61-.27-5.41s-.08-3.43-.24-5.15a17,17,0,0,1-.22-4.83c0-.21-.28-.3-.32-.09Z"/><path class="cls-7" d="M48.94,43.63c0,3.25.13,6.52.25,9.77.05,1.57.23,3.12.21,4.69s-.23,3.12-.23,4.69h.33v-.22a.17.17,0,0,0-.33,0v.22a.17.17,0,0,0,.33,0c0-1.47.14-2.9.22-4.37.08-1.67-.13-3.34-.2-5-.15-3.24-.24-6.52-.24-9.77a.17.17,0,0,0-.34,0Z"/><path class="cls-7" d="M49,58.19c2.14,0,4.28-.11,6.42-.11a.17.17,0,0,0,0-.34c-2.14,0-4.28.11-6.42.12a.16.16,0,0,0,0,.33Z"/><path class="cls-7" d="M49.44,53.65c.73-.08,6.55,0,6.36-.88,0-.21-.36-.12-.32.09s-5.44.39-6,.46c-.21,0-.21.35,0,.33Z"/><path class="cls-7" d="M49.38,48.22a29.56,29.56,0,0,1,5.49-.33c.21,0,.21-.34,0-.33a29.68,29.68,0,0,0-5.58.34c-.21.05-.12.37.09.32Z"/><path class="cls-7" d="M6.54,41c0,5,.33,10,.33,15a.17.17,0,0,0,.34,0V55.7a.17.17,0,0,0-.34,0v.22h.34c0-5-.33-10-.34-15a.17.17,0,0,0-.33,0Z"/><path class="cls-7" d="M9.53,41.86c0,2.41.06,4.82.06,7.23q0,1.72-.06,3.45c0,.62-.06,1.24-.1,1.85l-.06.92s.09,1,.16.54c0-.21-.29-.3-.32-.09l0,.18c0,.06,0,.13,0,.16l0,0a.17.17,0,0,0,.23,0c.26-.21.19-.5.22-.82.05-.61.09-1.23.12-1.84.07-1.25.09-2.5.1-3.75,0-2.62-.05-5.24-.06-7.86a.16.16,0,1,0-.33,0Z"/><path class="cls-7" d="M4.89,40.82c-.56,2.34.14,4.71.38,7,.13,1.29.07,2.62.1,3.93s.07,2.75.07,4.13a.16.16,0,0,0,.33,0V55.7a.17.17,0,1,0-.33,0v.23a.16.16,0,0,0,.33,0c0-2.5,0-5-.13-7.52s-1-5-.43-7.5c0-.21-.27-.3-.32-.09Z"/><path class="cls-7" d="M10.87,42.12c.63,2.26.37,4.67.24,7-.12,2.11-.26,4.24-.58,6.33,0,.21.29.3.32.09.32-2.12.47-4.28.59-6.42.13-2.34.39-4.77-.25-7.06-.06-.21-.38-.12-.32.08Z"/><path class="cls-7" d="M4.49,46.23c2.37,0,4.73.1,7.09,0,.21,0,.21-.34,0-.33-2.36.1-4.72,0-7.09,0a.17.17,0,0,0,0,.33Z"/><path class="cls-7" d="M5,50.54A26.11,26.11,0,0,1,11,50a.17.17,0,0,0,0-.34,27.48,27.48,0,0,0-6.14.56c-.21.05-.12.37.09.32Z"/><path class="cls-7" d="M4.67,53c1.85.25,4,.73,5.78-.13.19-.09,0-.38-.17-.29-1.65.81-3.78.33-5.52.1-.21,0-.3.29-.09.32Z"/><rect class="cls-4" x="48.78" y="62.89" width="8.64" height="105.84"/><rect class="cls-5" x="-9.01" y="90.51" width="75.56" height="71.41"/><rect class="cls-4" x="65.05" y="62.89" width="8.64" height="106.05"/><rect class="cls-4" x="4.16" y="54.7" width="8.64" height="114.03"/><rect class="cls-4" x="-31.26" y="84.15" width="100.3" height="8.64"/><rect class="cls-4" x="-31.26" y="122.23" width="100.3" height="8.64"/><rect class="cls-4" x="-31.26" y="160.32" width="100.3" height="8.64"/><rect class="cls-8" x="23.04" y="100.15" width="9.13" height="15.11"/><rect class="cls-8" x="46.12" y="100.15" width="9.13" height="15.11"/><rect class="cls-8" x="23.04" y="139" width="9.13" height="15.11"/><rect class="cls-8" x="46.12" y="139" width="9.13" height="15.11"/><polygon class="cls-5" points="36.72 78.83 36.72 73.52 17.09 73.52 17.09 78.83 12.8 78.83 12.8 84.26 22.62 84.26 22.65 84.26 32.48 84.26 32.49 84.26 42.34 84.26 42.34 78.83 36.72 78.83"/><path class="cls-7" d="M17.06,79c1.44-.18,2.9.09,4.36,0s3-.16,4.56-.15c3.16,0,6.31-.11,9.46,0,.22,0,.22-.32,0-.33-3.15-.06-6.3.1-9.46,0-1.53,0-3,.09-4.56.15s-2.91-.24-4.36-.06c-.21,0-.22.36,0,.34Z"/><path class="cls-7" d="M26.75,74.32c-.05,1.42,0,2.84,0,4.27a.17.17,0,0,0,.33,0c0-1.43,0-2.85,0-4.27,0-.21-.33-.21-.33,0Z"/><path class="cls-7" d="M20.93,79.19c0,1.61,0,3.21,0,4.82a.17.17,0,0,0,.33,0c0-1.61,0-3.21,0-4.82a.17.17,0,0,0-.34,0Z"/><path class="cls-7" d="M32.23,78.59a13.47,13.47,0,0,0,.1,2q0,.76,0,1.53a5.64,5.64,0,0,0,0,2.13c.09.2.38,0,.29-.16a2.39,2.39,0,0,1,0-.8c0-.44,0-.88,0-1.32s0-.92,0-1.38a15,15,0,0,1-.11-2c0-.21-.31-.21-.33,0Z"/><path class="cls-7" d="M2,93c2.79,0,5.57.17,8.36.17s5.78,0,8.66.17c.22,0,.22-.32,0-.34-2.78-.13-5.56-.16-8.34-.16S4.93,92.68,2,92.67A.17.17,0,0,0,2,93Z"/><path class="cls-7" d="M60.9,93c3,0,6,0,9,.17.21,0,.21-.32,0-.33-3-.16-6-.17-9-.17a.17.17,0,0,0,0,.33Z"/><path class="cls-7" d="M2.08,131.11A13.57,13.57,0,0,1,5.9,131H8a9,9,0,0,1,2.08,0c.21.05.3-.27.09-.32a4.63,4.63,0,0,0-1.66,0,20,20,0,0,1-2.57,0,13.83,13.83,0,0,0-3.91.17.17.17,0,0,0,.09.32Z"/><path class="cls-7" d="M60.86,122.48a9.59,9.59,0,0,1,2.51,0c.84,0,1.67-.06,2.5-.1,1.69-.07,3.38-.14,5.08-.15a.17.17,0,0,0,0-.33c-1.8,0-3.6.08-5.4.17-.83,0-1.66.08-2.49.08a8.78,8.78,0,0,0-2.29,0,.17.17,0,0,0,.09.32Z"/><path class="cls-7" d="M12.5,106.33a15.48,15.48,0,0,0,0,3.47c0,1.32,0,2.65,0,4,.06,2.63-.1,5.24-.1,7.87a.16.16,0,0,0,.33,0c0-2.53.18-5,.11-7.56,0-1.22,0-2.45,0-3.68,0-.62,0-1.24,0-1.86a8,8,0,0,1,0-2.13c0-.21-.27-.3-.32-.09Z"/><path class="cls-9" d="M34.39,167c-2.7-3.68-4.55-9.49-9-10.41-3.93-.92-8.6.46-12.65.61-4.54.15-10.09,6.56-12.8,10.84-3.31,5.05-6.47,9.54-6.83,10.55s4.65.8,5.51.8c2,0,3.93-.15,5.89-.15a67.07,67.07,0,0,1,11.05.53c6.26,1.07,11.91.39,18.17-.22,2.09-.31,4-.46,6-.62,1.35-.15,3.07-.15,4.17-.76C40.89,174.37,37.33,171.16,34.39,167Z"/><path class="cls-10" d="M61,183.46c-2-3.35-5.73-6.29-9-8.46a17.18,17.18,0,0,0-9.55-2.58c-7.67.27-13.28,4.78-19.85,8.24a47.94,47.94,0,0,0-5.54,3c-.9.59-2.57,1.39-2.88,2.51-.73,2.22,3.56,1.92,4.69,1.85l2.27-.27s15.93.49,24.88-.34A105.42,105.42,0,0,1,57,187C59.48,187,62.76,186.68,61,183.46Z"/></g><g class="cls-2"><path class="cls-11" d="M96.66,210.13c-.33-5,0-30.92-.06-40.55s-.22-18.26.56-18.15,12.73.11,17.6.33,16-.33,16.83.88,2.21,27.35,2.77,31.11,1.16,25.61,1,25.94-16,.89-16.06.22c-1-8.85-4.81-35.68-4.81-35.68s-.5,31.14-.61,36.24C111.71,210.91,96.66,210.13,96.66,210.13Z"/><path class="cls-7" d="M113.25,171c1.9-.73,4-.7,5.9-1.33.2-.07.12-.39-.09-.32-1.92.63-4,.6-5.89,1.33-.2.07-.12.39.08.32Z"/><path class="cls-7" d="M115.29,170.4a12.47,12.47,0,0,0-.75,3.86c0,.22.33.21.33,0a12.14,12.14,0,0,1,.74-3.77c.07-.21-.25-.29-.32-.09Z"/><path class="cls-12" d="M110.89,95.8c-3.49.33-6,1.68-6.54,3.26s-8.49,52.87-8.49,52.87.16,5.23.66,5.72,10.55,1.91,20.18,1.83,14.94-1.49,15.19-2.57,1.33-38.11,1.41-40-4.81-15.2-6.14-16.11S118.69,94.72,110.89,95.8Z"/><path class="cls-13" d="M107,96.52c.11,2.65,3,9.27,5,16.8s2.16,11.09,1.82,19-.77,17.61-1,20.6-4.32,4.87-8.39,3.95A18.7,18.7,0,0,1,97,152.76s-.08-36.64-.33-39.53c-.58-6.72-2.08-10.79-3.08-11.54A35.68,35.68,0,0,1,107,96.52Z"/><path class="cls-13" d="M119.74,103.93c-1.88,4.32-5.42,13.4-5.87,23.58s-1.1,23.36-1,25.36,1.88,4.76,6.53,4.65,10.3-3,11.51-4.88-.55-29.89-.11-32.21,3.55-16.61,3.55-16.94c-1-1.55-8.2-4.54-10.52-4.54S119.74,103.93,119.74,103.93Z"/><path class="cls-7" d="M102.15,158.91c-.44,1.36-.62,2.77-1.6,3.87-.31.35-1.73,2.12-2.26,1.79-.18-.12-.35.17-.16.29.73.46,2-1.09,2.36-1.52,1.19-1.27,1.46-2.73,2-4.34a.17.17,0,0,0-.32-.09Z"/><path class="cls-7" d="M103,159.63a7.23,7.23,0,0,1-.6,2.23,10.87,10.87,0,0,1-1.61,2.15,5.67,5.67,0,0,1-2,1.61,1.72,1.72,0,0,0-.89.5c-.12.18.17.35.29.17.21-.34,1-.47,1.38-.69a9.74,9.74,0,0,0,1.86-1.77,10.93,10.93,0,0,0,1.29-1.8,6.84,6.84,0,0,0,.63-2.31c0-.21-.28-.3-.32-.09Z"/><path class="cls-7" d="M112.61,159.8a24.4,24.4,0,0,0-.1,3.92c0,.55-.07,1.11-.11,1.67a2.26,2.26,0,0,0,0,.86c.08.2.4.11.32-.09a2,2,0,0,1,0-.77c0-.51.06-1,.1-1.52a23,23,0,0,1,.09-4c0-.21-.27-.3-.32-.09Z"/><path class="cls-7" d="M112.74,166.6c.64-.22,1.29-.42,1.94-.62.26-.09.88-.17,1-.45a.17.17,0,0,0-.29-.17c-.08.15-.85.3-1.07.37-.57.18-1.14.35-1.71.55-.2.07-.11.39.09.32Z"/><path class="cls-7" d="M115.7,159.73c0,.93,0,1.86,0,2.79s-.15,1.94-.17,2.91a.17.17,0,1,0,.33,0c0-.87.15-1.73.17-2.6,0-1,0-2.07,0-3.1,0-.21-.32-.21-.33,0Z"/><path class="cls-7" d="M125.17,159.4a12.23,12.23,0,0,0,1,3.52,7.72,7.72,0,0,0,1.25,2.31c.86,1,2.49,2.52,3.95,1.9.2-.08,0-.37-.16-.29-1.35.57-2.91-1.07-3.67-2a7.73,7.73,0,0,1-1.16-2.29,11.07,11.07,0,0,1-.9-3.16c0-.21-.34-.22-.33,0Z"/><path class="cls-7" d="M126.28,159.28a9.1,9.1,0,0,0,.76,2.2,17.81,17.81,0,0,0,.9,2,7,7,0,0,0,3.12,2.65c.19.09.36-.2.17-.29a7,7,0,0,1-3-2.53,15.32,15.32,0,0,1-1-2.15,8.23,8.23,0,0,1-.66-2c0-.21-.35-.12-.32.09Z"/><path class="cls-14" d="M96.38,129.4c1.88.88,26.35.44,34.43-.45.34,2.44.45,4.76.45,4.76-7.86,1.66-31.89,2.22-36-.33A7.92,7.92,0,0,1,96.38,129.4Z"/><path class="cls-14" d="M96.38,142.24c2.33,1,27.46,2.1,34.43.55a18.16,18.16,0,0,0,0,4c-6.2,1.66-30.11,1.55-34.65,0A5.79,5.79,0,0,1,96.38,142.24Z"/><path class="cls-15" d="M94.58,103.19a21.32,21.32,0,0,1,1.21,3.92,25,25,0,0,1,13.26-3.36c-.65-1.89-1.21-3.55-1.58-4.89A61.66,61.66,0,0,0,94.58,103.19Z"/><path class="cls-15" d="M106,113.45c-1.77-6.75-2.76-10.18-2.76-10.18l-3.32,1c.66,3.54,2.54,11,3.09,16.93s1.55,19.93,1.33,25.36a96.53,96.53,0,0,1-1,10,10.52,10.52,0,0,0,1.1.3,9.43,9.43,0,0,0,3,.19c.72-4.07.71-9.67.5-18.76C107.79,129,107.79,120.21,106,113.45Z"/><path class="cls-15" d="M133.36,106.15s-7-4.86-12-5.41a15.56,15.56,0,0,0-1.63,3.19l0,.09c3.23.93,10,3.07,12,4.89A3.87,3.87,0,0,0,133.36,106.15Z"/><path class="cls-15" d="M119.08,127.62c-.52,7.16-1.33,25.79-1,29.84a10.88,10.88,0,0,0,1.31.06,15.76,15.76,0,0,0,3.47-.52c-.54-5.35.12-21.05,1.18-31.15a113.65,113.65,0,0,1,4.21-20.15l-4.21-.88C123.4,107.48,119.63,120,119.08,127.62Z"/><path class="cls-16" d="M109.72,88.24c-1.41-.83-2.9.91-2.74,3.24s1.46,4.07,3,3.15c-1.33,5.07.64,9.29,4,10.59,2.7,1,7.3,1.62,10.63-4.28a85.9,85.9,0,0,0,5-10.21S117.2,70.8,109.72,88.24Z"/><path class="cls-7" d="M110.51,90.11a15.58,15.58,0,0,0-.12,3.28c.12.25.54.83.87.33a26.45,26.45,0,0,0,1.16-2.78Z"/><path class="cls-9" d="M105.52,83.62c-.11-.78,1.77-1.11,2.82-1.28.88-3.43,4-8.69,9.24-10s10.19.33,13,5.2,2,9.19,1.49,10.29c.83.17.72.61.61.72s-.83,2.16-.61,2.11a2.56,2.56,0,0,1,1.27.66c.28.28.56,3.27-6.86,4.49s-16.27-3.88-19.6-8.69A7.39,7.39,0,0,1,105.52,83.62Z"/><path class="cls-7" d="M123.61,97.63c-.11-.29.06-.47.34-.52s.54,0,.36.28a.63.63,0,0,1-.48.24c-.09,0-.16-.07-.14-.16a.59.59,0,0,1,.4-.41c.16,0,.06.4,0,.49a.42.42,0,0,1-.5,0c-.1-.13.37-.45.46-.37s-.06.18-.09.21a.35.35,0,0,1-.2,0c.11,0,0,.12.06.06a.24.24,0,0,1,.11-.06s.07,0,.1,0l-.06-.22a.56.56,0,0,1-.4.25l.21.16a.37.37,0,0,1,.09-.19c.1-.19-.19-.36-.29-.17a.78.78,0,0,0-.13.36c0,.11.11.19.21.16a.84.84,0,0,0,.59-.41.15.15,0,0,0-.06-.22c-.25-.15-.71,0-.72.31s.52.31.71.15a.48.48,0,0,0,.09-.7c-.26-.24-.69,0-.88.24a.42.42,0,0,0,0,.62.77.77,0,0,0,.67.16.65.65,0,0,0,.5-.58c0-.26,0-.58-.34-.62s-.75.4-.8.75a.46.46,0,0,0,.32.45.91.91,0,0,0,.85-.27.53.53,0,0,0,.08-.64.65.65,0,0,0-.57-.25.72.72,0,0,0-.74,1c.07.2.4.12.32-.09Z"/><path class="cls-7" d="M120.68,96.35c0,.84,0,1.67.13,2.51,0,.47.29,1-.44,1.23-.36.1-.75.09-1.12.2-.2,0-.11.37.09.32.6-.17,1.74,0,1.88-.86a4.83,4.83,0,0,0-.1-1.2,20.24,20.24,0,0,1-.1-2.2.17.17,0,0,0-.34,0Z"/><path class="cls-7" d="M116.15,100.46c.46,1.21,1.46,2.66,3,2.14.2-.07.12-.39-.08-.32-1.33.45-2.18-.86-2.58-1.91-.07-.2-.39-.11-.32.09Z"/><path class="cls-7" d="M107.89,83.49a7.18,7.18,0,0,1,.8.85c.24.26.55.42.77.7a.17.17,0,0,0,.29-.11c0-.52,0-1,0-1.56,0-.72.49-.23.82,0a4.09,4.09,0,0,0,.64.45c.63.36.61,1.18.58,1.8a2.42,2.42,0,0,0,.33,1.75c.69.74,1.38,1.5,2.11,2.18a.17.17,0,0,0,.24,0c.57-.68.36-1.57.58-2.38l-.2.12a7.56,7.56,0,0,1,1.37.67c.4.21.86.09.76.85a17.55,17.55,0,0,0-.29,2.28.17.17,0,0,0,.33,0V91a.16.16,0,0,0-.33,0v.1a.17.17,0,0,0,.33,0,10.75,10.75,0,0,1,.19-1.6c0-.33.3-1,0-1.36a1,1,0,0,0-.56-.35c-.62-.19-1.12-.63-1.75-.81a.17.17,0,0,0-.21.12,4.91,4.91,0,0,0-.13,1,4.2,4.2,0,0,1-.13.79c-.14.56-.65-.23-.79-.39-.39-.41-.76-.83-1.17-1.21s-.4-1.26-.38-1.91a2,2,0,0,0-.75-1.86c-.49-.35-1.15-1.08-1.81-1a.15.15,0,0,0-.12.16c0,.72,0,1.44,0,2.17l.28-.12a5.88,5.88,0,0,0-.78-.71c-.3-.25-.49-.6-.8-.85s-.4.11-.23.24Z"/><path class="cls-7" d="M119.57,71.94a7.7,7.7,0,0,1,2.65,4.62,21.9,21.9,0,0,1,.14,5.72,20.64,20.64,0,0,1-3,9.61c-.12.18.16.35.28.17,2-2.87,2.76-6.69,3.06-10.08a22.69,22.69,0,0,0-.23-5.82,7.62,7.62,0,0,0-2.69-4.45c-.16-.14-.39.09-.23.23Z"/><path class="cls-7" d="M127.44,73.64a34.14,34.14,0,0,1,1.2,4.86,23.31,23.31,0,0,1-.17,4.87,28.8,28.8,0,0,1-1.13,5,17.68,17.68,0,0,1-1.6,4.51c-.1.16.14.34.26.2a2.43,2.43,0,0,0,.2-.25.17.17,0,0,0-.29-.17l-.14.19.26.2a17.51,17.51,0,0,0,1.54-4.3,31.78,31.78,0,0,0,1.2-5.08A27.17,27.17,0,0,0,129,78.5a31.38,31.38,0,0,0-1.22-5,.17.17,0,0,0-.32.09Z"/><path class="cls-7" d="M129.71,92.22c.76-1,.76-2.35.88-3.51,0-.21-.31-.21-.33,0-.11,1.05-.1,2.4-.79,3.27-.13.17.11.41.24.24Z"/><path class="cls-7" d="M130.45,88.91c.5-.24,1-.45,1.49-.72.17-.1.53.06.49.3a2.54,2.54,0,0,1-.27.69,5.64,5.64,0,0,0-.21.7c-.07.22-.14.71-.31.87s.08.38.23.24a2.66,2.66,0,0,0,.4-1c.15-.46.35-.92.48-1.39s-.25-.58-.64-.79c-.17-.09-.38.13-.51.21-.42.24-.88.41-1.31.62-.2.1,0,.38.16.29Z"/><path class="cls-7" d="M116.58,96.14a.69.69,0,0,1,.56-.84c.32,0,.45.25.33.52s-.46.48-.71.29.2-.55.38-.63c.43-.17.19.37,0,.48a.26.26,0,0,1-.21,0c-.16,0-.14-.19-.07-.31a.41.41,0,0,1,.15-.14s.21,0,.2,0-.26.26-.39.27L117,96a.23.23,0,0,1,.15-.22c.11,0-.06.08,0-.13,0,0-.16.18-.19.1s-.39,0-.29.17c.24.5,1-.07.75-.4-.11-.13-.29-.08-.42,0a.56.56,0,0,0-.3.5.18.18,0,0,0,.17.17c.33,0,.8-.32.71-.7,0-.18-.26-.25-.42-.26a.66.66,0,0,0-.51.29.53.53,0,0,0,.27.85.67.67,0,0,0,.69-.29.74.74,0,0,0,.12-.7c-.13-.27-.47-.22-.7-.12a.84.84,0,0,0-.6.89c.08.4.59.48.91.35.53-.22.82-1,.27-1.37s-1.5.48-1.29,1.16c.06.2.39.11.32-.09Z"/><path class="cls-7" d="M116.69,91.32c1.29,1.54,3.69,1.89,5.53,2.35a17,17,0,0,0,3.55.37,9.39,9.39,0,0,0,3.09-.62c.21-.06.12-.38-.08-.32a9,9,0,0,1-2.74.62,17.38,17.38,0,0,1-3.74-.37c-1.77-.41-4.15-.81-5.37-2.27-.14-.16-.38.08-.24.24Z"/><path class="cls-7" d="M106.85,83.5c.84,2,2.63,3.33,4.1,4.84a16.32,16.32,0,0,0,5.43,4c.19.08.28-.24.08-.32a15.86,15.86,0,0,1-5.27-3.88c-1.42-1.45-3.21-2.77-4-4.69-.08-.2-.4-.11-.32.09Z"/><path class="cls-7" d="M130.18,93c.79-.56,1.59-1.1,2.36-1.69.16-.13-.07-.37-.24-.24-.74.58-1.53,1.1-2.29,1.64-.17.12,0,.41.17.29Z"/><path class="cls-7" d="M125.88,73.55c1.23,1.55,1.28,4,1.49,5.94a18.39,18.39,0,0,1-.7,7.52c-.07.2.25.29.32.08a19,19,0,0,0,.68-7.9c-.21-1.92-.32-4.3-1.56-5.87-.13-.17-.36.06-.23.23Z"/><path class="cls-7" d="M108.15,102.48c.83,2,1.84,3.92,2.62,5.94a36.07,36.07,0,0,1,1.58,6.13c.41,2.09.84,4.18,1.23,6.27a23.43,23.43,0,0,1,0,7.19c-.25,2.17-.2,4.36-.36,6.54a59,59,0,0,0,0,6.65c.09,2.2.17,4.39,0,6.59a25.54,25.54,0,0,1-.53,5.92c-.06.2.26.29.32.09a21.12,21.12,0,0,0,.52-5.26c.06-2.24.09-4.46,0-6.7a52.45,52.45,0,0,1,0-7c.2-2.28.14-4.58.38-6.85a25.08,25.08,0,0,0,.13-6.36c-.32-2.21-.86-4.4-1.27-6.59a44.53,44.53,0,0,0-1.59-6.44c-.76-2.14-1.87-4.13-2.73-6.23-.08-.19-.4-.11-.32.09Z"/><path class="cls-7" d="M114.87,122a7.69,7.69,0,0,1,.17-2c.11-.69.13-1.38.25-2.07.25-1.32.67-2.62,1-3.92s.68-2.65,1.1-4,1-2.45,1.42-3.72c.06-.2-.26-.29-.32-.08-.37,1.16-.93,2.25-1.32,3.41-.48,1.4-.84,2.83-1.2,4.26s-.78,2.79-1,4.21c-.13.68-.14,1.38-.25,2.06a7.56,7.56,0,0,0-.14,1.77c0,.22.35.22.34,0Z"/><path class="cls-7" d="M96.63,106.84a22.92,22.92,0,0,1,5.06-1.94c1.71-.57,3.5-.79,5.25-1.19a.17.17,0,0,0-.08-.32,55.33,55.33,0,0,0-5.56,1.29,21.88,21.88,0,0,0-4.84,1.88c-.18.11,0,.4.17.28Z"/><path class="cls-7" d="M95.3,103c2.51-1.44,5.5-1.87,8.21-2.81.2-.07.12-.39-.09-.32-2.74,1-5.75,1.39-8.28,2.84-.19.11,0,.4.16.29Z"/><path class="cls-7" d="M122.73,105.1a20.07,20.07,0,0,1,4.16,1.37,33.5,33.5,0,0,1,4.28,2c.19.1.36-.18.17-.28-1.34-.7-2.69-1.39-4.09-2-.82-.34-1.68-.56-2.5-.92a7.09,7.09,0,0,0-2-.58c-.21,0-.21.31,0,.34Z"/><path class="cls-7" d="M125.91,102.31c1.12.57,2.24,1.14,3.35,1.73a14.9,14.9,0,0,1,3.26,1.89c.16.15.4-.09.24-.23a11.21,11.21,0,0,0-2.84-1.7c-1.3-.62-2.57-1.32-3.84-2-.19-.1-.36.19-.17.29Z"/><path class="cls-7" d="M133.35,103.1a4.27,4.27,0,0,0-.83,1.21c-.38.66-.72,1.36-1.06,2a37.19,37.19,0,0,0-1.69,4.44c-.53,1.58-.93,3.21-1.4,4.81s-.65,3.4-1.15,5.06a.17.17,0,0,0,.32.09c.44-1.46.57-3,1-4.47s.91-3.22,1.4-4.81c.44-1.42,1-2.82,1.53-4.21a22.56,22.56,0,0,1,1.1-2.27,5.23,5.23,0,0,1,1.06-1.66c.16-.13-.07-.37-.24-.23Z"/><path class="cls-7" d="M97.9,152.57a25.07,25.07,0,0,0,6.42,3.11,9.53,9.53,0,0,0,6.7-1.12.17.17,0,0,0-.16-.29,9.27,9.27,0,0,1-7,.95,24.94,24.94,0,0,1-5.83-2.94c-.18-.11-.35.18-.17.29Z"/><path class="cls-7" d="M114.14,154.2a6.92,6.92,0,0,0,5.71,2.11,24.65,24.65,0,0,0,3.28-.84,21,21,0,0,0,3.67-1.35c.19-.1,0-.38-.17-.29a30,30,0,0,1-6,2,6.55,6.55,0,0,1-6.25-1.85c-.16-.15-.39.09-.24.23Z"/><path class="cls-7" d="M95.05,101.84A16.13,16.13,0,0,1,97,105.66a31.33,31.33,0,0,1,1.5,4.44,26.24,26.24,0,0,1,.89,4.74,32.71,32.71,0,0,1-.22,5c0,.21.32.21.33,0a38.64,38.64,0,0,0,.22-5,23.92,23.92,0,0,0-.9-4.83,32.35,32.35,0,0,0-1.53-4.51,15.94,15.94,0,0,0-2-3.9c-.13-.16-.37.07-.23.24Z"/><path class="cls-17" d="M182.9,189.12c.17,3.17,0,23.58,0,23.58l6.31-.32v-23Z"/><path class="cls-17" d="M192.2,186.22c.17,3.21,0,23.91,0,23.91l6.31-.33V186.44Z"/><path class="cls-17" d="M72.77,187.88c.15,3.16,0,23.58,0,23.58l5.77-.33v-23Z"/><path class="cls-17" d="M82.2,187.13c.15,3.21,0,23.91,0,23.91l5.77-.33V187.35Z"/><path class="cls-18" d="M202,175.26a81.46,81.46,0,0,0-14.45-.42c-6.31.42-103.62,0-103.62,0s-4.73.83-9.71,2S63.83,181,63.78,183c0,1.25,12.73-.47,12.73-.47l119.48.59,4.57-1.91Z"/><path class="cls-18" d="M196.13,182.43c1.16-.83,5.18-7.09,5.84-7.17s.91.25,1,3.4.08,7.23,0,8.3-.33,1.58-1.83,3.82-4.68,4.24-5,4S196.13,182.43,196.13,182.43Z"/><path class="cls-9" d="M63.56,184c0,3.56.16,5.57.33,8.36s2.16,2,5.31,2.16,115.25.35,120.4.47c7,.15,7.31.62,7.47-1.4s-.33-9.44-.33-10.67-.58-.62-3.16-.62c-3.32,0-121.39-.93-126.2-.78C63.72,181.64,63.72,182.72,63.56,184Z"/><path class="cls-5" d="M196.62,169c1.43.66,1.17,1.91.34,3.79s-1,2.35-2,2.52-6.73-.42-6.73-.42S192.57,168.23,196.62,169Z"/><path class="cls-4" d="M195,170.73a2.59,2.59,0,0,0-2-.16c-.76.4-3.38,3.55-4,4.31,1.28.07,4.17.45,5.47.42a3.42,3.42,0,0,1-.92-2.08C193.6,171.68,193.79,171.06,195,170.73Z"/><path class="cls-4" d="M74.35,176.5c4.32-1.16,8.3-2.82,8.47-5.64a5.61,5.61,0,0,0-1.83-5c-1-1,1.83-.16,5.65.34s16.27,4.48,25.91,6.47,37.19,2.33,47,0,23.42-5.09,29.62-4.87S196.8,169,196.8,169c-2,0-3.22,1.55-5.76,4.76s-6.42,6.75-7.86,7.2c-8.75.88-21.15-.23-28.45-.23s-50-1-57.3-.77S76.9,177.66,74.35,176.5Z"/><path class="cls-5" d="M98.26,179.82c-3.73,0-13.94-1.16-18.84-3.65s-9.22-4.82-10-5.15-2.08,3.16.41,5.4,7.89,2.24,10.63,2.66S95.77,180.74,98.26,179.82Z"/><path class="cls-5" d="M166.74,181.1c2-.11,12.45-.61,14.83-1.61.61,1,1.11,1.66,1.83,1.39C182.46,182,174,181.21,166.74,181.1Z"/><path class="cls-7" d="M195.2,173.43a3,3,0,0,0,.34-2.12.92.92,0,0,0-1.14-.58c-1.25.53-1.11,2.62-.82,3.71.34,1.31,1.67,1.25,2.45.42a6.3,6.3,0,0,0,1.58-4.63c0-.21-.34-.21-.33,0a5.7,5.7,0,0,1-.68,3.16c-.38.69-.87,1.72-1.77,1.79-1.21.09-1.07-1.89-1-2.62a3.18,3.18,0,0,1,.06-.62c.08-.52,1-1.68,1.44-.32.19.51-.23,1.25-.41,1.72-.08.2.24.29.32.09Z"/><path class="cls-7" d="M65.49,185a22.53,22.53,0,0,1,6.86-.27c2.23.12,4.46,0,6.69-.06a26.58,26.58,0,0,1,7,.43c1.08.25,4.19,1.06,3.84,2.63s-3.07,1.35-4.15,1.28c-2.16-.12-4.35-.21-6.52-.23a43.16,43.16,0,0,0-6.7.72c-2.53.37-5.07.65-7.62.82-.21,0-.21.35,0,.33,2.58-.17,5.15-.46,7.71-.83,1.37-.19,2.74-.46,4.12-.61a28.54,28.54,0,0,1,4-.06c2.12.08,4.28.32,6.39.2,1.14-.07,2.81-.37,3.1-1.69s-1.43-1.94-2.26-2.28a17.28,17.28,0,0,0-6.49-1.09c-2.55,0-5.09.18-7.64.16s-4.86-.37-7.29,0a11,11,0,0,0-1.17.25.17.17,0,0,0,.09.32Z"/><path class="cls-7" d="M64.11,187.35c2.2-.27,4.37-1.08,6.61-1,1.24,0,2.5.25,3.75.21a12.87,12.87,0,0,1,1.39,0,3.09,3.09,0,0,1,.73.12c.5.13.21.4,0,.62-1.36,1.24-3.77.88-5.44.83-2.34-.08-4.56.8-6.9.72-.21,0-.21.32,0,.33a19.41,19.41,0,0,0,4.22-.52,17.25,17.25,0,0,1,3.66-.17c1.82.07,4,.09,5.22-1.55a.18.18,0,0,0,0-.2,2.8,2.8,0,0,0-2.07-.53c-1.19,0-2.37-.05-3.56-.12a15.66,15.66,0,0,0-3.49.16c-1.36.23-2.7.6-4.07.77-.21,0-.21.36,0,.33Z"/><path class="cls-7" d="M65,193.32a57.16,57.16,0,0,1,16.09-1c2.66.18,5.32.43,8,.49a41.35,41.35,0,0,0,7.46-.52,140.87,140.87,0,0,0,14.85-3.61,77.06,77.06,0,0,1,15.54-2.61c5-.29,10.08-.24,15.12-.48.21,0,.21-.34,0-.33-5.36.25-10.73.19-16.09.54a76.9,76.9,0,0,0-15,2.64A140.51,140.51,0,0,1,96.11,192c-5.36.83-10.66.25-16-.09A55.49,55.49,0,0,0,64.86,193c-.21.05-.12.37.09.32Z"/><path class="cls-7" d="M110.56,192.51a14.27,14.27,0,0,1,5.49-2.26c2-.52,4.07-1,6.14-1.35a66.26,66.26,0,0,1,12.89-.85,54,54,0,0,1,12.39,1.74,31.08,31.08,0,0,1,5.91,2.19c1.88.92,3.7,2,5.58,2.88.19.09.36-.2.17-.29-1.89-.91-3.71-1.95-5.58-2.88a31.92,31.92,0,0,0-6-2.22,54.16,54.16,0,0,0-12.79-1.76,67.18,67.18,0,0,0-13,.92c-2.14.37-4.25.9-6.36,1.44a13.4,13.4,0,0,0-5.11,2.2c-.16.13.07.37.24.24Z"/><path class="cls-7" d="M123.92,192.42c3.52-2.21,7.91-2.39,12-2.17a19.91,19.91,0,0,1,6.32,1.4c2.08.84,3.86,2.22,5.92,3.1.19.08.36-.21.17-.29-2-.85-3.73-2.17-5.73-3a21,21,0,0,0-6.68-1.54c-4.07-.27-8.59,0-12.12,2.23-.18.11,0,.4.17.28Z"/><path class="cls-7" d="M194.28,187.15c-2.95,1.57-6.32,1.63-9.57,1.33-3.48-.31-7-.88-10.44-1.45-3.71-.61-7.4-1.32-11.14-1.74a32.53,32.53,0,0,0-5.75-.26,31.89,31.89,0,0,0-5.47,1,.17.17,0,0,0,.09.32,32.25,32.25,0,0,1,6-1,35.77,35.77,0,0,1,5.75.38c3.91.45,7.78,1.24,11.67,1.86,3.25.52,6.54,1,9.82,1.3a16.43,16.43,0,0,0,9.18-1.42c.19-.1,0-.39-.16-.29Z"/><path class="cls-7" d="M196,185a20.46,20.46,0,0,1-6.66,1.46c-1.66,0-4.07-.22-5-1.82l-.06.22c1.56-1,3.75-.57,5.5-.52,2.23.07,4.47-.33,6.7-.34a.17.17,0,0,0,0-.33c-2.31,0-4.62.41-6.92.33-1.77-.05-3.88-.45-5.45.58a.15.15,0,0,0-.06.22c.88,1.52,2.91,1.83,4.5,2a12,12,0,0,0,2.81-.06,31.1,31.1,0,0,0,4.72-1.38c.21-.06.12-.38-.08-.32Z"/><path class="cls-7" d="M189.08,176.42a13.4,13.4,0,0,1,1.61-2.17c.53-.68,1.11-1.32,1.68-2,1.08-1.24,3-3.51,4.84-2.66.19.08.36-.2.17-.29-1.75-.79-3.37.74-4.52,1.92-.77.79-1.5,1.66-2.21,2.52a13.5,13.5,0,0,0-1.86,2.48c-.09.2.2.36.29.17Z"/><path class="cls-7" d="M195.74,191.3c-1.65,1-3.69,1-5.55,1-2.14,0-4.28,0-6.42,0a44.85,44.85,0,0,0-13.64,1.81c-.21.07-.12.39.08.32a47.26,47.26,0,0,1,14.54-1.8c2.06,0,4.12,0,6.18,0a9.91,9.91,0,0,0,5-1,.17.17,0,0,0-.17-.29Z"/><path class="cls-7" d="M197,181.82a22.31,22.31,0,0,1,2.71-2.79c1-1,1.87-2,2.91-2.91.16-.14-.08-.37-.24-.23-1,.9-1.94,1.93-2.9,2.9a25.8,25.8,0,0,0-2.77,2.86c-.13.17.16.34.29.17Z"/><path class="cls-16" d="M87.39,121.29c-.67,3.73-1,15.27-.25,22.17s4.09,22.53,4.09,23.36-.22,2.93-3,5.75c-2.46,2.5-5.13,4.76-4.38,4.93s1.5.88,3.43.39c5.64-1.45,8.56-5.59,9.64-5.1s2.32,3.77,3.15,3.66-.66-4.1-1.91-8.42-.58-18-.58-27.31-.5-18.85-.5-18.85Z"/><path class="cls-7" d="M86.23,178.09A31.42,31.42,0,0,0,89.86,176c1.23-.95,2.39-2,3.6-3,.16-.14-.08-.37-.24-.24-1.06.87-2.1,1.75-3.15,2.64a28.73,28.73,0,0,1-4,2.43.17.17,0,0,0,.17.29Z"/><path class="cls-7" d="M85,177.78a19.74,19.74,0,0,1,3.34-2.63l1.92-1.29a15.8,15.8,0,0,1,1.85-1.2c.19-.09,0-.38-.17-.29a38.83,38.83,0,0,0-3.76,2.49,16.78,16.78,0,0,0-3.41,2.69c-.15.15.09.39.23.23Z"/><path class="cls-7" d="M84.76,177.17c1.83-2.3,4.5-3.69,6.59-5.7.16-.15-.08-.38-.23-.23-2.09,2-4.77,3.39-6.59,5.7-.13.16.1.4.23.23Z"/><path class="cls-12" d="M93.61,101.69c-1.91,1.08-7,3.24-9.29,17.6-.17.83-.61,3.82.22,4.24s8.63,2.93,12.62,1.44C99,121.4,98.68,106,93.61,101.69Z"/><path class="cls-7" d="M85.1,121.58c3.32,1.26,6.56,2.79,10.18,2.83.21,0,.21-.33,0-.33-3.59,0-6.81-1.57-10.09-2.82-.2-.07-.29.25-.09.32Z"/><path class="cls-16" d="M139.67,119.65s.55,5.54.89,13.95-2.55,28.57-.45,34.1,5.87,8.53,6,10.3-4.54.77-11.18-4.65c.66,5.75-.44,4.87-1.33,2.43-1.22-2.88-3.76-17.6-3.54-27.78s-1-20.26-1.11-25.47C129.15,121.09,139.12,118,139.67,119.65Z"/><path class="cls-7" d="M137.73,172.35a24.83,24.83,0,0,0,3.16,3.16c.9.87,1.47,2.32,2.63,2.88.19.09.36-.19.16-.29-1-.51-1.59-1.82-2.38-2.64a34,34,0,0,1-3.29-3.28c-.12-.17-.41,0-.28.17Z"/><path class="cls-7" d="M139.33,172.22a19.09,19.09,0,0,1,3.5,3.79c.47.65.95,1.32,1.38,2,.11.17.23.53.47.56s.21-.31,0-.33c.15,0-.13-.3-.18-.4-.17-.26-.36-.51-.54-.77-.42-.58-.79-1.21-1.24-1.77a20.71,20.71,0,0,0-3.15-3.33c-.17-.13-.41.1-.24.24Z"/><path class="cls-7" d="M140.41,171.64a29.5,29.5,0,0,1,5.12,6.69l.29-.17a.61.61,0,0,0-.23-.22c-.18-.12-.35.17-.16.28l.1.11a.17.17,0,0,0,.29-.17,30,30,0,0,0-5.17-6.76.17.17,0,0,0-.24.24Z"/><path class="cls-12" d="M134.36,103.49c2.1,2.44,5.75,8.39,6.42,13.81.33,3.21,1.08,7.39.41,7.72s-4.73,2.08-12.2,1C127.77,113.79,133.47,103.93,134.36,103.49Z"/><path class="cls-7" d="M130.62,124.55c3.37,0,6.81.21,10-1.18.2-.09,0-.38-.16-.29-3.09,1.37-6.5,1.15-9.8,1.14a.16.16,0,1,0,0,.33Z"/><path class="cls-17" d="M207.75,159.18c-.11,3.54-.32,13.5,0,21.81s2,25.79,2,27.9c8.15,1.88,31.27-.25,31.27-.25-.21-5-3.27-27.1-2.54-33.41s3.76-18.38.32-25.57C236.79,150.54,228.43,158.18,207.75,159.18Z"/><path class="cls-7" d="M210.24,159.81c-.4,3.68.12,7.36,0,11.05a.17.17,0,0,0,.21.16c.68-.27,1.78-.22,2.16-1a5.65,5.65,0,0,0,.19-2.17c0-1.13.22-2.25.29-3.38a18.58,18.58,0,0,1,.58-4.76c.07-.21-.25-.29-.32-.09-.7,2.18-.55,4.57-.8,6.83-.09.86-.08,1.73-.13,2.59a1.57,1.57,0,0,1-.24,1c-.37.42-1.32.42-1.82.62l.21.16c.09-3.69-.43-7.37,0-11.05,0-.21-.31-.21-.34,0Z"/><path class="cls-7" d="M239.71,153.86c-1.15.91-2.31,1.81-3.5,2.67a4,4,0,0,0-1.48,1.68,5.29,5.29,0,0,0-.14,2.24c.06,1.26,0,2.52,0,3.77s0,2.74-.06,4.12a28.66,28.66,0,0,0-.1,3.93c.2,1.63,1.84,2.48,3.2,3a.18.18,0,0,0,.19-.08c0-.06.11-.12.16-.19s-.07-.37-.23-.23c-.41.34-1.6-.57-2-.87a3,3,0,0,1-1-2.74c.13-2.42.15-4.84.16-7.27,0-1.07,0-2.15,0-3.23a7.44,7.44,0,0,1,.07-2.21c.27-1,1.34-1.61,2.14-2.19,1-.71,1.88-1.45,2.81-2.18.17-.13-.07-.36-.24-.23Z"/><path class="cls-7" d="M211.13,173.2c.27.07,1.64.51,1.65.89a10.71,10.71,0,0,0,.12,1.38c.13,1.2.33,2.39.53,3.59s.4,2.26.63,3.38c.39,1.91.57,3.86.84,5.78,1,7.4,1.44,14.89,2.72,22.25,0,.21.35.12.32-.09-.68-3.87-1.05-7.8-1.46-11.71s-.92-7.85-1.43-11.77c-.38-3-1-5.85-1.44-8.78-.2-1.21-.39-2.42-.48-3.64,0-.44,0-.56-.33-.84a4.26,4.26,0,0,0-1.59-.76.17.17,0,0,0-.08.32Z"/><path class="cls-7" d="M214.24,178.8A14.45,14.45,0,0,1,218,183c1.15,1.72,2.41,3.36,3.55,5.09.11.18.4,0,.28-.16-1.18-1.81-2.49-3.53-3.7-5.32a13.89,13.89,0,0,0-3.67-4c-.18-.12-.34.17-.17.28Z"/><path class="cls-7" d="M215,182.29c1.68,2.68,3.12,5.5,4.6,8.3.1.19.38,0,.28-.17-1.47-2.79-2.91-5.61-4.59-8.3-.12-.18-.4,0-.29.17Z"/><path class="cls-7" d="M230.36,157.52a15.71,15.71,0,0,0,.25,2.9,27.62,27.62,0,0,1,.09,3c.06,2.09.07,4.18.05,6.28s0,4.3.15,6.44.53,4.28.84,6.4a124.47,124.47,0,0,1,1,13.22,47.24,47.24,0,0,0,.47,5.83,30.92,30.92,0,0,1,.61,6.5c0,.21.32.21.34,0a26.58,26.58,0,0,0-.49-5.69,53.6,53.6,0,0,1-.59-6.32,124.61,124.61,0,0,0-.87-12.67c-.3-2.21-.64-4.41-.89-6.62a52.82,52.82,0,0,1-.22-6.77c0-2.1,0-4.2,0-6.3,0-1,0-2-.07-3a26.24,26.24,0,0,1-.28-3.19c0-.22-.32-.22-.33,0Z"/><path class="cls-7" d="M231.3,158a11.17,11.17,0,0,1,.17,2.71c0,1,.15,2,.17,3,.05,2.08.16,4.15.12,6.23A34.89,34.89,0,0,0,232,176c.34,2.13.63,4.27.78,6.43.3,4.16.07,8.3.64,12.45.3,2.15.39,4.29.61,6.45.1.95.17,1.92.26,2.87s.52,1.9.18,2.69c-.08.19.21.36.29.17a2.83,2.83,0,0,0,0-1.68c-.17-.95-.24-1.91-.33-2.87-.2-2.14-.28-4.29-.54-6.42s-.53-4.19-.63-6.32,0-4.48-.15-6.72a58.64,58.64,0,0,0-.64-5.91,40.35,40.35,0,0,1-.4-6.95c0-2.19-.08-4.36-.12-6.55,0-1-.15-2-.17-3a11.92,11.92,0,0,0-.18-2.8c-.05-.2-.37-.11-.32.09Z"/><path class="cls-7" d="M219.6,160.11c.56,2.65,1.49,5.66,3.64,7.47,1.55,1.31,4.92,2,6.63.71.17-.13,0-.42-.16-.29-1.76,1.34-5.06.43-6.56-.94-1.9-1.73-2.72-4.61-3.23-7,0-.21-.36-.12-.32.09Z"/><path class="cls-7" d="M220.77,159.81a24.44,24.44,0,0,0,1.67,3.36,12.14,12.14,0,0,0,2.43,2.53c1.34,1.14,3.4,2.63,5.11,1.37.17-.13,0-.41-.17-.29-1.8,1.33-4-.68-5.31-1.84a10.55,10.55,0,0,1-2-2.34,26.66,26.66,0,0,1-1.42-2.95c-.08-.2-.37,0-.28.16Z"/><path class="cls-16" d="M157.22,162.77c-.61,1.5-.17,3.66,3.54,3.71,1.55-.11,2.27-1.21,1.05-1.27,1.72-.28,1.83-.89,1-1.44S158.93,161.06,157.22,162.77Z"/><path class="cls-16" d="M180.63,122.64c-1.44,6.31-5,11.85-10.85,21.92s-11.34,15-15.47,18.24c-3.15,2.49-5.19,4.5-3.86,4.53,1.91,0,4.44-2.29,6.52-3.86s3.24-.25,2,.83-3.15,2.4-2.32,2.65,6.64-1.82,7.88-4.89,7.31-8.14,12.71-12.38,13-12.7,14.36-22C190.18,125.36,180.63,122.64,180.63,122.64Z"/><path class="cls-12" d="M192.26,100c-4.1,2.43-9.64,9.63-11.3,17.6a23.85,23.85,0,0,0-.88,6c.66.66,6.64,3.65,12.4,3.65C197.57,122.2,201.78,100.39,192.26,100Z"/><path class="cls-7" d="M156.35,164.27c.78-.56,1.7-1.52,2.72-1.56a.75.75,0,0,1,.72.44c.19.45-.5.8-.77,1-.46.3-.94.55-1.39.86-.17.12,0,.41.17.29.68-.47,3.16-1.43,2.06-2.6s-2.91.76-3.68,1.32c-.17.12,0,.41.17.28Z"/><path class="cls-7" d="M158.63,163.3a3.48,3.48,0,0,0,0,.91.17.17,0,1,0,.33,0,3.77,3.77,0,0,1-.05-.82.17.17,0,0,0-.32-.09Z"/><path class="cls-7" d="M158.34,166.77c1-.69,2.26-1,3.33-1.62a6.27,6.27,0,0,0,2.46-2.64.17.17,0,0,0-.29-.16,6.27,6.27,0,0,1-2.56,2.64c-1,.56-2.17.84-3.11,1.49-.17.12,0,.41.17.29Z"/><path class="cls-7" d="M181.05,122a15,15,0,0,0,6.47,1.77.16.16,0,1,0,0-.33,14.75,14.75,0,0,1-6.31-1.73c-.19-.09-.36.2-.16.29Z"/><path class="cls-11" d="M208.31,156.52c-2.88.77-8.75,2-12.73-7.64-2.39-5.78-7.86-29.67-5.21-39.74s3.88-7.64,3.88-7.64,1,11,1.77,15.39S205.54,155.3,208.31,156.52Z"/><path class="cls-13" d="M194.25,101.36c-4.46,4.87-4.21,27-1,36s7.42,18,8.64,18.82,3.87.22,6-.78c1.1.11.44,1.11.44,1.11-3.77,2.1-8,2.1-9.3.33s-7.64-15.94-9.52-24.91-2.63-21.12,4-31.41C193.17,99.53,194.25,101.36,194.25,101.36Z"/><path class="cls-12" d="M193.47,108.58a46.08,46.08,0,0,0,.95,13c1.27,8.14,5.72,20.59,9.05,25.82s1.74,11.79,2.9,12.45c2,1.12,9.72,1.66,18.77-1.08s16.44-6.8,15.94-8.55c-1.25-4.32-3.74-12.29-4.48-14.45s-29.51-39.19-34-38.94S193.64,101.19,193.47,108.58Z"/><path class="cls-16" d="M167.68,95.71c1.91,2.91,4.81,3.82,5.73,6.15s1.19,4.33,2,4.4a5.9,5.9,0,0,0,3-1.5c1.49.58,2.46,3.66,6.11,3.32s5.15-4.23,5.9-6.39a15.63,15.63,0,0,0,6.7,1.69s8.16-11.74,9-11.74c-5.15-1.32-11-1.32-13.28-2.32s-5.9-10.79-12.29-10.88-9.88,2.33-12.29,6.64S165.77,93.31,167.68,95.71Z"/><path class="cls-12" d="M199.29,90.32c.61.33,1.05,2.38.33,5,2.77-1.88,8.19-3.21,7.86-3.66S203.82,90.32,199.29,90.32Z"/><path class="cls-19" d="M192.84,89.32c-1.84-.82-4.61-7.51-9.06-10-1.47.77-3.94,2.07-4.23,2.25s-3.65,6.64.5,9.8c1.66,1.24,2.45,3.4,3.32,4.56.5.67,2-.33,1.75-1.33s-1.83-3.23-.5-4.81,2.65,0,3.65,1c2.8,1.34,5.23.26,5.9-1.08A7.28,7.28,0,0,1,192.84,89.32Z"/><path class="cls-9" d="M164.86,77.78c-4.16,4.48-5.24,11.29-2.08,15.44a47.73,47.73,0,0,0,4.32,5.15c.33.75-3.74,4.15-1.66,5.4s9-4.74,13.37-9.14,11.7-12.53,11.12-16.52c-.16-.75-1.16-1.69-3.65.8C183,77.92,175.07,67.65,164.86,77.78Z"/><path class="cls-7" d="M176.36,101a1.34,1.34,0,0,1-.9-.5c0-.08-.23-.39-.07-.45.34-.13.81.25.91.55s-.15.4-.39.28a.86.86,0,0,1-.47-.61c0-.19.18-.12.29-.08a1,1,0,0,1,.51.68l.07-.18c-.46.34-.87-.37-.83-.77l-.12.16a.93.93,0,0,1,.57.23,1,1,0,0,1,.42.51s0,.15-.06.16-.18-.13-.22-.18a1,1,0,0,1-.25-.55c-.06,0-.11.11-.17.17.16,0,.4,0,.42.24l.16-.16c-.17,0-.29-.1-.25-.29l-.16.12c.13,0,.21.12.29.2s.39-.08.24-.23a.82.82,0,0,0-.53-.3.16.16,0,0,0-.16.12.56.56,0,0,0,.57.71.17.17,0,0,0,.17-.17c0-.4-.38-.56-.75-.58a.18.18,0,0,0-.17.17,1.48,1.48,0,0,0,.46.89.41.41,0,0,0,.72-.13c.11-.34-.16-.65-.39-.86a1.35,1.35,0,0,0-1-.39c-.07,0-.11.09-.12.16-.06.65.66,1.56,1.33,1a.16.16,0,0,0,.08-.18,1.31,1.31,0,0,0-.74-.92.5.5,0,0,0-.7.23c-.22.6.95,1.64,1.41,1s-.41-1.36-1-1.4a.46.46,0,0,0-.52.45,1.19,1.19,0,0,0,.76,1,2.35,2.35,0,0,0,.51.17.17.17,0,0,0,.09-.32Z"/><path class="cls-7" d="M180.43,106.58c1.18-.17,1.76-1.86,1.7-2.9,0-.21-.35-.21-.34,0,.06.9-.41,2.44-1.45,2.58-.21,0-.12.35.09.32Z"/><path class="cls-7" d="M187.46,90.07a4.78,4.78,0,0,1,1.06,2.78A2.27,2.27,0,0,1,186.73,95a.17.17,0,0,0,.09.32,2.61,2.61,0,0,0,2-2c.32-1.32-.38-2.35-1-3.41a.17.17,0,0,0-.29.17Z"/><path class="cls-7" d="M171.12,96.35c.35-.67.1-1.11-.31-1.7s-.77-.89-.51-1.46a4.64,4.64,0,0,1,.87-1c.47-.53,1.33-1.84,2.15-1.4.63.34,1,1,1.68,1.28.2.07.29-.25.08-.32-.74-.27-1.16-1.3-2-1.4s-1.24.57-1.66,1-1.38,1.18-1.53,1.81c-.26,1.1,1.48,1.9.91,3-.1.19.19.36.29.17Z"/><path class="cls-7" d="M165.44,96.85a7.55,7.55,0,0,1,1.67,1.76c.57.85-.15,1.41-.71,2a.16.16,0,0,0,.23.23c.43-.42,1.23-1,1-1.74a5.37,5.37,0,0,0-2.07-2.5c-.17-.13-.33.15-.16.28Z"/><path class="cls-7" d="M168.37,99.21a46.64,46.64,0,0,0,5.77-4.09c1.77-1.67,3.34-3.58,5-5.41.77-.88,1.61-1.68,2.36-2.58s1.37-1.85,2-2.79c1.25-1.74,3-3.26,3.61-5.36.07-.2-.25-.29-.32-.08-.64,2-2.34,3.57-3.58,5.27-.72,1-1.39,2-2.17,3s-1.6,1.7-2.37,2.58c-1.49,1.69-2.94,3.4-4.54,5-1.78,1.76-3.9,2.83-5.92,4.24-.17.12,0,.41.17.29Z"/><path class="cls-7" d="M165.39,102.68c1.08.44,2.38-.82,3.22-1.34,1.46-.92,2.79-2,4.17-3s2.53-2.1,3.77-3.22c.6-.55,1.21-1.09,1.76-1.69s.93-1.23,1.42-1.82c.91-1.11,1.78-2.24,2.69-3.34s2.18-2.25,3.16-3.49,1.8-2.22,2.61-3.39a4.53,4.53,0,0,0,.91-3.61.17.17,0,0,0-.33.09c.37,1.49-.45,2.81-1.31,4s-1.74,2.29-2.66,3.37-1.92,2-2.79,3-1.65,2.1-2.51,3.12a30.55,30.55,0,0,1-2.59,3c-1.12,1-2.21,2.08-3.41,3s-2.56,2-3.87,2.93c-.61.45-1.26.83-1.9,1.23s-1.46,1.19-2.25.87c-.2-.08-.28.24-.09.32Z"/><path class="cls-7" d="M162.69,90.05a11.57,11.57,0,0,1,0-5.9A12.28,12.28,0,0,1,166,79a15.89,15.89,0,0,1,4.45-3.25,10.7,10.7,0,0,1,6.79-.69c.21,0,.3-.28.09-.32a11.28,11.28,0,0,0-6.53.5,15.42,15.42,0,0,0-5,3.53,13.14,13.14,0,0,0-3.32,5,11.48,11.48,0,0,0,0,6.34c0,.21.37.12.32-.09Z"/><path class="cls-7" d="M177.76,89.55c.28-.25,1.17-.83.83-1.34s-1.06-.94-1.13-1.77c-.06-.64.57-1.18,1-1.59.69-.68,1.66-2.4,2.73-1.4a1.54,1.54,0,0,0,2,.09c.18-.11,0-.4-.17-.29a1.33,1.33,0,0,1-1.37.2c-.23-.13-.38-.39-.61-.53a1,1,0,0,0-.84-.14c-.77.16-1.36,1.16-1.87,1.69a3.15,3.15,0,0,0-1.22,2,1.73,1.73,0,0,0,.42,1.08c.22.28,1,.83.55,1.29-.17.19-.39.33-.57.5s.07.38.23.24Z"/><path class="cls-13" d="M205.43,91.42c-4.54-.11-9.85,7.31-9,17s4.1,24.47,8.2,31.55,7.41,15.28,9.74,15.95,8.3.55,15.83-4.54,9.63-6,8.52-11.85-6.09-22.36-9.85-29S217.28,90.54,205.43,91.42Z"/><path class="cls-15" d="M224.72,134.82c-6,2.41-15.19,3.82-20.09,4.65l.67,1.68c.8,1.43,1.57,2.89,2.3,4.31a58.28,58.28,0,0,0,11-2.67A67.65,67.65,0,0,0,231.86,137a61.43,61.43,0,0,0,5.43-3.41c-.42-1.55-.91-3.23-1.45-5C234.16,129.52,229.91,132.73,224.72,134.82Z"/><path class="cls-7" d="M215,137.75a16.2,16.2,0,0,0,4.38-.86,52.4,52.4,0,0,0,5.31-1.76,99.8,99.8,0,0,0,9.66-4.37c.19-.1,0-.39-.17-.29a101.78,101.78,0,0,1-9.58,4.34c-1.55.59-3.13,1.14-4.73,1.6-.76.22-1.53.41-2.31.58a11.15,11.15,0,0,1-2.56.43.17.17,0,0,0,0,.33Z"/><path class="cls-15" d="M228.9,110.58c-.17-.31-.35-.62-.54-1-.84.44-2.35,1.28-5,2.83-5,2.92-21.29,6.37-25.32,6.83.34,1.78.73,3.58,1.16,5.35,11.88.6,25.35-5.67,31.79-9.69A44.35,44.35,0,0,0,228.9,110.58Z"/><path class="cls-15" d="M200.42,94.14a15.53,15.53,0,0,0-2.74,4.72c2.45-.27,5.41,1,8.08,3.08,1.55-1.88,5-2.88,5-2.88C210.18,98.12,205,94.92,200.42,94.14Z"/><path class="cls-15" d="M194,139.5a20.54,20.54,0,0,1-2.5-.28c.66,2,1.4,4,2.15,5.92a7.07,7.07,0,0,0,2.6,0C195.52,143.37,194.76,141.45,194,139.5Z"/><path class="cls-7" d="M188.19,125.32c.61,3.37,1.49,6.7,2.39,10,.94,3.48,1.79,7,3,10.4a45.59,45.59,0,0,0,4.93,9.94,5.82,5.82,0,0,0,2.89,2.38,9.4,9.4,0,0,0,4.22.19c.21,0,.22-.36,0-.34a9.59,9.59,0,0,1-4.13-.17c-1.69-.54-2.61-2.06-3.5-3.48a46.77,46.77,0,0,1-4.58-10c-1-3.13-1.8-6.36-2.66-9.53s-1.67-6.28-2.24-9.47c0-.21-.35-.12-.32.09Z"/><path class="cls-16" d="M203.66,122c-.44,8.08.77,13.06-3.65,20.15s-6.2,15.16-12.74,21.7-6.75,7.86-7.74,11.4c-.34,1.66,0,2.77.88,2a1.3,1.3,0,0,0,1.77-.22c1.11.44,2.88-1.44,3.32-2.55s2-3.21,6-5.86,9.63-9.3,13.18-13.51,9.07-8.08,11.84-18.27,3-15.27,3-15.27Z"/><path class="cls-7" d="M182.49,177a29.21,29.21,0,0,0,1.62-3.08,7,7,0,0,1,2.47-3.45c.18-.12,0-.41-.16-.29a6.69,6.69,0,0,0-2.21,2.65c-.33.65-.56,1.34-.9,2s-.76,1.33-1.11,2c-.09.19.19.36.29.17Z"/><path class="cls-7" d="M180.89,177.36a36,36,0,0,0,1.66-3.49,12,12,0,0,1,2.74-3.62c.16-.14-.08-.37-.24-.23a12,12,0,0,0-2.5,3.15c-.73,1.3-1.14,2.77-2,4-.12.18.17.35.29.17Z"/><path class="cls-7" d="M183.26,170a7,7,0,0,0-2.14,2.7c-.71,1.44-.77,3.09-1.52,4.5-.1.19.19.36.29.17a24.77,24.77,0,0,0,1.18-3.69,6.84,6.84,0,0,1,2.36-3.39c.17-.12,0-.41-.17-.29Z"/><path class="cls-7" d="M188.6,162.06a15.56,15.56,0,0,1,5.26,4.59c1.22-.89,1.83-1.44,1.83-1.44-.61-1.44-3.65-4-5.59-4.87A9.63,9.63,0,0,0,188.6,162.06Z"/><path class="cls-11" d="M193.19,164.19a2.16,2.16,0,1,1,0-3.22A2.29,2.29,0,0,1,193.19,164.19Z"/><path class="cls-9" d="M191.32,164.41a1.29,1.29,0,0,1-.89-.33,1.34,1.34,0,0,1-.45-1,1.88,1.88,0,0,1,.49-1.25,1.82,1.82,0,0,1,1.37-.66,1.33,1.33,0,0,1,.89.32,1.63,1.63,0,0,1,0,2.29A1.85,1.85,0,0,1,191.32,164.41Z"/><path class="cls-12" d="M208.7,98.54c-5,1.41-6.15,7.14-5.73,14.69s-.5,10.13-.09,10.63c1.66,1.25,6.48,1.08,9.22.66s6.23-.49,8.22-1.66c.33-.33.25-4.15.58-8.3S221.4,96.13,208.7,98.54Z"/><path class="cls-7" d="M190.12,96.93a5.26,5.26,0,0,1,.48,3,9.74,9.74,0,0,1-.92,3.9c-.09.2.19.37.28.17a10.26,10.26,0,0,0,1-4.07,5.5,5.5,0,0,0-.52-3.13c-.12-.17-.41,0-.29.17Z"/><path class="cls-7" d="M198.18,98.9a11.38,11.38,0,0,1,6.06,2.13c.18.12.34-.17.17-.28a11.73,11.73,0,0,0-6.23-2.19.17.17,0,0,0,0,.34Z"/><path class="cls-7" d="M201.17,94.47a13,13,0,0,1,4.23,1.32c.73.29,1.42.66,2.12,1A4.87,4.87,0,0,1,209.19,98c.13.17.37-.07.23-.23-.86-1.07-2.44-1.56-3.63-2.13-.69-.34-1.44-.57-2.16-.85a7,7,0,0,0-2.46-.61c-.22,0-.22.32,0,.33Z"/><path class="cls-7" d="M203.77,122.86c1.12,0,2.21.3,3.32.39a13.27,13.27,0,0,0,3.14-.3c1.14-.18,2.26-.44,3.38-.7s2.15-.24,3.21-.44c.21,0,.12-.36-.09-.32-1,.18-1.95.23-2.92.38-1.12.18-2.23.51-3.36.71a15.82,15.82,0,0,1-3.36.33c-1.12,0-2.2-.35-3.32-.38a.17.17,0,0,0,0,.33Z"/><path class="cls-7" d="M207.07,158.56a30.49,30.49,0,0,0,3.9.75,21.66,21.66,0,0,0,4.33-.24c2.67-.35,5.34-.87,8-1.46a31.23,31.23,0,0,0,14.37-7.14c.15-.15-.08-.38-.24-.24a30.68,30.68,0,0,1-13.93,7c-2.5.59-5.05,1.07-7.6,1.44a25.55,25.55,0,0,1-4.28.33,23.75,23.75,0,0,1-4.42-.75c-.21,0-.3.28-.09.32Z"/><path class="cls-7" d="M221.65,113.54a52.41,52.41,0,0,0,6.45-3.65c.17-.13,0-.42-.17-.29a52.48,52.48,0,0,1-6.45,3.66c-.19.1,0,.39.17.28Z"/><path class="cls-15" d="M190.87,119.83a11.56,11.56,0,0,1-2.68-.62,47.61,47.61,0,0,0,.19,5.38c.58.12,1.55.3,2.71.48C191,123.35,190.89,121.59,190.87,119.83Z"/><path class="cls-7" d="M219.41,124.9a99.34,99.34,0,0,0,4.47,13.33c.86,2.19,1.72,4.37,2.53,6.57.38,1.06.75,2.11,1.09,3.18.19.58.37,1.16.55,1.75s.6,1.16.26,1.78c-.1.19.19.36.29.17.38-.71,0-1.34-.23-2-.38-1.16-.73-2.33-1.13-3.49-.84-2.4-1.77-4.78-2.7-7.15a104.38,104.38,0,0,1-4.81-14.19c0-.21-.37-.12-.32.09Z"/><path class="cls-7" d="M211.29,150.27c1.44,1.86,2.5,4.19,4.9,4.93s5-.12,7.12-1a45.55,45.55,0,0,0,14.4-9.51c.15-.15-.08-.38-.24-.23a42.25,42.25,0,0,1-6,5.05,55.33,55.33,0,0,1-6.93,3.78c-2.3,1.11-4.91,2.16-7.51,1.79-2.75-.39-3.89-3-5.42-4.94-.13-.17-.42,0-.29.17Z"/><path class="cls-7" d="M196.24,108.17a67.6,67.6,0,0,0,2.13,14.26c.54,2.39,1.16,4.77,1.9,7.11a29,29,0,0,0,1,2.84,22.86,22.86,0,0,1,1.29,3.4c.05.21.37.12.32-.09-.5-2-1.55-3.93-2.2-5.93-.76-2.34-1.37-4.72-1.92-7.11a67.07,67.07,0,0,1-2.19-14.48.16.16,0,0,0-.33,0Z"/><path class="cls-7" d="M191.09,114a65.25,65.25,0,0,0,.2,15.17,38.07,38.07,0,0,0,1.4,7,42.38,42.38,0,0,0,2.74,6.48c.1.19.39,0,.29-.17a43.88,43.88,0,0,1-2.8-6.68,38.14,38.14,0,0,1-1.36-7.25,62.12,62.12,0,0,1-.13-14.55c0-.21-.31-.21-.34,0Z"/><path class="cls-7" d="M207,91.56a20.57,20.57,0,0,1,3.91.63,17.39,17.39,0,0,1,3.8,1.86,28.18,28.18,0,0,1,6.25,5.16,69.91,69.91,0,0,1,9.31,13.86c.1.19.39,0,.29-.17A71.52,71.52,0,0,0,221,98.76,24.13,24.13,0,0,0,217.85,96a32.52,32.52,0,0,0-3.26-2.36A19.34,19.34,0,0,0,211,91.87a18,18,0,0,0-4-.64c-.21,0-.21.31,0,.33Z"/></g></svg>