<svg xmlns="http://www.w3.org/2000/svg" viewBox="0 0 250 250"><defs><style>.cls-1{isolation:isolate;}.cls-2{fill:#a09599;}.cls-3{fill:#473a41;}.cls-4{fill:#1e191b;}.cls-11,.cls-14,.cls-16,.cls-19,.cls-22,.cls-26,.cls-5,.cls-6{fill:none;}.cls-5{stroke:#54464a;}.cls-11,.cls-14,.cls-16,.cls-19,.cls-22,.cls-26,.cls-46,.cls-5,.cls-6{stroke-miterlimit:10;}.cls-5,.cls-6{stroke-width:52.48px;}.cls-6{stroke:#4c3e42;}.cls-7{fill:#804d2c;}.cls-8{fill:#db7d3d;}.cls-9{fill:#a36d48;opacity:0.59;}.cls-15,.cls-9{mix-blend-mode:multiply;}.cls-10{fill:#fff;}.cls-11{stroke:#b4d7db;stroke-width:2px;}.cls-12,.cls-18{fill:#007ea5;}.cls-12{opacity:0.17;}.cls-13{fill:#0092db;}.cls-14,.cls-16,.cls-46{stroke:#fff;}.cls-14{stroke-width:0.59px;}.cls-14,.cls-25{opacity:0.3;}.cls-15,.cls-53{fill:#005ea5;}.cls-15,.cls-29{opacity:0.5;}.cls-16{stroke-width:3.32px;}.cls-17{fill:#e4edef;}.cls-18,.cls-23{opacity:0.34;}.cls-19{stroke:#c46c31;stroke-width:5px;}.cls-20{fill:#f9966b;}.cls-21{fill:#c61c00;}.cls-22{stroke:#e23000;stroke-width:1.87px;}.cls-23{fill:#9b1200;}.cls-24{fill:#feb187;}.cls-25,.cls-29{fill:#d36f54;}.cls-26{stroke:#c61c00;stroke-width:4.98px;}.cls-27{fill:#ffc299;}.cls-28{fill:#991200;}.cls-30{fill:#ffa071;}.cls-31{fill:#ffc200;}.cls-32{fill:#ffe424;}.cls-33{fill:#ffd3b6;}.cls-34{fill:#777b7f;}.cls-35{fill:#fafbff;}.cls-36{fill:#f43756;}.cls-37{fill:#c90d4c;}.cls-38{fill:#ffb36e;}.cls-39{fill:#682111;}.cls-40{fill:#7fa800;}.cls-41{fill:#618900;}.cls-42{fill:#ce7000;}.cls-43{fill:#776091;}.cls-44{fill:#604d7a;}.cls-45{fill:#e04103;}.cls-46{fill:#491502;stroke-width:6.39px;}.cls-47{fill:#ea2f2f;}.cls-48{fill:#ff4848;}.cls-49{fill:#d3004c;}.cls-50{fill:#0058d8;}.cls-51{fill:#008bea;}.cls-52{fill:#0078c1;}</style></defs><g class="cls-1"><g id="Layer_1" data-name="Layer 1"><ellipse class="cls-2" cx="221.98" cy="130.28" rx="17.92" ry="5.52" transform="translate(10.2 276.56) rotate(-65.04)"/><path class="cls-3" d="M231.22,115.22l-14.5,31.93c-.66,1.47-2.09,2.27-3.18,1.77l0,0c-1.09-.49-1.43-2.09-.77-3.56l14.5-31.93c.67-1.47,2.09-2.26,3.18-1.77l0,0C231.54,112.16,231.89,113.75,231.22,115.22Z"/><ellipse class="cls-4" cx="198.29" cy="115.05" rx="22.44" ry="23.42" transform="translate(39.32 280.23) rotate(-76.22)"/><line class="cls-5" x1="212.42" y1="114.95" x2="185.22" y2="100.13"/><line class="cls-5" x1="206.75" y1="127.61" x2="178.2" y2="115.62"/><ellipse class="cls-2" cx="152.98" cy="213.41" rx="17.92" ry="5.52" transform="translate(-59.18 58.7) rotate(-18.27)"/><path class="cls-3" d="M170.29,209.83l-33.2,11.31c-1.53.52-3.08,0-3.47-1.11v0c-.39-1.13.54-2.48,2.07-3l33.19-11.3c1.53-.52,3.09,0,3.47,1.11l0,0C172.74,208,171.82,209.31,170.29,209.83Z"/><path class="cls-4" d="M161.14,180.25a22,22,0,0,1-8.5,30.58c-10.82,6.12-24.78,1.9-31.16-9.42A22.06,22.06,0,0,1,130,170.82C140.8,164.71,154.75,168.93,161.14,180.25Z"/><line class="cls-6" x1="151.48" y1="197.63" x2="152.61" y2="167.63"/><line class="cls-6" x1="139.67" y1="201.77" x2="124.45" y2="176.03"/><ellipse class="cls-2" cx="33.63" cy="178.3" rx="5.52" ry="17.92" transform="translate(-116.81 76.86) rotate(-45.33)"/><path class="cls-3" d="M44.69,192.08,19.52,167.66c-1.16-1.12-1.43-2.73-.59-3.59l0,0c.83-.86,2.45-.65,3.61.48l25.17,24.41c1.16,1.13,1.42,2.74.59,3.6l0,0C47.46,193.42,45.85,193.2,44.69,192.08Z"/><ellipse class="cls-4" cx="53.91" cy="162.53" rx="21.12" ry="20.21" transform="translate(-111.39 117.81) rotate(-56.51)"/><line class="cls-5" x1="51.29" y1="174.47" x2="74.4" y2="153.87"/><line class="cls-5" x1="41.28" y1="164.86" x2="62.2" y2="142.03"/><path class="cls-7" d="M199.87,93.1c.14.69.27,1.39.39,2.08a0,0,0,0,1,0,0c.3,1.71.54,3.41.73,5.11a79.54,79.54,0,1,1-1.13-7.22Z"/><path class="cls-8" d="M199.09,92.32c.14.69.27,1.39.39,2.08a0,0,0,0,1,0,0c.3,1.71.54,3.41.73,5.11a79.2,79.2,0,0,1-5.81,39.64,80.27,80.27,0,0,1-7.21,13.31,79.51,79.51,0,1,1,11.89-60.17Z"/><path class="cls-9" d="M86,53.67,77.5,113a5.06,5.06,0,1,0-1.44,10l94.18,13.55,10-69.37L179,65.66Z"/><path class="cls-9" d="M76.94,141.75l0-.1a1.54,1.54,0,0,1,1-1c1.29-.4,3.69-1.68,2.22-5.46-1.68-4.34-25.81-.36-32.44.82a1.46,1.46,0,0,0-.55.21,77.08,77.08,0,0,0,3.4,8L61.35,144a1.56,1.56,0,0,0,1-.44l1.46-1.43a1.54,1.54,0,0,1,1.87-.24l3.21,1.87a1.51,1.51,0,0,0,1.1.18l5.75-1.17A1.56,1.56,0,0,0,76.94,141.75Z"/><path class="cls-9" d="M137.11,164.7a2.05,2.05,0,0,1,1.22,1.21c1,2.89,6.73,3.45,9.13,2.27a2.09,2.09,0,0,1,1.07-.22,15,15,0,0,1,3.52.73c.41.12,4.37,2.46,6.39,2.84,1,.18-.85,7.55-.85,7.55a2.25,2.25,0,0,0,.09.9q2.15-1.06,4.19-2.26v-9.66a2.13,2.13,0,0,0-1.57-2.05l-8.18-2.2a2.24,2.24,0,0,1-.77-.39c-1.69-1.35-6-6.33-9.38-6.15-2.87.15-6.66.89-6.72,1.69a2.26,2.26,0,0,1-.3.94l-.09.16C133,162.72,135.55,164.12,137.11,164.7Z"/><path class="cls-9" d="M198.2,86.43c.74,2.54,1.48,5.7,2.06,8.75a0,0,0,0,1,0,0c.34,1.82.63,3.61.83,5.2l-.1-.09-3.6-3.12-8.78,8.08L187.2,109a5,5,0,0,1-2.17,2.55l0,0a5.35,5.35,0,0,0-2.66,4.82v0a6.64,6.64,0,0,1-.63,3.07l-.23.49.06,16.08,13.17-.55.47,4.46a79.49,79.49,0,0,1-7.2,13.31c-6.36-2.16-14.24-5.69-16.82-9.23-1.56-2.15-2.74-23.59-2.74-23.59s-1.11-2-1-8.88c.2-8.94,5.28-6.13,6.61-6.49,3-2.41,7.53-6.67,7.53-6.67s13.07-14.22,13.16-14.73Z"/><rect class="cls-9" x="124.52" y="111.04" width="38.22" height="29.43" transform="translate(-40.15 177.45) rotate(-56.92)"/><rect class="cls-10" x="124.25" y="109.74" width="38.22" height="29.43" transform="translate(-39.17 176.63) rotate(-56.92)"/><line class="cls-11" x1="145.76" y1="142.4" x2="125.97" y2="129.51"/><line class="cls-11" x1="146.81" y1="140.79" x2="127.03" y2="127.9"/><line class="cls-11" x1="147.95" y1="139.05" x2="128.16" y2="126.15"/><line class="cls-11" x1="149" y1="137.43" x2="129.21" y2="124.54"/><line class="cls-11" x1="150.02" y1="135.87" x2="130.23" y2="122.98"/><line class="cls-11" x1="151.07" y1="134.26" x2="131.28" y2="121.36"/><line class="cls-11" x1="152.2" y1="132.51" x2="132.42" y2="119.62"/><line class="cls-11" x1="153.25" y1="130.9" x2="133.47" y2="118.01"/><polygon class="cls-12" points="122.36 129.69 154.48 134.31 166.11 116.46 141.45 100.39 122.36 129.69"/><path class="cls-9" d="M128.72,157.61c-1.71-.09-5,8.77-5,8.77l-12,21.43,1.21.29a78.45,78.45,0,0,0,8.57.41l1.91-4.13-.25-1.3s6.31-11.94,7.3-15.23S130.43,157.69,128.72,157.61Z"/><rect class="cls-13" x="91.87" y="45.99" width="70.09" height="95.16" transform="translate(16.22 205.86) rotate(-81.81)"/><polygon class="cls-13" points="169.01 135.03 85.16 122.97 178.99 65.66 169.01 135.03"/><line class="cls-14" x1="170.91" y1="68.36" x2="161.88" y2="131.13"/><line class="cls-14" x1="166.39" y1="67.71" x2="157.36" y2="130.48"/><line class="cls-14" x1="161.88" y1="67.07" x2="152.85" y2="129.84"/><line class="cls-14" x1="157.36" y1="66.41" x2="148.33" y2="129.18"/><line class="cls-14" x1="143.82" y1="128.55" x2="152.85" y2="65.78"/><line class="cls-14" x1="148.33" y1="65.12" x2="139.3" y2="127.89"/><line class="cls-14" x1="143.81" y1="64.49" x2="134.78" y2="127.26"/><line class="cls-14" x1="139.31" y1="63.78" x2="130.28" y2="126.55"/><line class="cls-14" x1="134.79" y1="63.15" x2="125.76" y2="125.92"/><line class="cls-14" x1="130.28" y1="62.49" x2="121.25" y2="125.26"/><line class="cls-14" x1="125.76" y1="61.86" x2="116.73" y2="124.63"/><line class="cls-14" x1="121.25" y1="61.2" x2="112.22" y2="123.97"/><line class="cls-14" x1="116.73" y1="60.56" x2="107.7" y2="123.33"/><line class="cls-14" x1="112.22" y1="59.91" x2="103.19" y2="122.68"/><line class="cls-14" x1="107.7" y1="59.27" x2="98.67" y2="122.04"/><line class="cls-14" x1="103.19" y1="58.58" x2="94.16" y2="121.35"/><line class="cls-14" x1="98.67" y1="57.95" x2="89.64" y2="120.72"/><line class="cls-14" x1="94.16" y1="57.29" x2="85.13" y2="120.06"/><line class="cls-14" x1="89.64" y1="56.66" x2="80.61" y2="119.43"/><line class="cls-14" x1="166.97" y1="127.28" x2="80.29" y2="114.81"/><line class="cls-14" x1="167.68" y1="122.78" x2="80.99" y2="110.3"/><line class="cls-14" x1="168.31" y1="118.26" x2="81.63" y2="105.79"/><line class="cls-14" x1="168.97" y1="113.74" x2="82.28" y2="101.27"/><line class="cls-14" x1="169.6" y1="109.23" x2="82.92" y2="96.76"/><line class="cls-14" x1="170.27" y1="104.71" x2="83.58" y2="92.24"/><line class="cls-14" x1="170.9" y1="100.2" x2="84.21" y2="87.73"/><line class="cls-14" x1="171.56" y1="95.68" x2="84.87" y2="83.21"/><line class="cls-14" x1="172.19" y1="91.17" x2="85.5" y2="78.7"/><line class="cls-14" x1="172.88" y1="86.66" x2="86.2" y2="74.19"/><line class="cls-14" x1="173.51" y1="82.14" x2="86.83" y2="69.67"/><line class="cls-14" x1="174.17" y1="77.63" x2="87.49" y2="65.16"/><line class="cls-14" x1="174.81" y1="73.11" x2="88.12" y2="60.64"/><rect class="cls-15" x="48.64" y="83.45" width="70.09" height="7.81" transform="translate(-14.69 157.74) rotate(-81.81)"/><path class="cls-10" d="M88.86,111.61l7-48.89,48.89,7-7,48.89Zm7.91-47.72L90,110.74l46.84,6.74,6.74-46.85Z"/><path class="cls-10" d="M106.88,98.13,111.6,65.3,144.43,70l-4.72,32.83ZM112,65.77l-4.61,32,32,4.6,4.6-32Z"/><path class="cls-10" d="M93.19,83.65l3-20.58L112,65.36l-3,20.57ZM96.5,63.54,93.66,83.3l15,2.16,2.84-19.75Z"/><path class="cls-10" d="M89.21,111.35l4-28.11,15.86,2.28-4,28.11ZM93.6,83.7,89.68,111l15,2.16,3.93-27.29Z"/><rect class="cls-10" x="120.36" y="94.39" width="46.8" height="0.5" transform="translate(29.6 223.46) rotate(-81.81)"/><polygon class="cls-10" points="145.92 71.32 147.25 70.37 148.25 71.65 145.92 71.32"/><polygon class="cls-10" points="141.59 117.97 140.26 118.92 139.26 117.64 141.59 117.97"/><rect class="cls-10" x="120.42" y="40.84" width="0.5" height="46.14" transform="translate(40.23 174.25) rotate(-81.81)"/><polygon class="cls-10" points="143.68 66.03 144.6 67.35 143.34 68.36 143.68 66.03"/><polygon class="cls-10" points="97.67 61.79 96.74 60.47 98 59.46 97.67 61.79"/><rect class="cls-10" x="131.38" y="85.82" width="20.98" height="1.03" transform="translate(36.21 214.47) rotate(-81.81)"/><rect class="cls-10" x="127.47" y="57.37" width="1.03" height="20.98" transform="matrix(0.14, -0.99, 0.99, 0.14, 42.59, 184.88)"/><rect class="cls-10" x="88.32" y="72.51" width="13.23" height="1.03" transform="translate(9.13 156.59) rotate(-81.81)"/><rect class="cls-10" x="84.82" y="96.81" width="13.23" height="1.03" transform="translate(-17.91 173.97) rotate(-81.81)"/><path class="cls-10" d="M100.29,69.76a3,3,0,1,1,2.51,3.36A3,3,0,0,1,100.29,69.76Zm5.46.79a2.55,2.55,0,1,0-2.89,2.16A2.55,2.55,0,0,0,105.75,70.55Z"/><rect class="cls-10" x="100.76" y="80.75" width="0.77" height="7.67" transform="translate(3.03 172.66) rotate(-81.81)"/><rect class="cls-10" x="102.1" y="105.7" width="7.67" height="0.77" transform="translate(-14.16 195.84) rotate(-81.81)"/><rect class="cls-10" x="122.93" y="96.45" width="0.77" height="7.67" transform="translate(6.5 208.07) rotate(-81.81)"/><rect class="cls-10" x="120.34" y="105.11" width="1.55" height="20.98" transform="translate(-10.55 219.02) rotate(-81.81)"/><rect class="cls-10" x="120.21" y="107.8" width="1.03" height="20.98" transform="translate(-13.54 220.94) rotate(-81.81)"/><rect class="cls-10" x="119.97" y="109.48" width="1.03" height="20.98" transform="translate(-15.42 222.15) rotate(-81.81)"/><path class="cls-10" d="M119.45,99.5l.25,0a7.59,7.59,0,0,0,6.33,7.94l1-6.88.25,0-1,7.13-.13,0A7.84,7.84,0,0,1,119.45,99.5Z"/><path class="cls-10" d="M105.16,110l0-.25a7.57,7.57,0,0,0,7.94-6.33l-6.88-1,0-.25,7.13,1,0,.13A7.84,7.84,0,0,1,105.16,110Z"/><path class="cls-10" d="M97.27,83.81l.25,0a7.58,7.58,0,0,0,6.33,7.94l1-6.87.25,0-1,7.14-.13,0A7.85,7.85,0,0,1,97.27,83.81Z"/><line class="cls-16" x1="149.15" y1="86.72" x2="170.05" y2="89.73"/><line class="cls-16" x1="141.7" y1="87.1" x2="169.85" y2="91.15"/><line class="cls-16" x1="147.83" y1="95.94" x2="168.73" y2="98.94"/><line class="cls-16" x1="147.62" y1="97.36" x2="168.52" y2="100.36"/><line class="cls-16" x1="147.42" y1="98.78" x2="168.32" y2="101.79"/><line class="cls-16" x1="147.21" y1="100.2" x2="168.11" y2="103.21"/><line class="cls-16" x1="147.01" y1="101.62" x2="167.91" y2="104.63"/><line class="cls-16" x1="146.8" y1="103.04" x2="167.7" y2="106.05"/><line class="cls-16" x1="146.6" y1="104.46" x2="167.5" y2="107.47"/><line class="cls-16" x1="139" y1="104.82" x2="167.3" y2="108.89"/><polygon class="cls-9" points="97.41 118.29 62.94 134.79 68.97 148.96 80.03 163.36 110.12 144.84 97.41 118.29"/><path class="cls-9" d="M93.83,141.68l0-1.2A1,1,0,0,0,92,140l0,.05c-.78,1.47-4.38,4.63-4.67,8a1,1,0,0,1-1,.89c-1-.06-3-.28-3.8.88-2.12,3.21-7.7,14.8-9.4,17.82a5.45,5.45,0,0,1-2.37,2.16q2.3,1.92,4.73,3.66C81.69,164.87,93.84,147.2,93.83,141.68Z"/><polyline class="cls-10" points="69.94 148.58 62.63 133.31 97.11 116.81 109.82 143.36 79.62 157.8"/><polygon class="cls-17" points="79.6 157.78 81.44 153.4 69.92 148.56 79.6 157.78"/><line class="cls-11" x1="93.51" y1="121.75" x2="103.7" y2="143.05"/><line class="cls-11" x1="91.77" y1="122.59" x2="101.97" y2="143.89"/><line class="cls-11" x1="89.9" y1="123.48" x2="100.09" y2="144.78"/><line class="cls-11" x1="88.16" y1="124.31" x2="98.35" y2="145.62"/><path class="cls-18" d="M88.82,153.5a57.46,57.46,0,0,0,4.37-8.77l.64,3.11s.6,1.16,1.57.06,4.51-3.83,3.14-5.19a62,62,0,0,1-4.7-6.62,44,44,0,0,1-2.39,4.39c-1.75,2.78-3.93,5.79-4.1,7.71a1,1,0,0,1-1,.88c-1.06,0-2.63-.78-3.2.5-1.71,3.83-3.51,8.32-3.51,8.32Z"/><path class="cls-12" d="M77.19,142.17l0-.1a1.59,1.59,0,0,1,1-1c1.29-.4,3.69-1.68,2.23-5.46-1-2.47-9.2-2.25-17.34-1.38l4.23,8.84,1.83,1.06a1.49,1.49,0,0,0,1.09.18L76,143.17A1.57,1.57,0,0,0,77.19,142.17Z"/><line class="cls-19" x1="97.36" y1="150" x2="98.49" y2="153.54"/><path class="cls-20" d="M95.22,139s-1.47,1.58.86,3.66L96,145a4.17,4.17,0,0,0-2.3,2.06c-.76,1.48,2.1,1.27,2.1,1.27l3.15-4.79Z"/><rect class="cls-21" x="94.54" y="137.39" width="1.29" height="5.96" transform="translate(-38.18 35.59) rotate(-17.7)"/><line class="cls-22" x1="94.28" y1="137.53" x2="95.97" y2="142.83"/><path class="cls-23" d="M94.12,139.21l.88,2.73a1.8,1.8,0,0,0,.07-1.5C94.87,139.76,94.47,139.26,94.12,139.21Z"/><path class="cls-23" d="M95.22,138.4l-.1,0c-.34.21-.26.95.18,1.65a2.54,2.54,0,0,0,.71.77Z"/><path class="cls-24" d="M98.69,148.34l1.23-5.15a.5.5,0,0,0-.09-.41l-2.15-2.84-1.88-1.66a.43.43,0,0,0-.66.14c-.16.59-.06,1.5,1.25,2.58l1.53,2.63a10.73,10.73,0,0,0-1.43,2.07.89.89,0,0,1-.71.45L94,146.3h0a1.8,1.8,0,0,1-.28-1.53,14.7,14.7,0,0,1,.85-2.54c.5-.8.61-2.43-.5-2.91-.71-.32-.85.93-1,1.43-.37.92-1.88,3.35-2.55,4.88A38.52,38.52,0,0,0,89.11,150l-.34.77,3.42,2.27.85-1.49,5.29-2.8A.66.66,0,0,0,98.69,148.34Z"/><path class="cls-25" d="M96.65,145.52a.75.75,0,0,1-.07.12.92.92,0,0,1-.71.46h-.14l.6,3.73L98,149Z"/><line class="cls-26" x1="96.09" y1="143.21" x2="98.32" y2="150.2"/><line class="cls-22" x1="95.97" y1="142.83" x2="98.32" y2="150.2"/><polygon class="cls-27" points="94.89 137.33 93.65 137.73 93.85 136.19 94.89 137.33"/><path class="cls-10" d="M88.24,149.75l-1,1.74,5.39,3.29,1.11-2A7.37,7.37,0,0,0,88.24,149.75Z"/><polygon class="cls-28" points="93.79 136.69 94.18 136.55 93.85 136.19 93.79 136.69"/><path class="cls-24" d="M65.18,134.79a28.2,28.2,0,0,1,4.34-1.21,15.72,15.72,0,0,1,7.72-.19c1.08.27,2.12-1.17,1.06-1.51-2.87-.92-5.91-.61-9,0a27.49,27.49,0,0,0-4.62,1.27.89.89,0,0,0-.61,1.06.87.87,0,0,0,1.06.6Z"/><path class="cls-29" d="M76.64,133.53a2.07,2.07,0,0,0,1.75-.46c-3.3-1-6-.69-8.73-.34a31.59,31.59,0,0,0-5.19,1,1.11,1.11,0,0,0-.64.47.83.83,0,0,0,1.08.77,28.2,28.2,0,0,1,4.34-1.21C72,133.24,73.75,132.81,76.64,133.53Z"/><path class="cls-24" d="M65.21,135.45a30.12,30.12,0,0,1,4.91-.81,19.24,19.24,0,0,1,9.18,1c1.14.47,2.11-1.06,1-1.59-3.54-1.69-6.92-1.6-10.15-1.31a31.82,31.82,0,0,0-5.23.83,1,1,0,0,0-.8,1.09,1,1,0,0,0,1.09.8Z"/><path class="cls-29" d="M79.3,135.63a1,1,0,0,0,1-.08,21.57,21.57,0,0,0-9.55-1.43,31,31,0,0,0-5.26.62,1,1,0,0,0-.8.65.7.7,0,0,0,.51.06,31.63,31.63,0,0,1,4.91-.81A19.4,19.4,0,0,1,79.3,135.63Z"/><path class="cls-24" d="M64.66,138.16c1.63-.33,3.67.31,5.32.24a22.1,22.1,0,0,1,8.42,1.19c1.16.43,2.57-.9,1.46-1.43a21.1,21.1,0,0,0-9.75-1.66,30,30,0,0,0-5.26.54c-.51.1-1.28-.29-1.23.27a1,1,0,0,0,1,.85Z"/><path class="cls-24" d="M65.77,136.56a31.72,31.72,0,0,1,5-.42,23,23,0,0,1,8.43,1.28c1.16.42,2.55-.74,1.46-1.3a21.16,21.16,0,0,0-9.71-1.88,30.09,30.09,0,0,0-5.28.42,1,1,0,0,0-.88,1,1,1,0,0,0,1,.88Z"/><path class="cls-24" d="M75.78,140.45a3,3,0,0,0-2.63-.58,1.46,1.46,0,0,1-1.69-.7.21.21,0,0,1,.15-.32,9.55,9.55,0,0,0,3.24-.87c-1-1.4.56-3.59-1.54-6.58l-7.9,1.48-2.6.12,0,5.61,3.54.28.28.38a2.48,2.48,0,0,0,1,.82l3.55,1.52a2.12,2.12,0,0,0,1.11.17l3.3-.34A.55.55,0,0,0,75.78,140.45Z"/><path class="cls-10" d="M61.51,132l3.66.37a7.8,7.8,0,0,1-.13,6.91l-2.88-.17Z"/><path class="cls-30" d="M183.89,100a28.19,28.19,0,0,0-4,2.41,16.16,16.16,0,0,0-5.58,5.68c-.56,1-2.37.78-1.88-.26,1.33-2.81,3.69-4.88,6.28-6.76A28.25,28.25,0,0,1,183,98.46a.89.89,0,0,1,.94,1.51Z"/><path class="cls-29" d="M174.87,107.7a2.13,2.13,0,0,1-1.58,1c1.53-3.22,3.68-5,5.88-6.81a33,33,0,0,1,4.44-3.18,1.12,1.12,0,0,1,.81-.15.5.5,0,0,1,.1.14.89.89,0,0,1-.28,1.22,29.16,29.16,0,0,0-4,2.41C177.94,104,176.36,105,174.87,107.7Z"/><path class="cls-30" d="M184.35,100.45a31.56,31.56,0,0,0-4.06,3.13,20.06,20.06,0,0,0-5.72,7.61c-.44,1.18-2.28.84-1.89-.37,1.22-3.85,3.66-6.33,6.15-8.57a32.25,32.25,0,0,1,4.31-3.34,1,1,0,0,1,1.38.16,1,1,0,0,1-.17,1.38Z"/><path class="cls-29" d="M174.58,111.19a1.1,1.1,0,0,1-.77.69,22.2,22.2,0,0,1,5.65-8.19,32.49,32.49,0,0,1,4.16-3.53,1.11,1.11,0,0,1,1.06-.14.81.81,0,0,1-.32.43,31.56,31.56,0,0,0-4.06,3.13A19.86,19.86,0,0,0,174.58,111.19Z"/><path class="cls-30" d="M186.78,102c-1.39,1-2.35,3-3.56,4.17a22.66,22.66,0,0,0-5,7.18c-.49,1.17-2.48,1.3-2.11.09a21.94,21.94,0,0,1,5.61-8.51,31.2,31.2,0,0,1,4.12-3.58c.43-.31.68-1.17,1.06-.73a1,1,0,0,1-.09,1.38Z"/><path class="cls-30" d="M184.8,101.66A31.07,31.07,0,0,0,181,105.1a23.61,23.61,0,0,0-5,7.24c-.5,1.17-2.35,1.4-2,.18a21.78,21.78,0,0,1,5.41-8.63,31.2,31.2,0,0,1,4-3.67,1,1,0,0,1,1.38,0,1,1,0,0,1,0,1.39Z"/><path class="cls-30" d="M180.68,111.93a3.1,3.1,0,0,1,1.42-2.39,1.51,1.51,0,0,0,.66-1.76.22.22,0,0,0-.35-.12,9.62,9.62,0,0,1-2.94,1.83c-.36-1.72-3.09-2.11-3.87-5.79l6.68-4.9,1.92-1.88,4.23,3.94-2.28,2.86.1.47a2.49,2.49,0,0,1-.11,1.35l-1.34,3.74a2.37,2.37,0,0,1-.66,1l-2.59,2.24A.56.56,0,0,1,180.68,111.93Z"/><path class="cls-10" d="M184.34,95.22l-2.3,3a8.06,8.06,0,0,0,5.3,4.76l1.89-2.29Z"/><path class="cls-24" d="M174.35,120.29a31.34,31.34,0,0,1-1.52-4.63c-.73-2.9-1.21-5.19-.58-8.34.24-1.18-1.36-2.25-1.68-1.08-.85,3.15-.38,6.42.41,9.68a30.47,30.47,0,0,0,1.59,4.93,1,1,0,0,0,1.18.61.93.93,0,0,0,.6-1.17Z"/><path class="cls-29" d="M172.43,108a2.23,2.23,0,0,0-.58-1.87c-1,3.61-.46,6.49.05,9.45a34.23,34.23,0,0,0,1.38,5.56,1.2,1.2,0,0,0,.54.68l.17,0a.94.94,0,0,0,.61-1.17,31.73,31.73,0,0,1-1.52-4.63C172.34,113,171.8,111.11,172.43,108Z"/><path class="cls-24" d="M175.06,120.22A32.7,32.7,0,0,1,174,115a20.91,20.91,0,0,1,.62-10c.46-1.25-1.24-2.23-1.76-1-1.66,3.91-1.39,7.56-.93,11a34.68,34.68,0,0,0,1.15,5.61,1.06,1.06,0,0,0,1.22.81,1,1,0,0,0,.81-1.22Z"/><path class="cls-29" d="M174.58,105a1.16,1.16,0,0,0-.14-1.08,23.36,23.36,0,0,0-1.08,10.4,32.9,32.9,0,0,0,.92,5.66,1.14,1.14,0,0,0,.74.83.77.77,0,0,0,0-.56A33.82,33.82,0,0,1,174,115,21,21,0,0,1,174.58,105Z"/><path class="cls-24" d="M178,120.68c-.43-1.74.15-4,0-5.76a23.69,23.69,0,0,1,.89-9.16c.4-1.27-1.1-2.73-1.63-1.51A23.1,23.1,0,0,0,176,114.87a33.89,33.89,0,0,0,.85,5.67c.13.54-.25,1.39.34,1.31a1,1,0,0,0,.88-1.17Z"/><path class="cls-24" d="M176.24,119.56a33.23,33.23,0,0,1-.7-5.34,25,25,0,0,1,1-9.18c.4-1.27-.92-2.72-1.47-1.51a22.88,22.88,0,0,0-1.56,10.59,33,33,0,0,0,.71,5.69,1.06,1.06,0,0,0,1.15.9,1,1,0,0,0,.9-1.15Z"/><path class="cls-24" d="M180,108.55a3.23,3.23,0,0,0-.5,2.87,1.6,1.6,0,0,1-.68,1.87.24.24,0,0,1-.36-.15,9.9,9.9,0,0,0-1.09-3.47c-1.46,1.13-3.91-.42-7,2l2,8.48.26,2.81,6.06-.26.14-3.84.39-.31a2.67,2.67,0,0,0,.84-1.15l1.48-3.91a2.38,2.38,0,0,0,.13-1.21L181,108.7A.59.59,0,0,0,180,108.55Z"/><path class="cls-10" d="M170.63,124.7l.38-4.08a10,10,0,0,1,8.15-.59l-.17,3.19Z"/><path class="cls-20" d="M122.91,158.24a15.62,15.62,0,0,1,3.37-1.84.51.51,0,0,1,.68.47,3,3,0,0,1-1.71,2.43l.07.54a5.25,5.25,0,0,1,1.75-.77c.26,0,.47.37.5.65.14,1-1.55,1.92-1.55,1.92l.36.63a2.15,2.15,0,0,1,1.27-.28c.55.13,1.75,4-.57,3.91S122.91,158.24,122.91,158.24Z"/><path class="cls-24" d="M122.33,156.57a1,1,0,0,1,.29-.57l3.89-3.7a.42.42,0,0,1,.65.06,1.55,1.55,0,0,1-.1,2,17.33,17.33,0,0,1-2.67,2.74"/><rect class="cls-31" x="125.94" y="150.71" width="1.53" height="12.42" transform="translate(-68.3 105.45) rotate(-36.3)"/><rect class="cls-32" x="126.37" y="150.71" width="0.67" height="12.42" transform="matrix(0.81, -0.59, 0.59, 0.81, -68.3, 105.45)"/><polygon class="cls-33" points="129.76 162.37 130.99 161.47 131.39 163.31 129.76 162.37"/><polygon class="cls-34" points="130.82 162.98 131.25 162.66 131.39 163.31 130.82 162.98"/><path class="cls-24" d="M124.39,157.06l.24,4.73c.32,1.26,1.29,1.64,2.56,1.93h0s-.06-5.32,1.24-6.3c.69-.52,1.5-.67,1.71.07a6.2,6.2,0,0,1-.23,3.19c-.61,1.3,0,4.09-.78,6.72s-3.83,6.49-3.83,6.49l-12,23.15-2.89-12.81,11.14-12.93.78-1.22a25.5,25.5,0,0,0-1-7.29,2.13,2.13,0,0,1,0-1.55l.46-1.06.41-3.62"/><path class="cls-35" d="M119.53,185.84l-7.74-4.05,2-2.7s.62-.5,3.3.56a6.27,6.27,0,0,1,3.74,3.65Z"/><path class="cls-24" d="M150,161.89a28.8,28.8,0,0,0-3.94-2,15.66,15.66,0,0,0-7.42-1.73c-1.1,0-1.82-1.55-.73-1.66,3-.32,5.48.74,8.3,1.92,1.45.6,2.42,1.69,3.74,2.54.39.25,1.42.15,1.19.6a.85.85,0,0,1-1.14.37Z"/><path class="cls-29" d="M139.22,158.38a2,2,0,0,1-1.6-.79c3.39-.36,5.91.52,8.5,1.41a31.16,31.16,0,0,1,4.8,2,1.12,1.12,0,0,1,.53.59l-.06.15a.85.85,0,0,1-1.14.38,28.44,28.44,0,0,0-3.95-2C143.8,159,142.15,158.26,139.22,158.38Z"/><path class="cls-24" d="M149.87,162.52a29.9,29.9,0,0,0-4.58-1.77,19.12,19.12,0,0,0-9.06-.88c-1.19.23-1.83-1.44-.65-1.73,3.76-.92,7-.16,10.07.76a31.59,31.59,0,0,1,4.88,1.85,1,1,0,0,1,.55,1.21,1,1,0,0,1-1.21.56Z"/><path class="cls-29" d="M136.23,159.88a1.06,1.06,0,0,1-.95-.28,21.25,21.25,0,0,1,9.51.53,29.64,29.64,0,0,1,5,1.65,1,1,0,0,1,.65.79.75.75,0,0,1-.51,0,31.8,31.8,0,0,0-4.58-1.76A19,19,0,0,0,136.23,159.88Z"/><path class="cls-24" d="M149.85,165.25c-1.5-.64-3.59-.44-5.18-.83a21.5,21.5,0,0,0-8.37-.54c-1.2.18-2.3-1.38-1.12-1.68a20.89,20.89,0,0,1,9.75.35,29.88,29.88,0,0,1,5,1.57c.47.21,1.29,0,1.13.51a1,1,0,0,1-1.18.62Z"/><path class="cls-24" d="M149.1,163.48a30.6,30.6,0,0,0-4.7-1.4,22.69,22.69,0,0,0-8.4-.45c-1.2.17-2.31-1.22-1.14-1.55a20.87,20.87,0,0,1,9.75.13,30.23,30.23,0,0,1,5,1.46,1,1,0,0,1,.65,1.17,1,1,0,0,1-1.17.64Z"/><path class="cls-24" d="M138.66,165.23a3,3,0,0,1,2.66,0,1.44,1.44,0,0,0,1.77-.34.21.21,0,0,0-.08-.34,9.34,9.34,0,0,1-3-1.49c1.23-1.15.18-3.58,2.8-6.05l7.63,3.52L170.94,163,171,172l-22.92-6.4-.34.31a2.57,2.57,0,0,1-1.16.59l-3.73.76a2.32,2.32,0,0,1-1.11-.06l-3.12-1A.54.54,0,0,1,138.66,165.23Z"/><path class="cls-10" d="M156.69,160l-3.17-.5s-3,3.32-1.94,7.48l2.78.55Z"/><path class="cls-36" d="M58.75,189.82l18.16-10,4.1-2.25c1.34-.74,2.85-1.45,3.62-2.85l4.43-8.15c2.15-3.95,3.09-6.07,5.24-10,.45-3.81-7.77-7.16-9.77-5.42l-8.79,16.54a6.12,6.12,0,0,1-2.63,2.53C69.3,172.08,60,176.7,53.92,180c-3,1.66-5.15,3.73-3.59,6.91a6.33,6.33,0,0,0,8.42,2.87Z"/><path class="cls-36" d="M35.66,157.13l9.09-14.77a2.2,2.2,0,0,1,1.92-1c3.39.07,7.11-.12,13.9,0,3.15-.94,5-7.17,1.9-10.46,0,0-8,.12-15.17,0l-3.81-.07c-2.54-.05-5,.59-6.41,2.86q-2.88,4.71-5.78,9.41c-1.73,2.81-5.46,9.51-7.19,12.32s-1.79,6.58,1.14,8.83c2.5,1.93,9-2.1,10.83-5Z"/><path class="cls-37" d="M59.88,188.66c-3.39,3.47-9.34,3.18-13.28-.67L25.92,167.81c-3.94-3.85-4.38-9.79-1-13.26l5.49-5.16c3.4-3.48,9.13-3.43,13.07.42L64.17,170c3.94,3.85,4.38,9.79,1,13.27Z"/><path class="cls-36" d="M61.37,187.25c-3,3-8.56,2.38-12.5-1.47L28.19,165.6c-3.94-3.85-4.73-9.42-1.77-12.46L31,148.43c3-3,8.56-2.37,12.5,1.48l20.67,20.18c3.95,3.84,4.74,9.42,1.78,12.45Z"/><ellipse class="cls-38" cx="44.07" cy="169.51" rx="14.01" ry="13.73" transform="translate(-121.61 112.73) rotate(-56.51)"/><path class="cls-38" d="M55.65,161a2.24,2.24,0,1,1-.67-3A2.21,2.21,0,0,1,55.65,161Z"/><ellipse class="cls-38" cx="34.95" cy="162.95" rx="4.13" ry="4.55" transform="translate(-120.23 102.18) rotate(-56.51)"/><path class="cls-38" d="M48.13,174.91a4.57,4.57,0,0,1,6.54,6.32,4.57,4.57,0,0,1-6.54-6.32Z"/><path class="cls-39" d="M56.57,176.48c-3.27,7.47-12,10.09-19.11,6.13a15.45,15.45,0,0,1-6.9-19c2.8-7.66,13.22-12,21.56-8.25l-3,2.64a5.29,5.29,0,0,1,4.23,1.9l-1.27.26A13.68,13.68,0,0,1,56.57,176.48Z"/><path class="cls-40" d="M209.78,141.69a6.22,6.22,0,0,1-7,5.19c-8.76-1-19.17.42-27.93-.55-3.62-.4-5.26-3.71-5.18-7,.15-6.68-.16-10.81,0-17.49,0,0,4.57-3.41,10.54,1.36-.1,3.93.15,6.47.14,10.29,0,.61,0,1.26,0,1.94l.63,0,22.39-.66,1.22-.06A6.19,6.19,0,0,1,209.78,141.69Z"/><path class="cls-40" d="M223.84,110c-2.06,2.53-6.82,1.29-9.34-.91-6.07-5.3-13.79-14.39-15.07-15.91l-.19-.22-1.07,1.16c-1.89,2-5.85,6.24-8.37,8.67,0,0-5.17-.56-7.64-6.62,4.82-4.64,8-9,12.79-13.62,2.34-2.25,5.89-3.29,8.64-.89,6.64,5.79,12.72,13.91,19.36,19.71A6.22,6.22,0,0,1,223.84,110Z"/><path class="cls-41" d="M226.62,117l-9.75,22.2a13.26,13.26,0,0,1-17.46,6.8l-.21-.1a9.57,9.57,0,0,1-4.91-12.6L207,104.34a9.58,9.58,0,0,1,12.61-4.91l.21.1A13.24,13.24,0,0,1,226.62,117Z"/><path class="cls-40" d="M225.24,116.57l-9.75,22.2a13.25,13.25,0,0,1-17.45,6.8l-.21-.1a9.56,9.56,0,0,1-4.91-12.6l12.71-28.94A9.57,9.57,0,0,1,218.23,99l.22.09A13.25,13.25,0,0,1,225.24,116.57Z"/><circle class="cls-38" cx="206.37" cy="121.21" r="14.02" transform="translate(21.31 272.98) rotate(-69.78)"/><circle class="cls-38" cx="200.23" cy="132.03" r="4.71" transform="translate(-5.44 255.42) rotate(-64.36)"/><circle class="cls-38" cx="211.35" cy="109.88" r="4.71"/><path class="cls-38" d="M195.44,113.12a3,3,0,1,1-4.21,1.44A3.14,3.14,0,0,1,195.44,113.12Z"/><path class="cls-42" d="M213.6,108.2c8.74,2.56,13.83,12,10,20.59s-14.15,11.25-21.95,6.55A14.9,14.9,0,0,1,213.6,108.2Z"/><path class="cls-43" d="M173.48,170.6c-1.09,8.79-2,15-2.48,23.81-.2,3.61-2.35,6.77-6.26,7-3.31.18-7.18-2.65-7-6.26.47-8.52,3.3-22.71,3.51-23.76a.28.28,0,0,0,0-.06l-1.45-.5-4.27-1.46a1.85,1.85,0,0,1-1.48-1.54c-.16-2.13-.59-4.12,1.36-7.14a2.14,2.14,0,0,1,2.37-.88l12.3,2.26C172.75,162.79,174,166.05,173.48,170.6Z"/><path class="cls-43" d="M134.39,209.55a19,19,0,0,0-1.34,1.74c-1.48,2.12-2.33,3.67-4.56,1.9-6.4-5.08-13.6-11-20-16.1-2.22-1.76-3.33-5.38-1.9-7.85s4.08-6.11,5.75-8.72c5-1,8,3.77,8,3.77.18.57-.34,2.19-.88,3.62-.16.42-.32.83-.47,1.18l0,0-.06.15c-.27.66-.48,1.11-.48,1.11.31.24.62.47.94.69h0l.14.1,0,0c4.55,3.2,9.62,5.33,14.21,9C136.6,202.44,136.68,206.92,134.39,209.55Z"/><path class="cls-44" d="M133.05,211.29c-1.48,2.12-2.33,3.67-4.56,1.9-6.4-5.08-13.6-11-20-16.1-2.22-1.76-3.33-5.38-1.9-7.85-.67,1.12,1,3.59,3,5.32s9,7,14.29,11.49l8.79,4.41Z"/><path class="cls-44" d="M169.61,192a12.86,12.86,0,0,1-8.11,16.27l-21,7a12.86,12.86,0,0,1-16.27-8.11l-.07-.21a9,9,0,0,1,5.67-11.38l28.35-9.49a9,9,0,0,1,11.38,5.67Z"/><path class="cls-43" d="M168.89,189.83a12.84,12.84,0,0,1-8.11,16.27l-21,7c-6.74,2.25-10.11-1.83-15.88-7.09l-.47-1.23c-1.57-4.71-2.9-8.57,1.8-10.14l34.89-11.58c4.71-1.57,7.14,1.81,8.71,6.52Z"/><ellipse class="cls-38" cx="136.37" cy="205.22" rx="4.63" ry="4.2" transform="translate(-76.25 80.7) rotate(-26.04)"/><path class="cls-38" d="M154.25,199a4.66,4.66,0,1,1,5.59,2.81A4.44,4.44,0,0,1,154.25,199Z"/><ellipse class="cls-38" cx="147.29" cy="200" rx="13.55" ry="14.26" transform="translate(-55.87 57.1) rotate(-18.51)"/><path class="cls-45" d="M160,194.42c3.14,7.49,0,16-7,18.92s-15.29-.72-18.44-8.22c-1.12-2.67,2.89-7,2.89-7s.87-7.07,5.39-9,9.81,2.15,9.81,2.15S158.78,191.58,160,194.42Z"/><path class="cls-38" d="M144,187.43a2.24,2.24,0,0,1-3,.85c-1.1-.6-1.06-1-.48-2.06a2.24,2.24,0,0,1,3.05-.85C144.67,186,144.63,186.36,144,187.43Z"/><circle class="cls-9" cx="61.07" cy="116.35" r="5.12" transform="translate(-69.66 103.09) rotate(-56.51)"/><circle class="cls-46" cx="58.69" cy="115.33" r="5.12" transform="translate(-70.71 114.64) rotate(-62.72)"/><circle class="cls-9" cx="110.6" cy="168.63" r="5.12" transform="translate(-82.57 226.53) rotate(-73.42)"/><circle class="cls-46" cx="108.22" cy="167.6" r="5.12" transform="translate(-83.29 223.51) rotate(-73.42)"/><circle class="cls-9" cx="151.48" cy="54.47" r="5.12" transform="translate(-7.59 29.79) rotate(-10.96)"/><circle class="cls-46" cx="149.1" cy="53.44" r="5.12" transform="translate(55.34 181.1) rotate(-73.42)"/><path class="cls-10" d="M114.21,168.9l1.89-.74a2.87,2.87,0,0,0,1.28-.67,2.8,2.8,0,0,0,1-1.06,3.84,3.84,0,0,0,.38-2.89A3.79,3.79,0,0,0,117,161.3a3.67,3.67,0,0,0-2.89-.38l-1.89.75a2.82,2.82,0,0,0-1.28.67,2.78,2.78,0,0,0-1,1,3.84,3.84,0,0,0-.38,2.89,3.8,3.8,0,0,0,1.72,2.24,3.67,3.67,0,0,0,2.89.38Z"/><path class="cls-10" d="M64.6,112.17l1.16-1.67A3.76,3.76,0,0,0,61.52,105l-.89.38a3.69,3.69,0,0,0-1.35,1.34l-1.16,1.67a3.76,3.76,0,0,0,4.24,5.51l.9-.38a3.74,3.74,0,0,0,1.34-1.34Z"/><path class="cls-10" d="M149.91,46.62,149,44.78a3.8,3.8,0,0,0-2.24-1.72,3.84,3.84,0,0,0-2.89.38,3.79,3.79,0,0,0-1.72,2.24l-.14,1a3.84,3.84,0,0,0,.52,1.89l.87,1.83a3.77,3.77,0,0,0,2.24,1.73,3.88,3.88,0,0,0,2.89-.38,3.78,3.78,0,0,0,1.72-2.24l.14-1a3.77,3.77,0,0,0-.51-1.89Z"/><polygon class="cls-9" points="70.86 82.23 70.11 82.29 70.11 82.29 68.7 82.4 56.14 89.16 56.56 89.94 56.36 90.16 56.39 90.7 56.97 90.71 69.54 83.94 70.86 82.23 70.86 82.23 70.86 82.23"/><polygon class="cls-9" points="72.56 80.37 71.87 80.06 71.87 80.06 70.58 79.49 56.32 79.5 56.32 80.38 56.07 80.64 55.67 81.04 56.32 81.25 70.58 81.25 72.56 80.37 72.56 80.37 72.56 80.37"/><rect class="cls-47" x="61.69" y="72.78" width="1.76" height="14.27" transform="translate(-17.46 142.34) rotate(-89.9)"/><rect class="cls-48" x="62.18" y="72.78" width="0.77" height="14.27" transform="translate(-17.46 142.34) rotate(-89.9)"/><polygon class="cls-33" points="69.7 80.81 69.7 79.05 71.68 79.93 69.7 80.81"/><polygon class="cls-49" points="70.99 80.24 70.99 79.63 71.68 79.93 70.99 80.24"/><rect class="cls-50" x="54.88" y="85.41" width="14.27" height="1.76" transform="translate(-33.5 39.72) rotate(-28.3)"/><rect class="cls-51" x="54.88" y="85.9" width="14.27" height="0.77" transform="translate(-33.5 39.72) rotate(-28.3)"/><polygon class="cls-33" points="68.72 83.68 67.88 82.13 70.04 81.97 68.72 83.68"/><polygon class="cls-50" points="69.58 82.56 69.29 82.03 70.04 81.97 69.58 82.56"/><path class="cls-52" d="M80.44,51.44c.18-1.11,2.56-1.69,5.32-1.28s4.87,1.62,4.7,2.73-2.56,1.69-5.32,1.29S80.27,52.55,80.44,51.44Z"/><path class="cls-52" d="M80.67,120.89l-.87,0a38.24,38.24,0,0,1-8.31-1.21l-.84-.22,9.79-68,.87,0a38.85,38.85,0,0,1,8.31,1.2l.84.22Z"/><path class="cls-13" d="M81.16,51.45l-.87,0-9.48,68,.84.22a39.5,39.5,0,0,0,4.12.82l9.57-68.69A37.24,37.24,0,0,0,81.16,51.45Z"/><ellipse class="cls-53" cx="75.67" cy="120.1" rx="2.04" ry="5.06" transform="matrix(0.14, -0.99, 0.99, 0.14, -53.93, 177.99)"/><path class="cls-13" d="M80.44,51.44c.18-1.11,2.56-1.69,5.32-1.28l-.62,4C82.37,53.78,80.27,52.55,80.44,51.44Z"/></g></g></svg>