<svg id="Layer_1" data-name="Layer 1" xmlns="http://www.w3.org/2000/svg" viewBox="0 0 250 250"><defs><style>.cls-1{fill:#ececec;}.cls-2{fill:#f5f5f5;}.cls-3{fill:#e1e1e1;}.cls-4{fill:#fff;}.cls-5{fill:#fafafa;}.cls-6{fill:#ffbf9d;}.cls-7{fill:#ff9a6c;}.cls-8{fill:#1a2e35;}.cls-9{fill:#375a64;}.cls-10{opacity:0.3;}.cls-11{fill:#ff735d;}</style></defs><path class="cls-1" d="M228.3,126.55H206.68a2.7,2.7,0,0,1-2.71-2.7V93.91a2.7,2.7,0,0,1,2.71-2.7h13.71L231,102.15v21.7A2.71,2.71,0,0,1,228.3,126.55Z"/><path class="cls-2" d="M220.39,91.21v8.42a2.52,2.52,0,0,0,2.52,2.52H231Z"/><path class="cls-3" d="M220.5,100.37a2.8,2.8,0,0,0,2.22,2.72l.27.06c1,.19,8,1.42,8,1.26v-2.26h-8.1S220.88,102.08,220.5,100.37Z"/><path class="cls-3" d="M228.3,126.55s.16,0,.47,0a2.74,2.74,0,0,0,1.22-.58,2.62,2.62,0,0,0,1-1.9c0-.88,0-1.89,0-3,0-4.53,0-11,0-18.85l0,0L220.33,91.27l.06,0h-13.1a7.07,7.07,0,0,0-1,0,2.62,2.62,0,0,0-1.7,1.06,2.56,2.56,0,0,0-.48,1.33c0,.48,0,1,0,1.47v19.41c0,1.72,0,3.4,0,5v3.58a5.36,5.36,0,0,0,0,1.14,2.66,2.66,0,0,0,1.22,1.74,2.78,2.78,0,0,0,1,.35c.35,0,.71,0,1.06,0h4.09l12.31,0h3.35l-3.35,0-12.31,0h-4.09a9.82,9.82,0,0,1-1.08,0,2.79,2.79,0,0,1-2.35-2.21,6.56,6.56,0,0,1-.06-1.17v-3.58c0-1.63,0-3.31,0-5V95.2c0-.5,0-1,0-1.48a2.75,2.75,0,0,1,.51-1.43,2.79,2.79,0,0,1,1.82-1.13,6.42,6.42,0,0,1,1.07,0h13.14l0,0,10.61,10.95,0,0v0c0,7.83,0,14.32,0,18.85,0,1.13,0,2.14,0,3a2.71,2.71,0,0,1-2.26,2.5,1.68,1.68,0,0,1-.35,0Z"/><path class="cls-3" d="M231,102.15l-.21,0-.6,0-2.19,0-3.26,0h-1.92a2.6,2.6,0,0,1-1.88-.89,2.47,2.47,0,0,1-.53-.93,2.88,2.88,0,0,1-.12-1V97.46l0-3.25c0-.91,0-1.65,0-2.2l0-.59a.85.85,0,0,1,0-.21.85.85,0,0,1,0,.21l0,.59,0,2.2c0,.93,0,2,0,3.25v1.92a2.52,2.52,0,0,0,.61,1.85,2.41,2.41,0,0,0,1.74.82h1.92l3.26,0,2.19,0,.6,0A1,1,0,0,1,231,102.15Z"/><path class="cls-3" d="M220,98.73s-2.55.09-5.7.09-5.71,0-5.71-.09,2.56-.1,5.71-.1S220,98.67,220,98.73Z"/><path class="cls-3" d="M225.39,102.93s-3.76.09-8.41.09-8.41,0-8.41-.09,3.77-.1,8.41-.1S225.39,102.88,225.39,102.93Z"/><path class="cls-3" d="M225.39,107.13c0,.05-3.76.09-8.41.09s-8.41,0-8.41-.09,3.77-.09,8.41-.09S225.39,107.08,225.39,107.13Z"/><path class="cls-3" d="M225.39,111.33s-3.76.1-8.41.1-8.41-.05-8.41-.1,3.77-.09,8.41-.09S225.39,111.28,225.39,111.33Z"/><path class="cls-3" d="M225.39,115.53c0,.06-3.76.1-8.41.1s-8.41,0-8.41-.1,3.77-.09,8.41-.09S225.39,115.48,225.39,115.53Z"/><path class="cls-3" d="M225.39,120.72s-3.76.09-8.41.09-8.41,0-8.41-.09,3.77-.1,8.41-.1S225.39,120.67,225.39,120.72Z"/><path class="cls-1" d="M202.63,165.2l-16.37,28.64-32.4.46a2,2,0,0,0-1.93,1.86h0l32.95.09,1.24,0,41.25.08,8.33-14.38,10.65-15.26a1.51,1.51,0,0,0-1.24-2.37l-41.18.16A1.51,1.51,0,0,0,202.63,165.2Z"/><path class="cls-3" d="M246.36,165.37l-.2,0-.58,0-2.22,0-8.2.06-27,.06h-2a1.62,1.62,0,0,0-1.5.71l-1.84,3.31-3.47,6.27c-2.22,4-4.23,7.59-5.91,10.62s-3,5.43-4,7.14l-1.11,1.93-.29.5c-.07.11-.11.17-.12.16A1.57,1.57,0,0,1,188,196c.07-.14.16-.31.26-.52.26-.48.6-1.13,1-2l3.91-7.2L199,175.68c1.1-2,2.26-4.11,3.46-6.29l1.84-3.33a2,2,0,0,1,1.84-.9h2l27,.06,8.2.07,2.22,0,.58,0C246.29,165.35,246.36,165.36,246.36,165.37Z"/><path class="cls-4" d="M217.33,179.76a1.74,1.74,0,1,0,2.6-.3A1.86,1.86,0,0,0,217.33,179.76Z"/><path class="cls-2" d="M8.84,165.74v17.12H6v1.86H8.84v11.47H62.29V185.76h-4v-2.28h4v-3.4h1.76v-1.55H62V165.74Z"/><polygon class="cls-3" points="48.1 165.79 48.1 196 62.29 196 62.29 185.56 58.33 185.56 58.33 183.48 62.29 183.55 62.29 180.15 64.08 180.15 64.05 178.39 61.96 178.34 61.96 165.74 48.1 165.79"/><path class="cls-3" d="M49.11,184.48c0,.1-9.67.19-21.6.19s-21.6-.09-21.6-.19,9.67-.19,21.6-.19S49.11,184.37,49.11,184.48Z"/><path class="cls-3" d="M49.11,182.74c0,.1-9.67.19-21.6.19s-21.6-.09-21.6-.19,9.67-.19,21.6-.19S49.11,182.63,49.11,182.74Z"/><path class="cls-3" d="M51.88,178.06c0,.1-9.67.19-21.6.19s-21.6-.09-21.6-.19,9.67-.19,21.6-.19S51.88,178,51.88,178.06Z"/><path class="cls-3" d="M52.15,190.81c0,.11-9.67.19-21.6.19S9,190.92,9,190.81s9.67-.19,21.6-.19S52.15,190.71,52.15,190.81Z"/><path class="cls-1" d="M187.2,92.84H166.08a2.65,2.65,0,0,1-2.64-2.65V61a2.64,2.64,0,0,1,2.64-2.64h13.4L189.85,69V90.19A2.65,2.65,0,0,1,187.2,92.84Z"/><path class="cls-2" d="M179.48,58.31v8.23A2.46,2.46,0,0,0,181.93,69h7.92Z"/><path class="cls-3" d="M179.58,67.26a2.73,2.73,0,0,0,2.17,2.65L182,70c1,.19,7.84,1.4,7.84,1.24V69h-7.92S180,68.93,179.58,67.26Z"/><path class="cls-3" d="M187.2,92.84s.16,0,.46-.06a2.65,2.65,0,0,0,1.2-.56,2.57,2.57,0,0,0,.94-1.86c0-.85,0-1.84,0-3,0-4.42,0-10.76,0-18.41l0,0L179.41,58.37l.07,0h-12.8a8.53,8.53,0,0,0-1,0,2.55,2.55,0,0,0-1.65,1,2.48,2.48,0,0,0-.47,1.3c0,.47,0,1,0,1.44v8.42c0,3.66,0,7.19,0,10.54v8.41a6.9,6.9,0,0,0,.05,1.12,2.59,2.59,0,0,0,1.2,1.69,2.63,2.63,0,0,0,1,.35,9,9,0,0,0,1,0h4l12,0,3.27,0h0l-3.27,0-12,0h-4a9.51,9.51,0,0,1-1.06,0,2.72,2.72,0,0,1-2.3-2.15,6.37,6.37,0,0,1,0-1.15V88.44c0-.78,0-1.56,0-2.36V81.17c0-3.35,0-6.88,0-10.54V62.21c0-.49,0-1,0-1.45a2.66,2.66,0,0,1,.5-1.39,2.74,2.74,0,0,1,1.78-1.11,6.19,6.19,0,0,1,1.05,0h12.83l0,0L189.9,69l0,0v0c0,7.65,0,14,0,18.41,0,1.11,0,2.09,0,3a2.64,2.64,0,0,1-2.21,2.45l-.34,0Z"/><path class="cls-3" d="M189.85,69a.85.85,0,0,1-.21,0l-.58,0-2.14,0-3.18,0h-1.88a2.58,2.58,0,0,1-2.36-1.78,3,3,0,0,1-.11-1V64.42c0-1.19,0-2.27,0-3.18s0-1.61,0-2.14l0-.59c0-.13,0-.2,0-.2s0,.07,0,.2v.59c0,.53,0,1.25,0,2.14s0,2,0,3.18c0,.6,0,1.23,0,1.88a2.44,2.44,0,0,0,.59,1.8,2.36,2.36,0,0,0,1.7.8h1.88l3.18,0,2.14,0,.58,0A.85.85,0,0,1,189.85,69Z"/><path class="cls-3" d="M179.08,65.65c0,.06-2.5.1-5.58.1s-5.57,0-5.57-.1,2.5-.09,5.57-.09S179.08,65.6,179.08,65.65Z"/><path class="cls-3" d="M184.37,69.76s-3.68.09-8.22.09-8.22,0-8.22-.09,3.68-.09,8.22-.09S184.37,69.71,184.37,69.76Z"/><path class="cls-3" d="M184.37,73.86c0,.06-3.68.1-8.22.1s-8.22,0-8.22-.1,3.68-.09,8.22-.09S184.37,73.81,184.37,73.86Z"/><path class="cls-3" d="M184.37,78s-3.68.09-8.22.09-8.22,0-8.22-.09,3.68-.09,8.22-.09S184.37,77.92,184.37,78Z"/><path class="cls-3" d="M184.37,82.07c0,.06-3.68.1-8.22.1s-8.22,0-8.22-.1,3.68-.09,8.22-.09S184.37,82,184.37,82.07Z"/><path class="cls-3" d="M184.37,87.14s-3.68.09-8.22.09-8.22,0-8.22-.09,3.68-.1,8.22-.1S184.37,87.09,184.37,87.14Z"/><rect class="cls-1" x="80.51" y="60.36" width="11.41" height="19.67" transform="translate(172.43 140.38) rotate(180)"/><rect class="cls-1" x="48.67" y="55.78" width="9.01" height="24.55" transform="translate(106.36 136.12) rotate(180)"/><path class="cls-5" d="M48.57,57.56a37.27,37.27,0,0,1,4.6-.14,37.27,37.27,0,0,1,4.6.14,41.33,41.33,0,0,1-4.6.13A41.33,41.33,0,0,1,48.57,57.56Z"/><path class="cls-5" d="M49.07,58.72a37,37,0,0,1,4.35-.13,37,37,0,0,1,4.35.13,33.37,33.37,0,0,1-4.35.14A33.37,33.37,0,0,1,49.07,58.72Z"/><path class="cls-5" d="M52.92,75.5c-.07,0-.14-3.26-.14-7.27s.07-7.26.14-7.26.14,3.25.14,7.26S53,75.5,52.92,75.5Z"/><path class="cls-5" d="M48.67,77.74a36.66,36.66,0,0,1,4.41-.14,36.76,36.76,0,0,1,4.42.14,34.43,34.43,0,0,1-4.42.14A34.33,34.33,0,0,1,48.67,77.74Z"/><path class="cls-5" d="M48.67,78.79a40,40,0,0,1,4.52-.13,40.1,40.1,0,0,1,4.53.13,36.17,36.17,0,0,1-4.53.14A36.07,36.07,0,0,1,48.67,78.79Z"/><rect class="cls-3" x="57.68" y="53.13" width="7.24" height="27.21" transform="translate(122.6 133.47) rotate(180)"/><path class="cls-5" d="M57.63,65.62a7.14,7.14,0,0,1,1.12.78l2.62,2,2.6,2a6.93,6.93,0,0,1,1,.87,6.37,6.37,0,0,1-1.16-.71c-.69-.48-1.64-1.15-2.66-1.93s-1.93-1.51-2.57-2A6.5,6.5,0,0,1,57.63,65.62Z"/><path class="cls-5" d="M57.6,61.36a44.25,44.25,0,0,1,3.71,3,41.38,41.38,0,0,1,3.52,3.2,39.8,39.8,0,0,1-3.7-3A39.77,39.77,0,0,1,57.6,61.36Z"/><rect class="cls-1" x="26.22" y="54.44" width="3.46" height="25.92" transform="translate(55.89 134.79) rotate(180)"/><path class="cls-5" d="M26.36,58a4.22,4.22,0,0,0,1.62.16A4.18,4.18,0,0,0,29.6,58,4.18,4.18,0,0,0,28,57.81,4.22,4.22,0,0,0,26.36,58Z"/><path class="cls-5" d="M26.29,57.4a4.11,4.11,0,0,0,1.62.17,4.07,4.07,0,0,0,1.62-.17,4.18,4.18,0,0,0-1.62-.16A4.22,4.22,0,0,0,26.29,57.4Z"/><path class="cls-5" d="M26.36,78.35a4.11,4.11,0,0,0,1.62.17,4.07,4.07,0,0,0,1.62-.17A4.18,4.18,0,0,0,28,78.19,4.22,4.22,0,0,0,26.36,78.35Z"/><path class="cls-5" d="M26.29,77.79a4.22,4.22,0,0,0,1.62.16,4.18,4.18,0,0,0,1.62-.16,4.07,4.07,0,0,0-1.62-.17A4.11,4.11,0,0,0,26.29,77.79Z"/><path class="cls-5" d="M28.05,74.4a66.19,66.19,0,0,0,.17-6.63,66.19,66.19,0,0,0-.17-6.63c-.09,0-.16,3-.16,6.63S28,74.4,28.05,74.4Z"/><rect class="cls-3" x="41.73" y="54.27" width="6.93" height="25.92" transform="translate(90.39 134.46) rotate(180)"/><path class="cls-5" d="M46.71,80.52s0,0,.08-.14.12-.24.2-.43a7.4,7.4,0,0,0,.5-1.76,4.62,4.62,0,0,0-.4-2.85A3.75,3.75,0,0,0,45.86,74a2.85,2.85,0,0,0-2-.47,2.1,2.1,0,0,0-1,.47,1.34,1.34,0,0,0-.49,1.09,1.54,1.54,0,0,0,.59,1.1,2,2,0,0,0,1.18.5,3.08,3.08,0,0,0,2.45-.89,4,4,0,0,0,1.22-2.49,6.52,6.52,0,0,0-.36-2.89,5.36,5.36,0,0,0-1.69-2.53,2.87,2.87,0,0,0-1.5-.59,2,2,0,0,0-1.56.56,1.25,1.25,0,0,0-.35.81,1.38,1.38,0,0,0,.24.84,2.28,2.28,0,0,0,1.39,1,3.27,3.27,0,0,0,3-1,5.08,5.08,0,0,0,1.19-2.92,7,7,0,0,0-.3-3,4.15,4.15,0,0,0-1.78-2.3,3.11,3.11,0,0,0-2.76-.29A1.45,1.45,0,0,0,42.46,62a1.68,1.68,0,0,0,.31,1.31,2.17,2.17,0,0,0,2.34.61A4.07,4.07,0,0,0,47,62.58,5.92,5.92,0,0,0,48.33,59a5.72,5.72,0,0,0-.64-2.81,5.66,5.66,0,0,0-1.09-1.47,2.53,2.53,0,0,0-.36-.31c-.08-.07-.13-.1-.13-.09a6.62,6.62,0,0,1,1.47,1.92,5.61,5.61,0,0,1-.81,6.17A3.84,3.84,0,0,1,45,63.64a1.91,1.91,0,0,1-2-.54A1.41,1.41,0,0,1,42.73,62a1.16,1.16,0,0,1,.74-.84,2.76,2.76,0,0,1,2.48.28,3.87,3.87,0,0,1,1.65,2.14,7,7,0,0,1,.28,2.89,4.8,4.8,0,0,1-1.12,2.74,2.94,2.94,0,0,1-2.73.92,2,2,0,0,1-1.2-.81,1,1,0,0,1,.08-1.26,1.59,1.59,0,0,1,1.3-.45,2.38,2.38,0,0,1,1.32.52,5,5,0,0,1,1.6,2.37,6.24,6.24,0,0,1,.35,2.75,3.67,3.67,0,0,1-1.11,2.32,2.88,2.88,0,0,1-2.23.84,1.66,1.66,0,0,1-1.55-1.35,1.1,1.1,0,0,1,.4-.9,1.92,1.92,0,0,1,.91-.43,2.68,2.68,0,0,1,1.85.42,3.74,3.74,0,0,1,1.18,1.27,4.53,4.53,0,0,1,.44,2.75,9.49,9.49,0,0,1-.44,1.75C46.78,80.32,46.7,80.52,46.71,80.52Z"/><rect class="cls-5" x="29.62" y="56.6" width="12.02" height="23.6" transform="translate(71.26 136.8) rotate(180)"/><path class="cls-3" d="M30,60.52a52.38,52.38,0,0,0,5.81.16,52.64,52.64,0,0,0,5.82-.16,52.64,52.64,0,0,0-5.82-.16A52.38,52.38,0,0,0,30,60.52Z"/><path class="cls-3" d="M29.89,62.31a51.15,51.15,0,0,0,5.74.16,51.15,51.15,0,0,0,5.74-.16,49.63,49.63,0,0,0-5.74-.17A49.63,49.63,0,0,0,29.89,62.31Z"/><path class="cls-3" d="M29.5,77.53a55.13,55.13,0,0,0,6,.17,54.87,54.87,0,0,0,6-.17,56.56,56.56,0,0,0-6-.16A56.83,56.83,0,0,0,29.5,77.53Z"/><path class="cls-3" d="M29.66,75.43a53.89,53.89,0,0,0,5.89.16,53.74,53.74,0,0,0,5.89-.16,53.74,53.74,0,0,0-5.89-.16A53.89,53.89,0,0,0,29.66,75.43Z"/><rect class="cls-1" x="64.91" y="54.1" width="6.93" height="25.92" transform="translate(136.75 134.13) rotate(180)"/><path class="cls-5" d="M69.89,80.36l.08-.14c0-.1.12-.24.2-.44a7.16,7.16,0,0,0,.5-1.75,4.65,4.65,0,0,0-.4-2.86A3.92,3.92,0,0,0,69,73.82a2.85,2.85,0,0,0-2-.47,2,2,0,0,0-1,.48,1.34,1.34,0,0,0-.49,1.09,1.54,1.54,0,0,0,.59,1.1,2.17,2.17,0,0,0,1.18.5,3.15,3.15,0,0,0,2.45-.89A4,4,0,0,0,71,73.13a6.69,6.69,0,0,0-.36-2.89,5.23,5.23,0,0,0-1.7-2.52,2.68,2.68,0,0,0-1.49-.59,2,2,0,0,0-1.56.55,1.27,1.27,0,0,0-.35.81,1.41,1.41,0,0,0,.24.85,2.23,2.23,0,0,0,1.39,1,3.25,3.25,0,0,0,3.05-1,5.06,5.06,0,0,0,1.19-2.92,7,7,0,0,0-.3-3A4.18,4.18,0,0,0,69.29,61a3.08,3.08,0,0,0-2.76-.28,1.42,1.42,0,0,0-.89,1A1.68,1.68,0,0,0,66,63.1a2.19,2.19,0,0,0,2.34.62,4.09,4.09,0,0,0,1.84-1.31,5.92,5.92,0,0,0,1.38-3.55A5.74,5.74,0,0,0,70.87,56a5.66,5.66,0,0,0-1.09-1.47,3.43,3.43,0,0,0-.36-.31l-.13-.09a6.79,6.79,0,0,1,1.47,1.93,5.82,5.82,0,0,1,.57,2.75A5.73,5.73,0,0,1,70,62.26a3.78,3.78,0,0,1-1.73,1.22,1.92,1.92,0,0,1-2-.54,1.42,1.42,0,0,1-.26-1.09,1.17,1.17,0,0,1,.74-.85,2.79,2.79,0,0,1,2.48.28,3.9,3.9,0,0,1,1.65,2.15,6.82,6.82,0,0,1,.27,2.89,4.69,4.69,0,0,1-1.11,2.73,2.92,2.92,0,0,1-2.73.92,1.91,1.91,0,0,1-1.2-.8,1,1,0,0,1,.08-1.27,1.64,1.64,0,0,1,1.3-.45,2.46,2.46,0,0,1,1.32.52,5.12,5.12,0,0,1,1.6,2.37,6.29,6.29,0,0,1,.35,2.76,3.69,3.69,0,0,1-1.11,2.32,2.89,2.89,0,0,1-2.23.83,1.64,1.64,0,0,1-1.55-1.34,1.08,1.08,0,0,1,.4-.9,1.83,1.83,0,0,1,.91-.43,2.62,2.62,0,0,1,1.85.41,3.74,3.74,0,0,1,1.18,1.27A4.46,4.46,0,0,1,70.54,78a8.67,8.67,0,0,1-.43,1.75A5.38,5.38,0,0,0,69.89,80.36Z"/><rect class="cls-3" x="16.59" y="52.8" width="9.62" height="27.23" transform="translate(42.81 132.82) rotate(180)"/><rect class="cls-3" x="71.84" y="55.78" width="9" height="24.24" transform="translate(152.68 135.81) rotate(180)"/><path class="cls-5" d="M81.06,67.87a7.88,7.88,0,0,0,1.44,1,5,5,0,0,0,1.81.5A4.54,4.54,0,0,0,86.55,69c.76-.32,1.46-.74,2.16-1a3.36,3.36,0,0,1,2-.18,2.09,2.09,0,0,1,1.13.69c.2.25.24.43.22.43s-.09-.15-.3-.36a2.06,2.06,0,0,0-1.1-.57,3.28,3.28,0,0,0-1.83.22c-.67.25-1.35.67-2.14,1a4.73,4.73,0,0,1-2.38.39,4.85,4.85,0,0,1-1.87-.58,4,4,0,0,1-1-.8A1.3,1.3,0,0,1,81.06,67.87Z"/><path class="cls-5" d="M80.86,70.27a7.55,7.55,0,0,0,1.43,1,5,5,0,0,0,1.81.5,4.57,4.57,0,0,0,2.25-.39c.76-.32,1.46-.74,2.16-1a3.33,3.33,0,0,1,2-.18,2.06,2.06,0,0,1,1.14.69.83.83,0,0,1,.22.43s-.09-.15-.3-.36a2.14,2.14,0,0,0-1.1-.57,3.28,3.28,0,0,0-1.83.22c-.67.25-1.36.67-2.14,1a4.73,4.73,0,0,1-2.38.39,4.9,4.9,0,0,1-1.88-.58,4.62,4.62,0,0,1-1-.8A1.36,1.36,0,0,1,80.86,70.27Z"/><path class="cls-5" d="M81,62.51a53.87,53.87,0,0,1,5.53-.14,54,54,0,0,1,5.54.14c0,.07-2.48.13-5.54.13S81,62.58,81,62.51Z"/><path class="cls-5" d="M76.93,59.69a1.31,1.31,0,0,0-.78-.07,1,1,0,0,0-.61.51.87.87,0,0,0,1.12,1.07.94.94,0,0,0,.48-.62,1.24,1.24,0,0,0-.1-.78s.09,0,.18.16a1,1,0,0,1,.11.65,1.1,1.1,0,0,1-.56.82A1.1,1.1,0,0,1,75.31,60a1.09,1.09,0,0,1,.8-.59.93.93,0,0,1,.65.08C76.9,59.6,76.94,59.68,76.93,59.69Z"/><path class="cls-5" d="M76.35,77.6c-.07,0-.14-3.4-.14-7.59s.07-7.59.14-7.59.14,3.4.14,7.59S76.43,77.6,76.35,77.6Z"/><rect class="cls-1" x="8.17" y="79.89" width="93.15" height="5.32"/><rect class="cls-3" x="93.19" y="79.89" width="8.13" height="5.32"/><path class="cls-6" d="M106,79.48l-.46,36.59c-.07,6.23,1.08,15.39,10.93,15.06h0c8.52-.93,10.78-9,10.85-14.8,0-2.76.06-5,.08-5.34,0,0,9.33-.76,10.12-10,.38-4.45.41-13.69.35-22a17.21,17.21,0,0,0-16-17l-.89-.07C111.38,61.74,105.88,69.84,106,79.48Z"/><path class="cls-7" d="M127.41,111a22.28,22.28,0,0,1-11.74-4.42s2.43,7,11.69,6.79Z"/><path class="cls-8" d="M122.13,82.76c-.18.18-1.25-.67-2.79-.71s-2.7.71-2.86.51.11-.43.62-.78a3.87,3.87,0,0,1,2.29-.65,3.71,3.71,0,0,1,2.21.8C122.07,82.32,122.22,82.67,122.13,82.76Z"/><path class="cls-8" d="M121.8,86a1.25,1.25,0,0,1-1.29,1.17,1.2,1.2,0,0,1-1.2-1.22,1.25,1.25,0,0,1,1.29-1.17A1.19,1.19,0,0,1,121.8,86Z"/><path class="cls-8" d="M126,93.49a9.22,9.22,0,0,1,2.33-.24c.36,0,.71-.06.79-.3a1.91,1.91,0,0,0-.16-1.09c-.28-.9-.57-1.85-.87-2.84-1.2-4-2-7.33-1.88-7.38s1.27,3.18,2.47,7.21c.28,1,.56,1.94.82,2.85a2,2,0,0,1,.08,1.43.88.88,0,0,1-.63.49,2.79,2.79,0,0,1-.62,0A9.32,9.32,0,0,1,126,93.49Z"/><path class="cls-8" d="M121.47,77c-.15.35-1.38.09-2.86.16s-2.7.41-2.87.08c-.07-.16.16-.48.66-.78a4.86,4.86,0,0,1,4.37-.18C121.29,76.49,121.54,76.79,121.47,77Z"/><path class="cls-8" d="M136.13,79.81c-.16.28-1.36,0-2.82-.07s-2.67.14-2.83-.15.17-.39.68-.61a5.23,5.23,0,0,1,2.16-.36,5.36,5.36,0,0,1,2.15.53C136,79.41,136.2,79.68,136.13,79.81Z"/><path class="cls-6" d="M106.26,86.36c-.15-.08-6.2-2.34-6.45,4s6.13,5.28,6.15,5.1S106.26,86.36,106.26,86.36Z"/><path class="cls-7" d="M104.13,93s-.11.08-.3.15a1.12,1.12,0,0,1-.83,0,2.76,2.76,0,0,1-1.16-2.5,3.56,3.56,0,0,1,.38-1.56,1.26,1.26,0,0,1,.86-.81.56.56,0,0,1,.64.33c.07.18,0,.3.06.31s.14-.1.1-.36a.72.72,0,0,0-.23-.41.81.81,0,0,0-.6-.18,1.53,1.53,0,0,0-1.19.93,3.79,3.79,0,0,0-.46,1.75,2.85,2.85,0,0,0,1.5,2.79,1.12,1.12,0,0,0,1-.13C104.11,93.12,104.15,93,104.13,93Z"/><path class="cls-8" d="M124.51,97.87c.06-.16-1.17-.53-2-1.69a7.28,7.28,0,0,1-.88-1.65c-.18-.46-.32-.75-.39-.73s0,.33,0,.83a4.68,4.68,0,0,0,.82,1.85,3.69,3.69,0,0,0,1.61,1.23C124.16,97.91,124.49,97.92,124.51,97.87Z"/><path class="cls-8" d="M150.11,70.71a1.51,1.51,0,0,0-.7-.87,4.5,4.5,0,0,0-2.35-.38,13.32,13.32,0,0,1-6.93-2.11,31.7,31.7,0,0,0-3.22-3.91c-2.8-2.87-5.09-4.83-7.47-5.79a21.39,21.39,0,0,0-11.42-.9c-3.21.84-6.09,3.44-6.53,6.73-1.8-1.52-4.5-1.51-6.69-.63l0,0c-2.44.86-3.83,3.44-4.55,5.93s-1,5.14-2.34,7.37c-.27.47-.6,1-.36,1.51a1,1,0,0,0,1.08.47,3,3,0,0,0,1.13-.51l-.81,2a5.81,5.81,0,0,0,2.65-.18,56.82,56.82,0,0,0,1.73,6.56,3.8,3.8,0,0,1,2.58.63c.86.77,1.24,2.22,2.66,1.67.72-.28,1.38-1.8,1.62-2.53a36,36,0,0,0,1.56-15.22,11.53,11.53,0,0,1,3.57-2.58l-.11.1c2.57-.89,5.48-1.77,7.93-.56,1.89.93,3,2.9,4.42,4.47a14.48,14.48,0,0,0,10.31,4.76c.14,2.59-.08,6.26.06,8.86l2.18-4.16v0a8.86,8.86,0,0,0,.47-.92l.05-.09h0a15.6,15.6,0,0,1,.73-1.48l0,0a1.62,1.62,0,0,0,2.37-2.16,3.65,3.65,0,0,0-.78-.79,2.56,2.56,0,0,0,2.44.63,2,2,0,0,0,1.42-2,1.71,1.71,0,0,0-1-1.37,5.79,5.79,0,0,0,3.29-.72C149.7,72.14,150.33,71.53,150.11,70.71Z"/><path class="cls-9" d="M114.39,64.53a9.56,9.56,0,0,0-.93.85,6.61,6.61,0,0,0-1.41,3.06,11.22,11.22,0,0,0-.24,2.34c0,.85.07,1.76.13,2.72a23,23,0,0,1,.07,3,9.77,9.77,0,0,1-.21,1.59,3.21,3.21,0,0,1-.65,1.55,1.39,1.39,0,0,1-1.3.44,2.09,2.09,0,0,1-1.17-.66,4.75,4.75,0,0,1-.88-2.35l.19,0a8,8,0,0,1-1.12,1.93,2.75,2.75,0,0,1-1.79,1,1.77,1.77,0,0,1-1-.16,1.49,1.49,0,0,1-.65-.64,1.61,1.61,0,0,1-.2-.82,1.18,1.18,0,0,1,.3-.71l.1.08a5.93,5.93,0,0,1-2,1.49,5.65,5.65,0,0,1-.62.24.68.68,0,0,1-.22,0l.21-.09a5.41,5.41,0,0,0,.6-.26,6.26,6.26,0,0,0,1.91-1.51l.1.09a1.19,1.19,0,0,0-.07,1.37,1.45,1.45,0,0,0,.59.56,1.65,1.65,0,0,0,.86.14,2.54,2.54,0,0,0,1.66-.93A7.23,7.23,0,0,0,107.8,77l.14-.29.06.32a4.51,4.51,0,0,0,.84,2.23,1.89,1.89,0,0,0,1,.6,1.2,1.2,0,0,0,1.11-.38,3.3,3.3,0,0,0,.6-1.44,10.57,10.57,0,0,0,.2-1.56,24.75,24.75,0,0,0,0-3c-.06-1-.13-1.87-.11-2.73a10.82,10.82,0,0,1,.26-2.37,6.63,6.63,0,0,1,1.5-3.09A3.92,3.92,0,0,1,114.39,64.53Z"/><path class="cls-9" d="M142.9,73.5l-.08.06-.23.17a2.2,2.2,0,0,1-.39.25c-.16.09-.34.2-.56.3a8.25,8.25,0,0,1-3.94.71,10.45,10.45,0,0,1-5.56-2.06,17.92,17.92,0,0,1-4.78-5.5c-.67-1.12-1.22-2.26-1.82-3.32a12.44,12.44,0,0,0-2.06-2.81,6.4,6.4,0,0,0-2.66-1.61,4.5,4.5,0,0,0-1.4-.16,5.14,5.14,0,0,0-3.2,1.4,5.51,5.51,0,0,0-1,1.35,6.87,6.87,0,0,0-.48,1.39.58.58,0,0,1,0-.1l.05-.28a4.18,4.18,0,0,1,.35-1,5,5,0,0,1,1-1.4,5.51,5.51,0,0,1,2-1.22,4.69,4.69,0,0,1,1.33-.26,4.57,4.57,0,0,1,1.45.15,6.56,6.56,0,0,1,2.75,1.64,12.23,12.23,0,0,1,2.1,2.85c.61,1.06,1.16,2.2,1.82,3.31a18.19,18.19,0,0,0,4.71,5.45,10.39,10.39,0,0,0,5.46,2.07,8.41,8.41,0,0,0,3.9-.64A11.35,11.35,0,0,0,142.9,73.5Z"/><path class="cls-9" d="M143.74,69.45a1.55,1.55,0,0,1-.33.23,7.18,7.18,0,0,1-1,.5,10.06,10.06,0,0,1-1.55.51,11.72,11.72,0,0,1-2,.26,11.53,11.53,0,0,1-2-.13,10,10,0,0,1-1.58-.41,7.6,7.6,0,0,1-1-.44c-.22-.12-.35-.19-.34-.21s.53.23,1.4.5a11.72,11.72,0,0,0,1.56.36,13.4,13.4,0,0,0,2,.12,11.4,11.4,0,0,0,1.94-.25,11.61,11.61,0,0,0,1.54-.45C143.22,69.71,143.72,69.42,143.74,69.45Z"/><path class="cls-8" d="M136.2,83.34c-.18.18-1.25-.67-2.79-.71s-2.7.71-2.86.51.11-.43.62-.78a3.87,3.87,0,0,1,2.29-.65,3.71,3.71,0,0,1,2.22.81C136.14,82.9,136.29,83.25,136.2,83.34Z"/><path class="cls-8" d="M134.63,86.4a1.26,1.26,0,0,1-1.3,1.17,1.21,1.21,0,0,1-1.2-1.22,1.26,1.26,0,0,1,1.29-1.17A1.2,1.2,0,0,1,134.63,86.4Z"/><path class="cls-6" d="M192.2,120.09a2.55,2.55,0,0,0-2.56-2.68,1.78,1.78,0,0,0-2.07-.81l-4.14,2.79a57.67,57.67,0,0,1-4.63,5c-1.1-.82-1.1-2.45-2.41-4.43s-4.29-1.74-4.29-1.74,2.31,5.24,2.56,8.49-1.78,12.35-1.78,12.35l11.71,3.29s.74-5,2-5.39c1.58-.48,2.46-2.81,2.46-2.81,1.7-3.46,5.17-8.48,5.66-11S192.2,120.09,192.2,120.09Z"/><path class="cls-9" d="M105.12,114.3c7.46,4.69,15,6.45,22.59,3.42l11.44,2.92,11.26,75.22-66,.57L87.65,179l8.19-62.77Z"/><path class="cls-9" d="M139.15,120.64s8.9,3.69,12.3,10.17,8.86,24.64,8.86,24.64L170.36,137,189,141.76s-13.9,38.32-17.38,41.81c-3.82,3.81-14.23,7.67-19.32,4.69S146.2,174,146.2,174Z"/><path class="cls-8" d="M139.77,152.1c-.05,0-.1-3.34-.1-7.46s.05-7.46.1-7.46.09,3.34.09,7.46S139.82,152.1,139.77,152.1Z"/><path class="cls-8" d="M143.25,124.94a9.83,9.83,0,0,1-.43,1.23c-.28.75-.66,1.8-1,3s-.65,2.25-.84,3a11.49,11.49,0,0,1-.34,1.26,1.52,1.52,0,0,1,0-.35c0-.23.1-.55.18-.94.16-.79.43-1.88.79-3.06s.76-2.22,1.07-3c.16-.37.29-.67.39-.87A1.17,1.17,0,0,1,143.25,124.94Z"/><path class="cls-9" d="M94.63,144.36,96.7,116S81.16,117.46,76,128.42c-4.34,9.24-16.3,37-17.58,40.83-3.75,11.16,2.12,26.49,26.31,25.61l2.76-15.17Z"/><path class="cls-8" d="M77.23,182.85s0-.1.13-.27l.39-.76L79.24,179c.15-.3.32-.6.49-.92a2.82,2.82,0,0,1,.71-.92,1.92,1.92,0,0,1,1.2-.34,5.11,5.11,0,0,1,1.28.21,12.53,12.53,0,0,1,2.6,1,6.45,6.45,0,0,1,1.25.8l.15.12a.55.55,0,0,1,.12.19,2.7,2.7,0,0,1,.08.39,6.62,6.62,0,0,1,0,.77,27.93,27.93,0,0,1-.29,3c-.13.95-.28,1.86-.42,2.73-.29,1.74-.59,3.3-.84,4.61s-.46,2.35-.6,3.1l-.17.84-.06.3a1.35,1.35,0,0,1,0-.3c0-.2.07-.48.14-.85.13-.75.31-1.81.54-3.11s.52-2.88.8-4.62c.14-.87.28-1.78.41-2.73s.25-1.93.29-2.94a6.21,6.21,0,0,0,0-.75,1.21,1.21,0,0,0-.07-.34.2.2,0,0,0-.07-.12l-.14-.12a6.74,6.74,0,0,0-1.21-.78,13.7,13.7,0,0,0-2.56-1,5.54,5.54,0,0,0-1.25-.21,1.73,1.73,0,0,0-1.1.31,2.5,2.5,0,0,0-.67.85l-.51.92-1.53,2.76-.43.75A1.42,1.42,0,0,1,77.23,182.85Z"/><path class="cls-8" d="M66,169.39h.18l.52,0c.45,0,1.11.06,1.92.14a24,24,0,0,1,2.82.41,14.67,14.67,0,0,1,3.32,1.1A13.31,13.31,0,0,1,77.68,173a8.08,8.08,0,0,1,1.77,2.24,5.19,5.19,0,0,1,.54,1.85,5.1,5.1,0,0,1,0,.53.72.72,0,0,1,0,.18s0-.26-.07-.7a5,5,0,0,0-.58-1.8,7.87,7.87,0,0,0-1.77-2.17,13.3,13.3,0,0,0-2.88-1.89,15.25,15.25,0,0,0-3.28-1.1c-1-.22-2-.35-2.8-.44l-1.9-.2-.52-.05Z"/><path class="cls-8" d="M82.62,168a6.28,6.28,0,0,1-.38,1.11c-.27.68-.67,1.61-1.12,2.62L80,174.28a6.51,6.51,0,0,1-.51,1.06,7.47,7.47,0,0,1,.39-1.11c.27-.68.66-1.6,1.12-2.62L82.11,169A9.51,9.51,0,0,1,82.62,168Z"/><path class="cls-8" d="M91.22,145.65s-.09-1.8-.09-4,0-4,.09-4,.09,1.79.09,4S91.27,145.65,91.22,145.65Z"/><g class="cls-10"><path d="M80,177.77c-4.09,1.42-6.85,5.13-8,9.31a1.49,1.49,0,0,0,.1,1.31,1,1,0,0,0,1.29.1,3,3,0,0,0,.91-1.05A107,107,0,0,0,80,177.77Z"/></g><g class="cls-10"><path d="M74.91,169.68a16.33,16.33,0,0,0-7-1.84,10.51,10.51,0,0,0-2.85.25c-1.27.26-2.74.91-3,1.82,2.93-.91,7.25-.31,10.25.35a11,11,0,0,1,7.18,5.08A10.22,10.22,0,0,0,74.91,169.68Z"/></g><path class="cls-8" d="M88.93,133.58a3,3,0,0,1-.14-.45c-.07-.29-.2-.71-.37-1.21a20.26,20.26,0,0,0-1.72-3.82,20.59,20.59,0,0,0-2.5-3.36c-.36-.4-.67-.71-.89-.92a2.44,2.44,0,0,1-.32-.34,2.64,2.64,0,0,1,.37.29,10.78,10.78,0,0,1,.94.88,17.69,17.69,0,0,1,4.25,7.23,11.61,11.61,0,0,1,.31,1.24A1.57,1.57,0,0,1,88.93,133.58Z"/><path class="cls-11" d="M94.64,196.42,77.33,154.65c-.79-1.91.2-3.45,2.21-3.45H83a2.23,2.23,0,0,0,2.48-2l.11-1.53a2.23,2.23,0,0,1,2.49-2h16.55a5.74,5.74,0,0,1,3.83,1.7l1.34,1.3a5.82,5.82,0,0,0,3.83,1.69h21.08a5.89,5.89,0,0,1,5,3.45l17.16,42.63Z"/><g class="cls-10"><path d="M94.64,196.42,77.33,154.65c-.79-1.91.2-3.45,2.21-3.45H83a2.23,2.23,0,0,0,2.48-2l.11-1.53a2.23,2.23,0,0,1,2.49-2h16.55a5.74,5.74,0,0,1,3.83,1.7l1.34,1.3a5.82,5.82,0,0,0,3.83,1.69h21.08a5.89,5.89,0,0,1,5,3.45l17.16,42.63Z"/></g><path class="cls-3" d="M91.78,182.23,85.25,157a2.55,2.55,0,0,1,2.17-3.33H138.6a2.31,2.31,0,0,1,2.18,1.88l9.51,38c.42,1.66-.25,2.66-1.77,2.65H97a2.33,2.33,0,0,1-2.15-1.86Z"/><path class="cls-1" d="M95.32,195.28l-2.78-39.76A2.43,2.43,0,0,1,95,152.91h53v42.37Z"/><path class="cls-5" d="M94.72,196.19l6.31-41a2.93,2.93,0,0,1,2.89-2.29h53.64a2.9,2.9,0,0,1,2.71,4l-11.58,37.51Z"/><path class="cls-11" d="M94.64,196.4l13-38.39a3.84,3.84,0,0,1,3.62-2.66h55.3a2.69,2.69,0,0,1,2.47,3.58l-12.1,37.49Z"/><g class="cls-10"><path d="M121.38,190l-3,.16a28.36,28.36,0,0,1-13.44-2.38c-1.3-.58-2.68-1.4-3.07-2.77-.44-1.53.55-3.13,1.76-4.17a31.74,31.74,0,0,0,3.74-3c1.05-1.2,1.55-3.14.51-4.35l-.29.21c-.74,1.89-2.83,2.81-4.55,3.89a16.11,16.11,0,0,0-6.76,8.83c-.6,2-.76,4.3.44,6a7.45,7.45,0,0,0,3.64,2.39c4.18,1.56,8.65,1.61,13.11,1.62,1.41,0,5.74-.06,5.74-.06,1.36-.37,1.81-1.08,2.63-2.23A3.63,3.63,0,0,0,121.38,190Z"/></g><path class="cls-6" d="M121.38,190,107,187.8l-5.6-3.22a2.5,2.5,0,0,1-1.29-2v-.05a2.54,2.54,0,0,1,1.58-2.44c1.78-.75,4.59-1.75,5.79-3.85,1.73-3,0-3.65,0-3.65l-12,4.82-8.53,5.8-1.71,9.68,11.89,3.88s13.26.75,16.92.34,3.66-2.11,3.66-2.11a3.46,3.46,0,0,0,2.05-2.55c1.77-1.66,1.7-2.45,1.7-2.45"/><path class="cls-7" d="M102.93,194.14a2.34,2.34,0,0,1,.6.11l1.6.35a34,34,0,0,0,10.77.42c.68-.08,1.24-.16,1.62-.22a2.7,2.7,0,0,1,.6-.07,2.54,2.54,0,0,1-.58.16c-.38.09-.93.2-1.62.3a29,29,0,0,1-10.83-.42c-.67-.16-1.22-.31-1.59-.43A3.36,3.36,0,0,1,102.93,194.14Z"/><path class="cls-7" d="M104.25,191.91a2.41,2.41,0,0,1,.6.11c.38.1.94.22,1.63.35a35.24,35.24,0,0,0,5.45.6,36.44,36.44,0,0,0,5.49-.25c.69-.08,1.26-.16,1.65-.23a3.74,3.74,0,0,1,.61-.07,2.59,2.59,0,0,1-.59.17c-.39.09-1,.2-1.65.3a31,31,0,0,1-5.51.33,30.16,30.16,0,0,1-5.48-.68c-.69-.16-1.25-.3-1.62-.42A3.29,3.29,0,0,1,104.25,191.91Z"/><path class="cls-1" d="M189.32,138.56l-25.63,5.06a3.27,3.27,0,0,1-3.84-2.58l-7-35.47a3.28,3.28,0,0,1,2.58-3.84l16.25-3.21L186.81,109l5.08,25.72A3.27,3.27,0,0,1,189.32,138.56Z"/><path class="cls-2" d="M171.67,98.52l2,10a3.05,3.05,0,0,0,3.57,2.4l9.6-1.9Z"/><path class="cls-3" d="M174,109.36a3.37,3.37,0,0,0,3.26,2.69h.33c1.3,0,9.84-.18,9.8-.37l-.53-2.69-9.6,1.9S174.8,111.29,174,109.36Z"/><path class="cls-8" d="M189.32,138.56l.14,0c.09,0,.23-.07.4-.14a3.12,3.12,0,0,0,1.32-1,3.24,3.24,0,0,0,.71-2.49c-.19-1-.44-2.24-.71-3.58-1.07-5.37-2.59-13-4.44-22.33l0,0L171.62,98.59l.07,0-9.38,1.85-4.91,1-1.24.25a7.76,7.76,0,0,0-1.22.29,3.17,3.17,0,0,0-2,3.36c.09.57.23,1.16.34,1.74.23,1.16.45,2.32.68,3.46.45,2.29.9,4.55,1.33,6.77.88,4.43,1.72,8.71,2.52,12.79.41,2,.8,4,1.18,5.95.19,1,.37,1.92.56,2.86l.27,1.39a7.1,7.1,0,0,0,.33,1.34,3.18,3.18,0,0,0,1.87,1.78,3.24,3.24,0,0,0,1.27.19,11.25,11.25,0,0,0,1.27-.22l4.84-.95,14.6-2.85,4-.77,1-.19a3,3,0,0,1,.35-.06l-.35.07-1,.22-4,.8-14.59,2.91-4.84,1a10.35,10.35,0,0,1-1.28.22,3.16,3.16,0,0,1-1.33-.19,3.3,3.3,0,0,1-2-1.86,7.22,7.22,0,0,1-.34-1.37l-.28-1.39-.56-2.86q-.58-2.9-1.18-5.95l-2.54-12.79-1.33-6.76-.69-3.46c-.11-.59-.24-1.16-.33-1.76a3.35,3.35,0,0,1,2.15-3.56,9.78,9.78,0,0,1,1.25-.29l1.25-.25,4.9-1,9.38-1.85h0l0,0,15.14,10.49,0,0v0c1.82,9.29,3.33,17,4.38,22.34.26,1.35.5,2.54.69,3.59a3.28,3.28,0,0,1-2.09,3.49l-.41.12Z"/><path class="cls-8" d="M186.81,109s-.08,0-.24.07l-.7.16-2.6.54-3.85.78-2.28.45a3.1,3.1,0,0,1-2.42-.6,3.14,3.14,0,0,1-.84-1,3.31,3.31,0,0,1-.38-1.19q-.24-1.19-.45-2.28c-.28-1.45-.53-2.76-.74-3.86s-.37-2-.49-2.61l-.12-.71,0-.25a1,1,0,0,1,.07.24l.16.71c.13.63.31,1.51.54,2.59s.49,2.41.78,3.86c.14.72.3,1.48.45,2.27a3.55,3.55,0,0,0,.37,1.14,2.89,2.89,0,0,0,.79.92,2.92,2.92,0,0,0,2.28.57l2.28-.44,3.86-.74,2.6-.48.71-.13Z"/><path class="cls-8" d="M173,107.53s-3,.68-6.75,1.42-6.76,1.3-6.77,1.25,3-.69,6.74-1.43S172.94,107.48,173,107.53Z"/><path class="cls-8" d="M180.35,111.24c0,.05-4.45,1-9.95,2.06s-10,1.93-10,1.88,4.44-1,10-2.06S180.34,111.19,180.35,111.24Z"/><path class="cls-8" d="M181.33,116.22s-4.45,1-10,2.06-10,1.93-10,1.88,4.45-1,10-2.06S181.32,116.17,181.33,116.22Z"/><path class="cls-8" d="M162.38,125.14s4.44-1,10-2.06,10-1.93,10-1.88-4.44,1-9.95,2.06S162.39,125.19,162.38,125.14Z"/><path class="cls-8" d="M183.3,126.18s-4.45,1-10,2.06-10,1.93-10,1.88,4.44-1,9.95-2.06S183.29,126.13,183.3,126.18Z"/><path class="cls-8" d="M184.28,131.16c0,.05-4.45,1-9.95,2.06s-10,1.93-10,1.88,4.45-1,9.95-2.06S184.27,131.11,184.28,131.16Z"/><path class="cls-6" d="M185.29,112.16s1.89-2.4,3.35-1.06,1,2-.35,4.15c0,0,3.09-.16,2.1,3,0,0,3.08-.35,2.79,2.26,0,0,2.33,2.27,1.12,3.74s-5.61,4.12-6.72,3.67-1.11-2-1.11-2a4.43,4.43,0,0,1-1.69-1.29c-.36-.7.26-1.67.26-1.67s-1.11-1.14-1.38-1.45.15-1.79.15-1.79l1.77-1.73s-2.44,1.06-3,.66-1.09-.76-.54-1.5a26.43,26.43,0,0,1,2.48-2.39Z"/><path class="cls-7" d="M186.71,126.09a8.81,8.81,0,0,1,.81-1,9.23,9.23,0,0,1,2.25-2.07,22.46,22.46,0,0,0,2.54-1.63c.59-.49.82-.92.87-.89a2.33,2.33,0,0,1-.73,1,14.89,14.89,0,0,1-2.52,1.73,11.23,11.23,0,0,0-2.26,2A3.8,3.8,0,0,1,186.71,126.09Z"/><path class="cls-7" d="M185,123.41a22.8,22.8,0,0,1,2.54-2.74c.73-.72,1.36-1.42,1.9-1.84a2.16,2.16,0,0,1,.95-.56s-.33.25-.81.71-1.09,1.17-1.83,1.9A23.7,23.7,0,0,1,185,123.41Z"/><path class="cls-7" d="M185.58,118a12.14,12.14,0,0,1,1.43-1.37c.79-.74,1.17-1.53,1.25-1.5a3,3,0,0,1-1,1.71A4.86,4.86,0,0,1,185.58,118Z"/><path class="cls-7" d="M185.29,112.15l0,.18-.12.5-.5,1.93v0h0l-1.19,1.08a10.55,10.55,0,0,0-1.32,1.41.77.77,0,0,0-.14.45.73.73,0,0,0,.24.42,5.12,5.12,0,0,0,.43.36.68.68,0,0,0,.5.1,9.45,9.45,0,0,0,2.4-.75l.57-.23-.44.43-1.77,1.73,0,0a2.3,2.3,0,0,0-.09,1.8,5.27,5.27,0,0,0,1.4,1.43l.12.09-.09.11c-.39.46-.66,1.18-.16,1.62a6.49,6.49,0,0,0,1.68,1.15l-.21.12v0h0s-.08-.11.09.12c.4-.19.11-.08.2-.11h0v.22a1.5,1.5,0,0,0,0,.29,2.21,2.21,0,0,0,.15.56,1.67,1.67,0,0,0,.31.47.94.94,0,0,0,.46.26,2.74,2.74,0,0,0,1.17-.23,8.57,8.57,0,0,0,1.16-.52,17.77,17.77,0,0,0,2.07-1.25,12.54,12.54,0,0,0,1.81-1.48,1.52,1.52,0,0,0,.47-.93,2.41,2.41,0,0,0-.19-1.05,5.9,5.9,0,0,0-1.22-1.76l0-.05v-.07a2.25,2.25,0,0,0-.1-1,1.52,1.52,0,0,0-.63-.74,3.3,3.3,0,0,0-1.9-.37h-.18l0-.17c0-.19.1-.38.14-.57a3.88,3.88,0,0,0,.05-.57,1.58,1.58,0,0,0-.32-1,2.33,2.33,0,0,0-1.84-.72h-.21l.11-.17a17.42,17.42,0,0,0,1-1.62,2.8,2.8,0,0,0,.25-.81,1.29,1.29,0,0,0-.16-.75,3.4,3.4,0,0,0-1-1,1.41,1.41,0,0,0-1.16-.12,3.8,3.8,0,0,0-1.44.9l-.32.31a.84.84,0,0,1-.11.11s0-.05.09-.13.16-.19.3-.34a6,6,0,0,1,.55-.49,3.3,3.3,0,0,1,.9-.48,1.53,1.53,0,0,1,1.26.11l.3.22.27.25a3.08,3.08,0,0,1,.48.63,1.43,1.43,0,0,1,.19.85,2.49,2.49,0,0,1-.26.87,17.26,17.26,0,0,1-1,1.66l-.1-.17a3.08,3.08,0,0,1,1.08.16,1.91,1.91,0,0,1,1,.63,1.83,1.83,0,0,1,.38,1.15,3.23,3.23,0,0,1,0,.62c0,.2-.1.4-.15.61l-.13-.17a3.63,3.63,0,0,1,2.07.39,1.75,1.75,0,0,1,.74.87,2.6,2.6,0,0,1,.13,1.14l0-.11a6,6,0,0,1,1.28,1.86,2.57,2.57,0,0,1,.22,1.17,1.94,1.94,0,0,1-.18.61,2.33,2.33,0,0,1-.37.49,11.85,11.85,0,0,1-1.85,1.53,19.2,19.2,0,0,1-2.1,1.27,10,10,0,0,1-1.2.54,3,3,0,0,1-1.31.24,1.48,1.48,0,0,1-1-.91,2.8,2.8,0,0,1-.17-.63,1.73,1.73,0,0,1,0-.32V126h0c.08,0-.2.08.2-.11.17.22.05.08.08.12v.09l0,.21-.19-.1a6.89,6.89,0,0,1-1.76-1.21,1.35,1.35,0,0,1-.3-.49,1.1,1.1,0,0,1,0-.57,2.16,2.16,0,0,1,.48-.94l0,.2a5.1,5.1,0,0,1-1.47-1.53,1.84,1.84,0,0,1-.17-1,3.64,3.64,0,0,1,.26-1v0l0,0,1.78-1.71.13.19a9.36,9.36,0,0,1-2.48.74.81.81,0,0,1-.63-.15,3.23,3.23,0,0,1-.45-.38.9.9,0,0,1-.29-.54.92.92,0,0,1,.17-.57,9.82,9.82,0,0,1,1.37-1.42c.44-.41.85-.76,1.21-1.07l0,0c.24-.82.43-1.46.56-1.92l.16-.5C185.26,112.2,185.28,112.15,185.29,112.15Z"/><path class="cls-1" d="M55.15,131.43h-22a2.76,2.76,0,0,1-2.76-2.76V98.15a2.76,2.76,0,0,1,2.76-2.76h14l10.83,11.16v22.12A2.77,2.77,0,0,1,55.15,131.43Z"/><path class="cls-2" d="M47.08,95.39V104a2.57,2.57,0,0,0,2.57,2.57h8.26Z"/><path class="cls-3" d="M47.19,104.73a2.86,2.86,0,0,0,2.27,2.77,1.31,1.31,0,0,0,.27.06c1.08.2,8.18,1.46,8.18,1.3v-2.31H49.65S47.59,106.48,47.19,104.73Z"/><path class="cls-8" d="M55.15,131.43s.16,0,.47-.06a2.71,2.71,0,0,0,1.25-.58,2.67,2.67,0,0,0,1-1.95c0-.89,0-1.92,0-3.07,0-4.62,0-11.24,0-19.22l0,0L47,95.45l.06,0H33.72a9.22,9.22,0,0,0-1.06,0A2.67,2.67,0,0,0,30.44,98c0,.49,0,1,0,1.5v19.8c0,1.75,0,3.46,0,5.12V128a5.55,5.55,0,0,0,0,1.16A2.68,2.68,0,0,0,31.72,131a2.65,2.65,0,0,0,1,.36c.35,0,.72,0,1.08,0H38l12.56,0,3.42,0H50.54l-12.56,0H33.82a10.24,10.24,0,0,1-1.1,0,2.84,2.84,0,0,1-2.4-2.25,6.83,6.83,0,0,1-.06-1.19v-3.65c0-1.66,0-3.37,0-5.12V99.46c0-.51,0-1,0-1.51a2.83,2.83,0,0,1,2.37-2.61,6.71,6.71,0,0,1,1.09,0h13.4l0,0L58,106.49l0,0v0c0,8,0,14.6,0,19.22,0,1.15,0,2.18,0,3.08a2.77,2.77,0,0,1-2.3,2.54,2,2,0,0,1-.36,0Z"/><path class="cls-8" d="M57.91,106.55l-.22,0h-.6l-2.24,0-3.32,0h-2a2.63,2.63,0,0,1-1.92-.9,2.72,2.72,0,0,1-.54-1,3.17,3.17,0,0,1-.12-1c0-.68,0-1.34,0-2l0-3.32c0-.93,0-1.69,0-2.24V95.6c0-.14,0-.21,0-.21a.85.85,0,0,1,0,.21l0,.61c0,.55,0,1.31,0,2.24l0,3.32v2a3,3,0,0,0,.12,1,2.38,2.38,0,0,0,.5.89,2.44,2.44,0,0,0,1.78.84h2l3.32,0,2.24,0,.6,0A.57.57,0,0,1,57.91,106.55Z"/><path class="cls-8" d="M46.67,103.06s-2.61.09-5.82.09-5.82,0-5.82-.09,2.61-.1,5.82-.1S46.67,103,46.67,103.06Z"/><path class="cls-8" d="M52.18,107.34s-3.84.09-8.57.09-8.58,0-8.58-.09,3.84-.09,8.58-.09S52.18,107.29,52.18,107.34Z"/><path class="cls-8" d="M52.18,111.62c0,.06-3.84.1-8.57.1s-8.58,0-8.58-.1,3.84-.09,8.58-.09S52.18,111.57,52.18,111.62Z"/><path class="cls-8" d="M52.18,115.91s-3.84.09-8.57.09S35,116,35,115.91s3.84-.09,8.58-.09S52.18,115.86,52.18,115.91Z"/><path class="cls-8" d="M52.18,120.19c0,.06-3.84.1-8.57.1s-8.58,0-8.58-.1,3.84-.09,8.58-.09S52.18,120.14,52.18,120.19Z"/><path class="cls-8" d="M52.18,124.48s-3.84.09-8.57.09-8.58,0-8.58-.09,3.84-.09,8.58-.09S52.18,124.43,52.18,124.48Z"/><path class="cls-1" d="M41.1,181.71H19.29A2.73,2.73,0,0,1,16.56,179v-30.2a2.73,2.73,0,0,1,2.73-2.73H33.12l10.71,11V179A2.72,2.72,0,0,1,41.1,181.71Z"/><path class="cls-2" d="M33.12,146.06v8.5a2.54,2.54,0,0,0,2.54,2.54h8.17Z"/><path class="cls-3" d="M33.24,155.31a2.82,2.82,0,0,0,2.23,2.74l.27.06c1.07.19,8.09,1.44,8.09,1.27V157.1H35.66S33.62,157,33.24,155.31Z"/><path class="cls-8" d="M41.1,181.72s.17,0,.47-.06a2.72,2.72,0,0,0,2.22-2.5c0-.88,0-1.9,0-3,0-4.58,0-11.12,0-19l0,.05c-3.25-3.33-6.86-7.05-10.72-11l.06,0H19.91a7.24,7.24,0,0,0-1.05,0,2.66,2.66,0,0,0-2.2,2.42c0,.48,0,1,0,1.48v28.27a5.36,5.36,0,0,0,.05,1.14,2.65,2.65,0,0,0,1.23,1.76,2.49,2.49,0,0,0,1,.35,7.65,7.65,0,0,0,1.07,0h4.12l12.43,0,3.38,0h0l-3.38,0-12.43,0H20a10.12,10.12,0,0,1-1.09,0,2.85,2.85,0,0,1-1.06-.37,2.79,2.79,0,0,1-1.31-1.86,6.61,6.61,0,0,1-.06-1.17V150.09c0-.5,0-1,0-1.5a2.79,2.79,0,0,1,.51-1.44A2.87,2.87,0,0,1,18.83,146a7.86,7.86,0,0,1,1.08,0H33.16l0,0,10.7,11.05,0,0v0c0,7.9,0,14.44,0,19,0,1.14,0,2.15,0,3a2.77,2.77,0,0,1-1,2,2.7,2.7,0,0,1-1.26.56,1.28,1.28,0,0,1-.36,0Z"/><path class="cls-8" d="M43.83,157.1a.85.85,0,0,1-.21,0l-.6,0-2.21,0-3.28,0h-2a2.65,2.65,0,0,1-2.43-1.84,3.12,3.12,0,0,1-.12-1c0-.67,0-1.32,0-1.94l0-3.28c0-.92,0-1.67,0-2.22v-.6c0-.13,0-.21,0-.21a.53.53,0,0,1,0,.21l0,.6c0,.55,0,1.3,0,2.22l0,3.28v1.94a3,3,0,0,0,.12,1,2.38,2.38,0,0,0,.5.87,2.41,2.41,0,0,0,1.76.83h1.94l3.28,0,2.21,0,.6,0Z"/><path class="cls-8" d="M32.71,153.65s-2.58.09-5.75.09-5.76,0-5.76-.09,2.58-.1,5.76-.1S32.71,153.59,32.71,153.65Z"/><path class="cls-8" d="M38.17,157.88c0,.06-3.8.1-8.48.1s-8.49,0-8.49-.09,3.8-.1,8.49-.1S38.17,157.83,38.17,157.88Z"/><path class="cls-8" d="M38.17,162.12c0,.06-3.8.1-8.48.1s-8.49,0-8.49-.1S25,162,29.69,162,38.17,162.07,38.17,162.12Z"/><path class="cls-8" d="M38.17,166.36s-3.8.1-8.48.1-8.49-.05-8.49-.1,3.8-.09,8.49-.09S38.17,166.31,38.17,166.36Z"/><path class="cls-8" d="M38.17,170.6c0,.05-3.8.09-8.48.09s-8.49,0-8.49-.09,3.8-.09,8.49-.09S38.17,170.55,38.17,170.6Z"/><path class="cls-8" d="M38.17,174.84s-3.8.09-8.48.09-8.49,0-8.49-.09,3.8-.09,8.49-.09S38.17,174.79,38.17,174.84Z"/><path class="cls-1" d="M84,95.46H62.32a2.71,2.71,0,0,1-2.71-2.71v-30A2.71,2.71,0,0,1,62.32,60H76.07L86.71,71V92.75A2.71,2.71,0,0,1,84,95.46Z"/><path class="cls-2" d="M76.07,60v8.44A2.52,2.52,0,0,0,78.59,71h8.12Z"/><path class="cls-3" d="M76.18,69.22A2.81,2.81,0,0,0,78.4,72l.27.06c1.06.19,8,1.43,8,1.27V71H78.59S76.56,70.94,76.18,69.22Z"/><path class="cls-8" d="M84,95.46a3.19,3.19,0,0,0,.47,0,2.72,2.72,0,0,0,1.23-.57,2.66,2.66,0,0,0,1-1.92c0-.87,0-1.89,0-3,0-4.54,0-11,0-18.89l0,0L76,60.1l.07,0H62.93a8.87,8.87,0,0,0-1,0,2.65,2.65,0,0,0-1.7,1.06,2.59,2.59,0,0,0-.48,1.34c0,.48,0,1,0,1.47v8.64q0,5.64,0,10.82v8.63a5.36,5.36,0,0,0,.05,1.14A2.66,2.66,0,0,0,61,95a2.45,2.45,0,0,0,1,.35,7.65,7.65,0,0,0,1.07,0h4.09l12.35,0,3.35,0h0l-3.35,0-12.35,0H63c-.36,0-.71,0-1.09,0a2.7,2.7,0,0,1-1-.37,2.79,2.79,0,0,1-1.3-1.84,5.78,5.78,0,0,1-.06-1.17V88.54c0-1.64,0-3.32,0-5V64c0-.5,0-1,0-1.49A2.75,2.75,0,0,1,60,61.12,2.79,2.79,0,0,1,61.86,60a6.46,6.46,0,0,1,1.07,0H76.1l0,0L86.76,71l0,0v0c0,7.85,0,14.35,0,18.89,0,1.14,0,2.14,0,3a2.68,2.68,0,0,1-1,1.94,2.72,2.72,0,0,1-1.25.56,1.28,1.28,0,0,1-.36,0A.36.36,0,0,1,84,95.46Z"/><path class="cls-8" d="M86.71,71l-.21,0h-.6l-2.2,0-3.26,0H78.51a2.64,2.64,0,0,1-2.42-1.82,3.4,3.4,0,0,1-.12-1c0-.66,0-1.31,0-1.92l0-3.26c0-.91,0-1.66,0-2.2l0-.6c0-.14,0-.21,0-.21a1.66,1.66,0,0,1,0,.21l0,.6c0,.54,0,1.29,0,2.2l0,3.26c0,.61,0,1.26,0,1.92a2.69,2.69,0,0,0,.11,1,2.44,2.44,0,0,0,2.25,1.7h1.92l3.26,0,2.2,0,.6,0A.53.53,0,0,1,86.71,71Z"/><path class="cls-8" d="M75.66,67.57c0,.06-2.56.1-5.72.1s-5.72,0-5.72-.1,2.56-.09,5.72-.09S75.66,67.52,75.66,67.57Z"/><path class="cls-8" d="M81.08,71.79s-3.77.09-8.43.09-8.43,0-8.43-.09,3.78-.1,8.43-.1S81.08,71.74,81.08,71.79Z"/><path class="cls-8" d="M81.08,76s-3.77.09-8.43.09-8.43,0-8.43-.09,3.78-.09,8.43-.09S81.08,76,81.08,76Z"/><path class="cls-8" d="M81.08,80.21c0,.05-3.77.09-8.43.09s-8.43,0-8.43-.09,3.78-.09,8.43-.09S81.08,80.16,81.08,80.21Z"/><path class="cls-8" d="M81.08,84.42s-3.77.1-8.43.1-8.43,0-8.43-.1,3.78-.09,8.43-.09S81.08,84.37,81.08,84.42Z"/><path class="cls-8" d="M81.08,88.63c0,.06-3.77.1-8.43.1s-8.43,0-8.43-.1,3.78-.09,8.43-.09S81.08,88.58,81.08,88.63Z"/><path class="cls-1" d="M218.06,186H196a2.75,2.75,0,0,1-2.75-2.75V152.72A2.76,2.76,0,0,1,196,150h14l10.81,11.14v22.1A2.76,2.76,0,0,1,218.06,186Z"/><path class="cls-2" d="M210,150v8.58a2.56,2.56,0,0,0,2.56,2.56h8.25Z"/><path class="cls-3" d="M210.12,159.29a2.86,2.86,0,0,0,2.26,2.77l.27.06c1.08.19,8.17,1.45,8.17,1.29V161.1h-8.25S210.51,161,210.12,159.29Z"/><path class="cls-8" d="M218.06,186s.17,0,.48-.06a2.71,2.71,0,0,0,2.23-2.52c0-.89,0-1.92,0-3.07,0-4.62,0-11.22,0-19.2l0,.06L209.94,150l.07,0H196.66a9,9,0,0,0-1,0,2.65,2.65,0,0,0-1.73,1.08,2.58,2.58,0,0,0-.49,1.36c0,.49,0,1,0,1.49v8.79c0,3.81,0,7.48,0,11v8.76a6.31,6.31,0,0,0,.06,1.16,2.66,2.66,0,0,0,1.24,1.77,2.71,2.71,0,0,0,1,.36c.35,0,.72,0,1.08,0h4.16l12.54,0,3.41,0h0l-3.41,0-12.54,0h-4.16a10.19,10.19,0,0,1-1.1,0,2.75,2.75,0,0,1-1.07-.38,2.86,2.86,0,0,1-1.33-1.87,6.81,6.81,0,0,1,0-1.19v-1.2c0-.8,0-1.62,0-2.45V173.8c0-3.51,0-7.18,0-11V154c0-.5,0-1,0-1.51a2.83,2.83,0,0,1,2.38-2.6,6.58,6.58,0,0,1,1.08,0H210l0,0,10.8,11.15,0,0v0c0,8,0,14.58,0,19.2,0,1.15,0,2.18,0,3.07a2.74,2.74,0,0,1-2.3,2.55l-.36,0Z"/><path class="cls-8" d="M220.82,161.1a.57.57,0,0,1-.22,0l-.6,0-2.24,0-3.31,0h-2a2.64,2.64,0,0,1-1.91-.9,2.52,2.52,0,0,1-.54-.95,3,3,0,0,1-.12-1.05v-2c0-1.24,0-2.36,0-3.32s0-1.68,0-2.23l0-.61c0-.14,0-.21,0-.21a1.66,1.66,0,0,1,0,.21l0,.61c0,.55,0,1.31,0,2.23s0,2.08,0,3.32c0,.62,0,1.28,0,2a2.75,2.75,0,0,0,.11,1A2.51,2.51,0,0,0,212.5,161h1.95l3.31,0,2.24,0h.6Z"/><path class="cls-8" d="M209.59,157.62s-2.6.09-5.81.09-5.81,0-5.81-.09,2.6-.1,5.81-.1S209.59,157.56,209.59,157.62Z"/><path class="cls-8" d="M215.1,161.9s-3.83.09-8.56.09-8.57,0-8.57-.09,3.84-.1,8.57-.1S215.1,161.84,215.1,161.9Z"/><path class="cls-8" d="M215.1,166.17c0,.06-3.83.1-8.56.1s-8.57,0-8.57-.1,3.84-.09,8.57-.09S215.1,166.12,215.1,166.17Z"/><path class="cls-8" d="M215.1,170.45c0,.05-3.83.1-8.56.1s-8.57-.05-8.57-.1,3.84-.09,8.57-.09S215.1,170.4,215.1,170.45Z"/><path class="cls-8" d="M215.1,174.73c0,.05-3.83.1-8.56.1s-8.57-.05-8.57-.1,3.84-.09,8.57-.09S215.1,174.68,215.1,174.73Z"/><path class="cls-8" d="M215.1,180c0,.05-3.83.09-8.56.09s-8.57,0-8.57-.09,3.84-.09,8.57-.09S215.1,180,215.1,180Z"/><path class="cls-8" d="M242,196.42c0,.05-53.42.09-119.3.09s-119.31,0-119.31-.09,53.41-.09,119.31-.09S242,196.37,242,196.42Z"/></svg>