<svg id="Layer_1" data-name="Layer 1" xmlns="http://www.w3.org/2000/svg" xmlns:xlink="http://www.w3.org/1999/xlink" viewBox="0 0 100 100"><defs><style>.cls-1{fill:#f9320b;}.cls-2{clip-path:url(#clip-path);}.cls-3{clip-path:url(#clip-path-2);}</style><clipPath id="clip-path"><path class="cls-1" d="M83.15,21.71,76.66,18,57.58,53.3l-.74,6.26-.45-7L76.46,17.85l-.79-.46-20.22,35q.28,4.3.56,8.61l7.73-3.82L84,22.17Zm-1.87-9.43,4.29,2.48a2.31,2.31,0,0,1,.84,3.15L84.6,21.05l-.8-.46-6.69-3.86-.8-.46,1.82-3.15a2.31,2.31,0,0,1,3.15-.84Z"/></clipPath><clipPath id="clip-path-2"><path class="cls-1" d="M26.66,32.31H20.85V47.83l5.81-4.94Zm9,27.14h3.59V57.06H41v2.39H56v1.76H41V83H39.22V61.21H35.63ZM10.81,85.21H54.53V63.26h1.76V85.21H90.81V87H56.29V88H54.53V87H10.81ZM47.73,42.88V39.09H45.45v3.79Zm1.77-6.43v.88h.75v1.76H49.5v6.65H47.73v-1.1h-4V39.09H42.51V37.33h5.22v-.88ZM74,47.64V45.53h1.76v3.6l6.11,5.2-1.13,1.34-5-4.23V84.07H74V49.94l-3.36-2.86.89-1.55m-58.29,8.8,5.88-5v-17H16.53V30.55h2.56v-1.7h1.76v1.7h5.81V27.13h1.76v3.42h2.91v1.76H28.42v9.08L46.17,26.31l-4.52-3.85,1.14-1.34,4.73,4,4.74-4,1.14,1.34-4.52,3.85L62.7,38.05l-.9,1.55L47.52,27.46,28.42,43.7v7H26.66V45.2l-5.81,4.94V82.7H19.09V51.63l-4.75,4Z"/></clipPath></defs><path class="cls-1" d="M83.15,21.71,76.66,18,57.58,53.3l-.74,6.26-.45-7L76.46,17.85l-.79-.46-20.22,35q.28,4.3.56,8.61l7.73-3.82L84,22.17Zm-1.87-9.43,4.29,2.48a2.31,2.31,0,0,1,.84,3.15L84.6,21.05l-.8-.46-6.69-3.86-.8-.46,1.82-3.15a2.31,2.31,0,0,1,3.15-.84Z"/><g class="cls-2"><rect class="cls-1" x="55.45" y="11.9" width="31.34" height="49.1"/></g><path class="cls-1" d="M26.66,32.31H20.85V47.83l5.81-4.94Zm9,27.14h3.59V57.06H41v2.39H56v1.76H41V83H39.22V61.21H35.63ZM10.81,85.21H54.53V63.26h1.76V85.21H90.81V87H56.29V88H54.53V87H10.81ZM47.73,42.88V39.09H45.45v3.79Zm1.77-6.43v.88h.75v1.76H49.5v6.65H47.73v-1.1h-4V39.09H42.51V37.33h5.22v-.88ZM74,47.64V45.53h1.76v3.6l6.11,5.2-1.13,1.34-5-4.23V84.07H74V49.94l-3.36-2.86.89-1.55m-58.29,8.8,5.88-5v-17H16.53V30.55h2.56v-1.7h1.76v1.7h5.81V27.13h1.76v3.42h2.91v1.76H28.42v9.08L46.17,26.31l-4.52-3.85,1.14-1.34,4.73,4,4.74-4,1.14,1.34-4.52,3.85L62.7,38.05l-.9,1.55L47.52,27.46,28.42,43.7v7H26.66V45.2l-5.81,4.94V82.7H19.09V51.63l-4.75,4Z"/><g class="cls-3"><rect class="cls-1" x="10.81" y="21.12" width="80" height="66.91"/></g></svg>