<svg id="Layer_1" data-name="Layer 1" xmlns="http://www.w3.org/2000/svg" viewBox="0 0 100 100"><defs><style>.cls-1{fill:#f9320b;}</style></defs><path class="cls-1" d="M41.07,75.79H20.42a.63.63,0,0,1-.63-.62V70.24a.63.63,0,0,1,.63-.62H41.07a.63.63,0,0,1,.63.62v4.93A.63.63,0,0,1,41.07,75.79ZM21,74.55H40.45V70.87H21Z"/><path class="cls-1" d="M24,85.53H22a.64.64,0,0,1-.49-.25.63.63,0,0,1-.11-.54L24.16,75a.62.62,0,1,1,1.19.34l-2.49,8.94h.67L26.12,75a.62.62,0,1,1,1.19.34L24.6,85.07A.62.62,0,0,1,24,85.53Z"/><path class="cls-1" d="M39.45,85.53h-2a.62.62,0,0,1-.6-.46l-2.71-9.73a.61.61,0,0,1,.1-.55.64.64,0,0,1,.5-.24h1.95a.61.61,0,0,1,.6.45l2.72,9.74a.63.63,0,0,1-.11.54A.64.64,0,0,1,39.45,85.53ZM38,84.28h.67l-2.37-8.49h-.67Z"/><path class="cls-1" d="M31.72,75.79h-2a.62.62,0,1,1,0-1.24h2a.62.62,0,1,1,0,1.24Z"/><path class="cls-1" d="M37.82,73.25H23.67a.62.62,0,0,1-.62-.62.62.62,0,0,1,.62-.62H37.82a.62.62,0,0,1,.62.62A.62.62,0,0,1,37.82,73.25Z"/><path class="cls-1" d="M33.71,70.87H27.49a.63.63,0,0,1-.62-.52l-1.45-8.61a.63.63,0,0,1,.14-.51A.6.6,0,0,1,26,61h9.14a.64.64,0,0,1,.48.22.66.66,0,0,1,.13.51l-1.45,8.61A.62.62,0,0,1,33.71,70.87ZM28,69.62h5.18l1.24-7.36H26.77Z"/><path class="cls-1" d="M30.6,62.22c-2.18,0-3.89-3.25-3.89-7.39,0-4,3.33-7.09,3.47-7.22a.62.62,0,0,1,.84,0c.14.13,3.47,3.26,3.47,7.22C34.49,59,32.78,62.22,30.6,62.22ZM30.6,49C29.76,49.9,28,52.2,28,54.83,28,58.45,29.35,61,30.6,61s2.65-2.52,2.65-6.14C33.25,52.2,31.44,49.9,30.6,49Z"/><path class="cls-1" d="M30.6,61.94a.62.62,0,0,1-.62-.62V51.84a.62.62,0,0,1,1.24,0v9.48A.62.62,0,0,1,30.6,61.94Z"/><path class="cls-1" d="M15.45,74a.65.65,0,0,1-.55-.32,40,40,0,1,1,70.2,0,.62.62,0,0,1-.85.24.61.61,0,0,1-.24-.84,38.76,38.76,0,1,0-68,0,.61.61,0,0,1-.24.84A.67.67,0,0,1,15.45,74Z"/><path class="cls-1" d="M50,31.14a.62.62,0,0,1-.62-.62V15.2a.62.62,0,0,1,1.24,0V30.52A.62.62,0,0,1,50,31.14Z"/><path class="cls-1" d="M51.39,35H48.52a.63.63,0,0,1-.63-.63V32A2.07,2.07,0,0,1,52,32v2.38A.63.63,0,0,1,51.39,35Zm-2.25-1.25h1.63V32a.82.82,0,1,0-1.63,0Z"/><path class="cls-1" d="M60.37,42.27H39.63a.62.62,0,0,1-.62-.62V40c-.09-1.86,1.51-3.5,4.76-4.84a28,28,0,0,1,4.63-1.42h2.67l.09,0a.64.64,0,0,1,.63.1,27.5,27.5,0,0,1,4.44,1.38c3.24,1.34,4.84,3,4.76,4.86v1.64A.62.62,0,0,1,60.37,42.27ZM40.25,41h19.5V40c.08-1.63-2.12-2.89-4-3.66A26,26,0,0,0,51.42,35H48.58a26.72,26.72,0,0,0-4.35,1.33c-1.86.77-4.06,2-4,3.66Z"/><path class="cls-1" d="M78.37,84.8,75.45,67.36a4.55,4.55,0,0,0-4.51-3.83H61.28a.63.63,0,0,0,0,1.25h6.9l-3.34,20a.62.62,0,0,0,.51.72h.1a.61.61,0,0,0,.61-.51l3.38-20.23h1.5a3.32,3.32,0,0,1,3.29,2.78L77.14,85a.61.61,0,0,0,.61.52h.1A.64.64,0,0,0,78.37,84.8Z"/><path class="cls-1" d="M45.53,85.53h-.1a.62.62,0,0,1-.51-.72l1.28-7.71a.62.62,0,0,1,1.23.2L46.14,85A.62.62,0,0,1,45.53,85.53Z"/><path class="cls-1" d="M48.21,69.49H48.1a.64.64,0,0,1-.51-.72l.79-4.71a.62.62,0,0,1,.72-.51.64.64,0,0,1,.51.72L48.82,69A.62.62,0,0,1,48.21,69.49Z"/><path class="cls-1" d="M57.83,85.52a.61.61,0,0,1-.61-.52L56,77.66a.64.64,0,0,1,.51-.72.62.62,0,0,1,.72.51l1.23,7.35a.62.62,0,0,1-.52.71Z"/><path class="cls-1" d="M55.15,69.47a.61.61,0,0,1-.61-.52l-.23-1.39A3.32,3.32,0,0,0,51,64.78H41.36a.63.63,0,0,1,0-1.25H51a4.55,4.55,0,0,1,4.51,3.83l.24,1.39a.64.64,0,0,1-.51.72Z"/><path class="cls-1" d="M77.36,74.7l0,0a8.24,8.24,0,0,0,1.51-4.76V57.65a7.47,7.47,0,0,0-7.46-7.46h-8.2a7.47,7.47,0,0,0-7.46,7.46V68.23H48.7A5.06,5.06,0,0,0,43.59,73a5,5,0,0,0,5,5.23H70.62l.5,0h.15l.36,0,.15,0,.41-.06.08,0,.47-.11.11,0,.36-.11.13-.05.37-.13.09,0,.44-.2h0l.39-.21.09-.06.35-.21.07,0c.27-.19.54-.38.79-.59l0,0,.32-.29,0,0a8,8,0,0,0,.68-.74h0ZM44.84,73.56a3.73,3.73,0,0,1,3.71-4.09h7.71a.4.4,0,0,0,.15,0,.45.45,0,0,0,.16,0H65a.62.62,0,0,0,.62-.62.62.62,0,0,0-.62-.62H57V57.65a6.23,6.23,0,0,1,6.22-6.22h8.2a6.23,6.23,0,0,1,6.22,6.22V69.89a7,7,0,0,1-3.4,6,7,7,0,0,1-3.65,1h-22A3.8,3.8,0,0,1,44.84,73.56Z"/></svg>