<svg id="Layer_1" data-name="Layer 1" xmlns="http://www.w3.org/2000/svg" viewBox="0 0 100 100"><defs><style>.cls-1{fill:none;stroke:#f9320b;stroke-linecap:round;stroke-linejoin:round;stroke-width:2px;}.cls-2{fill:#f9320b;}</style></defs><rect class="cls-1" x="20.23" y="10.27" width="59.55" height="79.46" transform="translate(-0.29 0.29) rotate(-0.33)"/><path class="cls-2" d="M37.64,24.47l-7.86,0a.42.42,0,0,0-.41.41c0,2.63,0,5.25.05,7.87a.41.41,0,0,0,.41.4l7.86,0A.42.42,0,0,0,38,33v0h0a.42.42,0,0,0,.11-.28c0-2.62,0-5.24-.05-7.86A.41.41,0,0,0,37.64,24.47Zm-.36,7.86-7,0,0-7,7.05,0Z"/><path class="cls-2" d="M37.72,39l-7.86,0a.41.41,0,0,0-.4.41c0,2.62,0,5.24,0,7.86a.42.42,0,0,0,.41.41l7.86,0a.38.38,0,0,0,.28-.11h0a.38.38,0,0,0,.11-.28c0-2.62,0-5.24,0-7.86A.43.43,0,0,0,37.72,39Zm-.36,7.86-7,0,0-7,7,0C37.33,42.17,37.35,44.52,37.36,46.86Z"/><path class="cls-2" d="M37.81,53.54l-7.86,0a.42.42,0,0,0-.41.41c0,2.62,0,5.24,0,7.86a.43.43,0,0,0,.42.41l7.86,0a.34.34,0,0,0,.27-.11h0a.36.36,0,0,0,.11-.28c0-2.62,0-5.24,0-7.86A.4.4,0,0,0,37.81,53.54Zm-.37,7.86-7,0,0-7,7,0Z"/><polygon class="cls-2" points="32.44 27.47 34.25 26.86 35.26 28.66 43.86 22.39 44.86 22.58 34.87 30.87 32.44 27.47"/><polygon class="cls-2" points="31.88 42.38 33.68 41.77 34.69 43.57 43.29 37.29 44.29 37.49 34.3 45.78 31.88 42.38"/><polygon class="cls-2" points="31.79 56.13 33.59 55.52 34.61 57.32 43.2 51.05 44.21 51.25 34.22 59.53 31.79 56.13"/><rect class="cls-2" x="42.89" y="56.62" width="27.73" height="3.93" transform="matrix(1, -0.01, 0.01, 1, -0.34, 0.33)"/><rect class="cls-2" x="42.8" y="41.23" width="27.73" height="3.93" transform="translate(-0.25 0.33) rotate(-0.33)"/><rect class="cls-2" x="42.71" y="25.83" width="27.73" height="3.93" transform="translate(-0.16 0.32) rotate(-0.33)"/><path class="cls-2" d="M37.64,68.89l-7.86,0a.42.42,0,0,0-.41.41c0,2.62,0,5.24.05,7.86a.41.41,0,0,0,.41.41l7.86,0a.42.42,0,0,0,.28-.11v0h0a.37.37,0,0,0,.11-.27c0-2.63,0-5.25-.05-7.87A.41.41,0,0,0,37.64,68.89Zm-.36,7.86-7,0,0-7,7.05,0Z"/><polygon class="cls-2" points="32.44 71.89 34.25 71.28 35.26 73.08 43.86 66.81 44.86 67 34.87 75.29 32.44 71.89"/><rect class="cls-2" x="42.71" y="70.25" width="27.73" height="3.93" transform="translate(-0.41 0.33) rotate(-0.33)"/></svg>