<svg id="Layer_1" data-name="Layer 1" xmlns="http://www.w3.org/2000/svg" viewBox="0 0 100 100"><defs><style>.cls-1{fill:#f9320b;}</style></defs><path class="cls-1" d="M66,39.12H59.4a23.76,23.76,0,0,0-3-7.28l4.7-4.7a1.64,1.64,0,0,0,0-2.32l-5.23-5.23a1.64,1.64,0,0,0-2.32,0l-4.7,4.7a23.76,23.76,0,0,0-7.28-3V14.63A1.64,1.64,0,0,0,39.91,13H32.53a1.65,1.65,0,0,0-1.65,1.64v6.64a23.7,23.7,0,0,0-7.27,3l-4.7-4.7a1.65,1.65,0,0,0-2.33,0l-5.22,5.23a1.64,1.64,0,0,0,0,2.32l4.7,4.7a23.51,23.51,0,0,0-3,7.28H6.4a1.63,1.63,0,0,0-1.64,1.64v7.39A1.64,1.64,0,0,0,6.4,49.79H13a23.51,23.51,0,0,0,3,7.28l-4.7,4.7a1.64,1.64,0,0,0,0,2.32l5.22,5.22a1.65,1.65,0,0,0,2.33,0l4.7-4.7a23.46,23.46,0,0,0,7.27,3v6.64a1.64,1.64,0,0,0,1.65,1.64h7.38a1.63,1.63,0,0,0,1.64-1.64V67.63a23.51,23.51,0,0,0,7.28-3l4.7,4.7a1.64,1.64,0,0,0,2.32,0l5.23-5.22a1.64,1.64,0,0,0,0-2.32l-4.7-4.7a23.76,23.76,0,0,0,3-7.28H66a1.65,1.65,0,0,0,1.64-1.64V40.76A1.64,1.64,0,0,0,66,39.12ZM36.22,54.64A10.19,10.19,0,1,1,46.41,44.45,10.19,10.19,0,0,1,36.22,54.64Z"/><path class="cls-1" d="M36.22,30.27A14.19,14.19,0,1,0,50.41,44.45,14.18,14.18,0,0,0,36.22,30.27Zm0,22.85a8.67,8.67,0,1,1,8.66-8.67A8.66,8.66,0,0,1,36.22,53.12Z"/><path class="cls-1" d="M94.4,68.21H91a12.09,12.09,0,0,0-1.54-3.72l2.4-2.4a.83.83,0,0,0,0-1.18L89.2,58.24a.83.83,0,0,0-1.18,0l-2.41,2.4a12.16,12.16,0,0,0-3.71-1.55V55.7a.85.85,0,0,0-.84-.84H77.28a.84.84,0,0,0-.83.84v3.39a12.11,12.11,0,0,0-3.72,1.55l-2.4-2.4a.84.84,0,0,0-1.19,0l-2.67,2.67a.83.83,0,0,0,0,1.18l2.4,2.4a12.09,12.09,0,0,0-1.54,3.72H63.94a.84.84,0,0,0-.84.84v3.77a.83.83,0,0,0,.84.84h3.39a12.09,12.09,0,0,0,1.54,3.72l-2.4,2.4a.84.84,0,0,0,0,1.19l2.67,2.66a.84.84,0,0,0,1.19,0l2.4-2.4a12.11,12.11,0,0,0,3.72,1.55v3.39a.84.84,0,0,0,.83.84h3.78a.85.85,0,0,0,.84-.84V82.78a12.16,12.16,0,0,0,3.71-1.55L88,83.63a.83.83,0,0,0,1.18,0L91.87,81a.84.84,0,0,0,0-1.19l-2.4-2.4A12.09,12.09,0,0,0,91,73.66H94.4a.83.83,0,0,0,.84-.84V69.05A.84.84,0,0,0,94.4,68.21ZM79.17,76.14a5.21,5.21,0,1,1,5.21-5.2A5.2,5.2,0,0,1,79.17,76.14Z"/><path class="cls-1" d="M79.17,63.69a7.25,7.25,0,1,0,7.25,7.25A7.25,7.25,0,0,0,79.17,63.69Zm0,11.67a4.43,4.43,0,1,1,4.43-4.42A4.43,4.43,0,0,1,79.17,75.36Z"/></svg>