<svg id="Layer_1" data-name="Layer 1" xmlns="http://www.w3.org/2000/svg" viewBox="0 0 100 100"><defs><style>.cls-1{fill:#1a2e35;}.cls-2{fill:#f9320b;}.cls-3{fill:none;}.cls-4{fill:#fff;}.cls-5{fill:#3b0f37;}</style></defs><path class="cls-1" d="M58.64,51.67c0,.06-2.38.1-5.32.1s-5.33,0-5.33-.1,2.38-.09,5.33-.09S58.64,51.62,58.64,51.67Z"/><path class="cls-1" d="M52.67,59.06A19.33,19.33,0,0,1,54.33,57a18.13,18.13,0,0,1,1.8-2,18.84,18.84,0,0,1-1.66,2.11A20,20,0,0,1,52.67,59.06Z"/><path class="cls-1" d="M51.17,59.23a38.49,38.49,0,0,1,2.41-3c1.37-1.63,2.51-2.92,2.55-2.89a38.49,38.49,0,0,1-2.41,3C52.35,58,51.21,59.26,51.17,59.23Z"/><path class="cls-1" d="M32.45,51.67c0,.06-2.38.1-5.32.1s-5.33,0-5.33-.1,2.39-.09,5.33-.09S32.45,51.62,32.45,51.67Z"/><rect class="cls-2" x="63.44" y="43.54" width="13.3" height="21.34"/><path class="cls-1" d="M76.74,64.88V63.29c0-1,0-2.52,0-4.4,0-3.77,0-9.1,0-15.35l.08.09H63.44s.18-.18.1-.09h0v3c0,1,0,2,0,2.93v5.59c0,3.6,0,6.91,0,9.81l-.08-.07,9.68,0,2.68,0h0l-2.66,0-9.73,0h-.07v-.08c0-2.9,0-6.21,0-9.81V43.55h0l.09-.1H76.83v.08c0,6.28,0,11.62,0,15.4l0,4.39c0,.5,0,.89,0,1.16v.3C76.75,64.85,76.75,64.89,76.74,64.88Z"/><rect class="cls-2" x="2.43" y="52.73" width="13.3" height="12.15"/><path class="cls-1" d="M15.73,64.88a2.07,2.07,0,0,1,0-.23V64c0-.59,0-1.42,0-2.48,0-2.13,0-5.15,0-8.79l.08.08H2.43l.09-.09h0V64.88l-.08-.08,9.6,0,2.72,0h1s0,0-.06,0h-.88l-2.7,0L2.43,65H2.34V52.75h0l.1-.09H15.81v.08c0,3.66,0,6.7,0,8.84,0,1,0,1.88,0,2.46v.64A1.66,1.66,0,0,1,15.73,64.88Z"/><path class="cls-2" d="M15.84,46.33V64.88h47.6V35.13ZM32.17,62.87h-10v-14h10Zm26.16,0h-10v-14h10Z"/><path class="cls-3" d="M15.84,46.33V64.88h47.6V35.13ZM32.17,62.87h-10v-14h10Zm26.16,0h-10v-14h10Z"/><path class="cls-4" d="M58.33,62.87v-1c0-.68,0-1.65,0-2.88,0-2.47,0-6,0-10.08l.08.08h-10s.17-.18.09-.09h0v7.49c0,2.36,0,4.55,0,6.51l-.07-.08,7.25,0,2,0h0l-2,0-7.3,0h-.08v-.07c0-2,0-4.15,0-6.51,0-1.18,0-2.4,0-3.65V48.87h0l.1-.1H58.42v.09c0,4.14,0,7.65,0,10.13,0,1.23,0,2.19,0,2.87v1A.15.15,0,0,1,58.33,62.87Z"/><path class="cls-4" d="M32.17,62.87v-1c0-.68,0-1.65,0-2.88,0-2.47,0-6,0-10.08l.08.08h-10s.17-.18.09-.09h0v3.84c0,1.25,0,2.47,0,3.65,0,2.36,0,4.55,0,6.51l-.07-.08,7.25,0,2,0h0l-2,0-7.3,0h-.08v-.07c0-2,0-4.15,0-6.51V48.87h0l.1-.1H32.26v.09c0,4.14,0,7.65,0,10.13,0,1.23,0,2.19,0,2.87v1A.15.15,0,0,1,32.17,62.87Z"/><path class="cls-1" d="M15.84,46.33l.22-.06.67-.16,2.62-.63,9.85-2.34,34.22-8.09.11,0v.11c0,7.28,0,15.23,0,23.5V65h-.1l-47.6,0h-.06v-.07c0-5.81,0-10.45,0-13.65,0-1.59,0-2.81,0-3.65v-.94c0-.21,0-.31,0-.31v.32c0,.22,0,.54,0,1,0,.84,0,2.07,0,3.66,0,3.19,0,7.82,0,13.62l-.06-.06,47.6,0-.09.09V35.13l.11.09-34.19,8-9.88,2.3-2.63.6-.69.16Z"/><rect class="cls-4" x="36.44" y="50.53" width="7.57" height="14.35"/><path class="cls-4" d="M44,50.53v1c0,.7,0,1.7,0,3,0,2.56,0,6.15,0,10.35V65H36.44s-.18-.18-.09-.1h0V57.06c0-2.42,0-4.63,0-6.53v-.07h.07l5.55,0h1.47l-1.51,0-5.51,0,.07-.07c0,1.9,0,4.11,0,6.53v7.81h0l-.09-.09H44l-.09.08c0-4.17,0-7.75,0-10.29,0-1.27,0-2.27,0-3v-1S44,50.53,44,50.53Z"/><path class="cls-1" d="M26.48,59.06A19.33,19.33,0,0,1,28.14,57a19.4,19.4,0,0,1,1.8-2,18.84,18.84,0,0,1-1.66,2.11A17.42,17.42,0,0,1,26.48,59.06Z"/><path class="cls-1" d="M25,59.23a38.49,38.49,0,0,1,2.41-3c1.37-1.63,2.51-2.92,2.55-2.89a38.49,38.49,0,0,1-2.41,3C26.16,58,25,59.26,25,59.23Z"/><path class="cls-1" d="M84.45,54.21s.09,2.39.09,5.32,0,5.32-.09,5.32-.09-2.38-.09-5.32S84.4,54.21,84.45,54.21Z"/><circle class="cls-5" cx="84.45" cy="50.99" r="6.03" transform="translate(-13.02 35.79) rotate(-22.26)"/><path class="cls-5" d="M90.48,51a9.45,9.45,0,0,0-.22-1.47,5.73,5.73,0,0,0-.68-1.59,5.91,5.91,0,0,0-1.52-1.69,6,6,0,0,0-2.51-1.1,5.9,5.9,0,0,0-3.12.26,5.81,5.81,0,0,0-1.51.81,7.32,7.32,0,0,0-.67.58,5.57,5.57,0,0,0-.58.69,5.89,5.89,0,0,0,0,7,6.3,6.3,0,0,0,.58.68,7.32,7.32,0,0,0,.67.58,5.53,5.53,0,0,0,1.51.81,5.9,5.9,0,0,0,3.12.26,6,6,0,0,0,2.51-1.1A5.91,5.91,0,0,0,89.58,54a5.73,5.73,0,0,0,.68-1.59A9.62,9.62,0,0,0,90.48,51a.31.31,0,0,1,0,.09v.29a3,3,0,0,1,0,.47,4.67,4.67,0,0,1-.11.63,5.47,5.47,0,0,1-.66,1.62,6,6,0,0,1-1.53,1.74A6.22,6.22,0,0,1,85.58,57a6.15,6.15,0,0,1-3.21-.26,5.67,5.67,0,0,1-1.55-.83,6.43,6.43,0,0,1-.7-.59,5.92,5.92,0,0,1-.6-.71,6.09,6.09,0,0,1,0-7.23,6.82,6.82,0,0,1,.6-.71,6.43,6.43,0,0,1,.7-.59,5.67,5.67,0,0,1,1.55-.83A6.14,6.14,0,0,1,85.58,45a6.08,6.08,0,0,1,2.56,1.15,6,6,0,0,1,1.53,1.74,5.75,5.75,0,0,1,.66,1.62,4.67,4.67,0,0,1,.11.63,3,3,0,0,1,0,.47v.29A.45.45,0,0,1,90.48,51Z"/><path class="cls-1" d="M93.91,58.2A30.66,30.66,0,0,1,94,61.52a30.78,30.78,0,0,1-.09,3.33,26.65,26.65,0,0,1-.1-3.33A26.55,26.55,0,0,1,93.91,58.2Z"/><circle class="cls-5" cx="93.91" cy="56.18" r="3.77"/><path class="cls-5" d="M97.68,56.18a8.93,8.93,0,0,0-.15-.92,3.79,3.79,0,0,0-1.38-2,3.74,3.74,0,0,0-3.5-.52,3.53,3.53,0,0,0-.93.51,3.4,3.4,0,0,0-.78.78,3.69,3.69,0,0,0,0,4.35,3.4,3.4,0,0,0,.78.78,3.53,3.53,0,0,0,.93.51,3.72,3.72,0,0,0,1.94.17,3.79,3.79,0,0,0,2.94-2.72c.15-.58.12-.92.15-.91a2.85,2.85,0,0,1-.08.93,3.78,3.78,0,0,1-1.37,2.12,3.81,3.81,0,0,1-3.64.57,4,4,0,0,1-1-.52,3.55,3.55,0,0,1-.82-.82,3.86,3.86,0,0,1,0-4.57,4,4,0,0,1,.82-.82,4,4,0,0,1,1-.52,4,4,0,0,1,2-.16,3.85,3.85,0,0,1,1.61.73,3.8,3.8,0,0,1,1.37,2.13A2.85,2.85,0,0,1,97.68,56.18Z"/></svg>