<svg id="Layer_1" data-name="Layer 1" xmlns="http://www.w3.org/2000/svg" viewBox="0 0 100 100"><defs><style>.cls-1{fill:#f9320b;}.cls-2{fill:#fff;}.cls-3{fill:#3b0f37;}</style></defs><path class="cls-1" d="M95,89.1,85.76,72.82A43.61,43.61,0,1,0,75.31,84.45h0Z"/><path class="cls-1" d="M95,89.1,75.28,84.52l-.09,0,.06-.07v0l.09.08a44.79,44.79,0,0,1-8.95,5.38,43.45,43.45,0,0,1-11.93,3.39,44.25,44.25,0,0,1-6.88.37,42.79,42.79,0,0,1-7.28-.77A43.69,43.69,0,0,1,5.84,58.62a44.36,44.36,0,0,1,.48-19.33A42.84,42.84,0,0,1,9.9,29.9c.37-.77.82-1.49,1.23-2.23s.91-1.45,1.38-2.16a45.61,45.61,0,0,1,3.14-4.08,45.1,45.1,0,0,1,3.67-3.77,46.84,46.84,0,0,1,4.07-3.26,45.26,45.26,0,0,1,4.38-2.75c.76-.39,1.51-.79,2.28-1.15s1.55-.72,2.34-1a43.41,43.41,0,0,1,9.69-2.64,44.74,44.74,0,0,1,9.79-.37,43.32,43.32,0,0,1,17.87,5.3A44,44,0,0,1,83,23a43.09,43.09,0,0,1,9,21.31c.18,1.18.24,2.36.32,3.51s.07,2.29,0,3.41a43.2,43.2,0,0,1-2.11,12.22,44.29,44.29,0,0,1-4.35,9.36v-.06c5.94,10.55,9,15.95,9.19,16.31L85.71,72.85l0,0,0,0A43.7,43.7,0,0,0,90,63.44,43,43,0,0,0,92.1,51.27c0-1.12,0-2.25,0-3.4s-.15-2.32-.33-3.5a43,43,0,0,0-1.55-7.17A43.63,43.63,0,0,0,69.63,12,43,43,0,0,0,51.85,6.71a44.3,44.3,0,0,0-9.74.36,43.75,43.75,0,0,0-9.63,2.64c-.79.29-1.55.66-2.32,1s-1.52.76-2.28,1.15a43.93,43.93,0,0,0-4.35,2.73,41.5,41.5,0,0,0-7.69,7,43.32,43.32,0,0,0-3.13,4.05c-.46.72-.94,1.42-1.37,2.15s-.86,1.46-1.23,2.22a42.89,42.89,0,0,0-3.56,9.34,44.17,44.17,0,0,0-.48,19.22,43.49,43.49,0,0,0,34.28,34.1,42.37,42.37,0,0,0,7.24.78,42.82,42.82,0,0,0,6.86-.36,43.6,43.6,0,0,0,11.89-3.35,44.56,44.56,0,0,0,8.93-5.34l.36-.27-.27.35,0,0,0-.09Z"/><path class="cls-2" d="M73.1,66.92l-5.85,5.7a1.55,1.55,0,0,1-2.15,0L24.8,34.07a1.55,1.55,0,0,1-.05-2.19l6.1-6.38a1.55,1.55,0,0,1,2.2,0L73.1,64.7A1.56,1.56,0,0,1,73.1,66.92Z"/><path class="cls-3" d="M35.58,28.06A12.92,12.92,0,0,1,34,29.92a12.19,12.19,0,0,1-1.79,1.69,13.05,13.05,0,0,1,1.62-1.86A12,12,0,0,1,35.58,28.06Z"/><path class="cls-3" d="M42,34.23a12.45,12.45,0,0,1-1.62,1.86,12,12,0,0,1-1.8,1.69,13.89,13.89,0,0,1,1.62-1.86A12.53,12.53,0,0,1,42,34.23Z"/><path class="cls-3" d="M38.63,30.88a21.66,21.66,0,0,1-2.21,2.46A24.22,24.22,0,0,1,34,35.62a21.12,21.12,0,0,1,2.21-2.45A25.15,25.15,0,0,1,38.63,30.88Z"/><path class="cls-3" d="M45.22,37.47A25.64,25.64,0,0,1,43,39.92a20.75,20.75,0,0,1-2.38,2.28,22.12,22.12,0,0,1,2.21-2.45A21.28,21.28,0,0,1,45.22,37.47Z"/><path class="cls-3" d="M48.24,40.49a11.78,11.78,0,0,1-1.62,1.86,12.63,12.63,0,0,1-1.79,1.7,11.78,11.78,0,0,1,1.62-1.86A12.63,12.63,0,0,1,48.24,40.49Z"/><path class="cls-3" d="M51.48,43.73a22.12,22.12,0,0,1-2.21,2.45,21.28,21.28,0,0,1-2.39,2.28A23.22,23.22,0,0,1,49.09,46,21.28,21.28,0,0,1,51.48,43.73Z"/><path class="cls-3" d="M54.51,46.76a13.89,13.89,0,0,1-1.62,1.86,12.53,12.53,0,0,1-1.8,1.69,12.45,12.45,0,0,1,1.62-1.86A12,12,0,0,1,54.51,46.76Z"/><path class="cls-3" d="M57.74,50a21.12,21.12,0,0,1-2.21,2.45,23.25,23.25,0,0,1-2.39,2.29,23.74,23.74,0,0,1,2.22-2.46A23.11,23.11,0,0,1,57.74,50Z"/><path class="cls-3" d="M60.77,53a12.45,12.45,0,0,1-1.62,1.86,12.53,12.53,0,0,1-1.8,1.69A12.45,12.45,0,0,1,59,54.71,12.53,12.53,0,0,1,60.77,53Z"/><path class="cls-3" d="M64,56.25a21.66,21.66,0,0,1-2.21,2.46A24.22,24.22,0,0,1,59.41,61a21.12,21.12,0,0,1,2.21-2.45A25.15,25.15,0,0,1,64,56.25Z"/><path class="cls-3" d="M67,59.28a12.45,12.45,0,0,1-1.62,1.86,12,12,0,0,1-1.8,1.69A13.89,13.89,0,0,1,65.23,61,12.53,12.53,0,0,1,67,59.28Z"/><path class="cls-3" d="M53.07,42.32c.14.25,5.63,5.27,5.63,5.27l3.57-3.49s6.1,1.87,10-2.44a11.36,11.36,0,0,0,2.65-7.8,4.76,4.76,0,0,0-1.11-3h0l-5.6,7-5.56-5.56,5.86-6.07s-.61-1.46-1.29-1.44a13.53,13.53,0,0,0-8.94,4.69c-3.52,4-1.7,9.25-1.7,9.25Z"/><path class="cls-2" d="M51.83,41.18l5.64,5.29,3.81-3.73s6.1,1.87,10-2.44c3.57-3.92,2.5-9.62,2.5-9.62l-6.56,5.79-5.56-5.56,5.86-6.08a10.09,10.09,0,0,0-10.23,3.26c-3.52,4-1.7,9.25-1.7,9.25Z"/><path class="cls-3" d="M45.88,57.63c-.14-.24-5.63-5.27-5.63-5.27l-3.57,3.5s-6.71-1.34-10,2.43C24.11,61.19,23,65,23.1,66.89c0,.86,1,1,1,1l6.57-5.79,5.56,5.56-6.92,5.06h0a4.75,4.75,0,0,0,3.1,1.33,10.08,10.08,0,0,0,8.18-3.56c3.53-4,1.71-9.25,1.71-9.25Z"/><path class="cls-2" d="M44.83,56.61c-.14-.24-5.64-5.27-5.64-5.27l-3.57,3.5s-6.71-1.34-10,2.43a11.74,11.74,0,0,0-2.5,9.62l6.56-5.79,5.56,5.56-5.86,6.08a10.1,10.1,0,0,0,10.23-3.25c3.53-4,1.7-9.25,1.7-9.25Z"/></svg>