<svg id="Layer_1" data-name="Layer 1" xmlns="http://www.w3.org/2000/svg" viewBox="0 0 100 100"><defs><style>.cls-1{fill:#f9320b;}</style></defs><path class="cls-1" d="M52.48,47.88h9.69a2,2,0,1,1,0,4H36.66a2,2,0,0,1,0-4H48.48V5H5V18.46H7.4a2,2,0,1,1,0,4H5V35.77H7.4a2,2,0,1,1,0,4H5v8.12H17.05L28,37a2,2,0,0,1,2.82,2.84L19.29,51.29s-.1.05-.14.09a1.94,1.94,0,0,1-.51.33,1.9,1.9,0,0,1-.77.16H5V95H17.36V92.51a2,2,0,1,1,4,0V95H34.67V92.51a2,2,0,1,1,4,0V95h9.82V70.63a2,2,0,0,1,4,0V95H95V72.62H69.56L59.15,85.23a2,2,0,1,1-3.08-2.55l11-13.32s.05,0,.07-.06a2,2,0,0,1,.35-.28,1.38,1.38,0,0,1,.28-.19,3.58,3.58,0,0,1,.35-.11,2.57,2.57,0,0,1,.4-.08H95V5H52.48ZM81.61,15.35a9.57,9.57,0,0,1,.56-4A2.55,2.55,0,0,1,83.71,10,4.7,4.7,0,0,1,85,9.82a2.81,2.81,0,0,1,1.39.34,2.65,2.65,0,0,1,1,1,6.21,6.21,0,0,1,.71,3.16,7.43,7.43,0,0,1-.76,3.42,27.28,27.28,0,0,1-1.5,2.6,12.8,12.8,0,0,0-1.75,3.82h3.71v1.92h-6V25.1a7.75,7.75,0,0,1,.41-2.47,16.24,16.24,0,0,1,1.3-2.77s.25-.42.67-1.14.72-1.23.92-1.5A6.14,6.14,0,0,0,85.79,14c0-1.38-.29-2.07-.88-2.07s-.78.39-.9,1.15a10.23,10.23,0,0,0-.07,1.23v2H81.61Zm-22.76.59H63v2.55a3.89,3.89,0,0,1,1.3-2.07,3.79,3.79,0,0,1,2.46-.76A3.38,3.38,0,0,1,70.22,18a4.2,4.2,0,0,1,4-2.36,3.62,3.62,0,0,1,3.21,1.46,7.74,7.74,0,0,1,1,4.31v18H74.27v-18c0-1.55-.53-2.33-1.58-2.33a1.75,1.75,0,0,0-1.47.66,2.94,2.94,0,0,0-.52,1.89V39.39H66.56v-18c0-1.53-.51-2.3-1.53-2.3a1.71,1.71,0,0,0-1.53.78,3.62,3.62,0,0,0-.51,2V39.39H58.85Z"/></svg>