<svg id="Layer_1" data-name="Layer 1" xmlns="http://www.w3.org/2000/svg" viewBox="0 0 100 100"><defs><style>.cls-1{fill:#f9320b;}</style></defs><circle class="cls-1" cx="51.39" cy="49.74" r="11.82" transform="translate(-20.07 52.5) rotate(-46.28)"/><polygon class="cls-1" points="66.83 66.35 67.02 66.17 68.45 67.67 68.24 67.87 66.83 66.35"/><polygon class="cls-1" points="66.16 66.95 66.36 66.77 67.73 68.33 67.51 68.52 66.16 66.95"/><path class="cls-1" d="M64.76,68.06,65,67.9l1.24,1.66-.23.17Z"/><polygon class="cls-1" points="63.28 69.06 63.5 68.92 64.61 70.66 64.36 70.82 63.28 69.06"/><polygon class="cls-1" points="62.51 69.51 62.74 69.38 63.78 71.17 63.52 71.31 62.51 69.51"/><polygon class="cls-1" points="64.03 68.58 64.25 68.42 65.43 70.13 65.19 70.29 64.03 68.58"/><polygon class="cls-1" points="65.47 67.52 65.68 67.35 66.99 68.96 66.76 69.14 65.47 67.52"/><path class="cls-1" d="M61.78,69.91l.24-.12,1,1.82-.27.14Z"/><polygon class="cls-1" points="60.98 70.31 61.22 70.19 62.11 72.05 61.85 72.18 60.98 70.31"/><polygon class="cls-1" points="59.32 70.99 59.58 70.89 60.32 72.83 60.05 72.93 59.32 70.99"/><path class="cls-1" d="M57.63,71.55l.25-.07.6,2-.29.08Z"/><polygon class="cls-1" points="56.76 71.78 57.02 71.71 57.53 73.72 57.25 73.79 56.76 71.78"/><polygon class="cls-1" points="58.48 71.28 58.74 71.2 59.4 73.16 59.13 73.25 58.48 71.28"/><polygon class="cls-1" points="60.16 70.66 60.4 70.56 61.22 72.45 60.95 72.57 60.16 70.66"/><polygon class="cls-1" points="55.95 71.96 56.21 71.9 56.65 73.92 56.36 73.99 55.95 71.96"/><polygon class="cls-1" points="55.07 72.12 55.33 72.07 55.69 74.11 55.4 74.16 55.07 72.12"/><polygon class="cls-1" points="53.3 72.34 53.56 72.32 53.76 74.38 53.47 74.4 53.3 72.34"/><polygon class="cls-1" points="51.51 72.42 51.78 72.41 51.81 74.48 51.52 74.49 51.51 72.42"/><polygon class="cls-1" points="50.61 72.41 50.88 72.41 50.84 74.48 50.54 74.47 50.61 72.41"/><path class="cls-1" d="M52.4,72.4l.27,0,.12,2.07-.3,0Z"/><polygon class="cls-1" points="54.18 72.25 54.45 72.21 54.73 74.26 54.44 74.3 54.18 72.25"/><polygon class="cls-1" points="49.78 72.36 50.05 72.38 49.93 74.45 49.64 74.42 49.78 72.36"/><polygon class="cls-1" points="48.89 72.28 49.16 72.31 48.96 74.37 48.67 74.34 48.89 72.28"/><polygon class="cls-1" points="47.12 72.02 47.39 72.06 47.02 74.1 46.74 74.05 47.12 72.02"/><polygon class="cls-1" points="45.38 71.61 45.64 71.68 45.12 73.68 44.84 73.61 45.38 71.61"/><polygon class="cls-1" points="44.52 71.36 44.78 71.44 44.18 73.42 43.9 73.33 44.52 71.36"/><polygon class="cls-1" points="46.25 71.83 46.51 71.89 46.07 73.91 45.78 73.85 46.25 71.83"/><path class="cls-1" d="M48,72.17l.26,0L48,74.26l-.29,0Z"/><path class="cls-1" d="M43.74,71.1l.25.09-.68,2L43,73.05Z"/><polygon class="cls-1" points="42.9 70.78 43.15 70.88 42.4 72.8 42.13 72.7 42.9 70.78"/><polygon class="cls-1" points="41.27 70.04 41.51 70.16 40.61 72.02 40.35 71.89 41.27 70.04"/><path class="cls-1" d="M39.7,69.18l.23.14-1,1.79L38.64,71Z"/><polygon class="cls-1" points="38.95 68.71 39.17 68.85 38.06 70.6 37.81 70.44 38.95 68.71"/><polygon class="cls-1" points="40.48 69.63 40.71 69.76 39.74 71.58 39.48 71.44 40.48 69.63"/><polygon class="cls-1" points="42.08 70.43 42.32 70.53 41.5 72.43 41.23 72.31 42.08 70.43"/><polygon class="cls-1" points="38.26 68.24 38.48 68.39 37.3 70.09 37.06 69.92 38.26 68.24"/><polygon class="cls-1" points="37.54 67.7 37.76 67.87 36.51 69.52 36.28 69.34 37.54 67.7"/><path class="cls-1" d="M36.17,66.56l.2.18L35,68.29l-.22-.2Z"/><polygon class="cls-1" points="34.9 65.3 35.08 65.5 33.59 66.94 33.39 66.72 34.9 65.3"/><polygon class="cls-1" points="34.29 64.64 34.47 64.84 32.92 66.22 32.73 66 34.29 64.64"/><polygon class="cls-1" points="35.52 65.94 35.71 66.13 34.28 67.62 34.07 67.42 35.52 65.94"/><polygon class="cls-1" points="36.85 67.14 37.05 67.32 35.74 68.92 35.52 68.73 36.85 67.14"/><path class="cls-1" d="M33.75,64l.17.2-1.59,1.33-.19-.23Z"/><polygon class="cls-1" points="33.2 63.3 33.37 63.51 31.73 64.77 31.55 64.54 33.2 63.3"/><polygon class="cls-1" points="32.19 61.83 32.34 62.05 30.6 63.18 30.44 62.93 32.19 61.83"/><polygon class="cls-1" points="31.29 60.28 31.43 60.52 29.6 61.5 29.46 61.24 31.29 60.28"/><polygon class="cls-1" points="30.9 59.48 31.02 59.72 29.16 60.63 29.03 60.37 30.9 59.48"/><path class="cls-1" d="M31.73,61.06c0,.08.08.16.13.24l-1.78,1.05-.14-.25Z"/><polygon class="cls-1" points="32.69 62.57 32.84 62.79 31.15 63.99 30.98 63.75 32.69 62.57"/><polygon class="cls-1" points="30.56 58.72 30.66 58.97 28.77 59.81 28.66 59.54 30.56 58.72"/><polygon class="cls-1" points="30.22 57.9 30.31 58.15 28.39 58.91 28.29 58.64 30.22 57.9"/><polygon class="cls-1" points="29.64 56.2 29.72 56.46 27.74 57.07 27.65 56.79 29.64 56.2"/><polygon class="cls-1" points="29.2 54.47 29.26 54.73 27.24 55.19 27.18 54.9 29.2 54.47"/><polygon class="cls-1" points="29.04 53.59 29.08 53.86 27.04 54.23 27 53.94 29.04 53.59"/><polygon class="cls-1" points="29.41 55.34 29.48 55.6 27.48 56.13 27.4 55.85 29.41 55.34"/><path class="cls-1" d="M29.91,57.06a2.5,2.5,0,0,0,.09.25L28.05,58c0-.09-.07-.19-.1-.28Z"/><path class="cls-1" d="M28.91,52.77l0,.27-2.05.29,0-.29Z"/><polygon class="cls-1" points="28.8 51.88 28.83 52.15 26.77 52.37 26.74 52.08 28.8 51.88"/><polygon class="cls-1" points="28.71 50.09 28.72 50.36 26.65 50.42 26.64 50.13 28.71 50.09"/><polygon class="cls-1" points="28.75 48.31 28.73 48.57 26.66 48.47 26.68 48.18 28.75 48.31"/><path class="cls-1" d="M28.82,47.41a2.45,2.45,0,0,0,0,.27l-2.07-.18,0-.3Z"/><polygon class="cls-1" points="28.71 49.2 28.71 49.47 26.64 49.44 26.64 49.15 28.71 49.2"/><polygon class="cls-1" points="28.74 50.99 28.76 51.26 26.69 51.39 26.67 51.1 28.74 50.99"/><polygon class="cls-1" points="28.92 46.59 28.89 46.85 26.84 46.59 26.87 46.3 28.92 46.59"/><polygon class="cls-1" points="29.07 45.71 29.02 45.97 26.98 45.63 27.03 45.34 29.07 45.71"/><polygon class="cls-1" points="29.45 43.96 29.38 44.22 27.37 43.72 27.45 43.44 29.45 43.96"/><polygon class="cls-1" points="29.97 42.25 29.89 42.5 27.92 41.84 28.01 41.57 29.97 42.25"/><polygon class="cls-1" points="30.28 41.41 30.19 41.66 28.25 40.93 28.36 40.65 30.28 41.41"/><path class="cls-1" d="M29.69,43.1c0,.08-.05.17-.08.26l-2-.58a2.29,2.29,0,0,1,.08-.28Z"/><polygon class="cls-1" points="29.24 44.83 29.18 45.09 27.16 44.67 27.22 44.38 29.24 44.83"/><polygon class="cls-1" points="30.6 40.65 30.5 40.89 28.59 40.08 28.71 39.82 30.6 40.65"/><polygon class="cls-1" points="30.98 39.83 30.86 40.07 28.98 39.19 29.11 38.93 30.98 39.83"/><polygon class="cls-1" points="31.82 38.25 31.68 38.49 29.89 37.46 30.03 37.2 31.82 38.25"/><polygon class="cls-1" points="32.79 36.75 32.63 36.97 30.92 35.81 31.09 35.57 32.79 36.75"/><polygon class="cls-1" points="33.31 36.03 33.15 36.24 31.49 35.01 31.66 34.78 33.31 36.03"/><polygon class="cls-1" points="32.29 37.49 32.15 37.72 30.39 36.62 30.55 36.38 32.29 37.49"/><path class="cls-1" d="M31.38,39l-.13.24-1.83-1a2.15,2.15,0,0,1,.14-.26Z"/><path class="cls-1" d="M33.82,35.37l-.16.21L32,34.29l.18-.23Z"/><polygon class="cls-1" points="34.41 34.7 34.23 34.9 32.67 33.54 32.86 33.32 34.41 34.7"/><polygon class="cls-1" points="35.65 33.41 35.45 33.59 34 32.12 34.21 31.92 35.65 33.41"/><polygon class="cls-1" points="36.98 32.21 36.78 32.39 35.44 30.8 35.66 30.61 36.98 32.21"/><polygon class="cls-1" points="37.68 31.66 37.47 31.82 36.2 30.19 36.43 30.01 37.68 31.66"/><path class="cls-1" d="M36.3,32.8l-.2.17-1.39-1.52.21-.2Z"/><polygon class="cls-1" points="35.02 34.04 34.83 34.23 33.32 32.82 33.52 32.61 35.02 34.04"/><polygon class="cls-1" points="38.35 31.17 38.13 31.32 36.92 29.64 37.16 29.48 38.35 31.17"/><path class="cls-1" d="M39.09,30.67l-.22.14-1.15-1.72.25-.16Z"/><polygon class="cls-1" points="40.63 29.76 40.4 29.89 39.4 28.08 39.65 27.93 40.63 29.76"/><polygon class="cls-1" points="42.24 28.98 41.99 29.08 41.14 27.2 41.41 27.08 42.24 28.98"/><path class="cls-1" d="M43.06,28.63l-.25.1L42,26.81l.28-.11Z"/><polygon class="cls-1" points="41.43 29.35 41.19 29.47 40.26 27.62 40.52 27.49 41.43 29.35"/><polygon class="cls-1" points="39.85 30.19 39.63 30.34 38.55 28.57 38.8 28.41 39.85 30.19"/><polygon class="cls-1" points="43.84 28.34 43.59 28.43 42.88 26.48 43.16 26.38 43.84 28.34"/><polygon class="cls-1" points="44.69 28.06 44.44 28.14 43.8 26.17 44.08 26.08 44.69 28.06"/><polygon class="cls-1" points="46.42 27.6 46.16 27.66 45.68 25.64 45.97 25.58 46.42 27.6"/><path class="cls-1" d="M48.18,27.28l-.27,0-.31-2.05.29,0Z"/><polygon class="cls-1" points="49.07 27.17 48.8 27.2 48.57 25.14 48.86 25.11 49.07 27.17"/><polygon class="cls-1" points="47.3 27.42 47.03 27.47 46.64 25.44 46.93 25.39 47.3 27.42"/><polygon class="cls-1" points="45.55 27.81 45.29 27.88 44.74 25.89 45.02 25.81 45.55 27.81"/><polygon class="cls-1" points="49.9 27.1 49.63 27.12 49.47 25.06 49.76 25.04 49.9 27.1"/><polygon class="cls-1" points="50.79 27.06 50.52 27.07 50.44 25 50.74 24.99 50.79 27.06"/><path class="cls-1" d="M52.58,27.08h-.27L52.39,25h.3Z"/><polygon class="cls-1" points="54.36 27.25 54.09 27.22 54.34 25.16 54.63 25.2 54.36 27.25"/><polygon class="cls-1" points="55.24 27.38 54.98 27.34 55.3 25.29 55.59 25.34 55.24 27.38"/><polygon class="cls-1" points="53.47 27.14 53.2 27.13 53.37 25.06 53.66 25.08 53.47 27.14"/><polygon class="cls-1" points="51.69 27.05 51.42 27.05 51.42 24.98 51.71 24.98 51.69 27.05"/><polygon class="cls-1" points="56.06 27.54 55.8 27.48 56.2 25.45 56.48 25.51 56.06 27.54"/><path class="cls-1" d="M56.93,27.74l-.26-.07.48-2,.29.07Z"/><polygon class="cls-1" points="58.65 28.24 58.39 28.16 59.03 26.19 59.31 26.28 58.65 28.24"/><polygon class="cls-1" points="60.32 28.88 60.07 28.77 60.86 26.86 61.13 26.98 60.32 28.88"/><path class="cls-1" d="M61.13,29.25l-.24-.12.87-1.88.26.13Z"/><polygon class="cls-1" points="59.49 28.54 59.24 28.45 59.95 26.51 60.23 26.61 59.49 28.54"/><polygon class="cls-1" points="57.8 27.97 57.54 27.9 58.1 25.91 58.38 25.98 57.8 27.97"/><polygon class="cls-1" points="61.88 29.61 61.64 29.5 62.57 27.65 62.84 27.78 61.88 29.61"/><polygon class="cls-1" points="62.66 30.05 62.43 29.92 63.44 28.11 63.69 28.25 62.66 30.05"/><polygon class="cls-1" points="64.17 31 63.95 30.84 65.1 29.12 65.34 29.29 64.17 31"/><polygon class="cls-1" points="65.61 32.06 65.4 31.9 66.68 30.27 66.91 30.45 65.61 32.06"/><polygon class="cls-1" points="66.29 32.64 66.09 32.46 67.43 30.89 67.66 31.08 66.29 32.64"/><path class="cls-1" d="M64.9,31.51l-.21-.16,1.21-1.67.24.17Z"/><polygon class="cls-1" points="63.43 30.51 63.2 30.36 64.28 28.6 64.53 28.75 63.43 30.51"/><polygon class="cls-1" points="66.91 33.2 66.72 33.01 68.12 31.49 68.33 31.69 66.91 33.2"/><path class="cls-1" d="M67.55,33.82c-.06-.06-.12-.13-.19-.19l1.46-1.47.21.21Z"/><polygon class="cls-1" points="68.76 35.15 68.58 34.94 70.15 33.59 70.34 33.81 68.76 35.15"/><polygon class="cls-1" points="69.85 36.56 69.7 36.34 71.37 35.11 71.54 35.35 69.85 36.56"/><path class="cls-1" d="M70.36,37.29c0-.07-.1-.15-.15-.22l1.72-1.16.16.24Z"/><polygon class="cls-1" points="69.32 35.84 69.15 35.63 70.77 34.34 70.95 34.57 69.32 35.84"/><polygon class="cls-1" points="68.17 34.47 67.98 34.27 69.5 32.86 69.7 33.08 68.17 34.47"/><polygon class="cls-1" points="70.8 38 70.66 37.77 72.42 36.68 72.58 36.92 70.8 38"/><polygon class="cls-1" points="71.25 38.77 71.12 38.54 72.92 37.51 73.06 37.77 71.25 38.77"/><path class="cls-1" d="M72.05,40.37a1.36,1.36,0,0,0-.11-.25l1.88-.87a2.06,2.06,0,0,1,.12.26Z"/><polygon class="cls-1" points="72.73 42.02 72.63 41.77 74.57 41.05 74.67 41.32 72.73 42.02"/><polygon class="cls-1" points="73.01 42.87 72.93 42.62 74.89 41.97 74.98 42.25 73.01 42.87"/><polygon class="cls-1" points="72.41 41.19 72.3 40.94 74.21 40.14 74.33 40.41 72.41 41.19"/><polygon class="cls-1" points="71.67 39.56 71.55 39.32 73.39 38.37 73.52 38.63 71.67 39.56"/><polygon class="cls-1" points="73.25 43.67 73.18 43.41 75.17 42.83 75.24 43.12 73.25 43.67"/><path class="cls-1" d="M73.47,44.53c0-.08,0-.17-.06-.26l2-.49c0,.09,0,.19.07.28Z"/><polygon class="cls-1" points="73.81 46.29 73.77 46.03 75.81 45.69 75.86 45.98 73.81 46.29"/><polygon class="cls-1" points="74.01 48.07 73.99 47.8 76.05 47.63 76.07 47.92 74.01 48.07"/><polygon class="cls-1" points="74.06 48.96 74.05 48.69 76.12 48.6 76.13 48.89 74.06 48.96"/><polygon class="cls-1" points="73.93 47.18 73.89 46.91 75.95 46.66 75.98 46.95 73.93 47.18"/><polygon class="cls-1" points="73.66 45.41 73.61 45.15 75.63 44.73 75.69 45.02 73.66 45.41"/><path class="cls-1" d="M74.07,49.79a2.43,2.43,0,0,0,0-.27h2.07c0,.09,0,.19,0,.29Z"/><polygon class="cls-1" points="74.05 50.69 74.06 50.42 76.13 50.48 76.12 50.77 74.05 50.69"/><polygon class="cls-1" points="73.91 52.47 73.94 52.2 76 52.43 75.96 52.72 73.91 52.47"/><path class="cls-1" d="M73.62,54.24l.06-.27,2,.39a2.8,2.8,0,0,1-.06.28Z"/><polygon class="cls-1" points="73.43 55.11 73.49 54.85 75.51 55.31 75.44 55.6 73.43 55.11"/><polygon class="cls-1" points="73.78 53.35 73.83 53.09 75.87 53.4 75.83 53.68 73.78 53.35"/><polygon class="cls-1" points="74 51.58 74.02 51.31 76.08 51.45 76.06 51.75 74 51.58"/><polygon class="cls-1" points="73.22 55.91 73.29 55.65 75.29 56.19 75.21 56.47 73.22 55.91"/><polygon class="cls-1" points="72.96 56.77 73.04 56.51 75.02 57.13 74.93 57.41 72.96 56.77"/><path class="cls-1" d="M72.34,58.45l.1-.25,1.92.77c0,.09-.07.18-.11.27Z"/><polygon class="cls-1" points="71.59 60.07 71.71 59.83 73.56 60.75 73.43 61.01 71.59 60.07"/><polygon class="cls-1" points="71.16 60.85 71.3 60.62 73.11 61.61 72.97 61.87 71.16 60.85"/><polygon class="cls-1" points="71.98 59.27 72.09 59.02 73.98 59.87 73.86 60.13 71.98 59.27"/><polygon class="cls-1" points="72.66 57.61 72.76 57.36 74.71 58.06 74.61 58.33 72.66 57.61"/><polygon class="cls-1" points="70.74 61.57 70.89 61.34 72.66 62.4 72.51 62.65 70.74 61.57"/><path class="cls-1" d="M70.26,62.33a1.5,1.5,0,0,0,.15-.23l1.74,1.13c-.05.09-.11.17-.16.25Z"/><polygon class="cls-1" points="69.21 63.77 69.37 63.56 71.01 64.82 70.83 65.05 69.21 63.77"/><polygon class="cls-1" points="68.05 65.13 68.23 64.94 69.77 66.32 69.57 66.53 68.05 65.13"/><polygon class="cls-1" points="67.43 65.78 67.62 65.58 69.1 67.03 68.89 67.24 67.43 65.78"/><polygon class="cls-1" points="68.64 64.46 68.82 64.26 70.41 65.58 70.21 65.81 68.64 64.46"/><polygon class="cls-1" points="69.75 63.06 69.91 62.84 71.59 64.04 71.43 64.28 69.75 63.06"/><polygon class="cls-1" points="47.39 53.73 12.82 49.74 47.39 45.74 51.39 11.17 55.38 45.74 89.95 49.74 55.38 53.73 51.39 88.3 47.39 53.73"/><path class="cls-1" d="M51.39,13.63,55.13,46,87.5,49.74,55.13,53.48,51.39,85.84,47.65,53.48l-23-2.67-9.32-1.07L47.65,46l3.74-32.37Zm0-4.92-.56,4.85L47.14,45.49,15.22,49.17l-4.86.57,4.86.56,9.31,1.07L47.14,54l3.69,31.93.56,4.85L52,85.91,55.64,54,87.56,50.3l4.85-.56-4.85-.57L55.64,45.49,52,13.56l-.56-4.85Z"/><path class="cls-1" d="M51.36,75.9a26.21,26.21,0,1,1,7.69-1.16A26.42,26.42,0,0,1,51.36,75.9Zm.07-51.74a25.55,25.55,0,1,0,12,3A25.6,25.6,0,0,0,51.43,24.16Z"/><path class="cls-1" d="M51.35,78.94A29.2,29.2,0,1,1,77.17,63.42l-.37-.19.37.19A29,29,0,0,1,59.94,77.65,29.48,29.48,0,0,1,51.35,78.94Zm.09-57.54a28.32,28.32,0,1,0,13.24,3.3A28.38,28.38,0,0,0,51.44,21.4Z"/><path class="cls-1" d="M48.41,11l1-5.93h.74l2.1,4.07L53,5.06h1l-1,5.93H52.2L50.1,6.91,49.38,11Z"/><path class="cls-1" d="M51.05,94.94a2.45,2.45,0,0,1-1.44-.39,1.76,1.76,0,0,1-.72-1.06l.88-.46a1.2,1.2,0,0,0,1.35,1,1.57,1.57,0,0,0,.83-.2.82.82,0,0,0,.38-.54.52.52,0,0,0-.2-.59,3.44,3.44,0,0,0-.93-.42l-.37-.14a2.31,2.31,0,0,1-.36-.17,1.51,1.51,0,0,1-.31-.2,3,3,0,0,1-.26-.25.86.86,0,0,1-.17-.31,1.82,1.82,0,0,1-.09-.37,1.17,1.17,0,0,1,0-.45,1.68,1.68,0,0,1,.74-1.17,2.47,2.47,0,0,1,1.37-.4,2.09,2.09,0,0,1,1.22.35,1.94,1.94,0,0,1,.71,1l-.86.45a1.14,1.14,0,0,0-1.15-.81,1.27,1.27,0,0,0-.69.19.72.72,0,0,0-.36.51.56.56,0,0,0,.2.59,3.48,3.48,0,0,0,.9.42c.27.1.47.19.63.26a3.72,3.72,0,0,1,.53.32,1.08,1.08,0,0,1,.4.55,1.69,1.69,0,0,1,0,.78,1.73,1.73,0,0,1-.77,1.18A2.6,2.6,0,0,1,51.05,94.94Z"/><path class="cls-1" d="M94.84,48.07H92.26L92,49.62h2.37l-.16.91H91.82l-.28,1.61h2.63l-.17.93H90.4l1-5.93H95Z"/><path class="cls-1" d="M5.64,53.07,5,47.14H6l.44,4.65,2.16-4.65h.9L10,51.79l2.06-4.65h1L10.4,53.07H9.28l-.5-4.33-2,4.33Z"/><polygon class="cls-1" points="53.99 48.87 59.81 32.96 50.52 47.13 34.61 41.31 48.77 50.6 42.96 66.51 45.63 62.43 52.25 52.34 68.16 58.16 53.99 48.87"/><polygon class="cls-1" points="54 50.59 68.13 41.25 52.24 47.12 42.9 32.99 48.77 48.88 34.64 58.22 39.21 56.53 50.53 52.35 59.87 66.48 54 50.59"/><polygon class="cls-1" points="54.42 49.74 66.04 35.09 51.39 46.7 36.74 35.09 48.35 49.74 36.74 64.38 40.96 61.04 51.39 52.77 66.04 64.38 54.42 49.74"/><path class="cls-1" d="M51.38,60.82a11.15,11.15,0,0,1-5.19-1.3,11.08,11.08,0,0,1,2-20.38,11.35,11.35,0,0,1,3.26-.49,11.09,11.09,0,0,1,9.77,16.28,11.06,11.06,0,0,1-6.54,5.4A11.28,11.28,0,0,1,51.38,60.82Zm0-18.49a7.4,7.4,0,1,0,6.53,10.88,7.48,7.48,0,0,0,.86-3.46,7.42,7.42,0,0,0-7.39-7.42Z"/><path class="cls-1" d="M51.4,39.08A10.66,10.66,0,0,1,58.17,58a10.44,10.44,0,0,1-3.66,2,10.58,10.58,0,0,1-3.13.48A10.67,10.67,0,0,1,41.2,52.86,10.67,10.67,0,0,1,51.4,39.08Zm0,18.48a7.93,7.93,0,0,0,2.31-.34A7.8,7.8,0,0,0,58.3,53.4a7.71,7.71,0,0,0,.91-3.65,7.82,7.82,0,0,0-14.73-3.68,7.82,7.82,0,0,0,6.89,11.49Zm0-19.33a11.52,11.52,0,1,0,5.38,1.35,11.45,11.45,0,0,0-5.38-1.35Zm0,18.49a7,7,0,0,1-3.25-.82,7,7,0,0,1,1.22-12.84,7.3,7.3,0,0,1,2.06-.31A7,7,0,0,1,57.55,53a6.94,6.94,0,0,1-4.12,3.4,7.19,7.19,0,0,1-2.06.31Z"/></svg>