<svg id="Layer_1" data-name="Layer 1" xmlns="http://www.w3.org/2000/svg" viewBox="0 0 50 49.97"><defs><style>.cls-1{fill:#fff;}.cls-2{fill:#f9320b;fill-rule:evenodd;}</style></defs><path class="cls-1" d="M23.61,33.14a1.28,1.28,0,0,1-1.25-.33l-5.18-5.18A1.29,1.29,0,1,1,19,25.8l4.26,4.26,9.44-9.44a1.3,1.3,0,0,1,1.84,1.83L24.19,32.81A1.41,1.41,0,0,1,23.61,33.14Z"/><path class="cls-2" d="M22.24,14.36a.37.37,0,0,0-.58,0l-2.17,2.37,7.87,7.87a.35.35,0,0,1,0,.58l-7.87,8.07,2.17,2.17a.36.36,0,0,0,.58,0L32.48,25.18V24.6L22.24,14.36ZM25,0A24.18,24.18,0,0,0,7.49,7.28,24.82,24.82,0,0,0,0,25,24.71,24.71,0,0,0,7.49,42.51a24.29,24.29,0,0,0,35,0A24,24,0,0,0,50,25,24.1,24.1,0,0,0,42.52,7.28,24.22,24.22,0,0,0,25,0ZM39,11a19.71,19.71,0,0,1,0,27.75,20,20,0,0,1-14,5.7A19.58,19.58,0,0,1,25,5.31,20,20,0,0,1,39,11Z"/></svg>