<svg id="Layer_1" data-name="Layer 1" xmlns="http://www.w3.org/2000/svg" xmlns:xlink="http://www.w3.org/1999/xlink" viewBox="0 0 250 159"><defs><style>.cls-1,.cls-6{fill:none;}.cls-2,.cls-5{fill:#fff;}.cls-2,.cls-3,.cls-4,.cls-5,.cls-6{stroke:#1a2e35;stroke-linecap:round;stroke-linejoin:round;}.cls-3{fill:#f9320b;}.cls-4{fill:#1a2e35;}.cls-5{stroke-width:0.5px;}.cls-7{clip-path:url(#clip-path);}</style><clipPath id="clip-path"><rect class="cls-1" x="318.24" y="-94.37" width="250" height="250"/></clipPath></defs><rect class="cls-2" x="33.05" y="73.25" width="197.2" height="62.23"/><polygon class="cls-3" points="131.92 16.47 33.58 73.25 230.26 73.25 131.92 16.47"/><rect class="cls-2" x="122.81" y="68.19" width="48.8" height="67.29"/><rect class="cls-4" x="122.81" y="68.19" width="48.8" height="2.86"/><path class="cls-4" d="M159.4,135.48H135V93.42a12.18,12.18,0,0,1,12.18-12.19h0A12.19,12.19,0,0,1,159.4,93.42Z"/><rect class="cls-2" x="18.89" y="84.15" width="113.04" height="51.33"/><rect class="cls-4" x="18.89" y="84.15" width="113.04" height="2.29"/><rect class="cls-2" x="31.33" y="88.38" width="88.16" height="47.1"/><polygon class="cls-3" points="75.41 46.6 15.42 81.23 135.4 81.23 75.41 46.6"/><rect class="cls-3" x="15.42" y="81.23" width="119.98" height="2.92"/><polygon class="cls-3" points="147.21 48.66 116.14 66.6 178.28 66.6 147.21 48.66"/><rect class="cls-3" x="116.14" y="66.6" width="62.14" height="2.88"/><rect class="cls-5" x="34.54" y="92.17" width="7.14" height="7.14"/><rect class="cls-5" x="45.25" y="92.17" width="7.14" height="7.14"/><rect class="cls-5" x="55.96" y="92.17" width="7.14" height="7.14"/><rect class="cls-5" x="66.67" y="92.17" width="7.14" height="7.14"/><rect class="cls-5" x="77.38" y="92.17" width="7.14" height="7.14"/><rect class="cls-5" x="88.09" y="92.17" width="7.14" height="7.14"/><rect class="cls-5" x="98.8" y="92.17" width="7.14" height="7.14"/><rect class="cls-5" x="109.51" y="92.17" width="7.14" height="7.14"/><rect class="cls-5" x="34.54" y="102.67" width="7.14" height="7.14"/><rect class="cls-5" x="45.25" y="102.67" width="7.14" height="7.14"/><rect class="cls-5" x="55.96" y="102.67" width="7.14" height="7.14"/><rect class="cls-5" x="66.67" y="102.67" width="7.14" height="7.14"/><rect class="cls-5" x="77.38" y="102.67" width="7.14" height="7.14"/><rect class="cls-5" x="88.09" y="102.67" width="7.14" height="7.14"/><rect class="cls-5" x="98.8" y="102.67" width="7.14" height="7.14"/><rect class="cls-5" x="109.51" y="102.67" width="7.14" height="7.14"/><rect class="cls-5" x="34.54" y="113.18" width="7.14" height="7.14"/><rect class="cls-5" x="45.25" y="113.18" width="7.14" height="7.14"/><rect class="cls-5" x="55.96" y="113.18" width="7.14" height="7.14"/><rect class="cls-5" x="66.67" y="113.18" width="7.14" height="7.14"/><rect class="cls-5" x="77.38" y="113.18" width="7.14" height="7.14"/><rect class="cls-5" x="88.09" y="113.18" width="7.14" height="7.14"/><rect class="cls-5" x="98.8" y="113.18" width="7.14" height="7.14"/><rect class="cls-5" x="109.51" y="113.18" width="7.14" height="7.14"/><rect class="cls-5" x="34.54" y="123.68" width="7.14" height="7.14"/><rect class="cls-5" x="45.25" y="123.68" width="7.14" height="7.14"/><rect class="cls-5" x="55.96" y="123.68" width="7.14" height="7.14"/><rect class="cls-5" x="66.67" y="123.68" width="7.14" height="7.14"/><rect class="cls-5" x="77.38" y="123.68" width="7.14" height="7.14"/><rect class="cls-5" x="88.09" y="123.68" width="7.14" height="7.14"/><rect class="cls-5" x="98.8" y="123.68" width="7.14" height="7.14"/><rect class="cls-5" x="109.51" y="123.68" width="7.14" height="7.14"/><polygon class="cls-2" points="235.85 135.48 163.75 135.48 163.75 68.19 199.8 48.66 235.85 68.19 235.85 135.48"/><polygon class="cls-3" points="241.36 71.05 199.8 48.54 158.24 71.05 156.94 68.67 199.8 45.45 242.65 68.67 241.36 71.05"/><polygon class="cls-4" points="163.75 68.19 163.75 69.83 199.8 50.3 235.85 69.83 235.85 68.19 199.8 48.66 163.75 68.19"/><rect class="cls-4" x="200.96" y="91.25" width="12.1" height="8.41"/><rect class="cls-4" x="200.96" y="102.43" width="12.1" height="8.41"/><rect class="cls-4" x="200.96" y="79.51" width="12.1" height="8.98"/><rect class="cls-4" x="186.1" y="79.51" width="12.1" height="8.98"/><rect class="cls-4" x="186.1" y="102.43" width="12.1" height="8.41"/><rect class="cls-4" x="186.1" y="91.25" width="12.1" height="8.41"/><rect class="cls-4" x="200.96" y="113.6" width="12.1" height="7.74"/><rect class="cls-4" x="186.1" y="113.6" width="12.1" height="7.74"/><line class="cls-6" x1="126.48" y1="16.6" x2="6.61" y2="16.6"/><line class="cls-6" x1="15.86" y1="135.37" x2="5.9" y2="135.37"/><line class="cls-6" x1="10.31" y1="14.38" x2="10.31" y2="138.7"/><line class="cls-6" x1="235.99" y1="137.59" x2="235.99" y2="143.51"/><line class="cls-6" x1="18.82" y1="137.59" x2="18.82" y2="143.51"/><line class="cls-6" x1="15.86" y1="140.92" x2="239.69" y2="140.92"/><line class="cls-6" x1="65.06" y1="46.57" x2="4.76" y2="46.57"/><line class="cls-6" x1="6.61" y1="43.24" x2="6.61" y2="137.59"/><line class="cls-6" x1="159.04" y1="63.22" x2="159.04" y2="19.56"/><line class="cls-6" x1="241.91" y1="63.22" x2="241.91" y2="19.56"/><line class="cls-6" x1="156.82" y1="25.11" x2="245.24" y2="25.11"/><line class="cls-6" x1="134.62" y1="137.59" x2="134.62" y2="144.62"/><line class="cls-6" x1="159.41" y1="137.59" x2="159.41" y2="144.62"/><g class="cls-7"><image width="5382" height="3648" transform="translate(164.11 -118.3) scale(0.08)" xlink:href="../../modern-house-with-sky.jpg"/></g></svg>