<svg id="Layer_1" data-name="Layer 1" xmlns="http://www.w3.org/2000/svg" viewBox="0 0 250 150"><defs><style>.cls-1{fill:#f9320b;}</style></defs><path class="cls-1" d="M186.86,101.64H64.18a.55.55,0,0,1-.55-.55V81a.55.55,0,0,1,.55-.55H186.86a.55.55,0,0,1,.55.55v20.12A.55.55,0,0,1,186.86,101.64ZM64.73,100.55H186.31v-19H64.73Z"/><path class="cls-1" d="M186.86,127.07H64.18a.55.55,0,0,1-.55-.55v-7a.55.55,0,0,1,.55-.55H186.86a.55.55,0,0,1,.55.55v7A.55.55,0,0,1,186.86,127.07ZM64.73,126H186.31v-5.91H64.73Z"/><path class="cls-1" d="M73.72,132.93H68.25a.55.55,0,0,1-.54-.47l-.89-5.86a.54.54,0,0,1,.13-.44.53.53,0,0,1,.41-.19h7.31a.52.52,0,0,1,.42.2.54.54,0,0,1,.13.44l-1,5.86A.57.57,0,0,1,73.72,132.93Zm-5-1.1h4.53l.77-4.76H68Z"/><path class="cls-1" d="M182.67,132.93H177.2a.55.55,0,0,1-.54-.47l-.89-5.86a.54.54,0,0,1,.13-.44.53.53,0,0,1,.41-.19h7.31a.55.55,0,0,1,.42.2.54.54,0,0,1,.12.44l-.95,5.86A.55.55,0,0,1,182.67,132.93Zm-5-1.1h4.53l.78-4.76h-6Z"/><path class="cls-1" d="M188,120.06H62.79a1.22,1.22,0,0,1-1.22-1.22V105.4a1.22,1.22,0,0,1,1.22-1.22H188a1.22,1.22,0,0,1,1.22,1.22v13.44A1.22,1.22,0,0,1,188,120.06ZM62.79,105.28a.12.12,0,0,0-.12.12v13.44a.12.12,0,0,0,.12.12H188a.12.12,0,0,0,.12-.12V105.4a.12.12,0,0,0-.12-.12Z"/><path class="cls-1" d="M116.79,101.64H74.51a.55.55,0,0,1-.55-.55V93.66A4.06,4.06,0,0,1,78,89.6h35.27a4.06,4.06,0,0,1,4,4.06v7.43A.55.55,0,0,1,116.79,101.64Zm-41.73-1.09h41.18V93.66a3,3,0,0,0-2.95-3H78a3,3,0,0,0-3,3Z"/><path class="cls-1" d="M176.31,101.64H134a.54.54,0,0,1-.54-.55V93.66a4.05,4.05,0,0,1,4-4.06h35.27a4.06,4.06,0,0,1,4.05,4.06v7.43A.55.55,0,0,1,176.31,101.64Zm-41.73-1.09h41.18V93.66a3,3,0,0,0-2.95-3H137.54a3,3,0,0,0-3,3Z"/><path class="cls-1" d="M188.83,125.85c-.7,0-1.43-.06-2-.11a.55.55,0,0,1-.5-.55v-5.68a.55.55,0,0,1,.55-.55H188a.12.12,0,0,0,.12-.12V105.4a.12.12,0,0,0-.12-.12H62.79a.12.12,0,0,0-.12.12v13.44a.12.12,0,0,0,.12.12h1.39a.55.55,0,0,1,.55.55v4a.53.53,0,0,1-.19.41.54.54,0,0,1-.44.13c-.6-.09-1.07-.14-1.51-.18h-.05a4.24,4.24,0,0,0-.78-.07,1.46,1.46,0,0,0-.7.11.18.18,0,0,1-.07,0,.67.67,0,0,0-.36.44,1.38,1.38,0,0,1-1.24,1,5.33,5.33,0,0,1-2.08-.1,12,12,0,0,1-2.48-.88.54.54,0,0,1-.3-.61l4.14-19.18c.06-.43.76-4.09,5.51-4.09H187.11a4.65,4.65,0,0,1,4.71,3.38c.23.83,1,3.72,2,8,.9,3.56,1.89,7.53,2.55,10.22l0,.13a.55.55,0,0,1-.07.42.53.53,0,0,1-.35.25c-.47.11-1,.2-1.44.29l-1.14.23a4.16,4.16,0,0,0-1.56.52,1.31,1.31,0,0,0,.19.21.54.54,0,0,1,0,.81A4.68,4.68,0,0,1,188.83,125.85Zm-1.42-1.16c.45,0,1,.06,1.42.06a5,5,0,0,0,2.06-.34,1,1,0,0,1-.11-.76c.19-.7,1.07-1,2.41-1.31l1.17-.23.87-.17c-.67-2.67-1.6-6.43-2.45-9.81-1.06-4.21-1.79-7.1-2-7.92a3.54,3.54,0,0,0-3.65-2.58H64.18c-4,0-4.41,3-4.43,3.15a.43.43,0,0,1,0,0l-4,18.77a11.16,11.16,0,0,0,1.85.62,4.29,4.29,0,0,0,1.64.09c.34-.07.35-.09.41-.27a1.69,1.69,0,0,1,.81-1,2.26,2.26,0,0,1,1.35-.32,7.24,7.24,0,0,1,.94.07c.29,0,.59.06.93.1v-2.84h-.84a1.22,1.22,0,0,1-1.22-1.22V105.4a1.22,1.22,0,0,1,1.22-1.22H188a1.22,1.22,0,0,1,1.22,1.22v13.44a1.22,1.22,0,0,1-1.22,1.22h-.56Z"/><path class="cls-1" d="M243,130.2h-2.75a.55.55,0,0,1-.55-.55V103.79H196.61v25.86a.55.55,0,0,1-.55.55h-2.75a.55.55,0,0,1-.55-.55v-6.77a.55.55,0,0,1,.43-.54l1.17-.23.87-.17c-.67-2.67-1.6-6.43-2.45-9.81a.51.51,0,0,1,0-.13V100.3a.55.55,0,0,1,.55-.55H243a.54.54,0,0,1,.55.55v29.35A.55.55,0,0,1,243,130.2Zm-2.2-1.1h1.66V100.84H193.86v11.09c.55,2.19,1.13,4.53,1.65,6.63V103.24a.55.55,0,0,1,.55-.55h44.23a.55.55,0,0,1,.55.55Zm-47,0h1.65V123l-.94.18-.71.14Z"/><path class="cls-1" d="M240.29,124.16H196.06a.55.55,0,0,1-.55-.55V113.19a.55.55,0,0,1,.55-.55h44.23a.55.55,0,0,1,.55.55v10.42A.55.55,0,0,1,240.29,124.16Zm-43.68-1.09h43.13v-9.33H196.61Z"/><path class="cls-1" d="M223.54,107.9H212.81a.55.55,0,0,1-.55-.55v-1.6a.55.55,0,0,1,.55-.54h10.73a.54.54,0,0,1,.55.54v1.6A.55.55,0,0,1,223.54,107.9Zm-10.18-1.1H223v-.5h-9.64Z"/><path class="cls-1" d="M223.54,118.45H212.81a.55.55,0,0,1-.55-.55v-1.59a.55.55,0,0,1,.55-.55h10.73a.55.55,0,0,1,.55.55v1.59A.54.54,0,0,1,223.54,118.45Zm-10.18-1.1H223v-.49h-9.64Z"/><path class="cls-1" d="M232.75,97.4H226.5a1.35,1.35,0,0,1-1.35-1.35v-6.4a.54.54,0,0,1,.55-.55h7.85a.55.55,0,0,1,.55.55v.24a2.52,2.52,0,0,1,0,4.91v1.25A1.36,1.36,0,0,1,232.75,97.4Zm-6.5-7.21v5.86a.25.25,0,0,0,.25.25h6.25a.26.26,0,0,0,.25-.25V94.31a.55.55,0,0,1,.55-.55,1.42,1.42,0,1,0,0-2.83.55.55,0,0,1-.55-.55v-.19Z"/><path class="cls-1" d="M237.61,99h-15.4a.55.55,0,0,1,0-1.1h15.4a.55.55,0,0,1,0,1.1Z"/><path class="cls-1" d="M230.61,87.76a.54.54,0,0,1-.48-.27c-2-3.5-.74-5.65.37-7.54s1.83-3.11.3-5.41a.56.56,0,0,1,.16-.76.55.55,0,0,1,.76.15c1.9,2.87.75,4.84-.27,6.57s-2.06,3.5-.37,6.44a.55.55,0,0,1-.2.75A.54.54,0,0,1,230.61,87.76Z"/><path class="cls-1" d="M228.64,87.23a.56.56,0,0,1-.51-.34,7.09,7.09,0,0,1,0-5.68c.46-1.43.83-2.55-.12-4.28a.55.55,0,1,1,1-.53,5.67,5.67,0,0,1,.2,5.15,6,6,0,0,0,0,4.91.55.55,0,0,1-.29.72A.54.54,0,0,1,228.64,87.23Z"/><path class="cls-1" d="M213.75,100.85H203.42a.55.55,0,0,1-.55-.55V99a.55.55,0,0,1,.32-.5c4.66-2.09,3.21-14.42,3.2-14.55a.57.57,0,0,1,.13-.43.59.59,0,0,1,.41-.18h3.3a.56.56,0,0,1,.41.18.53.53,0,0,1,.13.43c0,.13-1.46,12.46,3.2,14.55a.55.55,0,0,1,.33.5v1.27A.55.55,0,0,1,213.75,100.85ZM204,99.75h9.23v-.38c-4.43-2.45-3.82-12.3-3.58-14.9h-2.08c.25,2.6.86,12.45-3.57,14.9Z"/><path class="cls-1" d="M219.07,84.47h-21a.55.55,0,0,1-.55-.55V70.68a.54.54,0,0,1,.55-.55h21a.55.55,0,0,1,.55.55V83.92A.55.55,0,0,1,219.07,84.47Zm-20.42-1.1h19.87V71.22H198.65Z"/><path class="cls-1" d="M204,90.68a.55.55,0,0,1-.55-.55V83.92a.55.55,0,0,1,1.1,0v6.21A.55.55,0,0,1,204,90.68Z"/><path class="cls-1" d="M57.43,130.2H54.68a.55.55,0,0,1-.55-.55V103.79H11v25.86a.55.55,0,0,1-.55.55H7.7a.55.55,0,0,1-.55-.55V100.3a.55.55,0,0,1,.55-.55H57.43a.55.55,0,0,1,.55.55V113a.49.49,0,0,1,0,.12L55.7,123.61a11.16,11.16,0,0,0,1.85.62.54.54,0,0,1,.43.53v4.89A.55.55,0,0,1,57.43,130.2Zm-2.2-1.1h1.65v-3.91a12.27,12.27,0,0,1-1.65-.59Zm-47,0H9.91V103.24a.55.55,0,0,1,.54-.55H54.68a.55.55,0,0,1,.55.55v17.32l1.65-7.66V100.84H8.25Z"/><path class="cls-1" d="M54.68,124.16H10.45a.55.55,0,0,1-.55-.55V113.19a.55.55,0,0,1,.55-.55H54.68a.55.55,0,0,1,.55.55v10.42A.55.55,0,0,1,54.68,124.16ZM11,123.07H54.13v-9.33H11Z"/><path class="cls-1" d="M37.93,107.9H27.2a.55.55,0,0,1-.55-.55v-1.6a.55.55,0,0,1,.55-.54H37.93a.54.54,0,0,1,.55.54v1.6A.55.55,0,0,1,37.93,107.9Zm-10.18-1.1h9.64v-.5H27.75Z"/><path class="cls-1" d="M37.93,118.45H27.2a.55.55,0,0,1-.55-.55v-1.59a.55.55,0,0,1,.55-.55H37.93a.55.55,0,0,1,.55.55v1.59A.54.54,0,0,1,37.93,118.45Zm-10.18-1.1h9.64v-.49H27.75Z"/><path class="cls-1" d="M46.69,100.85H36.36a.55.55,0,0,1-.55-.55V99a.55.55,0,0,1,.32-.5c4.66-2.09,3.22-14.42,3.2-14.55a.57.57,0,0,1,.13-.43.59.59,0,0,1,.41-.18h3.3a.56.56,0,0,1,.41.18.54.54,0,0,1,.14.43c0,.13-1.47,12.46,3.19,14.55a.55.55,0,0,1,.33.5v1.27A.55.55,0,0,1,46.69,100.85Zm-9.78-1.1h9.23v-.38c-4.43-2.45-3.82-12.3-3.58-14.9H40.48c.25,2.6.86,12.45-3.57,14.9Z"/><path class="cls-1" d="M52,84.47H31a.55.55,0,0,1-.55-.55V70.68a.55.55,0,0,1,.55-.55H52a.55.55,0,0,1,.55.55V83.92A.55.55,0,0,1,52,84.47Zm-20.42-1.1H51.46V71.22H31.59Z"/><path class="cls-1" d="M46.08,90.68a.55.55,0,0,1-.55-.55V83.92a.55.55,0,1,1,1.09,0v6.21A.55.55,0,0,1,46.08,90.68Z"/><path class="cls-1" d="M25.31,100.85H16a.55.55,0,0,1-.55-.58l.93-19.69a.54.54,0,0,1,.55-.53h7.44a.55.55,0,0,1,.55.53l.88,19.6a.5.5,0,0,1,0,.12A.55.55,0,0,1,25.31,100.85Zm-8.69-1.1h8.11l-.84-18.6h-6.4Z"/><path class="cls-1" d="M20.67,70.68a.46.46,0,0,1-.28-.08c-.15-.08-3.54-2.19-3.61-7.55v-.42a3.89,3.89,0,0,1,7.77,0,2.17,2.17,0,0,1,0,.26v.2c-.07,5.34-3.46,7.45-3.61,7.53A.46.46,0,0,1,20.67,70.68Zm0-10.61a2.8,2.8,0,0,0-2.79,2.62c0,.05,0,.11,0,.18a.76.76,0,0,0,0,.15,8.13,8.13,0,0,0,2.79,6.44A8.07,8.07,0,0,0,23.47,63v-.17a1.09,1.09,0,0,0,0-.18,2.81,2.81,0,0,0-1.73-2.41A2.71,2.71,0,0,0,20.67,60.07Z"/><path class="cls-1" d="M20.67,65.08a.55.55,0,0,1-.55-.54V61.82a.55.55,0,0,1,1.1,0v2.72A.55.55,0,0,1,20.67,65.08Z"/><path class="cls-1" d="M29.26,65.08a9.09,9.09,0,0,1-5.59-2,.57.57,0,0,1-.21-.4,2.81,2.81,0,0,0-1.73-2.4.54.54,0,0,1-.33-.43,3.89,3.89,0,0,1,3.85-4.45A3.91,3.91,0,0,1,28,56.54l.13.14c3.72,3.83,2.82,7.72,2.78,7.88a.54.54,0,0,1-.4.4A5.83,5.83,0,0,1,29.26,65.08Zm-4.73-2.73A8,8,0,0,0,29.26,64a5.35,5.35,0,0,0,.65,0,8,8,0,0,0-2.56-6.51l-.12-.12a2.8,2.8,0,0,0-4,0,2.74,2.74,0,0,0-.81,2.09A3.93,3.93,0,0,1,24.53,62.35Z"/><path class="cls-1" d="M26.43,61a.54.54,0,0,1-.39-.16l-1.92-1.92a.54.54,0,0,1,0-.78.55.55,0,0,1,.77,0l1.93,1.93a.55.55,0,0,1-.39.93Z"/><path class="cls-1" d="M12,65.18a6,6,0,0,1-1.27-.12.54.54,0,0,1-.4-.4c0-.16-.94-4,2.79-7.89l.13-.13A3.87,3.87,0,0,1,16,55.5a3.91,3.91,0,0,1,2.76,1.14,3.85,3.85,0,0,1,1.1,3.25.54.54,0,0,1-.31.43,2.78,2.78,0,0,0-1.64,2.37.55.55,0,0,1-.21.39A9.09,9.09,0,0,1,12,65.18Zm-.66-1.13a5.54,5.54,0,0,0,.66,0,8,8,0,0,0,4.84-1.73,3.87,3.87,0,0,1,2-2.89,2.8,2.8,0,0,0-4.78-2l-.11.11A8.07,8.07,0,0,0,11.31,64.05Z"/><path class="cls-1" d="M14.79,61.12a.55.55,0,0,1-.39-.93l1.93-1.93a.55.55,0,0,1,.77,0,.54.54,0,0,1,0,.78L15.18,61A.54.54,0,0,1,14.79,61.12Z"/><path class="cls-1" d="M20.67,81.15a.55.55,0,0,1-.55-.55V70.13a.55.55,0,1,1,1.1,0V80.6A.55.55,0,0,1,20.67,81.15Z"/><path class="cls-1" d="M19.22,81.15a.55.55,0,0,1-.54-.44L15.22,64a.56.56,0,0,1,.42-.65.55.55,0,0,1,.65.43l3.47,16.71a.55.55,0,0,1-.43.65Z"/><path class="cls-1" d="M22.12,81.15H22a.55.55,0,0,1-.43-.65l3.55-16.93a.55.55,0,0,1,.65-.42.54.54,0,0,1,.42.65L22.66,80.72A.56.56,0,0,1,22.12,81.15Z"/><path class="cls-1" d="M18.07,98.75h0a.55.55,0,0,1-.52-.57l.62-15.63a.56.56,0,0,1,.57-.53.56.56,0,0,1,.53.57l-.63,15.63A.54.54,0,0,1,18.07,98.75Z"/><path class="cls-1" d="M163.52,55.43H85.17a.55.55,0,0,1-.55-.54V12.32a.55.55,0,0,1,.55-.55h78.35a.55.55,0,0,1,.55.55V54.89A.55.55,0,0,1,163.52,55.43Zm-77.8-1.09H163V12.87H85.72Z"/><path class="cls-1" d="M159,50.91H89.7a.55.55,0,0,1-.55-.55V16.84a.55.55,0,0,1,.55-.55H159a.55.55,0,0,1,.55.55V50.36A.55.55,0,0,1,159,50.91Zm-68.75-1.1h68.21V17.39H90.24Z"/><path class="cls-1" d="M89.69,40a.53.53,0,0,1-.52-.41.54.54,0,0,1,.38-.67l18.85-5a.57.57,0,0,1,.47.09l2.76,2.08,15.2-5.26a.52.52,0,0,1,.47.05l4,2.56L146.09,24a.53.53,0,0,1,.57,0l3.26,1.89,3.18-1a.54.54,0,0,1,.61.21l5.74,8.28a.55.55,0,0,1-.14.76.56.56,0,0,1-.77-.14L153,26l-3,1a.52.52,0,0,1-.44-.05l-3.19-1.84-14.8,9.51a.55.55,0,0,1-.59,0L126.93,32l-15.21,5.27a.55.55,0,0,1-.51-.08l-2.79-2.09L89.84,40Z"/><path class="cls-1" d="M124.87,32.64a.55.55,0,0,1-.3-.09l-5.51-3.7-4.87,1.56a.48.48,0,0,1-.39,0L104.2,26,89.86,30.42a.56.56,0,0,1-.69-.37.54.54,0,0,1,.36-.68l14.55-4.48a.58.58,0,0,1,.39,0l9.59,4.4L119,27.72a.56.56,0,0,1,.47.07l5.73,3.85a.55.55,0,0,1-.31,1Z"/><path class="cls-1" d="M147.85,34.15a.54.54,0,0,1-.34-.12l-4.39-3.43a.54.54,0,0,1-.09-.77.55.55,0,0,1,.77-.1l4,3.11,2.49-3a.54.54,0,0,1,.67-.14l5.4,2.74a.56.56,0,0,1,.24.74.55.55,0,0,1-.74.24l-5-2.55L148.27,34A.55.55,0,0,1,147.85,34.15Z"/><path class="cls-1" d="M117.44,44.75a.57.57,0,0,1-.43-.2l-1.44-1.75L112.9,44a.58.58,0,0,1-.43,0l-1.31-.55L108,44a.53.53,0,0,1-.39-.08l-2.57-1.63-1.64,1.57a.55.55,0,0,1-.59.11L100.63,43H97.08a.64.64,0,0,1-.24,0l-.51-.26-1.6.64a.54.54,0,0,1-.51,0l-.86-.57-1.56.62a.55.55,0,0,1-.4,0l-1.9-.73a.55.55,0,1,1,.39-1l1.7.65,1.63-.65a.54.54,0,0,1,.51.05l.86.57,1.56-.62a.55.55,0,0,1,.45,0l.61.31h3.53a.52.52,0,0,1,.21,0l2,.83,1.68-1.61a.54.54,0,0,1,.67-.06L108,42.89l3.08-.57a.54.54,0,0,1,.31,0l1.25.52,2.83-1.24a.54.54,0,0,1,.64.15l1.47,1.78,2.2-.73a.56.56,0,0,1,.36,0l2.15.75,2.21-1.71a.53.53,0,0,1,.57-.06,23.82,23.82,0,0,0,2.58,1.11c.26-.05,1.54-.52,2.59-.93a.54.54,0,0,1,.57.1l1.57,1.46L135.86,42a.55.55,0,0,1,.6.1L138,43.48l2.68-2a.54.54,0,0,1,.61,0l2.25,1.32,1.63-.74a.61.61,0,0,1,.48,0l1.66.84,1.2-.8a.54.54,0,0,1,.74.13l.78,1L154.47,42a.54.54,0,0,1,.56.17l1.17,1.36L158.72,42a.55.55,0,0,1,.55.95l-2.92,1.7a.54.54,0,0,1-.69-.11l-1.24-1.44-4.5,1.24a.54.54,0,0,1-.59-.2l-.69-.92-1,.69a.52.52,0,0,1-.54,0l-1.72-.86-1.65.75a.57.57,0,0,1-.51,0L141,42.54l-2.75,2.1a.56.56,0,0,1-.71,0L136,43.15l-3.45,1.55a.56.56,0,0,1-.6-.1l-1.57-1.47a14.48,14.48,0,0,1-2.68.89,11.08,11.08,0,0,1-2.74-1.08l-2.17,1.69a.54.54,0,0,1-.52.09L120,43.93l-2.38.79A.51.51,0,0,1,117.44,44.75Z"/><path class="cls-1" d="M131.9,27.45a3.73,3.73,0,1,1,3.73-3.73A3.74,3.74,0,0,1,131.9,27.45Zm0-6.36a2.64,2.64,0,1,0,2.63,2.63A2.64,2.64,0,0,0,131.9,21.09Z"/><path class="cls-1" d="M130.85,23H119a.55.55,0,0,1-.55-.55.55.55,0,0,1,.55-.55h11.89a.54.54,0,0,1,.54.55A.55.55,0,0,1,130.85,23Z"/><path class="cls-1" d="M130.39,25h-4.94a.55.55,0,0,1-.55-.55.55.55,0,0,1,.55-.55h4.94a.55.55,0,0,1,.55.55A.55.55,0,0,1,130.39,25Z"/><path class="cls-1" d="M151.05,21.85H140.81a.55.55,0,1,1,0-1.1h10.24a.55.55,0,0,1,0,1.1Z"/><path class="cls-1" d="M144.65,19.93h-6.77a.55.55,0,0,1,0-1.1h6.77a.55.55,0,0,1,0,1.1Z"/><path class="cls-1" d="M111,19.93H96.66a.55.55,0,1,1,0-1.1H111a.55.55,0,0,1,0,1.1Z"/><path class="cls-1" d="M159,48.18H89.7a.55.55,0,0,1-.55-.55.54.54,0,0,1,.55-.55H159a.54.54,0,0,1,.55.55A.55.55,0,0,1,159,48.18Z"/><path class="cls-1" d="M67.36,77.21a.54.54,0,0,1-.54-.55V3.18a.55.55,0,1,1,1.09,0V76.66A.54.54,0,0,1,67.36,77.21Z"/><path class="cls-1" d="M183.22,77.21a.54.54,0,0,1-.55-.55V3.18a.55.55,0,0,1,.55-.55.55.55,0,0,1,.55.55V76.66A.55.55,0,0,1,183.22,77.21Z"/><path class="cls-1" d="M3.86,127.07H.57a.55.55,0,1,1,0-1.1H3.86a.55.55,0,1,1,0,1.1Z"/><path class="cls-1" d="M50.48,127.07H13.91a.55.55,0,0,1,0-1.1H50.48a.55.55,0,1,1,0,1.1Z"/><path class="cls-1" d="M235.62,127.07H200.4a.55.55,0,0,1,0-1.1h35.22a.55.55,0,0,1,0,1.1Z"/><path class="cls-1" d="M249.43,127.07H246.6a.55.55,0,1,1,0-1.1h2.83a.55.55,0,0,1,0,1.1Z"/><path class="cls-1" d="M31.19,147.37a.52.52,0,0,1-.21,0,.55.55,0,0,1-.3-.71L33.34,140a.54.54,0,0,1,.51-.34h179.7a.53.53,0,0,1,.49.3l3.28,6.5a.55.55,0,0,1-.25.73.54.54,0,0,1-.73-.24l-3.13-6.2h-179L31.7,147A.56.56,0,0,1,31.19,147.37Z"/></svg>