<svg id="Layer_1" data-name="Layer 1" xmlns="http://www.w3.org/2000/svg" viewBox="0 0 222 55"><defs><style>.cls-1{fill:#3b0f37;}.cls-2{fill:#f9320b;}</style></defs><path class="cls-1" d="M90,28.82a4.62,4.62,0,0,0,1.21,1.1,3.12,3.12,0,0,0,1.66.41,3.83,3.83,0,0,0,.88-.1,2.57,2.57,0,0,0,.8-.31,1.77,1.77,0,0,0,.58-.54,1.42,1.42,0,0,0,.21-.78,1.22,1.22,0,0,0-.2-.74,1.82,1.82,0,0,0-.54-.49,2.84,2.84,0,0,0-.77-.33c-.28-.08-.58-.15-.88-.21-.53-.12-1-.24-1.51-.39a4.86,4.86,0,0,1-1.26-.56,2.68,2.68,0,0,1-.87-.9A2.84,2.84,0,0,1,89,23.56a2.79,2.79,0,0,1,.36-1.43,3.18,3.18,0,0,1,1-1,4.69,4.69,0,0,1,1.34-.62,5.67,5.67,0,0,1,1.54-.22,5.1,5.1,0,0,1,2.21.48A3.45,3.45,0,0,1,97,22.29l-1.56,1a2.94,2.94,0,0,0-1-1A2.65,2.65,0,0,0,93.06,22a3,3,0,0,0-.78.1,2.26,2.26,0,0,0-.71.29,1.62,1.62,0,0,0-.52.49,1.21,1.21,0,0,0-.2.68.89.89,0,0,0,.23.61,2,2,0,0,0,.62.45,5.63,5.63,0,0,0,.91.33,9.24,9.24,0,0,0,1.07.24,11.61,11.61,0,0,1,1.41.37,4.24,4.24,0,0,1,1.18.61,2.72,2.72,0,0,1,.79,1,3.61,3.61,0,0,1-.1,3.05,3.11,3.11,0,0,1-1,1.09,4.63,4.63,0,0,1-1.44.61,7,7,0,0,1-1.65.19,6.25,6.25,0,0,1-2.48-.44A4.55,4.55,0,0,1,88.5,30Z"/><path class="cls-1" d="M111.16,37.23h-1.87V30.14h-.05a5.61,5.61,0,0,1-1.78,1.41,5,5,0,0,1-2.25.5,6.27,6.27,0,0,1-2.41-.44A5.42,5.42,0,0,1,101,30.37a5.37,5.37,0,0,1-1.2-1.87,6.22,6.22,0,0,1-.44-2.35,6.14,6.14,0,0,1,.44-2.32A5.72,5.72,0,0,1,100.93,22a5.53,5.53,0,0,1,4-1.71,5.21,5.21,0,0,1,2.65.66,4.25,4.25,0,0,1,1.66,1.62h.05v-2h1.87Zm-1.87-11.08a4.86,4.86,0,0,0-.27-1.64,4.05,4.05,0,0,0-.81-1.32,3.76,3.76,0,0,0-1.26-.88,4.24,4.24,0,0,0-3.28,0,3.76,3.76,0,0,0-1.26.88,3.86,3.86,0,0,0-.8,1.32,5,5,0,0,0,0,3.29,3.86,3.86,0,0,0,.8,1.32,3.76,3.76,0,0,0,1.26.88A4.24,4.24,0,0,0,107,30a3.76,3.76,0,0,0,1.26-.88A4.05,4.05,0,0,0,109,27.8,4.88,4.88,0,0,0,109.29,26.15Z"/><path class="cls-1" d="M115.57,22.13h-2.44V20.54h2.44V18a8.47,8.47,0,0,1,.2-1.88,3.53,3.53,0,0,1,.66-1.47,3,3,0,0,1,1.23-1,4.43,4.43,0,0,1,1.89-.35,4.24,4.24,0,0,1,.77.07,2.11,2.11,0,0,1,.67.22l-.26,1.67a3.78,3.78,0,0,0-1.27-.24,2.12,2.12,0,0,0-1.13.26,1.58,1.58,0,0,0-.61.69,2.81,2.81,0,0,0-.24,1.07c0,.42,0,.86,0,1.34v2.11h2.74v1.59h-2.74v9.64h-1.87Z"/><path class="cls-1" d="M132.17,29a1.43,1.43,0,0,1,1.44,1.44,1.34,1.34,0,0,1-.45,1,1.39,1.39,0,0,1-1,.42,1.43,1.43,0,0,1-1-.42,1.37,1.37,0,0,1-.44-1A1.43,1.43,0,0,1,132.17,29Z"/><path class="cls-1" d="M147.3,29.73a5.77,5.77,0,0,1-2.21,1.81,7,7,0,0,1-2.78.51,5.79,5.79,0,0,1-2.37-.46A5.32,5.32,0,0,1,137,28.46a6.75,6.75,0,0,1-.39-2.31,6.37,6.37,0,0,1,.43-2.38,5.57,5.57,0,0,1,1.2-1.87,5.28,5.28,0,0,1,1.82-1.21,6,6,0,0,1,2.3-.44,5.77,5.77,0,0,1,2.16.4,4.62,4.62,0,0,1,1.69,1.15,5.15,5.15,0,0,1,1.09,1.85,7.33,7.33,0,0,1,.39,2.48v.6h-9.07a4.13,4.13,0,0,0,.35,1.38,4,4,0,0,0,.78,1.15,3.57,3.57,0,0,0,1.13.78,3.45,3.45,0,0,0,1.41.29,4.52,4.52,0,0,0,2.06-.43,4.79,4.79,0,0,0,1.52-1.28Zm-1.61-4.58a3.24,3.24,0,0,0-.93-2.31,3.39,3.39,0,0,0-2.45-.86,3.45,3.45,0,0,0-3.67,3.17Z"/><path class="cls-1" d="M162.5,20.54h1.88v1.63h0a5.51,5.51,0,0,1,1.79-1.41,5,5,0,0,1,2.24-.51,6.27,6.27,0,0,1,2.41.45,5.35,5.35,0,0,1,1.86,1.23,5.77,5.77,0,0,1,1.2,1.87,6.64,6.64,0,0,1,0,4.7,5.64,5.64,0,0,1-1.19,1.87,5.41,5.41,0,0,1-4,1.68,5.19,5.19,0,0,1-2.65-.66,4.26,4.26,0,0,1-1.67-1.61h0v7.45H162.5Zm1.88,5.61a4.88,4.88,0,0,0,.27,1.65,3.86,3.86,0,0,0,.8,1.32A4.15,4.15,0,0,0,170,30a3.76,3.76,0,0,0,1.26-.88,3.86,3.86,0,0,0,.8-1.32,5,5,0,0,0,0-3.29,3.86,3.86,0,0,0-.8-1.32,3.76,3.76,0,0,0-1.26-.88,4,4,0,0,0-4.55.88,3.86,3.86,0,0,0-.8,1.32A4.86,4.86,0,0,0,164.38,26.15Z"/><path class="cls-1" d="M187.28,29.73a5.77,5.77,0,0,1-2.21,1.81,7.07,7.07,0,0,1-2.78.51,5.79,5.79,0,0,1-2.37-.46A5.32,5.32,0,0,1,177,28.46a6.75,6.75,0,0,1-.39-2.31,6.37,6.37,0,0,1,.43-2.38,5.42,5.42,0,0,1,1.2-1.87,5.28,5.28,0,0,1,1.82-1.21,6,6,0,0,1,2.3-.44,5.85,5.85,0,0,1,2.16.4,4.7,4.7,0,0,1,1.69,1.15,5.15,5.15,0,0,1,1.09,1.85,7.33,7.33,0,0,1,.39,2.48v.6h-9.07a3.9,3.9,0,0,0,.35,1.38,4,4,0,0,0,.78,1.15,3.48,3.48,0,0,0,2.54,1.07,4.58,4.58,0,0,0,2.06-.43,4.76,4.76,0,0,0,1.51-1.28Zm-1.61-4.58a3.24,3.24,0,0,0-.93-2.31,3.4,3.4,0,0,0-2.45-.86,3.45,3.45,0,0,0-3.67,3.17Z"/><path class="cls-1" d="M190.59,23.2c0-.51,0-1-.05-1.43s0-.86,0-1.23h1.78c0,.31,0,.61,0,.91s0,.62,0,.94h.05a3.27,3.27,0,0,1,.54-.79,3.76,3.76,0,0,1,.83-.69,4.46,4.46,0,0,1,2.37-.66,2.56,2.56,0,0,1,.39,0,1.89,1.89,0,0,1,.38.09l-.12,1.9a3.38,3.38,0,0,0-1-.14,2.84,2.84,0,0,0-2.5,1.11,5.25,5.25,0,0,0-.78,3.06v5.47h-1.87Z"/><path class="cls-1" d="M205.17,22.13h-3.31v5.61c0,.36,0,.7,0,1a2.19,2.19,0,0,0,.19.81,1.29,1.29,0,0,0,.51.55,1.8,1.8,0,0,0,1,.21,3.56,3.56,0,0,0,.84-.1,3.26,3.26,0,0,0,.81-.29l.07,1.71a4.69,4.69,0,0,1-1.06.31,7.54,7.54,0,0,1-1.12.09,4,4,0,0,1-1.61-.26,2.16,2.16,0,0,1-.93-.74,2.69,2.69,0,0,1-.44-1.19,9.51,9.51,0,0,1-.11-1.57V22.13h-2.45V20.54H200V17.35h1.87v3.19h3.31Z"/><path class="cls-1" d="M128.36,22.13h-3.31v5.61c0,.36,0,.7,0,1a2.19,2.19,0,0,0,.19.81,1.23,1.23,0,0,0,.51.55,1.8,1.8,0,0,0,1,.21,3.42,3.42,0,0,0,.83-.1,3.33,3.33,0,0,0,.82-.29l.07,1.71a4.63,4.63,0,0,1-1.07.31,7.31,7.31,0,0,1-1.11.09,4,4,0,0,1-1.61-.26,2.16,2.16,0,0,1-.93-.74,2.82,2.82,0,0,1-.45-1.19,10.82,10.82,0,0,1-.1-1.57V22.13h-2.45V20.54h2.45V17.35h1.87v3.19h3.31Z"/><rect class="cls-2" x="153.95" y="23.09" width="7.21" height="0.77" transform="translate(29.55 118.29) rotate(-45)"/><polygon class="cls-2" points="160.49 23.26 159.72 23.26 159.72 21.31 157.78 21.31 157.78 20.54 160.49 20.54 160.49 23.26"/><rect class="cls-2" x="151.53" y="19.87" width="0.77" height="7.21" transform="translate(27.89 114.29) rotate(-45)"/><polygon class="cls-2" points="149.75 23.26 148.98 23.26 148.98 20.54 151.69 20.54 151.69 21.31 149.75 21.31 149.75 23.26"/><rect class="cls-2" x="157.17" y="25.51" width="0.77" height="7.21" transform="translate(25.56 119.94) rotate(-45)"/><polygon class="cls-2" points="160.49 29.34 159.72 29.34 159.72 31.28 157.78 31.28 157.78 32.05 160.49 32.05 160.49 29.34"/><rect class="cls-2" x="148.31" y="28.73" width="7.21" height="0.77" transform="translate(23.9 115.95) rotate(-45)"/><polygon class="cls-2" points="149.75 29.34 148.98 29.34 148.98 32.05 151.69 32.05 151.69 31.28 149.75 31.28 149.75 29.34"/><path class="cls-2" d="M90.78,44.36,88.5,40.82h.69l1.88,3,1.92-3h.65l-2.28,3.54V47h-.58Z"/><path class="cls-2" d="M93.26,45a2.34,2.34,0,0,1,.15-.85,2.28,2.28,0,0,1,.44-.68,2,2,0,0,1,.68-.44,2.2,2.2,0,0,1,.86-.16,2.15,2.15,0,0,1,.85.16,2.1,2.1,0,0,1,.68.44,2,2,0,0,1,.44.68,2.15,2.15,0,0,1,.16.85,2.2,2.2,0,0,1-.16.86,2,2,0,0,1-.44.68,2.1,2.1,0,0,1-.68.44,2.34,2.34,0,0,1-.85.16,2.39,2.39,0,0,1-.86-.16,2,2,0,0,1-.68-.44,2.28,2.28,0,0,1-.44-.68A2.39,2.39,0,0,1,93.26,45Zm.52,0a2,2,0,0,0,.11.65,1.51,1.51,0,0,0,.32.53,1.54,1.54,0,0,0,.51.35,1.6,1.6,0,0,0,.67.13,1.6,1.6,0,0,0,1.17-.48,1.51,1.51,0,0,0,.32-.53A1.74,1.74,0,0,0,97,45a1.72,1.72,0,0,0-.11-.64,1.51,1.51,0,0,0-.32-.53,1.6,1.6,0,0,0-1.17-.48,1.6,1.6,0,0,0-.67.13,1.54,1.54,0,0,0-.51.35,1.51,1.51,0,0,0-.32.53A2,2,0,0,0,93.78,45Z"/><path class="cls-2" d="M102.13,45.89c0,.08,0,.17,0,.28s0,.22,0,.33,0,.21,0,.31a1.94,1.94,0,0,1,0,.22h-.53c0-.15,0-.3,0-.44a1.31,1.31,0,0,0,0-.27h0a1.49,1.49,0,0,1-.52.58,1.57,1.57,0,0,1-.86.24,1.75,1.75,0,0,1-.78-.15A1.22,1.22,0,0,1,99,46.6a1.34,1.34,0,0,1-.24-.56,3.49,3.49,0,0,1-.06-.65V43h.53v2.38a2.45,2.45,0,0,0,0,.48,1.11,1.11,0,0,0,.16.42.76.76,0,0,0,.3.29,1,1,0,0,0,.52.11,1.49,1.49,0,0,0,.55-.1,1.12,1.12,0,0,0,.44-.3,1.4,1.4,0,0,0,.3-.52,2.31,2.31,0,0,0,.11-.74V43h.53Z"/><path class="cls-2" d="M109.93,46.77a2.83,2.83,0,0,1-.22,1.22,2,2,0,0,1-.55.72,1.79,1.79,0,0,1-.71.34,2.79,2.79,0,0,1-1.28,0,2.6,2.6,0,0,1-.56-.17,2.77,2.77,0,0,1-.48-.26,2.53,2.53,0,0,1-.37-.36l.41-.39a1.7,1.7,0,0,0,.7.58,2.3,2.3,0,0,0,.9.18,1.91,1.91,0,0,0,.68-.1,1.32,1.32,0,0,0,.46-.28,1.29,1.29,0,0,0,.28-.38,2.86,2.86,0,0,0,.15-.41,1.89,1.89,0,0,0,0-.39c0-.12,0-.22,0-.3v-.56h0a1.55,1.55,0,0,1-.61.58,1.92,1.92,0,0,1-.92.21,2.13,2.13,0,0,1-.84-.16,2.06,2.06,0,0,1-.69-.45,2.21,2.21,0,0,1-.47-.66,2,2,0,0,1-.17-.81A2.12,2.12,0,0,1,107,43a2.14,2.14,0,0,1,.84-.17,1.92,1.92,0,0,1,.92.21,1.62,1.62,0,0,1,.61.58h0V43h.53ZM109.42,45a1.51,1.51,0,0,0-.13-.63,1.58,1.58,0,0,0-.34-.5,1.54,1.54,0,0,0-.51-.35,1.69,1.69,0,0,0-1.25,0,1.54,1.54,0,0,0-.51.35,1.43,1.43,0,0,0-.34.5,1.59,1.59,0,0,0,0,1.26,1.39,1.39,0,0,0,.34.51,1.52,1.52,0,0,0,.51.34,1.57,1.57,0,0,0,1.25,0,1.61,1.61,0,0,0,1-1.48Z"/><path class="cls-2" d="M111,45a2.15,2.15,0,0,1,.16-.85A2,2,0,0,1,112.26,43a2.23,2.23,0,0,1,.86-.16A2.2,2.2,0,0,1,114,43a2.05,2.05,0,0,1,.67.44,2.12,2.12,0,0,1,.45.68,2.34,2.34,0,0,1,.16.85,2.39,2.39,0,0,1-.16.86,2.12,2.12,0,0,1-.45.68A2.05,2.05,0,0,1,114,47a2.39,2.39,0,0,1-.86.16,2.43,2.43,0,0,1-.86-.16,2,2,0,0,1-1.11-1.12A2.2,2.2,0,0,1,111,45Zm.53,0a1.74,1.74,0,0,0,.11.65,1.51,1.51,0,0,0,.32.53,1.6,1.6,0,0,0,1.17.48,1.6,1.6,0,0,0,.67-.13,1.54,1.54,0,0,0,.51-.35,1.51,1.51,0,0,0,.32-.53,1.95,1.95,0,0,0,0-1.29,1.51,1.51,0,0,0-.32-.53,1.54,1.54,0,0,0-.51-.35,1.6,1.6,0,0,0-.67-.13,1.6,1.6,0,0,0-1.17.48,1.51,1.51,0,0,0-.32.53A1.72,1.72,0,0,0,111.52,45Z"/><path class="cls-2" d="M118.41,43.45h-1.15v2.64a.57.57,0,0,0,.15.42.53.53,0,0,0,.41.15,1,1,0,0,0,.3,0,1.42,1.42,0,0,0,.29-.1l0,.48-.34.09a1.63,1.63,0,0,1-.35,0,1.21,1.21,0,0,1-.48-.09.83.83,0,0,1-.32-.22.67.67,0,0,1-.18-.33,1.31,1.31,0,0,1-.06-.41V43.45h-.88V43h.88V41.81h.53V43h1.15Z"/><path class="cls-2" d="M121.64,46a1.13,1.13,0,0,0,.5.49,1.35,1.35,0,0,0,.68.17,1,1,0,0,0,.33,0,.85.85,0,0,0,.3-.15.8.8,0,0,0,.22-.23.65.65,0,0,0,.08-.31.49.49,0,0,0-.18-.42,1.21,1.21,0,0,0-.44-.22,4.48,4.48,0,0,0-.58-.14A3,3,0,0,1,122,45a1.14,1.14,0,0,1-.44-.33.9.9,0,0,1-.18-.6,1.08,1.08,0,0,1,.12-.52,1.11,1.11,0,0,1,.32-.36,1.4,1.4,0,0,1,.44-.22,2.15,2.15,0,0,1,.5-.07,1.83,1.83,0,0,1,.87.19,1.22,1.22,0,0,1,.56.58l-.47.28a1.22,1.22,0,0,0-.37-.43,1.05,1.05,0,0,0-.59-.14,1,1,0,0,0-.29,0,1.18,1.18,0,0,0-.28.12.76.76,0,0,0-.2.2.5.5,0,0,0-.09.29.46.46,0,0,0,.18.4,1.38,1.38,0,0,0,.44.21,4.56,4.56,0,0,0,.58.12,2.46,2.46,0,0,1,.58.17,1.19,1.19,0,0,1,.45.35,1,1,0,0,1,.18.63,1.18,1.18,0,0,1-.12.55,1,1,0,0,1-.33.39,1.23,1.23,0,0,1-.47.24,2,2,0,0,1-.55.08,2.32,2.32,0,0,1-1-.2,1.51,1.51,0,0,1-.67-.63Z"/><path class="cls-2" d="M125.26,43h.53v.71h0a1.56,1.56,0,0,1,.31-.37,2.06,2.06,0,0,1,.4-.25,1.7,1.7,0,0,1,.45-.15,2.5,2.5,0,0,1,.47-.05,2.15,2.15,0,0,1,.85.16,2.1,2.1,0,0,1,.68.44,2,2,0,0,1,.44.68,2.15,2.15,0,0,1,.16.85,2.2,2.2,0,0,1-.16.86,2,2,0,0,1-.44.68,2.1,2.1,0,0,1-.68.44,2.34,2.34,0,0,1-.85.16,2.5,2.5,0,0,1-.47,0,1.7,1.7,0,0,1-.45-.15,2.06,2.06,0,0,1-.4-.25,1.56,1.56,0,0,1-.31-.37h0V49h-.53Zm.47,2a1.75,1.75,0,0,0,.13.65,1.77,1.77,0,0,0,.36.53,1.79,1.79,0,0,0,.54.35,1.63,1.63,0,0,0,.67.13,1.59,1.59,0,0,0,.66-.13,1.54,1.54,0,0,0,.51-.35,1.51,1.51,0,0,0,.32-.53A1.74,1.74,0,0,0,129,45a1.72,1.72,0,0,0-.11-.64,1.51,1.51,0,0,0-.32-.53,1.54,1.54,0,0,0-.51-.35,1.59,1.59,0,0,0-.66-.13,1.63,1.63,0,0,0-.67.13,1.79,1.79,0,0,0-.54.35,1.77,1.77,0,0,0-.36.53A1.74,1.74,0,0,0,125.73,45Z"/><path class="cls-2" d="M133.89,45.33v.53c0,.16,0,.31,0,.44s0,.26,0,.38,0,.23,0,.35h-.49a4.43,4.43,0,0,1-.05-.66h0a1.43,1.43,0,0,1-.56.58,1.71,1.71,0,0,1-.86.19,1.86,1.86,0,0,1-.52-.07,1.17,1.17,0,0,1-.45-.21,1.06,1.06,0,0,1-.33-.37,1.08,1.08,0,0,1-.13-.56,1.05,1.05,0,0,1,.24-.73,1.5,1.5,0,0,1,.58-.41,3,3,0,0,1,.74-.18c.26,0,.49,0,.69,0h.61v-.24a.89.89,0,0,0-.32-.76,1.41,1.41,0,0,0-.82-.22,1.88,1.88,0,0,0-1.24.45l-.3-.36a1.83,1.83,0,0,1,.72-.42,2.46,2.46,0,0,1,.82-.15,1.88,1.88,0,0,1,1.18.35,1.34,1.34,0,0,1,.44,1.12ZM132.83,45a4.4,4.4,0,0,0-.64,0,2.18,2.18,0,0,0-.56.15,1,1,0,0,0-.4.28.65.65,0,0,0-.15.44.62.62,0,0,0,.08.33.8.8,0,0,0,.22.23.71.71,0,0,0,.29.14,1,1,0,0,0,.33,0,1.71,1.71,0,0,0,.69-.12,1.22,1.22,0,0,0,.44-.32,1.18,1.18,0,0,0,.22-.45,2.07,2.07,0,0,0,.06-.5V45Z"/><path class="cls-2" d="M138.69,46.44a1.87,1.87,0,0,1-1.5.7,2.43,2.43,0,0,1-.86-.16,2,2,0,0,1-1.11-1.12,2.2,2.2,0,0,1-.16-.86,2.15,2.15,0,0,1,.16-.85A2,2,0,0,1,136.33,43a2.23,2.23,0,0,1,.86-.16,1.78,1.78,0,0,1,.83.19,2.1,2.1,0,0,1,.68.51l-.42.32a1.87,1.87,0,0,0-.5-.4,1.2,1.2,0,0,0-.59-.14,1.59,1.59,0,0,0-.66.13,1.54,1.54,0,0,0-.51.35,1.51,1.51,0,0,0-.32.53,1.72,1.72,0,0,0-.11.64,1.74,1.74,0,0,0,.11.65,1.51,1.51,0,0,0,.32.53,1.54,1.54,0,0,0,.51.35,1.59,1.59,0,0,0,.66.13,1.23,1.23,0,0,0,.61-.15,1.46,1.46,0,0,0,.48-.41Z"/><path class="cls-2" d="M143.09,46.27a1.8,1.8,0,0,1-.76.67,2.47,2.47,0,0,1-1,.2,2.3,2.3,0,0,1-.85-.16,2,2,0,0,1-.65-.44,1.88,1.88,0,0,1-.41-.68,2.39,2.39,0,0,1-.15-.86,2.34,2.34,0,0,1,.15-.85,2.11,2.11,0,0,1,.42-.67,2.06,2.06,0,0,1,.64-.45,2.18,2.18,0,0,1,.82-.16,2.1,2.1,0,0,1,.82.16,1.92,1.92,0,0,1,.6.43,1.89,1.89,0,0,1,.36.61,2.1,2.1,0,0,1,.12.7v.37h-3.4a1.91,1.91,0,0,0,.06.42,1.72,1.72,0,0,0,.25.51,1.36,1.36,0,0,0,1.22.59,1.73,1.73,0,0,0,.79-.19,1.33,1.33,0,0,0,.57-.53Zm-.4-1.61a1.26,1.26,0,0,0-.11-.51,1.73,1.73,0,0,0-.3-.41,1.51,1.51,0,0,0-.45-.29,1.42,1.42,0,0,0-.55-.1,1.31,1.31,0,0,0-.71.17,1.68,1.68,0,0,0-.69.85,1,1,0,0,0-.07.29Z"/><path class="cls-2" d="M146.35,44.72h2.16v.47h-2.16Z"/><path class="cls-2" d="M151.22,40.82h.59l1.55,5.5h0l1.58-5.5h.73l1.57,5.5h0l1.55-5.5h.59L157.6,47h-.71l-1.57-5.53h0L153.73,47H153Z"/><path class="cls-2" d="M163.58,46.27a1.8,1.8,0,0,1-.76.67,2.47,2.47,0,0,1-1,.2A2.3,2.3,0,0,1,161,47a2,2,0,0,1-.65-.44,1.88,1.88,0,0,1-.41-.68,2.39,2.39,0,0,1-.15-.86,2.34,2.34,0,0,1,.15-.85,2.11,2.11,0,0,1,.42-.67A2.06,2.06,0,0,1,161,43a2.18,2.18,0,0,1,.82-.16,2.1,2.1,0,0,1,.82.16,1.92,1.92,0,0,1,.6.43,1.89,1.89,0,0,1,.36.61,2.1,2.1,0,0,1,.12.7v.37h-3.4a1.91,1.91,0,0,0,.06.42,1.72,1.72,0,0,0,.25.51,1.4,1.4,0,0,0,1.22.59,1.73,1.73,0,0,0,.79-.19,1.33,1.33,0,0,0,.57-.53Zm-.4-1.61a1.26,1.26,0,0,0-.11-.51,1.73,1.73,0,0,0-.3-.41,1.51,1.51,0,0,0-.45-.29,1.42,1.42,0,0,0-.55-.1,1.31,1.31,0,0,0-.71.17,1.68,1.68,0,0,0-.69.85,1,1,0,0,0-.07.29Z"/><path class="cls-2" d="M171.23,46.77A2.83,2.83,0,0,1,171,48a1.86,1.86,0,0,1-.55.72,1.76,1.76,0,0,1-.7.34,3,3,0,0,1-.69.09,3.05,3.05,0,0,1-.6-.06,2.51,2.51,0,0,1-.55-.17,2,2,0,0,1-.86-.62l.42-.39a1.64,1.64,0,0,0,.7.58,2.25,2.25,0,0,0,.89.18,1.91,1.91,0,0,0,.68-.1,1.23,1.23,0,0,0,.46-.28,1.29,1.29,0,0,0,.28-.38,1.56,1.56,0,0,0,.15-.41,3.1,3.1,0,0,0,.06-.39c0-.12,0-.22,0-.3v-.56h0a1.57,1.57,0,0,1-.62.58,1.92,1.92,0,0,1-.92.21,2.13,2.13,0,0,1-.84-.16,2.29,2.29,0,0,1-.69-.45,2.18,2.18,0,0,1-.46-.66A1.84,1.84,0,0,1,167,45a1.9,1.9,0,0,1,.17-.81,2,2,0,0,1,.46-.65,2.29,2.29,0,0,1,.69-.45,2.14,2.14,0,0,1,.84-.17,1.92,1.92,0,0,1,.92.21,1.65,1.65,0,0,1,.62.58h0V43h.52ZM170.72,45a1.68,1.68,0,0,0-.12-.63,1.76,1.76,0,0,0-.85-.85,1.71,1.71,0,0,0-1.26,0,1.54,1.54,0,0,0-.51.35,1.58,1.58,0,0,0-.34.5,1.61,1.61,0,0,0,2.11,2.11,1.58,1.58,0,0,0,.5-.34,1.54,1.54,0,0,0,.35-.51A1.68,1.68,0,0,0,170.72,45Z"/><path class="cls-2" d="M172.29,45a2.34,2.34,0,0,1,.16-.85,2.1,2.1,0,0,1,.44-.68,2,2,0,0,1,.68-.44,2.2,2.2,0,0,1,.86-.16,2.15,2.15,0,0,1,.85.16,2.1,2.1,0,0,1,.68.44,2,2,0,0,1,.44.68,2.15,2.15,0,0,1,.16.85,2.2,2.2,0,0,1-.16.86,2,2,0,0,1-.44.68,2.1,2.1,0,0,1-.68.44,2.34,2.34,0,0,1-.85.16,2.39,2.39,0,0,1-.86-.16,2,2,0,0,1-.68-.44,2.1,2.1,0,0,1-.44-.68A2.39,2.39,0,0,1,172.29,45Zm.53,0a2,2,0,0,0,.11.65,1.51,1.51,0,0,0,.32.53,1.54,1.54,0,0,0,.51.35,1.77,1.77,0,0,0,1.33,0,1.54,1.54,0,0,0,.51-.35,1.51,1.51,0,0,0,.32-.53A1.74,1.74,0,0,0,176,45a1.72,1.72,0,0,0-.11-.64,1.51,1.51,0,0,0-.32-.53,1.54,1.54,0,0,0-.51-.35,1.77,1.77,0,0,0-1.33,0,1.54,1.54,0,0,0-.51.35,1.51,1.51,0,0,0-.32.53A2,2,0,0,0,172.82,45Z"/><path class="cls-2" d="M179.72,43.45h-1.16v2.64a.57.57,0,0,0,.15.42.56.56,0,0,0,.41.15,1,1,0,0,0,.3,0,1.51,1.51,0,0,0,.3-.1l0,.48-.34.09a1.55,1.55,0,0,1-.34,0,1.14,1.14,0,0,1-.48-.09.8.8,0,0,1-.33-.22.88.88,0,0,1-.18-.33,1.31,1.31,0,0,1-.06-.41V43.45h-.87V43H178V41.81h.53V43h1.16Z"/><path class="cls-2" d="M182.89,41.37a.38.38,0,0,1,.12-.28.36.36,0,0,1,.28-.11.38.38,0,0,1,.39.39.36.36,0,0,1-.11.28.38.38,0,0,1-.28.12.41.41,0,0,1-.4-.4ZM183,43h.52V47H183Z"/><path class="cls-2" d="M188.59,46.32h0a1.52,1.52,0,0,1-.3.37,2.42,2.42,0,0,1-.4.25,1.9,1.9,0,0,1-.46.15,2.3,2.3,0,0,1-1.32-.11,2.1,2.1,0,0,1-.68-.44,2.28,2.28,0,0,1-.44-.68,2.39,2.39,0,0,1-.15-.86,2.34,2.34,0,0,1,.15-.85,2.28,2.28,0,0,1,.44-.68,2.1,2.1,0,0,1,.68-.44,2.2,2.2,0,0,1,.86-.16,2.4,2.4,0,0,1,.46.05,1.9,1.9,0,0,1,.46.15,2.42,2.42,0,0,1,.4.25,1.52,1.52,0,0,1,.3.37h0V40.4h.53V47h-.53Zm0-1.32a1.56,1.56,0,0,0-.13-.64,1.77,1.77,0,0,0-.36-.53,1.75,1.75,0,0,0-.53-.35,1.67,1.67,0,0,0-.67-.13,1.6,1.6,0,0,0-.67.13,1.54,1.54,0,0,0-.51.35,1.67,1.67,0,0,0-.32.53,1.95,1.95,0,0,0,0,1.29,1.67,1.67,0,0,0,.32.53,1.54,1.54,0,0,0,.51.35,1.6,1.6,0,0,0,.67.13,1.67,1.67,0,0,0,.67-.13,1.75,1.75,0,0,0,.53-.35,1.77,1.77,0,0,0,.36-.53A1.57,1.57,0,0,0,188.64,45Z"/><path class="cls-2" d="M194,46.27a1.86,1.86,0,0,1-.76.67,2.51,2.51,0,0,1-1,.2,2.24,2.24,0,0,1-.84-.16,2,2,0,0,1-.65-.44,2,2,0,0,1-.42-.68,2.63,2.63,0,0,1-.14-.86,2.34,2.34,0,0,1,.15-.85,2.11,2.11,0,0,1,.42-.67,2,2,0,0,1,.64-.45,2.18,2.18,0,0,1,.82-.16A2.1,2.1,0,0,1,193,43a2,2,0,0,1,.59.43,1.91,1.91,0,0,1,.49,1.31v.37H190.7a2,2,0,0,0,.07.42,1.47,1.47,0,0,0,.24.51,1.74,1.74,0,0,0,.47.42,1.55,1.55,0,0,0,.76.17,1.66,1.66,0,0,0,.78-.19,1.36,1.36,0,0,0,.58-.53Zm-.41-1.61a1.12,1.12,0,0,0-.11-.51,1.46,1.46,0,0,0-.29-.41,1.51,1.51,0,0,0-.45-.29,1.49,1.49,0,0,0-.55-.1,1.33,1.33,0,0,0-.72.17,1.49,1.49,0,0,0-.45.41,1.44,1.44,0,0,0-.23.44,1.17,1.17,0,0,0-.08.29Z"/><path class="cls-2" d="M198.44,45.33v.53c0,.16,0,.31,0,.44s0,.26,0,.38,0,.23,0,.35H198a4.43,4.43,0,0,1-.05-.66h0a1.43,1.43,0,0,1-.56.58,1.71,1.71,0,0,1-.86.19,1.86,1.86,0,0,1-.52-.07,1.17,1.17,0,0,1-.45-.21,1.06,1.06,0,0,1-.33-.37,1.08,1.08,0,0,1-.13-.56,1.05,1.05,0,0,1,.24-.73,1.5,1.5,0,0,1,.58-.41,3,3,0,0,1,.74-.18c.26,0,.49,0,.69,0H198v-.24a.89.89,0,0,0-.32-.76,1.41,1.41,0,0,0-.82-.22,1.88,1.88,0,0,0-1.24.45l-.3-.36A1.83,1.83,0,0,1,196,43a2.46,2.46,0,0,1,.82-.15,1.88,1.88,0,0,1,1.18.35,1.34,1.34,0,0,1,.44,1.12ZM197.38,45a4.49,4.49,0,0,0-.64,0,2.18,2.18,0,0,0-.56.15,1,1,0,0,0-.4.28.65.65,0,0,0-.15.44.73.73,0,0,0,.08.33.8.8,0,0,0,.22.23.71.71,0,0,0,.29.14,1,1,0,0,0,.33,0,1.71,1.71,0,0,0,.69-.12,1.22,1.22,0,0,0,.44-.32,1.05,1.05,0,0,0,.22-.45,2.07,2.07,0,0,0,.06-.5V45Z"/><path class="cls-2" d="M199.86,46.66a.44.44,0,0,1,.12-.3.44.44,0,0,1,.6,0,.44.44,0,0,1,.12.3.42.42,0,1,1-.84,0Z"/><path class="cls-2" d="M202.14,46.66a.44.44,0,0,1,.12-.3.44.44,0,0,1,.6,0,.44.44,0,0,1,.12.3.42.42,0,1,1-.84,0Z"/><path class="cls-2" d="M204.42,46.66a.44.44,0,0,1,.12-.3.42.42,0,0,1,.3-.12.41.41,0,0,1,.3.12.44.44,0,0,1,.12.3.41.41,0,0,1-.42.42.42.42,0,0,1-.3-.12A.41.41,0,0,1,204.42,46.66Z"/><polygon class="cls-2" points="47.31 18.66 53.55 22.32 53.55 9.53 41.07 9.53 41.07 22.32 47.31 18.66"/><polygon class="cls-2" points="37.78 24.26 37.78 13.21 25.3 13.21 25.3 31.59 37.78 24.26"/><polygon class="cls-2" points="69.33 31.6 69.33 5.86 56.85 5.86 56.85 24.26 69.33 31.6"/><polygon class="cls-2" points="25.3 40.15 25.3 49.14 37.78 49.14 37.78 32.82 25.3 40.15"/><polygon class="cls-2" points="47.31 27.21 41.07 30.88 41.07 49.14 53.55 49.14 53.55 30.88 47.31 27.21"/><polygon class="cls-1" points="47.31 20.26 11 41.6 13.33 45.58 47.31 25.61 81.29 45.58 83.62 41.6 47.31 20.26"/><rect class="cls-1" x="56.85" y="39.51" width="4.19" height="4.19"/><rect class="cls-1" x="56.85" y="44.95" width="4.19" height="4.19"/><rect class="cls-1" x="62.4" y="39.51" width="4.19" height="4.19"/><rect class="cls-1" x="62.4" y="44.95" width="4.19" height="4.19"/><path d="M207.61,14.78h-1v2.57h-.34V14.78h-1v-.32h2.26Z"/><path d="M208,14.46h.51l1,2.27h0l1-2.27h.5v2.89h-.34V14.93h0l-1,2.42h-.21l-1-2.42h0v2.42H208Z"/></svg>