<svg enable-background="new 0 0 720 503.999" height="503.999" viewBox="0 0 720 503.999" width="720" xmlns="http://www.w3.org/2000/svg"><path d="m0 0h720.533v503.999h-720.533z" fill="#fff"/><path d="m694.333 458.695h-680l81.542-22.672 583.125.022z" fill="#f9f3d4"/><path d="m400.735 294.381c-6.161 137.56-85.513 135.806-190.409 137.56-96.068 1.606-191.209 26.698-189.506-137.56 1.01-97.534 85.046-176.61 189.957-176.61s194.323 79.168 189.958 176.61z" fill="#f4f9e5"/><path d="m712.381 257.275c-6.714 193.704-38.714 178.759-244.428 173.645-129.036-3.208-254.491 34.82-252.266-173.645 1.32-123.786 111.188-224.144 248.346-224.144 68.135 0 131.269 24.795 176.856 64.909 46.185 40.639 73.65 96.971 71.492 159.235z" fill="#f4f9e5"/><path d="m509.11 411.487c-.572-1.803.426-3.728 2.226-4.298 1.802-.57 3.727.429 4.296 2.228l2.871 10.112c-2.441-1.056-4.904-1.814-7.43-2.399z" fill="#21211f"/><path d="m518.503 419.529 4.938 17.391c.572 1.801.498 3.762-1.302 4.334-1.802.57-3.118-1.109-3.688-2.908l-7.377-21.216c2.525.585 4.988 1.344 7.429 2.399z" fill="#383835"/><path d="m232.573 321.735h346.695v85.152h-346.695z" fill="#fffefd"/><path d="m278.974 410.917c.573-1.803-.425-3.728-2.225-4.298-1.802-.57-3.727.429-4.296 2.228l-2.871 10.112c2.441-1.056 4.904-1.814 7.43-2.399z" fill="#21211f"/><path d="m269.582 418.959-4.937 17.391c-.572 1.801-.499 3.762 1.301 4.334 1.802.57 3.118-1.109 3.688-2.908l7.377-21.216c-2.525.585-4.988 1.343-7.429 2.399z" fill="#383835"/><path d="m236.753 406.459h318.565v4.564h-318.565z" fill="#383835"/><path d="m341.957 321.735h2.459v84.58h-2.459z" fill="#d8d8d8"/><path d="m333.935 353.37c0 1.006-.68 1.818-1.519 1.818-.84 0-1.52-.812-1.52-1.818v-8.673c0-1.002.68-1.817 1.52-1.817.839 0 1.519.815 1.519 1.817z" fill="#d8d8d8"/><path d="m465.842 321.735h2.459v84.58h-2.459z" fill="#d8d8d8"/><path d="m457.82 353.37c0 1.006-.68 1.818-1.52 1.818s-1.52-.812-1.52-1.818v-8.673c0-1.002.68-1.817 1.52-1.817s1.52.815 1.52 1.817z" fill="#d8d8d8"/><path d="m574.186 352.832c0 1.006-.679 1.818-1.519 1.818s-1.52-.812-1.52-1.818v-8.673c0-1.002.68-1.817 1.52-1.817s1.519.815 1.519 1.817z" fill="#d8d8d8"/><path d="m664.138 123.898h-60.394l-.094 1.739h60.581z" fill="#cececc"/><path d="m664.231 125.637h-60.581l-4.034 74.966h68.649z" fill="#e2e2d7"/><path d="m599.616 200.603-.147 2.75h68.944l-.148-2.75z" fill="#cececc"/><path d="m631.181 203.353h5.345v19.597h-5.345z" fill="#1e1d18"/><path d="m627.05 234.071c.169-1.122-1.546-1.604-1.718-.473-1.886 12.482-3.77 24.964-5.654 37.447.579.125 1.157.236 1.736.344.226-1.49.45-2.98.676-4.473 1.652-10.947 3.306-21.897 4.96-32.845z" fill="#1e1d18"/><path d="m598.761 409.547c-1.653 10.947-3.307 21.896-4.961 32.846-.169 1.121 1.546 1.604 1.718.473 8.632-57.16 17.264-114.318 25.896-171.477-.579-.107-1.157-.219-1.736-.344-6.973 46.168-13.946 92.334-20.917 138.502z" fill="#33322c"/><path d="m648.002 266.441c-1.652-10.947-3.307-21.896-4.959-32.843-.172-1.131-1.887-.649-1.718.473 1.855 12.283 3.71 24.565 5.565 36.849.578-.111 1.156-.227 1.735-.35-.207-1.377-.415-2.752-.623-4.129z" fill="#1e1d18"/><path d="m646.891 270.92c7.003 46.367 14.005 92.732 21.008 139.102 1.652 10.947 3.307 21.896 4.959 32.844.172 1.131 1.887.648 1.718-.473-8.65-57.275-17.3-114.549-25.949-171.822-.58.122-1.158.238-1.736.349z" fill="#33322c"/><path d="m634.894 267.797c.01-11.32.02-22.641.029-33.962.001-1.147-1.779-1.147-1.78 0-.011 12.844-.021 25.691-.032 38.535.594-.008 1.187-.018 1.78-.037.001-1.513.002-3.024.003-4.536z" fill="#1e1d18"/><path d="m633.11 272.369c-.039 46.383-.079 92.766-.118 139.146-.01 11.322-.02 22.641-.029 33.961-.001 1.15 1.779 1.148 1.78 0 .049-57.715.099-115.43.147-173.145-.593.021-1.186.03-1.78.038z" fill="#33322c"/><path d="m646.502 235.065h-20.311-4.63v-12.115h24.941z" fill="#33322c"/><path d="m253.199 312.024h6.25v9.711h-6.25z" fill="#f6c567"/><path d="m259.449 312.024h2v9.711h-2z" fill="#fcedea"/><path d="m261.449 312.024h4.5v9.711h-4.5z" fill="#f6c567"/><path d="m265.949 312.024h1.333v9.711h-1.333z" fill="#fcedea"/><path d="m267.282 312.024h71.808v9.711h-71.808z" fill="#f6c567"/><path d="m258.359 302.312h93.174v9.713h-93.174z" fill="#3e3f39"/><path d="m262.304 306.258h20.031v2.124h-20.031z" fill="#ced5a6"/><path d="m270.727 290.703h8.877v11.608h-8.877z" fill="#ced5a6"/><path d="m284.156 290.703h50.078v11.608h-50.078z" fill="#ced5a6"/><path d="m279.604 290.703h4.553v11.608h-4.553z" fill="#f6c768"/><path d="m256.044 282.053h9.333v8.65h-9.333z" fill="#e6c49f"/><path d="m265.377 282.053h2.504v8.65h-2.504z" fill="#8da760"/><path d="m267.881 282.053h4.553v8.65h-4.553z" fill="#e6c49f"/><path d="m272.434 282.053h2.731v8.65h-2.731z" fill="#8da760"/><path d="m275.165 282.053h64.95v8.65h-64.95z" fill="#e6c49f"/><path d="m258.359 276.362h80.048v5.69h-80.048z" fill="#292056"/><path d="m270.499 269.533h21.852v6.829h-21.852z" fill="#fcedea"/><path d="m292.351 269.533h32.323v6.829h-32.323z" fill="#e5c69a"/><path d="m262.304 269.533h8.194v6.829h-8.194z" fill="#e5c69a"/><path d="m396.036 138.897h60.372v74.434h-60.372z" fill="#d1bcb0"/><path d="m396.036 138.52h60.372v3.186h-60.372z" fill="#d1bcb0"/><path d="m396.036 213.332v-74.812l3.444 3.186v68.44z" fill="#aa9387"/><path d="m452.963 210.146v-68.44l3.445-3.186v74.812z" fill="#ddd0ca"/><path d="m399.48 141.706h53.482v68.441h-53.482z" fill="#fcf8f0"/><path d="m399.48 206.66s47.379 0 53.482-48.573v52.059h-53.482z" fill="#c3e9e3" opacity=".7"/><path d="m452.963 141.706s-48.516 2.837-53.482 42.362v-42.362h43.521z" fill="#ffeabb" opacity=".7"/><path d="m498.512 138.897h60.372v74.434h-60.372z" fill="#d1bcb0"/><path d="m498.512 138.52h60.372v3.186h-60.372z" fill="#d1bcb0"/><path d="m498.512 213.332v-74.812l3.444 3.186v68.44z" fill="#aa9387"/><path d="m555.438 210.146v-68.44l3.446-3.186v74.812z" fill="#ddd0ca"/><path d="m501.956 141.706h53.482v68.441h-53.482z" fill="#fcf8f0"/><path d="m501.956 206.66s47.379 0 53.482-48.573v52.059h-53.482z" fill="#e0eabb" opacity=".7"/><path d="m555.438 141.706s-48.516 2.837-53.482 42.362v-42.362h43.521z" fill="#ffd8bb" opacity=".7"/><path d="m135.167 332.29h2.127v116.832h-2.127z" fill="#c9c9c9" transform="matrix(.8174 .5761 -.5761 .8174 249.9761 -7.1279)"/><path d="m110.156 389.005h115.547v2.128h-115.547z" fill="#c9c9c9" transform="matrix(.5788 .8155 -.8155 .5788 388.8101 27.3491)"/><path d="m128.438 388.315h113.917v2.127h-113.917z" fill="#d4d4d4" transform="matrix(.3169 .9484 -.9484 .3169 495.9421 90.132)"/><path d="m117.487 332.465h2.128v115.113h-2.128z" fill="#d4d4d4" transform="matrix(.9496 .3135 -.3135 .9496 128.2365 -17.5043)"/><path d="m83.944 275.461s1.094 11.693 3.458 20.606c2.365 8.913 6.913 18.554 12.369 22.191s-2.365-39.106-6.73-42.018c-4.365-2.908-9.097-.779-9.097-.779z" fill="#545454"/><path d="m137.5 336.63h-2.625v-2.52l5.251-.012z" fill="#262624"/><path d="m166.486 336.63h2.625v-2.52l-5.251-.012z" fill="#262624"/><path d="m98.68 442.855h4.729v4.365h-4.729z" fill="#383837"/><path d="m200.538 441.582h4.729v4.365h-4.729z" fill="#383837"/><path d="m219.683 275.461s-1.094 11.693-3.458 20.606-6.913 18.554-12.369 22.191c-5.457 3.638 2.364-39.106 6.729-42.018 4.365-2.908 9.098-.779 9.098-.779z" fill="#545454"/><path d="m216.406 271.877c-10.58-.747-21.1-14.552-33.105-24.738-9.803-8.318-25.908-8.715-31.488-8.581-5.579-.134-21.684.263-31.488 8.581-12.005 10.186-22.525 23.991-33.104 24.738-8.674.611-12.854.425-12.854.425l1.759 3.03s6.73.185 11.337.122c8.67-.122 8.489 33.528 9.944 39.712 1.434 6.094 10.309 21.001 54.406 19.065 44.097 1.936 52.973-12.972 54.407-19.065 1.455-6.184 1.273-39.834 9.943-39.712 4.608.062 11.338-.122 11.338-.122l1.758-3.03c.001 0-4.179.186-12.853-.425z" fill="#383837"/><path d="m197.889 319.084c0 3.43-19.507 10.991-46.236 10.991-25.905 0-45.916-7.562-45.916-10.991s22.247-5.779 45.916-5.779 46.236 2.349 46.236 5.779z" fill="#262624"/><circle cx="173.426" cy="130.005" fill="#c6c6c6" opacity=".4" r="49.159"/><circle cx="171.491" cy="128.07" fill="#f9f3d4" r="47.855"/><path d="m127.301 143.897c-1.777-4.948-2.752-10.275-2.752-15.827 0-25.884 21.058-46.942 46.942-46.942 5.552 0 10.879.975 15.827 2.753l1.419-1.419c-5.365-2.036-11.176-3.16-17.246-3.16-26.892 0-48.769 21.877-48.769 48.769 0 6.07 1.124 11.88 3.16 17.246z" fill="#3a3a3a"/><path d="m127.301 143.897-1.418 1.418c.898 2.368 1.979 4.647 3.219 6.823l1.339-1.339c-1.222-2.2-2.278-4.505-3.14-6.902z" fill="#727272"/><path d="m195.56 85.681-1.34 1.34c14.426 8.018 24.213 23.407 24.213 41.049 0 25.884-21.058 46.942-46.942 46.942-17.642 0-33.032-9.788-41.05-24.213l-1.339 1.339c8.397 14.738 24.248 24.7 42.389 24.7 26.891 0 48.768-21.877 48.768-48.768 0-18.142-9.962-33.992-24.699-42.389z" fill="#3a3a3a"/><path d="m188.737 82.461-1.419 1.419c2.397.861 4.702 1.917 6.902 3.14l1.34-1.34c-2.176-1.239-4.455-2.321-6.823-3.219z" fill="#727272"/><path d="m161.778 134.908 3.053 1.145 20.214-37.38h-1.335z" fill="#333533"/><path d="m161.778 119.652-1.907 1.907 40.622 32.23v-1.144z" fill="#333533"/><path d="m167.148 110.052h.895v51.43h-.895z" fill="#333533" transform="matrix(.9975 .0704 -.0704 .9975 9.9673 -11.4549)"/><path d="m171.02 86.174v9.752h-.739v-9h-.598v-.752zm-1.283.069v.613h.614v9h.599v-9.613zm1.087.126v9.362h-.348v-9.014h-.627v-.348z" fill="#333533"/><path d="m175.324 89.461c-.013.711-.654 1.31-1.351 1.965-.641.585-1.24 1.17-1.268 1.728v2.006h2.619v.766h-3.357v-2.786c.042-.878.78-1.603 1.519-2.271.543-.488 1.1-1.06 1.114-1.408v-1.49c0-.865-.46-1.129-.905-1.129-.628 0-.948.487-.948 1.17v.752h-.71v-.78c0-1.351.878-1.895 1.658-1.895.724 0 1.629.488 1.629 1.867zm-.069-1.504c0-1.337-.878-1.797-1.561-1.797-.766 0-1.589.53-1.589 1.825v.711h.571v-.683c0-.725.349-1.24 1.018-1.24.473 0 .989.279.989 1.198v1.49c-.014.376-.6.961-1.144 1.449-.71.64-1.463 1.407-1.503 2.229v2.717h3.218v-.626h-2.62v-2.09c.027-.571.654-1.156 1.282-1.755.697-.642 1.338-1.24 1.338-1.923v-1.505zm-.112 1.504c-.014.627-.641 1.198-1.295 1.812-.668.627-1.309 1.226-1.337 1.867v2.23h2.633v.361h-2.981c0-.195 0-2.396 0-2.591.042-.794.739-1.462 1.449-2.117.585-.53 1.184-1.129 1.198-1.561v-1.49c0-1.032-.571-1.337-1.114-1.337-.752 0-1.143.585-1.143 1.379v.544h-.32v-.572c0-1.198.766-1.7 1.463-1.7.641 0 1.448.433 1.448 1.672v1.503z" fill="#333533"/><path d="m209.969 128.017h.529c.627-.041.948-.626.948-1.295v-1.992c0-.78-.376-1.142-.877-1.142-.641 0-1.003.459-1.003 1.156v.766h-.697v-.78c0-1.477.92-1.881 1.7-1.881.863 0 1.616.585 1.616 1.868v2.005c0 .836-.223 1.24-.683 1.63.613.348.795 1.087.795 1.854v.542c0 1.129-.641 2.076-1.755 2.076-1.046 0-1.784-.85-1.784-2.062v-.878h.71v.878c0 .766.39 1.281 1.074 1.281.64 0 1.03-.529 1.03-1.296v-.542c0-.753-.265-1.421-1.059-1.421h-.543v-.767zm.069.697h.474c.836 0 1.128.697 1.128 1.492v.542c0 .794-.418 1.366-1.1 1.366-.725 0-1.143-.544-1.143-1.352v-.809h-.571v.809c0 1.17.71 1.992 1.714 1.992 1.072 0 1.686-.891 1.686-2.007v-.542c0-.864-.251-1.506-.836-1.84.515-.39.724-.934.724-1.644v-2.005c0-1.241-.71-1.812-1.545-1.812-.753 0-1.631.404-1.631 1.825v.71h.572v-.696c0-.738.376-1.212 1.059-1.212.515 0 .947.376.947 1.198v1.992c0 .71-.347 1.323-1.017 1.366h-.46v.627zm.126-.501h.348c.738-.028 1.128-.71 1.128-1.491v-1.992c0-.905-.473-1.338-1.072-1.338-.753 0-1.185.53-1.185 1.352v.557h-.321v-.571c0-1.31.822-1.685 1.505-1.685.766 0 1.421.515 1.421 1.672v2.005c0 .724-.279 1.31-.878 1.658.696.265.989.905.989 1.826v.542c0 1.031-.571 1.867-1.56 1.867-.933 0-1.589-.751-1.589-1.853v-.669h.321v.669c0 .891.473 1.477 1.268 1.477.766 0 1.226-.614 1.226-1.492v-.542c0-.864-.32-1.63-1.254-1.63h-.348v-.362z" fill="#333533"/><path d="m134.28 129.689v1.045c-.028 1.143-.626 2.048-1.77 2.048-1.142 0-1.783-.905-1.783-2.048v-5.824c0-1.156.71-2.048 1.798-2.048 1.114 0 1.712.836 1.712 2.062v.529h-.71v-.529c0-.767-.333-1.323-1.002-1.323-.655 0-1.046.501-1.074 1.309v3.163c.293-.278.725-.445 1.087-.445 1.046-.001 1.742.724 1.742 2.061zm-2.897-1.449v-3.33c.028-.849.445-1.364 1.143-1.364.71 0 1.059.57 1.059 1.379v.459h.584v-.459c0-1.185-.584-1.993-1.643-1.993-1.046 0-1.728.85-1.728 1.978v5.824c0 1.115.614 1.979 1.713 1.979 1.115 0 1.671-.849 1.699-1.979v-1.045c0-1.282-.668-1.992-1.671-1.992-.404 0-.836.195-1.156.543zm2.703 1.449v1.045c-.028 1.045-.559 1.839-1.575 1.839-1.017 0-1.588-.809-1.588-1.839 0-1.491 0-4.583 0-5.824 0-1.045.627-1.853 1.603-1.853.989 0 1.519.767 1.519 1.868v.334h-.334v-.334c0-.892-.391-1.519-1.184-1.519-.767 0-1.241.571-1.268 1.504v3.693c.292-.502.822-.767 1.282-.767.932 0 1.545.655 1.545 1.853zm-.336 0c0-1.03-.432-1.504-1.211-1.504-.794 0-1.268.669-1.268 1.49 0-.027 0 .781 0 1.06 0 .794.432 1.463 1.239 1.463.822 0 1.24-.668 1.24-1.477zm-.125 1.031c0 .738-.376 1.352-1.115 1.352-.738 0-1.114-.613-1.114-1.337v-1.06c0-.751.417-1.365 1.142-1.365.71 0 1.086.446 1.086 1.379v1.031zm-.07-1.031c0-.892-.361-1.309-1.016-1.309-.683 0-1.087.571-1.087 1.295v1.06c0 .683.376 1.268 1.059 1.268.698 0 1.044-.585 1.044-1.282z" fill="#333533"/><path d="m174.294 168.399c0 1.17-.669 2.062-1.811 2.062-1.074 0-1.742-.961-1.742-2.076v-.529h.709v.529c0 .725.377 1.296 1.032 1.296.737 0 1.114-.558 1.114-1.282v-2.117c-.265.292-.655.543-1.058.543-1.394 0-1.797-1.338-1.797-2.508v-1.366c0-1.185.501-2.438 1.797-2.438 1.268 0 1.755 1.171 1.755 2.453v5.433zm-.069-5.434c0-1.24-.475-2.383-1.686-2.383-1.254 0-1.742 1.212-1.742 2.369v1.366c0 1.142.39 2.438 1.742 2.438.445 0 .864-.293 1.114-.655v2.299c0 .752-.39 1.351-1.17 1.351-.712 0-1.088-.613-1.088-1.365v-.473h-.584v.473c0 1.073.64 2.007 1.672 2.007 1.1 0 1.741-.851 1.741-1.993v-5.434zm-.112 5.434c0 1.059-.6 1.853-1.629 1.853-.962 0-1.546-.863-1.546-1.867v-.334h.333v.334c0 .836.432 1.491 1.213 1.491.863 0 1.295-.655 1.295-1.477v-2.829c-.181.572-.642 1.045-1.239 1.045-1.254 0-1.617-1.226-1.617-2.298 0-.433 0-.85 0-1.366 0-1.087.459-2.244 1.617-2.244 1.128 0 1.574 1.087 1.574 2.258v5.434zm-.363-5.434c0-.892-.25-1.881-1.211-1.881-.919 0-1.269.976-1.269 1.867v1.366c0 .752.209 1.923 1.269 1.923.864 0 1.211-1.143 1.211-1.937zm-.11 1.338c0 .738-.335 1.811-1.101 1.811-.961 0-1.144-1.101-1.144-1.797v-1.366c0-.822.321-1.727 1.144-1.727.864 0 1.101.919 1.101 1.741zm-.071-1.338c0-.794-.222-1.686-1.03-1.686-.781 0-1.073.878-1.073 1.672v1.366c0 .668.167 1.727 1.073 1.727.724 0 1.03-1.031 1.03-1.741z" fill="#333533"/><path d="m526.734 282.209 8.527-9.728c.596-.715 2.174-1.163 3.231-.558-.067-.081-.141-.154-.222-.222l-.282-.234-.28-.232c-1.039-.864-2.848-.402-3.494.376l-8.525 9.729c-.647.777-.069 2.322.97 3.186l.281.233.281.234c.08.066.165.129.252.189-.886-.885-1.334-2.256-.739-2.973z" fill="#9cda93"/><path d="m539.547 276.126c.647-.776.812-2.689-.229-3.553l-.281-.234-.279-.234c-.084-.068-.173-.129-.265-.181.789.935.602 2.615.007 3.331l-7.968 10.111c-.596.716-2.025.527-3.059-.184.075.074.151.147.233.213l.28.234.281.233c1.039.864 2.664 1.15 3.311.374z" fill="#4e8e62"/><path d="m530.532 285.366 7.968-10.111c.595-.716.782-2.396-.007-3.331-1.058-.605-2.636-.157-3.231.558l-8.527 9.728c-.596.717-.147 2.088.739 2.974 1.033.71 2.463.898 3.058.182z" fill="#71ab75"/><path d="m536.036 269.311c.122.461.242.921.364 1.382.038.141.262.153.225.013-.12-.46-.242-.921-.362-1.381-.038-.143-.263-.155-.227-.014z" fill="#9cda93"/><path d="m537.943 269.956c-.159.392-.321.78-.481 1.173-.046.115.175.233.222.119.161-.392.321-.782.48-1.173.049-.116-.174-.235-.221-.119z" fill="#9cda93"/><path d="m534.574 269.612c.241.421.481.841.723 1.261.078.135.282.094.204-.044-.24-.421-.482-.84-.723-1.26-.079-.135-.283-.092-.204.043z" fill="#9cda93"/><path d="m533.175 270.232c.493.533.986 1.066 1.479 1.6.11.119.278.022.169-.098-.492-.533-.986-1.066-1.478-1.6-.111-.117-.281-.022-.17.098z" fill="#9cda93"/><path d="m532.009 270.989c.642.509 1.282 1.019 1.923 1.529.129.102.25-.044.121-.146-.641-.51-1.281-1.021-1.923-1.529-.129-.102-.25.044-.121.146z" fill="#9cda93"/><path d="m531.104 272.244c.515.428 1.029.856 1.544 1.284.126.105.247-.041.121-.146-.515-.427-1.029-.854-1.543-1.283-.126-.105-.247.04-.122.145z" fill="#9cda93"/><path d="m530.102 273.451c.524.437 1.048.873 1.574 1.309.125.105.248-.041.121-.146-.523-.437-1.049-.873-1.574-1.309-.126-.106-.248.042-.121.146z" fill="#9cda93"/><path d="m529.099 274.657c.455.378.908.756 1.363 1.135.126.104.249-.041.121-.146-.455-.378-.908-.756-1.363-1.134-.127-.106-.248.04-.121.145z" fill="#9cda93"/><path d="m528.095 275.864c.442.369.887.737 1.33 1.106.128.105.249-.04.122-.146-.443-.369-.888-.738-1.331-1.106-.128-.105-.249.041-.121.146z" fill="#9cda93"/><path d="m527.092 277.071c.52.433 1.041.866 1.562 1.299.127.105.248-.042.122-.146-.521-.434-1.042-.866-1.562-1.299-.128-.106-.249.041-.122.146z" fill="#9cda93"/><path d="m526.088 278.278c.574.477 1.149.955 1.725 1.432.127.106.248-.04.121-.146-.575-.478-1.15-.956-1.724-1.432-.127-.106-.249.04-.122.146z" fill="#9cda93"/><path d="m525.085 279.485c.521.432 1.042.866 1.562 1.298.127.106.25-.041.122-.146-.521-.434-1.042-.866-1.562-1.299-.127-.106-.249.041-.122.147z" fill="#9cda93"/><g fill="#4e8e62"><path d="m541.577 274.07c-.55-.086-1.099-.17-1.648-.256-.149-.023-.094.196.053.219.549.086 1.099.172 1.648.256.147.023.093-.197-.053-.219z"/><path d="m540.403 271.971c-.333.312-.665.626-.997.938-.09.085.107.247.196.164.331-.314.664-.627.998-.94.089-.085-.108-.247-.197-.162z"/><path d="m539.325 270.739c-.335.391-.668.783-1.002 1.175-.079.093.116.256.195.164.334-.393.668-.784 1.002-1.176.082-.093-.115-.256-.195-.163z"/><path d="m541.616 275.572c-.574-.256-1.149-.512-1.723-.766-.146-.063-.213.119-.066.185.575.256 1.149.51 1.724.763.145.065.211-.117.065-.182z"/><path d="m540.916 276.817c-.614-.387-1.229-.774-1.842-1.161-.139-.088-.202.098-.064.185.613.386 1.228.773 1.842 1.161.137.087.201-.099.064-.185z"/><path d="m540.441 278.142c-.617-.538-1.235-1.075-1.854-1.612-.125-.108-.245.037-.12.146.616.538 1.233 1.074 1.853 1.612.123.107.244-.039.121-.146z"/><path d="m539.373 279.259c-.516-.429-1.03-.856-1.545-1.285-.126-.104-.247.042-.121.146.515.429 1.029.856 1.545 1.284.127.106.248-.04.121-.145z"/><path d="m538.37 280.466c-.525-.437-1.051-.873-1.575-1.31-.126-.105-.247.041-.121.146.524.437 1.05.873 1.575 1.31.126.105.247-.041.121-.146z"/><path d="m537.367 281.672c-.455-.378-.91-.757-1.364-1.134-.127-.106-.249.042-.122.147.454.376.909.755 1.363 1.133.128.106.249-.041.123-.146z"/><path d="m536.363 282.879c-.444-.369-.887-.737-1.331-1.106-.126-.105-.248.04-.122.146.443.369.888.738 1.332 1.106.127.105.248-.041.121-.146z"/><path d="m535.36 284.086c-.521-.434-1.042-.867-1.562-1.3-.128-.105-.25.042-.123.146.52.434 1.041.866 1.562 1.299.128.106.25-.04.123-.145z"/><path d="m534.357 285.292c-.575-.479-1.149-.955-1.725-1.434-.126-.104-.248.041-.121.146.575.479 1.149.957 1.725 1.434.126.105.247-.041.121-.146z"/><path d="m533.354 286.499c-.521-.433-1.042-.866-1.562-1.299-.127-.105-.249.04-.122.146.521.433 1.041.866 1.563 1.299.125.106.247-.041.121-.146z"/></g><path d="m521.914 291.721-9.174-10.465c-.641-.769-2.337-1.251-3.476-.599.072-.087.151-.167.238-.238l.304-.254.302-.249c1.118-.93 3.063-.433 3.759.403l9.172 10.466c.695.837.073 2.499-1.043 3.427l-.303.252-.303.252c-.087.071-.178.139-.271.204.955-.954 1.436-2.429.795-3.199z" fill="#9cda93"/><path d="m508.131 285.177c-.695-.835-.871-2.894.246-3.821l.302-.253.303-.251c.089-.073.185-.14.283-.194-.849 1.005-.646 2.812-.007 3.583l8.571 10.877c.641.771 2.18.567 3.291-.197-.082.078-.164.158-.252.229l-.301.252-.304.251c-1.117.931-2.866 1.237-3.561.402z" fill="#4e8e62"/><path d="m517.829 295.117-8.571-10.877c-.64-.771-.842-2.578.007-3.583 1.139-.652 2.835-.17 3.476.599l9.174 10.465c.641.771.16 2.245-.794 3.199-1.112.765-2.651.968-3.292.197z" fill="#71ab75"/><path d="m511.907 277.846c-.131.495-.26.99-.391 1.485-.042.152-.281.165-.241.014.129-.494.261-.99.389-1.484.042-.154.284-.168.243-.015z" fill="#9cda93"/><path d="m509.856 278.54c.172.421.345.839.518 1.261.05.125-.188.252-.238.129-.174-.421-.347-.842-.517-1.263-.054-.124.187-.252.237-.127z" fill="#9cda93"/><path d="m513.481 278.171c-.261.452-.519.903-.777 1.356-.085.144-.304.099-.221-.048.259-.453.519-.904.778-1.355.085-.145.305-.1.22.047z" fill="#9cda93"/><path d="m514.987 278.837c-.531.574-1.063 1.147-1.591 1.721-.119.128-.3.023-.183-.104.529-.574 1.062-1.147 1.59-1.721.119-.129.301-.024.184.104z" fill="#9cda93"/><path d="m516.24 279.651c-.689.547-1.379 1.096-2.067 1.646-.139.108-.27-.048-.131-.157.689-.549 1.379-1.098 2.067-1.645.14-.11.271.047.131.156z" fill="#9cda93"/><path d="m517.214 281.002c-.554.46-1.108.921-1.662 1.381-.136.113-.265-.044-.13-.158.553-.458 1.107-.92 1.66-1.379.137-.115.268.042.132.156z" fill="#9cda93"/><path d="m518.293 282.3c-.565.469-1.128.938-1.694 1.407-.134.113-.267-.044-.13-.158.562-.469 1.128-.938 1.693-1.407.136-.113.268.045.131.158z" fill="#9cda93"/><path d="m519.371 283.597c-.489.406-.977.813-1.468 1.221-.134.112-.267-.044-.129-.157.489-.406.977-.813 1.466-1.22.137-.113.268.043.131.156z" fill="#9cda93"/><path d="m520.451 284.896c-.476.397-.954.793-1.431 1.19-.138.113-.269-.043-.132-.157.478-.397.955-.793 1.433-1.189.138-.115.267.042.13.156z" fill="#9cda93"/><path d="m521.529 286.194c-.559.465-1.118.931-1.679 1.396-.137.112-.268-.045-.132-.157.56-.466 1.12-.933 1.682-1.398.137-.112.267.046.129.159z" fill="#9cda93"/><path d="m522.609 287.492c-.617.514-1.236 1.027-1.854 1.541-.137.114-.268-.044-.131-.157.618-.515 1.236-1.028 1.854-1.54.137-.114.268.042.131.156z" fill="#9cda93"/><path d="m523.689 288.791c-.562.465-1.121.932-1.681 1.396-.137.114-.269-.043-.132-.157.561-.465 1.121-.931 1.681-1.396.137-.116.268.042.132.157z" fill="#9cda93"/><g fill="#4e8e62"><path d="m505.947 282.966c.592-.093 1.183-.184 1.773-.275.16-.025.102.211-.057.235-.591.093-1.182.185-1.773.275-.157.026-.099-.212.057-.235z"/><path d="m507.21 280.707c.357.336.716.673 1.073 1.01.096.091-.115.266-.212.177-.356-.339-.714-.675-1.072-1.012-.097-.093.114-.267.211-.175z"/><path d="m508.371 279.382c.359.422.718.844 1.077 1.264.086.101-.126.275-.21.177-.359-.422-.72-.843-1.078-1.264-.086-.102.124-.277.211-.177z"/><path d="m505.905 284.581c.618-.274 1.236-.55 1.853-.824.157-.068.23.13.072.199-.618.275-1.237.548-1.854.821-.156.07-.227-.126-.071-.196z"/><path d="m506.659 285.921c.66-.416 1.32-.833 1.98-1.249.149-.096.218.105.07.198-.661.414-1.321.831-1.981 1.249-.148.094-.216-.105-.069-.198z"/><path d="m507.169 287.346c.665-.58 1.329-1.157 1.994-1.734.135-.117.263.039.13.156-.663.578-1.328 1.154-1.993 1.734-.134.115-.263-.042-.131-.156z"/><path d="m508.319 288.548c.554-.463 1.106-.923 1.661-1.384.136-.111.267.046.131.158-.555.461-1.108.922-1.662 1.382-.137.113-.266-.043-.13-.156z"/><path d="m509.398 289.846c.563-.469 1.13-.938 1.693-1.408.136-.114.267.043.131.156-.564.47-1.13.939-1.695 1.409-.134.112-.264-.044-.129-.157z"/><path d="m510.477 291.143c.489-.406.979-.813 1.467-1.22.137-.113.269.046.132.158-.488.406-.978.813-1.468 1.221-.136.112-.267-.046-.131-.159z"/><path d="m511.557 292.441c.479-.397.954-.793 1.431-1.19.136-.113.269.043.132.157-.477.397-.955.793-1.432 1.189-.137.115-.268-.042-.131-.156z"/><path d="m512.635 293.74c.561-.468 1.122-.934 1.681-1.399.138-.112.269.046.131.159-.559.465-1.119.931-1.679 1.396-.137.113-.27-.043-.133-.156z"/><path d="m513.714 295.037c.619-.515 1.236-1.028 1.855-1.542.136-.113.267.043.131.157-.619.514-1.237 1.028-1.855 1.542-.136.113-.267-.044-.131-.157z"/><path d="m514.794 296.335c.562-.465 1.121-.931 1.681-1.396.137-.113.269.043.132.156-.562.466-1.12.933-1.682 1.396-.136.115-.267-.042-.131-.156z"/></g><path d="m520.724 298.933.616-23.56c0-1.694 1.689-4.161 3.876-4.544-.188-.034-.376-.053-.567-.053h-.668-.665c-2.462 0-4.456 2.756-4.456 4.597l-.615 23.56c0 1.841 2.609 3.333 5.071 3.333h.665.668c.189 0 .381-.012.573-.027-2.276-.209-4.498-1.609-4.498-3.306z" fill="#9cda93"/><path d="m531.587 275.487c0-1.84-1.997-4.711-4.458-4.711h-.667-.665c-.196 0-.392.019-.581.053 2.194.392 3.89 2.962 3.89 4.658l.614 23.445c0 1.697-2.222 3.098-4.498 3.306.192.016.384.027.575.027h.665.667c2.461 0 5.072-1.492 5.072-3.333z" fill="#4e8e62"/><path d="m529.72 298.933-.614-23.445c0-1.696-1.695-4.267-3.89-4.658-2.187.383-3.876 2.85-3.876 4.544l-.616 23.56c0 1.697 2.223 3.098 4.498 3.306 2.276-.21 4.498-1.61 4.498-3.307z" fill="#71ab75"/><path d="m518.732 270.029c.707.504 1.412 1.008 2.117 1.512.218.154.547-.091.329-.244-.704-.504-1.411-1.008-2.117-1.512-.215-.154-.545.09-.329.244z" fill="#9cda93"/><path d="m522.154 268.714c.231.733.46 1.468.692 2.202.068.217.517.125.448-.092-.23-.734-.46-1.469-.692-2.202-.067-.218-.516-.126-.448.092z" fill="#9cda93"/><path d="m517.034 272.156c.827.309 1.653.615 2.481.924.267.099.503-.198.234-.3-.826-.309-1.654-.615-2.48-.923-.268-.098-.502.199-.235.299z" fill="#9cda93"/><path d="m515.797 274.654 3.933.519c.292.04.417-.294.124-.333-1.312-.174-2.622-.347-3.934-.521-.292-.037-.418.295-.123.335z" fill="#9cda93"/><path d="m515.045 277.074c1.49-.033 2.981-.066 4.473-.1.299-.006.3-.353 0-.345-1.491.032-2.982.064-4.473.098-.3.008-.301.354 0 .347z" fill="#9cda93"/><path d="m515.239 279.884h3.657c.3 0 .3-.346 0-.346-1.219 0-2.438 0-3.657 0-.301 0-.301.346 0 .346z" fill="#9cda93"/><path d="m515.239 282.743h3.729c.301 0 .301-.347 0-.347-1.242 0-2.485 0-3.729 0-.301 0-.301.347 0 .347z" fill="#9cda93"/><path d="m515.239 285.602h3.231c.299 0 .299-.347 0-.347-1.078 0-2.154 0-3.231 0-.301 0-.301.347 0 .347z" fill="#9cda93"/><path d="m515.239 288.461h3.152c.301 0 .301-.347 0-.347-1.051 0-2.103 0-3.152 0-.301 0-.301.347 0 .347z" fill="#9cda93"/><path d="m515.239 291.32h3.701c.3 0 .3-.348 0-.348-1.233 0-2.468 0-3.701 0-.301.001-.301.348 0 .348z" fill="#9cda93"/><path d="m515.239 294.178h4.083c.301 0 .301-.346 0-.346-1.361 0-2.723 0-4.083 0-.301 0-.301.346 0 .346z" fill="#9cda93"/><path d="m515.239 297.037h3.701c.3 0 .3-.346 0-.346-1.233 0-2.468 0-3.701 0-.301 0-.301.346 0 .346z" fill="#9cda93"/><g fill="#4e8e62"><path d="m532.036 270.245c-.87.52-1.739 1.04-2.607 1.562-.233.14.098.383.329.244.869-.521 1.737-1.04 2.607-1.562.234-.139-.097-.383-.329-.244z"/><path d="m527.946 268.668c-.102.827-.203 1.654-.302 2.479-.028.223.438.22.465 0 .1-.825.2-1.652.302-2.479.027-.224-.438-.221-.465 0z"/><path d="m525 268.201c-.012.938-.022 1.875-.034 2.812-.002.223.463.223.465 0 .013-.938.023-1.874.034-2.812.004-.223-.461-.223-.465 0z"/><path d="m533.839 272.302c-1.101.312-2.203.624-3.304.936-.277.079-.157.413.124.334 1.101-.312 2.202-.624 3.302-.936.279-.079.159-.413-.122-.334z"/><path d="m534.309 274.861c-1.309.174-2.621.348-3.931.52-.296.039-.17.373.124.334 1.309-.174 2.62-.346 3.931-.519.295-.039.169-.373-.124-.335z"/><path d="m535.187 277.271c-1.492-.033-2.983-.067-4.474-.099-.301-.008-.3.337 0 .345 1.49.034 2.981.065 4.474.101.299.005.297-.342 0-.347z"/><path d="m534.992 280.08c-1.221 0-2.44 0-3.659 0-.3 0-.3.346 0 .346h3.659c.299 0 .299-.346 0-.346z"/><path d="m534.992 282.939c-1.244 0-2.488 0-3.731 0-.3 0-.3.346 0 .346h3.731c.299 0 .299-.346 0-.346z"/><path d="m534.992 285.797c-1.079 0-2.156 0-3.232 0-.3 0-.3.348 0 .348h3.232c.299 0 .299-.348 0-.348z"/><path d="m534.992 288.656c-1.052 0-2.104 0-3.154 0-.3 0-.3.346 0 .346h3.154c.299 0 .299-.346 0-.346z"/><path d="m534.992 291.516c-1.235 0-2.47 0-3.702 0-.301 0-.301.346 0 .346h3.702c.299-.001.299-.346 0-.346z"/><path d="m534.992 294.373c-1.362 0-2.724 0-4.085 0-.3 0-.3.347 0 .347h4.085c.299 0 .299-.347 0-.347z"/><path d="m534.992 297.232c-1.235 0-2.47 0-3.702 0-.301 0-.301.347 0 .347h3.702c.299 0 .299-.347 0-.347z"/></g><path d="m539.526 295.85h-29.12v18.008s8.029 7.727 7.838 7.646l21.282-23.016z" fill="#ffc192"/><path d="m518.244 321.503c1.724-.088 14.864 0 14.864 0l6.432-7.719v-15.653z" fill="#ffa796"/><path d="m404.04 271.859v4.621c0 .559.867.559.867 0 0-1.54 0-3.081 0-4.621 0-.558-.867-.558-.867 0z" fill="#aaa"/><path d="m411.995 312.321v-31.208c0-2.021-.924-3.838-2.391-5.117-3.518.342-7.061.46-10.41.126-1.383 1.271-2.241 3.037-2.241 4.991v25.583c3.288 4.935 8.949 6.161 15.042 5.625z" fill="#ffeabb"/><path d="m396.953 306.696v6.96c0 3.871 3.367 7.011 7.521 7.011s7.521-3.14 7.521-7.011v-1.335c-6.093.536-11.754-.69-15.042-5.625z" fill="#edd9b0"/><path d="m414.742 317.404c0 1.801-1.461 3.263-3.262 3.263h-14.014c-1.801 0-3.262-1.462-3.262-3.263s1.461-3.262 3.262-3.262h14.014c1.801.001 3.262 1.462 3.262 3.262z" fill="#e6c49f"/><path d="m433.975 281.813v3.691c0 .446.692.446.692 0 0-1.23 0-2.461 0-3.691 0-.446-.692-.446-.692 0z" fill="#aaa"/><path d="m440.329 314.138v-24.933c0-1.614-.737-3.065-1.909-4.087-2.811.272-5.641.367-8.316.101-1.105 1.017-1.791 2.427-1.791 3.986v20.438c2.626 3.943 7.148 4.924 12.016 4.495z" fill="#ffeabb"/><path d="m428.312 309.644v5.562c0 3.093 2.69 5.601 6.008 5.601s6.009-2.508 6.009-5.601v-1.067c-4.868.428-9.39-.553-12.017-4.495z" fill="#edd9b0"/><path d="m442.524 318.2c0 1.438-1.167 2.605-2.606 2.605h-11.195c-1.438 0-2.605-1.167-2.605-2.605 0-1.439 1.167-2.607 2.605-2.607h11.195c1.439 0 2.606 1.168 2.606 2.607z" fill="#e6c49f"/><path d="m312.187 0h2.401v99.944h-2.401z" fill="#ffa796"/><path d="m320.96 101.314c0-4.183-3.39-7.573-7.573-7.573s-7.573 3.39-7.573 7.573v12.622h15.146z" fill="#674242"/><path d="m319.37 151.315c0 3.304-2.679 5.983-5.984 5.983-3.304 0-5.982-2.679-5.982-5.983v-11.832c0-3.305 2.678-5.983 5.982-5.983 3.305 0 5.984 2.678 5.984 5.983z" fill="#f9db68"/><ellipse cx="313.387" cy="147.862" fill="#f9f3d4" rx="1.2" ry="4.865"/><path d="m358.385 141.069-37.425-27.677h-7.575-7.571l-37.425 27.677s-1.885 3.765 1.13 4.33h43.866 43.87c3.013-.565 1.13-4.33 1.13-4.33z" fill="#674242"/><path d="m310.348 113.393-29.087 28.493 11.39-.051 20.735-28.442z" fill="#7c5959"/><path d="m281.261 141.886s-1.11 2.347 0 3.513h11.673s-1.142-2.386-.283-3.563z" fill="#7c5959"/><path d="m310.348 113.393 1.006-19.374s1.073-.338 2.033-.277l-.001 19.651z" fill="#7c5959"/></svg>