<svg id="Layer_1" data-name="Layer 1" xmlns="http://www.w3.org/2000/svg" viewBox="0 0 50 50"><defs><style>.cls-1{fill:#f9320b;}.cls-2{fill:#3b0f37;}.cls-3{fill:#fff;}</style></defs><path class="cls-1" d="M42.31,14.62V44a3.48,3.48,0,0,1-3.47,3.46H11.15A3.47,3.47,0,0,1,7.69,44V6A3.48,3.48,0,0,1,11.16,2.5h19Z"/><polygon class="cls-2" points="30.19 2.5 30.19 14.62 42.31 14.62 30.19 2.5"/><path class="cls-3" d="M33.65,25H21.54a1.73,1.73,0,1,1,0-3.46H33.65a1.73,1.73,0,1,1,0,3.46Z"/><path class="cls-3" d="M33.65,31.92h-19a1.73,1.73,0,1,1,0-3.46h19a1.73,1.73,0,1,1,0,3.46Z"/><path class="cls-3" d="M25,38.84H14.62a1.73,1.73,0,1,1,0-3.46H25a1.73,1.73,0,1,1,0,3.46Z"/></svg>