<svg id="Layer_1" data-name="Layer 1" xmlns="http://www.w3.org/2000/svg" viewBox="0 0 100 100"><defs><style>.cls-1{fill:#f9320b;}</style></defs><path class="cls-1" d="M50,91.63A41.63,41.63,0,1,1,91.63,50,41.68,41.68,0,0,1,50,91.63Zm0-79.1A37.47,37.47,0,1,0,87.47,50,37.51,37.51,0,0,0,50,12.53Z"/><circle class="cls-1" cx="23.03" cy="50" r="1.82"/><circle class="cls-1" cx="76.97" cy="50" r="1.82"/><path class="cls-1" d="M27.93,37.6l.78.86-.85,1.4-3.95-4.53L25,33.48l5.87,1.38L30,36.35l-1.13-.28Zm-.28-1.93c-.91-.24-1.7-.47-2.25-.65v0c.46.44,1,1.05,1.62,1.68Z"/><path class="cls-1" d="M28.54,29l2-1.76a1.9,1.9,0,0,1,2.83-.05A1.92,1.92,0,0,1,33,30.1l-.71.63,1.32,1.51-1.24,1.09Zm2.92.8.51-.45c.35-.31.48-.68.16-1s-.7-.29-1.05,0l-.52.46Z"/><path class="cls-1" d="M35.55,23.71,38,22.61a1.88,1.88,0,1,1,1.5,3.4l-.87.4.84,1.83-1.51.68Zm2.55,1.62.63-.28c.43-.2.65-.52.45-.95s-.59-.48-1-.29l-.63.29Z"/><path class="cls-1" d="M45.86,24l.29,2.15-1.61.22-.77-5.68,2.82-.38c1.33-.18,2.08.45,2.19,1.31A1.39,1.39,0,0,1,48.11,23c.38.07.81.4.94,1.36l0,.24a5.09,5.09,0,0,0,.22,1l-1.59.22a3.91,3.91,0,0,1-.29-1.22l0-.15c-.06-.49-.22-.74-.95-.65Zm-.15-1.16.77-.1c.55-.07.72-.33.67-.71s-.32-.57-.83-.5l-.77.1Z"/><path class="cls-1" d="M57.63,23.88a2.77,2.77,0,0,1-3.41,2.41,2.73,2.73,0,0,1-2.29-3.43,2.78,2.78,0,0,1,3.42-2.4A2.72,2.72,0,0,1,57.63,23.88Zm-4-.74c-.19,1,0,1.82.84,2s1.28-.56,1.45-1.52,0-1.8-.84-1.95S53.83,22.09,53.64,23.14Z"/><path class="cls-1" d="M60.47,28.18l1-6L63,23l-.53,2.5c-.16.78-.29,1.31-.48,1.94h0A19.64,19.64,0,0,1,63.35,26l1.81-1.84,1.52.81-4.46,4.11Z"/><path class="cls-1" d="M70.14,32.65l-1.85-1.83-.76.76,2.07,2.05-1,.75-3.09-3.05,4-4.07,3.08,3-.87.89-1.93-1.91-.65.65L71,31.77Z"/><path class="cls-1" d="M75.12,33.58l1.16,2.17a2.65,2.65,0,0,1-1.1,3.86,2.74,2.74,0,0,1-4-1.18l-1.15-2.14Zm-3.18,3.61.3.57c.43.8,1.17.83,2.12.32s1.23-1,.79-1.86l-.31-.59Z"/><path class="cls-1" d="M25.32,64.82l-1.09.32-.86-1.34L29,62.26,30.16,64l-3.7,4.56-.92-1.44.73-.87Zm1.81.58c.6-.7,1.14-1.3,1.53-1.7v0c-.58.22-1.37.47-2.16.71Z"/><path class="cls-1" d="M32.43,66.91l2,1.69A1.83,1.83,0,1,1,32,71.31l-.7-.61L30,72.18l-1.22-1.06ZM32,69.83l.5.44c.35.3.73.37,1,0s.19-.72-.16-1l-.5-.44Z"/><path class="cls-1" d="M37.75,71.09l2.35,1.09a1.83,1.83,0,1,1-1.57,3.26l-.84-.39-.83,1.77-1.46-.68ZM38.17,74l.61.28c.42.19.79.16,1-.27s0-.74-.43-.93l-.61-.28Z"/><path class="cls-1" d="M45,77.32l-.33,2.08-1.57-.25L44,73.64l2.73.44c1.3.21,1.81,1,1.68,1.83a1.37,1.37,0,0,1-1,1.18c.32.17.64.6.49,1.53l0,.23a5.92,5.92,0,0,0-.09,1l-1.54-.24a3.71,3.71,0,0,1,.07-1.23l0-.14c.07-.47,0-.75-.71-.87Zm.18-1.12.75.12c.53.08.76-.11.82-.48s-.14-.62-.63-.7L45.41,75Z"/><path class="cls-1" d="M56.48,76.45A2.7,2.7,0,0,1,54,79.71a2.64,2.64,0,0,1-3.15-2.49A2.7,2.7,0,0,1,53.34,74,2.66,2.66,0,0,1,56.48,76.45ZM52.55,77c.14,1,.58,1.68,1.38,1.57s1-.9.89-1.85-.53-1.66-1.38-1.55S52.41,75.94,52.55,77Z"/><path class="cls-1" d="M61.57,77.57l-4.06-4.28,1.58-.72,1.63,1.89c.5.58.84,1,1.21,1.51h0a17.61,17.61,0,0,1-.34-1.9l-.36-2.49,1.53-.7.55,5.89Z"/><path class="cls-1" d="M69.49,69.7l-1.94,1.65.68.79,2.16-1.83.65,1-3.23,2.74-3.6-4.26,3.22-2.73.78.92-2,1.72.58.68,1.94-1.64Z"/><path class="cls-1" d="M68.9,65.5l1.32-2A2.58,2.58,0,0,1,74,62.67a2.66,2.66,0,0,1,.82,3.93l-1.31,2Zm4.57,1.06.34-.52c.49-.74.17-1.39-.7-2s-1.47-.57-2,.17l-.36.54Z"/><path class="cls-1" d="M49.25,61.69A2.6,2.6,0,0,1,47.49,61l-9.64-8.88a2.6,2.6,0,0,1,3.52-3.82l7.42,6.83,9.45-13.92a2.6,2.6,0,0,1,4.3,2.91L51.4,60.55a2.59,2.59,0,0,1-1.85,1.13Z"/></svg>