<svg id="Layer_1" data-name="Layer 1" xmlns="http://www.w3.org/2000/svg" viewBox="0 0 350 159"><defs><style>.cls-1,.cls-4,.cls-8{fill:#fff;}.cls-1,.cls-2,.cls-3,.cls-4,.cls-5{stroke:#1a2e35;}.cls-1,.cls-2,.cls-3,.cls-4,.cls-5,.cls-6{stroke-linecap:round;stroke-linejoin:round;}.cls-2,.cls-9{fill:#f9320b;}.cls-3{fill:#1a2e35;}.cls-4{stroke-width:0.5px;}.cls-5,.cls-6{fill:none;}.cls-6{stroke:#f9320b;}.cls-6,.cls-7,.cls-8,.cls-9{fill-rule:evenodd;}.cls-7{fill:#3b0f37;opacity:0.1;}</style></defs><rect class="cls-1" x="132.57" y="73.25" width="197.2" height="62.23"/><polygon class="cls-2" points="231.44 16.47 133.09 73.25 329.78 73.25 231.44 16.47"/><rect class="cls-1" x="222.33" y="68.19" width="48.8" height="67.29"/><rect class="cls-3" x="222.33" y="68.19" width="48.8" height="2.86"/><path class="cls-3" d="M258.92,135.48H234.55V93.42a12.18,12.18,0,0,1,12.18-12.19h0a12.19,12.19,0,0,1,12.19,12.19Z"/><rect class="cls-1" x="118.41" y="84.15" width="113.04" height="51.33"/><rect class="cls-3" x="118.41" y="84.15" width="113.04" height="2.29"/><rect class="cls-1" x="130.85" y="88.38" width="88.16" height="47.1"/><polygon class="cls-2" points="174.93 46.6 114.94 81.23 234.92 81.23 174.93 46.6"/><rect class="cls-2" x="114.94" y="81.23" width="119.98" height="2.92"/><polygon class="cls-2" points="246.73 48.66 215.66 66.6 277.8 66.6 246.73 48.66"/><rect class="cls-2" x="215.66" y="66.6" width="62.14" height="2.88"/><rect class="cls-4" x="134.06" y="92.17" width="7.14" height="7.14"/><rect class="cls-4" x="144.77" y="92.17" width="7.14" height="7.14"/><rect class="cls-4" x="155.48" y="92.17" width="7.14" height="7.14"/><rect class="cls-4" x="166.19" y="92.17" width="7.14" height="7.14"/><rect class="cls-4" x="176.9" y="92.17" width="7.14" height="7.14"/><rect class="cls-4" x="187.61" y="92.17" width="7.14" height="7.14"/><rect class="cls-4" x="198.32" y="92.17" width="7.14" height="7.14"/><rect class="cls-4" x="209.03" y="92.17" width="7.14" height="7.14"/><rect class="cls-4" x="134.06" y="102.67" width="7.14" height="7.14"/><rect class="cls-4" x="144.77" y="102.67" width="7.14" height="7.14"/><rect class="cls-4" x="155.48" y="102.67" width="7.14" height="7.14"/><rect class="cls-4" x="166.19" y="102.67" width="7.14" height="7.14"/><rect class="cls-4" x="176.9" y="102.67" width="7.14" height="7.14"/><rect class="cls-4" x="187.61" y="102.67" width="7.14" height="7.14"/><rect class="cls-4" x="198.32" y="102.67" width="7.14" height="7.14"/><rect class="cls-4" x="209.03" y="102.67" width="7.14" height="7.14"/><rect class="cls-4" x="134.06" y="113.18" width="7.14" height="7.14"/><rect class="cls-4" x="144.77" y="113.18" width="7.14" height="7.14"/><rect class="cls-4" x="155.48" y="113.18" width="7.14" height="7.14"/><rect class="cls-4" x="166.19" y="113.18" width="7.14" height="7.14"/><rect class="cls-4" x="176.9" y="113.18" width="7.14" height="7.14"/><rect class="cls-4" x="187.61" y="113.18" width="7.14" height="7.14"/><rect class="cls-4" x="198.32" y="113.18" width="7.14" height="7.14"/><rect class="cls-4" x="209.03" y="113.18" width="7.14" height="7.14"/><rect class="cls-4" x="134.06" y="123.68" width="7.14" height="7.14"/><rect class="cls-4" x="144.77" y="123.68" width="7.14" height="7.14"/><rect class="cls-4" x="155.48" y="123.68" width="7.14" height="7.14"/><rect class="cls-4" x="166.19" y="123.68" width="7.14" height="7.14"/><rect class="cls-4" x="176.9" y="123.68" width="7.14" height="7.14"/><rect class="cls-4" x="187.61" y="123.68" width="7.14" height="7.14"/><rect class="cls-4" x="198.32" y="123.68" width="7.14" height="7.14"/><rect class="cls-4" x="209.03" y="123.68" width="7.14" height="7.14"/><polygon class="cls-1" points="335.37 135.48 263.27 135.48 263.27 68.19 299.32 48.66 335.37 68.19 335.37 135.48"/><polygon class="cls-2" points="340.88 71.05 299.32 48.54 257.76 71.05 256.46 68.67 299.32 45.45 342.17 68.67 340.88 71.05"/><polygon class="cls-3" points="263.27 68.19 263.27 69.83 299.32 50.3 335.37 69.83 335.37 68.19 299.32 48.66 263.27 68.19"/><rect class="cls-3" x="300.48" y="91.25" width="12.1" height="8.41"/><rect class="cls-3" x="300.48" y="102.43" width="12.1" height="8.41"/><rect class="cls-3" x="300.48" y="79.51" width="12.1" height="8.98"/><rect class="cls-3" x="285.62" y="79.51" width="12.1" height="8.98"/><rect class="cls-3" x="285.62" y="102.43" width="12.1" height="8.41"/><rect class="cls-3" x="285.62" y="91.25" width="12.1" height="8.41"/><rect class="cls-3" x="300.48" y="113.6" width="12.1" height="7.74"/><rect class="cls-3" x="285.62" y="113.6" width="12.1" height="7.74"/><line class="cls-5" x1="226" y1="16.6" x2="106.13" y2="16.6"/><line class="cls-5" x1="115.38" y1="135.37" x2="105.42" y2="135.37"/><line class="cls-5" x1="109.83" y1="14.38" x2="109.83" y2="138.7"/><line class="cls-5" x1="335.51" y1="137.59" x2="335.51" y2="143.51"/><line class="cls-5" x1="118.34" y1="137.59" x2="118.34" y2="143.51"/><line class="cls-5" x1="115.38" y1="140.92" x2="339.21" y2="140.92"/><line class="cls-5" x1="164.58" y1="46.57" x2="104.28" y2="46.57"/><line class="cls-5" x1="106.13" y1="43.24" x2="106.13" y2="137.59"/><line class="cls-5" x1="258.56" y1="63.22" x2="258.56" y2="19.56"/><line class="cls-5" x1="341.43" y1="63.22" x2="341.43" y2="19.56"/><line class="cls-5" x1="256.34" y1="25.11" x2="344.76" y2="25.11"/><line class="cls-5" x1="234.14" y1="137.59" x2="234.14" y2="144.62"/><line class="cls-5" x1="258.93" y1="137.59" x2="258.93" y2="144.62"/><path class="cls-6" d="M15.68,28.34H87.86A10.28,10.28,0,0,1,98.11,38.58V137.8A10.28,10.28,0,0,1,87.86,148H15.68A10.27,10.27,0,0,1,5.44,137.8V38.58A10.27,10.27,0,0,1,15.68,28.34Zm0,0"/><path class="cls-7" d="M15.68,31.24H87.86a7.37,7.37,0,0,1,7.35,7.34V137.8a7.37,7.37,0,0,1-7.35,7.35H15.68a7.37,7.37,0,0,1-7.34-7.35V38.58a7.36,7.36,0,0,1,7.34-7.34Zm0,0"/><path class="cls-8" d="M86.59,30.45,8.89,36.66l7.85,98,77.69-6.22Zm0,0"/><path class="cls-7" d="M65.52,102.57a12.27,12.27,0,0,1,14.87,3.33l2.19-1.06,2.43,5-2.2,1.07A12.26,12.26,0,0,1,61.32,121.3l-2.2,1.07-2.42-5,.45-.21,1.75-.85a12.28,12.28,0,0,1,6.62-13.73ZM81,106.71l-3.54,1.71-14.77,7.14-3.54,1.71-1.13.55,1.56,3.23,1.13-.55,3.54-1.71L79,111.65l3.54-1.72,1.13-.54-1.57-3.23Zm-13.79-.64a8.37,8.37,0,0,1,9.54,1.59l2.72-1.32a11.27,11.27,0,0,0-19.66,9.51l2.73-1.31a8.4,8.4,0,0,1,4.67-8.47Zm5,.28a7.28,7.28,0,0,0-4.58.61,7.37,7.37,0,0,0-4.15,7.12l12.31-6a7.43,7.43,0,0,0-3.58-1.77Zm7,6.32a8.36,8.36,0,0,1-4.67,8.47,8.4,8.4,0,0,1-9.54-1.6l-2.72,1.32a11.27,11.27,0,0,0,18.84-2.52,11.37,11.37,0,0,0,.82-7ZM77.39,117a7.4,7.4,0,0,0,.83-3.9l-12.31,6a7.38,7.38,0,0,0,8.16,1.16A7.4,7.4,0,0,0,77.39,117Zm0,0"/><path class="cls-9" d="M59.45,127.16a.56.56,0,0,1-.66.44.55.55,0,0,1-.43-.66c.69-3.44,2.93-5.84,5.13-8.18.68-.73,1.35-1.45,2-2.19a18.43,18.43,0,0,1,.43-9.66,7.66,7.66,0,0,1,.58-1.36c.29-.49.63-.74,1-.71a.75.75,0,0,1,.63.5c2.26,5.28.9,8.59-1.39,11.49.08.26.17.52.27.77a5.9,5.9,0,0,0,1.09,1.54,1.33,1.33,0,0,0,.48.32.2.2,0,0,0,.19-.08,2.64,2.64,0,0,0,.48-1.15l.07-.38c.33-1.63,1.42-7.08,2.85-7.57.66-.22,1.25.17,1.71,1.51a8.7,8.7,0,0,1,.42,1.85,5.72,5.72,0,0,1,.9-2.9l.18-.23.29,0c.91,0,1.47,1.25,1.91,2.2.16.35-.08.63.11.64s-.23-.58-.2-2.3c0-.79,0-1.54,0-2.26-.11-2.68-.2-5,1.84-7.64a.56.56,0,0,1,.88.68c-1.8,2.32-1.71,4.46-1.61,6.91,0,.74.06,1.52,0,2.33,0,2.56-.37,3.4-.93,3.39s-.77-.59-1.1-1.29a8.5,8.5,0,0,0-.73-1.37,7.5,7.5,0,0,0-.47,2.36c-.07.73-.11,1.25-.55,1.4s-1.06-.68-2-3.43c-.2-.58-.29-.81-.29-.81-.82.28-1.82,5.24-2.11,6.73l-.09.41a3.52,3.52,0,0,1-.75,1.67,1.25,1.25,0,0,1-1.25.39,2.17,2.17,0,0,1-1-.59A7.08,7.08,0,0,1,65.94,118l-.08-.2c-.5.57-1,1.13-1.56,1.7-2.09,2.22-4.22,4.51-4.85,7.64Zm6.88-11.74c1.65-2.37,2.48-5.1,1-9.06a7.75,7.75,0,0,0-.35.9,17.52,17.52,0,0,0-.61,8.16Zm8-1.11c0,.17,0,.24.1.22s0-.11-.1-.22Zm0,0"/><path class="cls-7" d="M30.93,56.7l37.09-3a1.92,1.92,0,0,1,.3,3.82l-37.08,3a1.92,1.92,0,0,1-.31-3.83Zm-8,39.94,59.44-4.75a1.92,1.92,0,1,1,.31,3.82l-59.45,4.76a1.92,1.92,0,0,1-.3-3.83ZM22.26,89l59.45-4.76A1.92,1.92,0,0,1,82,88.06L22.57,92.82A1.92,1.92,0,0,1,22.26,89Zm-.61-7.65L81.1,76.58a1.92,1.92,0,1,1,.31,3.82L22,85.16a1.92,1.92,0,1,1-.31-3.82ZM21,73.69l59.45-4.76a1.92,1.92,0,1,1,.3,3.82L21.34,77.51a1.92,1.92,0,1,1-.3-3.82ZM20.43,66l59.44-4.76a1.92,1.92,0,0,1,.31,3.83L20.73,69.86a1.92,1.92,0,1,1-.3-3.83Zm0,0"/><path class="cls-9" d="M37.9,26.38h9.82V24.3a4,4,0,1,1,8.1,0v2.08h9.83a2.45,2.45,0,0,1,2.44,2.44v2.31a2.45,2.45,0,0,1-2.44,2.44H37.9a2.45,2.45,0,0,1-2.44-2.44V28.82a2.44,2.44,0,0,1,2.44-2.44Zm13.87-3.71A1.8,1.8,0,1,1,50,24.47a1.81,1.81,0,0,1,1.79-1.8Zm0,0"/></svg>