<svg id="Layer_1" data-name="Layer 1" xmlns="http://www.w3.org/2000/svg" viewBox="0 0 100 100"><defs><style>.cls-1{fill:#43424c;opacity:0.2;}.cls-2{fill:none;}.cls-3{fill:#fff;}.cls-4{fill:#f9320b;}</style></defs><path class="cls-1" d="M84.36,91.41a.75.75,0,0,1-.69.76H16.33a.75.75,0,0,1-.69-.76l6.54-13.85a.76.76,0,0,1,.68-.78H77.14a.76.76,0,0,1,.68.78Z"/><path class="cls-2" d="M46.31,39.47l.85.08c-.23,0-.47-.06-.7-.07Z"/><path class="cls-2" d="M56.62,11.4l.08.07h0Z"/><polygon class="cls-3" points="77 85.68 49.85 85.68 22.7 85.68 22.7 87.19 49.85 87.19 77 87.19 77 85.68"/><path class="cls-3" d="M50.16,71.57c-4.93.07-7-1-7.91-1.69a3.24,3.24,0,0,0,1,1.3c.8.61,2.26,1.3,6.57,1.3s5.77-.7,6.57-1.3C58,70,57.86,68,57.58,66.8a5.28,5.28,0,0,1-.77.32C56.92,68.29,56.63,71.49,50.16,71.57Z"/><path class="cls-3" d="M42.74,38.74a.76.76,0,0,1,.18.06,16.14,16.14,0,0,0,3.39.67h.15c.23,0,.47,0,.7.07.83.06,1.73.09,2.69.09a22.75,22.75,0,0,0,6.93-.84.49.49,0,0,1,.17-.06,7.73,7.73,0,0,0,4.7-4.05,20.07,20.07,0,0,0-.88-18.87,14.52,14.52,0,0,0-4.05-4.35h0c4.23,3.75,6.36,10.81,5.22,17.12-1.66,9.11-7.1,9.53-11.81,9.53a36.78,36.78,0,0,1-8.08-1,7.9,7.9,0,0,1-3.68-1.89A7.7,7.7,0,0,0,42.74,38.74Z"/><path class="cls-3" d="M80.92,84.17V80.1H18.78v1.05H79.37c.17,0,.35.14.5.42v2.6Z"/><path class="cls-3" d="M53.6,41c-2.48,3.38-2.53,9.17-1.74,12s4.26,6.84,4.36,8.6.93,4.06-6.53,4.06c-4.74,0-6.78-.89-7.63-1.54a9.06,9.06,0,0,0,.3,1.13c.32.25,2,1.31,7.49,1.31s7.17-1.06,7.49-1.31c1.16-3.41-.18-5.68-1.73-8.3a18.32,18.32,0,0,1-2.36-5.16c-.94-3.92,1.07-8.64,2.32-11.06A18.55,18.55,0,0,1,53.6,41Z"/><path class="cls-4" d="M82.38,79,76.7,66.51a.76.76,0,0,0-.69-.44H59c-.06-.2-.11-.37-.16-.49,1.34-4-.3-6.79-1.88-9.47a17.11,17.11,0,0,1-2.2-4.74c-1-4.3,2.19-10.07,2.89-11.27A9.08,9.08,0,0,0,63,35.36a21.64,21.64,0,0,0-1-20.34c-2.87-4.63-7.2-7.19-12.2-7.19S40.52,10.39,37.65,15a21.61,21.61,0,0,0-.95,20.34,9.06,9.06,0,0,0,5.39,4.74c.71,1.2,3.93,7,2.9,11.27a17.7,17.7,0,0,1-2.2,4.74c-1.58,2.68-3.22,5.45-1.89,9.47,0,.12-.09.29-.15.49H23.69a.75.75,0,0,0-.69.44L17.32,79a.72.72,0,0,0-.05.48v5.42a.75.75,0,0,0,.75.75h3.17v2.26a.76.76,0,0,0,.75.76H77.76a.76.76,0,0,0,.75-.76V85.68h3.17a.76.76,0,0,0,.75-.75V79.51A.72.72,0,0,0,82.38,79ZM49.85,87.19H22.7V85.68H77v1.51ZM42,37.13a36.78,36.78,0,0,0,8.08,1c4.71,0,10.15-.42,11.81-9.53,1.14-6.31-1-13.37-5.22-17.12l-.08-.07.1.07a14.52,14.52,0,0,1,4.05,4.35,20.07,20.07,0,0,1,.88,18.87A7.73,7.73,0,0,1,57,38.74a.49.49,0,0,0-.17.06,22.75,22.75,0,0,1-6.93.84c-1,0-1.86,0-2.69-.09l-.85-.08a16.14,16.14,0,0,1-3.39-.67.76.76,0,0,0-.18-.06,7.7,7.7,0,0,1-4.39-3.5A7.9,7.9,0,0,0,42,37.13ZM53.25,51.72a18.32,18.32,0,0,0,2.36,5.16c1.55,2.62,2.89,4.89,1.73,8.3-.32.25-2,1.31-7.49,1.31s-7.17-1.06-7.49-1.31a9.06,9.06,0,0,1-.3-1.13c.85.65,2.89,1.54,7.63,1.54,7.46,0,6.63-2.3,6.53-4.06s-3.55-5.7-4.36-8.6-.74-8.59,1.74-12a18.55,18.55,0,0,0,2-.3C54.32,43.08,52.31,47.8,53.25,51.72ZM57.58,66.8C57.86,68,58,70,56.42,71.18c-.8.6-2.26,1.3-6.57,1.3s-5.77-.69-6.57-1.3a3.24,3.24,0,0,1-1-1.3c.86.69,3,1.76,7.91,1.69,6.47-.08,6.76-3.28,6.65-4.45A5.28,5.28,0,0,0,57.58,66.8ZM79.37,81.15H18.78V80.1H80.92v4.07h-1v-2.6C79.72,81.29,79.54,81.15,79.37,81.15Z"/></svg>