<svg id="Layer_1" data-name="Layer 1" xmlns="http://www.w3.org/2000/svg" viewBox="0 0 100 100"><defs><style>.cls-1{fill:#f9320b;}.cls-2{fill:#3b0f37;}</style></defs><path class="cls-1" d="M86.72,22.39C87,86.1,50,95,50,95a30.57,30.57,0,0,1-7.52-3.36,46.44,46.44,0,0,1-6.68-4.86A56.76,56.76,0,0,1,22.25,68.67a75.47,75.47,0,0,1-4-10.11c-.5-1.56-1-3.18-1.41-4.88q-.87-3.37-1.56-7.13a131.47,131.47,0,0,1-2-24.16s11.54-3.06,11-12.8A66.5,66.5,0,0,1,35.41,6.47c1.73-.34,3.61-.66,5.61-.9,1.3-.17,2.66-.3,4.06-.39Q47.47,5,50,5c1.44,0,2.85,0,4.23.13A76.49,76.49,0,0,1,74.82,9.25c.6.21.92.34.92.34a10.71,10.71,0,0,0,3.64,8.73A19.49,19.49,0,0,0,86.72,22.39Z"/><path class="cls-1" d="M50,89.29a39.08,39.08,0,0,1-15-10.91C24.8,66.67,19.18,48.64,18.73,26.08c4.39-2.17,9.34-6.23,10.65-12.51A72.29,72.29,0,0,1,50,10.42a72.44,72.44,0,0,1,20.63,3.15c1.31,6.28,6.26,10.34,10.64,12.51C80.82,48.64,75.2,66.67,65,78.38A39,39,0,0,1,50,89.29Z"/><path class="cls-2" d="M50,89.29a34.37,34.37,0,0,1-8.21-4.4C40.52,84,39.31,83,38.14,82s-2.26-2.16-3.32-3.31a56.35,56.35,0,0,1-5.63-7.51,67.3,67.3,0,0,1-4.3-8.36,85,85,0,0,1-5.24-18A121.74,121.74,0,0,1,17.8,26.1l0-.59.54-.27a21.8,21.8,0,0,0,6.46-4.86,15.29,15.29,0,0,0,3.61-7l.12-.58.57-.17a74.79,74.79,0,0,1,10.34-2.37A69.26,69.26,0,0,1,50,9.38a69.26,69.26,0,0,1,10.58.86,74.79,74.79,0,0,1,10.34,2.37l.57.17.12.58a15.23,15.23,0,0,0,3.62,7,21.58,21.58,0,0,0,6.46,4.87l.53.27v.59a123,123,0,0,1-1.85,18.66,85,85,0,0,1-5.24,18,68.69,68.69,0,0,1-4.3,8.36,57.45,57.45,0,0,1-5.63,7.51C64.13,79.79,63,80.91,61.86,82a43,43,0,0,1-3.65,2.94A34.37,34.37,0,0,1,50,89.29Zm0,0a35.63,35.63,0,0,0,8-4.72,45.79,45.79,0,0,0,3.51-3c1.12-1.07,2.16-2.21,3.17-3.37a55.46,55.46,0,0,0,5.28-7.57,68.34,68.34,0,0,0,4-8.31,87.24,87.24,0,0,0,4.8-17.82,130.57,130.57,0,0,0,1.58-18.42l.52.86a23.67,23.67,0,0,1-7.1-5.24A18.16,18.16,0,0,1,71.18,18a16.83,16.83,0,0,1-1.54-4.24l.69.75a75.05,75.05,0,0,0-10.06-2.27A69.33,69.33,0,0,0,50,11.47a68,68,0,0,0-10.27.79,73.54,73.54,0,0,0-10.06,2.27l.69-.75A16.45,16.45,0,0,1,28.82,18a17.77,17.77,0,0,1-2.58,3.66,23.47,23.47,0,0,1-7.1,5.23l.52-.85a130.44,130.44,0,0,0,1.58,18.42A87.24,87.24,0,0,0,26,62.3a67.64,67.64,0,0,0,4,8.31,56.36,56.36,0,0,0,5.28,7.57c1,1.16,2.06,2.3,3.17,3.37a45.79,45.79,0,0,0,3.51,3A35.85,35.85,0,0,0,50,89.29Z"/><path class="cls-2" d="M65.78,29.22,50.91,47.63a1.06,1.06,0,0,1-1.71-.08L45.59,42.1c-.64-1-2.35-.88-3.74.19s-1.91,2.7-1.14,3.57l8.11,9.39a1.21,1.21,0,0,0,2-.16L66.23,29.53C66.34,29.33,65.93,29,65.78,29.22Z"/><path class="cls-2" d="M50,62.78a17.38,17.38,0,1,1,7.47-33.06,1.12,1.12,0,1,1-1,2,15.13,15.13,0,1,0,8.21,10.16,1.13,1.13,0,1,1,2.2-.52,17.46,17.46,0,0,1,.46,4A17.36,17.36,0,0,1,50,62.78Z"/></svg>