<svg id="Layer_1" data-name="Layer 1" xmlns="http://www.w3.org/2000/svg" viewBox="0 0 100 100"><defs><style>.cls-1{fill:#f9320b;}.cls-2{fill:#3b0f37;}</style></defs><path class="cls-1" d="M36.52,62a8.48,8.48,0,0,1,4.11-1.71,17.78,17.78,0,0,0,5.44-1.72A15.54,15.54,0,0,0,51.84,54a2,2,0,0,1,.74-.63l3.6-1.76a.49.49,0,0,0,.23-.66L54.87,47.8a.48.48,0,0,0-.65-.22l-3.61,1.77a2,2,0,0,1-.94.2,15.38,15.38,0,0,0-7.13,1.79,17.89,17.89,0,0,0-4.69,3.25A8.4,8.4,0,0,1,34,56.79a66.43,66.43,0,0,0-12.13,4.7c-5.78,2.84-10.57,6-13.11,8.4a10.64,10.64,0,0,0-1.46,1.68h0a1,1,0,0,0-.08.11h0a.44.44,0,0,1-.15.12l-1.36.67a1.25,1.25,0,0,0-.57,1.68,1.26,1.26,0,0,0,1.68.57l1.36-.66a.37.37,0,0,1,.18,0h.14a10.7,10.7,0,0,0,2.23-.13c3.47-.52,8.88-2.39,14.67-5.23A66.55,66.55,0,0,0,36.52,62Z"/><rect class="cls-2" x="46.04" y="38" width="32.55" height="16.18" transform="translate(76.23 -30.16) rotate(63.86)"/><rect class="cls-2" x="47.81" y="38" width="29.02" height="16.18" transform="translate(76.23 -30.16) rotate(63.86)"/><rect class="cls-1" x="68.5" y="55.1" width="3.53" height="14.37" transform="translate(95.22 -28.24) rotate(63.86)"/><rect class="cls-1" x="52.6" y="22.71" width="3.53" height="14.37" transform="translate(57.25 -32.08) rotate(63.86)"/><polygon class="cls-1" points="95 74.86 43.29 74.86 47.94 67.05 90.35 67.05 95 74.86"/></svg>