<svg xmlns="http://www.w3.org/2000/svg" viewBox="0 0 250 250"><defs><style>.cls-1{isolation:isolate;}.cls-2{fill:#f9320b;opacity:0.1;}.cls-3{fill:#3b0f37;}.cls-4{fill:#d8edf5;}.cls-5{fill:#f07c59;}.cls-6{fill:#a34022;}.cls-7{fill:#232a2b;}.cls-8{fill:#fcc6ae;}.cls-9{fill:#2e1e19;}.cls-10{fill:#f7b9a5;}.cls-11{fill:#f29d83;}.cls-12{fill:#272f30;}.cls-13{fill:#f79477;}.cls-14{fill:#e8633a;}.cls-15{fill:#2b3436;}.cls-16{fill:#313b3d;}.cls-17{fill:#5c3b2f;}.cls-18{fill:#424f52;}.cls-19{fill:#ccf4ff;}.cls-20{fill:#e0a263;}.cls-21{fill:#e8b582;}.cls-22{fill:#fff;}.cls-23{fill:#4a5969;}.cls-24{fill:#2e1d17;}.cls-25{fill:#dba36b;}.cls-26{fill:#8c7054;}.cls-27{fill:#7a4e3f;}.cls-28{fill:#aad5e0;}.cls-29{fill:#f2aa94;}.cls-30{fill:#5c3d48;mix-blend-mode:multiply;opacity:0.15;}.cls-31{fill:#fccd9c;}.cls-32{fill:#cf836a;}.cls-33{fill:#f5a887;}.cls-34{fill:#94c4d1;}.cls-35{fill:#452d25;}.cls-36{fill:#473832;}.cls-37{fill:#ffc88a;}.cls-38{fill:#6abaf0;}.cls-39{fill:#2e4b5c;}.cls-40{fill:#40322c;}.cls-41{fill:#664237;}.cls-42{fill:#38251e;}.cls-43{fill:#4f342a;}.cls-44{fill:#a1142d;}.cls-45{fill:#f23357;}.cls-46{fill:#85939c;}.cls-47{fill:#aabbc7;}</style></defs><g class="cls-1"><g id="Layer_1" data-name="Layer 1"><path class="cls-2" d="M19.16,195.55S-10.51,159.81,4,123C13.44,99,48.9,85.89,68.9,99c8.53,5.59,35.87.18,50.46-23,28.37-45,127.37-17.68,109.35,51.46-8.72,33.45,26.54,34.67,8.57,68.11Z"/><rect class="cls-3" y="195.02" width="250" height="0.96" rx="0.48"/><path class="cls-4" d="M132.26,196h-2.33V165.44a4.08,4.08,0,0,0-4.07-4.08H58.35V159h67.51a6.41,6.41,0,0,1,6.4,6.4Z"/><rect class="cls-5" x="132.81" y="147.22" width="51.98" height="42.68" rx="11.22"/><rect class="cls-6" x="142.41" y="147.22" width="51.98" height="42.68" rx="11.22"/><path class="cls-7" d="M151.7,187.8l-.24,3.68a2.4,2.4,0,0,1,.47.79,2.46,2.46,0,0,1,.08,1.34l-4.74.32c-.77.19-1.73.39-2.84.55-.88.13-1.6.19-2.29.24-4,.28-6.38.45-6.71-.4a.88.88,0,0,1,.16-.87c.12-.11.31-.12.67-.16l1-.07c.49,0,3-.58,9.59-2.33l1.17-3.38Z"/><path class="cls-7" d="M157.91,185.62l-.24,3.68a2.4,2.4,0,0,1,.47.79,2.37,2.37,0,0,1,.08,1.34l-4.73.32c-.78.19-1.74.39-2.85.55-.88.13-1.6.19-2.29.24-4,.28-6.38.45-6.71-.4a.9.9,0,0,1,.16-.87c.12-.11.31-.12.67-.15l1-.08c.49,0,3-.58,9.59-2.33l1.17-3.38Z"/><path class="cls-8" d="M96.63,149.24a17.13,17.13,0,0,1-2.39-.36,3.73,3.73,0,0,1-1.52-.54,2.93,2.93,0,0,1-1-2.06A4.07,4.07,0,0,1,93.39,145a4.13,4.13,0,0,1,2.33-.24l.39.49c2.4.93,4.15,1.64,4.67,1.82a2.42,2.42,0,0,1,1.08.67,4,4,0,0,1,.73,1.53,5.33,5.33,0,0,1,.49,1.87c0,.5-.19.44-.36,1.39-.07.38-.09.61-.27.7s-.57-.07-.75-.24c-.65-.64,0-2.19.08-2.26l-1.18-1.55-2.1-.21Z"/><path class="cls-8" d="M101.86,152.65a1.35,1.35,0,0,1-1-.22c-.45-.36-.32-1-.65-1.71a3.3,3.3,0,0,0-1.06-1.3,4.38,4.38,0,0,1,.37,1.13c0,.3.19,1.16-.1,1.3s-.49-.16-.65-.32c-.34-.37-.31-.75-.44-1.16-.33-1.11-1.46-1.22-1.39-1.69s1.73-1.07,3.14-.6a3.25,3.25,0,0,1,1.71,1.33A3.56,3.56,0,0,1,101.86,152.65Z"/><path class="cls-8" d="M104.35,151.77c.19-.1.17-.49.1-1a6,6,0,0,0-.71-2.76c-.54-.7-1.26-.82-2.82-1.2-1.08-.27-2.66-.68-4.61-1.28a22.89,22.89,0,0,0,5.21,3,2.25,2.25,0,0,1,1.12.66c.6.73.24,1.56.94,2.25C103.79,151.62,104.15,151.88,104.35,151.77Z"/><path class="cls-7" d="M87.63,130.53a15.79,15.79,0,0,1-3.69.9c-2,.24-3.79.45-4.91-.63A3.73,3.73,0,0,1,78,128c-.17-1.59-.33-3.21-.45-4.88-.3-4-.42-7.72-.41-11.29a7.28,7.28,0,0,1,1.26-7.8c2.33-2.33,6.58-2.63,8.1-.94a2.6,2.6,0,0,1,.7,2.15q-.14,5.22-.19,10.56c0,2-.1,3.43,0,6.08C87.09,125.54,87.39,128.55,87.63,130.53Z"/><path class="cls-7" d="M91.62,149.08a51.69,51.69,0,0,1-6-6.73,52.35,52.35,0,0,1-7.48-14.14,6.3,6.3,0,0,1,1.9-2c2.82-1.9,6.21-.67,6.65-.5.43.92,1.12,2.4,2,4.2,2.2,4.42,4,7.67,4.58,8.67,1,1.73,2.26,3.88,3.8,6.32a7.09,7.09,0,0,1-2.2,2.86A6.88,6.88,0,0,1,91.62,149.08Z"/><path class="cls-9" d="M98.87,75.43a2.27,2.27,0,0,0,1.09-.69,2.64,2.64,0,0,0,.22-2.8,2.24,2.24,0,0,0-1.85,1.89A2.21,2.21,0,0,0,98.87,75.43Z"/><path class="cls-10" d="M92.4,91.07a26.11,26.11,0,0,0-2.47,2.47A26.4,26.4,0,0,0,87.31,97a17.44,17.44,0,0,1-7.86-6.55c1.13-1,2.3-2.11,3.49-3.34a57.66,57.66,0,0,0,3.93-4.51Q89.63,86.85,92.4,91.07Z"/><path class="cls-11" d="M92.59,90.43a14.93,14.93,0,0,1-1,1.27c-.38.43-.75.81-1.11,1.16a8.12,8.12,0,0,1-2-2A8.45,8.45,0,0,1,87,86a1.37,1.37,0,0,1-.49-.48,1.72,1.72,0,0,1,0-1.55l.92.39C89.17,86.36,90.88,88.4,92.59,90.43Z"/><path class="cls-12" d="M88.91,102l1.89-1a14.42,14.42,0,0,0-4.51-9.17,14.23,14.23,0,0,0-8.44-3.63L75.14,92Z"/><path class="cls-12" d="M89.88,102.65q-2.38,9.41-4.75,18.82-1.51,6.39-3,12.8a39.09,39.09,0,0,1-.39-12.22A40.18,40.18,0,0,1,89.88,102.65Z"/><path class="cls-13" d="M191.27,160.3h33.89a4.45,4.45,0,0,0,4.26-3.72l6.37-44.51a3.14,3.14,0,0,0-3.19-3.72H198.71a4.43,4.43,0,0,0-4.25,3.72l-6.38,44.51A3.15,3.15,0,0,0,191.27,160.3Z"/><path class="cls-5" d="M181.31,160.3h33.9a4.44,4.44,0,0,0,4.25-3.72l6.38-44.51a3.15,3.15,0,0,0-3.19-3.72h-33.9a4.44,4.44,0,0,0-4.25,3.72l-6.37,44.51A3.14,3.14,0,0,0,181.31,160.3Z"/><rect class="cls-14" x="158.33" y="156.55" width="53.12" height="15.39" rx="5.54"/><path class="cls-15" d="M142.44,149.54q2.79,9.26,5.38,19.34t4.56,19.53a9.6,9.6,0,0,0,7.09-2.29c-.42-5.49-1-11.26-1.79-17.27S156,157.16,155,151.74a7.74,7.74,0,0,0-9.36-8.75,5.58,5.58,0,0,0-2.48,2A5.82,5.82,0,0,0,142.44,149.54Z"/><path class="cls-15" d="M191.64,145l-43.53-2.45a5.05,5.05,0,0,0-3.8,1.64c3.25,3.69,6.7,7.23,8.21,11.85.1-.31.19-.63.29-.94,7.21,1.35,18.53,2.84,28.92,1.19,4.2-.66,7.78-1.77,9.38-4.94A9.66,9.66,0,0,0,191.64,145Z"/><path class="cls-16" d="M204,144.49c.43,1.72,1,5-.55,7.91-1.76,3.22-5.34,4.26-9.39,4.94-5.08.84-14.39,1.68-28-.79q-3.33,8.46-6.63,17-3.15,8.11-6.26,16.2a6.19,6.19,0,0,1-4.23.59,6.37,6.37,0,0,1-3.13-1.78q2-9.39,4.23-19,2.55-11.07,5.2-21.81a5.31,5.31,0,0,1,5.17-4.18Z"/><path class="cls-16" d="M152.13,113a6.29,6.29,0,0,0,2.23,3.07c2.2,1.55,5.41,1.45,8.15-.24.7-.66,1.4-1.34,2.11-2a107.63,107.63,0,0,0,7.59-8.37,14.16,14.16,0,0,0,1.11-5c.08-3.2-.93-7.44-2.62-7.66-.38,0-1,.07-1.92,1.19q-3.27,4.08-6.67,8.19c-1.3,1.57-2.14,2.68-3.9,4.67C155.75,109.53,153.59,111.64,152.13,113Z"/><path class="cls-17" d="M174.06,75.05l-4.39.38.11.85,4-.69Z"/><path class="cls-16" d="M205.67,146.43c-3,2.28-11.62,8-23.06,7.27a32.21,32.21,0,0,1-9.5-2.12c-.53-3.25-1.21-7.74-1.87-13.1-.64-5.17-1.49-12-1.89-19.59A182.93,182.93,0,0,1,169.88,93c1.27-.66,2.62-1.44,4-2.33a51.45,51.45,0,0,0,4.51-3.23l7.77-1.53c1.45.77,3,1.53,4.72,2.26a62.22,62.22,0,0,0,10,3.34c-.24,5.51-.36,11.26-.3,17.24,0,3.85.14,7.6.3,11.24a101.36,101.36,0,0,0,1.71,14.52A103.75,103.75,0,0,0,205.67,146.43Z"/><path class="cls-7" d="M189.17,105.25l5.5-.07-.2,1.72-5.92.1C188.76,106.42,189,105.83,189.17,105.25Z"/><path class="cls-18" d="M179.48,129.22c-1.68-4.75-3.31-9.94-4.78-15.54-1.23-4.7-2.23-9.2-3-13.45q1.7-5.36,3.4-10.69L178,87.47q.86,14.55,1.7,29.09Q179.6,122.89,179.48,129.22Z"/><path class="cls-18" d="M179.48,129.15a205.8,205.8,0,0,0,10-19.17c1.75-3.86,3.32-7.62,4.71-11.25q-1-5.42-2-10.82l-6.55-2.8-4,20.63Q180.51,117.44,179.48,129.15Z"/><path class="cls-19" d="M179.41,129.23c.59-4.51,1.34-9.2,2.29-14.07a231.65,231.65,0,0,1,7.3-28l-2.67-1.45-8.3,1.9c-.31.49-.62,1-.92,1.46q-.06,4.25,0,8.64A292.49,292.49,0,0,0,179.41,129.23Z"/><path class="cls-10" d="M186.74,78c0,.76,0,1.55.08,2.37a39.75,39.75,0,0,0,.83,6.07,20.09,20.09,0,0,1-2,3.46,20.54,20.54,0,0,1-4.55,4.54,12,12,0,0,1-1.85-2.12,12.22,12.22,0,0,1-1.67-3.53l-1.71-10.07a27.59,27.59,0,0,0,7.2,0A27.23,27.23,0,0,0,186.74,78Z"/><path class="cls-11" d="M177.12,86.07a7.09,7.09,0,0,0,.92,2,6.86,6.86,0,0,0,1.05,1.23,13.34,13.34,0,0,0,5.66-4.79,13.11,13.11,0,0,0,2.05-5.67l-1.21-.53Z"/><path class="cls-20" d="M170.16,67.67a4.48,4.48,0,0,0-.35,1.84,5.21,5.21,0,0,0,1.83,3.65l1-2.23C171.79,69.84,171,68.75,170.16,67.67Z"/><path class="cls-21" d="M172,71.11a7.38,7.38,0,0,1-2.57-4.33,1.84,1.84,0,0,1,.36-.87,1.91,1.91,0,0,1,.7-.6l2.75,2.82Z"/><path class="cls-8" d="M186.41,66.49c.07.76.17,2,.26,3.41.62,9.84-.62,11.79-1.29,12.62a9.35,9.35,0,0,1-2.85,2.22c-1.46.89-4.75,2.88-7.45,1.64a4.7,4.7,0,0,1-1.43-1.06c-2.28-2.24-2.4-5.49-2.52-8.87a32.12,32.12,0,0,1,.09-3.62,34.41,34.41,0,0,1,1.06-6.1,15.12,15.12,0,0,1,4-1.43A16.6,16.6,0,0,1,186.41,66.49Z"/><path class="cls-22" d="M174.65,75.18a2.08,2.08,0,0,1-.63,1c-.55.44-1.31.27-1.94-.43a1.42,1.42,0,0,1,.25-1.38C172.8,74,173.92,74.16,174.65,75.18Z"/><path class="cls-23" d="M173.85,75.38a.76.76,0,1,1-1.46.13.86.86,0,0,1,.64-1C173.44,74.45,173.81,74.85,173.85,75.38Z"/><path class="cls-24" d="M173.63,75.44a.56.56,0,0,1-.45.65.62.62,0,0,1-.11-1.22A.57.57,0,0,1,173.63,75.44Z"/><path class="cls-22" d="M173.08,75.37c-.31,0-.57-.07-.76-.1s-.31,0-.32-.11.14-.2.29-.23C172.67,74.84,173,75.32,173.08,75.37Z"/><path class="cls-24" d="M174.55,75.06l-.14-.11-.36-.24a2,2,0,0,0-.53-.22,1.77,1.77,0,0,0-.32,0,1.27,1.27,0,0,0-.33,0,.82.82,0,0,0-.28.06.7.7,0,0,0-.23.15,1,1,0,0,0-.26.47,1.75,1.75,0,0,0,0,.42,1.15,1.15,0,0,0,0,.17.92.92,0,0,1-.09-.15,1.27,1.27,0,0,1-.1-.47,1.07,1.07,0,0,1,.22-.68,1,1,0,0,1,.33-.27,1.36,1.36,0,0,1,.43-.11,1.84,1.84,0,0,1,.41,0,1.7,1.7,0,0,1,.37.1,1.5,1.5,0,0,1,.57.38,1.56,1.56,0,0,1,.28.37A1.37,1.37,0,0,1,174.55,75.06Z"/><path class="cls-25" d="M187,74.68A16.49,16.49,0,0,1,185.57,73a18.15,18.15,0,0,1-3.23-7.24,13.73,13.73,0,0,1,2.4-.13,14.53,14.53,0,0,1,4.38.8,10.56,10.56,0,0,1-.53,7.75Z"/><path class="cls-21" d="M190.19,68.89a17.48,17.48,0,0,0-4-1.37A19.43,19.43,0,0,0,174,69.11a7.24,7.24,0,0,1-1.42-.65,7.75,7.75,0,0,1-2.77-3,12.39,12.39,0,0,1,7.43-4.28A15.82,15.82,0,0,1,190,66.65a3.89,3.89,0,0,1,.26,1.3A3.51,3.51,0,0,1,190.19,68.89Z"/><path class="cls-26" d="M180.69,72a9.36,9.36,0,0,0-1.55-.13,9.92,9.92,0,0,0-2.08.25.74.74,0,0,1,.1-.53,1.49,1.49,0,0,1,1-.5c.87-.19,2.23-.16,2.52.44A.64.64,0,0,1,180.69,72Z"/><path class="cls-26" d="M174.28,72.52a5.5,5.5,0,0,0-2.74,0,.84.84,0,0,1,.06-.52,1,1,0,0,1,.73-.47c.65-.16,1.68-.08,1.92.52A.84.84,0,0,1,174.28,72.52Z"/><path class="cls-27" d="M173.45,78.7a11,11,0,0,1-1.81.06,10.5,10.5,0,0,1-1.1-.11h-.07l-.05-.06a4.64,4.64,0,0,1-.74-1.69,4.15,4.15,0,0,1-.06-1.49l0-.13.13,0,.7-.1a12.62,12.62,0,0,1,2.38-.05c.51,0,1,.11,1.52.2l.12,0,0,.12a4.16,4.16,0,0,1-.21,2,4.46,4.46,0,0,1-.65,1.19l0,.06Zm-2.77-.38a8.3,8.3,0,0,0,1,.09,11.37,11.37,0,0,0,1.75,0h0a4.15,4.15,0,0,0,.55-1,3.93,3.93,0,0,0,.2-1.7,10,10,0,0,0-1.34-.18,11.79,11.79,0,0,0-2.3,0l-.55.08a4,4,0,0,0,.06,1.25A4.18,4.18,0,0,0,170.68,78.32Z"/><path class="cls-18" d="M198.53,134.37l-10,.92.6,2.62,9.44-1.12C198.58,136,198.56,135.18,198.53,134.37Z"/><path class="cls-18" d="M169.76,137.08l.45,2.63,5.57-.77-.14-2.42Z"/><path class="cls-28" d="M185.72,96.56l-4.65-1.91-3.57,1.94L181,95.32Z"/><path class="cls-27" d="M187.66,73.81l-5.54.51.23,1,5.06-1Z"/><path class="cls-8" d="M186.29,74.51a2.59,2.59,0,0,1,1-.69,2.49,2.49,0,0,1,.85-.15,4.2,4.2,0,0,1,.86,1,5.17,5.17,0,0,1,.7,1.72,4.34,4.34,0,0,1-.61,1.52,3.18,3.18,0,0,1-1.74,1.34,1.24,1.24,0,0,1-.73-.23,1.7,1.7,0,0,1-.58-.7Z"/><path class="cls-29" d="M186.54,76.37a3,3,0,0,1,.58-.93,2.13,2.13,0,0,1,1.17-.65,3,3,0,0,1,.68.88,3.55,3.55,0,0,1,.29.82,2.91,2.91,0,0,1-.72,1.15,2.25,2.25,0,0,1-1.94.61,1.49,1.49,0,0,0,.27-.75A1.72,1.72,0,0,0,186.54,76.37Z"/><polygon class="cls-27" points="169.67 75.43 169.26 75.48 169.21 76.11 169.65 76.15 169.67 75.43"/><path class="cls-22" d="M181.28,74.51a2.25,2.25,0,0,1-.94,1.06,2.64,2.64,0,0,1-2.83-.35,1.8,1.8,0,0,1,.39-1.14,1.85,1.85,0,0,1,.65-.48A2.81,2.81,0,0,1,181.28,74.51Z"/><path class="cls-23" d="M180,74.75a1,1,0,0,1-.87,1,1,1,0,0,1-.17-1.91A1,1,0,0,1,180,74.75Z"/><path class="cls-24" d="M179.66,74.77a.62.62,0,0,1-1.23.11.61.61,0,0,1,.56-.66A.62.62,0,0,1,179.66,74.77Z"/><path class="cls-22" d="M179,74.59l-.76-.11c-.2,0-.31,0-.32-.11s.14-.2.29-.23C178.58,74.05,179,74.53,179,74.59Z"/><path class="cls-24" d="M181.28,74.51l-.16-.12a5.2,5.2,0,0,0-.45-.29,3.36,3.36,0,0,0-.66-.28,2.91,2.91,0,0,0-.8-.13,1.82,1.82,0,0,0-.75.12,2.43,2.43,0,0,0-.32.18l-.24.22a3,3,0,0,0-.29.43,1.24,1.24,0,0,0-.08.19.84.84,0,0,1,0-.21,1.43,1.43,0,0,1,.17-.54,1.34,1.34,0,0,1,.24-.32,1.56,1.56,0,0,1,.34-.27,1.8,1.8,0,0,1,.94-.2,2.59,2.59,0,0,1,.47,0,2.25,2.25,0,0,1,.44.14,2.42,2.42,0,0,1,.67.43,2.31,2.31,0,0,1,.36.42A1,1,0,0,1,181.28,74.51Z"/><path class="cls-30" d="M171.46,70.74c.22-.78.43-1.56.65-2.35l1.93.72a25.22,25.22,0,0,1,5.4-1.44,26.26,26.26,0,0,1,2.88-.26l.76,1,.15-.82a17.93,17.93,0,0,1,2.55.12,16.46,16.46,0,0,1,3.78.92,18.2,18.2,0,0,0-7.35-1.77A18.55,18.55,0,0,0,174,68.53l-2.12-.84Z"/><path class="cls-31" d="M177.34,66.71c.06,0,.53-.75,1.1-1.38,1.9-2.09,5-2.46,4.91-2.65s-1.1.16-1.29-.21c-.08-.15.06-.3,0-.4s-1,.3-1.15.1.09-.32,0-.41-.78.35-1.12.13c-.14-.09-.11-.23-.2-.32-.33-.33-1.87.36-3,1.5a6.59,6.59,0,0,0-2,4.73c.07,0,.3-.54.7-.54.2,0,.23.14.43.14.36,0,.48-.52.77-.49s.19.18.33.18.35-.36.49-.66a4.9,4.9,0,0,1,.84-1.31A12.61,12.61,0,0,0,177.34,66.71Z"/><path class="cls-31" d="M177.25,61.87a9.93,9.93,0,0,0-1.49,1.4A10.22,10.22,0,0,0,174,67.61a4.56,4.56,0,0,1,.54-3.2A6,6,0,0,1,177.25,61.87Z"/><path class="cls-31" d="M173.41,67.66a3.25,3.25,0,0,1-.53-2.11,4.55,4.55,0,0,1,1.8-3.24,6.63,6.63,0,0,0-1.3,2.65A9.84,9.84,0,0,0,173.41,67.66Z"/><path class="cls-27" d="M179,78.43a8.05,8.05,0,0,1-1.7,0h-.06l0,0a4.75,4.75,0,0,1-1.28-1.71,4.52,4.52,0,0,1-.35-1.19l0-.13.13,0a15.82,15.82,0,0,1,4.2-1.12,15.46,15.46,0,0,1,2.35-.1h.14l0,.14a5.57,5.57,0,0,1,0,1.91,5.49,5.49,0,0,1-.36,1.24l0,0,0,0a8.38,8.38,0,0,1-2.93.94Zm-1.62-.31a8.33,8.33,0,0,0,1.58,0h0a8.23,8.23,0,0,0,2.76-.87,5.39,5.39,0,0,0,.31-1.11,5.07,5.07,0,0,0,0-1.65,15.33,15.33,0,0,0-2.14.1,15.71,15.71,0,0,0-4,1,4,4,0,0,0,.3,1A4.58,4.58,0,0,0,177.37,78.12Z"/><path class="cls-32" d="M175.28,75.76s0,.1,0,.28a3,3,0,0,1-.2.71,2.92,2.92,0,0,1-.22.43,3.73,3.73,0,0,1-.3.43,3.78,3.78,0,0,1-.39.41,2.89,2.89,0,0,1-.48.33.83.83,0,0,0-.16.13.53.53,0,0,0-.13.23.84.84,0,0,0,0,.42,1.48,1.48,0,0,0,.41.56,1.72,1.72,0,0,0,.54.31,1.57,1.57,0,0,0,.3,0l.15,0,.12,0a2,2,0,0,0,.71-.32.87.87,0,0,0,.22-.2,1.63,1.63,0,0,1-.26.13,2.23,2.23,0,0,1-.7.15h-.22l-.21-.07a1.5,1.5,0,0,1-.4-.29,1.12,1.12,0,0,1-.27-.42.29.29,0,0,1,0-.18s0,0,0,0a.26.26,0,0,1,.09-.06,3.71,3.71,0,0,0,.52-.39,3.6,3.6,0,0,0,.41-.48,2.71,2.71,0,0,0,.29-.52,2.28,2.28,0,0,0,.17-.5,2.42,2.42,0,0,0,0-.77A1.36,1.36,0,0,0,175.28,75.76Z"/><path class="cls-27" d="M176,76.4c-.07.16-.17.32-.26.3s-.08-.29-.25-.48a.57.57,0,0,0-.81,0c-.13.19,0,.51-.13.57s-.13,0-.17,0l.06-.39-.07-1a1.81,1.81,0,0,1,.46-.12,2.14,2.14,0,0,1,1,.13Z"/><path class="cls-16" d="M208.81,118.6a5.71,5.71,0,0,1-2.36,2.05,6.21,6.21,0,0,1-5.21-.22c-1-2.65-2-5.31-2.92-8q-1.87-5.19-3.67-10.31a14.33,14.33,0,0,1,1.26-5c1.34-2.9,4.14-6.25,5.75-5.7.36.13.87.52,1.19,1.92.92,2.85,1.8,5.86,2.62,9A162,162,0,0,1,208.81,118.6Z"/><path class="cls-16" d="M136.54,118.62a51,51,0,0,0,9,.26,52,52,0,0,0,15.63-3.4,6.11,6.11,0,0,0,.33-2.76c-.37-3.38-3.49-5.18-3.91-5.41-1,.28-2.55.7-4.5,1.18-4.8,1.17-8.46,1.87-9.58,2.08-2,.37-4.42.78-7.28,1.18a7,7,0,0,0-.77,3.52A6.83,6.83,0,0,0,136.54,118.62Z"/><path class="cls-19" d="M136.66,118a4.6,4.6,0,0,0,.87-1.82,5.06,5.06,0,0,0-.88-3.94l-2,.39a6,6,0,0,0-.38,1.93,6.07,6.07,0,0,0,.92,3.32Z"/><path class="cls-7" d="M204.4,147.21a18.37,18.37,0,0,1-13.23,3.49,18.15,18.15,0,0,1-10.91-5.82l-7.32-.9,7.46-.41a19.56,19.56,0,0,0,8.88,5.53A20.31,20.31,0,0,0,204.4,147.21Z"/><rect class="cls-5" x="175.99" y="146.68" width="51.98" height="46.12" rx="11.66"/><path class="cls-13" d="M237.57,152.12v35.24a5.43,5.43,0,0,1-5.43,5.44H191a5.44,5.44,0,0,1-5.44-5.44V152.12a5.45,5.45,0,0,1,5.44-5.44h41.11A5.44,5.44,0,0,1,237.57,152.12Z"/><rect class="cls-5" x="12.43" y="147.87" width="51.98" height="46.12" rx="11.66"/><rect class="cls-14" x="22.03" y="147.87" width="51.98" height="46.12" rx="11.66"/><path class="cls-16" d="M85.22,149C81,155.68,73.29,158.57,67,156.38s-8.61-8.6-8.92-9.51a84.34,84.34,0,0,1,0-15.51,87.62,87.62,0,0,1,13.38-38.6,14.26,14.26,0,0,1,11.93-.54,14,14,0,0,1,7.47,8.11A77.44,77.44,0,0,0,85.22,149Z"/><path class="cls-16" d="M103.46,110.26a15.86,15.86,0,0,1-1.69,3.39c-1.14,1.73-2.1,3.19-3.65,3.36a3.75,3.75,0,0,1-2.81-1.07q-2-1.34-4-2.8c-3.21-2.32-6.17-4.66-8.89-7a7.26,7.26,0,0,1-5.15-6c-.28-3.29,2.23-6.73,4.51-6.8a2.6,2.6,0,0,1,2.09.85q3.9,3.47,8,7c1.54,1.32,2.56,2.28,4.63,3.94C99.3,107.45,101.79,109.16,103.46,110.26Z"/><path class="cls-8" d="M135.12,113a7.66,7.66,0,0,1,.34,1.93,7.25,7.25,0,0,1-.2,2l-2.42.2a11.88,11.88,0,0,0-1.7.34,13.4,13.4,0,0,0-3.93,1.79l-4-2.38a6.72,6.72,0,0,1,2.81-3.58,6.31,6.31,0,0,1,3-.92,17.14,17.14,0,0,1,3.3.48A16.78,16.78,0,0,0,135.12,113Z"/><path class="cls-33" d="M121.06,114.91a6.3,6.3,0,0,1,.55-1.16l.91,0a5.65,5.65,0,0,1,1.26-1.17,6.5,6.5,0,0,1,2.18-.94c1.23-.23,1.3.21,2.91,0,.66-.09,1.08-.22,1.24,0s0,.81-.4,1c-.54.35-1.09-.19-2.11,0a3,3,0,0,0-1.16.44c.45.26.93.55,1.41.89s.88.64,1,.72c.41.33,1.17.9,2.69,2l1.89.39c.17.21.76,1,.53,1.31-.09.12-.45.13-1.16.14a3,3,0,0,0-.87,0,3.3,3.3,0,0,0-.78.44,4.79,4.79,0,0,1-1,.38,9.43,9.43,0,0,1-5-.37,15,15,0,0,1-3.45-1.57l-.87-.12A5.54,5.54,0,0,1,121.06,114.91Z"/><path class="cls-34" d="M120.09,118.57a4.58,4.58,0,0,1-.87-1.83,5.09,5.09,0,0,1,.88-3.94l2,.39a5.91,5.91,0,0,1-.54,5.26Z"/><path class="cls-16" d="M120.21,119.17A51.56,51.56,0,0,1,95.55,116a6.24,6.24,0,0,1-.32-2.75c.36-3.38,3.49-5.18,3.91-5.41,1,.27,2.55.7,4.5,1.18,4.8,1.16,8.46,1.87,9.58,2.08,2,.36,4.42.78,7.28,1.17a7.08,7.08,0,0,1,.77,3.52A6.88,6.88,0,0,1,120.21,119.17Z"/><path class="cls-8" d="M131,112.62a5.55,5.55,0,0,0-.94-.25,5.7,5.7,0,0,0-2.49.17,16,16,0,0,0-1.94.73c-1.37.52-1.78.6-1.79.82s.67.6,1.26.68a4.08,4.08,0,0,0,1.84-.34,11.3,11.3,0,0,1,2.38-.44Z"/><path class="cls-8" d="M123.33,117.19c-.59.22-1.25.8-1.11,1.22s.64.47,1.26.43a1.6,1.6,0,0,0,.77.68c1,.4,2.36-.53,2.28-1,0-.19-.37-.42-1.79-.53.33-.25.41-.41.39-.54C125.06,117.15,124.1,116.92,123.33,117.19Z"/><path class="cls-8" d="M125.47,119a1.1,1.1,0,0,0,.14,1.16,1.2,1.2,0,0,0,1.7-.24,1.68,1.68,0,0,0,.82.14c1-.08,1.82-1.19,1.65-1.45-.06-.09-.33-.23-2,.48.18-.3.22-.51.14-.63S126.9,118.42,125.47,119Z"/><path class="cls-8" d="M97.24,70.77a22.51,22.51,0,0,1,1.23,2.77,24.67,24.67,0,0,1,1.1,5.14,2.45,2.45,0,0,1,0,1A2.73,2.73,0,0,1,99,80.74a6.35,6.35,0,0,0,1.29,2.89c.54.65,1,1,1,1.38s-.46.74-2.18,1.08a4.11,4.11,0,0,0-.22.88c-.08.72.11,1-.09,1.4-.1.23-.15.2-.56.78-.19.27-.33.5-.42.65.21,1.7-.3,2.31-.54,2.53-1.72,1.57-6.41-1.64-6.61-1.78a7.19,7.19,0,0,1-2.88-3.15,6.6,6.6,0,0,1-.42-3.51,31.35,31.35,0,0,1,9.92-13.12Z"/><path class="cls-16" d="M203.57,142.43a72.62,72.62,0,0,0,3.19-8.44c2.92-9.45,2.25-14.18,2-15.63-.14-.79-.29-1.44-.39-1.84-.71.1-1.45.22-2.22.37a34.59,34.59,0,0,0-6.39,1.93c-.06,1-.17,2.64-.36,4.64-.46,4.91-1,8.6-1.16,9.73-.3,2-.71,4.44-1.27,7.26a7,7,0,0,0,3.07,1.88A6.91,6.91,0,0,0,203.57,142.43Z"/><path class="cls-19" d="M203,142.12a4.6,4.6,0,0,0-1.44-1.42,5.11,5.11,0,0,0-4-.46l-.29,2a6.29,6.29,0,0,0,1.7,1,6.14,6.14,0,0,0,3.44.22Z"/><path class="cls-8" d="M196.85,146.19a17.13,17.13,0,0,0,2.39-.36,3.73,3.73,0,0,0,1.52-.54,2.91,2.91,0,0,0,1-2,4,4,0,0,0-1.69-1.31,4.13,4.13,0,0,0-2.33-.24l-.39.48c-2.4.94-4.15,1.64-4.67,1.82a2.52,2.52,0,0,0-1.08.67,4,4,0,0,0-.73,1.54,5.29,5.29,0,0,0-.49,1.86c0,.5.19.44.36,1.39.07.38.09.62.27.71s.57-.07.75-.24c.65-.65-.05-2.2-.08-2.27l1.18-1.55,2.1-.21Z"/><path class="cls-8" d="M191.62,149.6a1.3,1.3,0,0,0,1-.21c.45-.36.32-.95.65-1.72a3.3,3.3,0,0,1,1.06-1.3,4.47,4.47,0,0,0-.37,1.14c-.05.3-.19,1.15.1,1.29s.49-.15.65-.32c.34-.36.31-.75.44-1.16.33-1.1,1.46-1.21,1.39-1.68s-1.73-1.07-3.14-.6a3.2,3.2,0,0,0-1.71,1.33A3.53,3.53,0,0,0,191.62,149.6Z"/><path class="cls-8" d="M189.13,148.73c-.19-.1-.17-.5-.1-1a6.05,6.05,0,0,1,.71-2.77c.54-.7,1.26-.82,2.82-1.2,1.08-.26,2.66-.67,4.61-1.28a22.48,22.48,0,0,1-5.21,3,2.25,2.25,0,0,0-1.12.66c-.6.73-.24,1.56-.94,2.26C189.69,148.58,189.33,148.83,189.13,148.73Z"/><path class="cls-12" d="M86.58,110a17.53,17.53,0,0,1-5.09-3,18,18,0,0,1-5.24-7.42Z"/><path class="cls-35" d="M92.76,76.23c-.39.71-.78,1.51-1.16,2.4S91,80.23,90.73,81L88.47,81a10.68,10.68,0,0,1-5.28,5.87l.19-1.17a8.73,8.73,0,0,1-1.7-1.65c-2.47-3.14-2-7-1.84-8.24Z"/><path class="cls-35" d="M100.84,71.72a4.16,4.16,0,0,1-.93,1.65c-1.94,2.09-5.41,1.16-5.57,1.11a7.86,7.86,0,0,1-1.26,1.65,8.3,8.3,0,0,1-1.89,1.41c-.94.21-1.93.48-3,.82a32.38,32.38,0,0,0-7.71,3.78,9.48,9.48,0,0,1-1-2.18A11.26,11.26,0,0,1,81.78,69.9C85.26,66.06,93.82,65.86,100.84,71.72Z"/><path class="cls-8" d="M89.13,80.34a2.49,2.49,0,0,0-2-1.06,2.33,2.33,0,0,0-2,2c-.09.68.25,1.21.93,2.26.56.88.9,1,1.06,1.06a1.78,1.78,0,0,0,1.39-.26C88.68,83,88.9,81.67,89.13,80.34Z"/><path class="cls-36" d="M98,79.78c-.06-.2-.54-.18-.7-.17a3.06,3.06,0,0,0-2,1c.46-.1.94-.2,1.46-.27.35-.06.68-.1,1-.13C97.9,80.07,98.05,79.9,98,79.78Z"/><path class="cls-22" d="M97.73,80a1.78,1.78,0,0,1,.17.62,2.07,2.07,0,0,1-.61,1.52,2.39,2.39,0,0,1-1-.4,2.89,2.89,0,0,1-1-1.2,3.87,3.87,0,0,1,1.22-.51A3.56,3.56,0,0,1,97.73,80Z"/><path class="cls-22" d="M98.33,88.55l-.11,0-.29-.13a3.61,3.61,0,0,1-1.57-1.57,2.74,2.74,0,0,0,.27.29,3.17,3.17,0,0,0,.69.51,3.31,3.31,0,0,0,.78.31l.27,0h.1a.29.29,0,0,1,.25.33.29.29,0,0,1-.33.25Z"/><rect class="cls-37" x="185.59" y="161.04" width="51.98" height="1.75"/><path class="cls-7" d="M111.21,187.8l.24,3.68a2.4,2.4,0,0,0-.47.79,2.46,2.46,0,0,0-.08,1.34l4.74.32c.77.19,1.73.39,2.84.55.88.13,1.6.19,2.29.24,4,.28,6.38.45,6.71-.4a.88.88,0,0,0-.16-.87c-.12-.11-.31-.12-.67-.16l-1-.07c-.49,0-3-.58-9.59-2.33l-1.17-3.38Z"/><path class="cls-16" d="M58.85,147.07a8.61,8.61,0,0,0,.81,5.33c1.52,2.78,4.68,4.15,9.39,4.94,5.08.84,14.39,1.68,28-.79A103.18,103.18,0,0,0,110.63,191a6.27,6.27,0,0,0,3,.19,6.37,6.37,0,0,0,2.52-1.06q-1.72-9-3.3-18.33-1.65-9.78-3-19.2a5.44,5.44,0,0,0-1-2.62,5.72,5.72,0,0,0-3.79-2.18Z"/><path class="cls-13" d="M66.8,160.3H39.3c-1.67,0-3.21-1.67-3.45-3.72l-5.17-44.51c-.24-2.06.92-3.72,2.58-3.72H60.77c1.66,0,3.21,1.66,3.45,3.72l5.17,44.51C69.63,158.63,68.47,160.3,66.8,160.3Z"/><path class="cls-5" d="M54.66,160.3H30.25c-1.48,0-2.85-1.67-3.06-3.72L22.6,112.07c-.22-2.06.81-3.72,2.29-3.72H49.3c1.48,0,2.85,1.66,3.06,3.72L57,156.58C57.17,158.63,56.14,160.3,54.66,160.3Z"/><path class="cls-5" d="M27.19,156.58H59a0,0,0,0,1,0,0v24.28a0,0,0,0,1,0,0H43.67a16.48,16.48,0,0,1-16.48-16.48v-7.8A0,0,0,0,1,27.19,156.58Z"/><rect class="cls-5" x="46.82" y="149.59" width="51.98" height="46.12" rx="11.66"/><path class="cls-38" d="M97.85,81.15c-.08.38-.34.92-.65.9s-.65-.65-.52-1.18.69-.91,1-.76S97.91,80.82,97.85,81.15Z"/><path class="cls-39" d="M97.89,81.07c0,.35-.3.72-.54.68s-.36-.43-.3-.75.35-.61.58-.55S97.9,80.84,97.89,81.07Z"/><path class="cls-22" d="M97.52,80.5a.41.41,0,0,1-.39.43.43.43,0,0,1,0-.85A.4.4,0,0,1,97.52,80.5Z"/><path class="cls-40" d="M98.85,78.26a4.35,4.35,0,0,0-.83-.33,4.83,4.83,0,0,0-2-.14,3.19,3.19,0,0,1,1.23-.51c.47-.09,1.54-.18,1.75.29C99,77.65,99.09,77.86,98.85,78.26Z"/><path class="cls-29" d="M88.71,81.5a1.27,1.27,0,0,0-1-1.11,1.59,1.59,0,0,0-1.64,1.24,2,2,0,0,0,1.64,2.3s.43,0,.57-.27-.19-.51-.17-1S88.69,82,88.71,81.5Z"/><path class="cls-35" d="M99.26,86.07a3.74,3.74,0,0,0-1-.31,3.42,3.42,0,0,0-3.4,1.2A2.27,2.27,0,0,1,92,84.23a9.44,9.44,0,0,0-1.23-4.32h-2a6.81,6.81,0,0,1,.1,2.23,3.08,3.08,0,0,1-.78,2.09,2.22,2.22,0,0,1-1.11.53,8,8,0,0,0,.68,3.64c1.93,4.31,7.79,6.37,9.4,5A3.4,3.4,0,0,0,98,91.45c.1-.65.11-1.34-.26-1.58s-1.23.41-1.82.14c-.4-.18-.73-.8-.65-2.55a5.06,5.06,0,0,1,1.38-.14,6.33,6.33,0,0,1,1.62.3l.51.17a1.22,1.22,0,0,0,.51-1.72Z"/><path class="cls-41" d="M94,73.27c0,.07-.81-.43-1.61-.74-2.63-1-5.54,0-5.57-.18s1.05-.35,1.06-.76c0-.18-.19-.25-.15-.38.08-.29,1-.17,1.08-.43s-.22-.24-.19-.37.86,0,1.06-.38c.09-.14,0-.25,0-.38.15-.43,1.84-.5,3.37,0A6.59,6.59,0,0,1,97,73c0,.06-.51-.35-.87-.17-.18.09-.14.23-.32.31-.33.15-.67-.24-.91-.08s-.09.24-.21.3-.47-.16-.73-.37a5,5,0,0,0-1.34-.79S94.06,73.17,94,73.27Z"/><path class="cls-41" d="M91.91,68.9a9,9,0,0,1,2,.59,10.13,10.13,0,0,1,3.52,3.09A4.56,4.56,0,0,0,95.48,70,5.89,5.89,0,0,0,91.91,68.9Z"/><path class="cls-41" d="M97.93,72.36a3.22,3.22,0,0,0-.47-2.12,4.54,4.54,0,0,0-3.06-2.1,6.48,6.48,0,0,1,2.35,1.79A9.5,9.5,0,0,1,97.93,72.36Z"/><path class="cls-42" d="M93.42,74.34a23.54,23.54,0,0,1-3.4,0,22.29,22.29,0,0,1-6.2-1.31,4.91,4.91,0,0,1-1.31.58,4.73,4.73,0,0,1-2.77-.15,3,3,0,0,0,2.23,1,3,3,0,0,0,1.7-.58c-.54.46-.76.94-.63,1.11s.57.1,1.07-.14c-.45.42-1,1-.83,1.21s.77.07,1.46,0c2.35-.25,4.13.73,4.22.49s-1.43-1-1.36-1.12.68.32,1.4.15a1.76,1.76,0,0,0,.78-.44,7.67,7.67,0,0,0,1.55-.15A7.87,7.87,0,0,0,93.42,74.34Z"/><path class="cls-42" d="M87.26,77.29a4.28,4.28,0,0,0-1.8-.58,5.6,5.6,0,0,0-2.76,0,6.88,6.88,0,0,0,2.33.54A6,6,0,0,0,87.26,77.29Z"/><path class="cls-8" d="M97.64,82.94a4,4,0,0,0-.83-1.35,4.13,4.13,0,0,0-2.33-1.26,2.45,2.45,0,0,0,.59,2.15A2.31,2.31,0,0,0,97.64,82.94Z"/><path class="cls-35" d="M82,70.19a1.64,1.64,0,0,0-1.31-1.09c-.63-.09-1.32.21-1.31.44S80,70,82,70.19Z"/><path class="cls-4" d="M166.86,196h-2.33V165.44a4.08,4.08,0,0,0-4.07-4.08H93V159h67.51a6.41,6.41,0,0,1,6.4,6.4Z"/><path class="cls-22" d="M166.7,159.09H101.59a.53.53,0,0,1-.53-.53h0a.52.52,0,0,1,.53-.52H166.7a.52.52,0,0,1,.53.52h0A.52.52,0,0,1,166.7,159.09Z"/><path class="cls-35" d="M82.22,70.26c0-.19-1-.21-1.82.08a3.09,3.09,0,0,0-1.6,1.38C81.61,70.82,82.25,70.43,82.22,70.26Z"/><path class="cls-43" d="M91.42,90.27c.29.14,1-.67,1.41-1.46.26-.5.39-1,.3-1s-.48.51-.62.43.11-.72-.08-.83-.49.3-.61.21.26-.76.07-.94-.6.19-.76,0,.33-.81.1-1.12-.46-.16-1.16-.11-1.24.12-1.24.22.53,0,.62.29-.39.63-.29.8.54-.06.66.11-.32.62-.19.83.63,0,.77.19-.24.53-.11.76.48,0,.76.22C91.52,89.17,91.13,90.13,91.42,90.27Z"/><path class="cls-43" d="M96.44,92.88c.21,0,.37-.53.4-.94s-.17-1-.3-1-.13.5-.25.51-.31-.92-.47-.91-.15.64-.29.65-.24-.77-.59-.83-.56.43-.69.36.19-.61,0-.8-1,.28-1.09.15.6-.65.55-.73a2.44,2.44,0,0,0-1.42.91c-.37.42-.59.88-.51.94s.36-.3.65-.21.21.34.48.43.46-.09.54,0-.32.69-.22.8.81-.46,1-.29,0,.42.11.51.52-.29.69-.18,0,.63.11.69.4-.5.73-.47S96.23,92.9,96.44,92.88Z"/><path class="cls-32" d="M177.56,85.09h-.34l0-.43a3.06,3.06,0,0,0,.95-.12,4.14,4.14,0,0,0,.61-.26l.21.37a3.56,3.56,0,0,1-.7.29A3.2,3.2,0,0,1,177.56,85.09Z"/><path class="cls-44" d="M174.32,81.87c.83-.05,1.71-.13,2.64-.26s2-.31,3-.51a2.88,2.88,0,0,1-5.61.77Z"/><path class="cls-22" d="M175.32,81.8A7.9,7.9,0,0,0,177,82a8,8,0,0,0,2.82-.42,1.54,1.54,0,0,0,.09-.24,1.05,1.05,0,0,0,0-.31c-.68.16-1.42.31-2.2.43S176.07,81.74,175.32,81.8Z"/><path class="cls-45" d="M176.52,83.67c-.05-.16.58-.54,1.14-.72a3.25,3.25,0,0,1,1.46-.12,3.14,3.14,0,0,1-1.08.7C177.38,83.79,176.57,83.83,176.52,83.67Z"/><path class="cls-7" d="M196.74,100.52c.49,3.8.89,7.81,1.17,12,.43,6.72.48,13,.29,18.81a16.07,16.07,0,0,0-.49,2.33,17.05,17.05,0,0,0,0,4.36q1.17-9.45,2.33-18.91l3.64-.44-3.54-1.11Z"/><path class="cls-13" d="M108.4,155v35.24a5.43,5.43,0,0,1-5.44,5.44H61.86a5.43,5.43,0,0,1-5.44-5.44V155a5.44,5.44,0,0,1,5.44-5.44H103A5.44,5.44,0,0,1,108.4,155Z"/><rect class="cls-37" x="56.42" y="163.37" width="51.98" height="1.75"/><path class="cls-46" d="M120.24,157.28h24.6a1.51,1.51,0,0,0,1.5-2l-3.75-16a2.64,2.64,0,0,0-2.42-2h-24.6a1.51,1.51,0,0,0-1.5,2l3.75,16A2.64,2.64,0,0,0,120.24,157.28Z"/><path class="cls-46" d="M121.27,158.05h32.25a.47.47,0,0,0,.47-.47h0a.47.47,0,0,0-.47-.47H121.27a.47.47,0,0,0-.47.47h0A.47.47,0,0,0,121.27,158.05Z"/><path class="cls-47" d="M127.22,148.65c.45,1.66,1.59,2.8,2.55,2.54s1.37-1.81.92-3.48-1.59-2.8-2.55-2.54S126.77,147,127.22,148.65Z"/></g></g></svg>