<svg id="Layer_1" data-name="Layer 1" xmlns="http://www.w3.org/2000/svg" viewBox="0 0 250 250"><defs><style>.cls-1{fill:#f9320b;}.cls-1,.cls-26{opacity:0.1;}.cls-2{fill:#3b0f37;}.cls-3{fill:#ececec;}.cls-4{fill:#f0f0f0;}.cls-5{fill:#f5f5f5;}.cls-6{fill:#fafafa;}.cls-7{fill:#e7e7e7;}.cls-8{fill:#e1e1e1;}.cls-9{fill:#1a2e35;}.cls-10,.cls-12,.cls-13,.cls-14,.cls-16,.cls-17,.cls-18,.cls-20,.cls-22{fill:#fff;}.cls-10,.cls-15{opacity:0.7;}.cls-11{fill:#007cff;}.cls-12,.cls-19,.cls-24{opacity:0.3;}.cls-13,.cls-33{opacity:0.6;}.cls-14,.cls-32{opacity:0.5;}.cls-17,.cls-23{opacity:0.4;}.cls-18{opacity:0.9;}.cls-20{opacity:0.8;}.cls-21,.cls-22,.cls-27{opacity:0.2;}.cls-25{fill:#ffc3bd;}.cls-27{isolation:isolate;}.cls-28{fill:#ff847f;}.cls-29{fill:#ff5551;}.cls-30{fill:#ffb570;}.cls-31{fill:#ff8935;}</style></defs><path class="cls-1" d="M19.16,195.55S-10.51,159.81,4,123C13.44,99,48.9,85.89,68.9,99c8.53,5.59,35.87.18,50.46-23,28.37-45,127.37-17.68,109.35,51.46-8.72,33.45,26.54,34.67,8.57,68.11Z"/><rect class="cls-2" y="195.02" width="250" height="0.96" rx="0.48"/><rect class="cls-3" x="196.65" y="190.01" width="14.23" height="0.11"/><rect class="cls-3" x="156.16" y="191.18" width="3.73" height="0.11"/><rect class="cls-3" x="187.98" y="186.02" width="8.25" height="0.11"/><rect class="cls-3" x="40.13" y="186.75" width="18.56" height="0.11"/><rect class="cls-3" x="62.51" y="186.75" width="2.72" height="0.11"/><rect class="cls-3" x="74.08" y="188.56" width="40.25" height="0.11"/><path class="cls-3" d="M119.42,163.94h-83A2.45,2.45,0,0,1,34,161.49V44.87a2.45,2.45,0,0,1,2.45-2.45h83a2.45,2.45,0,0,1,2.45,2.45V161.49A2.45,2.45,0,0,1,119.42,163.94Zm-83-121.41a2.34,2.34,0,0,0-2.34,2.34V161.49a2.34,2.34,0,0,0,2.34,2.34h83a2.35,2.35,0,0,0,2.35-2.34V44.87a2.35,2.35,0,0,0-2.35-2.34Z"/><path class="cls-3" d="M212.35,163.94h-83a2.45,2.45,0,0,1-2.45-2.45V44.87a2.45,2.45,0,0,1,2.45-2.45h83a2.45,2.45,0,0,1,2.45,2.45V161.49A2.45,2.45,0,0,1,212.35,163.94Zm-83-121.41A2.35,2.35,0,0,0,127,44.87V161.49a2.35,2.35,0,0,0,2.35,2.34h83a2.34,2.34,0,0,0,2.34-2.34V44.87a2.34,2.34,0,0,0-2.34-2.34Z"/><rect class="cls-3" x="17.59" y="183.1" width="214.81" height="0.11"/><rect class="cls-4" x="144.75" y="59.97" width="51.9" height="123.19"/><rect class="cls-5" x="146.96" y="62.2" width="47.49" height="120.96"/><rect class="cls-6" x="150.55" y="78.16" width="19.04" height="44.3"/><rect class="cls-6" x="172.07" y="78.16" width="19.04" height="44.3"/><rect class="cls-3" x="150.55" y="135.85" width="40.55" height="44.3"/><path class="cls-6" d="M161,65.41h19.64a10.45,10.45,0,0,1,10.45,10.45v0a0,0,0,0,1,0,0H150.55a0,0,0,0,1,0,0v0A10.45,10.45,0,0,1,161,65.41Z"/><rect class="cls-7" x="150.55" y="124.45" width="3.46" height="9.02"/><rect class="cls-8" x="154.02" y="124.45" width="0.68" height="9.02" transform="translate(308.71 257.92) rotate(180)"/><path class="cls-8" d="M152.87,128a1.46,1.46,0,1,1-1.46-1.46A1.46,1.46,0,0,1,152.87,128Z"/><rect class="cls-8" x="151.84" y="130.52" width="0.75" height="1.83"/><circle class="cls-3" cx="150.12" cy="127.99" r="2.04"/><polygon class="cls-6" points="52.35 70.83 70.76 60.12 84.93 60.12 103.64 70.32 103.64 164.62 52.35 164.62 52.35 70.83"/><path class="cls-5" d="M104.17,164.62H52.36V70.83l.52-.51a36.45,36.45,0,0,1,25.38-10.2h0a36.43,36.43,0,0,1,25.38,10.2l.53.51Zm-48.38-3.44h44.94V72.3a33.25,33.25,0,0,0-44.94,0Z"/><polygon class="cls-4" points="101.38 87.52 101.38 84.94 79.55 84.94 79.55 63.11 76.97 63.11 76.97 84.94 55.14 84.94 55.14 87.52 76.97 87.52 76.97 111.07 55.14 111.07 55.14 113.65 76.97 113.65 76.97 137.2 55.14 137.2 55.14 139.78 76.97 139.78 76.97 161.61 79.55 161.61 79.55 139.78 101.38 139.78 101.38 137.2 79.55 137.2 79.55 113.65 101.38 113.65 101.38 111.07 79.55 111.07 79.55 87.52 101.38 87.52"/><path class="cls-3" d="M105.89,166.34H50.64V70.12l.5-.5a38.4,38.4,0,0,1,54.24,0l.51.5ZM54.07,162.9h48.38V71.56a35,35,0,0,0-48.38,0Z"/><polygon class="cls-9" points="120.6 174.54 121.24 175.24 121.94 174.6 122.58 175.29 123.28 174.66 123.92 175.35 124.61 174.71 125.25 175.41 125.95 174.77 126.59 175.47 127.28 174.83 127.92 175.53 128.62 174.89 129.26 175.59 129.96 174.95 130.6 175.64 131.29 175 131.93 175.7 132.63 175.06 133.27 175.76 133.97 175.12 134.61 175.82 135.31 175.18 135.94 175.88 136.64 175.24 137.28 175.94 137.98 175.3 138.62 175.99 139.31 175.35 139.95 176.05 140.65 175.41 141.29 176.11 141.99 175.47 142.63 176.17 143.32 175.53 143.66 175.9 144.7 174.99 142.5 171.39 142.19 168.11 119.49 172.69 119.98 175.11 120.6 174.54"/><polygon class="cls-10" points="120.6 174.54 121.24 175.24 121.94 174.6 122.58 175.29 123.28 174.66 123.92 175.35 124.61 174.71 125.25 175.41 125.95 174.77 126.59 175.47 127.28 174.83 127.92 175.53 128.62 174.89 129.26 175.59 129.96 174.95 130.6 175.64 131.29 175 131.93 175.7 132.63 175.06 133.27 175.76 133.97 175.12 134.61 175.82 135.31 175.18 135.94 175.88 136.64 175.24 137.28 175.94 137.98 175.3 138.62 175.99 139.31 175.35 139.95 176.05 140.65 175.41 141.29 176.11 141.99 175.47 142.63 176.17 143.32 175.53 143.66 175.9 144.7 174.99 142.5 171.39 142.19 168.11 119.49 172.69 119.98 175.11 120.6 174.54"/><path class="cls-11" d="M149.47,173.94a11.66,11.66,0,0,1-2.57-6.08.46.46,0,0,1,0-.19.68.68,0,0,0-.77-.88l-3.49.71a1.52,1.52,0,0,0-1.23,1.45l-.09,2.84a1.53,1.53,0,0,0,.32,1l2.35,3a1.55,1.55,0,0,0,1.51.56l4.14-.84a.67.67,0,0,0,.25-1.21A3,3,0,0,1,149.47,173.94Zm-4,.88c-.94-.71-1.75-3.1-2-4.25-.07-.39-.17-1.27.09-1.57a2.4,2.4,0,0,1,1.25-.33.34.34,0,0,1,.35.42,1.32,1.32,0,0,0-.08.61c.1.3.83.53.94.82s-.24.81-.13,1,.78.33.92.56-.08.92.05,1.2a2.3,2.3,0,0,0,.6.63.34.34,0,0,1,0,.52,3.5,3.5,0,0,1-.86.52A2,2,0,0,1,145.44,174.82Z"/><path class="cls-12" d="M149.47,173.94a11.66,11.66,0,0,1-2.57-6.08.46.46,0,0,1,0-.19.68.68,0,0,0-.77-.88l-3.49.71a1.52,1.52,0,0,0-1.23,1.45l-.09,2.84a1.53,1.53,0,0,0,.32,1l2.35,3a1.55,1.55,0,0,0,1.51.56l4.14-.84a.67.67,0,0,0,.25-1.21A3,3,0,0,1,149.47,173.94Zm-4,.88c-.94-.71-1.75-3.1-2-4.25-.07-.39-.17-1.27.09-1.57a2.4,2.4,0,0,1,1.25-.33.34.34,0,0,1,.35.42,1.32,1.32,0,0,0-.08.61c.1.3.83.53.94.82s-.24.81-.13,1,.78.33.92.56-.08.92.05,1.2a2.3,2.3,0,0,0,.6.63.34.34,0,0,1,0,.52,3.5,3.5,0,0,1-.86.52A2,2,0,0,1,145.44,174.82Z"/><path class="cls-11" d="M170.82,85.6a4.82,4.82,0,0,0,3.28-1.47,5.1,5.1,0,0,0,0-7.21,4.55,4.55,0,0,0-2.83-1.43,24.36,24.36,0,0,0-3,0,4.53,4.53,0,0,0-2.83,1.43l-3.61,3.6,3.61,3.61a4.76,4.76,0,0,0,2.83,1.43C168.94,85.61,170.19,85.62,170.82,85.6Z"/><path class="cls-12" d="M170.82,85.6a4.82,4.82,0,0,0,3.28-1.47,5.1,5.1,0,0,0,0-7.21,4.55,4.55,0,0,0-2.83-1.43,24.36,24.36,0,0,0-3,0,4.53,4.53,0,0,0-2.83,1.43l-3.61,3.6,3.61,3.61a4.76,4.76,0,0,0,2.83,1.43C168.94,85.61,170.19,85.62,170.82,85.6Z"/><path class="cls-11" d="M166.89,76.92a5.1,5.1,0,1,1,0,7.21l-3.61-3.61Z"/><path class="cls-13" d="M166.89,76.92a5.1,5.1,0,1,1,0,7.21l-3.61-3.61Z"/><polygon class="cls-9" points="157.72 76.19 162 80.47 163.2 80.47 158.92 76.19 157.72 76.19"/><polygon class="cls-10" points="157.72 76.19 162 80.47 163.2 80.47 158.92 76.19 157.72 76.19"/><path class="cls-9" d="M157.72,76.19l.29-.3a1.07,1.07,0,0,1,.74-.3h.31a.19.19,0,0,1,.13.33l-.27.27Z"/><path class="cls-14" d="M157.72,76.19l.29-.3a1.07,1.07,0,0,1,.74-.3h.31a.19.19,0,0,1,.13.33l-.27.27Z"/><g class="cls-15"><path class="cls-16" d="M172.77,82.16a2.81,2.81,0,0,0-3.92-3.92Z"/><path class="cls-16" d="M168.21,78.88a2.81,2.81,0,0,0,3.92,3.92Z"/></g><path class="cls-11" d="M190.62,82l-2.2,1s2.92,5.88,3.81,7.88,3.12,7.65,4,9.85a.94.94,0,0,0,1.26.51l1-.46a.94.94,0,0,0,.44-1.28c-1.1-2.1-3.87-7.42-4.86-9.52S190.62,82,190.62,82Z"/><path class="cls-14" d="M190.62,82l-2.2,1s2.92,5.88,3.81,7.88,3.12,7.65,4,9.85a.94.94,0,0,0,1.26.51l1-.46a.94.94,0,0,0,.44-1.28c-1.1-2.1-3.87-7.42-4.86-9.52S190.62,82,190.62,82Z"/><path class="cls-9" d="M185.19,81.17a16.89,16.89,0,0,1,1.55-1.37,4,4,0,0,1,1.6-.73c1.24-.27,3.21-.38,5.45,1.86l-.55.25s-2.37-2.11-3-.81c-.18.38.39,1.63.39,1.63l-2.21,1a2,2,0,0,0-2.77-.79Z"/><path class="cls-13" d="M185.19,81.17a16.89,16.89,0,0,1,1.55-1.37,4,4,0,0,1,1.6-.73c1.24-.27,3.21-.38,5.45,1.86l-.55.25s-2.37-2.11-3-.81c-.18.38.39,1.63.39,1.63l-2.21,1a2,2,0,0,0-2.77-.79Z"/><rect class="cls-9" x="184.15" y="80.62" width="1.65" height="2.57" rx="0.83" transform="translate(-17.31 84.2) rotate(-24.53)"/><rect class="cls-17" x="184.15" y="80.62" width="1.65" height="2.57" rx="0.83" transform="translate(-17.31 84.2) rotate(-24.53)"/><rect class="cls-9" x="58.34" y="87.96" width="106.87" height="72.69"/><rect class="cls-14" x="58.34" y="87.96" width="106.87" height="72.69"/><rect class="cls-18" x="60.71" y="90.32" width="102.14" height="67.96"/><rect class="cls-9" x="77.57" y="123.15" width="28.2" height="23.47"/><rect class="cls-10" x="77.57" y="123.15" width="28.2" height="23.47"/><rect class="cls-11" x="90.23" y="129.4" width="11.91" height="14.8"/><rect class="cls-11" x="80.84" y="129.4" width="7.58" height="12.32"/><rect class="cls-10" x="81.52" y="130.09" width="6.21" height="10.94"/><polygon class="cls-14" points="82.49 141.03 85.08 141.03 87.73 131.12 87.73 130.09 85.42 130.09 82.49 141.03"/><rect class="cls-10" x="91.18" y="130.35" width="4.57" height="13.85"/><rect class="cls-10" x="96.63" y="130.35" width="4.57" height="13.85"/><rect class="cls-9" x="81.42" y="112.44" width="23.66" height="11.04"/><rect class="cls-10" x="81.42" y="112.44" width="23.66" height="11.04"/><rect class="cls-11" x="85.52" y="115.87" width="7.58" height="3.33"/><rect class="cls-10" x="86.21" y="116.56" width="6.21" height="1.95"/><rect class="cls-11" x="93.82" y="115.87" width="7.58" height="3.33"/><rect class="cls-10" x="94.51" y="116.56" width="6.21" height="1.95"/><polygon class="cls-14" points="87.76 118.51 90.35 118.51 90.87 116.56 88.28 116.56 87.76 118.51"/><polygon class="cls-14" points="96.06 118.51 98.65 118.51 99.17 116.56 96.58 116.56 96.06 118.51"/><polygon class="cls-11" points="111.86 126.34 73.95 126.34 77.26 119.96 110.91 119.96 111.86 126.34"/><polygon class="cls-19" points="111.86 126.34 73.95 126.34 77.26 119.96 110.91 119.96 111.86 126.34"/><polygon class="cls-11" points="106.33 115.11 78.96 115.11 81.1 110.99 105.72 110.99 106.33 115.11"/><polygon class="cls-19" points="106.33 115.11 78.96 115.11 81.1 110.99 105.72 110.99 106.33 115.11"/><rect class="cls-9" x="73.95" y="144.2" width="31.82" height="2.42"/><rect class="cls-14" x="73.95" y="144.2" width="31.82" height="2.42"/><polygon class="cls-11" points="104.21 106.19 104.21 125.09 139.29 125.09 139.29 106.19 121.75 96.9 104.21 106.19"/><polygon class="cls-14" points="104.21 106.19 104.21 125.09 139.29 125.09 139.29 106.19 121.75 96.9 104.21 106.19"/><rect class="cls-11" x="104.21" y="123.47" width="35.07" height="23.14"/><rect class="cls-14" x="104.21" y="123.47" width="35.07" height="23.14"/><polygon class="cls-11" points="134.94 119.72 108.56 119.72 108.56 108.13 121.75 100.8 134.94 108.13 134.94 119.72"/><polygon class="cls-20" points="134.94 119.72 108.56 119.72 108.56 108.13 121.75 100.8 134.94 108.13 134.94 119.72"/><rect class="cls-11" x="113.81" y="109.76" width="7.58" height="7.58"/><rect class="cls-10" x="114.5" y="110.44" width="6.21" height="6.21"/><rect class="cls-11" x="122.11" y="109.76" width="7.58" height="7.58"/><rect class="cls-10" x="122.8" y="110.44" width="6.21" height="6.21"/><rect class="cls-9" x="107.62" y="129.06" width="28.27" height="17.55"/><rect class="cls-12" x="107.62" y="129.06" width="28.27" height="17.55"/><polygon class="cls-14" points="115.48 116.65 118.07 116.65 119.73 110.44 117.14 110.44 115.48 116.65"/><polygon class="cls-14" points="123.78 116.65 126.37 116.65 128.03 110.44 125.44 110.44 123.78 116.65"/><polygon class="cls-11" points="142.63 109.96 121.75 98.6 100.87 109.96 99.74 107.89 121.75 95.9 143.76 107.89 142.63 109.96"/><polygon class="cls-11" points="140.71 126.34 102.8 126.34 103.74 121.85 139.76 121.85 140.71 126.34"/><polygon class="cls-11" points="136.1 109.75 121.75 101.94 107.4 109.75 106.5 108.09 121.75 99.79 137 108.09 136.1 109.75"/><rect class="cls-14" x="108.56" y="130.01" width="4.57" height="16.61"/><rect class="cls-14" x="114.02" y="130.01" width="4.57" height="16.61"/><rect class="cls-14" x="119.47" y="130.01" width="4.57" height="16.61"/><rect class="cls-14" x="124.92" y="130.01" width="4.57" height="16.61"/><rect class="cls-14" x="130.37" y="130.01" width="4.57" height="16.61"/><path class="cls-9" d="M139.05,149h-34.6v-1H104v1H74.18v-1h-.47v1.48H104v1.24h35.54V148h-.47Zm0,1.24h-34.6v-.76h34.6Z"/><path class="cls-9" d="M145,121.61V95.67H123.78v.47h20.74v25.47h-3.81v.48h3.81v24.29h-3.81v.47h5.46V121.61Zm.71,24.77H145V122.09h.71Z"/><polygon class="cls-9" points="81.76 103.41 103.98 103.41 103.98 104.59 104.45 104.59 104.45 102.93 81.29 102.93 81.29 109.75 81.76 109.75 81.76 103.41"/><polygon class="cls-9" points="76.87 119.72 75.57 119.72 75.57 111.23 80.06 111.23 80.06 110.76 75.09 110.76 75.09 120.19 76.87 120.19 76.87 119.72"/><g class="cls-21"><path class="cls-16" d="M139.05,149h-34.6v-1H104v1H74.18v-1h-.47v1.48H104v1.24h35.54V148h-.47Zm0,1.24h-34.6v-.76h34.6Z"/><path class="cls-16" d="M145,121.61V95.67H123.78v.47h20.74v25.47h-3.81v.48h3.81v24.29h-3.81v.47h5.46V121.61Zm.71,24.77H145V122.09h.71Z"/><polygon class="cls-16" points="81.76 103.41 103.98 103.41 103.98 104.59 104.45 104.59 104.45 102.93 81.29 102.93 81.29 109.75 81.76 109.75 81.76 103.41"/><polygon class="cls-16" points="76.87 119.72 75.57 119.72 75.57 111.23 80.06 111.23 80.06 110.76 75.09 110.76 75.09 120.19 76.87 120.19 76.87 119.72"/></g><path class="cls-9" d="M145.36,152.09h-6.31v6.43h24v-6.43Zm-5.84.47h5.37v2.51h-5.37Zm5.37,5.49h-5.37v-2.51h5.37Zm8.86,0h-8.39v-2.51h8.39Zm8.86,0h-8.39v-2.51h8.39Zm-8.39-3h-8.86v-2.51h17.25v2.51Z"/><path class="cls-22" d="M145.36,152.09h-6.31v6.43h24v-6.43Zm-5.84.47h5.37v2.51h-5.37Zm5.37,5.49h-5.37v-2.51h5.37Zm8.86,0h-8.39v-2.51h8.39Zm8.86,0h-8.39v-2.51h8.39Zm-8.39-3h-8.86v-2.51h17.25v2.51Z"/><path class="cls-11" d="M80.1,174.66s2.3-5.26.08-5.38S80.1,174.66,80.1,174.66Z"/><path class="cls-11" d="M84.25,170.66s4.34-3.14,2.3-4.73S84.25,170.66,84.25,170.66Z"/><path class="cls-11" d="M95.58,172s5.4,2,5-.52S95.58,172,95.58,172Z"/><path class="cls-11" d="M86.62,169.8s6.08,1.11,3.71,3.77S86.62,169.8,86.62,169.8Z"/><path class="cls-11" d="M77.82,179.33s-.1-5.7-2-4.5S77.82,179.33,77.82,179.33Z"/><path class="cls-11" d="M89.06,169.66s6.27.92,5.39-1.91S89.06,169.66,89.06,169.66Z"/><path class="cls-11" d="M93.57,170.9s3.53,4.08.86,4.64S93.57,170.9,93.57,170.9Z"/><path class="cls-11" d="M81.57,172.78s4.67-2.4,4.47.7S81.57,172.78,81.57,172.78Z"/><g class="cls-23"><path class="cls-16" d="M77.82,179.33s-.1-5.7-2-4.5S77.82,179.33,77.82,179.33Z"/><path class="cls-16" d="M89.06,169.66s6.27.92,5.39-1.91S89.06,169.66,89.06,169.66Z"/><path class="cls-16" d="M93.57,170.9s3.53,4.08.86,4.64S93.57,170.9,93.57,170.9Z"/><path class="cls-16" d="M81.57,172.78s4.67-2.4,4.47.7S81.57,172.78,81.57,172.78Z"/></g><path class="cls-11" d="M78.67,177.25s4.24-3.81,5-.66S78.67,177.25,78.67,177.25Z"/><path class="cls-11" d="M76.59,182.25A21,21,0,0,1,80.84,173c4.33-5.15,10.48-4.19,15.72-.91.41.26-.07.85-.49.59-2.77-1.74-6.12-3.22-9.46-2.51a9.85,9.85,0,0,0-5.77,4.08,21,21,0,0,0-3.5,8.1c-.09.48-.85.36-.75-.12Z"/><g class="cls-24"><path d="M76.59,182.25A21,21,0,0,1,80.84,173c4.33-5.15,10.48-4.19,15.72-.91.41.26-.07.85-.49.59-2.77-1.74-6.12-3.22-9.46-2.51a9.85,9.85,0,0,0-5.77,4.08,21,21,0,0,0-3.5,8.1c-.09.48-.85.36-.75-.12Z"/></g><path class="cls-11" d="M73.37,175.39s-2.2-5.52-3.9-4S73.37,175.39,73.37,175.39Z"/><path class="cls-11" d="M73.44,169.42s.84-5.48-1.81-5.13S73.44,169.42,73.44,169.42Z"/><path class="cls-11" d="M82.64,162s5.38-2.54,3.29-4.09S82.64,162,82.64,162Z"/><path class="cls-11" d="M74.53,167.05s5.24-3.66,5.48,0S74.53,167.05,74.53,167.05Z"/><path class="cls-11" d="M75.15,180.46s-4.27-4.07-4.77-1.79S75.15,180.46,75.15,180.46Z"/><path class="cls-11" d="M76.2,165.15s5.24-3.94,2.52-5.36S76.2,165.15,76.2,165.15Z"/><path class="cls-11" d="M80.39,162.73s5.58.38,4,2.74S80.39,162.73,80.39,162.73Z"/><path class="cls-11" d="M73.05,172.94s1.63-5.19,3.77-2.78S73.05,172.94,73.05,172.94Z"/><g class="cls-23"><path class="cls-16" d="M75.15,180.46s-4.27-4.07-4.77-1.79S75.15,180.46,75.15,180.46Z"/><path class="cls-16" d="M76.2,165.15s5.24-3.94,2.52-5.36S76.2,165.15,76.2,165.15Z"/><path class="cls-16" d="M80.39,162.73s5.58.38,4,2.74S80.39,162.73,80.39,162.73Z"/><path class="cls-16" d="M73.05,172.94s1.63-5.19,3.77-2.78S73.05,172.94,73.05,172.94Z"/></g><path class="cls-11" d="M74.24,178.32s.27-5.89,3.15-4.16S74.24,178.32,74.24,178.32Z"/><path class="cls-11" d="M76.4,183.49a21.73,21.73,0,0,1-3.7-9.84c-.64-6.94,4.53-10.77,10.76-12.24.49-.11.58.68.09.79-3.31.78-6.83,2.17-8.74,5.14a10.21,10.21,0,0,0-1.19,7.22A21.42,21.42,0,0,0,77,183c.28.42-.35.89-.64.47Z"/><g class="cls-24"><path d="M76.4,183.49a21.73,21.73,0,0,1-3.7-9.84c-.64-6.94,4.53-10.77,10.76-12.24.49-.11.58.68.09.79-3.31.78-6.83,2.17-8.74,5.14a10.21,10.21,0,0,0-1.19,7.22A21.42,21.42,0,0,0,77,183c.28.42-.35.89-.64.47Z"/></g><path class="cls-11" d="M70.47,176.48s-1.26-4.8.65-4.6S70.47,176.48,70.47,176.48Z"/><path class="cls-11" d="M67.46,172.5s-3.29-3.27-1.33-4.35S67.46,172.5,67.46,172.5Z"/><path class="cls-11" d="M57.6,172.09s-4.88,1-4.25-1.12S57.6,172.09,57.6,172.09Z"/><path class="cls-11" d="M65.55,171.45s-5.34.13-3.68,2.73S65.55,171.45,65.55,171.45Z"/><path class="cls-11" d="M71.79,180.78s.85-4.86,2.32-3.58S71.79,180.78,71.79,180.78Z"/><path class="cls-11" d="M63.49,171s-5.49-.06-4.36-2.36S63.49,171,63.49,171Z"/><path class="cls-11" d="M59.46,171.45s-3.56,3-1.36,3.85S59.46,171.45,59.46,171.45Z"/><path class="cls-11" d="M69.47,174.68s-3.67-2.69-3.92,0S69.47,174.68,69.47,174.68Z"/><g class="cls-23"><path class="cls-16" d="M71.79,180.78s.85-4.86,2.32-3.58S71.79,180.78,71.79,180.78Z"/><path class="cls-16" d="M63.49,171s-5.49-.06-4.36-2.36S63.49,171,63.49,171Z"/><path class="cls-16" d="M59.46,171.45s-3.56,3-1.36,3.85S59.46,171.45,59.46,171.45Z"/><path class="cls-16" d="M69.47,174.68s-3.67-2.69-3.92,0S69.47,174.68,69.47,174.68Z"/></g><path class="cls-11" d="M71.34,178.88s-3.11-3.82-4.18-1.23S71.34,178.88,71.34,178.88Z"/><path class="cls-11" d="M72.45,183.44a18.06,18.06,0,0,0-2.4-8.46c-3-5-8.39-5-13.31-2.89-.39.17-.05.74.34.57,2.61-1.12,5.66-1.93,8.43-.87a8.5,8.5,0,0,1,4.38,4.26,18.06,18.06,0,0,1,1.9,7.39c0,.42.68.43.66,0Z"/><g class="cls-24"><path d="M72.45,183.44a18.06,18.06,0,0,0-2.4-8.46c-3-5-8.39-5-13.31-2.89-.39.17-.05.74.34.57,2.61-1.12,5.66-1.93,8.43-.87a8.5,8.5,0,0,1,4.38,4.26,18.06,18.06,0,0,1,1.9,7.39c0,.42.68.43.66,0Z"/></g><path class="cls-11" d="M83.72,180.63l-1.67,12.54A3.24,3.24,0,0,1,78.84,196H68.5a3.24,3.24,0,0,1-3.22-2.81l-1.66-12.54Z"/><path class="cls-12" d="M83.72,180.63l-1.67,12.54A3.24,3.24,0,0,1,78.84,196H68.5a3.24,3.24,0,0,1-3.22-2.81l-1.66-12.54Z"/><polygon class="cls-25" points="154.4 111.29 152.91 108.6 152.32 104.71 151.17 104.87 149.65 107.68 151.75 109.87 152.85 112.62 154.4 111.29"/><path class="cls-11" d="M166.91,111.29a.32.32,0,0,0-.49-.22c-1.28.88-5.25,3.45-7.42,3.45-2.61,0-5.17-4.86-5.17-4.86l-2,1.24s3,7.86,7.18,7.86,8.52-3.42,8.52-3.42Z"/><path class="cls-14" d="M166.91,111.29a.32.32,0,0,0-.49-.22c-1.28.88-5.25,3.45-7.42,3.45-2.61,0-5.17-4.86-5.17-4.86l-2,1.24s3,7.86,7.18,7.86,8.52-3.42,8.52-3.42Z"/><polygon class="cls-11" points="151.48 110.79 153.82 109.28 154.4 110.04 151.82 111.63 151.48 110.79"/><path class="cls-26" d="M162.35,118.14a20.17,20.17,0,0,0,5.17-2.8l-.51-3.4h-.67Z"/><polygon class="cls-25" points="163.06 185.71 163.32 193.09 166.01 193.09 166.65 185.98 163.06 185.71"/><polygon class="cls-25" points="177.56 185.96 178.74 193.25 181.41 192.92 181.16 185.78 177.56 185.96"/><path class="cls-11" d="M164.76,131.47s-3.56,18.47-1.74,58.44h3.59s2.4-19.23,2.16-26.79c0-.19,0-.37,0-.54a15,15,0,0,1,.45-4.73l0-.09L173.35,142s7.11-2.2,4.07-10.53Z"/><path class="cls-26" d="M172.44,140.33l-1.55-4.09a84.64,84.64,0,0,0-.41,16.72l2.69-10.28Z"/><polygon class="cls-9" points="162.64 188.92 162.69 190.7 166.78 190.9 167.11 189.05 162.64 188.92"/><path class="cls-11" d="M170.34,131.47s-.29,20,7.78,59.22l3.55-.56s-.66-18.06-1.94-26c-.06-.39-.13-.75-.19-1.09A27.76,27.76,0,0,1,179,157v-.07c.12-4.6.39-11.91.91-15,.41-2.47.46-4.72-.44-10Z"/><polygon class="cls-9" points="177.59 189.5 177.97 191.24 182.02 190.69 182.02 188.81 177.59 189.5"/><polygon class="cls-25" points="190.63 121.62 193.53 121.34 194.77 120.33 197.67 120.73 197.67 121.77 196.84 123.44 193.69 122.93 190.42 123.55 190.63 121.62"/><path class="cls-9" d="M171.91,97.77s-3.19-.32-2,3.37l2.45-2.8Z"/><path class="cls-12" d="M171.91,97.77s-3.19-.32-2,3.37l2.45-2.8Z"/><path class="cls-25" d="M175.39,104.88c-.29,1.64-.55,4.48.29,6a.88.88,0,0,1-.17,1.08,6,6,0,0,1-3.91,1.75c-1.89.1-2-.91-1.69-1.71a.87.87,0,0,1,.5-.46c1.78-.61,1.87-2.18,1.5-3.54Z"/><path class="cls-27" d="M174,106.14,171.91,108a6,6,0,0,1,.17,1C172.87,108.85,176.11,107.18,174,106.14Z"/><path class="cls-25" d="M176.5,102.45c-.54,2.45-.73,3.92-2.18,5a3.33,3.33,0,0,1-5.27-2.55c-.19-2.33.73-6,3.31-6.55a3.42,3.42,0,0,1,4.13,2.53A3.37,3.37,0,0,1,176.5,102.45Z"/><path class="cls-9" d="M172.51,102.56c0,.2-.17.35-.3.33s-.21-.2-.18-.41.16-.34.3-.32S172.54,102.36,172.51,102.56Z"/><path class="cls-9" d="M170.23,102.2c0,.2-.17.35-.3.33s-.21-.2-.18-.4.16-.35.29-.33S170.26,102,170.23,102.2Z"/><path class="cls-28" d="M171.06,102.41a7.27,7.27,0,0,1-1.24,1.58,1.19,1.19,0,0,0,.94.33Z"/><path class="cls-9" d="M173.44,101.73h.06a.12.12,0,0,0,.05-.16,1.2,1.2,0,0,0-.89-.64.12.12,0,0,0-.13.11.12.12,0,0,0,.11.13h0a1,1,0,0,1,.7.51A.1.1,0,0,0,173.44,101.73Z"/><path class="cls-9" d="M169.48,101.14a.09.09,0,0,0,.1,0,1,1,0,0,1,.75-.43.12.12,0,0,0,.12-.12.12.12,0,0,0-.11-.12,1.17,1.17,0,0,0-1,.54.11.11,0,0,0,0,.16h0A.07.07,0,0,0,169.48,101.14Z"/><path class="cls-9" d="M170.4,105.13a14.87,14.87,0,0,1,2.45-.06,1.5,1.5,0,0,1-1.58.83C170.35,105.87,170.4,105.13,170.4,105.13Z"/><path class="cls-29" d="M171.72,105.53a1.83,1.83,0,0,0-1,.21,1,1,0,0,0,.57.16,1.83,1.83,0,0,0,1-.21A1,1,0,0,0,171.72,105.53Z"/><path class="cls-16" d="M170.49,105.12a.32.32,0,0,0,.26.25,10.72,10.72,0,0,0,1.6-.08.53.53,0,0,0,.42-.23A17.32,17.32,0,0,0,170.49,105.12Z"/><path class="cls-9" d="M176,99.19a1.86,1.86,0,0,0-1,2.3,2.57,2.57,0,0,1-.13,2.47l1.15.17s2.57-1.8,2-4.34Z"/><path class="cls-12" d="M176,99.19a1.86,1.86,0,0,0-1,2.3,2.57,2.57,0,0,1-.13,2.47l1.15.17s2.57-1.8,2-4.34Z"/><path class="cls-25" d="M177.35,105a2.4,2.4,0,0,1-1.63.81c-.84,0-1.08-.74-.7-1.44s1.18-1.41,1.95-1.13A1.07,1.07,0,0,1,177.35,105Z"/><path class="cls-9" d="M177.81,100.22c.86-.43,1.59-2.61-1.78-3.4-4.18-1-5.59-3-5.59-3s-.17,1.93,1.05,2.67c0,0-1.67-.94-2.29.59,0,0,1-.31,2.29,1.42A5.5,5.5,0,0,0,177.81,100.22Z"/><path class="cls-9" d="M172,98.62s-2.61-2.1-2.77.72A4.73,4.73,0,0,1,172,98.62Z"/><path class="cls-11" d="M179.88,111.72a.34.34,0,0,1,.57.12c.52,1.45,2.77,6.79,4.41,8,2,1.45,7.55,1.33,7.55,1.33l.12,2.35s-6.6,1.62-9.79-.7-5.54-8.36-5.54-8.36Z"/><path class="cls-14" d="M179.88,111.72a.34.34,0,0,1,.57.12c.52,1.45,2.77,6.79,4.41,8,2,1.45,7.55,1.33,7.55,1.33l.12,2.35s-6.6,1.62-9.79-.7-5.54-8.36-5.54-8.36Z"/><path class="cls-26" d="M178,115.49l0,.66a20.36,20.36,0,0,0,4.33,6.29l-2.28-9.5Z"/><polygon class="cls-11" points="192.06 120.87 192.22 123.85 192.99 123.65 192.86 120.87 192.06 120.87"/><path class="cls-11" d="M179.34,111.1c-1.14-.18-2.85-.41-4.77-.57l-1.69.85-.77-1a33.12,33.12,0,0,0-4.59.1,1.76,1.76,0,0,0-1.56,1.45c-.59,3.26-2.4,13.09-1.61,21.51,0,0,4.2.91,6-.3,0,0,5.43,1.84,9.52.26l.84-20.59A1.62,1.62,0,0,0,179.34,111.1Z"/><path class="cls-14" d="M179.34,111.1c-1.14-.18-2.85-.41-4.77-.57l-1.69.85-.77-1a33.12,33.12,0,0,0-4.59.1,1.76,1.76,0,0,0-1.56,1.45c-.59,3.26-2.4,13.09-1.61,21.51,0,0,4.2.91,6-.3,0,0,5.43,1.84,9.52.26l.84-20.59A1.62,1.62,0,0,0,179.34,111.1Z"/><path class="cls-11" d="M172.27,110l.72,1,2.38-1.27a.77.77,0,0,1,.93.14l.91.94-2.35,2.64a.19.19,0,0,1-.33-.12c0-.76-.23-2-1.54-1.77,0,0-1.25-.76-2,.86a.19.19,0,0,1-.36-.07l-.24-2,.75-.57A.78.78,0,0,1,172.27,110Z"/><path class="cls-9" d="M173,112.37a.34.34,0,0,1-.34.34.34.34,0,1,1,0-.68A.34.34,0,0,1,173,112.37Z"/><path class="cls-9" d="M171.82,117.83a.34.34,0,1,1-.68,0,.34.34,0,1,1,.68,0Z"/><path class="cls-9" d="M171.09,123.92a.35.35,0,0,1-.35.34.34.34,0,0,1-.34-.34.35.35,0,0,1,.34-.35A.35.35,0,0,1,171.09,123.92Z"/><circle class="cls-9" cx="170.4" cy="129.96" r="0.34"/><path class="cls-9" d="M163.31,192.27h3a.28.28,0,0,1,.27.22l1,2.9a.47.47,0,0,1-.36.55h-.09c-1.25,0-2.37-.13-3.92-.16-1.84,0-1.38.2-3.54.19-1.3,0-1.51-1.48-1-1.55,2.53-.27,2.81-1,3.8-1.92A1.13,1.13,0,0,1,163.31,192.27Z"/><path class="cls-9" d="M178.62,192.27h3a.28.28,0,0,1,.27.22l1,2.9a.47.47,0,0,1-.36.55h-.1c-1.25,0-2.36-.13-3.92-.16-1.84,0-1.37.2-3.53.19-1.3,0-1.52-1.48-1-1.55,2.53-.27,2.8-1,3.79-1.92A1.17,1.17,0,0,1,178.62,192.27Z"/><path class="cls-9" d="M170.7,106.32a1.56,1.56,0,0,0,1.66,0s-.08,1.13-.39,1.24c-.09,0-.35-.22-.35-.22s-.16.56-.32.55-.3-.64-.3-.64-.2.35-.3.31C170.42,107.44,170.7,106.32,170.7,106.32Z"/><path class="cls-14" d="M170.7,106.32a1.56,1.56,0,0,0,1.66,0s-.08,1.13-.39,1.24c-.09,0-.35-.22-.35-.22s-.16.56-.32.55-.3-.64-.3-.64-.2.35-.3.31C170.42,107.44,170.7,106.32,170.7,106.32Z"/><path class="cls-30" d="M178.11,154.42l-.78,38.91h2.77s5.28-25.1,3.81-33.27l4.54-15.78-9.31,1Z"/><path class="cls-30" d="M188.89,155.11l4.4,38.33H196s1.81-25.51-.66-33.44l.2-15.88-8.1,1.18Z"/><path class="cls-11" d="M177.57,192.51h2.82a.28.28,0,0,1,.26.21l1,2.72a.43.43,0,0,1-.34.51h-.09c-1.17,0-2.21-.12-3.67-.14-1.72,0-1.29.18-3.31.17-1.22,0-1.42-1.39-.91-1.45a4.62,4.62,0,0,0,3.56-1.8A1,1,0,0,1,177.57,192.51Z"/><path class="cls-11" d="M193.39,192.51h2.82a.28.28,0,0,1,.26.21l1,2.72a.43.43,0,0,1-.34.51H197c-1.17,0-2.21-.12-3.67-.14-1.72,0-1.29.18-3.31.17-1.22,0-1.42-1.39-.91-1.45a4.62,4.62,0,0,0,3.56-1.8A1,1,0,0,1,193.39,192.51Z"/><path class="cls-11" d="M179.7,132a140.17,140.17,0,0,0-2.27,30.43,148.21,148.21,0,0,0,19.53-.56,33.91,33.91,0,0,1-.68-10.22A31.2,31.2,0,0,0,191.74,132Z"/><path class="cls-14" d="M179.7,132a140.17,140.17,0,0,0-2.27,30.43,148.21,148.21,0,0,0,19.53-.56,33.91,33.91,0,0,1-.68-10.22A31.2,31.2,0,0,0,191.74,132Z"/><path class="cls-30" d="M180.91,115s-2.47,1.63-3.33,7.58c-1.06,7.24,2.39,4.76,2.39,4.76Z"/><path class="cls-9" d="M191.79,102.1c1.3.79,1.58,2.6,1.67,3.68s-1,0-.13,1.86,1.42,3.51-1.46,3.26a16.37,16.37,0,0,0-6.94.82c-1.84.65-3.18-.18-2.17-2.5a3.82,3.82,0,0,0-1.13-4.53c-.73-.74-1.43-3.42.81-4.25s.11-1.82,2.84-2.14S193.45,99,191.79,102.1Z"/><path class="cls-30" d="M185.59,113l3.29-.09a11.44,11.44,0,0,1,.41-4.73l-3.36,2.5A2.86,2.86,0,0,1,185.59,113Z"/><path class="cls-27" d="M188.47,109.31l-2.56,1.42a4.9,4.9,0,0,1,.1.93A2.34,2.34,0,0,0,188.47,109.31Z"/><path class="cls-30" d="M190.85,104.65c-.41,2.77-.52,3.95-2,5.26a3.58,3.58,0,0,1-6-2c-.39-2.55.35-6.65,3.17-7.53a3.82,3.82,0,0,1,4.79,2.49A3.75,3.75,0,0,1,190.85,104.65Z"/><path class="cls-30" d="M191.32,106.91a2,2,0,0,1-1.08,1.12c-.67.28-1.09-.29-1-1s.55-1.48,1.26-1.47a.93.93,0,0,1,.89,1A1.06,1.06,0,0,1,191.32,106.91Z"/><path class="cls-9" d="M189,99.38c.57.77-.47,2.44-3,2.56-1.92.1-4.08,2.4-4.13.17C181.81,100.08,186.49,98.6,189,99.38Z"/><path class="cls-9" d="M187.68,100.13c-1.21,1.16-.13,2.9.59,3.66s1.79,1.43,1.17,2.74-.78,4.73,1.57,3.88,1.8-4.87.9-6.65S189.12,98.76,187.68,100.13Z"/><path class="cls-31" d="M184.65,105.29a6.43,6.43,0,0,1-.93,1.38.94.94,0,0,0,.79.22Z"/><path class="cls-9" d="M187.7,104l.05,0a.11.11,0,0,0,0-.16h0a1.33,1.33,0,0,0-1.07-.54.12.12,0,0,0-.1.12.11.11,0,0,0,.12.1,1.1,1.1,0,0,1,.88.46A.12.12,0,0,0,187.7,104Z"/><path class="cls-9" d="M182.89,103.65l.05,0a1.09,1.09,0,0,1,1-.17.1.1,0,0,0,.14-.06h0a.11.11,0,0,0-.06-.15,1.31,1.31,0,0,0-1.18.2.1.1,0,0,0,0,.15.09.09,0,0,0,.11.05Z"/><path class="cls-9" d="M186.28,105.05c0,.23-.15.4-.3.39s-.26-.21-.23-.43.15-.4.3-.39S186.3,104.82,186.28,105.05Z"/><path class="cls-9" d="M183.72,104.83c0,.23-.16.4-.3.39s-.26-.21-.24-.43.16-.4.3-.39S183.74,104.6,183.72,104.83Z"/><path class="cls-9" d="M183.55,104.42l-.53-.21S183.26,104.66,183.55,104.42Z"/><path class="cls-9" d="M186.11,104.64l-.53-.21S185.83,104.88,186.11,104.64Z"/><path class="cls-9" d="M179.32,132.69s-.23-3.1-.14-7.32c0-.65-.3-1.36-.3-2.87a30.7,30.7,0,0,1,.49-3.79c.24-2.69.69-3.11,1.54-3.73,2.76-2,11.13-2,12,0,1.39,3-1.37,10.67-.46,17.71A31.65,31.65,0,0,1,179.32,132.69Z"/><path class="cls-32" d="M193.07,115.34h-1.46s-1,1.75,1,9.43C193,120.81,193.72,117.33,193.07,115.34Z"/><path class="cls-9" d="M185.49,111.94a11.59,11.59,0,0,0,3.75-.18.36.36,0,0,1,.45.4c-.08.58-.07,1.39.54,1.52a6.52,6.52,0,0,1-6.41.18s1.41-.25,1.28-1.49A.37.37,0,0,1,185.49,111.94Z"/><path class="cls-30" d="M179.29,124.93c1.59-1,3-1.79,3-1.79l1.16-2.35a.48.48,0,0,1,.47-.26l.78.07a.48.48,0,0,1,.43.5L185,124a.48.48,0,0,1-.37.44l-1.66.4s-3.66,3.93-4.54,3.29C177.12,127.13,178.12,125.68,179.29,124.93Z"/><path class="cls-26" d="M186.18,145.3l-.49,17.22c1.09,0,2.26-.06,3.48-.11Z"/><path class="cls-30" d="M192,114.8c1.07-.64,3.24,1.07,4.14,7.56.82,6-.82,6.74-3.18,5.07a49.17,49.17,0,0,0-4.93-3l-1.78-.35L185,124a.72.72,0,0,1-.66-.7l0-2.15a.71.71,0,0,1,.77-.73l1.21.09,2,2.11,5.44,2a18.09,18.09,0,0,0-1.12-4.81C191.77,118.08,191,115.39,192,114.8Z"/><path class="cls-26" d="M184.7,120.6l-.62-.06a.9.9,0,0,0-.26.63l.07,2.57a.82.82,0,0,0,.44.72l.3-.07A.48.48,0,0,0,185,124l.13-2.85A.48.48,0,0,0,184.7,120.6Z"/><path class="cls-30" d="M192,114.8c1.07-.64,3.24,1.07,4.14,7.56.82,6-.82,6.74-3.18,5.07a49.17,49.17,0,0,0-4.93-3l-1.78-.35L185,124a.72.72,0,0,1-.66-.7l0-2.15a.71.71,0,0,1,.77-.73l1.21.09,2,2.11,5.44,2a18.09,18.09,0,0,0-1.12-4.81C191.77,118.08,191,115.39,192,114.8Z"/><path class="cls-9" d="M187.76,101.3s-1.71,2.17-3.08,1.61S185.43,102.84,187.76,101.3Z"/><path class="cls-9" d="M185.05,108.22a2.58,2.58,0,0,1-.39,0,.06.06,0,0,1-.06-.08h0a.08.08,0,0,1,.08-.06,1.83,1.83,0,0,0,1.61-.45.08.08,0,0,1,.1,0,.07.07,0,0,1,0,.1A2,2,0,0,1,185.05,108.22Z"/><path class="cls-33" d="M184.87,114a7.25,7.25,0,0,0,4.42-.23S185.49,116.13,184.87,114Z"/></svg>