<svg id="Layer_1" data-name="Layer 1" xmlns="http://www.w3.org/2000/svg" viewBox="0 0 250 250"><defs><style>.cls-1{fill:#f9320b;opacity:0.1;}.cls-2{fill:#3b0f37;}.cls-3{fill:#d2e4ff;}.cls-4,.cls-5{fill:#aed3ff;}.cls-4{opacity:0.5;}.cls-6{fill:#233862;}.cls-7{fill:#d9935c;}.cls-8{fill:#cb7d45;}.cls-9{fill:#2b478b;}.cls-10{fill:#b64c41;}.cls-11{fill:#9ed9f0;}.cls-12{fill:#ffa412;}.cls-13{fill:#e27f2b;}.cls-14{fill:#e9f3fe;}.cls-15{fill:#bed4f4;}.cls-16{fill:#afcdfb;}.cls-17{fill:#739af0;}.cls-18{fill:#4a75cb;}.cls-19{fill:#b84c42;}.cls-20{fill:#74acbe;}.cls-21{fill:#283250;}</style></defs><path class="cls-1" d="M19.16,195.55S-10.51,159.81,4,123C13.44,99,48.9,85.89,68.9,99c8.53,5.59,35.87.18,50.46-23,28.37-45,127.37-17.68,109.35,51.46-8.72,33.45,26.54,34.67,8.57,68.11Z"/><rect class="cls-2" y="195.02" width="250" height="0.96" rx="0.48"/><path class="cls-3" d="M92.7,87.3h-1L91.46,74,47.11,60.66l-19,13,.69-.25a1.09,1.09,0,0,0-1.09,1.09v6.37A1.09,1.09,0,0,0,28.78,82h9.28a1.09,1.09,0,0,0,1.09-1.09V78.33h6.19V195.49h7.27V78.33H82.55l8.34,9H89.18a1.09,1.09,0,0,0-1.09,1.09v1.1a1.09,1.09,0,0,0,1.09,1.09H92.7a1.09,1.09,0,0,0,1.09-1.09v-1.1A1.09,1.09,0,0,0,92.7,87.3Zm-53.57-13a1.08,1.08,0,0,0-1.07-.91H29.35L47.22,61.36l43,13Zm44.29,4,7.44.14.19,8.06Z"/><path class="cls-3" d="M220.76,94l.51.2-13.09-9-30.42,9.16-.15,9.11h-.7a.76.76,0,0,0-.75.75V105a.76.76,0,0,0,.75.75h2.42a.75.75,0,0,0,.74-.75v-.75a.75.75,0,0,0-.74-.75h-1.18l5.73-6.15h20.53v80.36h5V97.37h4.24v1.74a.76.76,0,0,0,.75.75h6.37a.76.76,0,0,0,.75-.75V94.75A.75.75,0,0,0,220.76,94Zm-42.71,9,.16-5.62h5.07Zm36.34-9a.73.73,0,0,0-.73.62H178.58l29.53-8.89L220.37,94Z"/><rect class="cls-3" x="118.55" y="64.92" width="41.99" height="130.68"/><rect class="cls-4" x="118.55" y="82.95" width="30.4" height="19.14"/><rect class="cls-4" x="118.55" y="118" width="30.4" height="19.14"/><rect class="cls-4" x="118.55" y="152.61" width="30.4" height="19.14"/><polygon class="cls-5" points="212.9 171.63 207.23 171.63 207.23 153.93 160.54 153.93 160.54 64.92 148.94 64.92 148.94 195.67 160.54 195.67 160.54 195.6 207.23 195.6 207.23 195.6 212.9 195.6 212.9 171.63"/><path class="cls-3" d="M105.64,101.48v-.71H104.1V96.11h-1.28v4.66H99.58V96.11H98.3v4.66H94.79V96.11H93.51v4.66H90.27V96.11H89v4.66H87.3v.71H89v2.26H87.3v.71H89v2.26H87.3v.71H89v2.27H87.3v.7H89v2.27H87.3v.7H89v2.27H87.3v.7H89v1.84H87.3v.7H89v2.27H87.3v.71H89v2.26H87.3v.71H89v2.26H87.3v.71H89v2.27H87.3v.7H89V133H87.3v.7H89v2.17H87.3v.7H89v2.27H87.3v.7H89v2.27H87.3v.7H89v2.27H87.3v.71H89v2.26H87.3v.71H89v2.26H87.3v.71H89v1.83H87.3V154H89v2.27H87.3v.7H89v2.27H87.3v.7H89v2.27H87.3v.7H89v2.27H87.3v.71H89v2.26H87.3v.71H89v2H87.3v.7H89v2.27H87.3v.71H89v2.26H87.3v.71H89v2.26H87.3v.71H89v2.27H87.3v.7H89v2.27H87.3v.7H89v1.84H87.3v.7H89v2.27H87.3v.7H89v2.27H87.3v.71h18.34v-.71H104.1V192h1.54v-.7H104.1V189h1.54v-.7H104.1v-1.84h1.54v-.7H104.1v-2.27h1.54v-.7H104.1V180.5h1.54v-.71H104.1v-2.26h1.54v-.71H104.1v-2.26h1.54v-.71H104.1v-2.27h1.54v-.7H104.1v-2h1.54v-.71H104.1v-2.26h1.54v-.71H104.1v-2.27h1.54v-.7H104.1v-2.27h1.54v-.7H104.1V157h1.54v-.7H104.1V154h1.54v-.71H104.1v-1.83h1.54v-.71H104.1v-2.26h1.54v-.71H104.1v-2.26h1.54v-.71H104.1v-2.27h1.54v-.7H104.1v-2.27h1.54v-.7H104.1V136.6h1.54v-.7H104.1v-2.17h1.54V133H104.1v-2.27h1.54v-.7H104.1v-2.27h1.54v-.71H104.1v-2.26h1.54v-.71H104.1v-2.26h1.54v-.71H104.1v-2.27h1.54v-.7H104.1v-1.84h1.54v-.7H104.1v-2.27h1.54v-.7H104.1v-2.27h1.54v-.7H104.1v-2.27h1.54v-.71H104.1v-2.26h1.54v-.71H104.1v-2.26Zm-7.34,0v2.26H94.79v-2.26Zm-3.51,89.77V189H98.3v2.27Zm3.51.7v2.27H94.79V192Zm-3.51-3.67v-1.84H98.3v1.84Zm0-2.54v-2.27H98.3v2.27Zm0-3V180.5H98.3v2.27Zm0-3v-2.26H98.3v2.26Zm0-3v-2.26H98.3v2.26Zm0-3v-2.27H98.3v2.27Zm0-3v-2H98.3v2Zm0-2.73v-2.26H98.3v2.26Zm0-3v-2.27H98.3v2.27Zm0-3v-2.27H98.3v2.27Zm0-3V157H98.3v2.27Zm0-3V154H98.3v2.27Zm0-3v-1.83H98.3v1.83Zm0-2.54v-2.26H98.3v2.26Zm0-3v-2.26H98.3v2.26Zm0-3v-2.27H98.3v2.27Zm0-3v-2.27H98.3v2.27Zm0-3V136.6H98.3v2.27Zm0-3v-2.17H98.3v2.17Zm0-2.87v-2.27H98.3V133Zm0-3v-2.27H98.3v2.27Zm0-3v-2.26H98.3v2.26Zm0-3v-2.26H98.3v2.26Zm0-3v-2.27H98.3v2.27Zm0-3v-1.84H98.3v1.84Zm0-2.54v-2.27H98.3v2.27Zm0-3v-2.27H98.3v2.27Zm0-3v-2.27H98.3v2.27Zm0-3v-2.26H98.3v2.26Zm-4.52-5.23h3.24v2.26H90.27Zm0,3h3.24v2.26H90.27Zm0,3h3.24v2.27H90.27Zm0,3h3.24v2.27H90.27Zm0,3h3.24v2.27H90.27Zm0,3h3.24v1.84H90.27Zm0,2.54h3.24v2.27H90.27Zm0,3h3.24v2.26H90.27Zm0,3h3.24v2.26H90.27Zm0,3h3.24v2.27H90.27Zm0,3h3.24V133H90.27Zm0,3h3.24v2.17H90.27Zm0,2.87h3.24v2.27H90.27Zm0,3h3.24v2.27H90.27Zm0,3h3.24v2.27H90.27Zm0,3h3.24v2.26H90.27Zm0,3h3.24v2.26H90.27Zm0,3h3.24v1.83H90.27Zm0,2.54h3.24v2.27H90.27Zm0,3h3.24v2.27H90.27Zm0,3h3.24v2.27H90.27Zm0,3h3.24v2.27H90.27Zm0,3h3.24v2.26H90.27Zm0,3h3.24v2H90.27Zm0,2.72h3.24v2.27H90.27Zm0,3h3.24v2.26H90.27Zm0,3h3.24v2.26H90.27Zm0,3h3.24v2.27H90.27Zm0,3h3.24v2.27H90.27Zm0,3h3.24v1.84H90.27Zm0,2.54h3.24v2.27H90.27Zm0,3h3.24v2.27H90.27Zm12.55,2.27H99.58V192h3.24Zm0-3H99.58V189h3.24Zm0-3H99.58v-1.84h3.24Zm0-2.54H99.58v-2.27h3.24Zm0-3H99.58V180.5h3.24Zm0-3H99.58v-2.26h3.24Zm0-3H99.58v-2.26h3.24Zm0-3H99.58v-2.27h3.24Zm0-3H99.58v-2h3.24Zm0-2.73H99.58v-2.26h3.24Zm0-3H99.58v-2.27h3.24Zm0-3H99.58v-2.27h3.24Zm0-3H99.58V157h3.24Zm0-3H99.58V154h3.24Zm0-3H99.58v-1.83h3.24Zm0-2.54H99.58v-2.26h3.24Zm0-3H99.58v-2.26h3.24Zm0-3H99.58v-2.27h3.24Zm0-3H99.58v-2.27h3.24Zm0-3H99.58V136.6h3.24Zm0-3H99.58v-2.17h3.24Zm0-2.87H99.58v-2.27h3.24Zm0-3H99.58v-2.27h3.24Zm0-3H99.58v-2.26h3.24Zm0-3H99.58v-2.26h3.24Zm0-3H99.58v-2.27h3.24Zm0-3H99.58v-1.84h3.24Zm0-2.54H99.58v-2.27h3.24Zm0-3H99.58v-2.27h3.24Zm0-3H99.58v-2.27h3.24Zm0-3H99.58v-2.26h3.24Zm0-3H99.58v-2.26h3.24Z"/><rect class="cls-3" x="120.72" y="58.41" width="0.45" height="8.05"/><rect class="cls-3" x="145.77" y="58.41" width="0.45" height="8.05"/><rect class="cls-3" x="123.89" y="58.41" width="0.45" height="8.05"/><rect class="cls-3" x="148.03" y="58.41" width="0.45" height="8.05"/><path class="cls-6" d="M160.54,195.23a9,9,0,0,1,.59-2.88c.5-1,4.51-.31,4.51-.31a6.58,6.58,0,0,1,.8,3.18Z"/><path class="cls-6" d="M149.76,195.23a9.27,9.27,0,0,1,.59-2.88c.5-1,4.52-.31,4.52-.31a6.71,6.71,0,0,1,.8,3.18Z"/><path class="cls-7" d="M163.14,115.82c-.5.36-5,2.73-5,2.73l-4.79-3.41,1.49-.22c.44-.12.42-1.28.47-2.51l0-.58,4.69-.17v.06c0,.06,0,.12,0,.19V112a.66.66,0,0,0,0,.14c.08,1.09.26,2.62.61,2.8A5.74,5.74,0,0,1,163.14,115.82Z"/><path class="cls-8" d="M160,112.18c-.39.78-1.25,2.12-2.53,2.08a2.79,2.79,0,0,1-2.23-1.85l0-.58,4.69-.17v.06l0,.19V112A.66.66,0,0,0,160,112.18Z"/><path class="cls-9" d="M154.75,101.39a3.52,3.52,0,0,1,4.92,0A19,19,0,0,0,154.75,101.39Z"/><path class="cls-10" d="M153.91,109.67a19.36,19.36,0,0,1-1.16-3.21c-.31-1.24,0-5.91,4.68-5.59a6.31,6.31,0,0,1,2.69.79c1.06.61,2.63,2,1.3,6.13l-.32,1.4Z"/><path class="cls-7" d="M160.49,111.63c-1.22,1.16-2.73,2.71-6-.15-.63-.56-.59-1.42-.63-2.66a21.68,21.68,0,0,1-.23-3.2c.19-1,1.06-1.46,2.85-1.62,3.28-.28,4.94.46,4.72,2.09C160.73,109.73,161.72,110.45,160.49,111.63Z"/><path class="cls-10" d="M157.81,103.94s1.95,0,2.39.61a11.28,11.28,0,0,1,.73,1.75,1.38,1.38,0,0,1,.19.78l.43-2.91-2.64-.52Z"/><path class="cls-11" d="M169.17,120a4.93,4.93,0,0,1-4.2,2.9l-.28,0H151l-.08,0c-.53-.17-3.81-1.29-4.16-3.4,0,0,1.73-3.54,3-4a8.78,8.78,0,0,1,1.47-.3c.57-.07,1.17-.12,1.68-.15.69,0,1.2,0,1.2,0a4.15,4.15,0,0,0,3.68,2.13A3.21,3.21,0,0,0,161,115s.73,0,1.7.12c.54.06,1.15.14,1.75.26a6.49,6.49,0,0,1,2.57,1A8.12,8.12,0,0,1,169.17,120Z"/><path class="cls-9" d="M165.9,138.94c-.14-.81-.36-2-.53-3.13,0,0,.51-6.14.7-7.17S165,122,165,122c-.3-.86-.81-1.12-1.19-1.12l.65-5.43c-.6-.12-1.21-.2-1.75-.26l-.31,5.69v.08c-.71,0-1.6.09-2.43.12s-1.59.07-2.06.07c-1,0-3.16-.11-4.62-.19v-.08l-.35-5.79c-.51,0-1.11.08-1.68.15l.62,5.64h0c-.41,0-.88.72-.94,1.13l-.07,1.76a20.34,20.34,0,0,0-1.05,4.24,77.35,77.35,0,0,0,.63,8.23c0,.76-.09,1.73-.19,2.67a52.33,52.33,0,0,0-2.77,18.51c.23,9.08.37,24.59,1.44,32.12a19.83,19.83,0,0,0,.6,3,1,1,0,0,0,.82.69c1.23.17,4,.49,5.18,0,.57-.2,1-3.37,1.27-7.45.28-3.91.44-8.67.54-12.46h0c.07-3,.1-5.44.1-6.33,0-2,.48-8,.64-11.45a.08.08,0,1,1,.15,0h0c.24,4.14,1.08,10.43,1.09,11.82,0,3.39-.16,25.15,1.32,25.88,1.13.56,3.79.14,5.07,0a1.17,1.17,0,0,0,1-.84c1.59-5.47,1.73-24.5,2-35A52.26,52.26,0,0,0,165.9,138.94Z"/><path class="cls-7" d="M153.43,142.86a2.82,2.82,0,0,1-2.61-.28c-.59-.5-1.78-.35-2.07-.54,0,0-5.56-6.58-6.16-9.35s3.23-10.47,4.32-12.57c.8,1.7,3.48,2.62,4,2.77l.07,0h.15a62.44,62.44,0,0,1-4.65,8.51,1.45,1.45,0,0,0-.09,1.37c1.34,2.87,2.65,5.29,3.22,7,.12.19.36.52.66.48s1.72-.35,2.38.62S153.9,142.48,153.43,142.86Z"/><path class="cls-12" d="M161.87,101.45a6.83,6.83,0,0,0-1-1l-.33-.27a5.27,5.27,0,0,0-5.39-.83,5,5,0,0,0-1.57,1,4,4,0,0,0-.29.3c-2,2.21-1.83,5.68-1.83,5.68l11.5-.13A8.21,8.21,0,0,0,161.87,101.45Z"/><path class="cls-13" d="M159.72,106.22c0-.49-.25-4.45,1.14-5.81l-.19-.16c-1.49,1.56-1.59,5.46-1.58,6l-3.67,0a14.74,14.74,0,0,0-1.85-5.93l-.22.22a16.76,16.76,0,0,1,1.39,5.72l-3.29,0a25.18,25.18,0,0,0,5.37.76,39.13,39.13,0,0,0,6.13-.89Z"/><path class="cls-10" d="M153.86,121.44c-1.17,2.26-4.51,2.68-4.51,2.68,1.08-2.63-1.1-3.46-2.45-6.16a3.62,3.62,0,0,1,1-4.49c-1.47.29-1.75,2.26-1.75,2.26-.13-1.32,1-3.54,4.45-4,2.55-.32,3.17-1.18,3.31-1.62a1.94,1.94,0,0,0,.58,1.35c.27.23.53.44.77.62,0,.1,0,.2,0,.31,0,.34,0,.68,0,1a1.67,1.67,0,0,0-.37,1.48,1.72,1.72,0,0,0,.12.37,3,3,0,0,1,.6,1.51C155.76,118.26,154.74,119.75,153.86,121.44Z"/><path class="cls-6" d="M165.88,138.8l-.51-3a23.24,23.24,0,0,1-6.88,1.43,1.67,1.67,0,0,0-1.22-.86l-1.83-.26a1.64,1.64,0,0,0-1.71.88,18.71,18.71,0,0,1-3.31-.8h0l-.18,2.63h0c1,.28,2.06.5,3,.67l-.06.36a1.67,1.67,0,0,0,1.4,1.89l2,.3a1.66,1.66,0,0,0,1.91-1.54l0-.56A21.81,21.81,0,0,0,165.88,138.8Z"/><path class="cls-7" d="M173.27,132.69c-.6,2.77-6.15,9.34-6.17,9.35a.51.51,0,0,1-.22.08h0a3.77,3.77,0,0,0-1.84.46,2.8,2.8,0,0,1-2.6.28c-.47-.38.15-1,.81-2s2-.69,2.39-.62c.24,0,.45-.19.58-.37h0l.06-.1c.56-1.64,1.82-4,3.13-6.77a1.83,1.83,0,0,0-.1-1.73c-.88-1.4-2.65-4.29-3.79-6.62-.13-.67-.26-1.3-.36-1.78a5,5,0,0,0,3.87-2.57C170.21,122.57,173.86,130,173.27,132.69Z"/><g id="P297LW"><path class="cls-12" d="M185.93,131.92c1,3,6.4,8.3,7.15,8.82,0,0,1.26-2.1,1-3.27-.21-1-2.31-4.38-3-6.06,0-.09-.07-.17-.1-.25a1.55,1.55,0,0,1-.14-.58c0-.36,1.19-1.25,2.52-2.3,1.74-1.37,3.78-3,4.12-4.16.58-2,2.62-10,2.62-10s-5.06,1.09-6.49,2.35-7.55,11.75-7.8,14.44A2.34,2.34,0,0,0,185.93,131.92Z"/><path class="cls-7" d="M185.93,131.92c1,3,6.4,8.3,7.15,8.82,0,0,1.26-2.1,1-3.27-.22-1-2.54-4.74-3.14-6.31A7.82,7.82,0,0,0,185.93,131.92Z"/><path class="cls-7" d="M200.07,113.43V114s-.17,1.94,2.22,2.23,4.18-.59,4.12-2.08a19.3,19.3,0,0,1-.46-3.09,7,7,0,0,1,.08-1.16l-4.62-.09-1.36.22Z"/><path class="cls-8" d="M200.05,110.07l0,3.36a4,4,0,0,0,1.66.36A5.17,5.17,0,0,0,206,111.1a7,7,0,0,1,.08-1.16l-4.62-.09Z"/><path class="cls-6" d="M204.14,195.58a11,11,0,0,1,.75-2.79c.52-1,3.82-.37,3.82-.37s.66.56.81,3.21Z"/><path class="cls-6" d="M192.88,195.57c.77-.47.33-4,.33-4s-3.62-2.89-4.12-.68-3.44,3.22-5.11,3.49a1.81,1.81,0,0,0-1.63,1.2Z"/><path class="cls-9" d="M200.38,169.45a15.46,15.46,0,0,0-.27,2c-.34,6.57-5.53,21.58-6.46,21.93-1.43.54-3.69-.61-4.88-1a1,1,0,0,1-.71-1.15c2.57-11.82,3.52-28.83,3.86-38.9a45.53,45.53,0,0,1,1-8.58s12.66-3.38,12.74.89C205.76,148.38,201.5,163.21,200.38,169.45Z"/><path class="cls-6" d="M200.38,169.45l-8.46-17.16a45.53,45.53,0,0,1,1-8.58s12.66-3.38,12.74.89C205.76,148.38,201.5,163.21,200.38,169.45Z"/><path class="cls-9" d="M197.56,144.62l6.69,48.5a13.07,13.07,0,0,0,5.23.14s2-25.8,1.79-32,1.41-16.69-.36-17.84S197.56,144.62,197.56,144.62Z"/><path class="cls-12" d="M192.6,144.71a17.61,17.61,0,0,0,8.37,1.93,37.5,37.5,0,0,0,5-.37c4-.59,6-1.7,6-2.12s0-1.61-.09-2.14c-.63-7.28-.3-12.94-1.15-17.19l0-.16a27.52,27.52,0,0,0-3.76-9.79,5,5,0,0,0-.53-.68c0,1-2.15,1.88-3.91,1.76a2.52,2.52,0,0,1-2.43-1.82h0c-.12,0-6.66,4.54-6.66,8.76C193.38,141.81,192.24,144.71,192.6,144.71Z"/><path class="cls-13" d="M206,146.2a.15.15,0,0,0,0,.07c4-.59,6-1.7,6-2.12s0-1.61-.09-2.14c-.63-7.28-.3-12.94-1.15-17.19C208.64,127.6,204.36,134.9,206,146.2Z"/><path class="cls-14" d="M195.12,137.15l.53,1.78.53,1.76,23-6.93h.09l.09,0c.29-.21.34-1,.12-1.81,0-.05,0-.09,0-.14-.27-.91-.76-1.59-1.14-1.59a.14.14,0,0,0-.09,0l-.08,0Z"/><path class="cls-15" d="M195.65,138.93l.53,1.76,23-6.93h.09l.09,0c.29-.21.34-1,.12-1.81a33.34,33.34,0,0,1-13.12,5.36C198.47,138.83,196,138.93,195.65,138.93Z"/><path class="cls-16" d="M195.07,137.14c.39-.11.94.6,1.23,1.59s.21,1.88-.17,2-.94-.59-1.23-1.58S194.69,137.26,195.07,137.14Z"/><path class="cls-14" d="M218,129.57l2.72-.44.09,0h.09c.37.05.77.79.92,1.73a.78.78,0,0,0,0,.14,4.06,4.06,0,0,1,0,1.11.94.94,0,0,1-.34.66h0l-.09,0h-.1l-23.75,3.85-.3-1.82L197,133Z"/><path class="cls-15" d="M208.14,134.56c5.08-.32,7.77-3,9.87-5l2.72-.44.09,0h.09c.37.05.77.79.92,1.73a.78.78,0,0,0,0,.14,4.06,4.06,0,0,1,0,1.11,1.73,1.73,0,0,1-.34.66h0l-.09,0h-.1l-23.75,3.85-.3-1.82C197.62,134.86,200.06,135.08,208.14,134.56Z"/><path class="cls-16" d="M196.91,133c.4-.06.85.71,1,1.73s0,1.89-.43,2-.85-.71-1-1.73S196.52,133,196.91,133Z"/><path class="cls-7" d="M205.36,140a24.5,24.5,0,0,0,10.65-4.3c.51-.39.77-.63.77-.63,2.83-5.93-2.28-16.34-3.22-18.1-1-1.91-7.15-2.74-7.15-2.74a33.45,33.45,0,0,1,1.36,6.65c.39,3.77,4.48,11.11,4.31,11.73,0,.16-.54.48-1.26.89-2.14,1.22-6.27,3.18-6.52,3.64C204,137.72,205.36,140,205.36,140Z"/><path class="cls-7" d="M204.3,137.1s-3.08-1.23-3.83-.72-2,1.25-2,1.76,1.6,1.85,2.94,2.26,4-.44,4-.44Z"/><path class="cls-12" d="M207.77,120.84c.39,3.77,4.48,11.11,4.31,11.73,0,.16-.54.48-1.26.89H211a5.51,5.51,0,0,1,5,2.2c.51-.39.77-.63.77-.63,2.83-5.93-2.28-16.34-3.22-18.1-1-1.91-7.15-2.74-7.15-2.74A33.45,33.45,0,0,1,207.77,120.84Z"/><path class="cls-7" d="M199.78,111.7s5.92,1.2,6.61-2.5,1.91-6-1.84-7-4.75.36-5.28,1.54S198.26,111.3,199.78,111.7Z"/><path class="cls-6" d="M206.27,110.27a19.92,19.92,0,0,1,2.1-3.53c.95-1.09.43-6.51-3.69-6.34s-5.6,3.13-5.64,3.69,3.3.13,4.21.87,0,2,1.08,2.39,1.87.43,1.7,1.38A2.09,2.09,0,0,0,206.27,110.27Z"/><path class="cls-12" d="M205,97.88a6.53,6.53,0,0,1,2.72,1.34l.19.18h0c2.44,2.33,1.46,6,1.46,6a8.83,8.83,0,0,1-.55,1.3c-.22.36-3.46,0-3.63-.75a4.16,4.16,0,0,0-.81-1.43l-3.66-.25a20.74,20.74,0,0,1-3-.83C197.78,103.27,199,96.38,205,97.88Z"/><path class="cls-13" d="M195.73,102.76a11.31,11.31,0,0,1,2.26-.26,9.41,9.41,0,0,0,2.9,1.42,13.75,13.75,0,0,1,6.83-4.7h0c.07.09.11.12.16.18h0l0,.06c-2.73.48-5.33,3.55-6.22,4.7a16.7,16.7,0,0,0,2.65.4s-6,.11-8.72-1.33A.25.25,0,0,1,195.73,102.76Z"/><path class="cls-13" d="M189.64,129.91a1.71,1.71,0,0,0,1.41,1.5c0-.09-.07-.17-.1-.25a1.55,1.55,0,0,1-.14-.58c0-.36,1.19-1.25,2.52-2.3a9.57,9.57,0,0,0,0-3.78C192.87,122.78,189.51,129.2,189.64,129.91Z"/><path class="cls-13" d="M211.47,133s4.11-.34,5.45,2.06a.67.67,0,0,1-.91.56s-3.48-2.38-5.19-2.2A1,1,0,0,1,211.47,133Z"/><path class="cls-13" d="M191.05,131.41a15,15,0,0,0-4.82,1.26s-.59-.59-.36-.93S189.89,130.2,191.05,131.41Z"/></g><path class="cls-17" d="M101.82,135.76a28.2,28.2,0,0,0,8.38-.41,10.06,10.06,0,0,0,1.7-.53,2.63,2.63,0,0,0,1.23-.93,34.51,34.51,0,0,0,1.73-5.14c2-7.12,4.93-18.89,4.93-18.89s-5.79,1.18-7,2.19-2.21,17.13-3.36,17.57a6.2,6.2,0,0,0-.91.35h0c-.22.11-.33.19-.6.33-2.39,1.23-6.56,3.42-7,3.91C100.37,134.86,100.41,135.44,101.82,135.76Z"/><path class="cls-17" d="M112.93,119a4.47,4.47,0,0,1,.07-.82c.75-4.1,6.67-8.29,6.79-8.29v.08a2.61,2.61,0,0,0,2.51,1.88c1.8.12,4-.91,4-1.95l1.35.18a14.54,14.54,0,0,1,5.56,1.87c1.18.89-.48,6.49-1.51,10.45a15.2,15.2,0,0,0-.7,3.68c0,.3.29,4.37.53,8,.2,3,.38,5.8.39,6,0,.34-1.71,1.55-4.59,2.46a19.83,19.83,0,0,1-2.28.59,24.3,24.3,0,0,1-5,.5,15.26,15.26,0,0,1-1.69-.09C114.31,143.14,112.9,138.45,112.93,119Z"/><path class="cls-7" d="M126.32,109.82a34.73,34.73,0,0,0-.2-5.09l-6.35,1s0,1.93,0,4.09c0,0-.18,2,2.28,2.28S126.39,111.36,126.32,109.82Z"/><path class="cls-18" d="M126.83,131.29c0,6.09,3,4.45,4.73,2.81-.24-3.68-.41-16.72-.41-16.72A23,23,0,0,0,126.83,131.29Z"/><path class="cls-18" d="M107.69,130.35a16.65,16.65,0,0,0,1.84,5.18,18.05,18.05,0,0,0,2.37-.71,2.63,2.63,0,0,0,1.23-.93,34.51,34.51,0,0,0,1.73-5.14c-.56-3.18-1.08-6.32-1.08-6.32l-.16-2.11c0,.16-2.47,9.42-3.59,9.64a3.54,3.54,0,0,1-1.45,0l-.06,0Z"/><path class="cls-6" d="M126.93,102.9s4.24-6.69-3.9-7.13c0,0-3.06.36-3.75-.33a7.46,7.46,0,0,0-.15,7.46C121.34,106.76,126.93,102.9,126.93,102.9Z"/><path class="cls-7" d="M120,106.38a8.77,8.77,0,0,0,3,1,24.34,24.34,0,0,0,3.18-.89c.75-.46.7-1.39.74-2.68a19.81,19.81,0,0,0,0-3.6c-.2-1-.87-1.65-2.74-1.81-3.42-.3-4.85.56-4.91,1.71,0,.31,0,.6,0,.88C119,104.6,119.31,105.87,120,106.38Z"/><path class="cls-6" d="M119.13,102.19c0,2.08.59,3.31,1,3.46a8.34,8.34,0,0,0,1.59.43c.19,0,.38,0,.37-.09,0-.33-.44-.74-.12-1s2.18-.4,2.32.26c.08.32-.51.9-.11.91l.36-.08a5.1,5.1,0,0,0,1.41-.62c.75-.46.7-1.16.87-2.44.11-.82.11-.37,0,.85s.11,2.11-.74,2.68c-.48.31-3.22,1.54-3.22,1.54,0-.65-2.29-1.19-2.91-1.68S119.09,104.89,119.13,102.19Z"/><path class="cls-9" d="M132,140.08c0,.34-1.71,1.55-4.59,2.46l-.71.22h0c-.27,3.15-1,7.61-1.65,11.9h0c-.17,1.12-.34,2.22-.49,3.29a64.45,64.45,0,0,0-.73,7.25v0a28.61,28.61,0,0,0,.76,3.46c0,.3.06.61.08.94a39.58,39.58,0,0,1-.06,4.57c-.47,7.31-2.4,16.65-3.09,17.05-1.37.79-3.86,0-5.13-.19a1,1,0,0,1-.92-1.05c.62-12.12-1.15-29-2.48-39.38,0-.27-.07-.54-.1-.8-.16-1.22-.27-2.37-.33-3.4s-.09-1.72-.11-2.43v-.63c0-.65.51-4.91.53-24.39h0a.82.82,0,0,1,.82-.82h11.92a2.06,2.06,0,0,1,2.06,2.09,34.42,34.42,0,0,0,.36,5.54c.44,2.71,1.38,5.24,3.33,5.85h0l.15.33h0c0,.49,0,1,.06,1.49,0,.1,0,.21,0,.31V134c0,.1,0,.21,0,.31l0,.52,0,.41c0,.26,0,.53,0,.8,0,.08,0,.17,0,.26,0,.34,0,.7.08,1.05,0,.11,0,.22,0,.33s0,.11,0,.16,0,.28,0,.42l0,.45C132,139.21,131.93,139.69,132,140.08Z"/><path class="cls-6" d="M124.55,174.19c-.47,7.31-2.4,16.65-3.09,17.05-1.37.79-3.86,0-5.13-.19a1,1,0,0,1-.92-1.05c.62-12.12-1.15-29-2.48-39.38,0-.27-.07-.54-.1-.8-.16-1.22-.27-2.37-.33-3.4.63-4.11,4.19-4.33,7.42,4.18C119.52,153.43,124.65,172.52,124.55,174.19Z"/><path class="cls-9" d="M132.08,164.85a30.07,30.07,0,0,0,1.2,3.33c1.64,6.57.74,22.15-.07,22.78-1.26,1-3.83.5-5.11.49a1.05,1.05,0,0,1-1-.93c-1-12.41-5.17-29.46-7.84-39.49a46.91,46.91,0,0,1-1.54-8.77s12.51-7.66,13.86-3.47C132.73,142.49,131.32,158.37,132.08,164.85Z"/><path class="cls-12" d="M119.34,93.9a2.37,2.37,0,0,1,.27-.28,4.92,4.92,0,0,1,1.49-1,5,5,0,0,1,5.12.79l.32.25a6.37,6.37,0,0,1,.95,1,7.88,7.88,0,0,1,1,4.49l-10.92.12A8.39,8.39,0,0,1,119.34,93.9Z"/><path class="cls-13" d="M125.46,99.2h-.6c0-.17,0-4.13,1.49-5.67l.19.15C125.13,95.05,125.45,99.16,125.46,99.2Z"/><path class="cls-13" d="M120.71,99.26a16.67,16.67,0,0,0-1.3-5.43,2,2,0,0,1,.2-.21,14.73,14.73,0,0,1,1.75,5.63l7.16-.08a36.38,36.38,0,0,1-5.82.84,23.79,23.79,0,0,1-5.1-.72Z"/><path class="cls-9" d="M128.11,110.1s-3.69,4.3-3.91,8.05l1.88.1a18,18,0,0,1,3.25-7.89s-.43-.11-.58-.13Z"/><path class="cls-9" d="M118.91,110a18.78,18.78,0,0,0-2.92,8.19l-1.9,0c.16-3,2-6.19,3-7.73C117.12,110.47,118.43,110.14,118.91,110Z"/><path class="cls-17" d="M131.06,133.16c-.09,4.4.45,13.16.45,13.16h2.6A71.51,71.51,0,0,0,135.77,134c0-.43,0-.82,0-1.19,0-1.85-.07-2.92-.07-2.92.49-11.19-1.74-17.17-2.45-18s-3.91-1.56-3.91-1.56a43.81,43.81,0,0,0-1.49,5.58c-.44,2.48,3.4,12.93,3.24,16.5C131.07,132.67,131.06,132.91,131.06,133.16Z"/><path class="cls-7" d="M92.47,134.43c.56.79.91,1.21,1.66,1.41a3.65,3.65,0,0,0,2.8-.66,3.17,3.17,0,0,1,1.53-.34c1.7.42,3.45,2,11.07.69.92-1.1.33-3.25-1.65-5.23-3.19.84-8.8,1.9-9.8,2.56A5,5,0,0,0,96,132.7a2.84,2.84,0,0,0-.94.54,1.45,1.45,0,0,1-1.69.07A1.94,1.94,0,0,0,92,133C91.73,133.09,92.12,133.94,92.47,134.43Z"/><path class="cls-17" d="M127,143.2l-8.09-.65a.43.43,0,0,0-.34.72l5.67,5.8a.43.43,0,0,0,.69-.11L126,146.6l2.65,1.24.2-.43-2.65-1.25,1.11-2.35A.44.44,0,0,0,127,143.2Z"/><rect class="cls-19" x="94.43" y="126.4" width="4.22" height="12.54" rx="0.68" transform="matrix(0.32, -0.95, 0.95, 0.32, -59.81, 182.44)"/><path class="cls-12" d="M135.89,150.73h0a.61.61,0,0,1-.81.32l-6.3-2.72a.62.62,0,0,1-.32-.82h0a.62.62,0,0,1,.81-.32l6.3,2.72A.62.62,0,0,1,135.89,150.73Z"/><path class="cls-7" d="M131.51,146.32s-.54-8.76-.45-13.16a9.17,9.17,0,0,1,4.7-.32c0,.37,0,.76,0,1.19a71.51,71.51,0,0,1-1.66,12.29c.54,2.27.5,4.72-.43,5.15s-4-1.19-4-1.91S131.51,146.32,131.51,146.32Z"/><rect class="cls-12" x="50.6" y="149.2" width="15.15" height="12" rx="1.26"/><rect class="cls-13" x="54.71" y="149.2" width="15.15" height="12" rx="1.26"/><path class="cls-12" d="M53.23,149.26s3-2.21,3.45-2.16,1.16.21,1.16.21l-2.69,2Z"/><path class="cls-11" d="M76.91,114.35a14.23,14.23,0,0,0-5.42-1.83c-.33,0-1.32,0-1.33,0,0,1-2.15,1.88-3.91,1.77a2.55,2.55,0,0,1-2.44-1.83h0c-.11,0-5.88,4-6.61,8a5.27,5.27,0,0,0-.07.79c0,19-1.17,21.88-.81,21.87a12.76,12.76,0,0,0,6.16,2.05q.78.07,1.65.09a24.46,24.46,0,0,0,4.83-.48c.8-.17,1.55-.37,2.22-.58,2.81-.89,4.47-2.06,4.46-2.4s.06-.85,0-1.38c-.17-2-.27-3.76-.34-5.53a20.56,20.56,0,0,0,4.79,0C82.59,129.45,78.53,115.58,76.91,114.35Zm-.71,15.44-.61.14-.46.09a1.7,1.7,0,0,0,0-.22c0-1-.08-1.94-.15-2.84q-.07-1.12-.21-2.16C75.81,127.57,76.54,129.69,76.2,129.79Z"/><path class="cls-7" d="M63.81,112.42s-4.45.67-6.37,2.27-2.11,11.78-2.75,14.65a22.23,22.23,0,0,0-.34,2.59,56.38,56.38,0,0,0,.41,11.32,4.39,4.39,0,0,1-.26,1.89c-.49,1.23-.6,1.58.28,2.28s1.82,1.68,2.49,1.4c.51-.21.42-3.62.35-5.17.77-3.31,2-9.52,3.19-15.53C62.38,120.1,63.81,112.42,63.81,112.42Z"/><path class="cls-11" d="M63.81,112.42s-.83,4.42-1.91,10.06c-.34,1.79-.71,3.71-1.09,5.64-1.53,3-2.85,5-3.25,4.66a4.71,4.71,0,0,0-3.21-.85,22.23,22.23,0,0,1,.34-2.59c.05-.22.09-.5.14-.81.54-3.62.84-12.37,2.61-13.84a11,11,0,0,1,3.77-1.7h0c.67-.19,1.3-.33,1.76-.42Z"/><path class="cls-20" d="M57.56,132.78a4.71,4.71,0,0,0-3.21-.85,22.23,22.23,0,0,1,.34-2.59c.05-.22.09-.5.14-.81l4.6-11.09S58,133.17,57.56,132.78Z"/><path class="cls-7" d="M70.17,112.3a34.27,34.27,0,0,0-.2-5l-6.18,1s0,1.88,0,4h0s-.17,1.94,2.22,2.22S70.24,113.8,70.17,112.3Z"/><path class="cls-6" d="M65,194.43c.77-.48.32-4.05.32-4.05s-3.64-2.89-4.13-.67-3.44,3.24-5.11,3.52a1.8,1.8,0,0,0-1.63,1.21Z"/><path class="cls-20" d="M75.6,129.93s-1.16,1.57-1.4,1.57-3.16-1.13-2.32-3.66a4.51,4.51,0,0,1,2.88-3q.13,1,.21,2.16c.07.9.11,1.85.15,2.84a1.7,1.7,0,0,1,0,.22l.46-.09Z"/><path class="cls-6" d="M76.15,194.43c.78-.48.32-4.05.32-4.05s-3.64-2.89-4.13-.67-3.43,3.24-5.11,3.52a1.79,1.79,0,0,0-1.62,1.21Z"/><path class="cls-9" d="M75.64,141.75c0,.34-1.65,1.51-4.46,2.4l-.7.21h0c-.26,3.07-1,7.4-1.61,11.59h0c-.16,1.08-.32,2.15-.47,3.19a63.14,63.14,0,0,0-.71,7.06v0a27.5,27.5,0,0,0,.73,3.36c0,.3.06.6.08.93a35.37,35.37,0,0,1-.06,4.44c-.46,7.11-2.34,16.21-3,16.6-1.33.77-3.75,0-5-.18a1,1,0,0,1-.9-1c.61-11.8-1.12-28.23-2.42-38.33,0-.26-.06-.52-.1-.78-.15-1.19-.25-2.3-.32-3.3s-.08-1.68-.1-2.37v-.62c0-.63.5-4.77.52-23.74h0a.79.79,0,0,1,.8-.79h11.6a2,2,0,0,1,2,2,33.75,33.75,0,0,0,.35,5.4c.43,2.63,1.35,5.09,3.24,5.68h0l.15.32h0c0,.47,0,1,.06,1.45,0,.1,0,.2,0,.3s0,.12,0,.18,0,.2,0,.3l0,.5,0,.4c0,.26,0,.52,0,.78,0,.08,0,.17,0,.25,0,.34,0,.68.08,1,0,.11,0,.21,0,.32s0,.1,0,.16l0,.4c0,.15,0,.29,0,.44C75.7,140.9,75.63,141.38,75.64,141.75Z"/><path class="cls-6" d="M68.44,175c-.46,7.11-2.34,16.21-3,16.6-1.33.77-3.75,0-5-.18a1,1,0,0,1-.9-1c.61-11.8-1.12-28.23-2.42-38.33,0-.26-.06-.52-.1-.78-.15-1.19-.25-2.3-.32-3.3.62-4,4.09-4.22,7.23,4.06C65.29,155.2,68.55,173.32,68.44,175Z"/><path class="cls-9" d="M75.77,165.86a30.14,30.14,0,0,0,1.17,3.25c1.59,6.39.72,21.55-.07,22.16-1.22.94-3.73.49-5,.48a1,1,0,0,1-1-.9c-1-12.08-5-28.68-7.64-38.44a45.56,45.56,0,0,1-1.49-8.53s12.17-7.46,13.49-3.39C76.41,144.1,75,159.55,75.77,165.86Z"/><path class="cls-9" d="M71.91,112.58s-3.59,4.18-3.8,7.83h1.82a17.51,17.51,0,0,1,3.17-7.58Z"/><path class="cls-9" d="M63,112.57a18.29,18.29,0,0,0-2.87,7.84H58.29c.15-2.87,1.93-5.93,2.92-7.42h0C61.89,112.8,62.52,112.66,63,112.57Z"/><path class="cls-12" d="M81.51,135.17a38.73,38.73,0,0,0-.62-5,15.77,15.77,0,0,1-.2,2.65c.45,3.6.28,6.35-.53,7.9a5.25,5.25,0,0,1-2,2.2,6.17,6.17,0,0,0,1.11-1.47c.62-1.1,1.19-3.16,1-6.95,0,.11-.09.22-.14.32l-.46.05c.13,2.78-.17,4.9-.88,6.17a5.23,5.23,0,0,1-2.13,2.14,6.2,6.2,0,0,0,.76-.92c.73-1.07,1.49-3.19,1.53-7.33l-.61,0c0,3.18-.5,5.55-1.38,6.84l-.13.18c.67-1.15,1.31-3.23,1.34-7h-.61c0,3.17-.5,5.54-1.38,6.83a5,5,0,0,1-2,1.77c-.24-.05-.49-.1-.74-.17l-.1,0h0l-.1,0a8.45,8.45,0,0,1-.89-.3,8.91,8.91,0,0,1-5.72-7.11,41.46,41.46,0,0,1,.38-7.53c.73-5.84,2.32-12.62,4.25-15.32l.1-.13h0l.12-.15a1.7,1.7,0,0,1,.22-.24h0a2.1,2.1,0,0,1,.45-.37l.13.09a2.46,2.46,0,0,1,.45.46h0l.63.14.3.09h0l.07,0,.38.11.21.07.26.08.27.09.29.11h0c-1.14-1.79-1.94-2.21-2.47-2.19l-.24,0a.93.93,0,0,0-.27,0,1.46,1.46,0,0,0-.53.1,2.8,2.8,0,0,0-1.69,1l-.12.13a10,10,0,0,0-1,1.33h0c-3.11,4.91-6,15.83-6.18,20.94-.14,4,3,7.66,6.12,9.14.31.15.62.27.92.38l.51.16h0a6.71,6.71,0,0,0,1.89.28l.39,0,.39,0a5.56,5.56,0,0,0,1.64-.24l.24,0,.21,0,.39-.06a6.65,6.65,0,0,0,1.11-.09,5.6,5.6,0,0,0,3-1.43,6.6,6.6,0,0,0,1.32-1.76A11.9,11.9,0,0,0,81.51,135.17Zm-18.32-.37c.15-4.52,2.62-14.13,5.36-19.31-.1.23-.2.46-.29.71-2.59,5.47-4.76,14.17-4.9,18.57a8.67,8.67,0,0,0,1.53,5.09A8.42,8.42,0,0,1,63.19,134.8Zm6.51,8.43c-3.9-1.84-5.84-5.63-5.74-8.43a49.5,49.5,0,0,1,2-10.48,52.19,52.19,0,0,0-1.27,11.34c.16,3.39,2.57,6.22,5.26,7.69Zm-4.39-7.61c-.18-3.88,1-11.69,2.86-17.3.2-.62.41-1.22.63-1.79L69,116a62.91,62.91,0,0,0-2.9,13.88A37.56,37.56,0,0,0,66,136a9.13,9.13,0,0,0,4.1,6.63A9,9,0,0,1,65.31,135.62Z"/><path class="cls-7" d="M75.6,129.93l-2.07.37c-3.11.46-7.28.66-7.72.68,0,0-1.52-1.42-2.1-1.42s-2.28.62-2.45,1.09-.24,1.33.24,1.52a23.37,23.37,0,0,0,3,.71h.25a53.14,53.14,0,0,0,9.38,1.89,24.15,24.15,0,0,0,2.62.17A13.8,13.8,0,0,0,75.6,129.93Z"/><path class="cls-10" d="M70.76,105.56s4.13-6.5-3.8-6.93c0,0-3,.35-3.64-.33a7.26,7.26,0,0,0-.15,7.26C65.32,109.32,70.76,105.56,70.76,105.56Z"/><path class="cls-7" d="M64,109a8.4,8.4,0,0,0,2.87,1,24,24,0,0,0,3.09-.86c.73-.45.69-1.35.72-2.61a18.72,18.72,0,0,0,0-3.5c-.19-1-.84-1.61-2.66-1.77-3.34-.29-4.72.55-4.78,1.67,0,.3,0,.58,0,.86C63.06,107.22,63.34,108.46,64,109Z"/><path class="cls-12" d="M71.31,97.57a6.1,6.1,0,0,0-.93-1l-.31-.24a4.84,4.84,0,0,0-5-.77,4.54,4.54,0,0,0-1.45.94,2.37,2.37,0,0,0-.27.28,8.2,8.2,0,0,0-1.69,5.24l10.63-.11A7.63,7.63,0,0,0,71.31,97.57Z"/><path class="cls-13" d="M69.33,102s-.32-4,1-5.37l-.18-.15c-1.44,1.5-1.47,5.36-1.46,5.53Z"/><path class="cls-13" d="M65.35,102a13.7,13.7,0,0,0-1.71-5.48,1.89,1.89,0,0,0-.2.2A15.5,15.5,0,0,1,64.72,102l-3,0a23.51,23.51,0,0,0,5,.71,36.56,36.56,0,0,0,5.67-.82Z"/><path class="cls-8" d="M63.81,108.8a7.49,7.49,0,0,0,3,1.15,7.63,7.63,0,0,0,3.28-1s-2.7,2.28-3.29,2.3S63.81,108.8,63.81,108.8Z"/><path class="cls-6" d="M129.74,193.92c.8-.49.33-4.14.33-4.14s-3.74-3-4.24-.68-3.53,3.32-5.26,3.61c-1.19.2-1.62.81-1.74,1.2Z"/><path class="cls-6" d="M141.2,193.92c.8-.49.33-4.14.33-4.14s-3.74-3-4.24-.68-3.53,3.32-5.25,3.61c-1.19.2-1.63.81-1.74,1.2Z"/><path class="cls-6" d="M119.83,157.63v4.44H21.64a.9.9,0,0,0-.9.9v32.77h210V157.63Z"/><rect class="cls-19" x="218.51" y="191.5" width="12.55" height="4.22" rx="1.91"/><rect class="cls-19" x="205.29" y="191.5" width="12.55" height="4.22" rx="1.91"/><rect class="cls-19" x="192.07" y="191.5" width="12.55" height="4.22" rx="1.91"/><rect class="cls-19" x="178.85" y="191.5" width="12.55" height="4.22" rx="1.91"/><rect class="cls-19" x="165.63" y="191.5" width="12.55" height="4.22" rx="1.91"/><rect class="cls-19" x="152.41" y="191.5" width="12.55" height="4.22" rx="1.91"/><rect class="cls-19" x="139.19" y="191.5" width="12.55" height="4.22" rx="1.91"/><rect class="cls-19" x="125.97" y="191.5" width="12.55" height="4.22" rx="1.91"/><rect class="cls-19" x="112.67" y="191.5" width="12.55" height="4.22" rx="1.91"/><rect class="cls-19" x="99.45" y="191.5" width="12.55" height="4.22" rx="1.91"/><rect class="cls-19" x="86.23" y="191.5" width="12.55" height="4.22" rx="1.91"/><rect class="cls-19" x="73.01" y="191.5" width="12.55" height="4.22" rx="1.91"/><rect class="cls-19" x="59.8" y="191.5" width="12.55" height="4.22" rx="1.91"/><rect class="cls-19" x="46.58" y="191.5" width="12.55" height="4.22" rx="1.91"/><rect class="cls-19" x="33.36" y="191.5" width="12.55" height="4.22" rx="1.91"/><rect class="cls-19" x="20.14" y="191.5" width="12.55" height="4.22" rx="1.91"/><rect class="cls-19" x="225" y="186.67" width="6.19" height="4.22" rx="1.91"/><rect class="cls-19" x="211.78" y="186.67" width="12.55" height="4.22" rx="1.91"/><rect class="cls-19" x="198.56" y="186.67" width="12.55" height="4.22" rx="1.91"/><rect class="cls-19" x="185.34" y="186.67" width="12.55" height="4.22" rx="1.91"/><rect class="cls-19" x="172.12" y="186.67" width="12.55" height="4.22" rx="1.91"/><rect class="cls-19" x="158.9" y="186.67" width="12.55" height="4.22" rx="1.91"/><rect class="cls-19" x="145.68" y="186.67" width="12.55" height="4.22" rx="1.91"/><rect class="cls-19" x="132.46" y="186.67" width="12.55" height="4.22" rx="1.91"/><rect class="cls-19" x="119.16" y="186.67" width="12.55" height="4.22" rx="1.91"/><rect class="cls-19" x="105.94" y="186.67" width="12.55" height="4.22" rx="1.91"/><rect class="cls-19" x="92.72" y="186.67" width="12.55" height="4.22" rx="1.91"/><rect class="cls-19" x="79.5" y="186.67" width="12.55" height="4.22" rx="1.91"/><rect class="cls-19" x="66.28" y="186.67" width="12.55" height="4.22" rx="1.91"/><rect class="cls-19" x="53.06" y="186.67" width="12.55" height="4.22" rx="1.91"/><rect class="cls-19" x="39.84" y="186.67" width="12.55" height="4.22" rx="1.91"/><rect class="cls-19" x="26.62" y="186.67" width="12.55" height="4.22" rx="1.91"/><rect class="cls-19" x="19.97" y="186.67" width="6.19" height="4.22" rx="1.91"/><rect class="cls-19" x="218.51" y="181.77" width="12.55" height="4.22" rx="1.91"/><rect class="cls-19" x="205.29" y="181.77" width="12.55" height="4.22" rx="1.91"/><rect class="cls-19" x="192.07" y="181.77" width="12.55" height="4.22" rx="1.91"/><rect class="cls-19" x="178.85" y="181.77" width="12.55" height="4.22" rx="1.91"/><rect class="cls-19" x="165.63" y="181.77" width="12.55" height="4.22" rx="1.91"/><rect class="cls-19" x="152.41" y="181.77" width="12.55" height="4.22" rx="1.91"/><rect class="cls-19" x="139.19" y="181.77" width="12.55" height="4.22" rx="1.91"/><rect class="cls-19" x="125.97" y="181.77" width="12.55" height="4.22" rx="1.91"/><rect class="cls-19" x="112.67" y="181.77" width="12.55" height="4.22" rx="1.91"/><rect class="cls-19" x="99.45" y="181.77" width="12.55" height="4.22" rx="1.91"/><rect class="cls-19" x="86.23" y="181.77" width="12.55" height="4.22" rx="1.91"/><rect class="cls-19" x="73.01" y="181.77" width="12.55" height="4.22" rx="1.91"/><rect class="cls-19" x="59.8" y="181.77" width="12.55" height="4.22" rx="1.91"/><rect class="cls-19" x="46.58" y="181.77" width="12.55" height="4.22" rx="1.91"/><rect class="cls-19" x="33.36" y="181.77" width="12.55" height="4.22" rx="1.91"/><rect class="cls-19" x="20.14" y="181.77" width="12.55" height="4.22" rx="1.91"/><rect class="cls-19" x="225" y="176.95" width="6.19" height="4.22" rx="1.91"/><rect class="cls-19" x="211.78" y="176.95" width="12.55" height="4.22" rx="1.91"/><rect class="cls-19" x="198.56" y="176.95" width="12.55" height="4.22" rx="1.91"/><rect class="cls-19" x="185.34" y="176.95" width="12.55" height="4.22" rx="1.91"/><rect class="cls-19" x="172.12" y="176.95" width="12.55" height="4.22" rx="1.91"/><rect class="cls-19" x="158.9" y="176.95" width="12.55" height="4.22" rx="1.91"/><rect class="cls-19" x="145.68" y="176.95" width="12.55" height="4.22" rx="1.91"/><rect class="cls-19" x="132.46" y="176.95" width="12.55" height="4.22" rx="1.91"/><rect class="cls-19" x="119.16" y="176.95" width="12.55" height="4.22" rx="1.91"/><rect class="cls-19" x="105.94" y="176.95" width="12.55" height="4.22" rx="1.91"/><rect class="cls-19" x="92.72" y="176.95" width="12.55" height="4.22" rx="1.91"/><rect class="cls-19" x="79.5" y="176.95" width="12.55" height="4.22" rx="1.91"/><rect class="cls-19" x="66.28" y="176.95" width="12.55" height="4.22" rx="1.91"/><rect class="cls-19" x="53.06" y="176.95" width="12.55" height="4.22" rx="1.91"/><rect class="cls-19" x="39.84" y="176.95" width="12.55" height="4.22" rx="1.91"/><rect class="cls-19" x="26.62" y="176.95" width="12.55" height="4.22" rx="1.91"/><rect class="cls-19" x="19.97" y="176.95" width="6.19" height="4.22" rx="1.91"/><rect class="cls-19" x="218.51" y="172.16" width="12.55" height="4.22" rx="1.91"/><rect class="cls-19" x="205.29" y="172.16" width="12.55" height="4.22" rx="1.91"/><rect class="cls-19" x="192.07" y="172.16" width="12.55" height="4.22" rx="1.91"/><rect class="cls-19" x="178.85" y="172.16" width="12.55" height="4.22" rx="1.91"/><rect class="cls-19" x="165.63" y="172.16" width="12.55" height="4.22" rx="1.91"/><rect class="cls-19" x="152.41" y="172.16" width="12.55" height="4.22" rx="1.91"/><rect class="cls-19" x="139.19" y="172.16" width="12.55" height="4.22" rx="1.91"/><rect class="cls-19" x="125.97" y="172.16" width="12.55" height="4.22" rx="1.91"/><rect class="cls-19" x="112.67" y="172.16" width="12.55" height="4.22" rx="1.91"/><rect class="cls-19" x="99.45" y="172.16" width="12.55" height="4.22" rx="1.91"/><rect class="cls-19" x="86.23" y="172.16" width="12.55" height="4.22" rx="1.91"/><rect class="cls-19" x="73.01" y="172.16" width="12.55" height="4.22" rx="1.91"/><rect class="cls-19" x="59.8" y="172.16" width="12.55" height="4.22" rx="1.91"/><rect class="cls-19" x="46.58" y="172.16" width="12.55" height="4.22" rx="1.91"/><rect class="cls-19" x="33.36" y="172.16" width="12.55" height="4.22" rx="1.91"/><rect class="cls-19" x="20.14" y="172.16" width="12.55" height="4.22" rx="1.91"/><rect class="cls-19" x="225" y="167.34" width="6.19" height="4.22" rx="1.91"/><rect class="cls-19" x="211.78" y="167.34" width="12.55" height="4.22" rx="1.91"/><rect class="cls-19" x="198.56" y="167.34" width="12.55" height="4.22" rx="1.91"/><rect class="cls-19" x="185.34" y="167.34" width="12.55" height="4.22" rx="1.91"/><rect class="cls-19" x="172.12" y="167.34" width="12.55" height="4.22" rx="1.91"/><rect class="cls-19" x="158.9" y="167.34" width="12.55" height="4.22" rx="1.91"/><rect class="cls-19" x="145.68" y="167.34" width="12.55" height="4.22" rx="1.91"/><rect class="cls-19" x="132.46" y="167.34" width="12.55" height="4.22" rx="1.91"/><rect class="cls-19" x="119.16" y="167.34" width="12.55" height="4.22" rx="1.91"/><rect class="cls-19" x="105.94" y="167.34" width="12.55" height="4.22" rx="1.91"/><rect class="cls-19" x="92.72" y="167.34" width="12.55" height="4.22" rx="1.91"/><rect class="cls-19" x="79.5" y="167.34" width="12.55" height="4.22" rx="1.91"/><rect class="cls-19" x="66.28" y="167.34" width="12.55" height="4.22" rx="1.91"/><rect class="cls-19" x="53.06" y="167.34" width="12.55" height="4.22" rx="1.91"/><rect class="cls-19" x="39.84" y="167.34" width="12.55" height="4.22" rx="1.91"/><rect class="cls-19" x="26.62" y="167.34" width="12.55" height="4.22" rx="1.91"/><rect class="cls-19" x="19.97" y="167.34" width="6.19" height="4.22" rx="1.91"/><rect class="cls-19" x="218.51" y="162.43" width="12.55" height="4.22" rx="1.91"/><rect class="cls-19" x="205.29" y="162.43" width="12.55" height="4.22" rx="1.91"/><rect class="cls-19" x="192.07" y="162.43" width="12.55" height="4.22" rx="1.91"/><rect class="cls-19" x="178.85" y="162.43" width="12.55" height="4.22" rx="1.91"/><rect class="cls-19" x="165.63" y="162.43" width="12.55" height="4.22" rx="1.91"/><rect class="cls-19" x="152.41" y="162.43" width="12.55" height="4.22" rx="1.91"/><rect class="cls-19" x="139.19" y="162.43" width="12.55" height="4.22" rx="1.91"/><rect class="cls-19" x="125.97" y="162.43" width="12.55" height="4.22" rx="1.91"/><rect class="cls-19" x="112.67" y="162.43" width="12.55" height="4.22" rx="1.91"/><rect class="cls-19" x="99.45" y="162.43" width="12.55" height="4.22" rx="1.91"/><rect class="cls-19" x="86.23" y="162.43" width="12.55" height="4.22" rx="1.91"/><rect class="cls-19" x="73.01" y="162.43" width="12.55" height="4.22" rx="1.91"/><rect class="cls-19" x="59.8" y="162.43" width="12.55" height="4.22" rx="1.91"/><rect class="cls-19" x="46.58" y="162.43" width="12.55" height="4.22" rx="1.91"/><rect class="cls-19" x="33.36" y="162.43" width="12.55" height="4.22" rx="1.91"/><rect class="cls-19" x="20.14" y="162.43" width="12.55" height="4.22" rx="1.91"/><rect class="cls-19" x="225" y="157.61" width="6.19" height="4.22" rx="1.91"/><rect class="cls-19" x="211.78" y="157.61" width="12.55" height="4.22" rx="1.91"/><rect class="cls-19" x="198.56" y="157.61" width="12.55" height="4.22" rx="1.91"/><rect class="cls-19" x="185.34" y="157.61" width="12.55" height="4.22" rx="1.91"/><rect class="cls-19" x="172.12" y="157.61" width="12.55" height="4.22" rx="1.91"/><rect class="cls-19" x="158.9" y="157.61" width="12.55" height="4.22" rx="1.91"/><rect class="cls-19" x="145.68" y="157.61" width="12.55" height="4.22" rx="1.91"/><rect class="cls-19" x="132.46" y="157.61" width="12.55" height="4.22" rx="1.91"/><rect class="cls-19" x="119.16" y="157.61" width="12.55" height="4.22" rx="1.91"/><path class="cls-21" d="M235.41,196H14.59a.24.24,0,0,1-.25-.24h0a.25.25,0,0,1,.25-.24H235.41a.25.25,0,0,1,.25.24h0A.24.24,0,0,1,235.41,196Z"/></svg>