<svg xmlns="http://www.w3.org/2000/svg" xmlns:xlink="http://www.w3.org/1999/xlink" viewBox="0 0 250 250"><defs><style>.cls-1{isolation:isolate;}.cls-2{fill:#f9320b;opacity:0.1;}.cls-3{fill:#3b0f37;}.cls-4{fill:#ffa89f;}.cls-12,.cls-14,.cls-15,.cls-17,.cls-19,.cls-20,.cls-25,.cls-26,.cls-30,.cls-33,.cls-5{fill:none;}.cls-5{stroke:#ffcab9;stroke-width:0.55px;}.cls-12,.cls-14,.cls-15,.cls-17,.cls-19,.cls-20,.cls-5{stroke-miterlimit:10;}.cls-6{fill:#ffcab9;}.cls-7{fill:#ffece7;}.cls-23,.cls-31,.cls-8{fill:#2f1f38;}.cls-9{fill:#fdd0d0;}.cls-10,.cls-11{fill:#c8d8e2;}.cls-11,.cls-13,.cls-16,.cls-18,.cls-21,.cls-31{mix-blend-mode:multiply;}.cls-11,.cls-21{opacity:0.52;}.cls-12,.cls-17,.cls-30,.cls-33{stroke:#2f1f38;}.cls-12{stroke-width:0.68px;}.cls-13,.cls-16,.cls-18{opacity:0.39;}.cls-13{fill:url(#linear-gradient);}.cls-14,.cls-15,.cls-19,.cls-20{stroke:#ffece7;}.cls-14{stroke-width:0.27px;}.cls-15{stroke-width:0.27px;}.cls-16{fill:url(#linear-gradient-2);}.cls-17{stroke-width:0.88px;}.cls-18{fill:url(#linear-gradient-3);}.cls-19{stroke-width:0.31px;}.cls-20{stroke-width:0.31px;}.cls-22{fill:#443e54;}.cls-23{opacity:0.38;}.cls-24{fill:#ffd39d;}.cls-25,.cls-26{stroke:#ffd39d;}.cls-25,.cls-26,.cls-30,.cls-33{stroke-linecap:round;stroke-linejoin:round;}.cls-25{stroke-width:0.23px;}.cls-26{stroke-width:0.27px;}.cls-27{fill:#9adae1;}.cls-28{fill:#f38b74;}.cls-29{fill:#a7e8f5;}.cls-30{stroke-width:0.29px;}.cls-31{opacity:0.56;}.cls-32{fill:#e9b8af;}.cls-33{stroke-width:0.57px;}</style><linearGradient id="linear-gradient" x1="88.52" y1="122.84" x2="88.52" y2="116.76" gradientUnits="userSpaceOnUse"><stop offset="0" stop-color="#c1d0d9" stop-opacity="0"/><stop offset="1" stop-color="#5e728d"/></linearGradient><linearGradient id="linear-gradient-2" x1="146.62" y1="122.84" x2="146.62" y2="116.76" xlink:href="#linear-gradient"/><linearGradient id="linear-gradient-3" x1="144.16" y1="179.14" x2="144.16" y2="172.15" xlink:href="#linear-gradient"/></defs><g class="cls-1"><g id="Layer_1" data-name="Layer 1"><path class="cls-2" d="M19.16,195.55S-10.51,159.81,4,123C13.44,99,48.9,85.89,68.9,99c8.53,5.59,35.87.18,50.46-23,28.37-45,127.37-17.68,109.35,51.46-8.72,33.45,26.54,34.67,8.57,68.11Z"/><rect class="cls-3" y="195.02" width="250" height="0.96" rx="0.48"/><rect class="cls-4" x="54.45" y="70.57" width="132.31" height="123.63"/><line class="cls-5" x1="54.52" y1="78.42" x2="186.74" y2="78.42"/><line class="cls-5" x1="54.52" y1="81.5" x2="186.74" y2="81.5"/><line class="cls-5" x1="54.52" y1="84.58" x2="186.74" y2="84.58"/><line class="cls-5" x1="54.52" y1="87.66" x2="186.74" y2="87.66"/><line class="cls-5" x1="54.52" y1="90.74" x2="186.74" y2="90.74"/><line class="cls-5" x1="54.52" y1="93.82" x2="186.74" y2="93.82"/><line class="cls-5" x1="54.52" y1="96.9" x2="186.74" y2="96.9"/><line class="cls-5" x1="54.52" y1="99.98" x2="186.74" y2="99.98"/><line class="cls-5" x1="54.52" y1="103.06" x2="186.74" y2="103.06"/><line class="cls-5" x1="54.52" y1="106.14" x2="186.74" y2="106.14"/><line class="cls-5" x1="54.52" y1="109.22" x2="186.74" y2="109.22"/><line class="cls-5" x1="54.52" y1="112.31" x2="186.74" y2="112.31"/><line class="cls-5" x1="54.52" y1="115.39" x2="186.74" y2="115.39"/><line class="cls-5" x1="54.52" y1="118.47" x2="186.74" y2="118.47"/><line class="cls-5" x1="54.52" y1="121.55" x2="186.74" y2="121.55"/><line class="cls-5" x1="54.52" y1="124.63" x2="186.74" y2="124.63"/><line class="cls-5" x1="54.52" y1="127.71" x2="186.74" y2="127.71"/><line class="cls-5" x1="54.52" y1="130.79" x2="186.74" y2="130.79"/><line class="cls-5" x1="54.52" y1="133.87" x2="186.74" y2="133.87"/><line class="cls-5" x1="54.52" y1="136.95" x2="186.74" y2="136.95"/><line class="cls-5" x1="54.52" y1="140.03" x2="186.74" y2="140.03"/><line class="cls-5" x1="54.52" y1="143.11" x2="186.74" y2="143.11"/><line class="cls-5" x1="54.52" y1="146.19" x2="186.74" y2="146.19"/><line class="cls-5" x1="54.52" y1="149.27" x2="186.74" y2="149.27"/><line class="cls-5" x1="54.52" y1="152.35" x2="186.74" y2="152.35"/><line class="cls-5" x1="54.52" y1="155.43" x2="186.74" y2="155.43"/><line class="cls-5" x1="54.52" y1="158.51" x2="186.74" y2="158.51"/><line class="cls-5" x1="54.52" y1="161.59" x2="186.74" y2="161.59"/><line class="cls-5" x1="54.52" y1="164.67" x2="186.74" y2="164.67"/><line class="cls-5" x1="54.52" y1="167.75" x2="186.74" y2="167.75"/><line class="cls-5" x1="54.52" y1="170.83" x2="186.74" y2="170.83"/><line class="cls-5" x1="54.52" y1="173.91" x2="186.74" y2="173.91"/><rect class="cls-6" x="54.45" y="73.26" width="132.31" height="3.32"/><rect class="cls-6" x="56.44" y="176.74" width="129.58" height="17.54"/><rect class="cls-6" x="54.45" y="69.41" width="1.98" height="124.8"/><rect class="cls-6" x="184.03" y="69.41" width="2.73" height="124.8"/><rect class="cls-7" x="74.81" y="80.28" width="28.27" height="36.61"/><rect class="cls-8" x="76.01" y="81.84" width="25.85" height="33.48"/><rect class="cls-9" x="77.42" y="83.67" width="23.03" height="29.83"/><rect class="cls-10" x="76.96" y="83.07" width="23.95" height="31.03"/><polygon class="cls-11" points="100.92 83.07 100.92 83.69 77.58 83.69 77.58 114.1 76.96 114.1 76.96 83.07 100.92 83.07"/><rect class="cls-8" x="88.47" y="82.26" width="1.11" height="32.33"/><rect class="cls-8" x="76.58" y="90.61" width="25.1" height="1.56"/><rect class="cls-8" x="76.58" y="102.38" width="25.1" height="1.56"/><line class="cls-12" x1="83.03" y1="82.52" x2="83.03" y2="113.13"/><line class="cls-12" x1="95.32" y1="82.52" x2="95.32" y2="113.13"/><rect class="cls-13" x="73.76" y="116.58" width="29.52" height="6.36"/><rect class="cls-7" x="73.52" y="112.58" width="30.66" height="4.24"/><rect class="cls-8" x="103.12" y="82.01" width="9.77" height="29.55"/><rect class="cls-14" x="103.82" y="82.76" width="8.4" height="28.06"/><line class="cls-15" x1="103.88" y1="83.64" x2="112.14" y2="83.64"/><line class="cls-15" x1="103.88" y1="84.65" x2="112.14" y2="84.65"/><line class="cls-15" x1="103.88" y1="85.66" x2="112.14" y2="85.66"/><line class="cls-15" x1="103.88" y1="86.67" x2="112.14" y2="86.67"/><line class="cls-15" x1="103.88" y1="87.68" x2="112.14" y2="87.68"/><line class="cls-15" x1="103.88" y1="88.69" x2="112.14" y2="88.69"/><line class="cls-15" x1="103.88" y1="89.7" x2="112.14" y2="89.7"/><line class="cls-15" x1="103.88" y1="90.71" x2="112.14" y2="90.71"/><line class="cls-15" x1="103.88" y1="91.72" x2="112.14" y2="91.72"/><line class="cls-15" x1="103.88" y1="92.72" x2="112.14" y2="92.72"/><line class="cls-15" x1="103.88" y1="93.73" x2="112.14" y2="93.73"/><line class="cls-15" x1="103.88" y1="94.74" x2="112.14" y2="94.74"/><line class="cls-15" x1="103.88" y1="95.75" x2="112.14" y2="95.75"/><line class="cls-15" x1="103.88" y1="96.76" x2="112.14" y2="96.76"/><line class="cls-15" x1="103.88" y1="97.77" x2="112.14" y2="97.77"/><line class="cls-15" x1="103.88" y1="98.78" x2="112.14" y2="98.78"/><line class="cls-15" x1="103.88" y1="99.79" x2="112.14" y2="99.79"/><line class="cls-15" x1="103.88" y1="100.8" x2="112.14" y2="100.8"/><line class="cls-15" x1="103.88" y1="101.81" x2="112.14" y2="101.81"/><line class="cls-15" x1="103.88" y1="102.82" x2="112.14" y2="102.82"/><line class="cls-15" x1="103.88" y1="103.83" x2="112.14" y2="103.83"/><line class="cls-15" x1="103.88" y1="104.84" x2="112.14" y2="104.84"/><line class="cls-15" x1="103.88" y1="105.85" x2="112.14" y2="105.85"/><line class="cls-15" x1="103.88" y1="106.86" x2="112.14" y2="106.86"/><line class="cls-15" x1="103.88" y1="107.87" x2="112.14" y2="107.87"/><line class="cls-15" x1="103.88" y1="108.88" x2="112.14" y2="108.88"/><line class="cls-15" x1="103.88" y1="109.89" x2="112.14" y2="109.89"/><rect class="cls-8" x="64.89" y="82.01" width="9.77" height="29.55"/><rect class="cls-14" x="65.59" y="82.76" width="8.4" height="28.06"/><line class="cls-15" x1="65.65" y1="83.64" x2="73.91" y2="83.64"/><line class="cls-15" x1="65.65" y1="84.65" x2="73.91" y2="84.65"/><line class="cls-15" x1="65.65" y1="85.66" x2="73.91" y2="85.66"/><line class="cls-15" x1="65.65" y1="86.67" x2="73.91" y2="86.67"/><line class="cls-15" x1="65.65" y1="87.68" x2="73.91" y2="87.68"/><line class="cls-15" x1="65.65" y1="88.69" x2="73.91" y2="88.69"/><line class="cls-15" x1="65.65" y1="89.7" x2="73.91" y2="89.7"/><line class="cls-15" x1="65.65" y1="90.71" x2="73.91" y2="90.71"/><line class="cls-15" x1="65.65" y1="91.72" x2="73.91" y2="91.72"/><line class="cls-15" x1="65.65" y1="92.72" x2="73.91" y2="92.72"/><line class="cls-15" x1="65.65" y1="93.73" x2="73.91" y2="93.73"/><line class="cls-15" x1="65.65" y1="94.74" x2="73.91" y2="94.74"/><line class="cls-15" x1="65.65" y1="95.75" x2="73.91" y2="95.75"/><line class="cls-15" x1="65.65" y1="96.76" x2="73.91" y2="96.76"/><line class="cls-15" x1="65.65" y1="97.77" x2="73.91" y2="97.77"/><line class="cls-15" x1="65.65" y1="98.78" x2="73.91" y2="98.78"/><line class="cls-15" x1="65.65" y1="99.79" x2="73.91" y2="99.79"/><line class="cls-15" x1="65.65" y1="100.8" x2="73.91" y2="100.8"/><line class="cls-15" x1="65.65" y1="101.81" x2="73.91" y2="101.81"/><line class="cls-15" x1="65.65" y1="102.82" x2="73.91" y2="102.82"/><line class="cls-15" x1="65.65" y1="103.83" x2="73.91" y2="103.83"/><line class="cls-15" x1="65.65" y1="104.84" x2="73.91" y2="104.84"/><line class="cls-15" x1="65.65" y1="105.85" x2="73.91" y2="105.85"/><line class="cls-15" x1="65.65" y1="106.86" x2="73.91" y2="106.86"/><line class="cls-15" x1="65.65" y1="107.87" x2="73.91" y2="107.87"/><line class="cls-15" x1="65.65" y1="108.88" x2="73.91" y2="108.88"/><line class="cls-15" x1="65.65" y1="109.89" x2="73.91" y2="109.89"/><rect class="cls-7" x="132.9" y="80.28" width="28.27" height="36.61"/><rect class="cls-8" x="134.11" y="81.84" width="25.85" height="33.48"/><rect class="cls-9" x="135.52" y="83.67" width="23.03" height="29.83"/><rect class="cls-10" x="135.06" y="83.07" width="23.95" height="31.03"/><polygon class="cls-11" points="159.01 83.07 159.01 83.69 135.68 83.69 135.68 114.1 135.06 114.1 135.06 83.07 159.01 83.07"/><rect class="cls-8" x="146.57" y="82.26" width="1.11" height="32.33"/><rect class="cls-8" x="134.68" y="90.61" width="25.1" height="1.56"/><rect class="cls-8" x="134.68" y="102.38" width="25.1" height="1.56"/><line class="cls-12" x1="141.13" y1="82.52" x2="141.13" y2="113.13"/><line class="cls-12" x1="153.41" y1="82.52" x2="153.41" y2="113.13"/><rect class="cls-16" x="131.86" y="116.58" width="29.52" height="6.36"/><rect class="cls-7" x="131.62" y="112.58" width="30.66" height="4.24"/><rect class="cls-8" x="161.22" y="82.01" width="9.77" height="29.55"/><rect class="cls-14" x="161.92" y="82.76" width="8.4" height="28.06"/><line class="cls-15" x1="161.97" y1="83.64" x2="170.24" y2="83.64"/><line class="cls-15" x1="161.97" y1="84.65" x2="170.24" y2="84.65"/><line class="cls-15" x1="161.97" y1="85.66" x2="170.24" y2="85.66"/><line class="cls-15" x1="161.97" y1="86.67" x2="170.24" y2="86.67"/><line class="cls-15" x1="161.97" y1="87.68" x2="170.24" y2="87.68"/><line class="cls-15" x1="161.97" y1="88.69" x2="170.24" y2="88.69"/><line class="cls-15" x1="161.97" y1="89.7" x2="170.24" y2="89.7"/><line class="cls-15" x1="161.97" y1="90.71" x2="170.24" y2="90.71"/><line class="cls-15" x1="161.97" y1="91.72" x2="170.24" y2="91.72"/><line class="cls-15" x1="161.97" y1="92.72" x2="170.24" y2="92.72"/><line class="cls-15" x1="161.97" y1="93.73" x2="170.24" y2="93.73"/><line class="cls-15" x1="161.97" y1="94.74" x2="170.24" y2="94.74"/><line class="cls-15" x1="161.97" y1="95.75" x2="170.24" y2="95.75"/><line class="cls-15" x1="161.97" y1="96.76" x2="170.24" y2="96.76"/><line class="cls-15" x1="161.97" y1="97.77" x2="170.24" y2="97.77"/><line class="cls-15" x1="161.97" y1="98.78" x2="170.24" y2="98.78"/><line class="cls-15" x1="161.97" y1="99.79" x2="170.24" y2="99.79"/><line class="cls-15" x1="161.97" y1="100.8" x2="170.24" y2="100.8"/><line class="cls-15" x1="161.97" y1="101.81" x2="170.24" y2="101.81"/><line class="cls-15" x1="161.97" y1="102.82" x2="170.24" y2="102.82"/><line class="cls-15" x1="161.97" y1="103.83" x2="170.24" y2="103.83"/><line class="cls-15" x1="161.97" y1="104.84" x2="170.24" y2="104.84"/><line class="cls-15" x1="161.97" y1="105.85" x2="170.24" y2="105.85"/><line class="cls-15" x1="161.97" y1="106.86" x2="170.24" y2="106.86"/><line class="cls-15" x1="161.97" y1="107.87" x2="170.24" y2="107.87"/><line class="cls-15" x1="161.97" y1="108.88" x2="170.24" y2="108.88"/><line class="cls-15" x1="161.97" y1="109.89" x2="170.24" y2="109.89"/><rect class="cls-8" x="122.99" y="82.01" width="9.77" height="29.55"/><rect class="cls-14" x="123.69" y="82.76" width="8.4" height="28.06"/><line class="cls-15" x1="123.74" y1="83.64" x2="132.01" y2="83.64"/><line class="cls-15" x1="123.74" y1="84.65" x2="132.01" y2="84.65"/><line class="cls-15" x1="123.74" y1="85.66" x2="132.01" y2="85.66"/><line class="cls-15" x1="123.74" y1="86.67" x2="132.01" y2="86.67"/><line class="cls-15" x1="123.74" y1="87.68" x2="132.01" y2="87.68"/><line class="cls-15" x1="123.74" y1="88.69" x2="132.01" y2="88.69"/><line class="cls-15" x1="123.74" y1="89.7" x2="132.01" y2="89.7"/><line class="cls-15" x1="123.74" y1="90.71" x2="132.01" y2="90.71"/><line class="cls-15" x1="123.74" y1="91.72" x2="132.01" y2="91.72"/><line class="cls-15" x1="123.74" y1="92.72" x2="132.01" y2="92.72"/><line class="cls-15" x1="123.74" y1="93.73" x2="132.01" y2="93.73"/><line class="cls-15" x1="123.74" y1="94.74" x2="132.01" y2="94.74"/><line class="cls-15" x1="123.74" y1="95.75" x2="132.01" y2="95.75"/><line class="cls-15" x1="123.74" y1="96.76" x2="132.01" y2="96.76"/><line class="cls-15" x1="123.74" y1="97.77" x2="132.01" y2="97.77"/><line class="cls-15" x1="123.74" y1="98.78" x2="132.01" y2="98.78"/><line class="cls-15" x1="123.74" y1="99.79" x2="132.01" y2="99.79"/><line class="cls-15" x1="123.74" y1="100.8" x2="132.01" y2="100.8"/><line class="cls-15" x1="123.74" y1="101.81" x2="132.01" y2="101.81"/><line class="cls-15" x1="123.74" y1="102.82" x2="132.01" y2="102.82"/><line class="cls-15" x1="123.74" y1="103.83" x2="132.01" y2="103.83"/><line class="cls-15" x1="123.74" y1="104.84" x2="132.01" y2="104.84"/><line class="cls-15" x1="123.74" y1="105.85" x2="132.01" y2="105.85"/><line class="cls-15" x1="123.74" y1="106.86" x2="132.01" y2="106.86"/><line class="cls-15" x1="123.74" y1="107.87" x2="132.01" y2="107.87"/><line class="cls-15" x1="123.74" y1="108.88" x2="132.01" y2="108.88"/><line class="cls-15" x1="123.74" y1="109.89" x2="132.01" y2="109.89"/><rect class="cls-7" x="124.66" y="130.2" width="40.19" height="42.1"/><rect class="cls-8" x="126.38" y="132" width="36.76" height="38.5"/><rect class="cls-9" x="128.38" y="134.09" width="32.75" height="34.31"/><rect class="cls-10" x="127.72" y="133.41" width="34.06" height="35.68"/><polygon class="cls-11" points="161.78 133.41 161.78 134.11 128.6 134.11 128.6 169.09 127.72 169.09 127.72 133.41 161.78 133.41"/><rect class="cls-8" x="144.09" y="132.48" width="1.58" height="37.18"/><rect class="cls-8" x="127.18" y="142.07" width="35.69" height="1.8"/><rect class="cls-8" x="127.18" y="155.61" width="35.69" height="1.8"/><line class="cls-17" x1="136.35" y1="132.78" x2="136.35" y2="167.98"/><line class="cls-17" x1="153.82" y1="132.78" x2="153.82" y2="167.98"/><rect class="cls-18" x="123.17" y="171.94" width="41.97" height="7.32"/><rect class="cls-7" x="122.9" y="167.34" width="43.7" height="4.88"/><rect class="cls-8" x="164.84" y="132.35" width="11.23" height="33.98"/><rect class="cls-19" x="165.64" y="133.22" width="9.66" height="32.27"/><line class="cls-20" x1="165.71" y1="134.22" x2="175.21" y2="134.22"/><line class="cls-20" x1="165.71" y1="135.39" x2="175.21" y2="135.39"/><line class="cls-20" x1="165.71" y1="136.55" x2="175.21" y2="136.55"/><line class="cls-20" x1="165.71" y1="137.71" x2="175.21" y2="137.71"/><line class="cls-20" x1="165.71" y1="138.87" x2="175.21" y2="138.87"/><line class="cls-20" x1="165.71" y1="140.03" x2="175.21" y2="140.03"/><line class="cls-20" x1="165.71" y1="141.19" x2="175.21" y2="141.19"/><line class="cls-20" x1="165.71" y1="142.35" x2="175.21" y2="142.35"/><line class="cls-20" x1="165.71" y1="143.51" x2="175.21" y2="143.51"/><line class="cls-20" x1="165.71" y1="144.68" x2="175.21" y2="144.68"/><line class="cls-20" x1="165.71" y1="145.84" x2="175.21" y2="145.84"/><line class="cls-20" x1="165.71" y1="147" x2="175.21" y2="147"/><line class="cls-20" x1="165.71" y1="148.16" x2="175.21" y2="148.16"/><line class="cls-20" x1="165.71" y1="149.32" x2="175.21" y2="149.32"/><line class="cls-20" x1="165.71" y1="150.48" x2="175.21" y2="150.48"/><line class="cls-20" x1="165.71" y1="151.64" x2="175.21" y2="151.64"/><line class="cls-20" x1="165.71" y1="152.8" x2="175.21" y2="152.8"/><line class="cls-20" x1="165.71" y1="153.96" x2="175.21" y2="153.96"/><line class="cls-20" x1="165.71" y1="155.13" x2="175.21" y2="155.13"/><line class="cls-20" x1="165.71" y1="156.29" x2="175.21" y2="156.29"/><line class="cls-20" x1="165.71" y1="157.45" x2="175.21" y2="157.45"/><line class="cls-20" x1="165.71" y1="158.61" x2="175.21" y2="158.61"/><line class="cls-20" x1="165.71" y1="159.77" x2="175.21" y2="159.77"/><line class="cls-20" x1="165.71" y1="160.93" x2="175.21" y2="160.93"/><line class="cls-20" x1="165.71" y1="162.09" x2="175.21" y2="162.09"/><line class="cls-20" x1="165.71" y1="163.25" x2="175.21" y2="163.25"/><line class="cls-20" x1="165.71" y1="164.42" x2="175.21" y2="164.42"/><rect class="cls-8" x="113.31" y="132.19" width="11.23" height="33.98"/><rect class="cls-19" x="114.11" y="133.05" width="9.66" height="32.27"/><line class="cls-20" x1="114.17" y1="134.06" x2="123.68" y2="134.06"/><line class="cls-20" x1="114.17" y1="135.22" x2="123.68" y2="135.22"/><line class="cls-20" x1="114.17" y1="136.38" x2="123.68" y2="136.38"/><line class="cls-20" x1="114.17" y1="137.54" x2="123.68" y2="137.54"/><line class="cls-20" x1="114.17" y1="138.7" x2="123.68" y2="138.7"/><line class="cls-20" x1="114.17" y1="139.86" x2="123.68" y2="139.86"/><line class="cls-20" x1="114.17" y1="141.03" x2="123.68" y2="141.03"/><line class="cls-20" x1="114.17" y1="142.19" x2="123.68" y2="142.19"/><line class="cls-20" x1="114.17" y1="143.35" x2="123.68" y2="143.35"/><line class="cls-20" x1="114.17" y1="144.51" x2="123.68" y2="144.51"/><line class="cls-20" x1="114.17" y1="145.67" x2="123.68" y2="145.67"/><line class="cls-20" x1="114.17" y1="146.83" x2="123.68" y2="146.83"/><line class="cls-20" x1="114.17" y1="147.99" x2="123.68" y2="147.99"/><line class="cls-20" x1="114.17" y1="149.15" x2="123.68" y2="149.15"/><line class="cls-20" x1="114.17" y1="150.31" x2="123.68" y2="150.31"/><line class="cls-20" x1="114.17" y1="151.48" x2="123.68" y2="151.48"/><line class="cls-20" x1="114.17" y1="152.64" x2="123.68" y2="152.64"/><line class="cls-20" x1="114.17" y1="153.8" x2="123.68" y2="153.8"/><line class="cls-20" x1="114.17" y1="154.96" x2="123.68" y2="154.96"/><line class="cls-20" x1="114.17" y1="156.12" x2="123.68" y2="156.12"/><line class="cls-20" x1="114.17" y1="157.28" x2="123.68" y2="157.28"/><line class="cls-20" x1="114.17" y1="158.44" x2="123.68" y2="158.44"/><line class="cls-20" x1="114.17" y1="159.6" x2="123.68" y2="159.6"/><line class="cls-20" x1="114.17" y1="160.77" x2="123.68" y2="160.77"/><line class="cls-20" x1="114.17" y1="161.93" x2="123.68" y2="161.93"/><line class="cls-20" x1="114.17" y1="163.09" x2="123.68" y2="163.09"/><line class="cls-20" x1="114.17" y1="164.25" x2="123.68" y2="164.25"/><rect class="cls-7" x="68.03" y="127.59" width="36.74" height="66.53"/><rect class="cls-8" x="69.43" y="128.98" width="34.09" height="64.85"/><rect class="cls-10" x="71.63" y="131.21" width="30.29" height="4.31"/><g class="cls-21"><polygon class="cls-10" points="101.91 131.21 101.91 131.95 72.38 131.95 72.38 135.52 71.63 135.52 71.63 131.21 101.91 131.21"/></g><rect class="cls-22" x="72.72" y="138" width="12.41" height="22.09"/><rect class="cls-23" x="73.94" y="139.05" width="9.97" height="19.67"/><rect class="cls-22" x="72.83" y="161.41" width="12.33" height="7.78"/><rect class="cls-23" x="73.88" y="162.08" width="10.22" height="6.45"/><rect class="cls-22" x="88.28" y="161.41" width="12.33" height="7.78"/><rect class="cls-23" x="89.33" y="162.08" width="10.22" height="6.45"/><rect class="cls-22" x="88.2" y="138" width="12.41" height="22.09"/><rect class="cls-23" x="89.5" y="139.05" width="9.97" height="19.67"/><rect class="cls-22" x="72.72" y="170.52" width="12.41" height="16.88"/><rect class="cls-23" x="73.94" y="171.32" width="9.97" height="15.03"/><rect class="cls-22" x="88.2" y="170.52" width="12.41" height="16.88"/><rect class="cls-23" x="89.5" y="171.32" width="9.97" height="15.03"/><rect class="cls-7" x="66.48" y="126.08" width="39.79" height="1.84"/><rect class="cls-7" x="54.57" y="190.94" width="132.28" height="3.31"/><rect class="cls-8" x="51.14" y="70.77" width="138.52" height="3.56"/><path class="cls-22" d="M188.34,70.89s-136-.23-136,.12l.21-.33.09-.15,1.13-1.83.09-.16L55,66.71l.09-.15,1.12-1.83.1-.15,1.13-1.83.1-.16,1.12-1.83.1-.15,1.13-1.83.1-.15,1.12-1.83.09-.15,1.13-1.83.1-.16,1.12-1.83.1-.15,1.13-1.83.1-.15L66,48.87l.1-.16L67.13,47l.1-.16,1-1.56H173.44l.91,1.56.09.16,1,1.74.09.16,1.06,1.83.09.15,1.07,1.83.09.15,1.06,1.83.08.16,1.07,1.83.09.15,1.06,1.83.09.15,1.07,1.83.09.15,1,1.83.09.16,1.07,1.83.09.15,1.06,1.83.09.15L187,68.54l.08.16,1.06,1.83.09.15Z"/><polygon class="cls-8" points="174.44 46.97 67.13 46.97 67.23 46.81 174.35 46.81 174.44 46.97"/><polygon class="cls-8" points="175.54 48.87 65.97 48.87 66.06 48.71 175.46 48.71 175.54 48.87"/><polygon class="cls-8" points="176.69 50.85 64.74 50.85 64.84 50.7 176.6 50.7 176.69 50.85"/><polygon class="cls-8" points="177.85 52.83 63.51 52.83 63.61 52.68 177.76 52.68 177.85 52.83"/><polygon class="cls-8" points="178.99 54.82 62.29 54.82 62.39 54.66 178.91 54.66 178.99 54.82"/><polygon class="cls-8" points="180.15 56.8 61.07 56.8 61.16 56.65 180.06 56.65 180.15 56.8"/><polygon class="cls-8" points="181.3 58.78 59.85 58.78 59.95 58.63 181.21 58.63 181.3 58.78"/><polygon class="cls-8" points="182.46 60.76 58.62 60.76 58.72 60.61 182.37 60.61 182.46 60.76"/><polygon class="cls-8" points="183.6 62.74 57.4 62.74 57.5 62.59 183.51 62.59 183.6 62.74"/><polygon class="cls-8" points="184.76 64.73 56.17 64.73 56.27 64.58 184.67 64.58 184.76 64.73"/><polygon class="cls-8" points="185.91 66.71 54.96 66.71 55.05 66.56 185.82 66.56 185.91 66.71"/><polygon class="cls-8" points="187.06 68.69 53.73 68.69 53.82 68.54 186.98 68.54 187.06 68.69"/><polygon class="cls-8" points="188.21 70.68 52.51 70.68 52.59 70.53 188.12 70.53 188.21 70.68"/><path class="cls-24" d="M68.86,172.59a42.06,42.06,0,0,1,7.71-13,4.92,4.92,0,0,1,1.5-1.23,1.82,1.82,0,0,1,1.86.12,1.88,1.88,0,0,1,.45,2,5.75,5.75,0,0,1-1.16,1.82,5,5,0,0,0-1.1,1.86,6,6,0,0,0,.42,3.05,3.69,3.69,0,0,1-.06,3c-.71,1.13-2.44,1.45-2.85,2.72s.91,2.59,1,4a3.27,3.27,0,0,1-1.48,2.75,14.2,14.2,0,0,1-2.93,1.43,19.68,19.68,0,0,0-4,2.36c-1.2.91-2.28,2.38-3.49,3.17a27.23,27.23,0,0,1,.73-3.17c.33-1.23.67-2.46,1-3.68C67.16,177.34,67.94,174.94,68.86,172.59Z"/><path class="cls-25" d="M63.41,191.24a72.2,72.2,0,0,1,2.41-7.74"/><path class="cls-24" d="M58.31,171A49.86,49.86,0,0,0,50.2,155a5.58,5.58,0,0,0-1.68-1.57,2.14,2.14,0,0,0-2.2,0,2.2,2.2,0,0,0-.68,2.32A6.73,6.73,0,0,0,46.87,158,6,6,0,0,1,48,160.29a7,7,0,0,1-.73,3.56,4.36,4.36,0,0,0-.16,3.56c.76,1.39,2.78,1.89,3.16,3.42s-1.27,3-1.51,4.63a3.89,3.89,0,0,0,1.55,3.36,17.2,17.2,0,0,0,3.34,1.91,22.89,22.89,0,0,1,4.59,3.08c1.35,1.16,2.51,3,3.87,4a30.91,30.91,0,0,0-.62-3.79c-.29-1.48-.6-3-.93-4.42C60,176.69,59.21,173.8,58.31,171Z"/><path class="cls-26" d="M63.33,193.35a87.48,87.48,0,0,0-2.26-9.3"/><path class="cls-27" d="M46.83,196h65.08a40.26,40.26,0,0,0-17.84-22.75,17.49,17.49,0,0,0-6.19-2.47,8.35,8.35,0,0,0-6.36,1.4c-2.31,1.79-3.18,5-2.91,7.89a26.33,26.33,0,0,0,2.7,8.3c-1.47-1.73-2.25-3.08-4.07-4.45A10.62,10.62,0,0,0,71,181.54a6.47,6.47,0,0,0-5.68,3.18c-1.23,2.35-.54,5.2.19,7.75a17.07,17.07,0,0,0-7.61-4.37c-3.11-.79-6.72-.22-8.92,2.1A8.15,8.15,0,0,0,46.83,196Z"/><path class="cls-28" d="M191.42,194.94H135a34.92,34.92,0,0,1,15.46-19.73,15.13,15.13,0,0,1,5.37-2.14,7.26,7.26,0,0,1,5.52,1.21,7.75,7.75,0,0,1,2.52,6.84,23,23,0,0,1-2.34,7.2,20.91,20.91,0,0,1,3.53-3.86,9.14,9.14,0,0,1,5.44-2,5.57,5.57,0,0,1,4.92,2.75c1.07,2,.47,4.51-.16,6.72a14.78,14.78,0,0,1,6.6-3.79,8,8,0,0,1,7.74,1.82A7.07,7.07,0,0,1,191.42,194.94Z"/><path class="cls-22" d="M163.17,194.91h-32.1a12.08,12.08,0,0,1,20-4.43c.53.55.92,1.13,1.44,1.7,1.31-2,4.42-2.63,6.69-2A5.76,5.76,0,0,1,163.17,194.91Z"/><path class="cls-28" d="M171,131.61l-3.19-10.41h0a11.73,11.73,0,0,0-.34-2.16c-.23-.7-1.77-3.35-2.12-4.28s-.91-2.65-1.46-2.45.64,3.73.64,3.73-.64-.23-.93,0-.23.82-.23.82a1.88,1.88,0,0,0-.76.43c-.21.27,0,1.2,0,1.2a4.72,4.72,0,0,0-.35,1c-.09.44.58.7,1.45,1.23s2,1.36,2,1.36,1.32,9.41,1.78,13a58.79,58.79,0,0,0,1.87,8.08l4.74-4.58Z"/><path class="cls-27" d="M185.84,224.08c-.06,1.29-2.39,2.47-3.15,2.78-.93.39-2.25,1.09-3.8,1.83a2.44,2.44,0,0,1-3.11-.89,1,1,0,0,1,0-.19h0a1.11,1.11,0,0,1,0-.17c.05-.48.21-1.29.38-2.09l0-.13c.23-1.08.47-2.08.47-2.08l3.93-.54.8.1.24,0,.71.09.23,0,1,.12.29,0h0l1.19.14a.82.82,0,0,1,.65.45.92.92,0,0,1,.08.27A.93.93,0,0,1,185.84,224.08Z"/><path class="cls-22" d="M185.84,224.08a1.87,1.87,0,0,1-.2.29,3.85,3.85,0,0,1-.93.73,31.91,31.91,0,0,1-5.12,2.85,5.39,5.39,0,0,1-2,.48h-.27a2.33,2.33,0,0,1-1.57-.81h0a1.11,1.11,0,0,1,0-.17,2.12,2.12,0,0,0,1.57.87,3.35,3.35,0,0,0,1.18-.12l.12,0a7.77,7.77,0,0,0,.89-.32,32.86,32.86,0,0,0,5.1-2.83l.17-.11a3.54,3.54,0,0,0,.73-.6,1.32,1.32,0,0,0,.27-.45A.93.93,0,0,1,185.84,224.08Z"/><path class="cls-22" d="M178.66,228.22h-.11a.08.08,0,0,0,0,0,5.53,5.53,0,0,0-.26-1.66,2,2,0,0,0-1.1-1.23,1.31,1.31,0,0,0-1,.05l0-.13a1.43,1.43,0,0,1,1,0,2.14,2.14,0,0,1,1.17,1.3,6,6,0,0,1,.27,1.68Z"/><path class="cls-22" d="M184.82,224.9h-.12a2,2,0,0,0-.45-1.44,2.06,2.06,0,0,0-.64-.5l.29,0h0a2,2,0,0,1,.43.39A2.15,2.15,0,0,1,184.82,224.9Z"/><path class="cls-22" d="M182.57,224.15a.06.06,0,0,1,0,.07h0s-.06,0-.06,0a2.29,2.29,0,0,0-1.06-1.49l.24,0A2.4,2.4,0,0,1,182.57,224.15Z"/><path class="cls-22" d="M183.39,223.92h0a.05.05,0,0,1-.05,0,3,3,0,0,0-1-1.1l.23,0a3,3,0,0,1,.83,1A.07.07,0,0,1,183.39,223.92Z"/><path class="cls-27" d="M191.14,226.77c0,1.28-2.39,2.46-3.14,2.78-.93.38-2.25,1.08-3.81,1.82a2.44,2.44,0,0,1-3.11-.89.59.59,0,0,1,0-.19h0a1.21,1.21,0,0,1,0-.18c0-.48.21-1.29.38-2.08l0-.14c.23-1.07.47-2.07.47-2.07l3.93-.55.8.1.25,0,.7.08.23,0,1,.12.29,0h0l1.19.14a.82.82,0,0,1,.64.45.92.92,0,0,1,.08.27A.65.65,0,0,1,191.14,226.77Z"/><path class="cls-22" d="M191.14,226.77a1.31,1.31,0,0,1-.2.28,3.85,3.85,0,0,1-.93.73,32.25,32.25,0,0,1-5.11,2.85,5.39,5.39,0,0,1-2,.48h-.27a2.29,2.29,0,0,1-1.57-.81h0a1.21,1.21,0,0,1,0-.18,2.14,2.14,0,0,0,1.57.87,3.42,3.42,0,0,0,1.19-.11l.11,0a7.3,7.3,0,0,0,.9-.32,33.23,33.23,0,0,0,5.09-2.83l.17-.11a3.54,3.54,0,0,0,.73-.6,1.18,1.18,0,0,0,.27-.45A.65.65,0,0,1,191.14,226.77Z"/><path class="cls-22" d="M184,230.9h-.12v0a5.56,5.56,0,0,0-.27-1.67,1.91,1.91,0,0,0-1.09-1.22,1.24,1.24,0,0,0-1,.05l0-.14a1.38,1.38,0,0,1,1,0,2.1,2.1,0,0,1,1.17,1.29,5.68,5.68,0,0,1,.27,1.68A.13.13,0,0,1,184,230.9Z"/><path class="cls-22" d="M190.12,227.58H190a2,2,0,0,0-.46-1.44,2.06,2.06,0,0,0-.64-.5l.29,0h0a2.27,2.27,0,0,1,.43.39A2.14,2.14,0,0,1,190.12,227.58Z"/><path class="cls-22" d="M187.87,226.83a.05.05,0,0,1,0,.07h0a.07.07,0,0,1-.06,0,2.26,2.26,0,0,0-1.06-1.49l.25,0A2.34,2.34,0,0,1,187.87,226.83Z"/><path class="cls-22" d="M188.69,226.6h0a.05.05,0,0,1,0,0,2.91,2.91,0,0,0-1-1.1l.23,0a3,3,0,0,1,.83,1S188.72,226.59,188.69,226.6Z"/><path class="cls-28" d="M194.27,161.53s-1.09,8.56-1.71,10.89l-2.48-5.6.62-5.68Z"/><path class="cls-29" d="M196.06,161.69,195.9,156a27.74,27.74,0,0,0-2.79-10.72,2.81,2.81,0,0,0-1.81-1.46,16.52,16.52,0,0,0-6-2.58s-3.66.62-5.52-.16a50.57,50.57,0,0,1-6.14-3.8l-5.56,5.16c1.4,3.31,4.24,7,4.86,8.12s2.64,14.85,2.64,14.85l15.31,1,.32-4.74Z"/><path class="cls-30" d="M191.44,153.64s0,6.41-.12,8-.39,4.78-.39,4.78"/><path class="cls-30" d="M191.4,160.58a19.71,19.71,0,0,0,4.73-.09"/><path class="cls-30" d="M173.21,149c.18,1.69.19,2.2.29,3.85"/><path class="cls-30" d="M168.75,144c2.08-2,4-3.89,5.92-6"/><path class="cls-22" d="M190.93,196.3s-.35,4.44-1.16,10.73-3.15,18.65-3.15,18.65l-4.78.35-.11-2.8v-.11h-.11l-5.25.45c-1.28-10.49,2.1-25.76,2.1-25.76s-6.06-12.71-6.3-18.88v-.07a1.62,1.62,0,0,1,0-.22,24.8,24.8,0,0,1,1.3-7.69l.06-.2a43.24,43.24,0,0,1,1.55-4.07,1.67,1.67,0,0,0,.08-.2h0c.27-.61.45-1,.46-1.08l15.31,1a88.33,88.33,0,0,1,2.33,8.54C194.31,179.75,190.93,196.3,190.93,196.3Z"/><path class="cls-8" d="M181.72,223.23h0a.11.11,0,0,1-.11-.12c0-.08.35-8.17.5-12.08a104.42,104.42,0,0,0-.31-11.64c-.22-2.64-1-15-1.08-15.68l-1.7-2.93a.11.11,0,0,1,0-.15.12.12,0,0,1,.16,0l1.71,3a.09.09,0,0,1,0,0c0,.13.86,13,1.09,15.7a107.38,107.38,0,0,1,.31,11.67c-.15,3.91-.5,12-.5,12.08A.13.13,0,0,1,181.72,223.23Z"/><path class="cls-8" d="M179.06,179.52a.13.13,0,0,1-.12-.11,24.14,24.14,0,0,1,1.5-11.1.12.12,0,0,1,.15-.07.11.11,0,0,1,.06.15,23.86,23.86,0,0,0-1.48,11,.12.12,0,0,1-.1.13Z"/><path class="cls-8" d="M188.21,168a69.46,69.46,0,0,1-13.1-1.25.12.12,0,0,1,0-.23,68.66,68.66,0,0,0,16,1.19c.06,0,.11,0,.12.11a.12.12,0,0,1-.11.12C190.18,168,189.2,168,188.21,168Z"/><path class="cls-8" d="M189.23,171.35a.12.12,0,0,0-.08,0l-6.86-.34s-.11,0-.11.1a24,24,0,0,0-.07,5.84,4.67,4.67,0,0,0,.75,2.26,2.39,2.39,0,0,0,1.94.9,3.15,3.15,0,0,0,1.79-.57,6.11,6.11,0,0,0,2-3.63c.16-.74.26-1.58.35-2.39s.15-1.4.27-2A.1.1,0,0,0,189.23,171.35Zm-.47,2.1c-.09.81-.18,1.64-.34,2.38a5.93,5.93,0,0,1-2,3.49A2.51,2.51,0,0,1,183,179a4.45,4.45,0,0,1-.7-2.14,23.42,23.42,0,0,1,.06-5.7l6.62.33C188.9,172.14,188.83,172.81,188.76,173.45Z"/><path class="cls-8" d="M177,171a.12.12,0,0,0-.08,0l-3.43-.17-.06.2,3.36.17c-.1.56-.16,1.18-.23,1.78a21.18,21.18,0,0,1-.31,2.18,5.45,5.45,0,0,1-1.81,3.21,2.48,2.48,0,0,1-2.31.35,1.62,1.62,0,0,0,0,.22,2.28,2.28,0,0,0,.78.13,2.89,2.89,0,0,0,1.65-.53,5.61,5.61,0,0,0,1.88-3.34,21.35,21.35,0,0,0,.32-2.21c.07-.63.14-1.28.25-1.87A.11.11,0,0,0,177,171Z"/><path class="cls-8" d="M190.79,150.8a1.59,1.59,0,0,1-1.5,1.15,3.81,3.81,0,0,1-1.33-.2,33.56,33.56,0,0,0-.42-5.92,15.23,15.23,0,0,1-1,5.46,2.9,2.9,0,0,0-1.17,0c-.9.17-1.68.93-2.58.79a4.06,4.06,0,0,1-1.33-.63,2.4,2.4,0,0,0-.77-.28,27.2,27.2,0,0,1-.43-3.6,15.78,15.78,0,0,0-.41,3.81,4.26,4.26,0,0,1-1.55.42,1.72,1.72,0,0,1-1.63-.85,4.35,4.35,0,0,1-.19-1.4c-.13-1.43-1.19-2.65-1.33-4.08-.21-2.12,1.59-3.86,2.4-5.84,1.14-2.77.3-6,1.07-8.88a8.35,8.35,0,0,1,6.29-5.91c2.32-.47,4.85,1.22,5.89,3.34,1.14,2.31.7,5.08,1.45,7.54a27.45,27.45,0,0,1,1.14,5.66C193.62,144.7,191.39,147.47,190.79,150.8Z"/><path class="cls-31" d="M190.79,150.8a1.59,1.59,0,0,1-1.5,1.15,3.81,3.81,0,0,1-1.33-.2,33.56,33.56,0,0,0-.42-5.92,15.23,15.23,0,0,1-1,5.46,2.9,2.9,0,0,0-1.17,0c-.9.17-1.68.93-2.58.79a4.06,4.06,0,0,1-1.33-.63,2.4,2.4,0,0,0-.77-.28,27.2,27.2,0,0,1-.43-3.6,15.78,15.78,0,0,0-.41,3.81,4.26,4.26,0,0,1-1.55.42,1.72,1.72,0,0,1-1.63-.85,4.35,4.35,0,0,1-.19-1.4c-.13-1.43-1.19-2.65-1.33-4.08-.21-2.12,1.59-3.86,2.4-5.84,1.14-2.77.3-6,1.07-8.88a8.35,8.35,0,0,1,6.29-5.91c2.32-.47,4.85,1.22,5.89,3.34,1.14,2.31.7,5.08,1.45,7.54a27.45,27.45,0,0,1,1.14,5.66C193.62,144.7,191.39,147.47,190.79,150.8Z"/><path class="cls-28" d="M186,141.23l-5.59,5.25-2.36-9.13a2.21,2.21,0,0,0-2.77.6s-.91,7.11-.57,10.22c.31,2.91,2.68,7.19,6.76,5.42a16.79,16.79,0,0,0,4.37-2.28,18.74,18.74,0,0,0,4.46-4.44Z"/><path class="cls-30" d="M180.51,146.34a11,11,0,0,0-1.59,3"/><path class="cls-28" d="M195.1,122.91a3.7,3.7,0,0,0,1.26,3.11,1.75,1.75,0,0,0,.68.4.91.91,0,0,0,.76-.1c.86-.61.09-2.49-.36-3.17S195.23,121.48,195.1,122.91Z"/><path class="cls-28" d="M207.59,126.39a.46.46,0,0,0,.16.07,1,1,0,0,0,.61,0,2,2,0,0,0,.67-.41,3.73,3.73,0,0,0,1.21-3.14c-.1-.88-.8-.85-1.42-.52a2.45,2.45,0,0,0-.92.8C207.46,123.9,206.73,125.8,207.59,126.39Z"/><path class="cls-28" d="M198.88,126.84l.05,1.83.07,2.76v.26s.93.79,4.14.74a6.49,6.49,0,0,0,3.74-1.05,2.72,2.72,0,0,0,.58-.52c0-.18,0-.41-.05-.68,0-.73-.06-1.72-.07-2.47s0-1.14,0-1.14l-1.27,0Z"/><path class="cls-8" d="M196.2,122.35l.15.35c.52,1.16.77,2.44,1.18,3.62a5.66,5.66,0,0,0,1.4,2.35l.1.09a5.64,5.64,0,0,0,6.33.92l.24-.14a6.11,6.11,0,0,0,1.75-1.83c.16-.26.3-.52.43-.78.05-.09.09-.18.13-.27.48-1.06.78-2.31,1.16-3.38.07-.19.14-.39.2-.58a16.87,16.87,0,0,0,.78-4.11,1.63,1.63,0,0,0-.31-1.3c-.31-.31-.82-.34-1.17-.61-.61-.47-.52-1.41-.86-2.1a2,2,0,0,0-1.08-.93,3,3,0,0,0-1.09-.26c-.86-.06-1.72.11-2.59.09a11.58,11.58,0,0,0-3.37-.09,5.7,5.7,0,0,0-2.73,2.35,7.14,7.14,0,0,0-1.41,2.52A6.61,6.61,0,0,0,196.2,122.35Z"/><path class="cls-28" d="M215.64,151.66s1.34,9.21,1.46,10.9.35,7.58.35,7.58l2.56.93a74.47,74.47,0,0,0,1.58-10.9,48.18,48.18,0,0,0-.56-10Z"/><path class="cls-28" d="M217.45,170.14a6.8,6.8,0,0,0-1.11,3.63c.08,1.9-.11,4,.31,3.81s.66-3.07,1.36-4,2-2.47,2-2.47Z"/><path class="cls-28" d="M220,171.07s.68,4.91.33,6.12-2,4.31-2.52,4.16-1-1.44-.62-2.18a25.64,25.64,0,0,0,.89-2.68l-.85-3.23Z"/><path class="cls-32" d="M209.26,228.8a3.22,3.22,0,0,1,0,.48.83.83,0,0,0,0,.15,1,1,0,0,1-.67.74c-1.54,1-3.43-.5-4-.94a13.23,13.23,0,0,0-4.43-1.57c-1.7-.32-2.57-1.21-2.62-2.32a3,3,0,0,1,0-.42l0-.2A2.37,2.37,0,0,1,200,223c.2,0,.59,0,1.06,0h.21l1.26,0h.13l1.28.05H204l.7,0s4-.06,4.08.06.19,1.5.3,2.94v.13h0C209.21,227.29,209.27,228.29,209.26,228.8Z"/><path class="cls-28" d="M204.71,221.77l-.14,1.83c0,.19.64.87.76.94a2.43,2.43,0,0,0,3.52-1l-.29-2.36Z"/><path class="cls-22" d="M209.21,229.28a.83.83,0,0,0,0,.15,2.8,2.8,0,0,1-1.23.31h-.08a4.83,4.83,0,0,1-2.06-.54c-.39-.18-.77-.39-1.13-.6l-.8-.44a12.25,12.25,0,0,0-3.31-1.14l-.34-.06a8,8,0,0,1-1.42-.35h0a2.47,2.47,0,0,1-.9-.59,2,2,0,0,1-.4-.67,3,3,0,0,1,0-.42,1.91,1.91,0,0,0,.46,1,2.36,2.36,0,0,0,.84.55l.11,0a8.32,8.32,0,0,0,1.35.33l.34.06a12.36,12.36,0,0,1,3.34,1.15l.8.44c.37.21.74.42,1.13.6l.34.15.11,0a4.15,4.15,0,0,0,1.63.33A2.71,2.71,0,0,0,209.21,229.28Z"/><path class="cls-22" d="M201.24,223a5.24,5.24,0,0,0-2.35,3.51.34.34,0,0,0,0,.1h-.12s0-.08,0-.12A5.35,5.35,0,0,1,201,223h.21Z"/><path class="cls-22" d="M209.13,226.27a1.88,1.88,0,0,0-2.15.7,4.28,4.28,0,0,0-.68,2.32v0h-.11v-.07a4.3,4.3,0,0,1,.7-2.35,2,2,0,0,1,2.23-.76Z"/><path class="cls-22" d="M202.63,223.06a3.07,3.07,0,0,0-.62,1.75.06.06,0,0,1,0,.06h0a.07.07,0,0,1,0-.06,3.18,3.18,0,0,1,.6-1.76Z"/><path class="cls-22" d="M204,223.12a3.17,3.17,0,0,0-.57,1.69.06.06,0,0,1-.06.06h0s-.06,0-.06-.06a3.31,3.31,0,0,1,.56-1.7Z"/><path class="cls-32" d="M219,223.3h0a.75.75,0,0,1,0,.15,10.85,10.85,0,0,1,0,1.27h0c0,.06,0,.11,0,.16a1.32,1.32,0,0,1-.34.82,1.55,1.55,0,0,1-.95.31,4.91,4.91,0,0,1-1.38-.06,2.22,2.22,0,0,1-1.2-.67c-.51-.59-.57-1.5-1.17-2-.36-.31-.87-.41-1.26-.69a2,2,0,0,1-.76-1.84,2.33,2.33,0,0,1,.05-.28c0-.06,0-.11,0-.16a2.74,2.74,0,0,1,.72-1.11,1.08,1.08,0,0,1,1-.42c.54.07,1.08.12,1.61.21s1,.2,1.57.33l.77.21c.1,0,.72.16.74.24A11.87,11.87,0,0,1,219,223.3Z"/><path class="cls-22" d="M219,224.72h0c0,.06,0,.11,0,.16a2.64,2.64,0,0,1-1.62.57h-.08a2.65,2.65,0,0,1-2.06-1.14l-.23-.4a2.45,2.45,0,0,0-.53-.73,2.53,2.53,0,0,0-.72-.35c-.13-.05-.27-.1-.39-.16a2.5,2.5,0,0,1-1.3-1.39,2.65,2.65,0,0,1-.13-.54,2.33,2.33,0,0,1,.05-.28c0-.06,0-.11,0-.16a2.29,2.29,0,0,0,.11.86l0,.08s0,0,0,0a2.39,2.39,0,0,0,1.22,1.28,2.5,2.5,0,0,0,.38.15,2.65,2.65,0,0,1,.75.38,2.35,2.35,0,0,1,.56.76c.07.13.15.26.23.38a2,2,0,0,0,.29.35l.09.09h0a2.38,2.38,0,0,0,1.57.65A2.52,2.52,0,0,0,219,224.72Z"/><path class="cls-22" d="M219,223.3h0a.75.75,0,0,1,0,.15,2,2,0,0,0-1.34-.55h0a2,2,0,0,0-2,1.78h-.11s0,0,0-.08a2.24,2.24,0,0,1,.68-1.26,2.13,2.13,0,0,1,1.4-.54h0A2.07,2.07,0,0,1,219,223.3Z"/><path class="cls-22" d="M212.14,221.29l-.1-.06a3.88,3.88,0,0,1,3.33-1.94h0v.11h0A3.81,3.81,0,0,0,212.14,221.29Z"/><path class="cls-28" d="M214.33,218.2l-.14,1.82c0,.76,1,1.13,1.63,1.23a2.48,2.48,0,0,0,1.58-.28c.33-.19,1-.75,1-1.2l-.23-2.15Z"/><path class="cls-22" d="M218.86,219.53c-2,1.63-5.46.47-5.46.47s-.93-7-1.16-8.59-1.63-10.22-2.21-13.82l-2.4-14.9s-.73,19.43-.73,20.82,2.55,18.35,2.55,18.35c-1.62,1.85-5.8,1-5.8,1s-3.25-12.77-3.84-15.21-1.39-7.43-2.55-13.47-3.71-23.44-3.71-23.44l22.63-.82s.06.51.14,1.37l0,.19c.09.89.2,2.1.32,3.5,0,.29.05.59.07.89a104.74,104.74,0,0,1,.38,12.05c-.35,6.73.46,7.77,1.39,14.63S218.86,219.53,218.86,219.53Z"/><path class="cls-33" d="M207.94,177.9s-.38,4.56-.38,7.35-.78,15.4-.62,17.95,2.51,18.66,2.51,18.66"/><path class="cls-8" d="M205.43,171.91a.12.12,0,0,0-.12-.1l-8.06.29a.09.09,0,0,0-.08,0,.1.1,0,0,0,0,.09c.12.66.18,1.36.24,2a19.37,19.37,0,0,0,.26,2.18,6.18,6.18,0,0,0,1.94,3.66,3.69,3.69,0,0,0,2.28.82,2.75,2.75,0,0,0,1.69-.56,4.51,4.51,0,0,0,1.29-2.17A15.85,15.85,0,0,0,205.43,171.91Zm-.8,6.21a4.13,4.13,0,0,1-1.21,2.07,3.1,3.1,0,0,1-3.69-.26,5.87,5.87,0,0,1-1.85-3.53,18.85,18.85,0,0,1-.27-2.15c-.05-.64-.11-1.31-.21-1.93l7.81-.28A15.35,15.35,0,0,1,204.63,178.12Z"/><path class="cls-8" d="M216.67,175a10.6,10.6,0,0,1-.39,1.91,3.7,3.7,0,0,1-1,1.87,2.73,2.73,0,0,1-3.28-.14,5.32,5.32,0,0,1-1.74-3.09,16.89,16.89,0,0,1-.28-1.91c-.07-.57-.13-1.16-.25-1.71l6.65-.43,0-.19-6.75.42-.07,0a.15.15,0,0,0,0,.09,17.74,17.74,0,0,1,.27,1.8,14.94,14.94,0,0,0,.29,1.93,5.4,5.4,0,0,0,1.81,3.21,3.27,3.27,0,0,0,2,.68,2.43,2.43,0,0,0,1.57-.55,3.9,3.9,0,0,0,1.1-2c.1-.35.19-.71.26-1.08S216.69,175.31,216.67,175Z"/><path class="cls-24" d="M219.26,140.41a11.91,11.91,0,0,0-3.5-4.7l-.18-.13a4.53,4.53,0,0,0-.68-.38,47.73,47.73,0,0,0-7.43-4.34,63.15,63.15,0,0,0-8.49.69h-.08a17.08,17.08,0,0,0-5.17,1.5l-.1.05a2.81,2.81,0,0,0-.94.76,33.24,33.24,0,0,0-3,3.1,55.45,55.45,0,0,1-7.11,6.38l6.49,8,5-3.61h0v.07a189.89,189.89,0,0,1-.79,23.82s6.22-.31,11.58-.93a39,39,0,0,1,11.65.92s-.32-8.4-.32-12.91c0-2-.25-3.86-.12-6.58l5.25-.82S221.3,144.84,219.26,140.41Z"/><path class="cls-8" d="M215.64,151.72h0a.05.05,0,0,1,0-.06,33.11,33.11,0,0,1,1.28-7.47.06.06,0,0,1,.11,0,33.58,33.58,0,0,0-1.28,7.44A.06.06,0,0,1,215.64,151.72Z"/><path class="cls-8" d="M215.76,150.49h0a.07.07,0,0,1,0-.07,14.35,14.35,0,0,1,1.23-3,.05.05,0,0,1,.08,0,0,0,0,0,1,0,.07,14.37,14.37,0,0,0-1.22,3S215.78,150.49,215.76,150.49Z"/><path class="cls-8" d="M216.79,140.59a.06.06,0,0,1-.06.06.06.06,0,0,1,0-.06,11.4,11.4,0,0,0-1-4.7c-.05-.1-.09-.21-.14-.31l.18.13c.06.13.12.26.17.39A11.18,11.18,0,0,1,216.79,140.59Z"/><path class="cls-8" d="M196,141.81a.06.06,0,0,1-.05.06h0a0,0,0,0,1-.05-.05q-.06-.85-.18-1.71a24.3,24.3,0,0,0-.9-3.93,23.88,23.88,0,0,0-1.16-3l-.05-.09.1-.05a.41.41,0,0,1,.05.09,21.36,21.36,0,0,1,.82,2,24.25,24.25,0,0,1,1.37,6Z"/><path class="cls-8" d="M189.09,151.4a.06.06,0,0,1,0-.1l3.47-2.66L196,146a.07.07,0,0,1,.09,0,.06.06,0,0,1,0,.08l-3.49,2.68-3.47,2.66Z"/><path class="cls-8" d="M195.71,148h0a9.91,9.91,0,0,0-1.8-.19.06.06,0,0,1,0-.12h0a10.14,10.14,0,0,1,1.82.2,0,0,0,0,1,0,.06A.05.05,0,0,1,195.71,148Z"/><path class="cls-8" d="M202.71,132.72a7.24,7.24,0,0,1-3.79-1.07.06.06,0,0,1,0-.08.05.05,0,0,1,.08,0,7.11,7.11,0,0,0,8.36-.67.06.06,0,0,1,.07.09,7.27,7.27,0,0,1-4.13,1.73Z"/><path class="cls-8" d="M195,171.57h0a.06.06,0,0,1-.06-.06l.07-23.65a.06.06,0,0,1,.06-.06h0s.05,0,.05.06L195,171.51A.06.06,0,0,1,195,171.57Z"/></g></g></svg>