<svg id="Layer_1" data-name="Layer 1" xmlns="http://www.w3.org/2000/svg" xmlns:xlink="http://www.w3.org/1999/xlink" viewBox="0 0 250 250"><defs><style>.cls-1,.cls-13,.cls-6{fill:none;}.cls-2{fill:#f9320b;opacity:0.1;}.cls-3{fill:#3b0f37;}.cls-4{clip-path:url(#clip-path);}.cls-5{fill:#5864ff;}.cls-12,.cls-13,.cls-6,.cls-7{stroke:#000046;}.cls-13,.cls-6,.cls-7{stroke-linecap:round;stroke-linejoin:round;}.cls-12,.cls-6,.cls-7{stroke-width:0.5px;}.cls-12,.cls-7,.cls-9{fill:#fff;}.cls-8{fill:#000046;}.cls-10{fill:#ffcb2b;}.cls-11{fill:#c6c1d3;}.cls-12{stroke-miterlimit:10;}</style><clipPath id="clip-path"><rect class="cls-1" x="26.79" y="24.12" width="196.42" height="171.87"/></clipPath></defs><path class="cls-2" d="M19.16,195.55S-10.51,159.81,4,123C13.44,99,48.9,85.89,68.9,99c8.53,5.59,35.87.18,50.46-23,28.37-45,127.37-17.68,109.35,51.46-8.72,33.45,26.54,34.67,8.57,68.11Z"/><rect class="cls-3" y="195.02" width="250" height="0.96" rx="0.48"/><g class="cls-4"><path class="cls-5" d="M144.91,101.64s-21,6.47-30.8,55.23c-10.73,53.5-6.85,64.68-6.19,64.94s26.45,3.77,26.45,3.77Z"/><path class="cls-5" d="M161,96.3h2.34a34.43,34.43,0,0,1,34.43,34.43v89.8a0,0,0,0,1,0,0H126.54a0,0,0,0,1,0,0v-89.8A34.43,34.43,0,0,1,161,96.3Z" transform="translate(8.99 -8.7) rotate(3.16)"/><polyline class="cls-6" points="199.14 133.9 194.25 222.39 123.16 218.46 127.81 134.4"/><path class="cls-5" d="M163.09,93.52l8.2,2.61s39.55,5,56.86,58.32c13.64,42.05-18.84,68.24-30.59,73.21s-26.7-8.83-26.7-8.83l24.52-50.06L180.87,139Z"/><path class="cls-6" d="M163.09,93.52l8.2,2.61s39.55,5,56.86,58.32c13.64,42.05-18.84,68.24-30.59,73.21s-26.7-8.83-26.7-8.83l24.52-50.06L180.87,139"/><path class="cls-6" d="M149.05,102.8s9.6,11.09,26.15,2"/><polygon class="cls-7" points="150.52 105.96 160.24 102.76 174.89 108.82 171.64 96.29 167.37 91.98 155.85 93.74 153.07 97.94 150.52 105.96"/><path class="cls-8" d="M173.6,48.13c6.3,3.76,9.56,11.81,8.11,20-2,11.27-12.56,19-12.56,19l.77-19-1-.66Z"/><path class="cls-7" d="M174.39,71.26a6.66,6.66,0,0,0-3.93.92l.32-4c.5-6.26-3.58-11.75-9.08-12.19l-8.27-.67c-5.5-.45-10.41,4.31-10.92,10.57l-1,12.83C141,85,145.05,90.51,150.55,91l4.78.38s-.13,1.9-.25,3.9a4.57,4.57,0,0,0,4.22,4.83l4.33.34a4.57,4.57,0,0,0,4.9-4.11c.24-2.35.46-4.76.46-4.76l0-.43.63-7.81a3.53,3.53,0,0,0,0-.46,6.57,6.57,0,1,0,4.73-11.58Z"/><path class="cls-6" d="M170.66,78.42s.07-4.46,4.59-3.6"/><path class="cls-8" d="M175.86,53.15c-.26-.31-.54-.59-.81-.88l1.19-2.16a15.63,15.63,0,0,0-11-4.18c-20.51-9-29.9,10.39-22.83,16.39,2.08,1.76,13,3.42,17.6-.53a30,30,0,0,0,1.1,3.48c1.18,3.14,4.12,5.53,6.47,7l-2.42,8.21s-10-3.27-16.31-3.7-7.35,2-7.35,2-.61,8.6,5.72,11.22c5.36,2.22,8.14,1.35,8.14,1.35s7.09-1.25,10.71-4.64a16.2,16.2,0,0,0,3.22-3.93l1.07-10,.68-.42a5.79,5.79,0,0,1,3.31-1,7,7,0,0,1,4.11,1.81C180.55,69.66,181.53,59.88,175.86,53.15Z"/><polyline class="cls-6" points="150.64 75.92 147.5 73.63 150.78 68.95"/><line class="cls-6" x1="160.11" y1="68.98" x2="157.01" y2="67.45"/><line class="cls-6" x1="146.53" y1="66.79" x2="143.43" y2="66.99"/><path class="cls-8" d="M158.41,71.66a1.48,1.48,0,1,1-1.36-1.59A1.49,1.49,0,0,1,158.41,71.66Z"/><path class="cls-8" d="M146.08,70.27a1.26,1.26,0,1,1-1.16-1.36A1.26,1.26,0,0,1,146.08,70.27Z"/><path class="cls-9" d="M146.73,80.25a2.88,2.88,0,1,0,5.74.46Z"/><path class="cls-10" d="M84.67,113.59s13,2.67,20.42,18.7S118.63,189,123,208.54l-73,5.1,21.33-94.91Z"/><path class="cls-11" d="M117.05,173.47l29.83-35.21a.41.41,0,0,1,.2-.14l17.56-5.8a.44.44,0,0,1,.49.7l-38,46.92Z"/><path class="cls-9" d="M125.65,164.25h0c-7.14-.38-15.86,7.95-15.86,7.95-8.27,2.94-36.57,7.42-36.57,7.42l.83,18.79s42.7-7.91,47.86-10.74c4-2.17,5.69-7.17,6.35-10.49l0-.09a20.2,20.2,0,0,0,1.64-3.8h0a21.38,21.38,0,0,0,2.75-3.17c2.11-3.35,1.5-4.92,1.5-4.92a6,6,0,0,0,1.1-1.52C136.38,161,134.52,159.23,125.65,164.25Z"/><path class="cls-6" d="M128.26,177.17c-.66,3.32-2.38,8.32-6.35,10.49-5.16,2.83-47.86,10.74-47.86,10.74l-.83-18.79s28.3-4.48,36.57-7.42c0,0,8.72-8.33,15.86-7.95"/><path class="cls-6" d="M122.89,183.24a19.08,19.08,0,0,0,7-10"/><path class="cls-6" d="M121.41,174.5s12.36-7.46,13.82-10.83-1.9-5.34-18.22,6.13"/><path class="cls-6" d="M134.13,165.19s.61,1.57-1.5,4.92c-1.43,2.27-7.29,7.62-9.6,8.79"/><path class="cls-8" d="M98.6,193.56l3.92-.83-4.21-17.65-4,.8Z"/><path class="cls-11" d="M103,185.3a4.56,4.56,0,1,1-4.41-4.71A4.57,4.57,0,0,1,103,185.3Z"/><path class="cls-7" d="M101.9,185.27a3.51,3.51,0,1,1-3.39-3.62A3.51,3.51,0,0,1,101.9,185.27Z"/><polyline class="cls-6" points="97.67 183.43 97.96 185.46 100.56 185.22"/><path class="cls-10" d="M89.54,173.7,54.1,170.64l9,.75,3.52-13.13,12.75-45.51s-17.47,4.72-31.53,18.05c-9.9,9.39-17.33,23.81-19.12,40.59-2.52,23.53,11.71,34.76,24.8,36.7,18.07,2.69,39.6-7.53,39.6-7.53Z"/><path class="cls-6" d="M29.15,185.15c3,14.56,14.07,21.42,24.34,22.94,18.07,2.69,39.6-7.53,39.6-7.53L89.54,173.7,54.1,170.64"/><line class="cls-6" x1="66.59" y1="158.26" x2="63.07" y2="171.39"/><line class="cls-6" x1="81.96" y1="176.56" x2="85" y2="200.12"/><path class="cls-6" d="M97.67,121.44a6.27,6.27,0,0,1-.48,1.65c-2.94,6.46-11.4-.67-11.4-.67s-.36,9.45-8.18,8.28c-5.55-.83-10.77-6.76-7.62-14.69"/><path class="cls-8" d="M76.8,114.66c1.77-.48,2.16-2,4-1.91,2.9.22,5.67,1.82,8.57,1.47,1.78-.21,3.39-1.15,5.14-1.53,1.58-.35,3.25-.24,4.77-.76,3.13-1.07,4.87-4.69,4.55-8s-2.3-6.21-4.68-8.5a2.41,2.41,0,0,0-.63-.47,2.91,2.91,0,0,0-1-.15,11.41,11.41,0,0,1-4.69-1.61A14,14,0,0,1,88.52,90a21.2,21.2,0,0,1-2.77-5.55,20.8,20.8,0,0,0-6.3-8.75,11.58,11.58,0,0,0-10.28-2.14l-2.53-1.69c-1.73,2-3.14,4.43-5.34,6-1.07.74-2.29,1.24-3.42,1.9a13.48,13.48,0,0,0-.37,23,6.72,6.72,0,0,1,1.8,1.36c.78,1,.51,2.7.71,3.94.51,3.15,1.52,6.41,5.38,8s8.92.66,11.4-1.35"/><path class="cls-12" d="M72.14,89.56a5.68,5.68,0,0,1,3.35,1l0-3.44c-.06-5.46,3.81-10,8.61-10L91.28,77c4.8-.05,8.77,4.37,8.83,9.83l.13,11.18c.06,5.46-3.82,10-8.61,10l-4.17,0,.06,6a4.5,4.5,0,0,1-4.44,4.54l-2.86,0a4.51,4.51,0,0,1-4.54-4.45l-.08-6.8v-.38l-.08-6.81c0-.14,0-.27,0-.41a5.71,5.71,0,1,1-3.4-10.32Z"/><path class="cls-6" d="M75.32,96s.21-3.87-3.76-3.4"/><path class="cls-8" d="M85.72,90.69A1.63,1.63,0,1,0,87.32,89,1.62,1.62,0,0,0,85.72,90.69Z"/><path class="cls-8" d="M96.36,90.33a1.39,1.39,0,1,0,1.37-1.41A1.39,1.39,0,0,0,96.36,90.33Z"/><polyline class="cls-6" points="92.46 95.03 95.32 93.24 92.75 88.98"/><line class="cls-13" x1="84.67" y1="88.45" x2="87.45" y2="87.3"/><line class="cls-13" x1="96.58" y1="87.36" x2="99.25" y2="87.72"/><path class="cls-6" d="M95.59,99a2.5,2.5,0,1,1-5,.06"/><path class="cls-8" d="M102.12,75.18a21.8,21.8,0,0,0-35.48-3.3s-3.21,7.1-3.53,11c-.25,3.12,3.23,7.33,4.6,8.85a5.76,5.76,0,0,1,4.43-2.15,5.68,5.68,0,0,1,3.35,1s.44.51,1,1.2a14.93,14.93,0,0,1,1.41-.93,10.26,10.26,0,0,1,2.24-.34,5.57,5.57,0,0,0,3.4-2.88,17.55,17.55,0,0,0,2.5-8l.38,0c1.73,2.4,3.64,4.95,6.45,5.9a13.9,13.9,0,0,0,3.64.57l3.92.28a3.69,3.69,0,0,0,1.69-.15,2.89,2.89,0,0,0,1.39-1.65C104.73,81.57,103.76,78,102.12,75.18Z"/></g></svg>