<svg id="Layer_1" data-name="Layer 1" xmlns="http://www.w3.org/2000/svg" viewBox="0 0 250 250"><defs><style>.cls-1{fill:#f9320b;opacity:0.1;}.cls-2{fill:#3b0f37;}.cls-3{fill:#f5f5f5;}.cls-4{fill:#e1e1e1;}.cls-5{fill:#fafafa;}.cls-6{fill:#1a2e35;}.cls-10,.cls-7{fill:#fff;}.cls-8{fill:#375a64;}.cls-9{fill:#ff4f5b;}.cls-10,.cls-11{opacity:0.3;}.cls-12{fill:#cd7250;}.cls-13{fill:#ae4f32;}.cls-14{opacity:0.2;}</style></defs><path class="cls-1" d="M19.16,195.55S-10.51,159.81,4,123C13.44,99,48.9,85.89,68.9,99c8.53,5.59,35.87.18,50.46-23,28.37-45,127.37-17.68,109.35,51.46-8.72,33.45,26.54,34.67,8.57,68.11Z"/><rect class="cls-2" y="195.02" width="250" height="0.96" rx="0.48"/><path class="cls-3" d="M158.52,93.05v17.19a5.61,5.61,0,0,0,5.63,5.52h61.66a5.64,5.64,0,0,0,5.63-5.64V95.59l7.68-8.06-75-.24A5.66,5.66,0,0,0,158.52,93.05Z"/><polygon class="cls-4" points="222.35 97.71 166.4 97.45 166.41 95.73 222.36 95.99 222.35 97.71"/><polygon class="cls-4" points="222.35 103.37 166.4 103.11 166.41 101.39 222.36 101.65 222.35 103.37"/><rect class="cls-4" x="210.43" y="96.9" width="1.72" height="22.14" transform="translate(102.28 318.72) rotate(-89.72)"/><path class="cls-3" d="M53.44,180.69c8.62-6,10.58-17.2,10.23-27.25-.05-1.68.13-3.45-.67-4.92s-2.66-2.48-4.16-1.77c-1.24.59-1.79,2-2.48,3.23a9.76,9.76,0,0,1-3.94,3.76,3.69,3.69,0,0,1-3.44.31c-1.45-.79-1.62-2.79-1.61-4.46l.06-9.33a15.58,15.58,0,0,0-.51-5,5.17,5.17,0,0,0-3.25-3.5,3.13,3.13,0,0,0-3.88,2.11,15.86,15.86,0,0,0,0,2.07,1.77,1.77,0,0,1-1,1.66,2,2,0,0,1-1.83-.77,22.06,22.06,0,0,1-4-6,31.35,31.35,0,0,0-3.72-6.21,9,9,0,0,0-6.11-3.43,5.4,5.4,0,0,0-5.54,3.69c-.61,2.35.77,4.74,2.26,6.64a36.94,36.94,0,0,0,7.75,7.39,3.08,3.08,0,0,1,1.3,1.4c.36,1.11-.69,2.22-1.79,2.58a18.63,18.63,0,0,1-3.89.44,3.77,3.77,0,0,0-3.21,2c-.68,1.7.75,3.49,2.15,4.66a31.94,31.94,0,0,0,9.44,5.45,10.62,10.62,0,0,1,3.51,1.71,3.08,3.08,0,0,1,1,3.53A3.14,3.14,0,0,1,32.62,162a23,23,0,0,1-3.66-1.4c-2.29-.87-5.25-.71-6.72,1.27a5.27,5.27,0,0,0-.56,4.67,12,12,0,0,0,2.53,4.13,32,32,0,0,0,13.69,9.62c5.32,1.85,10.25,2.35,15.54.41"/><path class="cls-4" d="M53.57,188.14a72.92,72.92,0,0,0-2.73-13.75,150.31,150.31,0,0,0-5.93-16.09l-1.77-4.14c-.59-1.36-1.17-2.71-1.82-4A73.41,73.41,0,0,0,37.17,143c-1.42-2.21-2.86-4.25-4.22-6.16s-2.67-3.65-3.92-5.19a60,60,0,0,0-6.46-6.83c-.83-.74-1.48-1.3-1.93-1.67l-.52-.42-.18-.13a1.83,1.83,0,0,0,.16.16l.5.44c.43.39,1.08,1,1.89,1.71a63,63,0,0,1,6.37,6.88c1.24,1.55,2.53,3.3,3.88,5.2s2.78,4,4.2,6.17a76.3,76.3,0,0,1,4.12,7.13c.64,1.27,1.21,2.61,1.8,4l1.77,4.14a153,153,0,0,1,5.94,16.05,74.42,74.42,0,0,1,2.78,13.7"/><path class="cls-4" d="M41.24,150.16a4.16,4.16,0,0,0,.16-.71c.09-.46.19-1.13.31-2,.23-1.67.48-4,.74-6.51s.55-4.84.81-6.5c.13-.82.24-1.49.32-1.95a3.2,3.2,0,0,0,.09-.73,4.14,4.14,0,0,0-.21.7c-.12.46-.26,1.12-.41,1.95-.32,1.65-.64,4-.9,6.49s-.48,4.78-.66,6.52c-.08.78-.15,1.44-.21,2A2.53,2.53,0,0,0,41.24,150.16Z"/><path class="cls-4" d="M19.78,146.15a4.44,4.44,0,0,0,.86.1c.55.05,1.35.12,2.33.23,2,.21,4.67.6,7.63,1.16s5.63,1.19,7.54,1.7c1,.24,1.73.47,2.26.61a4,4,0,0,0,.84.21,5.33,5.33,0,0,0-.81-.32c-.52-.19-1.28-.44-2.23-.71-1.91-.57-4.57-1.23-7.54-1.79A77.17,77.17,0,0,0,23,146.26c-1-.08-1.79-.12-2.34-.13A4.53,4.53,0,0,0,19.78,146.15Z"/><path class="cls-4" d="M50.58,174a1.5,1.5,0,0,0,.15-.26l.36-.78c.32-.68.75-1.66,1.27-2.89,1-2.46,2.36-5.9,3.76-9.72s2.7-7.26,3.68-9.73c.49-1.21.88-2.2,1.18-2.93.12-.32.23-.59.31-.8a1.14,1.14,0,0,0,.09-.29,1.5,1.5,0,0,0-.15.26l-.36.78c-.32.67-.75,1.66-1.27,2.89-1,2.46-2.35,5.9-3.76,9.72s-2.7,7.26-3.68,9.73L51,172.91l-.32.8A.94.94,0,0,0,50.58,174Z"/><path class="cls-4" d="M22.07,164.81l.29.12.82.27,3.06,1c2.57.84,6.12,2,10,3.36s7.48,2.49,10.07,3.27c1.3.4,2.35.7,3.09.9l.84.22a1.11,1.11,0,0,0,.3.06,1.2,1.2,0,0,0-.28-.12l-.83-.28-3-1c-2.58-.83-6.13-2-10.05-3.35S28.9,166.77,26.3,166c-1.3-.39-2.35-.69-3.08-.89l-.85-.22A1.05,1.05,0,0,0,22.07,164.81Z"/><path class="cls-4" d="M73.33,75.26V88.58A4.37,4.37,0,0,1,69,93H21.19a4.37,4.37,0,0,1-4.36-4.37V77.32l-5.95-6.25L69,70.89A4.37,4.37,0,0,1,73.33,75.26Z"/><polygon class="cls-5" points="23.87 78.97 67.22 78.77 67.22 77.43 23.87 77.63 23.87 78.97"/><polygon class="cls-5" points="23.87 83.35 67.22 83.15 67.22 81.82 23.87 82.02 23.87 83.35"/><rect class="cls-5" x="23.87" y="86.25" width="17.15" height="1.33" transform="translate(-0.43 0.16) rotate(-0.28)"/><rect class="cls-6" x="71.82" y="73.45" width="100.64" height="144.43" rx="11.55" transform="translate(-23.52 267.8) rotate(-90)"/><rect class="cls-7" x="72.96" y="85.35" width="94.3" height="120.62" transform="translate(-25.55 265.78) rotate(-90)"/><circle class="cls-8" cx="187.1" cy="145.66" r="3.86" transform="translate(2.49 294.47) rotate(-76.77)"/><rect class="cls-8" x="39.72" y="144.87" width="30.31" height="1.6" rx="0.8" transform="translate(-90.78 200.54) rotate(-90)"/><circle class="cls-9" cx="85.88" cy="148.5" r="9.74" transform="translate(-85.38 138.59) rotate(-56.65)"/><circle class="cls-10" cx="85.88" cy="148.5" r="9.74" transform="translate(-85.38 138.59) rotate(-56.65)"/><path class="cls-6" d="M82.52,146c.36,0,.7.38.74.91s-.22,1-.58,1-.71-.38-.75-.91S82.15,146.07,82.52,146Z"/><path class="cls-6" d="M88.71,145.91c-.37,0-.69.41-.71.94s.26,1,.63,1,.69-.41.71-.94S89.08,145.93,88.71,145.91Z"/><path class="cls-6" d="M89.77,150.43a20.69,20.69,0,0,1-4,.2,20.84,20.84,0,0,1-4.06-.2,19.49,19.49,0,0,1,4.06-.21A19.35,19.35,0,0,1,89.77,150.43Z"/><path class="cls-6" d="M83.26,144.92c0,.12-.49.11-1,.2s-1,.23-1,.13.35-.44,1-.54S83.29,144.81,83.26,144.92Z"/><path class="cls-6" d="M90.47,145.39c-.07.1-.49-.12-1-.28s-1-.23-1-.35.52-.25,1.15,0S90.54,145.31,90.47,145.39Z"/><circle class="cls-9" cx="156.42" cy="147.69" r="10.1" transform="translate(-14.03 278.94) rotate(-80.95)"/><circle class="cls-11" cx="156.42" cy="147.69" r="10.1" transform="translate(-14.03 278.94) rotate(-80.95)"/><path class="cls-6" d="M152.94,145.14c.38,0,.73.39.77,1s-.23,1-.61,1-.73-.39-.77-.94S152.55,145.18,152.94,145.14Z"/><path class="cls-6" d="M159.36,145c-.39,0-.71.42-.74,1s.27,1,.66,1,.71-.42.73-1S159.74,145,159.36,145Z"/><path class="cls-6" d="M160.46,149.69a7.73,7.73,0,0,1-1.18-.61,6.46,6.46,0,0,0-3-.75,7.46,7.46,0,0,0-3,.79,7.5,7.5,0,0,1-1.21.57,3.22,3.22,0,0,1,1.07-.83,6.45,6.45,0,0,1,3.14-.94,6,6,0,0,1,3.16.9C160.13,149.27,160.49,149.65,160.46,149.69Z"/><path class="cls-6" d="M153.71,144c0,.05,0,.17-.2.32a1.71,1.71,0,0,1-.79.37,1.51,1.51,0,0,1-.88-.1c-.2-.09-.3-.2-.27-.25s.52.05,1.08-.06S153.63,143.89,153.71,144Z"/><path class="cls-6" d="M161.18,144.47c0,.05-.09.15-.32.22a1.47,1.47,0,0,1-.9,0,1.78,1.78,0,0,1-.75-.5c-.14-.17-.2-.3-.16-.34s.49.26,1,.45S161.14,144.36,161.18,144.47Z"/><polygon class="cls-4" points="137.07 175.72 139.41 174.56 141.69 175.83 141.31 173.25 143.22 171.47 140.65 171.04 139.55 168.67 138.34 170.98 135.74 171.29 137.57 173.16 137.07 175.72"/><polygon class="cls-9" points="127.52 175.72 129.86 174.56 132.14 175.83 131.76 173.25 133.68 171.47 131.1 171.04 130 168.67 128.79 170.98 126.2 171.29 128.02 173.16 127.52 175.72"/><polygon class="cls-9" points="117.97 175.72 120.31 174.56 122.6 175.83 122.22 173.25 124.13 171.47 121.55 171.04 120.45 168.67 119.24 170.98 116.65 171.29 118.48 173.16 117.97 175.72"/><polygon class="cls-9" points="108.43 175.72 110.77 174.56 113.05 175.83 112.67 173.25 114.58 171.47 112.01 171.04 110.91 168.67 109.7 170.98 107.11 171.29 108.93 173.16 108.43 175.72"/><polygon class="cls-9" points="98.88 175.72 101.22 174.56 103.5 175.83 103.13 173.25 105.04 171.47 102.46 171.04 101.36 168.67 100.15 170.98 97.56 171.29 99.39 173.16 98.88 175.72"/><path class="cls-6" d="M143.33,118.27s-10.47.1-23.39.1-23.39-.05-23.39-.1,10.47-.11,23.39-.11S143.33,118.21,143.33,118.27Z"/><path class="cls-6" d="M131.83,115.46c0,.06-5.17.1-11.55.1s-11.56,0-11.56-.1,5.18-.11,11.56-.11S131.83,115.4,131.83,115.46Z"/><circle class="cls-9" cx="121.94" cy="145.36" r="13.31" transform="translate(-53.81 216.85) rotate(-72.14)"/><path class="cls-6" d="M117.35,142c.5,0,1,.51,1,1.24s-.3,1.35-.81,1.4-1-.52-1-1.25S116.84,142.05,117.35,142Z"/><path class="cls-6" d="M125.8,141.84c-.5,0-.93.55-1,1.28s.36,1.34.87,1.36.94-.56,1-1.29S126.31,141.86,125.8,141.84Z"/><path class="cls-6" d="M127.26,146.2s-.09.16-.31.39a7.32,7.32,0,0,1-1,.9,7.06,7.06,0,0,1-1.76,1,6.2,6.2,0,0,1-2.44.39,7.35,7.35,0,0,1-2.4-.56,10,10,0,0,1-1.77-.92,5.49,5.49,0,0,1-1.41-1.16,13.59,13.59,0,0,1,1.56.91,13.39,13.39,0,0,0,1.76.82,7.33,7.33,0,0,0,2.28.49,6.26,6.26,0,0,0,2.29-.33,7.66,7.66,0,0,0,1.72-.84,11,11,0,0,0,1-.78C127.09,146.28,127.24,146.18,127.26,146.2Z"/><path class="cls-6" d="M118,139c0,.11-.66.07-1.42.19s-1.35.35-1.41.25.5-.53,1.35-.66S118,138.91,118,139Z"/><path class="cls-6" d="M128.66,139.64c-.07.09-.64-.24-1.39-.47s-1.41-.27-1.42-.39.7-.27,1.54,0S128.73,139.56,128.66,139.64Z"/><path class="cls-6" d="M116.39,145.25c.06,0,.14.12.15.38a1.43,1.43,0,0,1-.29.91,1.49,1.49,0,0,1-.77.58c-.24.07-.4,0-.41,0s.5-.28.85-.8S116.28,145.27,116.39,145.25Z"/><path class="cls-6" d="M128.38,146.47c0,.05-.1.13-.31.15a1.23,1.23,0,0,1-1.2-.89c0-.21,0-.34,0-.34s.25.38.64.66S128.36,146.35,128.38,146.47Z"/><path class="cls-9" d="M138.21,145.25a2.17,2.17,0,0,1,0-.27l-.05-.79,0-.57c0-.22-.07-.45-.11-.69l-.13-.81a8.86,8.86,0,0,0-.21-.9,15.79,15.79,0,0,0-1.83-4.39,16.37,16.37,0,0,0-4.19-4.66l-.71-.53c-.25-.17-.51-.32-.77-.48s-.52-.33-.81-.46l-.85-.41-.43-.21-.46-.16-.93-.34c-.31-.11-.64-.17-1-.26a8.52,8.52,0,0,0-1-.23,17.64,17.64,0,0,0-2.08-.24c-.35,0-.71,0-1.07,0l-1.09.06-.55,0-.54.09c-.37.06-.74.1-1.11.18a17.1,17.1,0,0,0-2.19.64,17.59,17.59,0,0,0-2.14.94c-.35.19-.68.41-1,.61-.17.11-.35.2-.51.32l-.48.37a18.5,18.5,0,0,0-1.86,1.58l-.84.92-.21.23-.19.25-.37.51-.38.5-.33.54-.33.55-.17.27-.14.29c-.18.38-.37.77-.56,1.15l-.44,1.22a16.24,16.24,0,0,0,0,10.37c.15.4.3.81.44,1.21l.56,1.16.14.29.17.27.33.55.33.54.38.5.37.51.19.25.21.23.84.92a18.5,18.5,0,0,0,1.86,1.58l.48.37c.16.12.34.21.51.32.35.2.68.42,1,.61a18.44,18.44,0,0,0,2.15.94,15.63,15.63,0,0,0,2.19.64c.37.08.74.12,1.11.18l.54.09.55,0,1.09.06c.36,0,.72,0,1.07,0a17.64,17.64,0,0,0,2.08-.24,8.52,8.52,0,0,0,1-.23c.32-.09.65-.15,1-.26l.92-.34.46-.16.43-.21.86-.41c.28-.13.53-.31.8-.46s.52-.31.77-.48l.71-.53a16.37,16.37,0,0,0,4.19-4.66,15.79,15.79,0,0,0,1.83-4.39,8.86,8.86,0,0,0,.21-.9c0-.29.09-.56.13-.8s.08-.48.11-.7l0-.57.05-.79a1.83,1.83,0,0,1,0-.26s0,.09,0,.26l0,.79,0,.58c0,.21-.06.44-.1.69l-.11.81c0,.29-.14.59-.21.91a15.68,15.68,0,0,1-1.81,4.43,16.57,16.57,0,0,1-4.2,4.72L131,159c-.25.17-.52.32-.78.48s-.52.34-.81.47l-.86.42-.44.21-.46.17-.93.34c-.32.11-.65.18-1,.27s-.66.19-1,.23a14.35,14.35,0,0,1-2.1.24c-.36,0-.72.05-1.08.05l-1.1-.06-.56,0-.55-.08c-.37-.06-.75-.11-1.12-.18a18.6,18.6,0,0,1-2.22-.65,17.21,17.21,0,0,1-2.17-1c-.35-.19-.69-.41-1-.62-.17-.11-.36-.2-.52-.32l-.49-.37a18.84,18.84,0,0,1-1.89-1.6l-.84-.93-.22-.23-.19-.26-.38-.51-.38-.51-.34-.54-.33-.56-.17-.27-.14-.29-.57-1.18-.45-1.23a16.42,16.42,0,0,1,0-10.49l.45-1.24.57-1.17.14-.29.17-.28.33-.55.34-.54.38-.52.38-.5.2-.26.21-.23.84-.93a18.84,18.84,0,0,1,1.89-1.6l.49-.37c.16-.12.35-.21.52-.32.34-.21.68-.43,1-.62a18.79,18.79,0,0,1,2.17-1,18.6,18.6,0,0,1,2.22-.65c.37-.07.75-.11,1.12-.18l.55-.08.56,0,1.1-.06c.36,0,.72,0,1.08.05a14.35,14.35,0,0,1,2.1.24c.35,0,.68.16,1,.23s.66.16,1,.27l.93.34.46.17.44.21.86.42c.29.13.54.32.81.47l.78.48.71.54a16.57,16.57,0,0,1,4.2,4.72,15.68,15.68,0,0,1,1.81,4.43c.07.32.17.62.21.91l.11.81c0,.25.08.48.1.69l0,.58,0,.79C138.21,145.15,138.21,145.25,138.21,145.25Z"/><rect class="cls-4" x="59.8" y="98.51" width="120.62" height="6.02"/><path class="cls-7" d="M63.7,101.36a.82.82,0,0,1-.82.81.81.81,0,0,1-.81-.81.82.82,0,0,1,.81-.82A.82.82,0,0,1,63.7,101.36Z"/><path class="cls-7" d="M66.4,101.36a.81.81,0,0,1-.81.81.82.82,0,0,1-.82-.81.82.82,0,0,1,.82-.82A.82.82,0,0,1,66.4,101.36Z"/><path class="cls-7" d="M69.11,101.36a.81.81,0,0,1-.81.81.82.82,0,0,1-.82-.81.82.82,0,0,1,.82-.82A.82.82,0,0,1,69.11,101.36Z"/><path class="cls-4" d="M167.13,123c0,.06-20.93.11-46.74.11s-46.74-.05-46.74-.11,20.92-.1,46.74-.1S167.13,123,167.13,123Z"/><path class="cls-4" d="M167.13,125.33c0,.06-20.93.1-46.74.1s-46.74,0-46.74-.1,20.92-.1,46.74-.1S167.13,125.27,167.13,125.33Z"/><path class="cls-8" d="M105.78,96s-.82-1.87-1-2.28c-.42-1.12-3.11-8.62-2.47-9.75,3-5.25,5.31-9,11.21-9L124,74.89s9.87-2,16.83,20.45Z"/><path class="cls-8" d="M83.79,97.86l13.65-2.94,16-8.44L113.54,75c-2.4-.66-7,1-15.3,5.23L85.92,86.55a7.3,7.3,0,0,0-2.13,11.31Z"/><path class="cls-12" d="M114.51,120.15c-.2-.65-.07-1.07.88-.75,2.08.7,3.94.47,4.39.07s0-1.18-.63-1.12a8,8,0,0,1-2.2-.3,5.34,5.34,0,0,1-1.63-.69c-.44-.28-.81-.54-1.15-.77a10.92,10.92,0,0,1-2.52-2.51l-6.58,2.83,1.06,3.3a3.46,3.46,0,0,0,2.23,2.55,15.82,15.82,0,0,0,4.87.38c.55-.36,2.67,2.71,3.31,3.79s1.41,1.22,1.66.56c.16-.45-1.72-3.81-2.38-4.87a12.52,12.52,0,0,1-1.31-2.47"/><path class="cls-13" d="M110.05,123.15s-.17,0-.39-.09a1.74,1.74,0,0,1-.69-.67,1.62,1.62,0,0,1-.21-.94c0-.25.1-.39.12-.38a2.94,2.94,0,0,0,.27,1.22A2.71,2.71,0,0,0,110.05,123.15Z"/><path class="cls-13" d="M112.13,123.23s-.16,0-.37-.1a1.63,1.63,0,0,1-.64-.66,1.61,1.61,0,0,1-.2-.9c0-.24.09-.37.11-.37a3.1,3.1,0,0,0,.27,1.17A2.83,2.83,0,0,0,112.13,123.23Z"/><path class="cls-8" d="M83.41,97.41s20.9,24,20.88,23.63,9.37-7.42,9.37-7.42L93.16,89.21Z"/><path class="cls-6" d="M96.09,92.69l.14.14.39.44c.36.4.83,1,1.41,1.62,1.18,1.37,2.8,3.28,4.57,5.4s3.38,4,4.53,5.44l1.36,1.67.36.46c.08.1.12.16.11.17l-.14-.15-.39-.43L107,105.83c-1.18-1.38-2.8-3.29-4.57-5.4S99.07,96.38,97.92,95l-1.36-1.66-.36-.46C96.12,92.75,96.08,92.69,96.09,92.69Z"/><path class="cls-6" d="M133.07,95.46a6.79,6.79,0,0,0,.25-1.54,4.69,4.69,0,0,0-.27-1.65A4.8,4.8,0,0,0,132,90.55c-.51-.53-1.06-1-1.5-1.48a4.51,4.51,0,0,1-.93-1.46,2.53,2.53,0,0,1-.17-1.16.94.94,0,0,1,.11-.41,2.8,2.8,0,0,0,.19,1.52,5,5,0,0,0,.94,1.38c.44.47,1,.92,1.51,1.47a4.67,4.67,0,0,1,1.12,1.8,4.55,4.55,0,0,1,.24,1.71,4.32,4.32,0,0,1-.22,1.15A1.33,1.33,0,0,1,133.07,95.46Z"/><path class="cls-6" d="M104.87,77a1.64,1.64,0,0,1,.31-.14,7.36,7.36,0,0,1,.9-.33,7.14,7.14,0,0,1,1.5-.31,5.2,5.2,0,0,1,2,.19,4.68,4.68,0,0,1,2.06,1.33,5.49,5.49,0,0,1,1.24,2.52,9.68,9.68,0,0,1,.2,3.11,6.69,6.69,0,0,1-1.16,3.13,8.48,8.48,0,0,1-2.5,2.22c-.91.58-1.83,1-2.71,1.51l-4.64,2.44L99,94.26l-.86.44-.3.14s.09-.07.28-.18l.84-.47L102,92.51,106.64,90c.87-.46,1.79-.94,2.69-1.51a8.39,8.39,0,0,0,2.44-2.17,6.6,6.6,0,0,0,1.13-3,9.64,9.64,0,0,0-.19-3,5.25,5.25,0,0,0-1.18-2.45,4.56,4.56,0,0,0-2-1.3,5.1,5.1,0,0,0-2-.21,8.14,8.14,0,0,0-1.48.26l-.92.29A1.29,1.29,0,0,1,104.87,77Z"/><path class="cls-6" d="M98.39,94.89a8.57,8.57,0,0,0-3.24-5,2.39,2.39,0,0,1,.77.48A6.35,6.35,0,0,1,97.39,92a6.68,6.68,0,0,1,.88,2A2.78,2.78,0,0,1,98.39,94.89Z"/><path class="cls-5" d="M129.12,92.28a2.84,2.84,0,0,1-.45.12,4.29,4.29,0,0,1-1.32.06,5,5,0,0,1-2-.65,4.55,4.55,0,0,1-1.83-2.06,4.84,4.84,0,0,1-.25-3.32,2.72,2.72,0,0,1,1.1-1.52,1.34,1.34,0,0,1,1-.21,1.49,1.49,0,0,1,.87.58,4.83,4.83,0,0,1,.46,4.16,4.9,4.9,0,0,1-1.18,1.93,4.47,4.47,0,0,1-2,1.15,4.63,4.63,0,0,1-4.34-1,4.55,4.55,0,0,1-1.31-4,3.94,3.94,0,0,1,.8-1.83,1.91,1.91,0,0,1,.78-.6,1.21,1.21,0,0,1,1,0,1.77,1.77,0,0,1,1,1.42,3,3,0,0,1-.31,1.59,7.85,7.85,0,0,1-3.37,3.42,7.33,7.33,0,0,1-1.21.51l-.33.09-.12,0,.11,0,.32-.11a7.74,7.74,0,0,0,1.19-.54,8.21,8.21,0,0,0,1.67-1.22,7.39,7.39,0,0,0,1.6-2.19,2.77,2.77,0,0,0,.29-1.51,1.61,1.61,0,0,0-.92-1.28,1,1,0,0,0-.83,0,1.66,1.66,0,0,0-.7.54,3.83,3.83,0,0,0-.75,1.75,4.33,4.33,0,0,0,1.26,3.78,4.44,4.44,0,0,0,4.15,1,4.35,4.35,0,0,0,1.94-1.09,4.83,4.83,0,0,0,1.13-1.86,5.15,5.15,0,0,0,.23-2.09,4.24,4.24,0,0,0-.21-1,3.15,3.15,0,0,0-.44-.88,1.26,1.26,0,0,0-.76-.51,1.13,1.13,0,0,0-.86.17,2.55,2.55,0,0,0-1,1.42,4.71,4.71,0,0,0,.23,3.21,4.4,4.4,0,0,0,1.75,2,5,5,0,0,0,1.93.67A5.59,5.59,0,0,0,129.12,92.28Z"/><path class="cls-13" d="M130.69,68.89a4.8,4.8,0,0,1-.93-1.86,1.18,1.18,0,0,1,0-.67.53.53,0,0,1,.51-.39c.23,0,.39.24.51.44a10,10,0,0,1,1,1.82,1.55,1.55,0,0,1,.11.56.55.55,0,0,1-.27.47.58.58,0,0,1-.59-.08,1.64,1.64,0,0,1-.4-.47"/><path class="cls-13" d="M131.69,68.45l-1-2.16a1.59,1.59,0,0,1-.21-.67.59.59,0,0,1,.33-.58.58.58,0,0,1,.57.15,2,2,0,0,1,.35.51l.48,1a2.91,2.91,0,0,1,.32.8,1,1,0,0,1-.16.83.61.61,0,0,1-.77.18"/><path class="cls-12" d="M127.11,75.13a9.41,9.41,0,0,1-1.56-2.84c-.13-1,1.07-2.72,3.65-3.11a6.4,6.4,0,0,0,2.65-.91.83.83,0,0,0,.3-1,14.57,14.57,0,0,1-.9-2.56c.12-.52.46-.51,1.35.79s1.92,2.63,1.72,3.23S131,71.19,131,71.19l.86,1.38Z"/><path class="cls-8" d="M135.64,94.25l-9.9-19.38,6.37-3.57,13.38,21.22s.71,1.35,1.7,2.94H136"/><path class="cls-6" d="M132,71.3s0,0-.11.08l-.34.2-1.28.75L125.68,75l0-.12c1,2,2.21,4.23,3.47,6.7,1.88,3.65,3.5,7,4.64,9.42.57,1.22,1,2.21,1.33,2.89l.35.79a2.27,2.27,0,0,1,.11.29,1.41,1.41,0,0,1-.15-.27l-.38-.77L133.7,91c-1.18-2.41-2.82-5.74-4.69-9.39-1.26-2.46-2.5-4.73-3.45-6.71l0-.08.08,0,4.63-2.55,1.31-.71.34-.18Z"/><path class="cls-6" d="M105.78,96a8.71,8.71,0,0,1-1.06-2.2,8.6,8.6,0,0,1-.59-2.36c.06,0,.33,1,.79,2.29S105.84,96,105.78,96Z"/><path class="cls-6" d="M127.57,67.4a3.91,3.91,0,0,0,4.61-5.91,4.73,4.73,0,0,0,3.18-5.41,6.12,6.12,0,0,0-4.73-4.51,5.13,5.13,0,0,0-2.61.07,3.21,3.21,0,0,0-2,1.67"/><path class="cls-9" d="M127.26,62.35a8,8,0,0,0-.77.32A3.42,3.42,0,0,0,125,64.28a3.25,3.25,0,0,0-.28,1.49,3.31,3.31,0,0,0,.53,1.65,3.48,3.48,0,0,0,.62.71,3.28,3.28,0,0,0,.84.52,3.33,3.33,0,0,0,2,.19,3.38,3.38,0,0,0,1.75-1A3,3,0,0,0,131,67a3.25,3.25,0,0,0,0-2.63,3.27,3.27,0,0,0-.9-1.22,3.44,3.44,0,0,0-2-.8,6.67,6.67,0,0,0-.82,0s.07,0,.21-.06a2.8,2.8,0,0,1,.61-.06,3.32,3.32,0,0,1,2.14.77,3.37,3.37,0,0,1,1,1.26,3.61,3.61,0,0,1,.27,1.81,3.48,3.48,0,0,1-2.68,3,3.5,3.5,0,0,1-2.15-.2,3.48,3.48,0,0,1-1.54-1.31,3.41,3.41,0,0,1-.54-1.75,3.26,3.26,0,0,1,.32-1.56,3.34,3.34,0,0,1,1.59-1.62,2.46,2.46,0,0,1,.58-.21A.83.83,0,0,1,127.26,62.35Z"/><path class="cls-6" d="M129,56.2a3.83,3.83,0,0,0,1.8-7.08,4.76,4.76,0,0,0-7.11-5.57A6.32,6.32,0,0,0,112,45.42a6.11,6.11,0,0,0-7.84,8.28,4.73,4.73,0,0,0,.8,9.43,4.18,4.18,0,0,0,6.33,4.69,4.57,4.57,0,0,0,8.21-.94"/><path class="cls-12" d="M124.25,74.5c.08-1.9.19-3.62.19-3.62A5.11,5.11,0,0,0,128.86,66c.19-4.33-.24-14.3-.24-14.3L120.8,48l-8.4,6.77,1.32,19.89a5.27,5.27,0,0,0,5.51,4.92h0A5.26,5.26,0,0,0,124.25,74.5Z"/><path class="cls-6" d="M128.41,59.13c-.07.07-.48-.27-1.06-.29s-1,.27-1.07.19,0-.17.23-.31a1.43,1.43,0,0,1,1.7.08C128.38,59,128.44,59.09,128.41,59.13Z"/><path class="cls-6" d="M122,59.13c-.07.07-.48-.27-1.06-.29s-1,.27-1.07.19,0-.17.23-.31a1.38,1.38,0,0,1,.86-.24,1.35,1.35,0,0,1,.83.32C121.94,59,122,59.09,122,59.13Z"/><path class="cls-6" d="M124.15,63.49a4.32,4.32,0,0,1,.95-.14c.15,0,.29,0,.31-.14a.84.84,0,0,0-.09-.48l-.42-1.23a21.27,21.27,0,0,1-.93-3.21,23.31,23.31,0,0,1,1.17,3.13l.4,1.23a1,1,0,0,1,.07.63.34.34,0,0,1-.25.22.8.8,0,0,1-.25,0A3.28,3.28,0,0,1,124.15,63.49Z"/><path class="cls-13" d="M124.44,70.88A10.35,10.35,0,0,1,118.82,69a5.42,5.42,0,0,0,5.54,2.9Z"/><path class="cls-6" d="M118.41,48.2a5.71,5.71,0,0,0,.08,6.62,3.3,3.3,0,0,0,2.62,1.46,1.86,1.86,0,0,0,1.83-2,2.15,2.15,0,1,0,4.12.08,3.82,3.82,0,0,0,.49,1.32,1.27,1.27,0,0,0,1.19.63c.66-.08,1-.78,1.18-1.42a5.9,5.9,0,0,0-1.66-5.41,7.12,7.12,0,0,0-5.42-1.89,9.06,9.06,0,0,0-5.31,2.32"/><path class="cls-6" d="M119,49.73a10.24,10.24,0,0,1,.87,3.88,5.23,5.23,0,0,1-1.4,3.65,3.54,3.54,0,0,1-3.69.88,4.09,4.09,0,0,1-.54,3.46,2.62,2.62,0,0,1-3.21.85,3.55,3.55,0,0,1-1.5-2.77,8.85,8.85,0,0,1,9.64-9.89"/><path class="cls-12" d="M113.6,60.05a1.51,1.51,0,0,0-1.82.43,2.49,2.49,0,0,0,2.47,4.09"/><path class="cls-13" d="M113.47,63.27s-.2.06-.49,0a1.28,1.28,0,0,1-.89-.79.94.94,0,0,1,0-.7,1,1,0,0,1,.36-.42c.27-.18.47-.17.47-.15s-.17.08-.38.26a.88.88,0,0,0-.28.94,1.28,1.28,0,0,0,.75.72C113.29,63.22,113.47,63.24,113.47,63.27Z"/><path class="cls-6" d="M122.32,57.32c0,.17-.68.1-1.44.14s-1.38.13-1.44,0,.54-.56,1.42-.6S122.38,57.16,122.32,57.32Z"/><path class="cls-6" d="M128.39,57.2c-.06.06-.19,0-.34,0a1.29,1.29,0,0,0-.53,0c-.23,0-.48.06-.67.06s-.32-.05-.35-.13.06-.19.22-.3a1.73,1.73,0,0,1,.74-.25,1,1,0,0,1,.84.29C128.45,57,128.45,57.14,128.39,57.2Z"/><path class="cls-13" d="M123.14,64.6a1.34,1.34,0,0,1,1.1-.15.83.83,0,0,1,.54.89.9.9,0,0,1-.35.5,1.15,1.15,0,0,1-.91.22.87.87,0,0,1-.67-.61.72.72,0,0,1,.36-.81"/><path class="cls-6" d="M125.27,65.07s-.14.12-.42.18a1.91,1.91,0,0,1-1.1-.11,1.86,1.86,0,0,1-.85-.7c-.15-.24-.19-.42-.16-.43s.11.14.28.34a2.22,2.22,0,0,0,.81.6,2.25,2.25,0,0,0,1,.15C125.09,65.08,125.26,65,125.27,65.07Z"/><path class="cls-9" d="M116.48,67.13s0-.3-.15-.81a3.3,3.3,0,0,0-2.63-2.42,3.3,3.3,0,0,0-1.72.15,2.8,2.8,0,0,0-.83.45,3,3,0,0,0-.69.69,3.29,3.29,0,0,0-.64,1.94,3.35,3.35,0,0,0,.63,1.94,3.31,3.31,0,0,0,3.25,1.3A3.35,3.35,0,0,0,116.33,68c.14-.52.12-.82.15-.82a2,2,0,0,1,0,.22,3,3,0,0,1-.08.62,3.43,3.43,0,0,1-2.68,2.57,3.48,3.48,0,0,1-1.82-.14,3.4,3.4,0,0,1-.88-.47,3.25,3.25,0,0,1-.74-.74,3.46,3.46,0,0,1,0-4.12,3.41,3.41,0,0,1,.74-.73,2.88,2.88,0,0,1,.88-.47,3.38,3.38,0,0,1,1.82-.14,3.24,3.24,0,0,1,1.45.66,3.29,3.29,0,0,1,1.23,1.91,2.82,2.82,0,0,1,.08.62A1.66,1.66,0,0,1,116.48,67.13Z"/><path class="cls-8" d="M128.39,47.75l.11,0a.83.83,0,0,1,.27.18,1.26,1.26,0,0,1,.35,1.14,1.62,1.62,0,0,1-1.35,1.19,3.44,3.44,0,0,1-2.29-.54l-.8-.47.88.29a1,1,0,0,1,.6.68,1.29,1.29,0,0,1-.12.94,1.35,1.35,0,0,1-.8.56,2,2,0,0,1-1,0,3.36,3.36,0,0,1-1.69-1.47l-.57-.83.72.7a1.54,1.54,0,0,1,.38,1.47,1.6,1.6,0,0,1-.86,1.1,2.1,2.1,0,0,1-2.22-.27,2.68,2.68,0,0,1-.84-1.25,1.7,1.7,0,0,1-.09-.39c0-.1,0-.14,0-.14s0,.18.16.51a2.73,2.73,0,0,0,.86,1.17,2,2,0,0,0,2.06.22,1.44,1.44,0,0,0,.76-1,1.36,1.36,0,0,0-.34-1.28l.15-.13a3.3,3.3,0,0,0,1.59,1.38,1.38,1.38,0,0,0,1.55-.45.93.93,0,0,0-.36-1.33l.08-.17a3.27,3.27,0,0,0,2.16.55A1.49,1.49,0,0,0,129,49.06a1.23,1.23,0,0,0-.27-1.07A1.41,1.41,0,0,0,128.39,47.75Z"/><path class="cls-8" d="M118,54.71s0,0,0,.08l-.18.19a2.33,2.33,0,0,1-.87.52,2.47,2.47,0,0,1-1.58,0,2.64,2.64,0,0,1-1.55-1.34l.17,0a2.59,2.59,0,0,1-2,2.06,2.57,2.57,0,0,1-2.83-1.43,2.59,2.59,0,0,1,.54-2.85l.14.15a2.58,2.58,0,0,1-1.64.59,2.82,2.82,0,0,1-1.54-.42,2.32,2.32,0,0,1-.92-1.08,2.82,2.82,0,0,1-.2-1.21,2.65,2.65,0,0,1,.65-1.58,1.59,1.59,0,0,1,.47-.4,5,5,0,0,0-.42.44,2.66,2.66,0,0,0-.36,2.69,2.16,2.16,0,0,0,.87,1,2.61,2.61,0,0,0,1.44.38,2.42,2.42,0,0,0,1.52-.56l.13.15a2.41,2.41,0,0,0-.49,2.62,2.37,2.37,0,0,0,2.6,1.33,2.42,2.42,0,0,0,1.82-1.9l0-.28.12.26a2.48,2.48,0,0,0,1.43,1.27,2.44,2.44,0,0,0,1.51,0,2.48,2.48,0,0,0,.86-.47C117.91,54.8,118,54.71,118,54.71Z"/><path class="cls-8" d="M110.27,61.65a1.05,1.05,0,0,1-.34.2,2.25,2.25,0,0,1-1.08.17,2.29,2.29,0,0,1-1.49-.73,2.39,2.39,0,0,1-.58-2l.17.08a4,4,0,0,1-1.46,1.2,3.11,3.11,0,0,1-1.42.3,3,3,0,0,1-1.31-.36,2.3,2.3,0,0,1-1.24-1.84,2.23,2.23,0,0,1,.4-1.47,2.12,2.12,0,0,1,.29-.3c.08,0,.12-.08.13-.07a3,3,0,0,0-.35.42,2.16,2.16,0,0,0,.86,3.09,2.82,2.82,0,0,0,2.55,0,3.93,3.93,0,0,0,1.4-1.13l.25-.33-.08.41a2.27,2.27,0,0,0,.52,1.85,2.14,2.14,0,0,0,1.37.71,2.46,2.46,0,0,0,1-.1C110.14,61.71,110.26,61.64,110.27,61.65Z"/><path class="cls-8" d="M132.35,53.2a1.35,1.35,0,0,1,.09.72,2.63,2.63,0,0,1-2.28,2.39,1.34,1.34,0,0,1-.73-.06s.28,0,.7-.09a2.69,2.69,0,0,0,2.16-2.25C132.36,53.48,132.31,53.21,132.35,53.2Z"/><path class="cls-8" d="M134.74,57.28a.67.67,0,0,1,.09.3,1.6,1.6,0,0,1-.08.86,1.32,1.32,0,0,1-.94.86,1.28,1.28,0,0,1-.79-.07,1,1,0,0,1-.62-.6l.19-.06a1.2,1.2,0,0,1,0,.38,1.55,1.55,0,0,1-1,1.39,1.39,1.39,0,0,1-.78,0,1.67,1.67,0,0,1-.59-.32,1.43,1.43,0,0,1-.47-.82.63.63,0,0,1,0-.34s0,.12.07.32a1.46,1.46,0,0,0,.49.73,1.22,1.22,0,0,0,1.2.22,1.37,1.37,0,0,0,.83-1.21,1.16,1.16,0,0,0,0-.33l.19-.06a1.05,1.05,0,0,0,1.18.56,1.19,1.19,0,0,0,.85-.74,1.69,1.69,0,0,0,.14-.79C134.75,57.4,134.72,57.29,134.74,57.28Z"/><path class="cls-6" d="M122.84,63.08s0,.09,0,.22a.91.91,0,0,1-.29.44.92.92,0,0,1-.48.2c-.14,0-.22,0-.22,0s.3-.09.57-.31S122.79,63.07,122.84,63.08Z"/><path class="cls-9" d="M215.78,174.91c-1,1.4-2.86.93-3.74.09a7,7,0,0,1-1.58-3.26c-.77-2.68-1.55-5.49-1-8.22a4.57,4.57,0,0,1,1.05-2.23,2.36,2.36,0,0,1,2.26-.75,3.47,3.47,0,0,1,2,2.07A19.58,19.58,0,0,1,216.7,171a6.67,6.67,0,0,1-.92,3.89"/><g class="cls-14"><path d="M215.78,174.91c-1,1.4-2.86.93-3.74.09a7,7,0,0,1-1.58-3.26c-.77-2.68-1.55-5.49-1-8.22a4.57,4.57,0,0,1,1.05-2.23,2.36,2.36,0,0,1,2.26-.75,3.47,3.47,0,0,1,2,2.07A19.58,19.58,0,0,1,216.7,171a6.67,6.67,0,0,1-.92,3.89"/></g><path class="cls-9" d="M212.14,182a8.41,8.41,0,0,0-5.24-.64,4.35,4.35,0,0,0-2.58,1.15,1.87,1.87,0,0,0,0,2.59,2.48,2.48,0,0,0,1.63.41c1.38,0,2.92-.26,4,.57.63.48,1.05,1.27,1.8,1.5a1.78,1.78,0,0,0,2-.87,3,3,0,0,0,.22-2.25A3.41,3.41,0,0,0,212.14,182Z"/><path class="cls-9" d="M218.46,176.91a5.06,5.06,0,0,1-.79-4.66,9,9,0,0,1,2.76-4,14.76,14.76,0,0,1,4.94-2.91,5.28,5.28,0,0,1,2.22-.38,2.35,2.35,0,0,1,1.86,1.13c.52,1,0,2.19-.52,3.18a37.4,37.4,0,0,1-3.24,4.93,8.77,8.77,0,0,1-3.57,3.06c-1.48.57-3,.5-3.8-.53"/><path class="cls-6" d="M215.85,195.89a2.87,2.87,0,0,1-.09-.63c0-.46-.1-1-.17-1.73a25.27,25.27,0,0,0-.38-2.53,20.07,20.07,0,0,0-.92-3,10.76,10.76,0,0,0-1.53-2.7,5.67,5.67,0,0,0-1.92-1.6,5.53,5.53,0,0,0-1.63-.51,2.87,2.87,0,0,1-.63-.09,2.9,2.9,0,0,1,.64,0,5,5,0,0,1,1.7.44,5.6,5.6,0,0,1,2,1.62,10.76,10.76,0,0,1,1.58,2.75,18.35,18.35,0,0,1,.91,3,22.31,22.31,0,0,1,.34,2.57c.05.73.07,1.32.08,1.73A2.9,2.9,0,0,1,215.85,195.89Z"/><path class="cls-6" d="M215.73,194.56a1.64,1.64,0,0,1,0-.29c0-.22,0-.5,0-.84,0-.73,0-1.78,0-3.08-.06-2.6-.29-6.19-.72-10.13s-1-7.5-1.54-10.05c-.12-.64-.25-1.21-.37-1.71s-.21-.94-.3-1.29l-.19-.82a2.11,2.11,0,0,1-.06-.29,1,1,0,0,1,.11.28l.24.8c.11.35.22.78.34,1.28s.27,1.08.41,1.71a97.25,97.25,0,0,1,1.62,10.06c.43,3.95.63,7.55.64,10.16,0,1.3,0,2.35,0,3.08,0,.34,0,.62,0,.84A1.36,1.36,0,0,1,215.73,194.56Z"/><path class="cls-6" d="M215.71,187.62a8.39,8.39,0,0,1,0-.88,23.43,23.43,0,0,1,.27-2.37,32.06,32.06,0,0,1,.77-3.46,30.22,30.22,0,0,1,1.45-4.09,21.61,21.61,0,0,1,4.24-6.61,10.13,10.13,0,0,1,1-.92c.15-.13.29-.26.43-.37l.38-.26a4.84,4.84,0,0,1,.74-.47,24.76,24.76,0,0,0-2.42,2.15,23.2,23.2,0,0,0-4.14,6.59,33.86,33.86,0,0,0-1.45,4,35,35,0,0,0-.82,3.42c-.18,1-.29,1.79-.35,2.35A4.9,4.9,0,0,1,215.71,187.62Z"/><path class="cls-6" d="M78.76,31l-.27,0-.8.06a9.94,9.94,0,0,0-1.28.19c-.25.05-.52.08-.81.16l-.9.27a15.06,15.06,0,0,0-4.28,2.18,15.34,15.34,0,0,0-4.19,4.77,15.5,15.5,0,0,0-2,7.37,15.1,15.1,0,0,0,.06,2.12c0,.36.1.71.15,1.07a8,8,0,0,0,.22,1.08,15.41,15.41,0,0,0,8.87,10.61,14.19,14.19,0,0,0,5,1.07,13.46,13.46,0,0,0,5.23-.82l.51-.19.07,0,.06,0L91.8,64.6l-.22.19-2.36-7.06,0-.08.07-.07a15.76,15.76,0,0,0,3.79-6.47,16.16,16.16,0,0,0,.48-6.86,15.73,15.73,0,0,0-5.37-9.81,14.49,14.49,0,0,0-6.71-3.19l-1.15-.18L79.45,31l-.52,0c-.11,0-.17,0-.17,0h.69l.86,0,1.15.16a15.6,15.6,0,0,1,3.11.89,16.41,16.41,0,0,1,3.71,2.26,15.89,15.89,0,0,1,3.45,4.06,16.39,16.39,0,0,1,1.59,12.83,16,16,0,0,1-3.85,6.6l0-.15,2.37,7L92,65l-.34-.16-7.41-3.65h.13l-.52.2a14.71,14.71,0,0,1-10.49-.27,15.66,15.66,0,0,1-9-10.82,7.38,7.38,0,0,1-.22-1.1c0-.37-.13-.73-.15-1.09A17.42,17.42,0,0,1,63.92,46a16.81,16.81,0,0,1,.63-4A16.1,16.1,0,0,1,66,38.52a15.19,15.19,0,0,1,4.27-4.8,14.52,14.52,0,0,1,4.36-2.16l.91-.25c.28-.08.56-.1.82-.15A7.77,7.77,0,0,1,77.69,31l.8,0Z"/><path class="cls-9" d="M82.24,44.56l-1.08,0-2.39-3.26,0-2.15s-1.67-.09-1.44,2.73,0,2.1,0,2.1-3.54.06-3.83.37A36,36,0,0,0,73.2,50a2.07,2.07,0,0,0,1.48,2.07,1.74,1.74,0,0,0,.39,0c.88,0,5.39-.78,5.39-.78l1.86,0Z"/><polygon class="cls-9" points="85.33 43.94 84.75 51.33 82.9 51.35 82.82 44.12 85.33 43.94"/></svg>